<?xml version="1.0" encoding="UTF-8" standalone="no"?>
<svg
   xmlns:dc="http://purl.org/dc/elements/1.1/"
   xmlns:cc="http://creativecommons.org/ns#"
   xmlns:rdf="http://www.w3.org/1999/02/22-rdf-syntax-ns#"
   xmlns:svg="http://www.w3.org/2000/svg"
   xmlns="http://www.w3.org/2000/svg"
   xmlns:sodipodi="http://sodipodi.sourceforge.net/DTD/sodipodi-0.dtd"
   xmlns:inkscape="http://www.inkscape.org/namespaces/inkscape"
   id="svg2"
   sodipodi:docname="backend.svg"
   viewBox="0 0 184.50077 46"
   version="1.1"
   inkscape:version="0.91 r13725"
   width="184.50076"
   height="46">
  <defs
     id="defs67" />
  <sodipodi:namedview
     id="namedview129"
     bordercolor="#666666"
     inkscape:pageshadow="2"
     guidetolerance="10"
     pagecolor="#ffffff"
     gridtolerance="10"
     inkscape:window-maximized="0"
     inkscape:zoom="9.6747567"
     objecttolerance="10"
     borderopacity="1"
     inkscape:current-layer="svg2"
     inkscape:cx="92.250381"
     inkscape:cy="23.051681"
     inkscape:window-y="0"
     inkscape:window-x="123"
     inkscape:window-width="2457"
     showgrid="false"
     inkscape:pageopacity="0"
     inkscape:window-height="1487"
     fit-margin-top="0"
     fit-margin-left="0"
     fit-margin-right="0"
     fit-margin-bottom="0" />
  <g
     id="g54"
     style="fill:#f4f6f8;stroke:#455a64;stroke-linecap:round;stroke-linejoin:round;stroke-opacity:1"
     transform="translate(-5.99995,-1.7741834)">
    <path
       id="path56"
       inkscape:connector-curvature="0"
       d="m 6.5,29.5 0,10 a 17.5,5 0 0 0 17.5,5 17.5,5 0 0 0 17.5,-5 l 0,-10"
       style="stroke:#455a64;stroke-opacity:1" />
    <path
       id="path58"
       inkscape:connector-curvature="0"
       d="m 6.5,19.5 0,10 a 17.5,5 0 0 0 17.5,5 17.5,5 0 0 0 17.5,-5 l 0,-10"
       style="stroke:#455a64;stroke-opacity:1" />
    <path
       id="path60"
       inkscape:connector-curvature="0"
       d="m 6.5,9.5 0,10 a 17.5,5 0 0 0 17.5,5 17.5,5 0 0 0 17.5,-5 l 0,-10"
       style="stroke:#455a64;stroke-opacity:1" />
    <path
       id="path62"
       inkscape:connector-curvature="0"
       d="M 24,4.5 A 17.5,5 0 0 0 6.5,9.5 17.5,5 0 0 0 24,14.5 17.5,5 0 0 0 41.5,9.5 17.5,5 0 0 0 24,4.5 Z"
       style="stroke:#455a64;stroke-opacity:1" />
  </g>
  <g
     id="g70"
     style="fill:#f4f6f8;stroke:#455a64;stroke-linecap:round;stroke-linejoin:round;stroke-opacity:1"
     transform="translate(93.360326,-1.2842717)">
    <path
       id="path72"
       inkscape:connector-curvature="0"
       d="m 31.5,5.5 -22,0 a 1,1 0 0 0 -1,1 l 0,35 a 1,1 0 0 0 1,1 l 29,0 a 1,1 0 0 0 1,-1 l 0,-28"
       style="stroke:#455a64;stroke-opacity:1" />
    <path
       id="path74"
       inkscape:connector-curvature="0"
       d="m 13,26.5 22,0 m -22,9 17,0 m -17,-3 22,0 m -22,-3 22,0 m -22,-6 22,0 m -22,-3 22,0 m -22,-3 22,0"
       style="stroke:#455a64;stroke-opacity:1" />
    <path
       id="path76"
       inkscape:connector-curvature="0"
       d="m 31.5,5.5 0,7 a 1,1 0 0 0 1,1 l 7,0 z"
       style="stroke:#455a64;stroke-opacity:1" />
  </g>
  <g
     id="g78"
     style="fill:#f4f6f8;stroke:#455a64;stroke-linecap:round;stroke-linejoin:round;stroke-opacity:1"
     transform="translate(44.69768,-1)">
    <path
       id="path80"
       inkscape:connector-curvature="0"
       d="M 12.3,1.5 11.7,4.6 9,5.7 6.4,3.9 3.9,6.4 5.7,9 l -1.1,2.7 -3.1,0.6 0,3.5 3.1,0.5 1.1,2.7 -1.8,2.6 2.5,2.5 2.6,-1.8 2.7,1.1 0.6,3.1 3.5,0 0.5,-3.1 2.7,-1.1 2.6,1.8 2.5,-2.5 -1.8,-2.6 1.1,-2.7 3.1,-0.5 0,-3.5 L 23.4,11.7 22.3,9 24.1,6.4 21.6,3.9 19,5.7 16.3,4.6 15.8,1.5 l -3.5,0 z m 1.7,8 c 2.5,0 4.5,2 4.5,4.5 0,2.5 -2,4.5 -4.5,4.5 -2.5,0 -4.5,-2 -4.5,-4.5 0,-2.5 2,-4.5 4.5,-4.5 z"
       style="stroke:#455a64;stroke-opacity:1" />
    <path
       id="path82"
       inkscape:connector-curvature="0"
       d="m 25,10.5 -0.8,4.4 -3.9,1.6 -3.8,-2.5 -3.5,3.5 2.5,3.8 -1.6,3.9 -4.4,0.8 0,5 4.4,0.8 1.6,3.9 -2.5,3.8 3.5,3.5 3.8,-2.5 3.9,1.6 0.8,4.4 5,0 0.8,-4.4 3.9,-1.6 3.8,2.5 3.5,-3.5 -2.5,-3.8 1.6,-3.9 4.4,-0.8 0,-5 -4.4,-0.8 -1.6,-3.9 2.5,-3.8 -3.5,-3.5 -3.8,2.5 -3.9,-1.6 -0.8,-4.4 -5,0 z m 2.5,12 c 3.3,0 6,2.7 6,6 0,3.3 -2.7,6 -6,6 -3.3,0 -6,-2.7 -6,-6 0,-3.3 2.7,-6 6,-6 z"
       style="stroke:#455a64;stroke-opacity:1" />
  </g>
  <metadata
     id="metadata127">
    <rdf:RDF>
      <cc:Work>
        <dc:format>image/svg+xml</dc:format>
        <dc:type
           rdf:resource="http://purl.org/dc/dcmitype/StillImage" />
        <cc:license
           rdf:resource="http://creativecommons.org/publicdomain/zero/1.0/" />
        <dc:publisher>
          <cc:Agent
             rdf:about="http://openclipart.org/">
            <dc:title>Openclipart</dc:title>
          </cc:Agent>
        </dc:publisher>
        <dc:title />
      </cc:Work>
      <cc:License
         rdf:about="http://creativecommons.org/publicdomain/zero/1.0/">
        <cc:permits
           rdf:resource="http://creativecommons.org/ns#Reproduction" />
        <cc:permits
           rdf:resource="http://creativecommons.org/ns#Distribution" />
        <cc:permits
           rdf:resource="http://creativecommons.org/ns#DerivativeWorks" />
      </cc:License>
    </rdf:RDF>
  </metadata>
  <g
     id="g64"
     style="fill:#f4f6f8;stroke:#455a64;stroke-linecap:round;stroke-linejoin:round;stroke-opacity:1"
     transform="translate(139.50076,-1.3184601)">
    <path
       id="path66"
       inkscape:connector-curvature="0"
       d="M 7,8.5 C 6,8.5 5.5,9 5.5,10 l 0,30.5 37,0 0,-27.5 C 42.5,12 42,11.5 41,11.5 L 21.5,11.5 19,9 C 18.5,8.5 18,8.5 17.5,8.5 Z"
       style="stroke:#455a64;stroke-opacity:1" />
    <path
       id="path68"
       inkscape:connector-curvature="0"
       d="m 43.5,40 c 0,1 -0.5,1.5 -1.5,1.5 l -36,0 C 5,41.5 4.5,41 4.5,40 L 3.5,17 C 3.5,16 4,15.5 5,15.5 l 38,0 c 1,0 1.5,0.5 1.5,1.5 z"
       style="stroke:#455a64;stroke-opacity:1" />
  </g>
</svg>
