<?xml version="1.0" encoding="UTF-8" standalone="no"?>
<!-- Created with Inkscape (http://www.inkscape.org/) -->

<svg
   xmlns:dc="http://purl.org/dc/elements/1.1/"
   xmlns:cc="http://creativecommons.org/ns#"
   xmlns:rdf="http://www.w3.org/1999/02/22-rdf-syntax-ns#"
   xmlns:svg="http://www.w3.org/2000/svg"
   xmlns="http://www.w3.org/2000/svg"
   xmlns:sodipodi="http://sodipodi.sourceforge.net/DTD/sodipodi-0.dtd"
   xmlns:inkscape="http://www.inkscape.org/namespaces/inkscape"
   version="1.1"
   id="svg2"
   inkscape:version="0.91+devel r"
   xml:space="preserve"
   width="536.95197"
   height="536.95197"
   viewBox="0 0 536.95195 536.95195"
   sodipodi:docname="contactform.svg"><metadata
     id="metadata8"><rdf:RDF><cc:Work
         rdf:about=""><dc:format>image/svg+xml</dc:format><dc:type
           rdf:resource="http://purl.org/dc/dcmitype/StillImage" /><dc:title></dc:title></cc:Work></rdf:RDF></metadata><defs
     id="defs6" /><sodipodi:namedview
     pagecolor="#ffffff"
     bordercolor="#666666"
     borderopacity="1"
     objecttolerance="10"
     gridtolerance="10"
     guidetolerance="10"
     inkscape:pageopacity="0"
     inkscape:pageshadow="2"
     inkscape:window-width="1590"
     inkscape:window-height="1267"
     inkscape:document-units="px"
     id="namedview4"
     showgrid="false"
     fit-margin-top="0"
     fit-margin-left="0"
     fit-margin-right="0"
     fit-margin-bottom="0"
     inkscape:zoom="0.53249998"
     inkscape:cx="280.01472"
     inkscape:cy="-62.833323"
     inkscape:window-x="1255"
     inkscape:window-y="309"
     inkscape:window-maximized="0"
     inkscape:current-layer="g10" /><g
     id="g10"
     inkscape:groupmode="layer"
     inkscape:label="ink_ext_XXXXXX"
     transform="matrix(1.3333333,0,0,-1.3333333,-653.31865,1253.1186)"><g
       id="g4509"><path
         d="m 892.703,738.482 c 0,-111.207 -90.151,-201.357 -201.357,-201.357 -111.207,0 -201.357,90.15 -201.357,201.357 0,111.206 90.15,201.357 201.357,201.357 111.206,0 201.357,-90.151 201.357,-201.357"
         style="fill:#607d8b;fill-opacity:0.94117647;fill-rule:nonzero;stroke:none;stroke-width:0.1"
         id="path16"
         inkscape:connector-curvature="0" /><path
         d="m 803.351,746.541 31.277,23.942 v 21.302 l -31.277,21.312 v -66.556"
         style="fill:#607d8b;fill-opacity:1;fill-rule:nonzero;stroke:none;stroke-width:0.1"
         id="path56"
         inkscape:connector-curvature="0" /><path
         d="m 667.64,852.838 h 77.387 l -38.944,26.536 -38.443,-26.536"
         style="fill:#607d8b;fill-opacity:1;fill-rule:nonzero;stroke:none;stroke-width:0.1"
         id="path58"
         inkscape:connector-curvature="0" /><path
         d="m 577.506,770.484 29.849,-22.85 v 63.593 l -29.849,-20.604 v -20.139"
         style="fill:#607d8b;fill-opacity:1;fill-rule:nonzero;stroke:none;stroke-width:0.1"
         id="path60"
         inkscape:connector-curvature="0" /><path
         d="m 664.851,817.511 h 107.161 c 2.488,0 4.505,-2.015 4.505,-4.505 0,-2.491 -2.017,-4.506 -4.505,-4.506 H 664.851 c -2.488,0 -4.505,2.015 -4.505,4.506 0,2.49 2.017,4.505 4.505,4.505 z M 772.012,780.239 H 635.411 c -2.488,0 -4.505,2.015 -4.505,4.506 0,2.49 2.017,4.505 4.505,4.505 h 136.601 c 2.488,0 4.505,-2.015 4.505,-4.505 0,-2.491 -2.017,-4.506 -4.505,-4.506 z m 0,-35.168 H 635.411 c -2.488,0 -4.505,2.015 -4.505,4.505 0,2.49 2.017,4.506 4.505,4.506 h 136.601 c 2.488,0 4.505,-2.016 4.505,-4.506 0,-2.49 -2.017,-4.505 -4.505,-4.505 z m -155.646,98.756 v -103.09 l 61.291,-46.918 28.446,17.068 c 1.452,0.863 3.263,0.854 4.697,-0.035 l 25.346,-15.756 58.193,44.547 V 843.827 H 616.366"
         style="fill:#607d8b;fill-opacity:1;fill-rule:nonzero;stroke:none;stroke-width:0.1"
         id="path62"
         inkscape:connector-curvature="0" /><path
         d="m 577.506,633.728 91.84,55.105 -91.84,70.304 V 633.728"
         style="fill:#607d8b;fill-opacity:1;fill-rule:nonzero;stroke:none;stroke-width:0.1"
         id="path64"
         inkscape:connector-curvature="0" /><path
         d="m 744.328,690.011 90.3,-56.133 v 125.259 l -90.3,-69.126"
         style="fill:#607d8b;fill-opacity:1;fill-rule:nonzero;stroke:none;stroke-width:0.1"
         id="path66"
         inkscape:connector-curvature="0" /><path
         d="M 708.38,701.744 589.267,630.276 H 823.35 l -114.97,71.468"
         style="fill:#607d8b;fill-opacity:1;fill-rule:nonzero;stroke:none;stroke-width:0.1"
         id="path68"
         inkscape:connector-curvature="0" /><path
         d="m 790.851,741.541 31.277,23.942 v 21.302 l -31.277,21.312 v -66.556"
         style="fill:#ffffff;fill-opacity:1;fill-rule:nonzero;stroke:none;stroke-width:0.1"
         id="path118"
         inkscape:connector-curvature="0" /><path
         d="m 655.14,847.838 h 77.387 l -38.944,26.536 -38.443,-26.536"
         style="fill:#ffffff;fill-opacity:1;fill-rule:nonzero;stroke:none;stroke-width:0.1"
         id="path120"
         inkscape:connector-curvature="0" /><path
         d="m 565.006,765.484 29.849,-22.85 v 63.593 l -29.849,-20.604 v -20.139"
         style="fill:#ffffff;fill-opacity:1;fill-rule:nonzero;stroke:none;stroke-width:0.1"
         id="path122"
         inkscape:connector-curvature="0" /><path
         d="m 652.351,812.511 h 107.161 c 2.488,0 4.505,-2.015 4.505,-4.505 0,-2.491 -2.017,-4.506 -4.505,-4.506 H 652.351 c -2.488,0 -4.505,2.015 -4.505,4.506 0,2.49 2.017,4.505 4.505,4.505 z M 759.512,775.239 H 622.911 c -2.488,0 -4.505,2.015 -4.505,4.506 0,2.49 2.017,4.505 4.505,4.505 h 136.601 c 2.488,0 4.505,-2.015 4.505,-4.505 0,-2.491 -2.017,-4.506 -4.505,-4.506 z m 0,-35.168 H 622.911 c -2.488,0 -4.505,2.015 -4.505,4.505 0,2.49 2.017,4.506 4.505,4.506 h 136.601 c 2.488,0 4.505,-2.016 4.505,-4.506 0,-2.49 -2.017,-4.505 -4.505,-4.505 z m -155.646,98.756 v -103.09 l 61.291,-46.918 28.446,17.068 c 1.452,0.863 3.263,0.854 4.697,-0.035 l 25.346,-15.756 58.193,44.547 V 838.827 H 603.866"
         style="fill:#ffffff;fill-opacity:1;fill-rule:nonzero;stroke:none;stroke-width:0.1"
         id="path124"
         inkscape:connector-curvature="0" /><path
         d="m 565.006,628.728 91.84,55.105 -91.84,70.304 V 628.728"
         style="fill:#ffffff;fill-opacity:1;fill-rule:nonzero;stroke:none;stroke-width:0.1"
         id="path126"
         inkscape:connector-curvature="0" /><path
         d="m 731.828,685.011 90.3,-56.133 v 125.259 l -90.3,-69.126"
         style="fill:#ffffff;fill-opacity:1;fill-rule:nonzero;stroke:none;stroke-width:0.1"
         id="path128"
         inkscape:connector-curvature="0" /><path
         d="M 695.88,696.744 576.767,625.276 H 810.85 l -114.97,71.468"
         style="fill:#ffffff;fill-opacity:1;fill-rule:nonzero;stroke:none;stroke-width:0.1"
         id="path130"
         inkscape:connector-curvature="0" /></g></g></svg>