<?xml version="1.0" encoding="UTF-8" standalone="no"?>
<!-- Created with Inkscape (http://www.inkscape.org/) -->

<svg
   xmlns:dc="http://purl.org/dc/elements/1.1/"
   xmlns:cc="http://creativecommons.org/ns#"
   xmlns:rdf="http://www.w3.org/1999/02/22-rdf-syntax-ns#"
   xmlns:svg="http://www.w3.org/2000/svg"
   xmlns="http://www.w3.org/2000/svg"
   xmlns:sodipodi="http://sodipodi.sourceforge.net/DTD/sodipodi-0.dtd"
   xmlns:inkscape="http://www.inkscape.org/namespaces/inkscape"
   id="svg2"
   version="1.1"
   inkscape:version="0.91 r13725"
   xml:space="preserve"
   width="419.98749"
   height="293.98749"
   viewBox="0 0 419.98749 293.98749"
   sodipodi:docname="digi.svg"><metadata
     id="metadata8"><rdf:RDF><cc:Work
         rdf:about=""><dc:format>image/svg+xml</dc:format><dc:type
           rdf:resource="http://purl.org/dc/dcmitype/StillImage" /></cc:Work></rdf:RDF></metadata><defs
     id="defs6" /><sodipodi:namedview
     pagecolor="#ffffff"
     bordercolor="#666666"
     borderopacity="1"
     objecttolerance="10"
     gridtolerance="10"
     guidetolerance="10"
     inkscape:pageopacity="0"
     inkscape:pageshadow="2"
     inkscape:window-width="1939"
     inkscape:window-height="1200"
     id="namedview4"
     showgrid="false"
     inkscape:zoom="1.9929165"
     inkscape:cx="98.411282"
     inkscape:cy="146.99374"
     inkscape:window-x="0"
     inkscape:window-y="0"
     inkscape:window-maximized="0"
     inkscape:current-layer="g10" /><g
     id="g10"
     inkscape:groupmode="layer"
     inkscape:label="ink_ext_XXXXXX"
     transform="matrix(1.25,0,0,-1.25,0,293.9875)"><path
       inkscape:connector-curvature="0"
       id="path16"
       style="fill:#1d1d1b;fill-opacity:1;fill-rule:nonzero;stroke:none"
       d="m 262.827,171.986 18.9879,0 0,1.575 -18.9879,0 0,-1.575 z" /><path
       inkscape:connector-curvature="0"
       id="path18"
       style="fill:#1d1d1b;fill-opacity:1;fill-rule:nonzero;stroke:none"
       d="m 262.827,168.365 24.827,0 0,1.57617 -24.827,0 0,-1.57617 z" /><path
       inkscape:connector-curvature="0"
       id="path20"
       style="fill:#1d1d1b;fill-opacity:1;fill-rule:nonzero;stroke:none"
       d="m 262.827,164.745 17.15,0 0,1.57539 -17.15,0 0,-1.57539 z" /><path
       inkscape:connector-curvature="0"
       id="path22"
       style="fill:#1d1d1b;fill-opacity:1;fill-rule:nonzero;stroke:none"
       d="m 262.827,161.125 23.0172,0 0,1.575 -23.0172,0 0,-1.575 z" /><path
       inkscape:connector-curvature="0"
       id="path24"
       style="fill:#1d1d1b;fill-opacity:1;fill-rule:nonzero;stroke:none"
       d="m 262.827,157.504 26.7652,0 0,1.575 -26.7652,0 0,-1.575 z" /><path
       inkscape:connector-curvature="0"
       id="path26"
       style="fill:#1d1d1b;fill-opacity:1;fill-rule:nonzero;stroke:none"
       d="m 262.827,153.883 17.15,0 0,1.57539 -17.15,0 0,-1.57539 z" /><path
       inkscape:connector-curvature="0"
       id="path28"
       style="fill:#1d1d1b;fill-opacity:1;fill-rule:nonzero;stroke:none"
       d="m 47.6563,84.0262 18.9875,0 0,1.57578 -18.9875,0 0,-1.57578 z" /><path
       inkscape:connector-curvature="0"
       id="path30"
       style="fill:#1d1d1b;fill-opacity:1;fill-rule:nonzero;stroke:none"
       d="m 47.6563,80.407 24.8281,0 0,1.57383 -24.8281,0 0,-1.57383 z" /><path
       inkscape:connector-curvature="0"
       id="path32"
       style="fill:#1d1d1b;fill-opacity:1;fill-rule:nonzero;stroke:none"
       d="m 47.6563,76.7859 17.1496,0 0,1.57617 -17.1496,0 0,-1.57617 z" /><path
       inkscape:connector-curvature="0"
       id="path34"
       style="fill:#1d1d1b;fill-opacity:1;fill-rule:nonzero;stroke:none"
       d="m 47.6563,73.1648 23.0168,0 0,1.57617 -23.0168,0 0,-1.57617 z" /><path
       inkscape:connector-curvature="0"
       id="path36"
       style="fill:#1d1d1b;fill-opacity:1;fill-rule:nonzero;stroke:none"
       d="m 47.6563,69.5449 26.7648,0 0,1.575 -26.7648,0 0,-1.575 z" /><path
       inkscape:connector-curvature="0"
       id="path38"
       style="fill:#1d1d1b;fill-opacity:1;fill-rule:nonzero;stroke:none"
       d="m 47.6563,65.9238 17.1496,0 0,1.575 -17.1496,0 0,-1.575 z" /><path
       inkscape:connector-curvature="0"
       id="path240"
       style="fill:#607d8b;fill-opacity:1;fill-rule:nonzero;stroke:none"
       d="m 249.169,203.781 c 0,4.458 3.625,8.084 8.084,8.084 4.457,0 8.083,-3.626 8.083,-8.084 0,-4.458 -3.626,-8.084 -8.083,-8.084 -4.459,0 -8.084,3.626 -8.084,8.084 z m -2.695,0 0,-10.779 10.779,0 c 5.952,0 10.778,4.826 10.778,10.779 0,5.953 -4.826,10.779 -10.778,10.779 -5.953,0 -10.779,-4.826 -10.779,-10.779" /><path
       inkscape:connector-curvature="0"
       id="path242"
       style="fill:#607d8b;fill-opacity:1;fill-rule:nonzero;stroke:none"
       d="m 253.21,202.433 8.08398,0 0,2.69414 -8.08398,0 0,-2.69414 z" /><path
       inkscape:connector-curvature="0"
       id="path244"
       style="fill:#607d8b;fill-opacity:1;fill-rule:nonzero;stroke:none"
       d="m 79.6133,195.697 c -4.4578,0 -8.084,3.626 -8.084,8.084 0,4.458 3.6262,8.084 8.084,8.084 4.4582,0 8.084,-3.626 8.084,-8.084 0,-4.458 -3.6258,-8.084 -8.084,-8.084 z m 0,18.863 c -5.9524,0 -10.7781,-4.826 -10.7781,-10.779 0,-5.953 4.8257,-10.779 10.7781,-10.779 l 10.7793,0 0,10.779 c 0,5.953 -4.8262,10.779 -10.7793,10.779" /><path
       inkscape:connector-curvature="0"
       id="path246"
       style="fill:#607d8b;fill-opacity:1;fill-rule:nonzero;stroke:none"
       d="m 80.9609,207.823 -2.6941,0 0,-2.696 -2.6953,0 0,-2.694 2.6953,0 0,-2.694 2.6941,0 0,2.694 2.6946,0 0,2.694 -2.6946,0 0,2.696" /><path
       inkscape:connector-curvature="0"
       id="path248"
       style="fill:#303e45;fill-opacity:1;fill-rule:nonzero;stroke:none"
       d="m 25.9539,123.752 0,-7.869 1.5734,0 0,-9.441 6.295,0 0,9.441 1.573,0 0,7.869 -9.4414,0 z m 4.7207,1.574 c 1.7387,0 3.1477,1.409 3.1477,3.147 0,1.738 -1.409,3.147 -3.1477,3.147 -1.7383,0 -3.1473,-1.409 -3.1473,-3.147 0,-1.738 1.409,-3.147 3.1473,-3.147" /><path
       inkscape:connector-curvature="0"
       id="path250"
       style="fill:#be1e2d;fill-opacity:1;fill-rule:evenodd;stroke:none"
       d="m 303.592,125.326 c 1.738,0 3.147,1.409 3.147,3.147 0,1.738 -1.409,3.147 -3.147,3.147 -1.738,0 -3.148,-1.409 -3.148,-3.147 0,-1.738 1.41,-3.147 3.148,-3.147" /><path
       inkscape:connector-curvature="0"
       id="path252"
       style="fill:#be1e2d;fill-opacity:1;fill-rule:evenodd;stroke:none"
       d="m 308.313,123.752 -9.442,0 0,-6.294 1.573,0 -1.573,-9.442 3.148,0 0,-1.574 3.122,0 0.025,1.574 3.147,0 -1.574,9.442 1.574,0 0,6.294" /><path
       inkscape:connector-curvature="0"
       id="path254"
       style="fill:#607d8b;fill-opacity:1;fill-rule:nonzero;stroke:none"
       d="m 165.132,63.6102 c 0,-1.5184 1.228,-2.7461 2.747,-2.7461 1.518,0 2.747,1.2277 2.747,2.7461 0,1.5168 -1.229,2.7476 -2.747,2.7476 -1.519,0 -2.747,-1.2308 -2.747,-2.7476" /><path
       inkscape:connector-curvature="0"
       id="path256"
       style="fill:#607d8b;fill-opacity:1;fill-rule:nonzero;stroke:none"
       d="m 170.661,58.8969 1.522,-2.2848 c 2.355,1.4488 3.938,4.0289 3.938,6.9981 0,4.5507 -3.69,8.2418 -8.242,8.2418 -4.552,0 -8.243,-3.6911 -8.243,-8.2418 0,-2.9692 1.584,-5.5493 3.938,-6.9981 l 1.525,2.2848 c -1.619,0.957 -2.715,2.6972 -2.715,4.7133 0,3.0347 2.46,5.4957 5.495,5.4957 3.036,0 5.493,-2.461 5.493,-5.4957 0,-2.0161 -1.097,-3.7602 -2.711,-4.7133" /><path
       inkscape:connector-curvature="0"
       id="path258"
       style="fill:#607d8b;fill-opacity:1;fill-rule:nonzero;stroke:none"
       d="m 167.879,77.348 c -7.586,0 -13.737,-6.15 -13.737,-13.7378 0,-4.875 2.556,-9.1332 6.385,-11.568 l 1.523,2.2848 c -3.091,1.9449 -5.161,5.3609 -5.161,9.2832 0,6.0679 4.919,10.9898 10.99,10.9898 6.068,0 10.99,-4.9219 10.99,-10.9898 0,-3.9223 -2.073,-7.3422 -5.163,-9.2832 l 1.525,-2.2848 c 3.828,2.4348 6.385,6.693 6.385,11.568 0,7.5878 -6.15,13.7378 -13.737,13.7378" /><path
       inkscape:connector-curvature="0"
       id="path260"
       style="fill:#607d8b;fill-opacity:1;fill-rule:nonzero;stroke:none"
       d="m 162.728,49.8738 10.302,0 -5.151,8.5864 -5.151,-8.5864" /><path
       inkscape:connector-curvature="0"
       id="path262"
       style="fill:#607d8b;fill-opacity:1;fill-rule:nonzero;stroke:none"
       d="m 171.396,161.574 c 0.257,0.851 0.626,2.159 0.987,3.681 l 4.449,0 c -1.421,-1.686 -3.297,-2.974 -5.436,-3.681 z m -5.663,-0.444 c -0.242,0.788 -0.687,2.305 -1.119,4.125 l 6.049,0 c -0.432,-1.818 -0.875,-3.337 -1.117,-4.125 -0.622,-0.1 -1.257,-0.167 -1.908,-0.167 -0.65,0 -1.283,0.067 -1.905,0.167 z m -7.287,4.125 4.45,0 c 0.36,-1.522 0.73,-2.83 0.986,-3.681 -2.142,0.705 -4.016,1.995 -5.436,3.681 z m 5.437,19.137 c -0.255,-0.851 -0.627,-2.158 -0.987,-3.681 l -4.45,0 c 1.418,1.686 3.294,2.976 5.437,3.681 z m 5.661,0.446 c 0.243,-0.792 0.687,-2.306 1.119,-4.127 l -6.049,0 c 0.432,1.821 0.877,3.335 1.119,4.127 0.622,0.099 1.255,0.166 1.905,0.166 0.651,0 1.284,-0.067 1.906,-0.166 z m 7.289,-4.127 -4.451,0 c -0.361,1.523 -0.731,2.83 -0.986,3.681 2.139,-0.705 4.015,-1.995 5.437,-3.681 z m -3.369,-6.87 c -0.076,1.655 -0.356,3.463 -0.703,5.153 l 5.271,0 c 0.893,-1.537 1.45,-3.285 1.584,-5.153 l -6.152,0 z m 0,-1.716 6.152,0 c -0.134,-1.869 -0.691,-3.616 -1.584,-5.153 l -5.271,0 c 0.347,1.69 0.627,3.497 0.703,5.153 z m -9.934,0 8.217,0 c -0.077,-1.652 -0.357,-3.461 -0.704,-5.153 l -6.808,0 c -0.345,1.692 -0.629,3.501 -0.705,5.153 z m 0.705,6.869 6.808,0 c 0.347,-1.691 0.627,-3.5 0.704,-5.153 l -8.217,0 c 0.076,1.653 0.36,3.462 0.705,5.153 z m -2.422,-5.153 -6.151,0 c 0.131,1.868 0.692,3.616 1.583,5.153 l 5.271,0 c -0.344,-1.69 -0.626,-3.498 -0.703,-5.153 z m -6.151,-1.716 6.151,0 c 0.077,-1.656 0.359,-3.463 0.703,-5.153 l -5.271,0 c -0.891,1.537 -1.452,3.284 -1.583,5.153 z m 11.976,14.596 c -7.586,0 -13.737,-6.151 -13.737,-13.738 0,-7.586 6.151,-13.737 13.737,-13.737 7.588,0 13.738,6.151 13.738,13.737 0,7.587 -6.15,13.738 -13.738,13.738" /><path
       inkscape:connector-curvature="0"
       id="path264"
       style="fill:#1d1d1b;fill-opacity:1;fill-rule:nonzero;stroke:none"
       d="m 232.845,196.172 -0.697,1.529 2.183,0.993 0.695,-1.528 -2.181,-0.994 z m -6.549,-2.981 -0.695,1.527 2.181,0.995 0.697,-1.528 -2.183,-0.994 z m -6.548,-2.982 -0.694,1.528 2.181,0.994 0.696,-1.528 -2.183,-0.994 z m -6.548,-2.981 -0.695,1.527 2.183,0.993 0.696,-1.527 -2.184,-0.993 z m -6.547,-2.982 -0.696,1.528 2.183,0.993 0.696,-1.527 -2.183,-0.994 z m -6.548,-2.982 -0.696,1.529 2.184,0.994 0.695,-1.528 -2.183,-0.995 z m -6.547,-2.981 -0.696,1.528 2.183,0.994 0.694,-1.528 -2.181,-0.994 z m -6.548,-2.981 -0.696,1.528 2.183,0.993 0.695,-1.528 -2.182,-0.993" /><path
       inkscape:connector-curvature="0"
       id="path266"
       style="fill:#1d1d1b;fill-opacity:1;fill-rule:nonzero;stroke:none"
       d="m 273.903,196.586 -2.049,1.246 0.872,1.434 2.05,-1.245 -0.873,-1.435 z m 6.149,-3.737 -2.05,1.246 0.872,1.434 2.05,-1.245 -0.872,-1.435 z m 6.148,-3.736 -2.049,1.245 0.871,1.435 2.049,-1.246 -0.871,-1.434 z m 6.148,-3.736 -2.049,1.244 0.872,1.435 2.049,-1.245 -0.872,-1.434 z m 6.149,-3.738 -2.05,1.246 0.872,1.435 2.049,-1.245 -0.871,-1.436 z m 5.935,-3.856 -1.68,0 0,1.27 -0.156,0.096 0.156,0.259 0,0.117 0.072,0 0.644,1.059 0.964,-0.586 0,-2.215 z m 0,-7.194 -1.68,0 0,2.398 1.68,0 0,-2.398 z m 0,-7.195 -1.68,0 0,2.399 1.68,0 0,-2.399 z m 0,-7.194 -1.68,0 0,2.398 1.68,0 0,-2.398 z m 0,-7.195 -1.68,0 0,2.399 1.68,0 0,-2.399 z m 0,-7.195 -1.68,0 0,2.399 1.68,0 0,-2.399" /><path
       inkscape:connector-curvature="0"
       id="path268"
       style="fill:#1d1d1b;fill-opacity:1;fill-rule:nonzero;stroke:none"
       d="m 101.444,196.172 -2.1823,0.994 0.6961,1.528 2.1822,-0.993 -0.696,-1.529 z m 6.548,-2.981 -2.182,0.994 0.696,1.528 2.182,-0.995 -0.696,-1.527 z m 6.548,-2.982 -2.182,0.994 0.695,1.528 2.182,-0.994 -0.695,-1.528 z m 6.548,-2.981 -2.183,0.993 0.696,1.527 2.182,-0.993 -0.695,-1.527 z m 6.548,-2.982 -2.184,0.994 0.697,1.527 2.182,-0.993 -0.695,-1.528 z m 6.547,-2.982 -2.182,0.995 0.695,1.528 2.183,-0.994 -0.696,-1.529 z m 6.548,-2.981 -2.182,0.994 0.694,1.528 2.184,-0.994 -0.696,-1.528 z m 6.547,-2.981 -2.182,0.993 0.696,1.528 2.182,-0.993 -0.696,-1.528" /><path
       inkscape:connector-curvature="0"
       id="path270"
       style="fill:#1d1d1b;fill-opacity:1;fill-rule:nonzero;stroke:none"
       d="m 60.3848,196.586 -0.8719,1.435 2.0496,1.245 0.8723,-1.434 -2.05,-1.246 z m -6.1485,-3.737 -0.8718,1.435 2.0488,1.245 0.8726,-1.434 -2.0496,-1.246 z m -6.1472,-3.736 -0.8723,1.434 2.05,1.246 0.8711,-1.435 -2.0488,-1.245 z m -6.1489,-3.736 -0.8726,1.434 2.0508,1.245 0.8711,-1.435 -2.0493,-1.244 z m -6.148,-3.738 -0.8711,1.436 2.0484,1.245 0.8711,-1.435 -2.0484,-1.246 z m -4.2563,-3.856 -1.6785,0 0,2.215 0.9641,0.586 0.6426,-1.059 0.0718,0 0,-0.117 0.1575,-0.259 -0.1575,-0.096 0,-1.27 z m 0,-7.195 -1.6785,0 0,2.399 1.6785,0 0,-2.399 z m 0,-7.194 -1.6785,0 0,2.399 1.6785,0 0,-2.399 z m 0,-7.194 -1.6785,0 0,2.398 1.6785,0 0,-2.398 z m 0,-7.195 -1.6785,0 0,2.398 1.6785,0 0,-2.398 z m 0,-7.195 -1.6785,0 0,2.399 1.6785,0 0,-2.399" /><path
       inkscape:connector-curvature="0"
       id="path272"
       style="fill:#1d1d1b;fill-opacity:1;fill-rule:nonzero;stroke:none"
       d="m 188.497,62.5121 -2.183,0.9938 0.696,1.5281 2.182,-0.9942 -0.695,-1.5277 z m 6.548,-2.982 -2.183,0.9937 0.696,1.5293 2.181,-0.9961 -0.694,-1.5269 z m 6.548,-2.9813 -2.184,0.9953 0.696,1.527 2.183,-0.9941 -0.695,-1.5282 z m 6.547,-2.9816 -2.183,0.9937 0.696,1.527 2.183,-0.9918 -0.696,-1.5289 z m 6.548,-2.9813 -2.183,0.995 0.695,1.5269 2.184,-0.9937 -0.696,-1.5282 z m 6.547,-2.982 -2.181,0.9941 0.694,1.529 2.183,-0.9961 -0.696,-1.527 z m 6.547,-2.9801 -2.181,0.9922 0.695,1.5289 2.183,-0.9937 -0.697,-1.5274 z m 6.549,-2.9828 -2.183,0.9942 0.697,1.5277 2.181,-0.9938 -0.695,-1.5281" /><path
       inkscape:connector-curvature="0"
       id="path274"
       style="fill:#1d1d1b;fill-opacity:1;fill-rule:nonzero;stroke:none"
       d="m 304.432,96.127 -1.68,0 0,2.3968 1.68,0 0,-2.3968 z m 0,-7.195 -1.68,0 0,2.3989 1.68,0 0,-2.3989 z m 0,-7.1949 -1.68,0 0,2.3981 1.68,0 0,-2.3981 z m 0,-7.193 -1.68,0 0,2.3981 1.68,0 0,-2.3981 z m 0,-7.1961 -1.68,0 0,2.3989 1.68,0 0,-2.3989 z m -0.964,-7.596 -0.644,1.0589 -0.072,0 0,0.1172 -0.156,0.2578 0.156,0.0961 0,1.2711 1.68,0 0,-2.2152 -0.964,-0.5859 z m -6.149,-3.736 -0.872,1.434 2.05,1.2461 0.871,-1.4359 -2.049,-1.2442 z m -6.148,-3.7379 -0.872,1.4348 2.049,1.2473 0.872,-1.4364 -2.049,-1.2457 z m -6.149,-3.734 -0.871,1.4329 2.049,1.246 0.871,-1.4351 -2.049,-1.2438 z m -6.148,-3.7371 -0.872,1.434 2.05,1.2461 0.872,-1.4359 -2.05,-1.2442 z m -6.148,-3.7379 -0.872,1.4348 2.049,1.2473 0.873,-1.4364 -2.05,-1.2457" /><path
       inkscape:connector-curvature="0"
       id="path276"
       style="fill:#1d1d1b;fill-opacity:1;fill-rule:nonzero;stroke:none"
       d="m 145.792,62.5121 -0.696,1.5277 2.182,0.9942 0.696,-1.5281 -2.182,-0.9938 z m -6.549,-2.982 -0.694,1.5269 2.182,0.9961 0.696,-1.5293 -2.184,-0.9937 z m -6.547,-2.9813 -0.695,1.5282 2.182,0.9941 0.696,-1.527 -2.183,-0.9953 z m -6.547,-2.9816 -0.697,1.5289 2.184,0.9918 0.695,-1.527 -2.182,-0.9937 z m -6.548,-2.9813 -0.696,1.5282 2.183,0.9937 0.695,-1.5269 -2.182,-0.995 z m -6.548,-2.982 -0.695,1.527 2.182,0.9961 0.695,-1.529 -2.182,-0.9941 z m -6.547,-2.9801 -0.696,1.5274 2.182,0.9937 0.696,-1.5289 -2.182,-0.9922 z m -6.5482,-2.9828 -0.6961,1.5281 2.1823,0.9938 0.696,-1.5277 -2.1822,-0.9942" /><path
       inkscape:connector-curvature="0"
       id="path278"
       style="fill:#1d1d1b;fill-opacity:1;fill-rule:nonzero;stroke:none"
       d="m 31.5359,96.127 -1.6785,0 0,2.3968 1.6785,0 0,-2.3968 z m 0,-7.195 -1.6785,0 0,2.3989 1.6785,0 0,-2.3989 z m 0,-7.1949 -1.6785,0 0,2.3981 1.6785,0 0,-2.3981 z m 0,-7.193 -1.6785,0 0,2.3981 1.6785,0 0,-2.3981 z m 0,-7.1961 -1.6785,0 0,2.3989 1.6785,0 0,-2.3989 z m -0.7144,-7.596 -0.9641,0.5859 0,2.2152 1.6785,0 0,-1.2711 0.1575,-0.0961 -0.1575,-0.2578 0,-0.1172 -0.0718,0 -0.6426,-1.0589 z m 6.148,-3.736 -2.0484,1.2442 0.8711,1.4359 2.0484,-1.2461 -0.8711,-1.434 z m 6.1489,-3.7379 -2.0508,1.2457 0.8726,1.4364 2.0493,-1.2473 -0.8711,-1.4348 z m 6.1484,-3.734 -2.05,1.2438 0.8723,1.4351 2.0488,-1.246 -0.8711,-1.4329 z m 6.1465,-3.7371 -2.0488,1.2442 0.8718,1.4359 2.0496,-1.2461 -0.8726,-1.434 z m 6.1492,-3.7379 -2.0496,1.2457 0.8719,1.4364 2.05,-1.2473 -0.8723,-1.4348" /><path
       inkscape:connector-curvature="0"
       id="path280"
       style="fill:#ffffff;fill-opacity:1;fill-rule:nonzero;stroke:none"
       d="m 308.562,176.67 c 0,-2.745 -2.226,-4.968 -4.97,-4.968 -2.744,0 -4.968,2.223 -4.968,4.968 0,2.744 2.224,4.969 4.968,4.969 2.744,0 4.97,-2.225 4.97,-4.969" /><path
       inkscape:connector-curvature="0"
       id="path282"
       style="fill:#1d1d1b;fill-opacity:1;fill-rule:nonzero;stroke:none"
       d="m 303.592,180.44 c -2.078,0 -3.77,-1.692 -3.77,-3.77 0,-2.079 1.692,-3.77 3.77,-3.77 2.078,0 3.769,1.691 3.769,3.77 0,2.078 -1.691,3.77 -3.769,3.77 z m 0,-9.938 c -3.402,0 -6.167,2.767 -6.167,6.168 0,3.402 2.765,6.168 6.167,6.168 3.401,0 6.168,-2.766 6.168,-6.168 0,-3.401 -2.767,-6.168 -6.168,-6.168" /><path
       inkscape:connector-curvature="0"
       id="path284"
       style="fill:#ffffff;fill-opacity:1;fill-rule:nonzero;stroke:none"
       d="m 35.6438,62.934 c 0,-2.7418 -2.225,-4.9692 -4.9692,-4.9692 -2.7437,0 -4.9683,2.2274 -4.9683,4.9692 0,2.7461 2.2246,4.9691 4.9683,4.9691 2.7442,0 4.9692,-2.223 4.9692,-4.9691" /><path
       inkscape:connector-curvature="0"
       id="path286"
       style="fill:#1d1d1b;fill-opacity:1;fill-rule:nonzero;stroke:none"
       d="m 30.6746,66.7059 c -2.0777,0 -3.7691,-1.6918 -3.7691,-3.7719 0,-2.0781 1.6914,-3.7692 3.7691,-3.7692 2.0781,0 3.7695,1.6911 3.7695,3.7692 0,2.0801 -1.6914,3.7719 -3.7695,3.7719 z m 0,-9.9399 c -3.4012,0 -6.1668,2.768 -6.1668,6.168 0,3.4019 2.7656,6.168 6.1668,6.168 3.4008,0 6.1684,-2.7661 6.1684,-6.168 0,-3.4 -2.7676,-6.168 -6.1684,-6.168" /><path
       inkscape:connector-curvature="0"
       id="path288"
       style="fill:#cfd8dc;fill-opacity:1;fill-rule:nonzero;stroke:none"
       d="m 36.2273,179.525 5.9321,5.796 c 1.1797,1.153 1.1797,3.026 0,4.181 -1.1821,1.154 -3.0981,1.154 -4.2793,0 l -5.9309,-5.797 -5.9328,5.797 c -1.1797,1.154 -3.0965,1.154 -4.2769,0 -1.1809,-1.155 -1.1809,-3.028 0,-4.181 l 5.9316,-5.796 -5.9316,-5.796 c -1.1809,-1.154 -1.1809,-3.025 0,-4.18 1.1804,-1.155 3.0972,-1.155 4.2769,0 l 5.9328,5.794 5.9309,-5.794 c 1.1812,-1.155 3.0972,-1.155 4.2793,0 1.1797,1.155 1.1797,3.026 0,4.18 l -5.9321,5.796" /><path
       inkscape:connector-curvature="0"
       id="path290"
       style="fill:#cfd8dc;fill-opacity:1;fill-rule:nonzero;stroke:none"
       d="m 307.36,61.7371 5.933,5.7949 c 1.181,1.1539 1.181,3.025 0,4.1809 -1.183,1.1551 -3.098,1.1551 -4.28,0 l -5.931,-5.7938 -5.932,5.7938 c -1.18,1.1551 -3.096,1.1551 -4.278,0 -1.182,-1.1559 -1.182,-3.027 0,-4.1809 l 5.932,-5.7949 -5.932,-5.7949 c -1.182,-1.1563 -1.182,-3.025 0,-4.1801 1.182,-1.1562 3.098,-1.1562 4.278,-0.0019 l 5.932,5.7949 5.931,-5.7949 c 1.182,-1.1543 3.097,-1.1543 4.28,0.0019 1.181,1.1551 1.179,3.0238 0,4.1801 l -5.933,5.7949" /><path
       inkscape:connector-curvature="0"
       id="path292"
       style="fill:#607d8b;fill-opacity:1;fill-rule:nonzero;stroke:none"
       d="m 75.3242,37.2 2.8594,0 0,-7.1512 2.8602,0 0,7.1512 2.8593,0 -4.2898,4.2891 L 75.3242,37.2" /><path
       inkscape:connector-curvature="0"
       id="path294"
       style="fill:#607d8b;fill-opacity:1;fill-rule:nonzero;stroke:none"
       d="m 73.6555,43.8418 c -0.8457,-0.625 -1.5864,-1.377 -2.1992,-2.2297 l 1.1621,-0.832 c 0.5261,0.732 1.1621,1.375 1.8867,1.9121 l -0.8496,1.1496" /><path
       inkscape:connector-curvature="0"
       id="path296"
       style="fill:#607d8b;fill-opacity:1;fill-rule:nonzero;stroke:none"
       d="m 79.5383,44.3719 -0.0129,1.4312 c -1.0566,-0.009 -2.0945,-0.1832 -3.0906,-0.5152 l 0.4531,-1.3559 c 0.8516,0.2848 1.7437,0.434 2.6504,0.4399" /><path
       inkscape:connector-curvature="0"
       id="path298"
       style="fill:#607d8b;fill-opacity:1;fill-rule:nonzero;stroke:none"
       d="m 73.748,27.6289 c 0.8543,-0.6148 1.7958,-1.091 2.7981,-1.4141 l 0.4363,1.3641 c -0.8586,0.2731 -1.6648,0.6789 -2.3957,1.2109 L 73.748,27.6289" /><path
       inkscape:connector-curvature="0"
       id="path300"
       style="fill:#607d8b;fill-opacity:1;fill-rule:nonzero;stroke:none"
       d="m 70.0852,32.618 c 0.3328,-0.9981 0.814,-1.934 1.439,-2.7828 l 1.1528,0.8449 c -0.5344,0.7308 -0.9504,1.5308 -1.2344,2.3871 L 70.0852,32.618" /><path
       inkscape:connector-curvature="0"
       id="path302"
       style="fill:#607d8b;fill-opacity:1;fill-rule:nonzero;stroke:none"
       d="m 71.4133,38.377 -1.3637,0.432 c -0.3101,-0.9801 -0.4683,-2.002 -0.4683,-3.0391 l 0,-0.0551 1.4292,0.0551 c 0,0.891 0.1348,1.768 0.4028,2.6071" /><path
       inkscape:connector-curvature="0"
       id="path304"
       style="fill:#607d8b;fill-opacity:1;fill-rule:nonzero;stroke:none"
       d="m 87.6711,41.7512 -1.1508,-0.8524 c 0.5434,-0.7269 0.9621,-1.5269 1.2492,-2.3789 l 1.3567,0.4571 c -0.3352,0.9921 -0.8242,1.9281 -1.4551,2.7742" /><path
       inkscape:connector-curvature="0"
       id="path306"
       style="fill:#607d8b;fill-opacity:1;fill-rule:nonzero;stroke:none"
       d="m 89.2219,35.8441 -1.0063,-0.0742 c 0,-0.9058 -0.1402,-1.7988 -0.4176,-2.6539 l 1.3614,-0.4398 c 0.323,0.9976 0.4871,2.0367 0.4871,3.1207 l -0.4246,0.0472" /><path
       inkscape:connector-curvature="0"
       id="path308"
       style="fill:#607d8b;fill-opacity:1;fill-rule:nonzero;stroke:none"
       d="m 84.6785,28.8172 0.8449,-1.1543 c 0.8528,0.6211 1.5965,1.3691 2.2129,2.218 l -1.155,0.8421 c -0.5305,-0.73 -1.1711,-1.371 -1.9028,-1.9058" /><path
       inkscape:connector-curvature="0"
       id="path310"
       style="fill:#607d8b;fill-opacity:1;fill-rule:nonzero;stroke:none"
       d="M 82.6262,45.3418 82.1941,43.977 c 0.8594,-0.2692 1.6704,-0.6719 2.4067,-1.1969 l 0.8316,1.166 c -0.8609,0.6109 -1.8062,1.082 -2.8062,1.3957" /><path
       inkscape:connector-curvature="0"
       id="path312"
       style="fill:#607d8b;fill-opacity:1;fill-rule:nonzero;stroke:none"
       d="m 79.6387,27.1648 0.0058,-1.4277 c 1.0575,0.0039 2.0989,0.1699 3.0926,0.4938 l -0.4461,1.3589 c -0.8484,-0.2769 -1.7422,-0.4199 -2.6523,-0.425" /><path
       inkscape:connector-curvature="0"
       id="path314"
       style="fill:#607d8b;fill-opacity:1;fill-rule:nonzero;stroke:none"
       d="m 260.179,34.3398 -2.86,0 0,7.1512 -2.86,0 0,-7.1512 -2.86,0 4.29,-4.291 4.29,4.291" /><path
       inkscape:connector-curvature="0"
       id="path316"
       style="fill:#607d8b;fill-opacity:1;fill-rule:nonzero;stroke:none"
       d="m 261.847,27.698 c 0.847,0.625 1.586,1.375 2.2,2.2301 l -1.163,0.8321 c -0.526,-0.7321 -1.161,-1.3774 -1.887,-1.9141 l 0.85,-1.1481" /><path
       inkscape:connector-curvature="0"
       id="path318"
       style="fill:#607d8b;fill-opacity:1;fill-rule:nonzero;stroke:none"
       d="m 255.965,27.1672 0.013,-1.4301 c 1.056,0.0078 2.094,0.182 3.089,0.5141 l -0.452,1.3547 c -0.851,-0.2848 -1.744,-0.4321 -2.65,-0.4387" /><path
       inkscape:connector-curvature="0"
       id="path320"
       style="fill:#607d8b;fill-opacity:1;fill-rule:nonzero;stroke:none"
       d="m 261.755,43.909 c -0.854,0.6172 -1.796,1.093 -2.796,1.414 l -0.438,-1.3621 c 0.857,-0.275 1.666,-0.6808 2.397,-1.2097 l 0.837,1.1578" /><path
       inkscape:connector-curvature="0"
       id="path322"
       style="fill:#607d8b;fill-opacity:1;fill-rule:nonzero;stroke:none"
       d="m 265.418,38.9199 c -0.332,0.9992 -0.814,1.934 -1.44,2.784 l -1.151,-0.8461 c 0.533,-0.7289 0.949,-1.5308 1.233,-2.3867 l 1.358,0.4488" /><path
       inkscape:connector-curvature="0"
       id="path324"
       style="fill:#607d8b;fill-opacity:1;fill-rule:nonzero;stroke:none"
       d="m 264.09,33.1629 1.363,-0.434 c 0.311,0.9789 0.469,2.0039 0.469,3.0391 l 0,0.055 -1.431,-0.055 c 0,-0.8891 -0.135,-1.7668 -0.401,-2.6051" /><path
       inkscape:connector-curvature="0"
       id="path326"
       style="fill:#607d8b;fill-opacity:1;fill-rule:nonzero;stroke:none"
       d="m 247.833,29.7879 1.148,0.8531 c -0.541,0.725 -0.96,1.5281 -1.248,2.377 l -1.355,-0.4551 c 0.334,-0.9938 0.823,-1.9277 1.455,-2.775" /><path
       inkscape:connector-curvature="0"
       id="path328"
       style="fill:#607d8b;fill-opacity:1;fill-rule:nonzero;stroke:none"
       d="m 246.281,35.6941 1.006,0.0739 c 0,0.9082 0.142,1.7992 0.419,2.6558 l -1.363,0.4403 c -0.322,-0.9981 -0.487,-2.0391 -0.487,-3.1231 l 0.425,-0.0469" /><path
       inkscape:connector-curvature="0"
       id="path330"
       style="fill:#607d8b;fill-opacity:1;fill-rule:nonzero;stroke:none"
       d="m 250.823,42.723 -0.844,1.1532 c -0.852,-0.6223 -1.596,-1.3703 -2.212,-2.2192 l 1.156,-0.8422 c 0.529,0.7301 1.17,1.3711 1.9,1.9082" /><path
       inkscape:connector-curvature="0"
       id="path332"
       style="fill:#607d8b;fill-opacity:1;fill-rule:nonzero;stroke:none"
       d="m 252.877,26.1961 0.431,1.3648 c -0.859,0.27 -1.67,0.6743 -2.406,1.1993 l -0.832,-1.1661 c 0.861,-0.6113 1.806,-1.082 2.807,-1.398" /><path
       inkscape:connector-curvature="0"
       id="path334"
       style="fill:#607d8b;fill-opacity:1;fill-rule:nonzero;stroke:none"
       d="m 255.864,44.3738 -0.006,1.4293 C 254.8,45.7988 253.76,45.6309 252.765,45.307 l 0.447,-1.359 c 0.849,0.277 1.742,0.42 2.652,0.4258" /><path
       inkscape:connector-curvature="0"
       id="path336"
       style="fill:#303e45;fill-opacity:1;fill-rule:nonzero;stroke:none"
       d="m 95.9551,147.326 0.0012,0 -0.0012,11.275 11.2779,0 -11.2767,0 0,11.276 -0.0012,0 0,-11.276 -11.2766,0 11.2766,0 0,-11.275" /><path
       inkscape:connector-curvature="0"
       id="path338"
       style="fill:#303e45;fill-opacity:1;fill-rule:nonzero;stroke:none"
       d="m 95.9551,169.877 c -6.2266,0 -11.2766,-5.047 -11.2766,-11.276 l 11.2766,0 0,11.276" /><path
       inkscape:connector-curvature="0"
       id="path340"
       style="fill:#be1e2d;fill-opacity:1;fill-rule:nonzero;stroke:none"
       d="m 97.1184,171.041 0,-11.278 11.2776,0 0,0 c 0,6.229 -5.048,11.278 -11.2776,11.278" /><path
       inkscape:connector-curvature="0"
       id="path342"
       style="fill:#303e45;fill-opacity:1;fill-rule:nonzero;stroke:none"
       d="m 95.9551,147.326 0,11.275 -11.2766,0 c 0.0024,-6.226 5.05,-11.275 11.2766,-11.275" /><path
       inkscape:connector-curvature="0"
       id="path344"
       style="fill:#303e45;fill-opacity:1;fill-rule:nonzero;stroke:none"
       d="m 95.9563,147.326 c 6.2287,0 11.2747,5.049 11.2767,11.275 l -11.2779,0 0.0012,-11.275" /><path
       inkscape:connector-curvature="0"
       id="path346"
       style="fill:#303e45;fill-opacity:1;fill-rule:nonzero;stroke:none"
       d="m 226.794,159.764 0,-0.001 11.275,0.001 0,-11.277 0,11.276 11.276,0 0,0.001 -11.276,0 0,11.277 0,-11.277 -11.275,0" /><path
       inkscape:connector-curvature="0"
       id="path348"
       style="fill:#303e45;fill-opacity:1;fill-rule:nonzero;stroke:none"
       d="m 249.345,159.764 c 0,6.228 -5.047,11.277 -11.276,11.277 l 0,-11.277 11.276,0" /><path
       inkscape:connector-curvature="0"
       id="path350"
       style="fill:#cfd8dc;fill-opacity:1;fill-rule:nonzero;stroke:none"
       d="m 250.508,158.601 -11.277,0 0,-11.277 c 6.229,0 11.277,5.049 11.277,11.277" /><path
       inkscape:connector-curvature="0"
       id="path352"
       style="fill:#303e45;fill-opacity:1;fill-rule:nonzero;stroke:none"
       d="m 226.794,159.764 11.275,0 0,11.277 c -6.227,-0.002 -11.275,-5.049 -11.275,-11.277" /><path
       inkscape:connector-curvature="0"
       id="path354"
       style="fill:#303e45;fill-opacity:1;fill-rule:nonzero;stroke:none"
       d="m 226.794,159.763 c 0,-6.228 5.048,-11.275 11.275,-11.276 l 0,11.277 -11.275,-0.001" /><path
       inkscape:connector-curvature="0"
       id="path356"
       style="fill:#303e45;fill-opacity:1;fill-rule:nonzero;stroke:none"
       d="m 239.232,85.1922 -0.001,0 0.001,-11.275 -11.278,0 11.277,0 0,-11.2781 0.001,0 0,11.2781 11.277,0 -11.277,0 0,11.275" /><path
       inkscape:connector-curvature="0"
       id="path358"
       style="fill:#303e45;fill-opacity:1;fill-rule:nonzero;stroke:none"
       d="m 239.232,62.6391 c 6.228,0 11.277,5.0488 11.277,11.2781 l -11.277,0 0,-11.2781" /><path
       inkscape:connector-curvature="0"
       id="path360"
       style="fill:#be1e2d;fill-opacity:1;fill-rule:nonzero;stroke:none"
       d="m 238.069,61.477 0,11.2769 -11.276,0 0,0 c 0,-6.2277 5.048,-11.2769 11.276,-11.2769" /><path
       inkscape:connector-curvature="0"
       id="path362"
       style="fill:#303e45;fill-opacity:1;fill-rule:nonzero;stroke:none"
       d="m 239.232,85.1922 0,-11.275 11.277,0 c -0.002,6.2258 -5.049,11.275 -11.277,11.275" /><path
       inkscape:connector-curvature="0"
       id="path364"
       style="fill:#303e45;fill-opacity:1;fill-rule:nonzero;stroke:none"
       d="m 239.231,85.1922 c -6.228,0 -11.275,-5.0492 -11.277,-11.275 l 11.278,0 -0.001,11.275" /><path
       inkscape:connector-curvature="0"
       id="path366"
       style="fill:#303e45;fill-opacity:1;fill-rule:nonzero;stroke:none"
       d="m 108.976,72.7539 -11.2756,0 0,11.2762 0,-11.2762 -11.2766,0 11.2766,0 0,-11.2769 0,11.2769 11.2756,0" /><path
       inkscape:connector-curvature="0"
       id="path368"
       style="fill:#303e45;fill-opacity:1;fill-rule:nonzero;stroke:none"
       d="m 86.4238,72.7539 c 0,-6.2277 5.0481,-11.2769 11.2766,-11.2769 l 0,11.2769 -11.2766,0" /><path
       inkscape:connector-curvature="0"
       id="path370"
       style="fill:#cfd8dc;fill-opacity:1;fill-rule:nonzero;stroke:none"
       d="m 85.2617,73.9172 11.2766,0 0,11.275 c -6.2285,0 -11.2766,-5.0473 -11.2766,-11.275" /><path
       inkscape:connector-curvature="0"
       id="path372"
       style="fill:#303e45;fill-opacity:1;fill-rule:nonzero;stroke:none"
       d="m 108.976,72.7539 -11.2756,0 0,-11.2769 c 6.2276,0.0019 11.2756,5.0492 11.2756,11.2769" /><path
       inkscape:connector-curvature="0"
       id="path374"
       style="fill:#303e45;fill-opacity:1;fill-rule:nonzero;stroke:none"
       d="m 108.976,72.7539 c 0,6.2289 -5.048,11.2742 -11.2756,11.2762 l 0,-11.2762 11.2756,0" /><path
       inkscape:connector-curvature="0"
       id="path376"
       style="fill:#cfd8dc;fill-opacity:1;fill-rule:nonzero;stroke:none"
       d="m 181.993,207.009 -14.226,-8.415 -14.223,8.443 28.449,-0.028" /><path
       inkscape:connector-curvature="0"
       id="path378"
       style="fill:#cfd8dc;fill-opacity:1;fill-rule:nonzero;stroke:none"
       d="m 197.747,206.994 c 0,-1.565 -1.268,-2.833 -2.833,-2.833 l -54.292,0 c -1.565,0 -2.832,1.268 -2.832,2.833 l 0,10.568 c 0,1.565 1.267,2.832 2.832,2.832 l 54.292,0 c 1.565,0 2.833,-1.267 2.833,-2.832 l 0,-10.568" /><path
       inkscape:connector-curvature="0"
       id="path380"
       style="fill:#cfd8dc;fill-opacity:1;fill-rule:nonzero;stroke:none"
       d="m 153.544,36.777261 14.225,8.4136 14.224,-8.4437 -28.449,0.0301" /><path
       inkscape:connector-curvature="0"
       id="path382"
       style="fill:#cfd8dc;fill-opacity:1;fill-rule:nonzero;stroke:none"
       d="m 137.79,36.790061 c 0,1.5649 1.268,2.834 2.832,2.834 l 54.292,0 c 1.565,0 2.833,-1.2691 2.833,-2.834 l 0,-10.5679 c 0,-1.5629 -1.268,-2.8321 -2.833,-2.8321 l -54.292,0 c -1.564,0 -2.832,1.2692 -2.832,2.8321 l 0,10.5679" /><path
       inkscape:connector-curvature="0"
       id="path384"
       style="fill:#be1e2d;fill-opacity:1;fill-rule:nonzero;stroke:none"
       d="m 70.8406,100.899 c 0,-0.9959 -0.8062,-1.8029 -1.8047,-1.8029 l -4.8062,0 c -0.9961,0 -1.8027,0.807 -1.8027,1.8029 l 0,26.567 c 0,0.998 0.8066,1.803 1.8027,1.803 l 4.8062,0 c 0.9985,0 1.8047,-0.805 1.8047,-1.803 l 0,-26.567" /><path
       inkscape:connector-curvature="0"
       id="path386"
       style="fill:#cfd8dc;fill-opacity:1;fill-rule:nonzero;stroke:none"
       d="m 82.1934,100.899 c 0,-0.9959 -0.8055,-1.8029 -1.8039,-1.8029 l -4.8082,0 c -0.9934,0 -1.802,0.807 -1.802,1.8029 l 0,19.837 c 0,0.995 0.8086,1.803 1.802,1.803 l 4.8082,0 c 0.9984,0 1.8039,-0.808 1.8039,-1.803 l 0,-19.837" /><path
       inkscape:connector-curvature="0"
       id="path388"
       style="fill:#303e45;fill-opacity:1;fill-rule:nonzero;stroke:none"
       d="m 93.5469,100.899 c 0,-0.9959 -0.8074,-1.8029 -1.8035,-1.8029 l -4.8086,0 c -0.9946,0 -1.8032,0.807 -1.8032,1.8029 l 0,30.944 c 0,0.995 0.8086,1.804 1.8032,1.804 l 4.8086,0 c 0.9961,0 1.8035,-0.809 1.8035,-1.804 l 0,-30.944" /><path
       inkscape:connector-curvature="0"
       id="path390"
       style="fill:#be1e2d;fill-opacity:1;fill-rule:nonzero;stroke:none"
       d="m 251.922,100.899 c 0,-0.9959 -0.807,-1.8029 -1.804,-1.8029 l -4.807,0 c -0.996,0 -1.804,0.807 -1.804,1.8029 l 0,21.471 c 0,0.997 0.808,1.803 1.804,1.803 l 4.807,0 c 0.997,0 1.804,-0.806 1.804,-1.803 l 0,-21.471" /><path
       inkscape:connector-curvature="0"
       id="path392"
       style="fill:#cfd8dc;fill-opacity:1;fill-rule:nonzero;stroke:none"
       d="m 263.274,100.899 c 0,-0.9959 -0.806,-1.8029 -1.802,-1.8029 l -4.809,0 c -0.995,0 -1.803,0.807 -1.803,1.8029 l 0,32.579 c 0,0.995 0.808,1.803 1.803,1.803 l 4.809,0 c 0.996,0 1.802,-0.808 1.802,-1.803 l 0,-32.579" /><path
       inkscape:connector-curvature="0"
       id="path394"
       style="fill:#303e45;fill-opacity:1;fill-rule:nonzero;stroke:none"
       d="m 274.628,100.899 c 0,-0.9959 -0.807,-1.8029 -1.803,-1.8029 l -4.808,0 c -0.996,0 -1.803,0.807 -1.803,1.8029 l 0,25.849 c 0,0.993 0.807,1.802 1.803,1.802 l 4.808,0 c 0.996,0 1.803,-0.809 1.803,-1.802 l 0,-25.849" /><path
       inkscape:connector-curvature="0"
       id="path396"
       style="fill:#303e45;fill-opacity:1;fill-rule:evenodd;stroke:none"
       d="m 168.96,91.448 -45.356,0 0,56.983 c 0,1.713 1.389,3.103 3.102,3.103 l 82.184,0 c 1.713,0 3.1,-1.39 3.1,-3.103 l 0,-56.983 -43.03,0" /><path
       inkscape:connector-curvature="0"
       id="path398"
       style="fill:#303e45;fill-opacity:1;fill-rule:evenodd;stroke:none"
       d="m 223.62,91.448 c 0,-2.571 -2.043,-4.6531 -4.564,-4.6531 l -102.518,0 c -2.521,0 -4.563,2.0821 -4.563,4.6531 l 111.645,0" /><path
       inkscape:connector-curvature="0"
       id="path400"
       style="fill:#cfd8dc;fill-opacity:1;fill-rule:evenodd;stroke:none;opacity:1"
       d="m 126.88,95.159 81.834,0 0,52.6609 -81.834,0 0,-52.6609 z" /><path
       inkscape:connector-curvature="0"
       id="path402"
       style="fill:#e0e0df;fill-opacity:1;fill-rule:evenodd;stroke:none"
       d="m 175.729,91.448 c 0,-0.8582 -0.726,-1.5511 -1.621,-1.5511 l -12.622,0 c -0.893,0 -1.62,0.6929 -1.62,1.5511 l 15.863,0" /><g
       transform="matrix(0.20031381,0,0,-0.20031381,112.89381,190.93953)"
       id="layer1"
       inkscape:label="Ebene 1"><g
         transform="matrix(0.85549715,0,0,0.85549715,13.052027,38.867507)"
         id="g4781"><g
           style="font-style:normal;font-variant:normal;font-weight:normal;font-stretch:normal;font-size:80px;line-height:100%;font-family:'Roboto Slab';-inkscape-font-specification:'Roboto Slab, Normal';text-align:start;letter-spacing:0px;word-spacing:0px;writing-mode:lr-tb;text-anchor:start;fill:#607d8b;fill-opacity:1;stroke:none;stroke-width:1px;stroke-linecap:butt;stroke-linejoin:miter;stroke-opacity:1"
           id="text4136"><path
             d="m 121.5346,346.23499 -5.78125,0 -1.25,-5.07813 q -1.40625,-1.32812 -3.55469,-2.10937 -2.10937,-0.82032 -4.80469,-0.82032 -4.10156,0 -6.09375,1.79688 -1.992183,1.79687 -1.992183,4.33594 0,2.5 1.757812,3.94531 1.757811,1.44531 7.148441,2.57812 8.00781,1.71875 11.91406,4.6875 3.90625,2.92969 3.90625,7.89063 0,5.625 -4.57031,9.10156 -4.53125,3.47656 -11.875,3.47656 -4.80469,0 -8.632816,-1.09375 -3.828125,-1.13281 -6.835937,-3.24218 l -0.03906,-9.64844 5.78125,0 1.445313,5.66406 q 1.328125,1.21094 3.593753,1.75781 2.30468,0.54688 4.6875,0.54688 4.10156,0 6.40625,-1.64063 2.34375,-1.67968 2.34375,-4.375 0,-2.53906 -1.95313,-4.17968 -1.91406,-1.64063 -7.30469,-2.85157 -7.695308,-1.67968 -11.601558,-4.57031 -3.90625,-2.89062 -3.90625,-7.8125 0,-5.15625 4.375,-8.78906 4.414062,-3.63281 11.445308,-3.63281 4.80469,0 8.63282,1.25 3.82812,1.25 6.36718,3.47656 l 0.39063,9.33594 z"
             style=""
             id="path91481" /><path
             d="m 129.9721,370.29749 6.36719,-1.09375 0,-30.19532 -6.36719,-1.09375 0,-4.96093 14.0625,0 0,36.25 6.36719,1.09375 0,4.92187 -20.42969,0 0,-4.92187 z m 14.0625,-48.16407 -7.69531,0 0,-7.85156 7.69531,0 0,7.85156 z"
             style=""
             id="path91483" /><path
             d="m 154.69866,370.29749 6.36719,-1.09375 0,-30.19532 -6.36719,-1.09375 0,-4.96093 13.28125,0 0.50781,5.50781 q 2.03125,-3.00781 5.23438,-4.64844 3.20312,-1.64062 7.42187,-1.64062 4.21875,0 7.22657,1.95312 3.04687,1.95313 4.57031,5.85938 1.99219,-3.59375 5.27344,-5.70313 3.28125,-2.10937 7.65625,-2.10937 6.48437,0 10.23437,4.45312 3.75,4.41406 3.75,13.32031 l 0,19.25782 6.36719,1.09375 0,4.92187 -20.46875,0 0,-4.92187 6.36719,-1.09375 0,-19.33594 q 0,-6.25 -2.14844,-8.82813 -2.14844,-2.61718 -6.36719,-2.61718 -4.02344,0 -6.48437,2.85156 -2.42188,2.8125 -2.8125,7.10937 l 0,20.82032 6.36718,1.09375 0,4.92187 -20.42968,0 0,-4.92187 6.36718,-1.09375 0,-19.33594 q 0,-5.9375 -2.22656,-8.67188 -2.1875,-2.77343 -6.36719,-2.77343 -3.51562,0 -5.78125,1.44531 -2.26562,1.44531 -3.47656,4.0625 l 0,25.27344 6.36719,1.09375 0,4.92187 -20.42969,0 0,-4.92187 z"
             style=""
             id="path91485" /><path
             d="m 230.9096,386.50842 6.36719,-1.09375 0,-46.40625 -6.36719,-1.09375 0,-4.96093 12.96875,0 0.70312,5.15625 q 2.10938,-2.89063 5.11719,-4.41407 3.04688,-1.52343 7.03125,-1.52343 7.85156,0 12.1875,6.25 4.375,6.21093 4.375,16.44531 l 0,0.82031 q 0,9.14063 -4.375,14.76563 -4.375,5.58593 -12.07031,5.58593 -3.90625,0 -6.875,-1.28906 -2.92969,-1.32812 -5,-3.90625 l 0,14.57031 6.36719,1.09375 0,4.96094 -20.42969,0 0,-4.96094 z m 34.64844,-31.64062 q 0,-7.22656 -2.8125,-11.83594 -2.8125,-4.60937 -8.35938,-4.60937 -3.28125,0 -5.625,1.48437 -2.34375,1.48438 -3.78906,4.0625 l 0,20.58594 q 1.44531,2.61719 3.75,4.0625 2.34375,1.40625 5.74219,1.40625 5.46875,0 8.28125,-3.98438 2.8125,-3.98437 2.8125,-10.35156 l 0,-0.82031 z"
             style=""
             id="path91487" /><path
             d="m 278.91741,319.2428 0,-4.96094 14.0625,0 0,54.92188 6.36719,1.09375 0,4.92187 -20.42969,0 0,-4.92187 6.36719,-1.09375 0,-48.86719 -6.36719,-1.09375 z"
             style=""
             id="path91489" /><path
             d="m 390.51897,370.29749 6.36719,-1.09375 0,-47.89063 q -2.26562,-0.54687 -4.64844,-0.85937 -2.38281,-0.35157 -4.80468,-0.35157 -5.39063,0 -7.8125,2.42188 -2.38282,2.42187 -2.38282,7.38281 l 0,3.04688 9.80469,0 0,5.70312 -9.80469,0 0,30.54688 6.36719,1.09375 0,4.92187 -20.42969,0 0,-4.92187 6.36719,-1.09375 0,-30.54688 -5.625,0 0,-5.70312 5.625,0 0,-3.04688 q 0,-7.85156 4.57031,-12.14844 4.60938,-4.29687 12.73438,-4.29687 3.35937,0 6.64062,0.625 3.28125,0.625 7.61719,1.79687 l 3.47656,0 0,53.32032 6.36719,1.09375 0,4.92187 -20.42969,0 0,-4.92187 z"
             style=""
             id="path91491" /><path
             d="m 417.51116,353.69592 q 0,-9.375 5.07813,-15.42968 5.07812,-6.09375 13.78906,-6.09375 8.75,0 13.82812,6.05468 5.11719,6.05469 5.11719,15.46875 l 0,0.85938 q 0,9.45312 -5.07812,15.46875 -5.07813,6.01562 -13.78907,6.01562 -8.78906,0 -13.86718,-6.01562 -5.07813,-6.05469 -5.07813,-15.46875 l 0,-0.85938 z m 7.69531,0.85938 q 0,6.71875 2.8125,11.09375 2.85157,4.375 8.4375,4.375 5.46875,0 8.32032,-4.375 2.85156,-4.375 2.85156,-11.09375 l 0,-0.85938 q 0,-6.64062 -2.85156,-11.05468 -2.85157,-4.41407 -8.39844,-4.41407 -5.54688,0 -8.35938,4.41407 -2.8125,4.41406 -2.8125,11.05468 l 0,0.85938 z"
             style=""
             id="path91493" /><path
             d="m 477.31585,337.91467 -4.84375,0.85938 5.50781,21.05469 0.89844,5.11718 0.23437,0 1.09375,-5.11718 8.4375,-26.875 6.17188,0 8.47656,26.875 1.21094,5.70312 0.23437,0 1.13282,-5.70312 5.19531,-21.05469 -4.92188,-0.85938 0,-4.96093 16.09375,0 0,4.96093 -3.67187,0.54688 -10.66406,36.75781 -6.21094,0 -8.20313,-25.74219 -1.75781,-7.10937 -0.23437,0.0391 -1.64063,7.07031 -8.04687,25.74219 -6.21094,0 -10.66406,-36.75781 -3.71094,-0.54688 0,-4.96093 16.09375,0 0,4.96093 z"
             style=""
             id="path91495" /></g><g
           transform="translate(213.9236,49.079473)"
           id="g91377"><path
             style="color:#000000;display:inline;overflow:visible;visibility:visible;fill:#ff5252;fill-opacity:1;stroke:#ff5252;stroke-width:2.19070911px;stroke-linecap:butt;stroke-linejoin:miter;stroke-miterlimit:4;stroke-dasharray:none;stroke-dashoffset:0;stroke-opacity:1;marker:none;enable-background:accumulate"
             d="m 143.59675,317.81943 a 7.3023639,7.3023639 0 0 1 -7.30236,7.30236 7.3023639,7.3023639 0 0 1 -7.30237,-7.30236 7.3023639,7.3023639 0 0 1 7.30237,-7.30237 7.3023639,7.3023639 0 0 1 7.30236,7.30237 z"
             id="path4567-7" /><path
             style="color:#000000;display:inline;overflow:visible;visibility:visible;fill:#ff5252;fill-opacity:1;stroke:#ff5252;stroke-width:2.19070911px;stroke-linecap:butt;stroke-linejoin:miter;stroke-miterlimit:4;stroke-dasharray:none;stroke-dashoffset:0;stroke-opacity:1;marker:none;enable-background:accumulate"
             d="m 107.55065,317.8158 a 7.3023634,7.3023634 0 0 1 -7.30236,7.30236 7.3023634,7.3023634 0 0 1 -7.302362,-7.30236 7.3023634,7.3023634 0 0 1 7.302362,-7.30237 7.3023634,7.3023634 0 0 1 7.30236,7.30237 z"
             id="path4567-7-3" /><path
             style="color:#000000;display:inline;overflow:visible;visibility:visible;fill:#ff5252;fill-opacity:1;stroke:#ff5252;stroke-width:2.19070911px;stroke-linecap:butt;stroke-linejoin:miter;stroke-miterlimit:4;stroke-dasharray:none;stroke-dashoffset:0;stroke-opacity:1;marker:none;enable-background:accumulate"
             d="m 107.92225,283.81467 a 7.3023634,7.3023634 0 0 1 -7.30236,7.30236 7.3023634,7.3023634 0 0 1 -7.302365,-7.30236 7.3023634,7.3023634 0 0 1 7.302365,-7.30237 7.3023634,7.3023634 0 0 1 7.30236,7.30237 z"
             id="path4567-7-7" /><path
             style="color:#000000;display:inline;overflow:visible;visibility:visible;fill:#ff5252;fill-opacity:1;stroke:#ff5252;stroke-width:2.19070911px;stroke-linecap:butt;stroke-linejoin:miter;stroke-miterlimit:4;stroke-dasharray:none;stroke-dashoffset:0;stroke-opacity:1;marker:none;enable-background:accumulate"
             d="m 143.96719,284.55786 a 7.3023634,7.3023634 0 0 1 -7.30236,7.30236 7.3023634,7.3023634 0 0 1 -7.30237,-7.30236 7.3023634,7.3023634 0 0 1 7.30237,-7.30236 7.3023634,7.3023634 0 0 1 7.30236,7.30236 z"
             id="path4567-7-9" /></g></g></g><text
       xml:space="preserve"
       style="font-style:normal;font-variant:normal;font-weight:bold;font-stretch:normal;font-size:7px;line-height:80.00000119%;font-family:Roboto;-inkscape-font-specification:'Roboto, Bold';text-align:start;letter-spacing:0px;word-spacing:0px;writing-mode:lr-tb;text-anchor:start;fill:#303e45;fill-opacity:1;stroke:none;stroke-width:1px;stroke-linecap:butt;stroke-linejoin:miter;stroke-opacity:1"
       x="67.840279"
       y="-10.436961"
       id="text4833"
       sodipodi:linespacing="80.000001%"
       transform="scale(1,-1)"><tspan
         sodipodi:role="line"
         x="67.840279"
         y="-10.436961"
         id="tspan4839" /><tspan
         sodipodi:role="line"
         x="67.840279"
         y="-4.8369608"
         id="tspan4847">Er kennt alle Tasks, die du machst, gemacht hast und bald machen wirst.</tspan></text>
<text
       xml:space="preserve"
       style="font-style:normal;font-variant:normal;font-weight:bold;font-stretch:normal;font-size:8px;line-height:100%;font-family:Roboto;-inkscape-font-specification:'Roboto, Bold';text-align:start;letter-spacing:0px;word-spacing:0px;writing-mode:lr-tb;text-anchor:start;fill:#000000;fill-opacity:1;stroke:none;stroke-width:1px;stroke-linecap:butt;stroke-linejoin:miter;stroke-opacity:1"
       x="142.1033"
       y="-106.37678"
       id="text4841"
       sodipodi:linespacing="100%"
       transform="scale(1,-1)"><tspan
         sodipodi:role="line"
         id="tspan4843"
         x="142.1033"
         y="-106.37678">Flow my tasks</tspan></text>
<text
       xml:space="preserve"
       style="font-style:normal;font-variant:normal;font-weight:bold;font-stretch:normal;font-size:7px;line-height:89.99999762%;font-family:Roboto;-inkscape-font-specification:'Roboto, Bold';text-align:start;letter-spacing:0px;word-spacing:0px;writing-mode:lr-tb;text-anchor:start;fill:#303e45;fill-opacity:1;stroke:none;stroke-width:1px;stroke-linecap:butt;stroke-linejoin:miter;stroke-opacity:1"
       x="108.38387"
       y="-14.852624"
       id="text4849"
       sodipodi:linespacing="89.999998%"
       transform="scale(1,-1)"><tspan
         sodipodi:role="line"
         id="tspan4851"
         x="108.38387"
         y="-14.852624">simpl-flow weiß, was du machen musst.</tspan></text>
</g></svg>