<?xml version="1.0" encoding="UTF-8" standalone="no"?>
<!-- Generator: Adobe Illustrator 16.0.0, SVG Export Plug-In . SVG Version: 6.00 Build 0)  -->

<svg
   xmlns:dc="http://purl.org/dc/elements/1.1/"
   xmlns:cc="http://creativecommons.org/ns#"
   xmlns:rdf="http://www.w3.org/1999/02/22-rdf-syntax-ns#"
   xmlns:svg="http://www.w3.org/2000/svg"
   xmlns="http://www.w3.org/2000/svg"
   xmlns:sodipodi="http://sodipodi.sourceforge.net/DTD/sodipodi-0.dtd"
   xmlns:inkscape="http://www.inkscape.org/namespaces/inkscape"
   version="1.1"
   id="Layer_1"
   x="0px"
   y="0px"
   width="335.986px"
   height="235.19px"
   viewBox="0 0 335.986 235.19"
   enable-background="new 0 0 335.986 235.19"
   xml:space="preserve"
   inkscape:version="0.91 r13725"
   sodipodi:docname="digi2.svg"><metadata
     id="metadata239"><rdf:RDF><cc:Work
         rdf:about=""><dc:format>image/svg+xml</dc:format><dc:type
           rdf:resource="http://purl.org/dc/dcmitype/StillImage" /><dc:title></dc:title></cc:Work></rdf:RDF></metadata><defs
     id="defs237" /><sodipodi:namedview
     pagecolor="#ffffff"
     bordercolor="#666666"
     borderopacity="1"
     objecttolerance="10"
     gridtolerance="10"
     guidetolerance="10"
     inkscape:pageopacity="0"
     inkscape:pageshadow="2"
     inkscape:window-width="1652"
     inkscape:window-height="1112"
     id="namedview235"
     showgrid="false"
     inkscape:zoom="1.4822046"
     inkscape:cx="167.993"
     inkscape:cy="117.595"
     inkscape:window-x="0"
     inkscape:window-y="0"
     inkscape:window-maximized="0"
     inkscape:current-layer="Layer_1" /><rect
     x="0.333"
     width="335.98599"
     height="235.19"
     id="rect7"
     y="0"
     style="fill:none" /><path
     d="m 247.593,161.008 0,3.372 -2.686,0 0,-3.18 c -2.043,-0.064 -4.086,-0.652 -5.25,-1.409 l 0.875,-3.109 c 1.297,0.786 3.078,1.442 5.055,1.442 2.071,0 3.464,-1.018 3.464,-2.559 0,-1.504 -1.132,-2.42 -3.562,-3.308 -3.367,-1.245 -5.604,-2.849 -5.604,-5.865 0,-2.814 1.944,-5.012 5.215,-5.601 l 0,-3.178 2.656,0 0,3.014 c 2.041,0.065 3.435,0.59 4.474,1.113 l -0.875,3.016 c -0.777,-0.393 -2.204,-1.145 -4.406,-1.145 -2.271,0 -3.081,1.177 -3.081,2.293 0,1.34 1.168,2.126 3.955,3.211 3.627,1.373 5.216,3.142 5.216,6.094 -10e-4,2.784 -1.91,5.207 -5.446,5.799 z"
     id="path13"
     inkscape:connector-curvature="0"
     style="fill:#607d8b" /><path
     d="m 191.873,34.007 0,3.372 -2.686,0 0,-3.18 c -2.043,-0.064 -4.086,-0.652 -5.25,-1.409 l 0.875,-3.109 c 1.297,0.786 3.078,1.442 5.055,1.442 2.071,0 3.464,-1.018 3.464,-2.559 0,-1.504 -1.132,-2.42 -3.562,-3.308 -3.367,-1.245 -5.604,-2.849 -5.604,-5.865 0,-2.814 1.944,-5.012 5.215,-5.601 l 0,-3.178 2.656,0 0,3.014 c 2.041,0.065 3.435,0.59 4.474,1.113 l -0.875,3.016 c -0.777,-0.393 -2.204,-1.145 -4.406,-1.145 -2.271,0 -3.081,1.177 -3.081,2.293 0,1.34 1.168,2.126 3.955,3.211 3.627,1.373 5.216,3.142 5.216,6.094 -10e-4,2.784 -1.91,5.207 -5.446,5.799 z"
     id="path19"
     inkscape:connector-curvature="0"
     style="fill:#607d8b" /><path
     d="m 24.267,65.505 0,3.372 -2.686,0 0,-3.18 c -2.043,-0.064 -4.086,-0.652 -5.25,-1.409 l 0.875,-3.109 c 1.297,0.786 3.078,1.442 5.055,1.442 2.071,0 3.464,-1.018 3.464,-2.559 0,-1.504 -1.132,-2.42 -3.562,-3.308 -3.367,-1.245 -5.604,-2.849 -5.604,-5.865 0,-2.814 1.944,-5.012 5.215,-5.601 l 0,-3.178 2.656,0 0,3.014 c 2.041,0.065 3.435,0.59 4.474,1.113 l -0.875,3.016 c -0.777,-0.393 -2.204,-1.145 -4.406,-1.145 -2.271,0 -3.081,1.177 -3.081,2.293 0,1.34 1.168,2.126 3.955,3.211 3.627,1.373 5.216,3.142 5.216,6.094 -0.001,2.784 -1.91,5.207 -5.446,5.799 z"
     id="path25"
     inkscape:connector-curvature="0"
     style="fill:#607d8b" /><g
     id="g31"><path
       stroke-miterlimit="10"
       d="m 317.727,149.219 -1.744,0 0.008,-5.132 c 0,-3.055 -3.176,-5.529 -7.096,-5.529 -3.918,0 -7.095,2.475 -7.095,5.529 l -0.032,5.132 -1.779,0 c -0.983,0 -1.738,0.793 -1.738,1.557 l -0.036,11.106 c 0,0.765 0.83,1.556 1.812,1.556 l 17.742,0 c 0.98,0 1.731,-0.791 1.731,-1.556 l 0.04,-11.106 c -0.001,-0.764 -0.837,-1.557 -1.813,-1.557 z m -5.322,0 -7.085,0 0,-5.331 c 0,-1.522 1.622,-2.566 3.574,-2.566 1.954,0 3.535,1.044 3.535,2.566 l -0.024,5.331 z"
       id="path33"
       inkscape:connector-curvature="0"
       style="fill:#cfd8dc;stroke:#1d1d1b;stroke-width:2;stroke-miterlimit:10" /></g><g
     id="g39"><ellipse
       stroke-miterlimit="10"
       cx="296.741"
       cy="103.512"
       rx="6.2080002"
       ry="7.4829998"
       id="ellipse41"
       style="fill:#607d8b;stroke:#1d1d1b;stroke-width:2;stroke-miterlimit:10" /></g><g
     id="g43"><path
       stroke-miterlimit="10"
       d="m 309.566,118.539 c -0.194,-4.596 -3.257,-8.28 -7.102,-8.369 l -11.239,-0.257 c -4.012,-0.095 -7.357,3.758 -7.521,8.626 l 25.862,0 z"
       id="path45"
       inkscape:connector-curvature="0"
       style="fill:#607d8b;stroke:#1d1d1b;stroke-width:2;stroke-miterlimit:10" /></g><ellipse
     stroke-miterlimit="10"
     cx="30.311001"
     cy="198.87"
     rx="6.2080002"
     ry="7.4829998"
     id="ellipse51"
     style="fill:#cfd8dc;stroke:#1d1d1b;stroke-width:2;stroke-miterlimit:10" /><path
     stroke-miterlimit="10"
     d="m 43.137,213.897 c -0.194,-4.596 -3.257,-8.28 -7.102,-8.369 l -11.239,-0.257 c -4.012,-0.095 -7.357,3.758 -7.521,8.626 l 25.862,0 z"
     id="path55"
     inkscape:connector-curvature="0"
     style="fill:#cfd8dc;stroke:#1d1d1b;stroke-width:2;stroke-miterlimit:10" /><path
     style="fill:#cfd8dc;stroke:#1d1d1b;stroke-width:2;stroke-miterlimit:10"
     inkscape:connector-curvature="0"
     id="path59"
     d="m 170.051,180.414 c -16.724,0 -32.445,-6.512 -44.27,-18.339 -11.828,-11.824 -18.34,-27.547 -18.34,-44.27 0,-16.723 6.512,-32.445 18.34,-44.271 11.824,-11.826 27.546,-18.337 44.27,-18.337 16.724,0 32.445,6.511 44.27,18.337 11.824,11.825 18.338,27.548 18.338,44.271 0,16.723 -6.514,32.445 -18.338,44.27 -11.825,11.827 -27.547,18.339 -44.27,18.339 z m 0,-115.935 c -14.244,0 -27.638,5.549 -37.708,15.618 -10.071,10.073 -15.62,23.464 -15.62,37.709 0,14.245 5.549,27.636 15.62,37.708 10.07,10.072 23.464,15.619 37.708,15.619 14.244,0 27.635,-5.547 37.708,-15.619 10.072,-10.072 15.62,-23.463 15.62,-37.708 0,-14.245 -5.548,-27.636 -15.62,-37.709 -10.073,-10.07 -23.464,-15.618 -37.708,-15.618 z"
     stroke-miterlimit="10" /><path
     fill="#FFFFFF"
     stroke="#1D1D1B"
     stroke-width="2"
     stroke-miterlimit="10"
     d="M140.27,118.724  c-0.251-16.411,12.85-29.921,29.252-30.174c16.412-0.253,29.917,12.846,30.172,29.257c0.254,16.406-12.844,29.92-29.252,30.172  C154.038,148.232,140.522,135.132,140.27,118.724z"
     id="path61" /><path
     fill="#EFEFEF"
     d="M169.33,76.17c23.213-0.359,42.384,18.234,42.741,41.447c0.359,23.209-18.229,42.381-41.438,42.74  c-23.211,0.357-42.382-18.23-42.741-41.442C127.535,95.705,146.123,76.526,169.33,76.17z M170.617,159.365  c22.664-0.349,40.819-19.073,40.468-41.735c-0.351-22.665-19.074-40.818-41.738-40.47c-22.662,0.351-40.813,19.074-40.464,41.741  C129.234,141.561,147.952,159.715,170.617,159.365z"
     id="path63" /><path
     fill="#607d8b"
     d="M169.301,74.19c16.662-0.259,31.859,8.738,39.662,23.474l-4.381,2.325  c-6.925-13.09-20.417-21.075-35.204-20.846c-21.573,0.333-38.848,18.152-38.516,39.726c0.336,21.571,18.149,38.844,39.724,38.511  l0.075,4.959c-24.306,0.374-44.376-19.089-44.752-43.393C125.536,94.643,144.994,74.565,169.301,74.19z"
     id="path65" /><path
     fill="#303e45"
     d="M70.56,141.713c0,1.918-1.555,3.471-3.472,3.473H24.854c-1.917-0.002-3.471-1.555-3.471-3.471V90.266  c0-1.917,1.554-3.471,3.471-3.471h42.233c1.917,0,3.472,1.554,3.472,3.471V141.713z"
     id="path67" /><rect
     style="fill:#be1e2d;stroke:#1d1d1b;stroke-width:2;stroke-miterlimit:10"
     id="rect71"
     height="10.27"
     width="39.918999"
     stroke-miterlimit="10"
     y="92.193001"
     x="26.011999" /><path
     stroke-miterlimit="10"
     d="m 34.399,114.704 c 0,0.534 -0.433,0.969 -0.967,0.969 l -6.453,0 c -0.535,0 -0.968,-0.435 -0.969,-0.969 l 10e-4,-6.452 c -10e-4,-0.534 0.433,-0.968 0.968,-0.968 l 6.453,0 c 0.534,0 0.967,0.434 0.969,0.968 l -0.002,6.452 z"
     id="path75"
     inkscape:connector-curvature="0"
     style="fill:#ffffff;stroke:#1d1d1b;stroke-width:2;stroke-miterlimit:10" /><path
     stroke-miterlimit="10"
     d="m 44.909,114.704 c 10e-4,0.534 -0.434,0.969 -0.966,0.969 l -6.454,0 c -0.533,0.001 -0.968,-0.435 -0.968,-0.969 l 10e-4,-6.452 c -10e-4,-0.534 0.432,-0.968 0.967,-0.968 l 6.454,0 c 0.533,0 0.968,0.434 0.968,0.968 l -0.002,6.452 z"
     id="path77"
     inkscape:connector-curvature="0"
     style="fill:#ffffff;stroke:#1d1d1b;stroke-width:2;stroke-miterlimit:10" /><path
     stroke-miterlimit="10"
     d="m 55.421,114.704 c 10e-4,0.534 -0.432,0.969 -0.969,0.969 l -6.452,0 c -0.535,0 -0.968,-0.435 -0.968,-0.969 l 0,-6.452 c 0,-0.536 0.433,-0.968 0.968,-0.968 l 6.452,0 c 0.535,0 0.969,0.432 0.969,0.968 l 0,6.452 z"
     id="path79"
     inkscape:connector-curvature="0"
     style="fill:#ffffff;stroke:#1d1d1b;stroke-width:2;stroke-miterlimit:10" /><path
     stroke-miterlimit="10"
     d="m 65.931,114.704 c 0,0.534 -0.432,0.969 -0.968,0.969 l -6.453,0.001 c -0.534,0 -0.968,-0.436 -0.968,-0.97 l 0,-6.452 c 0,-0.536 0.434,-0.968 0.968,-0.968 l 6.452,0 c 0.534,0 0.969,0.434 0.969,0.968 l 0,6.452 z"
     id="path81"
     inkscape:connector-curvature="0"
     style="fill:#ffffff;stroke:#1d1d1b;stroke-width:2;stroke-miterlimit:10" /><path
     stroke-miterlimit="10"
     d="m 34.399,125.455 c 0,0.535 -0.432,0.969 -0.967,0.968 l -6.453,0.001 c -0.535,0 -0.968,-0.434 -0.968,-0.969 l 0,-6.453 c 0,-0.535 0.433,-0.966 0.968,-0.967 l 6.453,0 c 0.535,0 0.969,0.432 0.969,0.967 l -0.002,6.453 z"
     id="path85"
     inkscape:connector-curvature="0"
     style="fill:#ffffff;stroke:#1d1d1b;stroke-width:2;stroke-miterlimit:10" /><path
     stroke-miterlimit="10"
     d="m 44.909,125.455 c 0.002,0.534 -0.433,0.969 -0.966,0.968 l -6.454,0.001 c -0.533,0.002 -0.968,-0.434 -0.968,-0.969 l 10e-4,-6.453 c 0,-0.535 0.434,-0.967 0.967,-0.966 l 6.454,-0.001 c 0.533,0 0.968,0.434 0.968,0.967 l -0.002,6.453 z"
     id="path87"
     inkscape:connector-curvature="0"
     style="fill:#ffffff;stroke:#1d1d1b;stroke-width:2;stroke-miterlimit:10" /><path
     stroke-miterlimit="10"
     d="m 55.421,125.455 c 0,0.535 -0.434,0.969 -0.969,0.968 L 48,126.426 c -0.534,0 -0.968,-0.436 -0.968,-0.971 l 0,-6.453 c 0,-0.535 0.433,-0.966 0.968,-0.967 l 6.452,0 c 0.535,0 0.97,0.434 0.97,0.967 l -10e-4,6.453 z"
     id="path89"
     inkscape:connector-curvature="0"
     style="fill:#ffffff;stroke:#1d1d1b;stroke-width:2;stroke-miterlimit:10" /><path
     stroke-miterlimit="10"
     d="m 65.931,125.455 c 0,0.535 -0.435,0.969 -0.969,0.969 l -6.452,0 c -0.534,0 -0.968,-0.434 -0.968,-0.969 l 0,-6.453 c 0,-0.533 0.434,-0.966 0.968,-0.966 l 6.452,-0.001 c 0.534,0 0.969,0.432 0.969,0.967 l 0,6.453 z"
     id="path91"
     inkscape:connector-curvature="0"
     style="fill:#ffffff;stroke:#1d1d1b;stroke-width:2;stroke-miterlimit:10" /><path
     stroke-miterlimit="10"
     d="m 34.399,136.207 c 0,0.535 -0.433,0.968 -0.967,0.968 l -6.453,0 c -0.535,0 -0.969,-0.433 -0.968,-0.968 l 0.001,-6.454 c -0.002,-0.532 0.432,-0.966 0.967,-0.966 l 6.453,-0.001 c 0.535,0 0.969,0.433 0.969,0.967 l -0.002,6.454 z"
     id="path95"
     inkscape:connector-curvature="0"
     style="fill:#ffffff;stroke:#1d1d1b;stroke-width:2;stroke-miterlimit:10" /><path
     stroke-miterlimit="10"
     d="m 44.909,136.207 c 0.002,0.533 -0.433,0.968 -0.966,0.967 l -6.454,0.001 c -0.535,0 -0.968,-0.433 -0.968,-0.968 l 10e-4,-6.454 c 0,-0.534 0.434,-0.967 0.967,-0.966 l 6.454,-0.001 c 0.533,0 0.967,0.433 0.968,0.969 l -0.002,6.452 z"
     id="path97"
     inkscape:connector-curvature="0"
     style="fill:#ffffff;stroke:#1d1d1b;stroke-width:2;stroke-miterlimit:10" /><path
     stroke-miterlimit="10"
     d="m 55.422,136.207 c -10e-4,0.533 -0.435,0.968 -0.97,0.968 l -6.452,0 c -0.535,0 -0.968,-0.433 -0.968,-0.968 l 0,-6.454 c 0,-0.532 0.434,-0.967 0.968,-0.967 l 6.452,0 c 0.535,0 0.969,0.433 0.969,0.967 l 10e-4,6.454 z"
     id="path99"
     inkscape:connector-curvature="0"
     style="fill:#ffffff;stroke:#1d1d1b;stroke-width:2;stroke-miterlimit:10" /><path
     stroke-miterlimit="10"
     d="m 65.931,136.207 c 0,0.535 -0.432,0.968 -0.969,0.968 l -6.452,0 c -0.534,0 -0.968,-0.433 -0.968,-0.968 l 0,-6.454 c 0,-0.532 0.434,-0.967 0.968,-0.967 l 6.452,0 c 0.534,0 0.969,0.433 0.969,0.967 l 0,6.454 z"
     id="path101"
     inkscape:connector-curvature="0"
     style="fill:#ffffff;stroke:#1d1d1b;stroke-width:2;stroke-miterlimit:10" /><path
     fill="#303e45"
     d="M243.734,180.53c-0.003-1.239,0.953-2.251,2.133-2.259l70.314-0.301c1.184-0.008,2.146,0.998,2.15,2.24  l0.166,38.637c0.009,1.242-0.948,2.258-2.133,2.259l-70.309,0.307c-1.184,0.004-2.148-0.998-2.154-2.244L243.734,180.53z"
     id="path103" /><path
     style="fill:#607d8b"
     inkscape:connector-curvature="0"
     id="path107"
     d="m 254.875,212.134 c -0.012,-2.724 2.187,-4.944 4.912,-4.956 2.727,-0.01 4.942,2.188 4.954,4.913 0.015,2.724 -2.187,4.943 -4.909,4.952 -2.727,0.014 -4.944,-2.186 -4.957,-4.909 z" /><path
     style="fill:#607d8b"
     inkscape:connector-curvature="0"
     id="path109"
     d="m 248.082,212.162 c -0.01,-2.727 2.186,-4.943 4.91,-4.953 2.727,-0.012 4.943,2.186 4.956,4.911 0.013,2.728 -2.187,4.942 -4.91,4.952 -2.726,0.016 -4.944,-2.183 -4.956,-4.91 z" /><rect
     x="299.599"
     y="184.223"
     transform="matrix(-1 0.0041 -0.0041 -1 615.21 373.9713)"
     fill="#cfd8dc"
     stroke="#1D1D1B"
     stroke-width="2"
     stroke-miterlimit="10"
     width="15.245"
     height="6.787"
     id="rect111" /><polygon
     fill="#FFFFFF"
     stroke="#1D1D1B"
     stroke-width="2"
     stroke-miterlimit="10"
     points="247.844,195.446 314.354,195.159   314.389,203.936 247.884,204.223 "
     id="polygon113" /><rect
     x="159.882"
     y="18.131"
     fill="#FFFFFF"
     stroke="#1D1D1B"
     stroke-width="2"
     stroke-miterlimit="10"
     width="8.226"
     height="9.792"
     id="rect115" /><rect
     x="130.855"
     y="16.173"
     fill="#194C74"
     stroke="#1D1D1B"
     stroke-width="2"
     stroke-miterlimit="10"
     width="30.685"
     height="13.708"
     id="rect117" /><rect
     x="186.935"
     y="202.313"
     fill="#FFFFFF"
     stroke="#1D1D1B"
     stroke-width="2"
     stroke-miterlimit="10"
     width="8.226"
     height="9.792"
     id="rect119" /><rect
     x="193.502"
     y="200.355"
     fill="#be1e2d"
     stroke="#1D1D1B"
     stroke-width="2"
     stroke-miterlimit="10"
     width="30.685"
     height="13.708"
     id="rect121" /><polyline
     style="fill:#607d8b;stroke:#1d1d1b;stroke-width:2;stroke-miterlimit:10"
     id="polyline125"
     points="69,188.255 68.977,188.237    73.188,181.996 79.448,186.207  "
     stroke-miterlimit="10" /><polygon
     style="fill:#607d8b;stroke:#1d1d1b;stroke-width:2;stroke-miterlimit:10"
     id="polygon129"
     points="64.539,158.757 99.441,170.638 89.664,199.361 82.521,196.931 80.094,204.057 52.336,194.608 "
     stroke-miterlimit="10" /><polyline
     style="fill:#607d8b;stroke:#1d1d1b;stroke-width:2;stroke-miterlimit:10"
     id="polyline131"
     points="80.121,204.065 80.094,204.057    82.521,196.931 89.664,199.361  "
     stroke-miterlimit="10" /><polygon
     style="fill:#ffffff;stroke:#1d1d1b;stroke-width:2;stroke-miterlimit:10"
     id="polygon135"
     points="68.691,181.963 105.546,181.801 105.733,212.152 98.188,212.188 98.235,219.715 68.921,219.845 "
     stroke-miterlimit="10" /><polyline
     style="fill:#ffffff;stroke:#1d1d1b;stroke-width:2;stroke-miterlimit:10"
     id="polyline137"
     points="98.262,219.716 98.235,219.715    98.188,212.188 105.733,212.152  "
     stroke-miterlimit="10" /><rect
     x="74.16"
     y="190.05"
     transform="matrix(1 -0.0062 0.0062 1 -1.1887 0.5464)"
     fill="#cfd8dc"
     stroke="#1D1D1B"
     stroke-width="2"
     stroke-miterlimit="10"
     width="26.781"
     height="3.955"
     id="rect139" /><rect
     x="74.298"
     y="197.362"
     transform="matrix(1 -0.0061 0.0061 1 -1.2194 0.5247)"
     fill="#cfd8dc"
     stroke="#1D1D1B"
     stroke-width="2"
     stroke-miterlimit="10"
     width="21.524"
     height="3.953"
     id="rect141" /><rect
     x="74.326"
     y="204.512"
     transform="matrix(1 -0.0061 0.0061 1 -1.2633 0.5383)"
     fill="#cfd8dc"
     stroke="#1D1D1B"
     stroke-width="2"
     stroke-miterlimit="10"
     width="25.825"
     height="3.954"
     id="rect143" /><path
     fill="#194C74"
     stroke="#1D1D1B"
     stroke-width="2"
     stroke-miterlimit="10"
     d="M164.668,125.154v-7.261l-3.524,3.524  c-0.631-1.255-0.947-2.633-0.947-4.007c0-2.288,0.873-4.576,2.616-6.319c1.741-1.742,4.03-2.613,6.318-2.613  c1.543,0,3.083,0.406,4.46,1.201v-4.893h5.479c-2.907-2.293-6.423-3.451-9.939-3.451c-4.113,0-8.231,1.566-11.369,4.706  c-3.14,3.14-4.71,7.255-4.71,11.369c0,3.225,0.965,6.448,2.894,9.205l-3.42,3.421h6.649h5.493V125.154z"
     id="path145" /><path
     fill="#607d8b"
     d="M187.438,106.49h-6.663h-5.479v4.893v7.25l3.526-3.523c0.632,1.255,0.947,2.628,0.947,4.006  c0,2.289-0.871,4.573-2.616,6.314l-0.002,0.006c-1.743,1.742-4.031,2.613-6.315,2.613c-1.546,0-3.089-0.398-4.464-1.191v4.883  h-5.493c2.909,2.299,6.434,3.45,9.957,3.45c4.112,0,8.229-1.57,11.368-4.704l0.002-0.006c3.135-3.136,4.705-7.25,4.705-11.365  c0-3.224-0.965-6.447-2.894-9.203L187.438,106.49z"
     id="path147" /><rect
     style="fill:#be1e2d;stroke:#1d1d1b;stroke-width:2;stroke-miterlimit:10"
     id="rect151"
     height="31.066"
     width="59.955002"
     stroke-miterlimit="10"
     y="39.888"
     x="54.321999" /><path
     d="m 105.437,44.788 c -0.395,-0.383 -1.167,-0.696 -1.717,-0.696 l -18.419,0 c -0.55,0 -1.45,0 -2,0 l -18.708,0 c -0.55,0 -1.319,0.317 -1.71,0.704 l -3.584,3.554 c -0.391,0.388 -0.71,1.154 -0.71,1.704 l 0,10.555 c 0,0.55 0.322,1.313 0.717,1.697 l 3.859,3.748 c 0.395,0.383 1.167,0.696 1.717,0.696 l 18.419,0 c 0.55,0 1.45,0 2,0 l 18.708,0 c 0.55,0 1.319,-0.317 1.71,-0.704 l 3.584,-3.556 c 0.391,-0.388 0.71,-1.154 0.71,-1.704 l 0,-10.554 c 0,-0.55 -0.322,-1.313 -0.717,-1.696 l -3.859,-3.748 z"
     id="path155"
     inkscape:connector-curvature="0"
     style="fill:#ffffff" /><path
     stroke-miterlimit="10"
     d="m 105.437,44.788 c -0.395,-0.383 -1.167,-0.696 -1.717,-0.696 l -18.419,0 c -0.55,0 -1.45,0 -2,0 l -18.708,0 c -0.55,0 -1.319,0.317 -1.71,0.704 l -3.584,3.554 c -0.391,0.388 -0.71,1.154 -0.71,1.704 l 0,10.555 c 0,0.55 0.322,1.313 0.717,1.697 l 3.859,3.748 c 0.395,0.383 1.167,0.696 1.717,0.696 l 18.419,0 c 0.55,0 1.45,0 2,0 l 18.708,0 c 0.55,0 1.319,-0.317 1.71,-0.704 l 3.584,-3.556 c 0.391,-0.388 0.71,-1.154 0.71,-1.704 l 0,-10.554 c 0,-0.55 -0.322,-1.313 -0.717,-1.696 l -3.859,-3.748 z"
     id="path157"
     inkscape:connector-curvature="0"
     style="fill:none;stroke:#1d1d1b;stroke-width:2;stroke-miterlimit:10" /><path
     style="fill:#607d8b;stroke:#1d1d1b;stroke-width:2;stroke-miterlimit:10"
     inkscape:connector-curvature="0"
     id="path159"
     d="m 98.009,55.419 c 0,7.571 -6.138,13.709 -13.708,13.709 -7.571,0 -13.708,-6.138 -13.708,-13.709 0,-7.568 6.137,-13.706 13.708,-13.706 7.57,0 13.708,6.138 13.708,13.706 z"
     stroke-miterlimit="10" /><path
     style="fill:#ffffff;stroke:#1d1d1b;stroke-width:2;stroke-miterlimit:10"
     inkscape:connector-curvature="0"
     id="path161"
     d="m 93.044,55.42 c 0,4.828 -3.915,8.745 -8.743,8.745 -4.829,0 -8.742,-3.917 -8.742,-8.745 0,-4.826 3.913,-8.742 8.742,-8.742 4.828,0 8.743,3.916 8.743,8.742 z"
     stroke-miterlimit="10" /><rect
     style="fill:#be1e2d;stroke:#1d1d1b;stroke-width:2;stroke-miterlimit:10"
     id="rect165"
     height="31.066"
     width="59.955002"
     stroke-miterlimit="10"
     y="23.802"
     x="43.910999" /><path
     d="M 95.025,28.702 C 94.63,28.319 93.858,28.006 93.308,28.006 l -18.418,0 c -0.55,0 -1.45,0 -2,0 l -18.708,0 c -0.55,0 -1.319,0.317 -1.71,0.704 l -3.584,3.554 c -0.391,0.388 -0.71,1.154 -0.71,1.704 l 0,10.555 c 0,0.55 0.322,1.313 0.717,1.697 l 3.859,3.748 c 0.395,0.383 1.167,0.696 1.717,0.696 l 18.419,0 c 0.55,0 1.45,0 2,0 l 18.708,0 c 0.55,0 1.319,-0.317 1.71,-0.704 l 3.584,-3.556 c 0.391,-0.388 0.71,-1.154 0.71,-1.704 l 0,-10.554 c 0,-0.55 -0.322,-1.313 -0.717,-1.696 l -3.86,-3.748 z"
     id="path169"
     inkscape:connector-curvature="0"
     style="fill:#ffffff" /><path
     stroke-miterlimit="10"
     d="M 95.025,28.702 C 94.63,28.319 93.858,28.006 93.308,28.006 l -18.418,0 c -0.55,0 -1.45,0 -2,0 l -18.708,0 c -0.55,0 -1.319,0.317 -1.71,0.704 l -3.584,3.554 c -0.391,0.388 -0.71,1.154 -0.71,1.704 l 0,10.555 c 0,0.55 0.322,1.313 0.717,1.697 l 3.859,3.748 c 0.395,0.383 1.167,0.696 1.717,0.696 l 18.419,0 c 0.55,0 1.45,0 2,0 l 18.708,0 c 0.55,0 1.319,-0.317 1.71,-0.704 l 3.584,-3.556 c 0.391,-0.388 0.71,-1.154 0.71,-1.704 l 0,-10.554 c 0,-0.55 -0.322,-1.313 -0.717,-1.696 l -3.86,-3.748 z"
     id="path171"
     inkscape:connector-curvature="0"
     style="fill:none;stroke:#1d1d1b;stroke-width:2;stroke-miterlimit:10" /><path
     style="fill:#607d8b;stroke:#1d1d1b;stroke-width:2;stroke-miterlimit:10"
     inkscape:connector-curvature="0"
     id="path173"
     d="m 87.598,39.333 c 0,7.571 -6.138,13.709 -13.708,13.709 -7.571,0 -13.708,-6.138 -13.708,-13.709 0,-7.568 6.137,-13.706 13.708,-13.706 7.57,0 13.708,6.138 13.708,13.706 z"
     stroke-miterlimit="10" /><path
     style="fill:#ffffff;stroke:#1d1d1b;stroke-width:2;stroke-miterlimit:10"
     inkscape:connector-curvature="0"
     id="path175"
     d="m 82.633,39.334 c 0,4.828 -3.915,8.745 -8.743,8.745 -4.829,0 -8.742,-3.917 -8.742,-8.745 0,-4.826 3.913,-8.742 8.742,-8.742 4.828,0 8.743,3.916 8.743,8.742 z"
     stroke-miterlimit="10" /><path
     style="fill:#ffffff;stroke:#1d1d1b;stroke-width:2;stroke-miterlimit:10"
     inkscape:connector-curvature="0"
     id="path179"
     d="m 278.46,17.546 14.649,0 c 1.765,0 3.367,0.72 4.524,1.881 1.161,1.16 1.879,2.765 1.879,4.523 l 0,14.875 c 0,1.765 -0.718,3.37 -1.879,4.522 -1.157,1.16 -2.76,1.881 -4.524,1.881 l -14.649,0 c -1.764,0 -3.366,-0.721 -4.526,-1.881 -1.157,-1.152 -1.877,-2.758 -1.877,-4.522 l 0,-14.875 c 0,-1.759 0.72,-3.363 1.877,-4.523 1.16,-1.161 2.762,-1.881 4.526,-1.881 l 0,0 z m 14.649,3.925 -14.649,0 c -0.68,0 -1.306,0.278 -1.754,0.729 -0.449,0.45 -0.727,1.076 -0.727,1.751 l 0,14.875 c 0,0.677 0.277,1.3 0.727,1.75 0.448,0.452 1.074,0.735 1.754,0.735 l 14.649,0 c 0.684,0 1.305,-0.283 1.752,-0.735 0.454,-0.45 0.73,-1.073 0.73,-1.75 l 0,-14.876 c 0,-0.675 -0.276,-1.301 -0.73,-1.751 -0.447,-0.45 -1.068,-0.728 -1.752,-0.728 z"
     stroke-miterlimit="10" /><path
     style="clip-rule:evenodd;fill:#cfd8dc;fill-rule:evenodd;stroke:#1d1d1b;stroke-width:2;stroke-miterlimit:10"
     inkscape:connector-curvature="0"
     id="path181"
     d="m 258.721,29.07 54.131,0 c 2.549,0 4.636,2.104 4.636,4.638 l 0,39.415 c 0,2.536 -2.1,4.635 -4.636,4.635 l -54.131,0 c -2.534,0 -4.639,-2.086 -4.639,-4.635 l 0,-39.415 c 0,-2.548 2.085,-4.638 4.639,-4.638 z"
     stroke-miterlimit="10" /><path
     style="clip-rule:evenodd;fill:#303e45;fill-rule:evenodd"
     inkscape:connector-curvature="0"
     id="path183"
     d="m 258.721,29.07 54.131,0 c 2.549,0 4.636,2.111 4.636,4.638 l 0,15.119 c 0,2.529 -2.11,4.642 -4.636,4.642 l -54.131,0 c -2.526,0 -4.639,-2.093 -4.639,-4.642 l 0,-15.119 c 0,-2.548 2.085,-4.638 4.639,-4.638 z" /><path
     d="m 265.014,50.349 5.865,0 c 1.036,0 1.88,0.844 1.88,1.881 l 0,3.261 0,3.27 c 0,1.027 -0.85,1.879 -1.88,1.879 l -5.865,0 c -1.031,0 -1.876,-0.846 -1.876,-1.879 l 0,-6.53 c 0,-1.039 0.84,-1.882 1.876,-1.882 z"
     id="path187"
     inkscape:connector-curvature="0"
     style="clip-rule:evenodd;fill:#661617;fill-rule:evenodd" /><path
     d="m 300.689,50.349 5.867,0 c 1.033,0 1.873,0.844 1.873,1.881 l 0,3.261 0,3.27 c 0,1.027 -0.84,1.879 -1.873,1.879 l -5.867,0 c -1.029,0 -1.879,-0.846 -1.879,-1.879 l 0,-6.53 c 10e-4,-1.039 0.85,-1.882 1.879,-1.882 z"
     id="path191"
     inkscape:connector-curvature="0"
     style="clip-rule:evenodd;fill:#661617;fill-rule:evenodd" /><path
     style="clip-rule:evenodd;fill:#ffffff;fill-rule:evenodd;stroke:#1d1d1b;stroke-width:2;stroke-miterlimit:10"
     inkscape:connector-curvature="0"
     id="path193"
     d="m 265.014,48.32 5.865,0 c 1.036,0 1.88,0.848 1.88,1.883 l 0,3.266 0,3.269 c 0,1.031 -0.85,1.878 -1.88,1.878 l -5.865,0 c -1.031,0 -1.876,-0.847 -1.876,-1.878 l 0,-6.534 c 0,-1.036 0.84,-1.884 1.876,-1.884 z"
     stroke-miterlimit="10" /><path
     style="clip-rule:evenodd;fill:#ffffff;fill-rule:evenodd;stroke:#1d1d1b;stroke-width:2;stroke-miterlimit:10"
     inkscape:connector-curvature="0"
     id="path195"
     d="m 300.689,48.32 5.867,0 c 1.033,0 1.873,0.848 1.873,1.883 l 0,3.266 0,3.269 c 0,1.031 -0.84,1.878 -1.873,1.878 l -5.867,0 c -1.029,0 -1.879,-0.847 -1.879,-1.878 l 0,-6.534 c 10e-4,-1.036 0.85,-1.884 1.879,-1.884 z"
     stroke-miterlimit="10" /><polyline
     fill="none"
     stroke="#000000"
     stroke-width="2"
     stroke-miterlimit="10"
     stroke-dasharray="6"
     points="192.391,83.064   205.561,46.678 232.658,39.957 248.713,110.784 274.647,140.763 "
     id="polyline197" /><path
     fill="#FFFFFF"
     stroke="#3D3D3D"
     stroke-width="2"
     stroke-miterlimit="10"
     d="M278.636,140.763  c0,2.207-1.781,3.988-3.988,3.988c-2.203,0-3.988-1.781-3.988-3.988c0-2.197,1.785-3.988,3.988-3.988  C276.854,136.774,278.636,138.565,278.636,140.763z"
     id="path199" /><path
     fill="#FFFFFF"
     stroke="#3D3D3D"
     stroke-width="2"
     stroke-miterlimit="10"
     d="M19.658,18.328c0,2.207-1.781,3.988-3.988,3.988  c-2.203,0-3.988-1.781-3.988-3.988c0-2.197,1.785-3.988,3.988-3.988C17.877,14.34,19.658,16.131,19.658,18.328z"
     id="path201" /><path
     fill="#FFFFFF"
     stroke="#3D3D3D"
     stroke-width="2"
     stroke-miterlimit="10"
     d="M39.859,169.225c0,2.207-1.781,3.988-3.988,3.988  c-2.203,0-3.988-1.781-3.988-3.988c0-2.197,1.785-3.988,3.988-3.988C38.078,165.236,39.859,167.027,39.859,169.225z"
     id="path203" /><path
     fill="#FFFFFF"
     stroke="#3D3D3D"
     stroke-width="2"
     stroke-miterlimit="10"
     d="M232.128,179.111  c0,2.207-1.781,3.988-3.988,3.988c-2.203,0-3.988-1.781-3.988-3.988c0-2.197,1.785-3.988,3.988-3.988  C230.347,175.123,232.128,176.914,232.128,179.111z"
     id="path205" /><path
     fill="#FFFFFF"
     stroke="#3D3D3D"
     stroke-width="2"
     stroke-miterlimit="10"
     d="M252.822,110.784  c0,2.207-1.781,3.988-3.988,3.988c-2.203,0-3.988-1.781-3.988-3.988c0-2.197,1.785-3.988,3.988-3.988  C251.041,106.796,252.822,108.587,252.822,110.784z"
     id="path207" /><path
     fill="#FFFFFF"
     stroke="#3D3D3D"
     stroke-width="2"
     stroke-miterlimit="10"
     d="M234.992,39.334c0,2.207-1.781,3.988-3.988,3.988  c-2.203,0-3.988-1.781-3.988-3.988c0-2.197,1.785-3.988,3.988-3.988C233.211,35.346,234.992,37.137,234.992,39.334z"
     id="path209" /><path
     fill="#FFFFFF"
     stroke="#3D3D3D"
     stroke-width="2"
     stroke-miterlimit="10"
     d="M210.103,46.678c0,2.207-1.781,3.988-3.988,3.988  c-2.203,0-3.988-1.781-3.988-3.988c0-2.197,1.785-3.988,3.988-3.988C208.321,42.689,210.103,44.48,210.103,46.678z"
     id="path211" /><path
     fill="none"
     stroke="#000000"
     stroke-width="2"
     stroke-miterlimit="10"
     stroke-dasharray="6"
     d="M93.044,167.466"
     id="path213" /><polyline
     fill="none"
     stroke="#000000"
     stroke-width="2"
     stroke-miterlimit="10"
     stroke-dasharray="6"
     points="127.887,117.605   92.899,101.336 86.621,142.25 "
     id="polyline215" /><path
     fill="#FFFFFF"
     stroke="#3D3D3D"
     stroke-width="2"
     stroke-miterlimit="10"
     d="M96.888,101.418c0,2.207-1.781,3.988-3.988,3.988  c-2.203,0-3.988-1.781-3.988-3.988c0-2.197,1.785-3.988,3.988-3.988C95.106,97.43,96.888,99.221,96.888,101.418z"
     id="path217" /><path
     fill="#FFFFFF"
     stroke="#3D3D3D"
     stroke-width="2"
     stroke-miterlimit="10"
     d="M91.602,143.729c0,2.207-1.781,3.988-3.988,3.988  c-2.203,0-3.988-1.781-3.988-3.988c0-2.197,1.785-3.988,3.988-3.988C89.82,139.74,91.602,141.531,91.602,143.729z"
     id="path219" /><polyline
     fill="none"
     stroke="#000000"
     stroke-width="2"
     stroke-miterlimit="10"
     stroke-dasharray="6"
     points="152.602,155.555   171.481,196.463 154.177,215.934 122.588,201.803 "
     id="polyline221" /><path
     fill="#FFFFFF"
     stroke="#3D3D3D"
     stroke-width="2"
     stroke-miterlimit="10"
     d="M175.47,195.159c0,2.207-1.781,3.988-3.988,3.988  c-2.203,0-3.988-1.781-3.988-3.988c0-2.197,1.785-3.988,3.988-3.988C173.688,191.171,175.47,192.962,175.47,195.159z"
     id="path223" /><path
     fill="#FFFFFF"
     stroke="#3D3D3D"
     stroke-width="2"
     stroke-miterlimit="10"
     d="M128.665,202.313  c0,2.207-1.781,3.988-3.988,3.988c-2.203,0-3.988-1.781-3.988-3.988c0-2.197,1.785-3.988,3.988-3.988  C126.884,198.325,128.665,200.116,128.665,202.313z"
     id="path225" /><path
     fill="#FFFFFF"
     stroke="#3D3D3D"
     stroke-width="2"
     stroke-miterlimit="10"
     d="M158.165,215.934  c0,2.207-1.781,3.988-3.988,3.988c-2.203,0-3.988-1.781-3.988-3.988c0-2.197,1.785-3.988,3.988-3.988  C156.384,211.945,158.165,213.736,158.165,215.934z"
     id="path227" /><path
     fill="#FFFFFF"
     stroke="#3D3D3D"
     stroke-width="2"
     stroke-miterlimit="10"
     d="M185.193,83.067c0,3.976,3.223,7.195,7.195,7.195  c3.977,0,7.199-3.22,7.199-7.195c0-3.975-3.223-7.2-7.199-7.2C188.416,75.867,185.193,79.093,185.193,83.067z"
     id="path229" /><path
     fill="#FFFFFF"
     stroke="#3D3D3D"
     stroke-width="2"
     stroke-miterlimit="10"
     d="M120.688,117.607  c0,3.976,3.224,7.195,7.196,7.195c3.977,0,7.199-3.22,7.199-7.195c0-3.975-3.223-7.2-7.199-7.2  C123.912,110.407,120.688,113.633,120.688,117.607z"
     id="path231" /><path
     fill="#FFFFFF"
     stroke="#3D3D3D"
     stroke-width="2"
     stroke-miterlimit="10"
     d="M145.403,155.557  c0,3.976,3.223,7.195,7.196,7.195c3.976,0,7.199-3.22,7.199-7.195c0-3.975-3.224-7.2-7.199-7.2  C148.626,148.356,145.403,151.582,145.403,155.557z"
     id="path233" /></svg>