<?xml version="1.0" encoding="UTF-8" standalone="no"?>
<!-- Generator: Adobe Illustrator 12.0.0, SVG Export Plug-In . SVG Version: 6.00 Build 51448)  -->

<svg
   xmlns:dc="http://purl.org/dc/elements/1.1/"
   xmlns:cc="http://creativecommons.org/ns#"
   xmlns:rdf="http://www.w3.org/1999/02/22-rdf-syntax-ns#"
   xmlns:svg="http://www.w3.org/2000/svg"
   xmlns="http://www.w3.org/2000/svg"
   xmlns:sodipodi="http://sodipodi.sourceforge.net/DTD/sodipodi-0.dtd"
   xmlns:inkscape="http://www.inkscape.org/namespaces/inkscape"
   id="Layer_1"
   space="preserve"
   sodipodi:docname="form.svg"
   viewBox="0 0 130.91712 111.13433"
   sodipodi:version="0.32"
   version="1.1"
   inkscape:version="0.48.5 r10040"
   width="100%"
   height="100%">
  <defs
     id="defs5185" />
  <sodipodi:namedview
     id="base"
     bordercolor="#666666"
     inkscape:pageshadow="2"
     inkscape:window-width="1187"
     pagecolor="#ffffff"
     inkscape:zoom="2.657611"
     inkscape:window-x="110"
     borderopacity="1.0"
     inkscape:current-layer="g3"
     inkscape:cx="65.544014"
     inkscape:cy="65.427341"
     inkscape:window-y="145"
     inkscape:window-height="808"
     inkscape:pageopacity="0.0"
     showgrid="false"
     fit-margin-top="0"
     fit-margin-left="0"
     fit-margin-right="0"
     fit-margin-bottom="0"
     inkscape:window-maximized="0" />
  <g
     id="g3"
     transform="translate(-2.6129839,-22.023006)">
    <path
       id="path7"
       style="fill:#ffffff"
       d="m 133.45,127.64 c 0,7.514 -14.104,5.172 -18.612,5.172 H 76.2 8.981 c -7.79,0 -6.042,-9.264 -6.042,-14.509 V 80.074 40.006 c 0,-4.675 -2.302,-17.983 5.328,-17.983 h 119.14 c 7.272,0 6.045,7.456 6.045,12.448 v 35.001 c -0.01,19.389 -0.01,38.781 -0.01,58.171"
       inkscape:connector-curvature="0" />
    <path
       id="path9"
       style="fill:#f4f4f4"
       d="m 128.76,122.54 c 0,7.346 -14.699,4.902 -19.032,4.902 H 69.974 29.213 c -4.366,0 -16.545,2.251 -20.157,-1.43 -4.048,-4.127 -1.404,-18.35 -1.404,-23.299 V 59.915 32.561 c 0,-7.321 10.801,-5.316 15.503,-5.316 h 62.559 27.521 c 3.447,0 11.302,-1.413 14.109,1.434 2.942,2.98 1.415,11.4 1.415,15.015 v 31.867 46.982"
       inkscape:connector-curvature="0" />
    <linearGradient
       id="XMLID_7_"
       y2="457.92001"
       gradientUnits="userSpaceOnUse"
       y1="457.92001"
       gradientTransform="matrix(21.212,102.12,102.12,-21.212,-41716,33655)"
       x2="-232.34"
       x1="-234.42999">
      <stop
         id="stop12"
         style="stop-color:#F4F4F4"
         offset="0" />
      <stop
         id="stop14"
         style="stop-color:#000000"
         offset="1" />
    </linearGradient>
    <path
       id="path16"
       style="fill:url(#XMLID_7_)"
       d="M 114.72,42.112 H 77.098 56.524 c -0.459,0 -2.656,-0.328 -3.03,0 -0.366,0.32 -0.366,8.241 0,8.562 1.542,1.355 10.381,0 12.346,0 h 25.276 20.575 c 5.11,-10e-4 3.03,-3.868 3.03,-8.562"
       inkscape:connector-curvature="0" />
    <linearGradient
       id="XMLID_8_"
       y2="457.88"
       gradientUnits="userSpaceOnUse"
       y1="457.88"
       gradientTransform="matrix(21.208,102.1,102.1,-21.208,-41707,33661)"
       x2="-232.2"
       x1="-234.27">
      <stop
         id="stop19"
         style="stop-color:#F4F4F4"
         offset="0" />
      <stop
         id="stop21"
         style="stop-color:#000000"
         offset="1" />
    </linearGradient>
    <path
       id="path23"
       style="fill:url(#XMLID_8_)"
       d="M 114.72,71.433 H 77.098 56.524 c -0.376,0 -2.751,-0.304 -3.03,0 -0.428,0.465 -0.428,8.112 0,8.577 1.153,1.26 10.708,0 12.346,0 h 25.276 20.575 c 5.12,0 3.03,-3.884 3.03,-8.577"
       inkscape:connector-curvature="0" />
    <linearGradient
       id="XMLID_9_"
       y2="457.85001"
       gradientUnits="userSpaceOnUse"
       y1="457.85001"
       gradientTransform="matrix(21.21,102.11,102.11,-21.21,-41712,33679)"
       x2="-232.03999"
       x1="-234.13">
      <stop
         id="stop26"
         style="stop-color:#F4F4F4"
         offset="0" />
      <stop
         id="stop28"
         style="stop-color:#000000"
         offset="1" />
    </linearGradient>
    <path
       id="path30"
       style="fill:url(#XMLID_9_)"
       d="M 114.72,100.75 H 77.098 56.524 c -0.459,0 -2.656,-0.328 -3.03,0 -0.366,0.32 -0.366,8.258 0,8.578 1.546,1.355 10.379,0 12.346,0 h 25.276 20.575 c 5.12,0 3.03,-3.88 3.03,-8.58"
       inkscape:connector-curvature="0" />
    <linearGradient
       id="XMLID_10_"
       y2="452.75"
       gradientUnits="userSpaceOnUse"
       y1="452.75"
       gradientTransform="matrix(12.394,59.669,59.669,-12.394,-24115,19474)"
       x2="-229.95"
       x1="-231.99001">
      <stop
         id="stop33"
         style="stop-color:#F4F4F4"
         offset="0" />
      <stop
         id="stop35"
         style="stop-color:#000000"
         offset="1" />
    </linearGradient>
    <path
       id="path37"
       style="fill:url(#XMLID_10_)"
       d="M 39.553,42.112 H 23.862 c -1.951,0 -2.905,-0.702 -2.905,1.339 0,0.997 -0.7,6.649 0,7.223 2.167,1.766 12.802,0 15.691,0 4.895,-10e-4 2.905,-4.213 2.905,-8.562"
       inkscape:connector-curvature="0" />
    <linearGradient
       id="XMLID_11_"
       y2="452.70999"
       gradientUnits="userSpaceOnUse"
       y1="452.70999"
       gradientTransform="matrix(12.39,59.648,59.648,-12.39,-24107,19482)"
       x2="-229.71001"
       x1="-231.74001">
      <stop
         id="stop40"
         style="stop-color:#F4F4F4"
         offset="0" />
      <stop
         id="stop42"
         style="stop-color:#000000"
         offset="1" />
    </linearGradient>
    <path
       id="path44"
       style="fill:url(#XMLID_11_)"
       d="M 39.553,71.433 H 23.862 c -1.953,0 -2.905,-0.703 -2.905,1.338 0,1.155 -0.771,6.467 0,7.239 1.665,1.671 13.187,0 15.691,0 4.899,0 2.905,-4.226 2.905,-8.577"
       inkscape:connector-curvature="0" />
    <linearGradient
       id="XMLID_12_"
       y2="452.64999"
       gradientUnits="userSpaceOnUse"
       y1="452.64999"
       gradientTransform="matrix(12.39,59.648,59.648,-12.39,-24107,19495)"
       x2="-229.45"
       x1="-231.49001">
      <stop
         id="stop47"
         style="stop-color:#F4F4F4"
         offset="0" />
      <stop
         id="stop49"
         style="stop-color:#000000"
         offset="1" />
    </linearGradient>
    <path
       id="path51"
       style="fill:url(#XMLID_12_)"
       d="M 39.553,100.75 H 23.862 c -1.953,0 -2.905,-0.702 -2.905,1.339 0,1.001 -0.702,6.669 0,7.239 2.169,1.767 12.8,0 15.691,0 4.899,0 2.905,-4.23 2.905,-8.58"
       inkscape:connector-curvature="0" />
  </g>
  <metadata
     id="metadata5183">
    <rdf:RDF>
      <cc:Work>
        <dc:format>image/svg+xml</dc:format>
        <dc:type
           rdf:resource="http://purl.org/dc/dcmitype/StillImage" />
        <cc:license
           rdf:resource="http://creativecommons.org/licenses/publicdomain/" />
        <dc:publisher>
          <cc:Agent
             rdf:about="http://openclipart.org/">
            <dc:title>Openclipart</dc:title>
          </cc:Agent>
        </dc:publisher>
        <dc:title>Architetto -- Formulario</dc:title>
        <dc:date>2009-07-02T16:34:56</dc:date>
        <dc:description>Form icon by Francesco Rollandin. From OCAL 0.18 release.</dc:description>
        <dc:source>https://openclipart.org/detail/26952/architetto----formulario-by-anonymous</dc:source>
        <dc:creator>
          <cc:Agent>
            <dc:title>Anonymous</dc:title>
          </cc:Agent>
        </dc:creator>
        <dc:subject>
          <rdf:Bag>
            <rdf:li>computer</rdf:li>
            <rdf:li>form</rdf:li>
            <rdf:li>icon</rdf:li>
            <rdf:li>paper</rdf:li>
          </rdf:Bag>
        </dc:subject>
      </cc:Work>
      <cc:License
         rdf:about="http://creativecommons.org/licenses/publicdomain/">
        <cc:permits
           rdf:resource="http://creativecommons.org/ns#Reproduction" />
        <cc:permits
           rdf:resource="http://creativecommons.org/ns#Distribution" />
        <cc:permits
           rdf:resource="http://creativecommons.org/ns#DerivativeWorks" />
      </cc:License>
    </rdf:RDF>
  </metadata>
</svg>
