<?xml version="1.0" encoding="UTF-8" standalone="no"?>
<!-- Created with Inkscape (http://www.inkscape.org/) -->

<svg
   xmlns:dc="http://purl.org/dc/elements/1.1/"
   xmlns:cc="http://creativecommons.org/ns#"
   xmlns:rdf="http://www.w3.org/1999/02/22-rdf-syntax-ns#"
   xmlns:svg="http://www.w3.org/2000/svg"
   xmlns="http://www.w3.org/2000/svg"
   xmlns:sodipodi="http://sodipodi.sourceforge.net/DTD/sodipodi-0.dtd"
   xmlns:inkscape="http://www.inkscape.org/namespaces/inkscape"
   width="69.230202mm"
   height="22.636173mm"
   viewBox="0 0 245.30387 80.206917"
   id="svg2"
   version="1.1"
   inkscape:version="0.91 r13725"
   sodipodi:docname="logo-flach.svg">
  <defs
     id="defs4" />
  <sodipodi:namedview
     id="base"
     pagecolor="#ffffff"
     bordercolor="#666666"
     borderopacity="1.0"
     inkscape:pageopacity="0.0"
     inkscape:pageshadow="2"
     inkscape:zoom="3.7992338"
     inkscape:cx="122.65193"
     inkscape:cy="40.103457"
     inkscape:document-units="px"
     inkscape:current-layer="g4781"
     showgrid="false"
     fit-margin-top="2"
     fit-margin-left="2"
     fit-margin-right="2"
     fit-margin-bottom="2"
     inkscape:window-width="2053"
     inkscape:window-height="1126"
     inkscape:window-x="71"
     inkscape:window-y="251"
     inkscape:window-maximized="0" />
  <metadata
     id="metadata7">
    <rdf:RDF>
      <cc:Work
         rdf:about="">
        <dc:format>image/svg+xml</dc:format>
        <dc:type
           rdf:resource="http://purl.org/dc/dcmitype/StillImage" />
        <dc:title />
      </cc:Work>
    </rdf:RDF>
  </metadata>
  <g
     inkscape:label="Ebene 1"
     inkscape:groupmode="layer"
     id="layer1"
     transform="translate(-83.237055,-300.64813)">
    <g
       id="g4781"
       transform="matrix(0.85549715,0,0,0.85549715,13.052027,38.867507)">
      <g
         style="font-style:normal;font-variant:normal;font-weight:normal;font-stretch:normal;font-size:80px;line-height:100%;font-family:'Roboto Slab';-inkscape-font-specification:'Roboto Slab, Normal';text-align:start;letter-spacing:0px;word-spacing:0px;writing-mode:lr-tb;text-anchor:start;fill:#607d8b;fill-opacity:1;stroke:none;stroke-width:1px;stroke-linecap:butt;stroke-linejoin:miter;stroke-opacity:1"
         id="text4136">
        <path
           d="m 121.5346,346.23499 -5.78125,0 -1.25,-5.07813 q -1.40625,-1.32812 -3.55469,-2.10937 -2.10937,-0.82032 -4.80469,-0.82032 -4.10156,0 -6.09375,1.79688 -1.992183,1.79687 -1.992183,4.33594 0,2.5 1.757812,3.94531 1.757811,1.44531 7.148441,2.57812 8.00781,1.71875 11.91406,4.6875 3.90625,2.92969 3.90625,7.89063 0,5.625 -4.57031,9.10156 -4.53125,3.47656 -11.875,3.47656 -4.80469,0 -8.632816,-1.09375 -3.828125,-1.13281 -6.835937,-3.24218 l -0.03906,-9.64844 5.78125,0 1.445313,5.66406 q 1.328125,1.21094 3.593753,1.75781 2.30468,0.54688 4.6875,0.54688 4.10156,0 6.40625,-1.64063 2.34375,-1.67968 2.34375,-4.375 0,-2.53906 -1.95313,-4.17968 -1.91406,-1.64063 -7.30469,-2.85157 -7.695308,-1.67968 -11.601558,-4.57031 -3.90625,-2.89062 -3.90625,-7.8125 0,-5.15625 4.375,-8.78906 4.414062,-3.63281 11.445308,-3.63281 4.80469,0 8.63282,1.25 3.82812,1.25 6.36718,3.47656 l 0.39063,9.33594 z"
           style=""
           id="path91383" />
        <path
           d="m 129.9721,370.29749 6.36719,-1.09375 0,-30.19532 -6.36719,-1.09375 0,-4.96093 14.0625,0 0,36.25 6.36719,1.09375 0,4.92187 -20.42969,0 0,-4.92187 z m 14.0625,-48.16407 -7.69531,0 0,-7.85156 7.69531,0 0,7.85156 z"
           style=""
           id="path91385" />
        <path
           d="m 154.69866,370.29749 6.36719,-1.09375 0,-30.19532 -6.36719,-1.09375 0,-4.96093 13.28125,0 0.50781,5.50781 q 2.03125,-3.00781 5.23438,-4.64844 3.20312,-1.64062 7.42187,-1.64062 4.21875,0 7.22657,1.95312 3.04687,1.95313 4.57031,5.85938 1.99219,-3.59375 5.27344,-5.70313 3.28125,-2.10937 7.65625,-2.10937 6.48437,0 10.23437,4.45312 3.75,4.41406 3.75,13.32031 l 0,19.25782 6.36719,1.09375 0,4.92187 -20.46875,0 0,-4.92187 6.36719,-1.09375 0,-19.33594 q 0,-6.25 -2.14844,-8.82813 -2.14844,-2.61718 -6.36719,-2.61718 -4.02344,0 -6.48437,2.85156 -2.42188,2.8125 -2.8125,7.10937 l 0,20.82032 6.36718,1.09375 0,4.92187 -20.42968,0 0,-4.92187 6.36718,-1.09375 0,-19.33594 q 0,-5.9375 -2.22656,-8.67188 -2.1875,-2.77343 -6.36719,-2.77343 -3.51562,0 -5.78125,1.44531 -2.26562,1.44531 -3.47656,4.0625 l 0,25.27344 6.36719,1.09375 0,4.92187 -20.42969,0 0,-4.92187 z"
           style=""
           id="path91387" />
        <path
           d="m 230.9096,386.50842 6.36719,-1.09375 0,-46.40625 -6.36719,-1.09375 0,-4.96093 12.96875,0 0.70312,5.15625 q 2.10938,-2.89063 5.11719,-4.41407 3.04688,-1.52343 7.03125,-1.52343 7.85156,0 12.1875,6.25 4.375,6.21093 4.375,16.44531 l 0,0.82031 q 0,9.14063 -4.375,14.76563 -4.375,5.58593 -12.07031,5.58593 -3.90625,0 -6.875,-1.28906 -2.92969,-1.32812 -5,-3.90625 l 0,14.57031 6.36719,1.09375 0,4.96094 -20.42969,0 0,-4.96094 z m 34.64844,-31.64062 q 0,-7.22656 -2.8125,-11.83594 -2.8125,-4.60937 -8.35938,-4.60937 -3.28125,0 -5.625,1.48437 -2.34375,1.48438 -3.78906,4.0625 l 0,20.58594 q 1.44531,2.61719 3.75,4.0625 2.34375,1.40625 5.74219,1.40625 5.46875,0 8.28125,-3.98438 2.8125,-3.98437 2.8125,-10.35156 l 0,-0.82031 z"
           style=""
           id="path91389" />
        <path
           d="m 278.91741,319.2428 0,-4.96094 14.0625,0 0,54.92188 6.36719,1.09375 0,4.92187 -20.42969,0 0,-4.92187 6.36719,-1.09375 0,-48.86719 -6.36719,-1.09375 z"
           style=""
           id="path91391" />
      </g>
      <g
         id="g91377"
         transform="translate(215.43228,48.411747)">
        <path
           style="color:#000000;display:inline;overflow:visible;visibility:visible;fill:#ff5252;fill-opacity:1;stroke:#ff5252;stroke-width:2.19070911px;stroke-linecap:butt;stroke-linejoin:miter;stroke-miterlimit:4;stroke-dasharray:none;stroke-dashoffset:0;stroke-opacity:1;marker:none;enable-background:accumulate"
           d="m 143.59675,317.81943 a 7.3023639,7.3023639 0 0 1 -7.30236,7.30236 7.3023639,7.3023639 0 0 1 -7.30237,-7.30236 7.3023639,7.3023639 0 0 1 7.30237,-7.30237 7.3023639,7.3023639 0 0 1 7.30236,7.30237 z"
           id="path4567-7" />
        <path
           style="color:#000000;display:inline;overflow:visible;visibility:visible;fill:#ff5252;fill-opacity:1;stroke:#ff5252;stroke-width:2.19070911px;stroke-linecap:butt;stroke-linejoin:miter;stroke-miterlimit:4;stroke-dasharray:none;stroke-dashoffset:0;stroke-opacity:1;marker:none;enable-background:accumulate"
           d="m 107.55065,317.8158 a 7.3023634,7.3023634 0 0 1 -7.30236,7.30236 7.3023634,7.3023634 0 0 1 -7.302362,-7.30236 7.3023634,7.3023634 0 0 1 7.302362,-7.30237 7.3023634,7.3023634 0 0 1 7.30236,7.30237 z"
           id="path4567-7-3" />
        <path
           style="color:#000000;display:inline;overflow:visible;visibility:visible;fill:#ff5252;fill-opacity:1;stroke:#ff5252;stroke-width:2.19070911px;stroke-linecap:butt;stroke-linejoin:miter;stroke-miterlimit:4;stroke-dasharray:none;stroke-dashoffset:0;stroke-opacity:1;marker:none;enable-background:accumulate"
           d="m 107.92225,283.81467 a 7.3023634,7.3023634 0 0 1 -7.30236,7.30236 7.3023634,7.3023634 0 0 1 -7.302365,-7.30236 7.3023634,7.3023634 0 0 1 7.302365,-7.30237 7.3023634,7.3023634 0 0 1 7.30236,7.30237 z"
           id="path4567-7-7" />
        <path
           style="color:#000000;display:inline;overflow:visible;visibility:visible;fill:#ff5252;fill-opacity:1;stroke:#ff5252;stroke-width:2.19070911px;stroke-linecap:butt;stroke-linejoin:miter;stroke-miterlimit:4;stroke-dasharray:none;stroke-dashoffset:0;stroke-opacity:1;marker:none;enable-background:accumulate"
           d="m 143.96719,284.55786 a 7.3023634,7.3023634 0 0 1 -7.30236,7.30236 7.3023634,7.3023634 0 0 1 -7.30237,-7.30236 7.3023634,7.3023634 0 0 1 7.30237,-7.30236 7.3023634,7.3023634 0 0 1 7.30236,7.30236 z"
           id="path4567-7-9" />
      </g>
    </g>
  </g>
</svg>
