<?xml version="1.0" encoding="UTF-8" standalone="no"?>
<svg
   xmlns:dc="http://purl.org/dc/elements/1.1/"
   xmlns:cc="http://creativecommons.org/ns#"
   xmlns:rdf="http://www.w3.org/1999/02/22-rdf-syntax-ns#"
   xmlns:svg="http://www.w3.org/2000/svg"
   xmlns="http://www.w3.org/2000/svg"
   xmlns:sodipodi="http://sodipodi.sourceforge.net/DTD/sodipodi-0.dtd"
   xmlns:inkscape="http://www.inkscape.org/namespaces/inkscape"
   enable-background="new 0 0 186.3 246.686"
   viewBox="0 0 186.3 246.686"
   xml:space="preserve"
   id="svg2"
   version="1.1"
   inkscape:version="0.91 r13725"
   sodipodi:docname="technic.svg"><metadata
     id="metadata114"><rdf:RDF><cc:Work
         rdf:about=""><dc:format>image/svg+xml</dc:format><dc:type
           rdf:resource="http://purl.org/dc/dcmitype/StillImage" /><dc:title></dc:title></cc:Work></rdf:RDF></metadata><sodipodi:namedview
     pagecolor="#ffffff"
     bordercolor="#666666"
     borderopacity="1"
     objecttolerance="10"
     gridtolerance="10"
     guidetolerance="10"
     inkscape:pageopacity="0"
     inkscape:pageshadow="2"
     inkscape:window-width="2068"
     inkscape:window-height="1671"
     id="namedview112"
     showgrid="false"
     inkscape:zoom="6.1292492"
     inkscape:cx="93.150002"
     inkscape:cy="123.343"
     inkscape:window-x="0"
     inkscape:window-y="0"
     inkscape:window-maximized="0"
     inkscape:current-layer="svg2" /><defs
     id="defs4" /><path
     d="m186.3,71.827c-5.691-1.751-11.506-2.954-17.473-3.231-5.945-.276-12.366.12-18.161-1.327-.856-.214-1.99-2.901-2.451-3.623-1.169-1.833-1.042-2.077-3.114-2.319-2.939-.344-5.757-1.116-8.724-1.29-1.014-.059-2.676.188-3.523.793-1.058.756-2.151,2.618-3.202,1.777-1.292-1.034-2.115-1.775-3.852-1.681-1.396.076-2.47.723-3.199,1.9-.703,1.134-.459,1.405.1,2.6-12.274.341-24.257,3.039-36.5,3.7 .915-2.635 1.935-5.25 2.149-8.05 .204-2.664-.012-5.436-.152-8.1-.168-3.186-.066-6.391-.945-9.464-.855-2.994 2.407-4.455 3.897-6.586 1.719-2.458 1.95-5.073.912-7.833-.806-2.142-4.662-3.761-6.701-4.127-1.527-.274-3.257-.067-4.01-1.489-.646-1.221-1.333-2.421-2.044-3.606-1.3-2.168-2.642-4.234-4.11-6.29-6.109-8.552-20.192-14.806-30.667-13.377-10.744,1.467-22.77,8.426-28.571,17.708-2.917,4.667-4.345,9.009-4.669,14.492-.088,1.479-.007,2.912.075,4.39 .085,1.546-1.152,3.064-1.976,4.3-1.572,2.359-4.078,4.123-6.072,6.116-2.179,2.179-3.317,4.597-3.317,7.661 0,1.162 2.237,1.026 2.986,1.738 1.304,1.239 2.163,2.228 3.096,3.759 1.517,2.492 2.163,5.692 3.08,8.443 .676,2.029 3.173,5.283 5.534,5.421 .707.042 2.766-.22 3.304.195 .655.504.895,2.254 1.301,3 .964,1.769 2.469,3.836 4.086,5.065 3.724,2.831 7.655,5.066 11.865,7.098 2.101,1.014 4.19,2.046 6.216,3.205 1.53.874 1.758.65 1.04,2.266-.48,1.08-1.093,2.048-1.82,2.974-2.725,3.47-6.508,5.686-8.887,9.493-6.111-6.723-12.165-13.35-17.286-20.885-1.401-2.062-2.002-3.453-4.714-3.615-2.303-.138-4.697.754-6.219,2.492-1.18,1.348-.964,4.375-.713,6.004 .324,2.106 1.35,3.694 3.231,4.703-2.611,1.628-3.385,4.273-3.4,7.2-.005,1.06-.192,1.945.622,2.652l3.8,3.3 9.508,8.257c1.305,1.134 2.309,2.521 3.626,3.619 2.301,1.918 4.134,3.694 3.385,6.874-.627,2.659-2.835,4.789-4.041,7.197-.401.801-1.667,3.266-.556,3.53 1.413.336 2.823.686 4.212,1.108 2.864.874 5.752,1.65 8.616,2.523 2.74.836 5.737,1.09 8.58.945 1.78-.091 2.629,6.444 2.778,7.63 .322,2.578.878,5.233.705,7.834-.079,1.185-.2,2.497-.708,3.585-.619,1.324-2.101,2.589-.728,3.744 2.207,1.858 5.524-1.111 8.042-.104 2.502,1.002-.957,5.416-1.968,6.819-3.491,4.847-7.168,9.171-9.139,14.884-.811,2.352-.095,4.856.065,7 .142,1.893.181,3.885.506,5.834 .905,5.431 2.494,10.943 2.494,16.478 0,3.43.354,6.045-2.543,8.364-1.892,1.515-5.293,1.251-7.557,1.824-5.337,1.352-10.835,1.374-15.741,4.259-4.701,2.766-9.208,7.073-10.16,12.741-.109.648-.544,2.083.306,2.115l6.134.23c3.035.114 6.085-.503 9.094-.865 4.78-.576 9.763-1.71 13.689-4.604 2.147-1.581 4.193-3.983 6.776-4.877 1.141-.395 2.739-.417 3.777.237 1.765,1.114 2.346.798 4.42.383 2.757-.551 3.903-4.341 3.903-6.704 0-2.855-.654-5.602-1.5-8.316-1.736-5.569-2.884-11.107-3.737-16.877-.417-2.813-.652-5.667-.854-8.503-.221-3.082.294-5.223 2.042-7.846 3.233-4.852 8.408-8.186 12.955-11.701 1.909-1.477 3.806-4.42 6.395-4.573 .99-.059 2.144.33 3,.801 1.295.711 1.975,1.087 1.63,2.542-1.424,6.007-2.988,11.94-4.704,17.869-1.616,5.585-3.745,11.33-6.403,16.501-1.203,2.34-3.053,4.266-4.034,6.716-.564,1.41-.889,2.574-.889,4.096 0,1.537.916,2.604 1.4,3.976 .525,1.489.685,3.16 1.629,4.482 1.221,1.706 2.613,1.64 4.571,1.918 2.902.413 7.63.561 8.2-3.199 7.33,3.422 15.014,7.051 23.099,8.199 4.121.586 8.063.362 12.02-.764 3.675-1.045 8.114-1.475 10.682-4.637-4.826-3.212-9.73-5.795-15.061-8.04-5.814-2.45-11.316-2.829-17.537-2.662-5.664.152-12.924.372-14.653-6.347-.752-2.923 1.132-5.763 2.253-8.504s2.273-5.457 3.393-8.193c3.547-8.672 7.662-17.125 12.162-25.339 .31-.564 1.036-2.659 1.669-2.853 1.303-.396 2.438-.795 3.653-1.403 1.775-.888 3.405-2.379 4.928-3.648 3.704-3.089 6.789-4.81 11.692-4.81-.56-2.791-2.036-4.489-3.483-6.836-.704-1.143-1.422-2.237-1.938-3.477-.219-.524-.403-1.239-.363-1.807 .093-1.305.061-1.177 1.316-1.463 5.801-1.324 11.473-3.14 17.266-4.5 2.989-.702 5.964-1.271 9.004-1.705 2.933-.419 5.965-.272 8.849-.913 6.711-1.489 7.753-8.158 9.13-13.904 .442-1.842 1.264-3.838 1.494-5.688 .246-1.981.627-4.35 1.625-6.107-24.306-7.225-48.611-14.45-72.917-21.675-.17-.051-.65,1.027-.782,1.225-.65.975-.526,1.62-1.828,1.028-2.59-1.178-5.525-1.33-8.101-2.5-1.416-.644-2.962-1.086-1.571-2.778 1.169-1.421 2.774-.931 4.297-.463 1.284.395 3.131,1.324 4.506.9 .96-.296 1.461-.618 2.261-1.234 .478-.367 1.738-.104 2.336-.104-.38,1.326-.52,2.672-1.201,3.9 24.306,7.225 48.611,14.45 72.917,21.675-.29-.086 5.885-8.577 6.551-9.259 3.481-3.573 7.209-6.795 10.996-10.041 3.091-2.65 6.451-5.7 8.753-9.07 2.74-4.005 4.089-7.657 4.585-12.501"
     fill-rule="evenodd"
     id="path6" /><path
     d="m73.7,17.527 2.5,5.3c-5.25-.837-10.455-1.648-15.789-1.569-5.897.087-11.533.811-17.329,1.88-10.556,1.948-20.386,7.301-28.981,13.489 .16-5.926.877-11.686 4.161-16.796 1.749-2.721 3.6-4.991 5.978-7.186 1.79-1.652 4.573-4.022 6.954-4.648 5.728-1.507 10.37-4.982 16.538-4.422 1.261.114 2.343.752 3.624.752 1.515,0 3.05.017 4.546.3 2.669.505 5.5,1.525 7.803,2.965 4.201,2.626 7.328,5.766 9.995,9.935"
     fill="#ff7f00"
     id="path8"
     style="fill:#607d8b;fill-opacity:1" /><path
     d="m37.801,6.727c-.013.914-1.044,1.5-1.9,1.4l1.4-1.9c.232.156.505.514.5.5"
     fill="#5c1f00"
     id="path10"
     style="fill:#455a64;fill-opacity:1" /><path
     d="m61.5,13.327-4.3-4.3c1.848.559 3.818,3.003 4.3,4.3"
     fill="#5c1f00"
     id="path12"
     style="fill:#455a64;fill-opacity:1" /><path
     d="m54.4,19.427-4.7-9.3c1.834,2.886 4.7,5.821 4.7,9.3"
     fill="#5c1f00"
     id="path14"
     style="fill:#455a64;fill-opacity:1" /><path
     d="m40.601,12.827c1.115-.213.6,1.999.6,2.752 0,.457.349,3.591 0,3.848-.947.695-.6-2.44-.6-2.752v-3.848"
     fill="#5c1f00"
     id="path16"
     style="fill:#455a64;fill-opacity:1" /><path
     d="m31.2,14.227-2.676,5.749 2.676-5.749"
     fill="#5c1f00"
     id="path18" /><path
     d="m27.9,22.727c.874-.022 1.047,2.916.6,3.4-.729.788-.6-2.996-.6-3.4"
     fill="#5c1f00"
     id="path20"
     style="fill:#455a64;fill-opacity:1" /><path
     d="m70.4,26.626c4.999,4.667 8.842,9.885 11.9,16-5.795-.551-11.571-1.329-17.344-.229-1.31.25-2.623.998-3.816,1.563-.867.411-2.671-.127-3.694-.165l-8.596-.318c-2.767-.103-5.534-.104-8.3-.2-2.833-.098-6.233-.608-8.783.667-5.03,2.516-11.141,1.726-16.567,2.583 2.405-4.294 4.791-7.705 8.655-10.815 3.354-2.701 7.62-4.848 11.803-5.953 4.915-1.298 9.752-2.355 14.795-3.009 2.069-.269 4.145-.522 6.22-.73l4.337-.434c1.04-.104 1.057-1.342 1.39-2.259 1.809,3.268 5.192,1.938 8,3.299"
     fill="#ffcce6"
     id="path22"
     style="fill:#ff5252;fill-opacity:1" /><path
     d="m89.4,32.727c.173,1.855-1.092,3.791-2.345,5.044-1.811,1.812-2.975,1.669-4.426-.363-1.136-1.591-1.879-3.215-3.161-4.718l-5.168-6.063c2.883,1.346 5.489,1.257 8.577,1.621 2.614.307 6.185,1.58 6.523,4.479"
     fill="#ff7f00"
     id="path24"
     style="fill:#607d8b;fill-opacity:1" /><path
     d="m19.9,27.427c1.268-.339 1.259,2.998.8,3.4-1.146,1.004-.8-2.972-.8-3.4"
     fill="#5c1f00"
     id="path26"
     style="fill:#455a64;fill-opacity:1" /><path
     d="m49.101,31.327c-.068,2.494-2.602,3.236-4.686,3.426-1.616.147-5.345,1.589-5.015-1.326 .269-2.377 3.064-1.799 4.608-2.378 1.769-.663 4.115-1.954 5.093.278"
     id="path28" /><path
     d="m72.9,32.727c-.527.229-.6.643-.6,1.2 0,1.028-.787,1.286-1.908,1.426-1.343.168-2.599.284-3.9-.204-.681-.255-1.294-.623-1.958-.918-.509-.227-.233-1.577-.233-2.104 1.404.327 2.456-.823 2-2.2 2.393.904 4.35,1.47 6.599,2.8"
     id="path30" /><path
     d="m11.9,46.527-4.4,1.4c1.322,1.149-.677,1.013-.8,1.9-.035.253.637.6.601.8-.104.573.562.393-.319.896-.604.345-.782.801-.782,1.454 0,4.532-4.763,1.014-2.95-.8 2.321-2.323 3.33-6.453 6.8-7.4 .795-.217 1.619.081 2.213-.513 .463-.464 1.084-1.529 1.537-.537 .459,1.003-1.207,2.333-1.9,2.8"
     fill="#ff7f00"
     id="path32"
     style="fill:#607d8b;fill-opacity:1" /><path
     d="m83.601,49.827c0,1.838-.084,3.86-1.331,5.355-1.416,1.7-3.44,1.152-5.307.685-4.046-1.011-8.66-2.179-11.909-4.965-1.38-1.184-1.244-1.099-.513-2.742 .455-1.023 1.855-1.551 2.792-1.961 1.886-.826 4.376-.506 6.367-.373 2.186.147 4.405.566 6.601.4 1.006-.076 1.838-.748 2.218.31 .347.964 1.077,2.47 1.082,3.291"
     fill="#666"
     id="path34" /><path
     d="m53,48.727c1.343,2.045.624,3.898-.47,5.867-1.186,2.134-1.819,3.452-4.457,3.804-3.115.416-10.511-.05-11.873-3.37-.694-1.694-.531-3.913-.148-5.634 .604-2.715 2.948-2.875 5.349-2.466 1.042.178 2.058.395 3.108.526 .311.039 1.199-.203 1.392-.126 .449.179.644.982 1.2,1.2 1.927.754 4.213-1.854 5.899.199"
     fill="#666"
     id="path36" /><path
     d="m82.4,66.327c2.746-1.528-3.198-5.794-4.299-6.6 2.521.792 5.591-.192 7.5-1.9 .534,2.526-.207,5.054-1.18,7.388-.882,2.117-1.172,5.349-3.821,5.813-1.599.28-2.942-.672-4.601-.3-3.012.675-4.864,3.339-5.6,6.2-.734,2.854-.443,5.886-1.4,8.7-1.1,3.233-3.954,3.422-6.988,3.856-6.038.862-11.938,1.22-17.961.044-6.458-1.26-11.491-3.986-16.413-8.292-4.645-4.064-7.35-8.593-10.237-14.008-.705,1.963-.803,5.005-3.445,3.306-2.097-1.347-2.99-3.192-3.376-5.646-.346-2.193-.676-4.45-1.378-6.56-.225-.675-1.372-2.198-.993-2.645l2.593-3.056c1.221,2.055 2.598,3.995 3.899,6 1.594-1.521-.247-3.071-.6-4.7 .724-.039 1.58-.171 1.899.6 4.115-4.458 10.174-3.728 15.2-6.6 .296,5.006 2.84,12.694 8.601,14 2.509.569 6.279.118 8.8-.3 2.672-.443 5.892-1.712 7.2-4.3 1.259-2.492.202-5.583 1.871-7.918 1.684-2.359 4.821,2.352 6.157,3.369 4.763,3.627 10.336,6.138 14.967,9.927 .908.744 3.481,2.749 1.205,3.523-1.059.36-3.836-.743-4.989-1.133l-12.645-4.285-4.487-1.521c-.752-.255-2.776,1.434-3.479,1.839 4.645,4.289 10.917,5.16 16.6,7.5-4.979,3.321-10.541,3.753-16.222,1.859-2.824-.941-5.439-2.07-8.137-3.307-2.154-.987-4.094-.777-5.441,1.448 7.936,2.442 16.13,8.219 24.751,6.208 2.515-.586 3.371-1.989 5.242-3.626 1.908-1.669 3.268-2.144 5.808-1.932 2.368.196 4.268-.729 5.399-2.951"
     fill="#ffcce6"
     id="path38"
     style="fill:#ff5252;fill-opacity:1" /><path
     d="m76.2,50.626c-.096,1.327-2.052,2.409-3.3,2-.824-.27-.522-.985-1.4-1.4 1.793.461 3.016-1.2 4.7-.6"
     fill="#5c1f00"
     id="path40"
     style="fill:#455a64;fill-opacity:1" /><path
     d="m48.301,53.927c-1.433.23-3.034.082-3.801-1.3l3.801-1.4v2.7"
     fill="#5c1f00"
     id="path42"
     style="fill:#455a64;fill-opacity:1" /><path
     d="m13.2,63.827 .101,2c-1.078-.296-3.173-3.092-1.4-3.9 1.259-.574 1.825,1.447 1.299,1.9"
     fill="#5c1f00"
     id="path44" /><path
     d="m141,63.027c1.4.242 3.656-.912 4.801-.05 1.242.935 1.023,3.52 1.354,4.947 .61,2.639 1.133,9.465-3.354,9.203 .524-2.17 3.415-4.39 1.4-6.6-.631,1.794-1.609,4.191-3.082,5.456-.97.832-1.614.969-2.784.448-.582-.258-2.191,2.18-2.634,2.696l-.9-2.8-1.9,2.2c1.051-2.578 3.014-6.699 1.4-9.4-2.441,1.893-1.691,6.027-4.699,7.2 0-5.096 1.928-9.77 3.898-14.4 1.441,3.319 6.189-1.955 6.5,1.1"
     fill="#ffcce6"
     id="path46"
     style="fill:#ff5252;fill-opacity:1" /><path
     d="m128.601,65.227 .1.6c-1.2,0-2.205-.144-3.318-.623-.715-.307-2.046-2.016-.883-2.677 1.296-.737 4.298,1.804 4.101,2.7"
     fill="#ffcce6"
     id="path48" /><path
     d="m144.3,69.126-.5-2.7c.768.635.768,1.974.5,2.7"
     fill="#5c1f00"
     id="path50" /><path
     d="m129.201,69.126c.431,1.52.162,3.163-.378,4.608-.265.707-.701,1.463-1.122,2.092-.848,1.265-.963.83-.201,2 1.593,2.448 6.481,3.376 9.145,3.021 3.662-.489 8.051-.173 11.05-2.743 2.259-1.937 3.552-5.372 3.306-8.378 5.767.795 11.488.707 17.285,1.021 3.198.173 6.392.333 9.582.614 1.313.116 2.641.31 3.934.565 1.462.288 2.801.104 2.801,1.55 0,5.317-4.313,10.931-7.801,14.55-4.07,4.224-8.884,7.646-13.304,11.477-2.353,2.039-4.59,4.131-6.753,6.37-1.639,1.696-2.671,5.246-3.378,7.46-.929,2.905-1.571,5.819-2.169,8.808-.265,1.321-.462,2.651-.675,3.981-.206,1.281-.11,3.446-.622,4.604-2.426,5.483-9.892,6.022-14.907,6.548-2.662.279-5.36,1.68-7.949,2.438-3.22.943-6.418,1.724-9.693,2.459-13.927,3.124-27.697,5.422-41.15,10.356 .624-2.795-.635-6.169-1.899-8.602-.374.872-.771,2.352-1.7,2.801-1.839.89-2.406-1.611-3-2.801 .722.171.962-.385 1.6-.5 1.226-.222 1.567.367 2.5,1.301-1.561-3.693 2.213-7.426 5.8-7.4-.462-3.481 2.06-5.771 3.701-8.6 .527-.91 1.911-3.437.374-4.159-1.577-.741-2.828-.866-4.575-1.041 .416-1.531-1.583-3.134-2.8-3.4-2.091-.458-4.839.448-6.6,1.5 .652-4.47 1.729-8.023 4.077-11.907 2.14-3.54 4.872-6.667 7.063-10.155 2.407-3.834 4.405-7.309 5.264-11.786 .844-4.406-.697-8.037-2.303-12.051-.866,1.326-.76,3.435-2.282,4.304-.999.571-4.411.212-3.369,2.296 .394.788 1.35,1.323 1.35,2.3 0,.562-.794,1.769-1.45,1.55-1.398-.467-2.915-.586-4.106-1.58-6.39-5.329 4.643-15.008 8.456-8.271 1.293-.947.064-2.551-.8-3.3 15.845-2.756 31.665-3.231 47.698-3.9"
     fill="#f0e8c4"
     id="path52"
     style="fill:#cfd8dc;fill-opacity:1" /><path
     d="m139.101,72.427c.102,1.161-1.305,1.95-1.9,2.8 .157-1.248 1.188-1.902 1.9-2.8"
     fill="#5c1f00"
     id="path54" /><path
     d="m142.4,72.427-1.299,3.3c.387-.913 1.346-2.523 1.299-3.3"
     fill="#5c1f00"
     id="path56" /><path
     d="m124.5,77.626c-4.858,2.619-9.932,5.054-15.199,6.7 2.656-.708 4.979-2.157 7.301-3.6 1.299-.807 2.604-1.551 4.036-2.088 1.211-.454 2.838-.556 3.862-1.012"
     fill="#5c1f00"
     id="path58"
     style="fill:#455a64;fill-opacity:1" /><path
     d="m124.5,82.927-.5-.5 2.701-2c.947,1.459-1.419,1.883-2.201,2.5"
     fill="#5c1f00"
     id="path60"
     style="fill:#455a64;fill-opacity:1" /><path
     d="m84.201,82.327c0,1.461.26,1.572-.7,2.05-.516.256-.937.125-1.2.75l-1.4-3.3c1.105-.014 2.742-.363 3.3.5"
     fill="#f0e8c4"
     id="path62"
     style="fill:#cfd8dc;fill-opacity:1" /><path
     d="m163.701,87.027v1.4c-2.449-.941-4.842-2.107-7.15-3.35-1.729-.931-6.05-1.355-6.65-3.25 2.305.886 4.581,1.89 6.847,2.862 1.935.831 4.988,2.557 6.953,2.338"
     fill="#5c1f00"
     id="path64"
     style="fill:#455a64;fill-opacity:0.94117647" /><path
     d="m18.5,97.527c2.923,4.514 6.901,8.083 9.99,12.459 .7.992 1.242,2.095 1.761,3.191 .662,1.397-.502,1.68-1.306,2.883-1.561,2.338-2.174,5.112-3.745,7.466-4.9-7.003-11.191-12.494-17.2-18.5-.558,1.559-1.947.624-2.899.1-1.918-1.057-1.706-1.92-1.101-3.9 .581-1.898 1.357-3.187 3.093-4.271 .764-.477 1.79-.629 2.673-.629 1.082,0 1.882.87 2.934.7-.584-2.709-5.063-3.166-7.244-4.038-1.497-.598-2.147-2.271-1.756-3.761 .52-1.98 1.783-2.601 3.393-3.631 6.118-3.915 7.744,10.359 11.407,11.931"
     fill="#f0e8c4"
     id="path66"
     style="fill:#cfd8dc;fill-opacity:1" /><path
     d="m67.601,98.927c-.167,2.033-.333,4.067-.5,6.1-2.129-3.65-3.33-7.446-3.969-11.597-.168-1.091-.36-2.01 1.076-1.651 .928.232 1.459.749 1.922,1.582 .839,1.51 1.5,4.014 1.471,5.566"
     fill="#dfbfbf"
     id="path68"
     style="fill:#455a64;fill-opacity:1" /><path
     d="m57.7,96.126c-1.981.215-3.288-2.205-4.7-3.2 1.419.071 2.912-.918 4.25-.65 1.783.358.708,2.994.45,3.85"
     fill="#dfbfbf"
     id="path70"
     style="fill:#455a64;fill-opacity:1" /><path
     d="m49.7,104.126c1.954,1.951 4.94,5.044 2,7.5-1.107-1.917-3.428-2.756-5.3-1.4 .184-1.292.448-4.146-1.341-2.548-1.508,1.347-1.746,2.091-3.525.904-1.095-.73-1.861-2.125-2.233-3.356-.868-2.867.527-4.121 2.324-6.141 1.7-1.91 3.335-4.059 5.575-5.359 .793,3.329 1.459,7.513 2.5,10.4"
     fill="#9f4040"
     id="path72"
     style="fill:#607d8b;fill-opacity:1" /><path
     d="m51.101,98.927c-2.163-.702-1.088-3.064-1.4-4.7 .466,1.566.933,3.133 1.4,4.7"
     fill="#9f4040"
     id="path74"
     style="fill:#455a64;fill-opacity:1" /><path
     d="m60.4,105.527-4.6-7.9c1.016,1.695 3.127.016 3.3-1.4 1.136,1.898 3.421,7.695 1.3,9.3"
     fill="#dfbfbf"
     id="path76"
     style="fill:#455a64;fill-opacity:1" /><path
     d="m159.8,98.327c-2.929,6.218-8.384,10.854-12.1,16.6 1.202-3.208 3.091-6.001 5.263-8.641 2.15-2.612 5.095-5.119 6.837-7.959"
     fill="#5c1f00"
     id="path78"
     style="fill:#455a64;fill-opacity:1" /><path
     d="m27.301,113.527-4.601,1.4c1.354-.551 2.165-1.833 3.3-2.7l-8-9.4c3.991,2.112 6.501,7.904 9.301,10.7"
     fill="#5c1f00"
     id="path80"
     style="fill:#455a64;fill-opacity:1" /><path
     d="m38.4,109.427-1.1-3.3c1.026,1.305 1.1,1.648 1.1,3.3"
     fill="#9f4040"
     id="path82"
     style="fill:#455a64;fill-opacity:1" /><path
     d="m52.4,128.727c-1.607.877-3.582,3.855-5.608,3.349-1.811-.453-3.769-3.372-5.092-4.648-1.171.994 1.263,3.014 1.997,3.804 1.267,1.365 2.583,2.675 3.9,3.992 2.451,2.453 4.951,4.853 7.403,7.305-2.372,1.573-5.293,3.02-5.8,6.1-1.118-.279-1.815-.263-2.495-1.137l-3.235-4.159-8.45-10.865-1.809-2.325c-.399-.514 1.331-3.117 1.689-3.564 1.063-1.327 1.629-2.056 3.1-.85 .942.772 1.847,2.424 3.2,1.1-1.761-1.243-3.3-3.03-3.3-5.292 0-2.999 2.37-2.876 4.4-1.707 1.951,1.124 3.588,2.762 5.1,4.399 1.493,1.615 3.743,3.155 5,4.498"
     fill="#f0e8c4"
     id="path84"
     style="fill:#cfd8dc;fill-opacity:1" /><path
     d="m76.2,123.526c-3.626,1.946-7.728,2.486-10.5,5.8 5.146-.732 10.181-1.962 15.2-3.299-.977,3.697-5.482,3.392-8,5.5 2.012,1.624 4.042-.587 6.1-.801l-4.199,3.301c.556.638 1.362.911 2.199.799l-3.3,1.9c0-1.298.261-2.249-1.25-2.55-1.081-.216-2.102.402-2.85,1.15-1.607,1.606.07,2.464.8,3.899-1.245.422-2.664,1.5-4,1.5-1.567,0-1.97-.651-3.1-1.6-.551-.463-2.2-1.789-2.2-.101 0,1.315 1.041,2.14 1.899,3.001-.691.324-1.411-.19-2.15-.4-.814-.231-2.929.02-3.4-.451-1.521-1.521 1.271-4.021-1.149-5.25l-1.301,4.201c-.367-.367-1.975-1.526-2-2-.021-.388 1.063-1.156 1.301-1.4 1.126-1.154 1.255-1.9 2.899-1.9-.328.107-.587.446-.899.6l1.399,1.301c.318-2.188 1.673.078 2.8,0-.509-1.784.138-3.773-.199-5.6-.056-.304-.618-.973-.526-1.118 .303-.485.573-1.032.926-1.481 .734-.935 1.769-1.676 2.688-2.411 3.387-2.708 8.724-2.816 12.812-2.59"
     fill="#ffcce6"
     id="path86" /><path
     d="m53.801,132.627c-.963.947-2.042,2.237-3.301,2.799l2-3.898c.384.301 1.192.959 1.301,1.099"
     fill="#f0e8c4"
     id="path88"
     style="fill:#cfd8dc;fill-opacity:1" /><path
     d="m70.9,149.926c.712-.53 1.268-1.18 2.2-1.299 1.553-.198 1.414,1.052 1.1,2.4-.753,3.23-4.019,3.614-6.792,2.577-2.884-1.077-3.396-4.27-1.507-6.628 3.995-4.99 2.815,3.47 4.999,2.95"
     fill="#f0e8c4"
     id="path90"
     style="fill:#cfd8dc;fill-opacity:1" /><path
     d="m54.4,148.027-3.3,3.398c.847.901 2.19.5 3.3.5-1.144.364-2.604.335-3.4-.699-1.14-1.48.723-3.217 1.5-4.5 0,1.475.421,1.846 1.9,1.301"
     fill="#f0e8c4"
     id="path92"
     style="fill:#cfd8dc;fill-opacity:1" /><path
     d="m50.5,154.627c-1.96,0-3.715.11-4.1,2.4-.348,2.071.8,4.397.8,6.499 0,1.188-1.04,1.795-1.522.508-.293-.785-.478-1.642-.478-2.475 0-1.845.084-3.909-.2-5.733 1.855,0 1.656-.719 1.301-2.4-.299-1.414-.826-2.836-1.301-4.199 1.607,1.607 3.744,4.488 5.5,5.4"
     fill="#9f4040"
     id="path94"
     style="fill:#607d8b;fill-opacity:0" /><path
     d="m90.8,153.826 6.1,4.201c-1.936-1.3-4.55-2.548-6.1-4.201"
     fill="#9f4040"
     id="path96"
     style="fill:#455a64;fill-opacity:1" /><path
     d="m70.9,160.426c-.535-.782-1.582-2.927-2.5-1.1-.558,1.109.67,1.957.9,2.9 .388,1.591-.419.842-1.4,1.801-.732.716-.771,1.627-.2,2.5l-1.399-1.301c.238,3.162-3.302,1.497-4.867.978-1.502-.498-2.022-.562-3.133.323l4.1,2.5c-1.124-.114-1.917.722-2.7,1.398l1.9,1.4c-3.061,2.386-7.398,3.021-9.9,6.1 1.394.871 3.045.5 4.601.5-1.946,2.726-4.281,4.223-7.197,5.791-1.362.732-2.592,1.698-3.681,2.787-.425.424-1.059,1.771-1.522,1.922-.48.156-1.689-.384-2.2-.5 2.06-3.775 4.09-7.635 6.478-11.215 1.298-1.946 2.493-3.959 3.822-5.885 .585-.848 1.198-1.678 1.797-2.516 1.164-1.629 1.337-1.513.103-3.084 5.714-1.786 11.005-4.665 15.1-9.1 .743.971 3.106,2.57 1.898,3.801"
     fill="#9f4040"
     id="path98"
     style="fill:#607d8b;fill-opacity:1" /><path
     d="m101.3,160.426c.32.535-.279,2.826-1.1,2.801-1.74-.054.452-2.643 1.1-2.801"
     fill="#9f4040"
     id="path100"
     style="fill:#607d8b;fill-opacity:1" /><path
     d="m78.9,192.227c-.836.875-1.163,2.001-1.578,3.107-.178.473-.397,1.483-.823,1.793-.396.289-1.951.351-2.199-.201-.696-1.548 1.723-1.185 2.3-1.398 1.571-.582.74-1.715.399-3.301h1.901"
     fill="#9f4040"
     id="path102"
     style="fill:#607d8b;fill-opacity:1" /><path
     d="m70.4,214.826c-1.146-.507-6.341-2.135-5.877-3.219 .89-2.08 2.989-2.127 2.578-4.781 .534.071.954.379 1.1.9-.581-2.018.67-2.883 2.267-3.771 1.789-.994 2.3-1.342.533-2.929 1.752.192 1.173-2.283 1.4-3.301 2.288,2.914 1.691,4.991.418,8.268-1.168,3.005-2.419,5.549-2.419,8.833"
     fill="#9f4040"
     id="path104"
     style="fill:#607d8b;fill-opacity:1" /><path
     d="m82.201,223.426 18.154.761c1.898.08 3.546,1.574 5.147,2.52l7.997,4.72c-5.68,2.454-11.499,3.624-17.674,2.081-5.893-1.473-11.567-3.516-17.351-5.356-2.899-.923-5.793-1.435-8.788-1.91-.207-.033-.506,1.664-.568,1.911-.19.761-.576.323-1.252.249-1.327-.147-2.646-.266-3.885-.796-2.17-.927-1.847-4.884-1.433-6.744 .275-1.24.937-2.35 1.448-3.5 .792-1.781.977-2.192 3.104-1.733 2.835.611 5.057,2.644 7.25,4.399 2.603,2.082 4.902,3.013 7.851,3.398"
     fill="#a84a0a"
     id="path106"
     style="fill:#607d8b;fill-opacity:1" /><path
     d="m47.7,218.727 .101,1.4h-2.681c.058,0-.352-1.061-.52-1.301-.299-.429-1.206.759-.7-1.199 1.371.406 2.536,1.543 3.8,1.1"
     fill="#9f4040"
     id="path108"
     style="fill:#607d8b;fill-opacity:1" /><path
     d="m51.601,226.727c0,1.775.44,4.242-.3,5.898-.388.868-1.109,1.602-2.093,1.602-1.918,0-1.407-.508-1.407-2.363 0-1.771-4.862.567-5.607,1.046-2.111,1.357-3.803,3.411-5.837,4.902-3.38,2.478-8.498,3.391-12.489,4.554-4.86,1.416-9.403,2.167-14.467,1.76 1.952-9.767 12.54-12.337 20.963-13.535 4.748-.676 8.858-1.951 12.451-5.187 .633-.57 1.083-2.417 1.945-2.503 1.154-.115 2.373-.179 3.507.075 1.644.367 3.807,1.887 3.334,3.751"
     fill="#a84a0a"
     id="path110"
     style="fill:#607d8b;fill-opacity:1" /></svg>