<?xml version="1.0" encoding="UTF-8" standalone="no"?>
<!-- Generator: Adobe Illustrator 16.0.0, SVG Export Plug-In . SVG Version: 6.00 Build 0)  -->

<svg
   xmlns:dc="http://purl.org/dc/elements/1.1/"
   xmlns:cc="http://creativecommons.org/ns#"
   xmlns:rdf="http://www.w3.org/1999/02/22-rdf-syntax-ns#"
   xmlns:svg="http://www.w3.org/2000/svg"
   xmlns="http://www.w3.org/2000/svg"
   xmlns:sodipodi="http://sodipodi.sourceforge.net/DTD/sodipodi-0.dtd"
   xmlns:inkscape="http://www.inkscape.org/namespaces/inkscape"
   version="1.1"
   id="Layer_1"
   x="0px"
   y="0px"
   width="335.986px"
   height="235.19px"
   viewBox="0 0 335.986 235.19"
   enable-background="new 0 0 335.986 235.19"
   xml:space="preserve"
   inkscape:version="0.91 r13725"
   sodipodi:docname="wawi.svg"><metadata
     id="metadata258"><rdf:RDF><cc:Work
         rdf:about=""><dc:format>image/svg+xml</dc:format><dc:type
           rdf:resource="http://purl.org/dc/dcmitype/StillImage" /><dc:title></dc:title></cc:Work></rdf:RDF></metadata><defs
     id="defs256" /><sodipodi:namedview
     pagecolor="#ffffff"
     bordercolor="#666666"
     borderopacity="1"
     objecttolerance="10"
     gridtolerance="10"
     guidetolerance="10"
     inkscape:pageopacity="0"
     inkscape:pageshadow="2"
     inkscape:window-width="1889"
     inkscape:window-height="861"
     id="namedview254"
     showgrid="false"
     inkscape:zoom="1.003444"
     inkscape:cx="167.993"
     inkscape:cy="157.45771"
     inkscape:window-x="0"
     inkscape:window-y="0"
     inkscape:window-maximized="0"
     inkscape:current-layer="Layer_1" /><polygon
     style="fill:#607d8b"
     id="polygon19"
     points="92.422,106.437 25.092,106.437 25.092,110.912 25.092,119.074 25.092,147.799 92.422,147.799 92.422,119.074 92.422,110.912 " /><path
     style="fill:#607d8b"
     inkscape:connector-curvature="0"
     id="path25"
     d="m 102.307,169.831 -61.043,0 c -2.959,0 -5.359,2.059 -5.359,4.596 l 0,39.475 c 0,2.541 2.4,4.6 5.359,4.6 l 61.043,0 c 2.961,0 5.357,-2.059 5.357,-4.6 l 0,-39.475 c 0,-2.537 -2.396,-4.596 -5.357,-4.596 z" /><g
     id="g4709"><path
       d="m 31.48,77.113 53.991,0 c 3.442,0 6.23,-2.463 6.23,-5.508 l 0,-40.367 c 0,-3.041 -2.788,-5.506 -6.23,-5.506 l -10.38,0 0,-2.286 -4.156,0 0,2.286 -24.92,0 0,-2.286 -4.15,0 0,2.286 -10.385,0 c -3.442,0 -6.228,2.465 -6.228,5.506 l 0,40.367 c 0.001,3.045 2.786,5.508 6.228,5.508 z"
       id="path15"
       inkscape:connector-curvature="0"
       style="fill:#607d8b" /><path
       id="path59"
       d="M80.774,21.454H70.394v-2.286h-4.156v2.286h-24.92v-2.286h-4.15v2.286H26.783  c-3.442,0-6.228,2.465-6.228,5.506v40.367c0,3.045,2.785,5.508,6.228,5.508h53.991c3.442,0,6.23-2.463,6.23-5.508V26.96  C87.005,23.919,84.217,21.454,80.774,21.454z"
       fill="#FFFFFF" /><path
       id="path61"
       d="M80.774,21.337H70.394h-2.079H26.783c-3.442,0-6.228,2.336-6.228,5.221v10.44  c0,0.323,0.114,0.638,0.314,0.911h3.835h58.144h3.837c0.202-0.273,0.319-0.588,0.319-0.911v-10.44  C87.005,23.673,84.217,21.337,80.774,21.337z M66.237,24.817h2.077h2.079v1.74c0,0.961-0.932,1.74-2.079,1.74  s-2.077-0.779-2.077-1.74V24.817z M41.317,24.817v1.74c0,0.961-0.926,1.74-2.074,1.74s-2.076-0.779-2.076-1.74v-1.74H41.317z"
       fill="#343433" /><path
       id="path63"
       d="M41.36,26.161c0,1.279-1.037,2.316-2.315,2.316l0,0c-1.278,0-2.315-1.037-2.315-2.316v-7.068  c0-1.279,1.037-2.316,2.315-2.316l0,0c1.278,0,2.315,1.037,2.315,2.316V26.161z"
       fill="#cfd8dc" /><path
       id="path65"
       d="M70.61,26.036c0,1.279-1.037,2.316-2.315,2.316l0,0c-1.278,0-2.315-1.037-2.315-2.316v-7.068  c0-1.279,1.037-2.316,2.315-2.316l0,0c1.278,0,2.315,1.037,2.315,2.316V26.036z"
       fill="#cfd8dc" /><text
       transform="matrix(1 0 0 1 35.7295 64.6738)"
       id="text67"
       font-size="28.7672"
       font-family="'Montserrat-Bold'"
       fill="#cfd8dc">30</text>
</g><rect
     style="fill:#cfd8dc"
     id="rect117"
     height="41.362"
     width="67.330002"
     y="102.158"
     x="20.395" /><rect
     style="fill:#343433"
     id="rect119"
     height="8.1619997"
     width="67.330002"
     y="106.634"
     x="20.395" /><rect
     style="fill:#ffffff"
     id="rect121"
     height="6.7979999"
     width="55.088001"
     y="118.023"
     x="26.855" /><rect
     style="fill:#343433"
     id="rect123"
     height="2.641"
     width="37.632"
     y="130.534"
     x="44.312" /><rect
     style="fill:#343433"
     id="rect125"
     height="2.204"
     width="37.632"
     y="134.924"
     x="44.312" /><path
     style="fill:#ffffff"
     inkscape:connector-curvature="0"
     id="path127"
     d="m 26.855,133.834 c 0,3.564 2.894,6.457 6.462,6.457 3.569,0 6.461,-2.893 6.461,-6.457 0,-3.57 -2.892,-6.464 -6.461,-6.464 -3.568,0 -6.462,2.894 -6.462,6.464 z" /><polygon
     points="204.14,81.493 184.629,86.64 179.534,67.326 103.726,87.325 137.93,216.985 233.249,191.841 "
     id="polygon132"
     style="fill:#607d8b" /><polygon
     points="204.14,81.493 184.629,86.64 179.534,67.326 179.606,67.308 "
     id="polygon134"
     style="fill:#cfd8dc" /><path
     style="fill:#607d8b"
     inkscape:connector-curvature="0"
     id="path172"
     d="m 97.609,165.553 c 2.961,0 5.357,2.059 5.357,4.596 l 0,39.475 c 0,2.541 -2.396,4.6 -5.357,4.6 l -61.043,0 c -2.959,0 -5.359,-2.059 -5.359,-4.6 l 0,-39.475 c 0,-2.537 2.4,-4.596 5.359,-4.596 l 61.043,0 z" /><rect
     style="fill:#f1f1f2"
     id="rect174"
     height="37.272999"
     width="13.885"
     y="171.164"
     x="37.521" /><rect
     style="fill:#f1f1f2"
     id="rect176"
     height="6.5019999"
     width="7.5760002"
     y="201.936"
     x="56.248001" /><rect
     style="fill:#f1f1f2"
     id="rect178"
     height="6.5040002"
     width="7.5760002"
     y="191.504"
     x="56.248001" /><rect
     style="fill:#f1f1f2"
     id="rect180"
     height="6.5040002"
     width="7.5760002"
     y="181.07401"
     x="56.248001" /><rect
     style="fill:#f1f1f2"
     id="rect182"
     height="6.5040002"
     width="7.5760002"
     y="171.164"
     x="56.248001" /><rect
     style="fill:#f1f1f2"
     id="rect184"
     height="6.5019999"
     width="7.5780001"
     y="201.936"
     x="67.348" /><rect
     style="fill:#f1f1f2"
     id="rect186"
     height="6.5040002"
     width="7.5780001"
     y="191.504"
     x="67.348" /><rect
     style="fill:#f1f1f2"
     id="rect188"
     height="6.5040002"
     width="7.5780001"
     y="181.07401"
     x="67.348" /><rect
     style="fill:#f1f1f2"
     id="rect190"
     height="6.5040002"
     width="7.5780001"
     y="171.164"
     x="67.348" /><rect
     style="fill:#f1f1f2"
     id="rect192"
     height="6.5019999"
     width="7.5819998"
     y="201.936"
     x="78.448997" /><rect
     style="fill:#f1f1f2"
     id="rect194"
     height="6.5040002"
     width="7.5819998"
     y="191.504"
     x="78.448997" /><rect
     style="fill:#f1f1f2"
     id="rect196"
     height="6.5040002"
     width="7.5819998"
     y="181.07401"
     x="78.448997" /><rect
     style="fill:#f1f1f2"
     id="rect198"
     height="6.5019999"
     width="7.5739999"
     y="201.936"
     x="89.555" /><rect
     style="fill:#f1f1f2"
     id="rect200"
     height="6.5040002"
     width="7.5739999"
     y="191.504"
     x="89.555" /><rect
     style="fill:#f1f1f2"
     id="rect202"
     height="6.5040002"
     width="7.5739999"
     y="181.07401"
     x="89.555" /><rect
     style="fill:#cfd8dc"
     id="rect204"
     height="6.5040002"
     width="18.68"
     y="171.164"
     x="78.448997" /><g
     id="g4741"
     transform="translate(0,11.958814)"><polygon
       points="202.297,76.812 193.343,76.812 184.304,71.586 184.231,71.604 164.49,76.812 123.895,76.812 123.895,87.522 108.423,91.604 123.895,150.253 123.895,210.909 139.896,210.909 142.627,221.264 181.879,210.909 222.475,210.909 222.475,200.2 237.946,196.119 222.475,137.47 222.475,96.787 202.371,76.812 "
       id="polygon21"
       style="fill:#607d8b" /><rect
       x="86.660248"
       y="138.79865"
       transform="matrix(0.96691372,-0.25510362,0.25510362,0.96691372,0,0)"
       width="42.677395"
       height="3.2699535"
       id="rect136"
       style="fill:#cccccc" /><rect
       x="86.662659"
       y="148.98526"
       transform="matrix(0.96691372,-0.25510362,0.25510362,0.96691372,0,0)"
       width="42.677395"
       height="3.2689536"
       id="rect138"
       style="fill:#cccccc" /><rect
       x="86.663055"
       y="159.17909"
       transform="matrix(0.96691372,-0.25510362,0.25510362,0.96691372,0,0)"
       width="42.676392"
       height="3.2689536"
       id="rect140"
       style="fill:#cccccc" /><rect
       x="86.663177"
       y="169.3701"
       transform="matrix(0.96691372,-0.25510362,0.25510362,0.96691372,0,0)"
       width="42.677395"
       height="3.2669537"
       id="rect142"
       style="fill:#cccccc" /><rect
       x="86.661385"
       y="179.56349"
       transform="matrix(0.96691372,-0.25510362,0.25510362,0.96691372,0,0)"
       width="82.21183"
       height="3.2679534"
       id="rect144"
       style="fill:#cccccc" /><rect
       x="86.660736"
       y="189.75177"
       transform="matrix(0.96691372,-0.25510362,0.25510362,0.96691372,0,0)"
       width="82.21283"
       height="3.2689536"
       id="rect146"
       style="fill:#cccccc" /><rect
       x="114.50483"
       y="199.94293"
       transform="matrix(0.96691372,-0.25510362,0.25510362,0.96691372,0,0)"
       width="54.368229"
       height="3.2709534"
       id="rect148"
       style="fill:#cccccc" /><rect
       x="114.50145"
       y="210.13818"
       transform="matrix(0.96691372,-0.25510362,0.25510362,0.96691372,0,0)"
       width="54.368229"
       height="3.2679534"
       id="rect150"
       style="fill:#cccccc" /><rect
       x="114.50528"
       y="220.32698"
       transform="matrix(0.96691372,-0.25510362,0.25510362,0.96691372,0,0)"
       width="54.369228"
       height="3.2669537"
       id="rect152"
       style="fill:#cccccc" /><rect
       x="134.27316"
       y="138.79826"
       transform="matrix(0.96691372,-0.25510362,0.25510362,0.96691372,0,0)"
       width="34.597507"
       height="33.842518"
       id="rect154"
       style="fill:#cccccc" /><rect
       x="86.657303"
       y="198.84073"
       transform="matrix(0.96691372,-0.25510362,0.25510362,0.96691372,0,0)"
       width="23.374668"
       height="24.756649"
       id="rect156"
       style="fill:#cccccc" /><polygon
       points="217.777,206.631 217.777,92.509 197.6,92.509 197.6,72.534 119.197,72.534 119.197,206.631 "
       id="polygon214"
       style="fill:#ffffff" /><polygon
       points="197.674,72.534 217.777,92.509 197.6,92.509 197.6,72.534 "
       id="polygon216"
       style="fill:#607d8b" /><rect
       id="rect218"
       height="3.2709999"
       width="42.678001"
       y="181.968"
       x="127.842"
       style="fill:#cccccc" /><rect
       id="rect220"
       height="3.27"
       width="42.678001"
       y="171.778"
       x="127.842"
       style="fill:#cccccc" /><rect
       id="rect222"
       height="3.27"
       width="42.678001"
       y="161.586"
       x="127.842"
       style="fill:#cccccc" /><rect
       id="rect224"
       height="3.2679999"
       width="42.678001"
       y="151.396"
       x="127.842"
       style="fill:#cccccc" /><rect
       id="rect226"
       height="3.2679999"
       width="82.212997"
       y="141.203"
       x="127.842"
       style="fill:#cccccc" /><rect
       id="rect228"
       height="3.2690001"
       width="42.243"
       y="131.01401"
       x="167.812"
       style="fill:#cccccc" /><rect
       id="rect230"
       height="3.2709999"
       width="42.243"
       y="120.82"
       x="167.812"
       style="fill:#cccccc" /><rect
       id="rect232"
       height="3.2679999"
       width="42.243"
       y="110.631"
       x="167.812"
       style="fill:#cccccc" /><rect
       id="rect234"
       height="3.2679999"
       width="42.243"
       y="100.438"
       x="167.812"
       style="fill:#cccccc" /><rect
       id="rect236"
       height="33.842999"
       width="34.598"
       y="151.396"
       x="175.455"
       style="fill:#cfd8dc" /><rect
       id="rect238"
       height="34.533001"
       width="32.604"
       y="100.438"
       x="127.842"
       style="fill:#cfd8dc" /></g><path
     id="path23-0"
     d="m 128.03823,27.921257 -0.148,0 0,-2.203 0,-8.115 -11.504,0 0,8.115 0,2.203 c -0.656,0 -1.188,0.531 -1.188,1.188 l 0,35.316 c 0,0.656 0.531,1.188 1.188,1.188 l 11.652,0 c 0.656,0 1.188,-0.531 1.188,-1.188 l 0,-35.316 c 0,-0.656 -0.531,-1.188 -1.188,-1.188 z"
     inkscape:connector-curvature="0"
     style="fill:#303e45" /><polygon
     id="polygon13"
     points="286.211,155.645 286.211,155.645 286.211,155.646 286.208,155.648 286.211,155.648 286.231,216.312 288.406,216.312 288.408,220.044 305.829,220.039 305.828,216.306 308.007,216.305 308.006,212.771 308.006,212.771 308.001,197.823 307.987,155.638 307.983,155.638 300.998,146.932 300.825,138.532 299.658,138.532 299.655,132.348 294.643,134.686 294.644,138.534 293.826,138.534 293.595,146.934 "
     style="fill:#303e45"
     transform="matrix(-0.00764203,-0.9999708,0.9999708,-0.00764203,4.192269,333.31647)" /><rect
     id="rect37-5"
     height="5.5999999"
     width="17.421"
     y="212.93294"
     x="-50.535767"
     style="fill:#607d8b"
     transform="matrix(-0.00764203,-0.9999708,0.9999708,-0.00764203,0,0)" /><rect
     id="rect39"
     height="21.775002"
     width="60.667004"
     transform="matrix(-0.99996829,0.00796393,-0.00796393,-0.99996829,0,0)"
     y="-52.780098"
     x="-214.78613"
     style="fill:#cfd8dc" /><path
     id="path41"
     d="m 158.66286,29.742135 52.82832,-0.421728 c 0.30637,0.701679 0.47929,1.47538 0.48549,2.287356 l 0.0518,6.781802 c 0.0277,3.231883 -2.57019,5.873813 -5.80509,5.898535 l -42.05667,0.335408 c -3.23389,0.02572 -5.87382,-2.572187 -5.89853,-5.805092 l -0.0548,-6.779779 c -0.006,-0.813977 0.15485,-1.59023 0.44946,-2.296502"
     inkscape:connector-curvature="0"
     style="fill:#cfd8dc;fill-opacity:1" /><polygon
     id="polygon45"
     points="280.604,152.494 302.382,152.485 295.395,143.777 295.222,135.378 288.223,135.38 287.991,143.779 "
     style="fill:#607d8b"
     transform="matrix(-0.00764203,-0.9999708,0.9999708,-0.00764203,4.192269,333.31647)" /><g
     id="g4717"
     transform="translate(625.84458,-139.5195)"><rect
       style="fill:#303e45"
       x="-381.0683"
       y="299.22165"
       width="84.517998"
       height="58.256001"
       id="rect19" /><rect
       style="fill:#607d8b"
       x="-385.6713"
       y="295.06665"
       width="84.517998"
       height="58.256001"
       id="rect110" /><rect
       id="rect112"
       height="13.727"
       width="14.057"
       y="298.92865"
       x="-319.68329"
       style="fill:#ffffff" /><rect
       id="rect114"
       height="2.0840001"
       width="35.396999"
       y="324.42566"
       x="-360.8353"
       style="fill:#cccccc" /><rect
       id="rect116"
       height="2.085"
       width="26.569"
       y="330.92166"
       x="-356.42029"
       style="fill:#cccccc" /><rect
       id="rect118"
       height="2.0829999"
       width="35.396999"
       y="337.41867"
       x="-360.8353"
       style="fill:#cccccc" /><rect
       id="rect120"
       height="2.082"
       width="24.969"
       y="299.14566"
       x="-380.95432"
       style="fill:#cccccc" /><rect
       id="rect122"
       height="2.0829999"
       width="20.937"
       y="302.56366"
       x="-380.95432"
       style="fill:#cccccc" /></g><g
     id="g4727"
     transform="translate(641.78967,-145.4989)"><path
       style="fill:#303e45"
       inkscape:connector-curvature="0"
       d="m -402.8743,287.00365 88.159,0.001 c 2.856,0 5.173,-2.315 5.172,-5.17 l 0,-118.41 c 0,-2.857 -2.315,-5.172 -5.172,-5.171 l -88.161,-0.001 c -2.855,0.001 -5.17,2.314 -5.171,5.172 l 0.001,118.41 c 10e-4,2.854 2.316,5.169 5.172,5.169 z"
       id="path21" /><path
       style="fill:#dbdfe1"
       inkscape:connector-curvature="0"
       d="m -351.5043,202.17465 c -5.579,-5.547 -14.599,-5.518 -20.144,0.058 -5.546,5.577 -5.52,14.599 0.06,20.143 5.579,5.548 14.598,5.521 20.144,-0.058 5.542,-5.577 5.519,-14.597 -0.06,-20.143 z m -14.492,14.577 c -2.473,-2.46 -2.484,-6.455 -0.026,-8.927 2.458,-2.473 6.452,-2.482 8.924,-0.024 2.472,2.458 2.484,6.451 0.026,8.926 -2.455,2.469 -6.451,2.483 -8.924,0.025 z"
       id="path126" /><path
       style="fill:#607d8b"
       inkscape:connector-curvature="0"
       d="m -315.1463,276.68065 c 10e-4,2.854 -2.315,5.17 -5.172,5.17 l -88.159,-10e-4 c -2.856,0 -5.172,-2.314 -5.172,-5.169 l -0.001,-118.41 c 0.001,-2.857 2.315,-5.171 5.171,-5.172 l 88.161,0.001 c 2.856,-0.001 5.172,2.313 5.172,5.171 l 0,118.41 z"
       id="path130" /><rect
       style="fill:#ffffff"
       x="-409.77332"
       y="167.83466"
       width="90.748001"
       height="99.278"
       id="rect132" /><circle
       style="fill:#ffffff"
       cx="-364.39731"
       cy="274.50665"
       r="3.7490001"
       id="circle134" /><polyline
       transform="translate(-437.0663,134.53665)"
       id="polyline136"
       points="96.054,105.315 42.532,105.472 42.518,101.665 103.602,101.488 103.609,105.296 96.054,105.315 "
       style="fill:#dbdfe1" /><rect
       id="rect138-3"
       height="3.8080161"
       width="50.564213"
       transform="matrix(0.9999958,-0.00289999,0.00289999,0.9999958,0,0)"
       y="243.14072"
       x="-389.97403"
       style="fill:#dbdfe1" /><rect
       id="rect140-7"
       height="3.8090172"
       width="61.081276"
       transform="matrix(0.9999955,-0.00299999,0.00299999,0.9999955,0,0)"
       y="251.18112"
       x="-395.25"
       style="fill:#dbdfe1" /><rect
       style="fill:#83807f"
       x="-389.15829"
       y="221.79865"
       width="51.380001"
       height="5.4770002"
       id="rect143" /><rect
       style="fill:#cfd8dc"
       x="-383.81229"
       y="179.53465"
       width="10.781"
       height="42.264"
       id="rect145" /><rect
       style="fill:#dbdfe1"
       x="-369.15829"
       y="192.17966"
       width="10.838"
       height="29.618999"
       id="rect147" /><rect
       style="fill:#607d8b"
       x="-354.56232"
       y="186.05264"
       width="11.01"
       height="35.745998"
       id="rect149" /></g><path
     inkscape:connector-curvature="0"
     style="fill:#cfd8dc"
     d="m 122.43523,24.767257 c 0.656,0 1.188,0.531 1.188,1.188 l 0,35.316 c 0,0.656 -0.531,1.188 -1.188,1.188 l -11.653,0 c -0.656,0 -1.188,-0.531 -1.188,-1.188 l 0,-35.316 c 0,-0.656 0.531,-1.188 1.188,-1.188 l 11.653,0 z"
     id="path189" /><rect
     style="fill:#303e45"
     x="110.78223"
     y="22.56428"
     width="11.504"
     height="2.2030001"
     id="rect191" /><rect
     style="fill:#ffffff"
     x="110.78223"
     y="14.449259"
     width="11.504"
     height="8.1149998"
     id="rect193" /><rect
     style="fill:#303e45"
     x="112.98822"
     y="17.604258"
     width="7.6490002"
     height="1.807"
     id="rect195" /></svg>