<?xml version="1.0" encoding="UTF-8" standalone="no"?>
<!-- Created with Sodipodi ("http://www.sodipodi.com/") -->

<svg
   xmlns:a="http://ns.adobe.com/AdobeSVGViewerExtensions/3.0/"
   xmlns:dc="http://purl.org/dc/elements/1.1/"
   xmlns:cc="http://creativecommons.org/ns#"
   xmlns:rdf="http://www.w3.org/1999/02/22-rdf-syntax-ns#"
   xmlns:svg="http://www.w3.org/2000/svg"
   xmlns="http://www.w3.org/2000/svg"
   xmlns:xlink="http://www.w3.org/1999/xlink"
   xmlns:sodipodi="http://sodipodi.sourceforge.net/DTD/sodipodi-0.dtd"
   xmlns:inkscape="http://www.inkscape.org/namespaces/inkscape"
   width="48pt"
   height="48pt"
   viewBox="0 0 256 256"
   overflow="visible"
   enable-background="new 0 0 256 256"
   xml:space="preserve"
   id="svg153"
   sodipodi:version="0.32"
   sodipodi:docname="website_s.svg"
   inkscape:version="0.48.4 r9939"
   inkscape:output_extension="org.inkscape.output.svg.inkscape"
   version="1.1"><metadata
     id="metadata51"><rdf:RDF><cc:Work
         rdf:about=""><dc:format>image/svg+xml</dc:format><dc:type
           rdf:resource="http://purl.org/dc/dcmitype/StillImage" /></cc:Work></rdf:RDF></metadata><defs
     id="defs177"><linearGradient
       id="linearGradient860"><stop
         offset="0.000000"
         style="stop-color: rgb(0, 102, 204); stop-opacity: 1;"
         id="stop862" /><stop
         offset="0.994400"
         style="stop-color: rgb(0, 51, 102); stop-opacity: 1;"
         id="stop861" /></linearGradient><linearGradient
       id="XMLID_36_"
       gradientUnits="userSpaceOnUse"
       x1="-201.0083"
       y1="268.4639"
       x2="-178.6366"
       y2="281.3212"
       gradientTransform="matrix(1,0,0,-1,178.5,315.5)"><stop
         offset="0"
         style="stop-color: rgb(51, 102, 102);"
         id="stop921" /><stop
         offset="1"
         style="stop-color: rgb(0, 51, 51);"
         id="stop922" /><a:midPointStop
         offset="0"
         style="stop-color:#336666"
         id="midPointStop923" /><a:midPointStop
         offset="0.5"
         style="stop-color:#336666"
         id="midPointStop924" /><a:midPointStop
         offset="1"
         style="stop-color:#003333"
         id="midPointStop925" /></linearGradient><linearGradient
       id="XMLID_37_"
       gradientUnits="userSpaceOnUse"
       x1="-368.0845"
       y1="21.1597"
       x2="-364.22961"
       y2="17.304501"
       gradientTransform="matrix(0.999,4.35e-2,4.35e-2,-0.999,401.3,52.7485)"><stop
         offset="0"
         style="stop-color: rgb(248, 241, 220);"
         id="stop928" /><stop
         offset="1"
         style="stop-color: rgb(214, 168, 74);"
         id="stop929" /><a:midPointStop
         offset="0"
         style="stop-color:#F8F1DC"
         id="midPointStop930" /><a:midPointStop
         offset="0.5"
         style="stop-color:#F8F1DC"
         id="midPointStop931" /><a:midPointStop
         offset="1"
         style="stop-color:#D6A84A"
         id="midPointStop932" /></linearGradient><linearGradient
       id="XMLID_38_"
       gradientUnits="userSpaceOnUse"
       x1="-360.80081"
       y1="30.289101"
       x2="-358.75189"
       y2="32.730801"
       gradientTransform="matrix(0.999,4.35e-2,4.35e-2,-0.999,401.3,52.7485)"><stop
         offset="0"
         style="stop-color: rgb(0, 159, 129);"
         id="stop935" /><stop
         offset="1"
         style="stop-color: rgb(51, 102, 102);"
         id="stop936" /><a:midPointStop
         offset="0"
         style="stop-color:#009F81"
         id="midPointStop937" /><a:midPointStop
         offset="0.5"
         style="stop-color:#009F81"
         id="midPointStop938" /><a:midPointStop
         offset="1"
         style="stop-color:#336666"
         id="midPointStop939" /></linearGradient><linearGradient
       id="XMLID_39_"
       gradientUnits="userSpaceOnUse"
       x1="-372.77591"
       y1="37.686501"
       x2="-364.164"
       y2="18.5667"
       gradientTransform="matrix(0.999,4.35e-2,4.35e-2,-0.999,401.3,52.7485)"><stop
         offset="0"
         style="stop-color: rgb(44, 169, 0);"
         id="stop942" /><stop
         offset="0.7753"
         style="stop-color: rgb(51, 204, 51);"
         id="stop943" /><stop
         offset="1"
         style="stop-color: rgb(0, 106, 0);"
         id="stop944" /><a:midPointStop
         offset="0"
         style="stop-color:#2CA900"
         id="midPointStop945" /><a:midPointStop
         offset="0.5"
         style="stop-color:#2CA900"
         id="midPointStop946" /><a:midPointStop
         offset="0.7753"
         style="stop-color:#33CC33"
         id="midPointStop947" /><a:midPointStop
         offset="0.5"
         style="stop-color:#33CC33"
         id="midPointStop948" /><a:midPointStop
         offset="1"
         style="stop-color:#006A00"
         id="midPointStop949" /></linearGradient><linearGradient
       id="XMLID_40_"
       gradientUnits="userSpaceOnUse"
       x1="-219.2041"
       y1="144.43649"
       x2="-222.7178"
       y2="144.43649"
       gradientTransform="matrix(-0.1991,0.98,-0.98,-0.1991,123.757,270.086)"><stop
         offset="0"
         style="stop-color: rgb(51, 102, 102);"
         id="stop952" /><stop
         offset="1"
         style="stop-color: rgb(0, 51, 51);"
         id="stop953" /><a:midPointStop
         offset="0"
         style="stop-color:#336666"
         id="midPointStop954" /><a:midPointStop
         offset="0.5"
         style="stop-color:#336666"
         id="midPointStop955" /><a:midPointStop
         offset="1"
         style="stop-color:#003333"
         id="midPointStop956" /></linearGradient></defs><sodipodi:namedview
     id="base"
     showgrid="false"
     inkscape:zoom="3.85"
     inkscape:cx="43.999289"
     inkscape:cy="31.397273"
     inkscape:window-width="946"
     inkscape:window-height="667"
     inkscape:window-x="172"
     inkscape:window-y="85"
     inkscape:current-layer="Layer_1"
     inkscape:window-maximized="0" /><g
     id="Layer_1"
     transform="matrix(1.00322, 0, 0, 0.9582, -2.46946, 5.76204)"
     stroke="#000000"><radialGradient
       id="XMLID_1_"
       cx="116.8169"
       cy="47.0796"
       r="182.3371"
       fx="116.8169"
       fy="47.0796"
       gradientUnits="userSpaceOnUse"><stop
         offset="0"
         style="stop-color: rgb(255, 255, 255);"
         id="stop157" /><stop
         offset="0.5955"
         style="stop-color: rgb(153, 204, 255);"
         id="stop158" /><stop
         offset="0.9944"
         style="stop-color: rgb(51, 153, 255);"
         id="stop159" /><a:midPointStop
         offset="0"
         style="stop-color:#FFFFFF"
         id="midPointStop160" /><a:midPointStop
         offset="0.5"
         style="stop-color:#FFFFFF"
         id="midPointStop161" /><a:midPointStop
         offset="0.5955"
         style="stop-color:#99CCFF"
         id="midPointStop162" /><a:midPointStop
         offset="0.5"
         style="stop-color:#99CCFF"
         id="midPointStop163" /><a:midPointStop
         offset="0.9944"
         style="stop-color:#3399FF"
         id="midPointStop164" /></radialGradient><path
       d="M126.148,237.98c61.959,0,112.223-50.473,112.223-112.395    c0-61.528-50.262-112.01-112.223-112.01c-61.52,0.003-112.213,50.482-112.213,112.01C13.936,187.508,64.629,237.98,126.148,237.98    z"
       id="path165"
       stroke="none"
       fill="url(#XMLID_1_)"
       style="fill:#b3b3b3" /><linearGradient
       id="XMLID_2_"
       gradientUnits="userSpaceOnUse"
       x1="125.856400"
       y1="56.801800"
       x2="125.856400"
       y2="245.862793"
       xlink:href="#linearGradient860"><a:midPointStop
         offset="0"
         style="stop-color:#0066CC"
         id="midPointStop171" /><a:midPointStop
         offset="0.5"
         style="stop-color:#0066CC"
         id="midPointStop172" /><a:midPointStop
         offset="0.9944"
         style="stop-color:#003366"
         id="midPointStop173" /></linearGradient><path
       d="M88.875,25.919c-0.555,0-1.162,0.229-1.785,0.581    C88.55,26.071,89.237,25.919,88.875,25.919z M125.005,32.969l0.364-5.285l-5.579,0.351l0.738,4.935H125.005z M62.056,124.314    c-1.121-1.06-0.371-5.646-0.371-5.646s-16.764-8.811-35.015-14.105c-2.251-0.653-1.114-5.287,1.112-7.045l-0.743-4.953    c-0.369-2.459,3.728-14.449,7.825-15.502c4.099-1.064-0.372,7.048-0.372,7.048l-4.097,2.469c0,0,4.839,5.638,5.962,5.638    c1.114,0,2.977-2.822,2.977-2.822l-5.213-3.516l4.844-2.123l0.303-1.859l0.813-0.257l8.016-12.143    c5.541-2.267,12.349-5.076,13.216-5.491c1.49-0.701,11.919-6.69,13.781-8.104c1.867-1.416,5.957-1.057,7.443-1.057    c1.497,0,3.731-0.708,4.101-4.593c0.372-3.878,1.865-4.584,2.984-3.523c1.116,1.053-1.122,2.818,1.488,3.523    c2.607,0.709,4.837,2.472,6.704,0.709c1.362-1.293-0.46-2.763-1.688-3.874h20.681l2.24-6.358l-4.842-0.704l-17.886-1.762v-2.117    l-1.426,0.241c1.937-10.639,13.438-8.886,4.781-15.045c-0.526-0.378-8.101,11.936-10.028,11.696    c-3.492-0.46-8.004-0.496-8.968,0.638c-1.269,1.499,2.857-5.158,6.412-7.177c-5.672,1.672-23.594,7.803-42.542,27.986    c-18.112,19.294-25.334,45.287-25.334,46.197c0,1.761,3.728,2.469,4.101,4.587c0.373,2.106-7.074,9.167-7.074,12.693    c0,1.625-1.758,23.361,4.463,41.267c7.269,20.896,22.783,38.348,24.587,39.496l3.721-1.77c0,0-8.566-15.16-8.938-16.576    c-0.369-1.404,9.684-21.861,14.529-21.15c4.839,0.693,3.725,2.115,6.705,0.35c2.978-1.76,4.84-16.229,8.192-17.629    c3.355-1.418,7.077-3.178,6.711-6.703c-0.379-3.535-13.041-9.877-14.159-10.934H62.056z M142.884,20.629l-10.056-3.53l1.863,5.648    L142.884,20.629z M105.261,33.678c1.121,0,23.469-14.806,21.232-15.164c-2.23-0.35-2.606,0-8.573-0.705    c-5.955-0.707-12.294,8.465-13.778,9.877C102.656,29.101,103.157,33.678,105.261,33.678z M207.816,140.012l2.885-3.742    l-2.885-1.016l-2.163,2.721l-2.521,3.73l2.162,1.023L207.816,140.012z M220.43,152.256l-0.722-5.441h-4.677l-0.363,4.074    l-4.333-0.672l-1.075-4.424l-2.161-1.357l-2.53,3.055l-2.516-0.676l-0.726,2.371l2.887,0.691v22.088l10.202,2.455    c-0.234,0.408-0.411,0.752-0.471,0.938c-0.727,2.383,2.881,3.41,5.399,2.383c0.942-0.375,3.908-3.375,5.771-7.809    c2.598-6.178,4.866-14.334,5.322-17.217l1.169-2.496l-7.212,2.715l-3.967-0.674L220.43,152.256z M235.574,111.124l-1.882-3.645    c-2.229-12.572-7.343-28.67-18.3-45.3c-16.493-25.001-62.38-39.422-62.38-39.422l-2.518,3.052l-1.445-2.372l-3.607-1.365v3.059    l3.25,2.725l-2.164,1.018l-8.294,0.676l-18.746,10.201l1.797,8.155l-2.166,0.686l-1.072,1.695l6.126,9.172l0.361,3.065    l-5.046,1.018v6.114l-2.882,0.679l0.363,4.761L92.448,92.096l0.723,9.507c1.798,2.383,15.865,16.662,15.865,16.662    s16.218,0.671,19.826-1.361c3.605-2.039,1.08,2.036,2.164,3.057c1.08,1.027,1.441,8.156,2.52,8.839c1.08,0.678,0,4.753,1.443,6.12    c1.441,1.35,1.441,17.676,1.441,17.676s8.653,14.607,8.653,18.352c0,3.736-0.361,3.396,6.492,3.059    c6.85-0.34,8.289-3.059,9.728-4.074c1.448-1.023,1.448-3.404,2.892-5.445c1.445-2.043,3.959-9.855,7.21-12.57    c3.241-2.727,11.895-4.768,12.612-9.52c0.721-4.76,3.966-8.502,3.966-8.502l15.587-16.487l-0.438,2.217l-0.363,8.488l4.688-1.695    l-0.357-9.183l-1.686-1.779l0.24-0.259c0,0-1.085-2.036-2.521-2.036c-1.442,0-10.101,2.036-11.537,1.699    c-1.445-0.342-7.578-16.658-8.658-17.331c-1.082-0.681-7.928-11.899-7.928-11.899s15.86,19.036,18.384,26.509    c1.464,4.354,6.966,0.302,11.443-4.243l1.184,2.888l2.88-0.687l-0.361-3.397h3.243v5.099l-1.08,2.72l-0.371,4.415l2.889,2.726    l1.446-2.376l4.677-4.423l5.413-2.721l1.443,2.721l0.723,3.741l-1.448,4.076l-2.88,2.379l-1.443,6.12v3.051l-3.24-2.035    l-0.361-6.455l-4.686,0.344l-2.161,5.77l3.244,4.769l7.568,1.018l6.133-5.786l0.718-11.206l2.726-3.601    c1.777,4.566,3.046,9.345,3.046,13.795c0,4.88,2.23-3.381,0.332-18.264l1.106-1.453V111.124z M144.722,76.456l-19.466-0.69    l8.285-6.793h4.33l6.85,4.754v2.728L144.722,76.456z M168.521,74.078v3.059h-8.291l0.72,2.042l-5.051,0.684l-0.358,1.693    l-3.604-0.674l-6.492-1.368l1.084-1.694l1.083-2.048l3.603-3.734l1.445,2.721l5.41-0.342l2.881-3.061l11.172,2.04l-3.601,0.686    V74.078z M169.235,69.654l-4.321,0.679l-0.72-3.063l5.4-0.677l0.726-3.057l3.973,4.084l-5.058,2.029V69.654z M190.149,175.355    l-2.526,2.039l0.359,5.105h3.246v-4.412l2.889-3.748v-7.814l-1.805-0.35l-2.159,9.18H190.149z M166,165.17    c0,0-2.525,0.664,0.355,1.691c2.88,1.025,14.42-16.645,14.42-16.645l-9.735,6.109l-5.044,8.844H166z M146.374,230.313    l-2.156-2.055l-4.328-0.689l-0.718,2.057l-5.766-0.678l-0.362-2.738h-4.324l-4.685,2.738h-8.286l-0.719-2.057l-13.33-1.375    l-2.166,2.053l-5.401-1.359l-0.721-4.801l-2.522-0.35l-2.883,5.15l-9.726-0.346c1.737,0.824,16.267,9.488,38.545,11.301    c29.547,2.389,43.601-4.793,43.601-4.793l-1.082-1.031l-12.972-1.023V230.313z"
       id="path174"
       stroke="none"
       fill="url(#XMLID_2_)"
       style="fill:#808080" /><path
       d="M125.77,103.102c38.438,0,71.876-13.245,89.079-32.765    c-17.323-33.064-50.796-55.63-89.243-55.63c-38.111,0.002-71.629,22.492-89.064,55.463    C53.701,89.782,87.222,103.102,125.77,103.102z"
       id="path175"
       stroke="none"
       fill="#FFFFFF"
       opacity="0.5" /></g></svg>