<?xml version="1.0" encoding="UTF-8" standalone="no"?>
<!-- Created with Inkscape (http://www.inkscape.org/) -->

<svg
   xmlns:dc="http://purl.org/dc/elements/1.1/"
   xmlns:cc="http://creativecommons.org/ns#"
   xmlns:rdf="http://www.w3.org/1999/02/22-rdf-syntax-ns#"
   xmlns:svg="http://www.w3.org/2000/svg"
   xmlns="http://www.w3.org/2000/svg"
   xmlns:sodipodi="http://sodipodi.sourceforge.net/DTD/sodipodi-0.dtd"
   xmlns:inkscape="http://www.inkscape.org/namespaces/inkscape"
   id="svg2"
   version="1.1"
   inkscape:version="0.91 r13725"
   xml:space="preserve"
   width="187.81313"
   height="261.35953"
   viewBox="0 0 187.81313 261.35952"
   sodipodi:docname="workshop.svg"><metadata
     id="metadata8"><rdf:RDF><cc:Work
         rdf:about=""><dc:format>image/svg+xml</dc:format><dc:type
           rdf:resource="http://purl.org/dc/dcmitype/StillImage" /><dc:title></dc:title></cc:Work></rdf:RDF></metadata><defs
     id="defs6"><clipPath
       clipPathUnits="userSpaceOnUse"
       id="clipPath172"><path
         d="m 537.348,1519.64 616.932,0 c 3.78,0 6.87,-3.09 6.87,-6.87 l 0,-365.93 c 0,-3.95 -3.23,-7.18 -7.17,-7.18 l -616.632,0 c -3.953,0 -7.18,3.23 -7.18,7.18 l 0,365.62 c 0,3.95 3.227,7.18 7.18,7.18 z"
         id="path174"
         inkscape:connector-curvature="0"
         style="clip-rule:evenodd" /></clipPath></defs><sodipodi:namedview
     pagecolor="#ffffff"
     bordercolor="#666666"
     borderopacity="1"
     objecttolerance="10"
     gridtolerance="10"
     guidetolerance="10"
     inkscape:pageopacity="0"
     inkscape:pageshadow="2"
     inkscape:window-width="2731"
     inkscape:window-height="1682"
     id="namedview4"
     showgrid="false"
     fit-margin-top="0"
     fit-margin-left="0"
     fit-margin-right="0"
     fit-margin-bottom="0"
     inkscape:zoom="3.2"
     inkscape:cx="-0.3925"
     inkscape:cy="164.50201"
     inkscape:window-x="0"
     inkscape:window-y="0"
     inkscape:window-maximized="0"
     inkscape:current-layer="g10" /><g
     id="g10"
     inkscape:groupmode="layer"
     inkscape:label="ink_ext_XXXXXX"
     transform="matrix(1.25,0,0,-1.25,-211.0175,294.35752)"><path
       inkscape:connector-curvature="0"
       id="path14"
       style="fill:#cfd8dc;fill-opacity:1;fill-rule:evenodd;stroke:none"
       d="m 197.586,98.1625 106.031,0 0,78.8719 -106.031,0 0,-78.8719 z" /><path
       inkscape:connector-curvature="0"
       id="path20"
       style="fill:none;stroke:#000000;stroke-width:0.50002998;stroke-linecap:butt;stroke-linejoin:miter;stroke-miterlimit:2.61313009;stroke-dasharray:none;stroke-opacity:1"
       d="m 168.814,235.236 0,0" /><path
       inkscape:connector-curvature="0"
       id="path22"
       style="fill:#cfd8dc;fill-opacity:1;fill-rule:evenodd;stroke:none"
       d="m 204.065,170.284 106.031,0 0,-78.8715 -51.206,0 0,-56.9484 -3.619,0 0,56.9484 -51.206,0 0,78.8715" /><path
       inkscape:connector-curvature="0"
       id="path34"
       style="fill:#cfd8dc;fill-opacity:1;fill-rule:evenodd;stroke:none"
       d="m 168.814,26.3984 0,13.1684 138.818,0 c 3.893,0 7.077,-2.9629 7.077,-6.584 l 0,0 c 0,-3.6215 -3.184,-6.5844 -7.077,-6.5844 l -138.818,0" /><path
       inkscape:connector-curvature="0"
       id="path38"
       style="fill:#607d8b;fill-opacity:1;fill-rule:evenodd;stroke:none"
       d="m 184.836,104.39 106.031,0 0,78.8723 -106.031,0 0,-78.8723 z" /><path
       inkscape:connector-curvature="0"
       id="path40"
       style="fill:#ffffff;fill-opacity:1;fill-rule:evenodd;stroke:none"
       d="m 187.547,106.631 100.609,0 0,74.3895 -100.609,0 0,-74.3895 z" /><path
       inkscape:connector-curvature="0"
       id="path50"
       style="fill:#607d8b;fill-opacity:1;fill-rule:evenodd;stroke:none"
       d="m 196.802,132.446 1.294,0 0,-17.823 49.732,0 0,-1.294 -51.026,0 0,19.117" /><path
       inkscape:connector-curvature="0"
       id="path52"
       style="fill:#435761;fill-opacity:1;fill-rule:nonzero;stroke:none"
       d="m 198.096,115.12 8.582,6.664 c 0.236,0.182 0.577,0.138 0.76,-0.098 l 0.008,-0.011 0,0.001 1.714,-2.325 12.263,8.887 c 0.242,0.175 0.582,0.121 0.757,-0.122 l 0,0 2.862,-3.521 12.227,8.072 c 0.25,0.165 0.586,0.097 0.751,-0.153 0.166,-0.249 0.097,-0.585 -0.152,-0.751 l -12.638,-8.343 0,0 c -0.23,-0.152 -0.542,-0.107 -0.719,0.11 l -2.866,3.528 -12.284,-8.901 0,0 c -0.241,-0.175 -0.579,-0.122 -0.756,0.119 l -1.703,2.31 -7.681,-5.963 -1.125,0 0,0.497" /><path
       inkscape:connector-curvature="0"
       id="path54"
       style="fill:#ffed66;fill-opacity:1;fill-rule:evenodd;stroke:none"
       d="m 278.689,127.368 3.94,-5.756 c -1.161,-0.794 -2.534,-1.219 -3.94,-1.219 -3.852,0 -6.975,3.123 -6.975,6.975 0,3.853 3.123,6.976 6.975,6.976 l 0,-6.976" /><path
       inkscape:connector-curvature="0"
       id="path58"
       style="fill:#607d8b;fill-opacity:1;fill-rule:evenodd;stroke:none"
       d="m 279.904,99.2902 28.45,0 0,-57.7316 -9.706,0 0,43.8566 c 0,2.4856 -2.034,4.5196 -4.519,4.5196 l 0,0 c -2.486,0 -4.52,-2.034 -4.52,-4.5196 l 0,-43.8566 -9.705,0 0,57.7316" /><path
       inkscape:connector-curvature="0"
       id="path60"
       style="fill:#607d8b;fill-opacity:1;fill-rule:evenodd;stroke:none"
       d="m 279.903,99.2902 28.451,0 0,-20.9214 -9.706,0 0,1.7781 c 0,2.4859 -2.034,4.5191 -4.519,4.5191 l 0,0 c -2.486,0 -4.52,-2.034 -4.52,-4.5195 l 0,-1.7777 -9.706,0 0,20.9214" /><path
       inkscape:connector-curvature="0"
       id="path62"
       style="fill:#362a20;fill-opacity:1;fill-rule:evenodd;stroke:none"
       d="m 289.609,41.5586 -11.485,0 c -2.583,0 -4.696,-2.1133 -4.696,-4.6965 l 0,-0.8562 c 0,-0.5168 0.422,-0.9391 0.94,-0.9391 l 14.302,0 c 0.517,0 0.939,0.4223 0.939,0.9391 l 0,5.5527" /><path
       inkscape:connector-curvature="0"
       id="path64"
       style="fill:#140d0a;fill-opacity:1;fill-rule:evenodd;stroke:none"
       d="m 273.428,36.2004 0,-0.1945 c 0,-0.5168 0.423,-0.9391 0.939,-0.9391 l 14.303,0 c 0.517,0 0.939,0.4223 0.939,0.9391 l 0,0.1945 -16.181,0" /><path
       inkscape:connector-curvature="0"
       id="path66"
       style="fill:#5c4e42;fill-opacity:1;fill-rule:evenodd;stroke:none"
       d="m 279.904,41.5586 -1.779,0 c -2.205,0 -4.068,-1.5402 -4.566,-3.5977 l 5.1,0 c 0.684,0 1.245,0.5602 1.245,1.2454 l 0,2.3523" /><path
       inkscape:connector-curvature="0"
       id="path68"
       style="fill:#fdd68b;fill-opacity:1;fill-rule:evenodd;stroke:none"
       d="m 278.373,41.8605 0,0 c 0.166,0 0.302,-0.1359 0.302,-0.3023 l 0,-1.5328 c 0,-0.166 -0.136,-0.3024 -0.302,-0.3024 l 0,0 c -0.167,0 -0.303,0.1364 -0.303,0.3024 l 0,1.5328 c 0,0.1664 0.136,0.3023 0.303,0.3023" /><path
       inkscape:connector-curvature="0"
       id="path70"
       style="fill:#fdd68b;fill-opacity:1;fill-rule:evenodd;stroke:none"
       d="m 277.024,41.7691 0,0 c 0.167,0 0.303,-0.1359 0.303,-0.3023 l 0,-1.4414 c 0,-0.166 -0.136,-0.3024 -0.303,-0.3024 l 0,0 c -0.167,0 -0.303,0.1364 -0.303,0.3024 l 0,1.4414 c 0,0.1664 0.136,0.3023 0.303,0.3023" /><path
       inkscape:connector-curvature="0"
       id="path72"
       style="fill:#362a20;fill-opacity:1;fill-rule:evenodd;stroke:none"
       d="m 308.354,41.5586 -11.485,0 c -2.583,0 -4.697,-2.1133 -4.697,-4.6965 l 0,-0.8562 c 0,-0.5168 0.423,-0.9391 0.939,-0.9391 l 14.304,0 c 0.516,0 0.939,0.4223 0.939,0.9391 l 0,5.5527" /><path
       inkscape:connector-curvature="0"
       id="path74"
       style="fill:#140d0a;fill-opacity:1;fill-rule:evenodd;stroke:none"
       d="m 292.172,36.2004 0,-0.1945 c 0,-0.5168 0.423,-0.9391 0.94,-0.9391 l 14.303,0 c 0.516,0 0.939,0.4223 0.939,0.9391 l 0,0.1945 -16.182,0" /><path
       inkscape:connector-curvature="0"
       id="path76"
       style="fill:#5c4e42;fill-opacity:1;fill-rule:evenodd;stroke:none"
       d="m 298.648,41.5586 -1.779,0 c -2.205,0 -4.068,-1.5402 -4.565,-3.5977 l 5.099,0 c 0.685,0 1.245,0.5602 1.245,1.2454 l 0,2.3523" /><path
       inkscape:connector-curvature="0"
       id="path78"
       style="fill:#fdd68b;fill-opacity:1;fill-rule:evenodd;stroke:none"
       d="m 297.117,41.8605 0,0 c 0.167,0 0.303,-0.1359 0.303,-0.3023 l 0,-1.5328 c 0,-0.166 -0.136,-0.3024 -0.303,-0.3024 l 0,0 c -0.167,0 -0.303,0.1364 -0.303,0.3024 l 0,1.5328 c 0,0.1664 0.136,0.3023 0.303,0.3023" /><path
       inkscape:connector-curvature="0"
       id="path80"
       style="fill:#fdd68b;fill-opacity:1;fill-rule:evenodd;stroke:none"
       d="m 295.768,41.7691 0.001,0 c 0.166,0 0.302,-0.1359 0.302,-0.3023 l 0,-1.4414 c 0,-0.166 -0.136,-0.3024 -0.302,-0.3024 l -0.001,0 c -0.166,0 -0.302,0.1364 -0.302,0.3024 l 0,1.4414 c 0,0.1664 0.136,0.3023 0.302,0.3023" /><path
       inkscape:connector-curvature="0"
       id="path82"
       style="fill:#607d8b;fill-opacity:1;fill-rule:evenodd;stroke:none"
       d="m 286.434,41.5586 3.17539,0 0,42.968 -3.17539,0 0,-42.968 z" /><path
       inkscape:connector-curvature="0"
       id="path84"
       style="fill:#607d8b;fill-opacity:1;fill-rule:evenodd;stroke:none"
       d="m 305.178,41.5586 3.17578,0 0,42.968 -3.17578,0 0,-42.968 z" /><path
       inkscape:connector-curvature="0"
       id="path86"
       style="fill:#435761;fill-opacity:1;fill-rule:evenodd;stroke:none"
       d="m 308.435,134.004 -9.992,3.68 -7.75,0 -9.41,-3.68 c -1.217,-0.476 -2.342,-1.038 -3.239,-1.791 l 0,-43.1872 33.163,0 0,4.2586 2.003,0 1.669,20.4616 0.003,0 -1.352,14.795 c -0.274,2.991 -2.445,4.487 -5.095,5.463" /><path
       inkscape:connector-curvature="0"
       id="path88"
       style="fill:#435761;fill-opacity:1;fill-rule:evenodd;stroke:none"
       d="m 287.295,136.27 c -2.874,0.155 -11.62,-2.538 -13.151,-5.191 l -7.339,-12.712 2.74,-2.121 3.436,-0.05 5.063,6.386 9.251,13.688" /><path
       inkscape:connector-curvature="0"
       id="path90"
       style="fill:#0c2540;fill-opacity:1;fill-rule:evenodd;stroke:none"
       d="m 306.558,89.0262 1.806,0 0,32.0158 c 0,0.496 -0.406,0.903 -0.903,0.903 l 0,0 c -0.497,0 -0.903,-0.407 -0.903,-0.903 l 0,-32.0158" /><path
       inkscape:connector-curvature="0"
       id="path92"
       style="fill:#fbc9a7;fill-opacity:1;fill-rule:evenodd;stroke:none"
       d="m 312.904,93.2844 0,-2.0086 c 0,-0.5227 -0.427,-0.95 -0.95,-0.95 l -3.033,0 c -0.306,0 -0.557,0.2508 -0.557,0.5574 l 0,2.4012 4.54,0" /><path
       inkscape:connector-curvature="0"
       id="path94"
       style="fill:#fb5e79;fill-opacity:1;fill-rule:evenodd;stroke:none"
       d="m 294.755,104.17 c -0.477,0 -0.864,-0.386 -0.864,-0.864 0,-0.477 0.387,-0.864 0.864,-0.864 0.477,0 0.864,0.387 0.864,0.864 0,0.478 -0.387,0.864 -0.864,0.864" /><path
       inkscape:connector-curvature="0"
       id="path96"
       style="fill:#fb5e79;fill-opacity:1;fill-rule:evenodd;stroke:none"
       d="m 294.755,96.5309 c -0.477,0 -0.864,-0.3871 -0.864,-0.8645 0,-0.4769 0.387,-0.8641 0.864,-0.8641 0.477,0 0.864,0.3872 0.864,0.8641 0,0.4774 -0.387,0.8645 -0.864,0.8645" /><path
       inkscape:connector-curvature="0"
       id="path98"
       style="fill:#ffffff;fill-opacity:1;fill-rule:evenodd;stroke:none"
       d="m 289.007,139.03 5.714,-3.325 5.714,3.325 1.712,-2.76 -7.426,-4.347 -7.426,4.347 1.712,2.76" /><path
       inkscape:connector-curvature="0"
       id="path100"
       style="fill:#cccccc;fill-opacity:1;fill-rule:evenodd;stroke:none"
       d="m 289.007,139.03 11.428,0 -5.714,-3.325 -5.714,3.325" /><path
       inkscape:connector-curvature="0"
       id="path102"
       style="fill:#ff6666;fill-opacity:1;fill-rule:evenodd;stroke:none"
       d="m 294.721,131.924 0,0 0,0 c 1.337,0 2.43,-3.108 2.43,-11.87 l 0,-8.959 c 0,-1.336 -1.094,-2.429 -2.43,-2.429 l 0,0 c -1.335,0 -2.429,1.093 -2.429,2.429 l 0,8.959 c 0,8.762 1.093,11.87 2.429,11.87" /><path
       inkscape:connector-curvature="0"
       id="path104"
       style="fill:#e7ae97;fill-opacity:1;fill-rule:evenodd;stroke:none"
       d="m 290.567,146.869 8.308,0 0,-8.747 -4.154,-2.417 -4.154,2.418 0,8.746" /><path
       inkscape:connector-curvature="0"
       id="path106"
       style="fill:#fbc9a7;fill-opacity:1;fill-rule:evenodd;stroke:none"
       d="m 288.288,168.741 15.804,0 c 1.225,0 2.226,-7.187 2.226,-5.963 l 0,1.454 0,-0.948 c 0,-0.396 0.325,-0.721 0.721,-0.721 l 0.351,0 0,-9.8 c 0,-6.733 -5.509,-12.241 -12.241,-12.241 l -0.856,0 c -6.732,0 -12.241,5.508 -12.241,12.241 l 0,7.919 c 0,1.355 0.446,0.811 1.199,1.829 l 0,0.267 c 0,1.225 1.001,5.963 2.226,5.963 l 2.811,0" /><path
       inkscape:connector-curvature="0"
       id="path108"
       style="fill:#fbc9a7;fill-opacity:1;fill-rule:evenodd;stroke:none"
       d="m 307.39,158.883 0.487,0 c 0.969,0 1.762,-0.794 1.762,-1.763 l 0,-2.139 c 0,-1.237 -1.012,-2.249 -2.249,-2.249 l 0,6.151 z m -25.338,0 -0.487,0 c -0.97,0 -1.763,-0.794 -1.763,-1.763 l 0,-2.139 c 0,-1.237 1.013,-2.249 2.25,-2.249 l 0,6.151" /><path
       inkscape:connector-curvature="0"
       id="path110"
       style="fill:#e7ae97;fill-opacity:1;fill-rule:evenodd;stroke:none"
       d="m 280.636,153.237 c 0.387,-0.316 0.88,-0.505 1.416,-0.505 l 0,5.032 -0.409,0 c -0.815,0 -1.481,-0.667 -1.481,-1.482 l 0,-1.796 c 0,-0.478 0.179,-0.916 0.474,-1.249" /><path
       inkscape:connector-curvature="0"
       id="path112"
       style="fill:#3c3754;fill-opacity:1;fill-rule:evenodd;stroke:none"
       d="m 288.82,156.955 c 0.634,0 1.148,-0.514 1.148,-1.148 0,-0.634 -0.514,-1.147 -1.148,-1.147 -0.633,0 -1.147,0.513 -1.147,1.147 0,0.634 0.514,1.148 1.147,1.148" /><path
       inkscape:connector-curvature="0"
       id="path114"
       style="fill:#3c3754;fill-opacity:1;fill-rule:evenodd;stroke:none"
       d="m 300.387,156.955 c 0.634,0 1.148,-0.514 1.148,-1.148 0,-0.634 -0.514,-1.147 -1.148,-1.147 -0.633,0 -1.147,0.513 -1.147,1.147 0,0.634 0.514,1.148 1.147,1.148" /><path
       inkscape:connector-curvature="0"
       id="path116"
       style="fill:#e7ae97;fill-opacity:1;fill-rule:evenodd;stroke:none"
       d="m 291.933,146.487 5.576,0 c 0.12,0 0.219,-0.098 0.219,-0.218 l 0,-0.001 c 0,-0.864 -0.708,-1.572 -1.572,-1.572 l -2.87,0 c -0.865,0 -1.572,0.708 -1.572,1.572 l 0,0.001 c 0,0.12 0.099,0.218 0.219,0.218" /><path
       inkscape:connector-curvature="0"
       id="path118"
       style="fill:#e7ae97;fill-opacity:1;fill-rule:evenodd;stroke:none"
       d="m 294.922,156.138 1.675,-3.981 c 0.111,-0.262 0.157,-0.954 0,-0.954 l -3.752,0 c -0.157,0 -0.111,0.692 0,0.954 l 1.675,3.981 c 0.11,0.262 0.291,0.262 0.402,0" /><path
       inkscape:connector-curvature="0"
       id="path120"
       style="fill:#f2999a;fill-opacity:1;fill-rule:evenodd;stroke:none"
       d="m 287.921,151.587 c 0.856,0 1.55,-0.693 1.55,-1.549 0,-0.855 -0.694,-1.549 -1.55,-1.549 -0.855,0 -1.548,0.694 -1.548,1.549 0,0.856 0.693,1.549 1.548,1.549" /><path
       inkscape:connector-curvature="0"
       id="path122"
       style="fill:#f2999a;fill-opacity:1;fill-rule:evenodd;stroke:none"
       d="m 301.52,151.587 c 0.856,0 1.55,-0.693 1.55,-1.549 0,-0.855 -0.694,-1.549 -1.55,-1.549 -0.856,0 -1.549,0.694 -1.549,1.549 0,0.856 0.693,1.549 1.549,1.549" /><path
       inkscape:connector-curvature="0"
       id="path124"
       style="fill:#e7ae97;fill-opacity:1;fill-rule:evenodd;stroke:none"
       d="m 308.806,153.237 c -0.387,-0.316 -0.881,-0.505 -1.416,-0.505 l 0,5.032 0.409,0 c 0.815,0 1.481,-0.667 1.481,-1.482 l 0,-1.796 c 0,-0.478 -0.179,-0.916 -0.474,-1.249" /><path
       inkscape:connector-curvature="0"
       id="path126"
       style="fill:#3c3754;fill-opacity:1;fill-rule:evenodd;stroke:none"
       d="m 282.052,155.809 c -0.766,0.535 -1.27,1.423 -1.27,2.423 l 0,10.177 c -0.059,4.555 5.476,8.248 8.248,8.248 2.772,0 1.937,-0.175 2.816,-0.494 0.888,0.319 1.845,0.494 2.842,0.494 0.998,0 1.954,-0.175 2.842,-0.494 0.878,0.319 0.044,0.494 2.816,0.494 2.772,0 8.247,-3.693 8.247,-8.248 l 0,-0.019 0,-10.158 c 0,-0.97 -0.475,-1.836 -1.203,-2.375 l 0,3.943 c 0,0.663 -0.542,1.205 -1.205,1.205 l -0.548,0 0,1.078 -0.011,-0.008 c -0.133,1.67 -1.541,2.995 -3.244,2.995 l -15.602,0 c -1.656,0 -3.011,-1.355 -3.012,-3.011 l -0.029,0.024 0,-1.078 -0.483,0 c -0.662,0 -1.204,-0.542 -1.204,-1.205 l 0,-3.991" /><path
       inkscape:connector-curvature="0"
       id="path128"
       style="fill:#0c2540;fill-opacity:1;fill-rule:evenodd;stroke:none"
       d="m 282.993,89.0262 -1.806,0 0,32.0158 c 0,0.496 0.406,0.903 0.902,0.903 l 0,0 c 0.498,0 0.904,-0.407 0.904,-0.903 l 0,-32.0158" /><path
       inkscape:connector-curvature="0"
       id="path130"
       style="fill:#435761;fill-opacity:1;fill-rule:evenodd;stroke:none"
       d="m 274.227,127.659 4.805,-3.658 -6.051,-7.805 c -1.018,-1.313 -2.931,-1.564 -4.253,-0.558 l -2.402,1.829 -13.32,9.435 2.732,4.013 14.382,-8.553 4.107,5.297" /><path
       inkscape:connector-curvature="0"
       id="path132"
       style="fill:#0c2540;fill-opacity:1;fill-rule:evenodd;stroke:none"
       d="m 278.044,122.582 -5.063,-6.386 c -0.755,-0.953 -1.97,-1.353 -3.092,-1.1 l 6.393,8.159 c 0.426,0.543 1.218,0.64 1.762,0.214 l 0,-0.887" /><path
       inkscape:connector-curvature="0"
       id="path134"
       style="fill:#e7ae97;fill-opacity:1;fill-rule:evenodd;stroke:none"
       d="m 252.65,133.017 3.088,-2.102 -2.548,-3.743 -3.403,2.317 c -0.316,0.215 -0.398,0.649 -0.183,0.965 l 1.553,2.28 c 0.332,0.489 1.004,0.616 1.493,0.283" /><path
       inkscape:connector-curvature="0"
       id="path138"
       style="fill:#fbc9a7;fill-opacity:1;fill-rule:evenodd;stroke:none"
       d="m 250.822,131.243 0.045,-0.03 c 0.266,-0.182 0.336,-0.548 0.154,-0.815 l -0.814,-1.196 -0.497,0.339 c -0.273,0.186 -0.344,0.562 -0.158,0.835 l 0.489,0.719 c 0.174,0.256 0.525,0.322 0.781,0.148" /><path
       inkscape:connector-curvature="0"
       id="path140"
       style="fill:#fbc9a7;fill-opacity:1;fill-rule:evenodd;stroke:none"
       d="m 251.816,130.567 0.045,-0.03 c 0.267,-0.182 0.336,-0.548 0.155,-0.815 l -0.814,-1.195 -0.995,0.676 0.829,1.216 c 0.174,0.256 0.525,0.322 0.78,0.148" /><path
       inkscape:connector-curvature="0"
       id="path142"
       style="fill:#fbc9a7;fill-opacity:1;fill-rule:evenodd;stroke:none"
       d="m 252.81,129.891 0.045,-0.031 c 0.267,-0.182 0.336,-0.548 0.155,-0.815 l -0.814,-1.195 -0.994,0.677 0.828,1.215 c 0.174,0.256 0.525,0.322 0.78,0.149" /><path
       inkscape:connector-curvature="0"
       id="path144"
       style="fill:#fbc9a7;fill-opacity:1;fill-rule:evenodd;stroke:none"
       d="m 253.804,129.213 0.045,-0.03 c 0.267,-0.181 0.336,-0.548 0.155,-0.814 l -0.814,-1.197 -0.994,0.678 0.828,1.216 c 0.174,0.255 0.525,0.322 0.78,0.147" /><path
       inkscape:connector-curvature="0"
       id="path146"
       style="fill:#fbc9a7;fill-opacity:1;fill-rule:evenodd;stroke:none"
       d="m 252.221,133.298 0.502,-0.341 c 0.015,-0.011 0.019,-0.031 0.009,-0.046 l -1.126,-1.653 -0.497,0.338 c -0.273,0.186 -0.344,0.562 -0.159,0.835 l 0.491,0.719 c 0.173,0.256 0.524,0.323 0.78,0.148" /><path
       inkscape:connector-curvature="0"
       id="path148"
       style="fill:#435761;fill-opacity:1;fill-rule:evenodd;stroke:none"
       d="m 236.042,35.0668 3.61914,0 0,69.323 -3.61914,0 0,-69.323 z" /><path
       inkscape:connector-curvature="0"
       id="path150"
       style="fill:#435761;fill-opacity:1;fill-rule:evenodd;stroke:none"
       d="m 221.817,41.9391 32.07,0 c 1.89,0 3.436,-1.5465 3.436,-3.4364 l 0,-3.4363 -38.943,0 0,3.4363 c 0,1.8899 1.547,3.4364 3.437,3.4364" /><path
       inkscape:connector-curvature="0"
       id="path152"
       style="fill:#0c2540;fill-opacity:1;fill-rule:evenodd;stroke:none"
       d="m 227.109,38.5027 21.486,0 c 0.945,0 1.718,-0.773 1.718,-1.7175 l 0,-1.7184 -24.922,0 0,1.7184 c 0,0.9445 0.772,1.7175 1.718,1.7175" /><path
       inkscape:connector-curvature="0"
       id="path276"
       style="fill:#cfd8dc;fill-opacity:1;fill-rule:evenodd;stroke:none"
       d="m 315.091,214.578 c -5.299,5.299 -13.89,5.299 -19.189,0 -5.299,-5.299 -5.299,-13.89 0,-19.189 5.299,-5.299 13.89,-5.299 19.189,0 5.298,5.299 5.298,13.89 0,19.189 z m -17.535,-8.128 c -0.773,0.006 -1.406,-0.616 -1.412,-1.389 -0.007,-0.774 0.615,-1.407 1.389,-1.413 l 7.952,-0.066 0.592,-0.005 0.413,0.413 6.506,6.506 c 0.548,0.548 0.548,1.438 0,1.986 -0.549,0.549 -1.438,0.549 -1.987,0 l -6.094,-6.093 -7.359,0.061" /><path
       inkscape:connector-curvature="0"
       id="path292"
       style="fill:#cfd8dc;fill-opacity:1;fill-rule:evenodd;stroke:none"
       d="m 184.836,211.623 32.7285,0 0,4.125 -32.7285,0 0,-4.125 z" /><path
       inkscape:connector-curvature="0"
       id="path294"
       style="fill:#cfd8dc;fill-opacity:1;fill-rule:evenodd;stroke:none"
       d="m 184.836,204.78 54,0 0,4.125 -54,0 0,-4.125 z" /><path
       inkscape:connector-curvature="0"
       id="path296"
       style="fill:#cfd8dc;fill-opacity:1;fill-rule:evenodd;stroke:none"
       d="m 199.565,197.937 39.2715,0 0,4.125 -39.2715,0 0,-4.125 z" /><g
       id="g5451"
       transform="matrix(0.45546798,0,0,0.45546798,217.3575,-56.907976)"><text
         transform="scale(1,-1)"
         xml:space="preserve"
         style="font-style:normal;font-variant:normal;font-weight:normal;font-stretch:normal;font-size:54.75181198px;line-height:100%;font-family:'Roboto Slab';-inkscape-font-specification:'Roboto Slab, Normal';text-align:start;letter-spacing:0px;word-spacing:0px;writing-mode:lr-tb;text-anchor:start;fill:#607d8b;fill-opacity:1;stroke:none;stroke-width:1px;stroke-linecap:butt;stroke-linejoin:miter;stroke-opacity:1"
         x="-48.868217"
         y="-447.44479"
         id="text4136"
         sodipodi:linespacing="100%"><tspan
           sodipodi:role="line"
           id="tspan4138"
           x="-48.868217"
           y="-447.44479">simpl</tspan></text>
<circle
         transform="scale(1,-1)"
         r="4.9977207"
         cy="-486.72919"
         cx="-14.251306"
         id="path4567-7"
         style="color:#000000;display:inline;overflow:visible;visibility:visible;fill:#ff5252;fill-opacity:1;stroke:#ff5252;stroke-width:1.49931622px;stroke-linecap:butt;stroke-linejoin:miter;stroke-miterlimit:4;stroke-dasharray:none;stroke-dashoffset:0;stroke-opacity:1;marker:none;enable-background:accumulate" /><circle
         transform="scale(1,-1)"
         r="4.9977207"
         cy="-486.73166"
         cx="-38.921165"
         id="path4567-7-3"
         style="color:#000000;display:inline;overflow:visible;visibility:visible;fill:#ff5252;fill-opacity:1;stroke:#ff5252;stroke-width:1.49931622px;stroke-linecap:butt;stroke-linejoin:miter;stroke-miterlimit:4;stroke-dasharray:none;stroke-dashoffset:0;stroke-opacity:1;marker:none;enable-background:accumulate" /><circle
         transform="scale(1,-1)"
         r="4.9977207"
         cy="-510.00195"
         cx="-38.666847"
         id="path4567-7-7"
         style="color:#000000;display:inline;overflow:visible;visibility:visible;fill:#ff5252;fill-opacity:1;stroke:#ff5252;stroke-width:1.49931622px;stroke-linecap:butt;stroke-linejoin:miter;stroke-miterlimit:4;stroke-dasharray:none;stroke-dashoffset:0;stroke-opacity:1;marker:none;enable-background:accumulate" /><circle
         transform="scale(1,-1)"
         r="4.9977207"
         cy="-509.49332"
         cx="-13.997781"
         id="path4567-7-9"
         style="color:#000000;display:inline;overflow:visible;visibility:visible;fill:#ff5252;fill-opacity:1;stroke:#ff5252;stroke-width:1.49931622px;stroke-linecap:butt;stroke-linejoin:miter;stroke-miterlimit:4;stroke-dasharray:none;stroke-dashoffset:0;stroke-opacity:1;marker:none;enable-background:accumulate" /></g><path
       inkscape:connector-curvature="0"
       id="path136"
       style="fill:#ff6666;fill-opacity:1;fill-rule:evenodd;stroke:none"
       d="m 235.32649,156.099 -1.24049,-0.8293 18.82138,-27.1667 1.23962,0.8293 -18.82051,27.1667" /></g></svg>