<?xml version="1.0" encoding="UTF-8" standalone="no"?>
<!-- Created with Inkscape (http://www.inkscape.org/) -->

<svg
   xmlns:dc="http://purl.org/dc/elements/1.1/"
   xmlns:cc="http://creativecommons.org/ns#"
   xmlns:rdf="http://www.w3.org/1999/02/22-rdf-syntax-ns#"
   xmlns:svg="http://www.w3.org/2000/svg"
   xmlns="http://www.w3.org/2000/svg"
   xmlns:sodipodi="http://sodipodi.sourceforge.net/DTD/sodipodi-0.dtd"
   xmlns:inkscape="http://www.inkscape.org/namespaces/inkscape"
   version="1.1"
   id="svg2"
   inkscape:version="0.91+devel r"
   xml:space="preserve"
   width="405.93332"
   height="405.92133"
   viewBox="0 0 405.93331 405.92131"
   sodipodi:docname="data.svg"><metadata
     id="metadata8"><rdf:RDF><cc:Work
         rdf:about=""><dc:format>image/svg+xml</dc:format><dc:type
           rdf:resource="http://purl.org/dc/dcmitype/StillImage" /><dc:title></dc:title></cc:Work></rdf:RDF></metadata><defs
     id="defs6" /><sodipodi:namedview
     pagecolor="#ffffff"
     bordercolor="#666666"
     borderopacity="1"
     objecttolerance="10"
     gridtolerance="10"
     guidetolerance="10"
     inkscape:pageopacity="0"
     inkscape:pageshadow="2"
     inkscape:window-width="1598"
     inkscape:window-height="1094"
     inkscape:document-units="px"
     id="namedview4"
     showgrid="false"
     fit-margin-top="0"
     fit-margin-left="0"
     fit-margin-right="0"
     fit-margin-bottom="0"
     inkscape:zoom="1.1159468"
     inkscape:cx="202.96666"
     inkscape:cy="202.96062"
     inkscape:window-x="1398"
     inkscape:window-y="389"
     inkscape:window-maximized="0"
     inkscape:current-layer="g10" /><g
     id="g10"
     inkscape:groupmode="layer"
     inkscape:label="ink_ext_XXXXXX"
     transform="matrix(1.3333333,0,0,-1.3333333,-1418.8133,1142.9106)"><g
       id="g5027"><path
         d="m 1368.56,704.962 c 0,-84.069 -68.16,-152.22 -152.23,-152.22 -84.06,0 -152.22,68.151 -152.22,152.22 0,84.069 68.16,152.221 152.22,152.221 84.07,0 152.23,-68.152 152.23,-152.221"
         style="fill:#607d8b;fill-opacity:1;fill-rule:nonzero;stroke:none;stroke-width:0.1"
         id="path22"
         inkscape:connector-curvature="0" /><path
         d="m 1368.56,704.962 c 0,2.752 -0.08,5.486 -0.23,8.202 -0.32,0.325 -0.66,0.648 -1.01,0.968 -0.64,0.71 -1.35,1.41 -2.1,2.098 -0.64,0.71 -1.34,1.41 -2.1,2.099 -0.64,0.71 -1.34,1.409 -2.09,2.098 -0.65,0.71 -1.35,1.409 -2.1,2.099 -0.65,0.709 -1.35,1.409 -2.1,2.098 -0.64,0.71 -1.35,1.409 -2.1,2.098 -0.64,0.71 -1.35,1.41 -2.1,2.099 -0.64,0.71 -1.34,1.409 -2.1,2.098 -0.64,0.71 -1.34,1.409 -2.1,2.099 -0.64,0.71 -1.34,1.409 -2.09,2.098 -0.65,0.71 -1.35,1.409 -2.1,2.098 -0.65,0.71 -1.35,1.41 -2.1,2.098 -0.64,0.71 -1.35,1.41 -2.1,2.099 -0.64,0.71 -1.34,1.409 -2.1,2.098 -0.64,0.71 -1.34,1.409 -2.1,2.099 -0.64,0.709 -1.34,1.409 -2.09,2.098 -0.65,0.71 -1.35,1.409 -2.1,2.098 -0.65,0.71 -1.35,1.409 -2.1,2.098 -0.64,0.71 -1.35,1.41 -2.1,2.099 -0.64,0.71 -1.34,1.409 -2.1,2.098 -0.64,0.71 -1.34,1.41 -2.1,2.099 -0.64,0.71 -1.34,1.409 -2.09,2.098 -0.65,0.71 -1.35,1.409 -2.1,2.098 -0.65,0.71 -1.35,1.41 -2.1,2.099 -0.64,0.71 -1.35,1.409 -2.1,2.098 -0.64,0.71 -1.34,1.409 -2.1,2.098 -0.64,0.71 -1.34,1.41 -2.1,2.099 -0.64,0.71 -1.34,1.409 -2.09,2.098 -0.65,0.71 -1.35,1.409 -2.1,2.098 -0.65,0.71 -1.35,1.41 -2.1,2.099 -0.64,0.71 -1.35,1.409 -2.1,2.098 -0.64,0.71 -1.34,1.41 -2.1,2.099 -0.64,0.71 -1.34,1.409 -2.1,2.098 -0.64,0.71 -1.34,1.409 -2.09,2.098 -12.06,13.31 -43.82,23.095 -79.97,23.095 -46.14,0 -85.12,-15.94 -85.12,-34.807 0,-4.75 2.57,-9.508 7.39,-13.917 0.65,-0.707 1.35,-1.407 2.1,-2.099 0.65,-0.707 1.35,-1.407 2.1,-2.098 0.65,-0.707 1.34,-1.407 2.1,-2.098 0.64,-0.708 1.34,-1.407 2.1,-2.099 0.64,-0.707 1.34,-1.407 2.1,-2.098 0.64,-0.707 1.34,-1.407 2.1,-2.099 0.36,-0.406 0.75,-0.809 1.16,-1.21 -2.02,0.896 -3.97,1.83 -5.8,2.819 -1.67,0.9 -3.24,1.829 -4.7,2.78 -0.5,0.32 -0.92,0.657 -1.39,0.982 -0.93,0.643 -1.86,1.283 -2.7,1.945 -0.04,0.031 -0.07,0.063 -0.11,0.095 -0.05,0.06 -0.11,0.119 -0.16,0.181 v -0.047 c -0.37,0.317 -0.73,0.639 -1.09,0.959 -0.26,0.287 -0.5,0.574 -0.73,0.866 -0.08,0.108 -0.19,0.211 -0.28,0.32 v -0.313 c -0.07,0.082 -0.14,0.165 -0.21,0.247 -0.56,0.611 -1.12,1.22 -1.61,1.845 -0.08,0.108 -0.19,0.211 -0.27,0.319 v -0.313 c -0.08,0.083 -0.15,0.165 -0.22,0.248 -0.56,0.611 -1.12,1.219 -1.6,1.844 -0.09,0.108 -0.2,0.211 -0.28,0.32 v -33.185 c 0,-4.75 2.57,-9.508 7.39,-13.916 0.65,-0.708 1.35,-1.408 2.1,-2.099 0.65,-0.707 1.35,-1.407 2.1,-2.099 0.65,-0.707 1.34,-1.407 2.1,-2.098 0.64,-0.707 1.34,-1.407 2.1,-2.098 0.64,-0.707 1.34,-1.407 2.1,-2.098 0.64,-0.708 1.34,-1.407 2.1,-2.099 0.36,-0.406 0.75,-0.809 1.16,-1.211 -2.02,0.897 -3.97,1.831 -5.8,2.819 -1.67,0.901 -3.24,1.83 -4.7,2.781 -0.5,0.32 -0.92,0.657 -1.39,0.982 -0.93,0.643 -1.86,1.283 -2.7,1.945 -0.04,0.031 -0.07,0.063 -0.11,0.094 -0.05,0.06 -0.11,0.12 -0.16,0.181 v -0.047 c -0.37,0.318 -0.73,0.64 -1.09,0.96 -0.26,0.286 -0.5,0.574 -0.73,0.866 -0.08,0.108 -0.19,0.211 -0.28,0.32 v -0.314 c -0.07,0.083 -0.14,0.165 -0.21,0.248 -0.56,0.611 -1.12,1.22 -1.61,1.844 -0.08,0.108 -0.19,0.211 -0.27,0.32 v -0.313 c -0.08,0.082 -0.15,0.165 -0.22,0.247 -0.56,0.611 -1.12,1.22 -1.6,1.845 -0.09,0.107 -0.2,0.211 -0.28,0.319 v -33.184 c 0,-4.75 2.57,-9.508 7.39,-13.917 0.65,-0.707 1.35,-1.407 2.1,-2.099 0.65,-0.707 1.35,-1.407 2.1,-2.098 0.65,-0.707 1.34,-1.407 2.1,-2.098 0.64,-0.708 1.34,-1.407 2.1,-2.099 0.64,-0.707 1.34,-1.406 2.1,-2.098 0.64,-0.707 1.34,-1.407 2.1,-2.098 0.36,-0.406 0.75,-0.81 1.16,-1.211 -2.02,0.896 -3.97,1.83 -5.8,2.819 -1.67,0.901 -3.24,1.829 -4.7,2.78 -0.5,0.32 -0.92,0.657 -1.39,0.983 -0.93,0.642 -1.86,1.282 -2.7,1.944 -0.04,0.031 -0.07,0.063 -0.11,0.095 -0.05,0.06 -0.11,0.119 -0.16,0.181 v -0.047 c -0.37,0.318 -0.73,0.64 -1.09,0.959 -0.26,0.287 -0.5,0.575 -0.73,0.866 -0.08,0.108 -0.19,0.212 -0.28,0.32 v -0.313 c -0.07,0.082 -0.14,0.165 -0.21,0.247 -0.56,0.611 -1.12,1.22 -1.61,1.845 -0.08,0.108 -0.19,0.211 -0.27,0.32 v -0.314 c -0.08,0.083 -0.15,0.165 -0.22,0.248 -0.56,0.611 -1.12,1.22 -1.6,1.844 -0.09,0.108 -0.2,0.211 -0.28,0.32 v -33.184 c 0,-4.874 2.61,-9.552 7.26,-13.811 0.64,-0.71 1.35,-1.41 2.1,-2.099 0.64,-0.709 1.34,-1.409 2.1,-2.098 0.64,-0.71 1.34,-1.409 2.1,-2.098 0.64,-0.71 1.34,-1.409 2.09,-2.098 0.65,-0.71 1.35,-1.41 2.1,-2.099 0.65,-0.71 1.35,-1.409 2.1,-2.098 0.64,-0.71 1.35,-1.409 2.1,-2.099 0.64,-0.71 1.34,-1.409 2.1,-2.098 0.64,-0.71 1.34,-1.409 2.1,-2.098 0.64,-0.71 1.34,-1.41 2.09,-2.099 0.65,-0.71 1.35,-1.409 2.1,-2.098 0.65,-0.71 1.35,-1.41 2.1,-2.099 0.64,-0.71 1.35,-1.409 2.1,-2.098 0.64,-0.71 1.34,-1.409 2.1,-2.098 0.64,-0.71 1.34,-1.41 2.1,-2.098 0.64,-0.71 1.34,-1.41 2.09,-2.099 0.65,-0.71 1.35,-1.409 2.1,-2.098 0.65,-0.71 1.35,-1.409 2.1,-2.099 0.64,-0.709 1.35,-1.409 2.1,-2.098 0.64,-0.71 1.34,-1.409 2.1,-2.098 0.64,-0.71 1.34,-1.41 2.1,-2.099 0.64,-0.71 1.34,-1.409 2.09,-2.098 0.65,-0.71 1.35,-1.409 2.1,-2.099 0.65,-0.71 1.35,-1.409 2.1,-2.098 0.64,-0.71 1.35,-1.409 2.1,-2.098 0.64,-0.71 1.34,-1.41 2.1,-2.099 0.64,-0.709 1.34,-1.409 2.1,-2.098 0.64,-0.71 1.34,-1.409 2.09,-2.098 0.65,-0.71 1.35,-1.409 2.1,-2.099 0.65,-0.709 1.35,-1.409 2.1,-2.098 0.64,-0.71 1.35,-1.409 2.1,-2.098 0.64,-0.71 1.34,-1.409 2.1,-2.098 0.64,-0.71 1.34,-1.41 2.1,-2.099 0.09,-0.101 0.19,-0.199 0.28,-0.3 2.87,-0.16 5.75,-0.249 8.65,-0.249 84.07,0 152.23,68.151 152.23,152.22"
         style="fill:#607d8b;fill-opacity:1;fill-rule:nonzero;stroke:none;stroke-width:0.1"
         id="path32"
         inkscape:connector-curvature="0" /><path
         d="m 1299.26,667.365 c -0.4,-0.447 -0.78,-0.898 -1.22,-1.337 -0.64,-0.64 -1.38,-1.262 -2.1,-1.886 -0.46,-0.391 -0.87,-0.79 -1.35,-1.173 -0.87,-0.686 -1.83,-1.35 -2.8,-2.013 -0.44,-0.305 -0.83,-0.619 -1.29,-0.918 -1.47,-0.952 -3.03,-1.883 -4.71,-2.784 -17.02,-9.181 -42.46,-14.448 -69.78,-14.448 -27.31,0 -52.74,5.267 -69.77,14.448 -1.67,0.901 -3.24,1.829 -4.7,2.78 -0.5,0.32 -0.92,0.657 -1.39,0.983 -0.93,0.642 -1.86,1.282 -2.7,1.944 -0.5,0.4 -0.93,0.815 -1.4,1.221 -0.71,0.61 -1.43,1.218 -2.06,1.843 -0.44,0.44 -0.82,0.894 -1.22,1.343 -0.56,0.611 -1.12,1.22 -1.6,1.844 -0.09,0.108 -0.2,0.211 -0.28,0.32 v -33.184 c 0,-18.867 38.98,-34.807 85.12,-34.807 46.15,0 85.13,15.94 85.13,34.807 v 33.181 c -0.08,-0.109 -0.2,-0.214 -0.28,-0.323 -0.48,-0.623 -1.05,-1.231 -1.6,-1.841"
         style="fill:#ffffff;fill-opacity:1;fill-rule:nonzero;stroke:none;stroke-width:0.1"
         id="path98"
         inkscape:connector-curvature="0" /><path
         d="m 1216.01,746.145 c -34.24,0 -63.18,11.087 -63.18,24.214 0,12.872 18.95,18.941 19.76,19.192 1.18,0.387 2.46,-0.29 2.84,-1.487 0.37,-1.197 -0.29,-2.471 -1.49,-2.846 -0.16,-0.051 -16.57,-5.318 -16.57,-14.859 0,-9.098 25.62,-19.674 58.64,-19.674 1.26,0 2.27,-1.016 2.27,-2.27 0,-1.253 -1.01,-2.27 -2.27,-2.27 z m 0,62.426 c -46.14,0 -85.12,-15.94 -85.12,-34.807 0,-7.398 6.21,-14.82 17.5,-20.903 16.39,-8.835 41.04,-13.904 67.62,-13.904 26.59,0 51.24,5.069 67.63,13.904 11.28,6.083 17.5,13.508 17.5,20.903 0,18.867 -38.98,34.807 -85.13,34.807"
         style="fill:#ffffff;fill-opacity:1;fill-rule:nonzero;stroke:none;stroke-width:0.1"
         id="path100"
         inkscape:connector-curvature="0" /><path
         d="m 1299.26,758.976 c -0.4,-0.447 -0.78,-0.898 -1.22,-1.337 -0.64,-0.64 -1.38,-1.262 -2.1,-1.886 -0.46,-0.391 -0.87,-0.79 -1.35,-1.173 -0.87,-0.686 -1.83,-1.35 -2.8,-2.013 -0.44,-0.305 -0.83,-0.619 -1.29,-0.918 -1.47,-0.952 -3.03,-1.883 -4.71,-2.784 -17.02,-9.181 -42.46,-14.448 -69.78,-14.448 -27.31,0 -52.74,5.267 -69.77,14.448 -1.67,0.9 -3.24,1.829 -4.7,2.78 -0.5,0.32 -0.92,0.657 -1.39,0.982 -0.93,0.643 -1.86,1.283 -2.7,1.945 -0.5,0.4 -0.93,0.814 -1.4,1.221 -0.71,0.61 -1.43,1.218 -2.06,1.843 -0.44,0.44 -0.82,0.894 -1.22,1.343 -0.56,0.611 -1.12,1.219 -1.6,1.844 -0.09,0.108 -0.2,0.211 -0.28,0.32 v -33.185 c 0,-7.398 6.21,-14.82 17.5,-20.903 16.39,-8.834 41.04,-13.903 67.62,-13.903 26.59,0 51.24,5.069 67.63,13.903 11.28,6.083 17.5,13.508 17.5,20.903 v 33.182 c -0.08,-0.109 -0.2,-0.214 -0.28,-0.323 -0.48,-0.623 -1.05,-1.231 -1.6,-1.841"
         style="fill:#ffffff;fill-opacity:1;fill-rule:nonzero;stroke:none;stroke-width:0.1"
         id="path102"
         inkscape:connector-curvature="0" /><path
         d="m 1299.23,713.133 c -0.4,-0.432 -0.75,-0.869 -1.18,-1.294 -0.66,-0.649 -1.4,-1.281 -2.14,-1.914 -0.45,-0.382 -0.85,-0.773 -1.32,-1.149 -0.87,-0.692 -1.85,-1.36 -2.82,-2.029 -0.43,-0.299 -0.82,-0.608 -1.27,-0.902 -1.47,-0.953 -3.03,-1.884 -4.71,-2.786 -17.02,-9.18 -42.46,-14.447 -69.78,-14.447 -27.31,0 -52.74,5.267 -69.77,14.447 -1.67,0.901 -3.24,1.83 -4.7,2.781 -0.5,0.32 -0.92,0.657 -1.39,0.982 -0.93,0.643 -1.86,1.283 -2.7,1.945 -0.5,0.4 -0.93,0.814 -1.4,1.221 -0.71,0.61 -1.43,1.217 -2.06,1.843 -0.44,0.44 -0.82,0.894 -1.22,1.342 -0.56,0.611 -1.12,1.22 -1.6,1.845 -0.09,0.107 -0.2,0.211 -0.28,0.319 v -33.184 c 0,-7.398 6.21,-14.82 17.5,-20.903 16.39,-8.835 41.04,-13.904 67.62,-13.904 26.59,0 51.24,5.069 67.63,13.904 11.28,6.083 17.5,13.508 17.5,20.903 v 33.184 c -0.08,-0.106 -0.19,-0.206 -0.27,-0.311 -0.5,-0.642 -1.07,-1.267 -1.64,-1.893"
         style="fill:#ffffff;fill-opacity:1;fill-rule:nonzero;stroke:none;stroke-width:0.1"
         id="path104"
         inkscape:connector-curvature="0" /></g></g></svg>