<?xml version="1.0" encoding="UTF-8" standalone="no"?>
<!-- Created with Inkscape (http://www.inkscape.org/) -->

<svg
   xmlns:dc="http://purl.org/dc/elements/1.1/"
   xmlns:cc="http://creativecommons.org/ns#"
   xmlns:rdf="http://www.w3.org/1999/02/22-rdf-syntax-ns#"
   xmlns:svg="http://www.w3.org/2000/svg"
   xmlns="http://www.w3.org/2000/svg"
   xmlns:sodipodi="http://sodipodi.sourceforge.net/DTD/sodipodi-0.dtd"
   xmlns:inkscape="http://www.inkscape.org/namespaces/inkscape"
   version="1.1"
   id="svg2"
   inkscape:version="0.91+devel r"
   xml:space="preserve"
   width="405.92398"
   height="405.92133"
   viewBox="0 0 405.92397 405.92131"
   sodipodi:docname="inst.svg"><metadata
     id="metadata8"><rdf:RDF><cc:Work
         rdf:about=""><dc:format>image/svg+xml</dc:format><dc:type
           rdf:resource="http://purl.org/dc/dcmitype/StillImage" /><dc:title></dc:title></cc:Work></rdf:RDF></metadata><defs
     id="defs6" /><sodipodi:namedview
     pagecolor="#ffffff"
     bordercolor="#666666"
     borderopacity="1"
     objecttolerance="10"
     gridtolerance="10"
     guidetolerance="10"
     inkscape:pageopacity="0"
     inkscape:pageshadow="2"
     inkscape:window-width="2946"
     inkscape:window-height="1733"
     inkscape:document-units="px"
     id="namedview4"
     showgrid="false"
     fit-margin-top="0"
     fit-margin-left="0"
     fit-margin-right="0"
     fit-margin-bottom="0"
     inkscape:zoom="0.18061223"
     inkscape:cx="-33.169268"
     inkscape:cy="447.01066"
     inkscape:window-x="0"
     inkscape:window-y="0"
     inkscape:window-maximized="0"
     inkscape:current-layer="g10" /><g
     id="g10"
     inkscape:groupmode="layer"
     inkscape:label="ink_ext_XXXXXX"
     transform="matrix(1.3333333,0,0,-1.3333333,-966.50264,612.24398)"><path
       inkscape:connector-curvature="0"
       id="path28"
       style="fill:#607d8b;fill-opacity:1;fill-rule:nonzero;stroke:none;stroke-width:0.1"
       d="m 1029.32,306.962 c 0,-84.069 -68.153,-152.22 -152.223,-152.22 -84.069,0 -152.22,68.151 -152.22,152.22 0,84.069 68.151,152.221 152.22,152.221 84.07,0 152.223,-68.152 152.223,-152.221" /><path
       inkscape:connector-curvature="0"
       id="path38"
       style="fill:#607d8b;fill-opacity:1;fill-rule:nonzero;stroke:none;stroke-width:0.1"
       d="m 877.097,154.742 c 84.069,0 152.223,68.151 152.223,152.22 0,2.012 -0.05,4.012 -0.13,6.005 l -0.52,1.663 h -1.44 l -0.66,2.099 h -1.44 l -0.66,2.098 h -1.44 l -0.65,2.098 h -1.45 l -0.65,2.099 h -1.45 l -0.65,2.098 h -1.44 l -0.66,2.098 h -1.44 l -0.66,2.099 h -1.44 l -0.66,2.098 h -1.44 l -0.65,2.098 h -1.45 l -0.65,2.099 h -1.45 l -0.65,2.098 h -1.44 l -0.66,2.099 h -1.44 l -0.66,2.098 h -1.442 l -0.655,2.098 h -1.443 l -0.655,2.098 h -1.443 l -0.655,2.099 h -1.444 l -0.655,2.098 h -1.443 l -0.655,2.099 h -1.444 l -0.655,2.098 h -1.443 l -0.655,2.098 h -1.443 l -0.655,2.099 h -1.444 l -0.655,2.098 h -1.443 l -0.655,2.099 h -1.443 l -0.656,2.098 h -1.443 l -0.655,2.098 h -1.443 l -0.655,2.098 h -1.443 l -0.655,2.099 h -1.444 l -0.655,2.098 h -1.443 l -0.655,2.099 h -1.443 l -0.656,2.098 h -1.443 l -0.655,2.098 h -1.443 l -0.655,2.099 h -1.444 l -0.655,2.098 h -1.443 l -0.655,2.098 h -1.443 l -0.656,2.099 h -1.442 l -0.656,2.098 h -1.443 l -0.655,2.099 h -1.443 l -0.656,2.098 h -1.443 l -0.655,2.098 h -1.443 l -0.655,2.098 h -1.443 l -0.656,2.099 h -1.443 l -0.655,2.098 h -1.443 l -0.655,2.099 h -1.444 l -0.655,2.098 h -1.443 l -0.655,2.098 h -1.443 l -0.655,2.099 H 819.475 L 782.014,288.068 h 2.737 l -0.639,-2.098 h 2.737 l -0.639,-2.099 h 2.737 l -0.104,-0.343 h -7.624 v -65.58 h 2.098 v -2.098 h 2.098 v -2.098 h 2.099 v -2.099 h 2.098 v -2.098 h 2.098 v -2.098 h 2.099 v -2.099 h 2.098 v -2.098 h 2.098 v -2.098 h 2.099 v -2.099 h 2.098 v -2.098 h 2.099 v -2.098 h 2.098 v -2.099 h 2.098 v -2.098 h 2.099 v -2.098 h 2.098 v -2.099 h 2.098 v -2.098 h 2.099 v -2.099 h 2.098 v -2.098 h 2.098 v -2.098 h 2.099 v -2.099 h 2.098 v -2.098 h 2.098 v -2.098 h 2.099 v -2.099 h 2.098 v -2.098 h 2.099 v -2.098 h 2.098 v -2.099 h 2.098 v -2.098 h 2.099 v -1.983 c 0.157,-0.039 0.316,-0.077 0.473,-0.116 h 1.625 v -0.396 c 11.247,-2.649 22.971,-4.056 35.026,-4.056" /><path
       inkscape:connector-curvature="0"
       id="path122"
       style="fill:#ffffff;fill-opacity:1;fill-rule:nonzero;stroke:none;stroke-width:0.1"
       d="m 845.382,332.579 c 0.352,0.845 1.177,1.395 2.093,1.395 h 14.959 v 57.758 c 0,1.254 1.017,2.27 2.27,2.27 h 23.206 c 1.253,0 2.27,-1.016 2.27,-2.27 v -57.758 h 14.959 c 0.916,0 1.741,-0.55 2.093,-1.392 0.354,-0.845 0.165,-1.821 -0.476,-2.471 l -28.831,-29.259 c -0.425,-0.435 -1.008,-0.677 -1.617,-0.677 -0.608,0 -1.191,0.242 -1.616,0.677 l -28.834,29.259 c -0.641,0.65 -0.831,1.626 -0.476,2.468 z m -3.629,-46.781 c 0,-17.663 14.367,-32.032 32.031,-32.032 17.664,0 32.035,14.369 32.035,32.032 0,1.253 1.017,2.27 2.27,2.27 h 62.49 L 932.146,411.155 H 819.475 L 782.014,288.068 h 57.469 c 1.253,0 2.27,-1.017 2.27,-2.27" /><path
       inkscape:connector-curvature="0"
       id="path124"
       style="fill:#ffffff;fill-opacity:1;fill-rule:nonzero;stroke:none;stroke-width:0.1"
       d="M 899.715,329.434 H 887.91 c -1.253,0 -2.27,1.017 -2.27,2.27 v 57.758 h -18.666 v -57.758 c 0,-1.253 -1.017,-2.27 -2.27,-2.27 h -11.805 l 23.409,-23.756 23.407,23.756" /><path
       inkscape:connector-curvature="0"
       id="path126"
       style="fill:#ffffff;fill-opacity:1;fill-rule:nonzero;stroke:none;stroke-width:0.1"
       d="m 873.784,249.226 c -19.404,0 -35.327,15.19 -36.5,34.302 h -56.065 v -65.58 h 190.176 v 65.58 h -61.107 c -1.174,-19.112 -17.099,-34.302 -36.504,-34.302" /></g></svg>