<?xml version="1.0" encoding="UTF-8" standalone="no"?>
<!-- Created with Inkscape (http://www.inkscape.org/) -->

<svg
   xmlns:dc="http://purl.org/dc/elements/1.1/"
   xmlns:cc="http://creativecommons.org/ns#"
   xmlns:rdf="http://www.w3.org/1999/02/22-rdf-syntax-ns#"
   xmlns:svg="http://www.w3.org/2000/svg"
   xmlns="http://www.w3.org/2000/svg"
   xmlns:sodipodi="http://sodipodi.sourceforge.net/DTD/sodipodi-0.dtd"
   xmlns:inkscape="http://www.inkscape.org/namespaces/inkscape"
   version="1.1"
   id="svg2"
   inkscape:version="0.91+devel r"
   xml:space="preserve"
   width="405.9212"
   height="405.92133"
   viewBox="0 0 405.92119 405.92131"
   sodipodi:docname="rpc.svg"><metadata
     id="metadata8"><rdf:RDF><cc:Work
         rdf:about=""><dc:format>image/svg+xml</dc:format><dc:type
           rdf:resource="http://purl.org/dc/dcmitype/StillImage" /><dc:title></dc:title></cc:Work></rdf:RDF></metadata><defs
     id="defs6" /><sodipodi:namedview
     pagecolor="#ffffff"
     bordercolor="#666666"
     borderopacity="1"
     objecttolerance="10"
     gridtolerance="10"
     guidetolerance="10"
     inkscape:pageopacity="0"
     inkscape:pageshadow="2"
     inkscape:window-width="1598"
     inkscape:window-height="1094"
     inkscape:document-units="px"
     id="namedview4"
     showgrid="false"
     fit-margin-top="0"
     fit-margin-left="0"
     fit-margin-right="0"
     fit-margin-bottom="0"
     inkscape:zoom="0.25542427"
     inkscape:cx="125.38909"
     inkscape:cy="447.01058"
     inkscape:window-x="1398"
     inkscape:window-y="389"
     inkscape:window-maximized="0"
     inkscape:current-layer="g10" /><g
     id="g10"
     inkscape:groupmode="layer"
     inkscape:label="ink_ext_XXXXXX"
     transform="matrix(1.3333333,0,0,-1.3333333,-61.870798,612.24398)"><g
       id="g4468"><path
         d="m 350.844,306.962 c 0,-84.069 -68.151,-152.22 -152.22,-152.22 -84.07,0 -152.2209,68.151 -152.2209,152.22 0,84.069 68.1509,152.221 152.2209,152.221 84.069,0 152.22,-68.152 152.22,-152.221"
         style="fill:#607d8b;fill-opacity:1;fill-rule:nonzero;stroke:none;stroke-width:0.1"
         id="path24"
         inkscape:connector-curvature="0" /><path
         d="m 350.844,306.962 c 0,8.067 -0.633,15.985 -1.841,23.713 h -0.316 l -0.365,2.098 h -1.733 l -0.365,2.098 h -1.733 l -0.366,2.098 h -1.733 l -0.365,2.099 h -1.733 l -0.365,2.098 h -1.733 l -0.366,2.099 h -1.733 l -0.365,2.098 h -1.733 l -0.365,2.098 H 331.9 l -0.365,2.099 h -1.733 l -0.365,2.098 h -1.733 l -0.365,2.098 h -1.734 l -0.365,2.099 h -1.733 l -0.365,2.098 h -1.733 l -0.366,2.099 h -1.733 l -0.365,2.098 h -1.733 l -0.365,2.098 h -1.733 l -0.366,2.099 h -1.733 l -0.365,2.098 h -1.733 l -0.365,2.098 h -1.734 l -0.365,2.099 h -1.733 l -0.365,2.098 h -1.733 l -0.365,2.098 h -1.734 l -0.365,2.099 h -1.733 l -0.365,2.098 h -1.733 l -0.366,2.099 h -1.733 l -0.365,2.098 h -1.733 l -0.365,2.098 h -1.733 l -0.366,2.099 h -1.733 l -0.365,2.098 h -1.733 l -0.365,2.098 h -1.733 l -0.366,2.099 h -1.733 l -0.365,2.098 h -1.733 l -0.365,2.098 h -1.734 l -0.365,2.099 h -1.733 l -0.365,2.098 h -1.733 l -0.366,2.098 h -1.733 l -0.365,2.099 h -1.733 l -0.365,2.098 h -1.733 l -0.366,2.098 h -1.733 l -0.365,2.099 H 119.798 L 98.8383,261.135 c 0.8574,1.073 1.7967,2.075 2.7967,3.014 l -0.698,-5.112 c 0.857,1.072 1.796,2.075 2.796,3.013 l -0.348,-2.548 c -3.8819,-4.26 -6.2522,-9.92 -6.2522,-16.123 0,-7.139 3.1422,-13.553 8.1102,-17.946 0.656,-0.742 1.357,-1.443 2.099,-2.099 0.656,-0.741 1.356,-1.442 2.098,-2.098 0.656,-0.742 1.357,-1.442 2.099,-2.098 0.655,-0.742 1.356,-1.443 2.098,-2.098 0.656,-0.743 1.356,-1.443 2.098,-2.099 0.656,-0.742 1.357,-1.442 2.098,-2.098 0.657,-0.742 1.357,-1.443 2.099,-2.099 0.656,-0.742 1.357,-1.442 2.099,-2.098 0.655,-0.742 1.356,-1.443 2.098,-2.098 0.656,-0.742 1.356,-1.443 2.098,-2.099 0.656,-0.742 1.357,-1.442 2.098,-2.098 0.656,-0.742 1.357,-1.443 2.099,-2.099 0.656,-0.742 1.356,-1.442 2.098,-2.098 0.656,-0.742 1.357,-1.442 2.099,-2.098 0.655,-0.742 1.356,-1.443 2.098,-2.098 0.656,-0.742 1.356,-1.443 2.098,-2.099 0.656,-0.742 1.357,-1.442 2.099,-2.098 0.656,-0.742 1.356,-1.443 2.098,-2.099 0.656,-0.742 1.356,-1.442 2.098,-2.098 0.656,-0.742 1.357,-1.443 2.099,-2.099 0.656,-0.741 1.356,-1.442 2.098,-2.098 0.656,-0.742 1.357,-1.442 2.098,-2.098 0.656,-0.742 1.357,-1.443 2.099,-2.099 0.656,-0.741 1.356,-1.442 2.098,-2.098 0.656,-0.742 1.357,-1.442 2.099,-2.098 0.656,-0.742 1.356,-1.443 2.098,-2.099 0.656,-0.741 1.356,-1.442 2.098,-2.098 0.656,-0.742 1.357,-1.443 2.099,-2.098 0.655,-0.742 1.356,-1.443 2.098,-2.099 0.656,-0.742 1.356,-1.442 2.098,-2.098 0.656,-0.742 1.357,-1.442 2.099,-2.099 0.656,-0.741 1.356,-1.442 2.098,-2.098 0.474,-0.535 0.978,-1.041 1.496,-1.532 8.052,-1.316 16.313,-2.011 24.737,-2.011 84.069,0 152.22,68.151 152.22,152.22"
         style="fill:#607d8b;fill-opacity:1;fill-rule:nonzero;stroke:none;stroke-width:0.1"
         id="path40"
         inkscape:connector-curvature="0" /><path
         d="m 218.077,338.847 h 18.916 v 18.9172 h -18.916 z"
         style="fill:#ffffff;fill-opacity:1;fill-rule:nonzero;stroke:none;stroke-width:0.1"
         id="path54"
         inkscape:connector-curvature="0" /><path
         d="m 165.488,326.235 c 4.658,0 8.447,3.792 8.447,8.45 0,4.659 -3.789,8.451 -8.447,8.451 -4.659,0 -8.451,-3.792 -8.451,-8.451 0,-4.658 3.792,-8.45 8.451,-8.45"
         style="fill:#ffffff;fill-opacity:1;fill-rule:nonzero;stroke:none;stroke-width:0.1"
         id="path56"
         inkscape:connector-curvature="0" /><path
         d="m 196.257,396.165 -10.812,-18.728 h 21.624 l -10.812,18.728"
         style="fill:#ffffff;fill-opacity:1;fill-rule:nonzero;stroke:none;stroke-width:0.1"
         id="path58"
         inkscape:connector-curvature="0" /><path
         d="m 115.547,248.802 c 0,1.254 1.017,2.271 2.27,2.271 h 28.754 c 1.253,0 2.27,-1.017 2.27,-2.271 v -10.844 c 0,-1.253 -1.017,-2.27 -2.27,-2.27 h -28.754 c -1.253,0 -2.27,1.017 -2.27,2.27 z m 5.548,-29.383 h 150.327 c 13.212,0 23.959,10.748 23.959,23.96 0,13.212 -10.747,23.962 -23.959,23.962 H 121.095 c -13.212,0 -23.9622,-10.75 -23.9622,-23.962 0,-13.212 10.7502,-23.96 23.9622,-23.96"
         style="fill:#ffffff;fill-opacity:1;fill-rule:nonzero;stroke:none;stroke-width:0.1"
         id="path60"
         inkscape:connector-curvature="0" /><path
         d="m 120.087,240.228 h 24.2141 v 6.30391 H 120.087 Z"
         style="fill:#ffffff;fill-opacity:1;fill-rule:nonzero;stroke:none;stroke-width:0.1"
         id="path62"
         inkscape:connector-curvature="0" /><path
         d="m 165.488,347.676 c 7.161,0 12.987,-5.829 12.987,-12.991 0,-6.384 -4.639,-11.68 -10.717,-12.761 v -7.427 l 26.229,-18.222 v 76.622 h -12.473 c -0.81,0 -1.561,0.432 -1.966,1.135 -0.405,0.704 -0.405,1.567 0,2.27 l 14.744,25.538 c 0.809,1.407 3.121,1.407 3.931,0 l 14.515,-25.145 c 0.37,-0.402 0.592,-0.94 0.592,-1.528 0,-1.253 -1.014,-2.27 -2.27,-2.27 -0.015,0 -0.036,0 -0.06,0 h -12.473 v -70.861 l 26.738,21.994 v 10.277 h -9.458 c -1.254,0 -2.271,1.017 -2.271,2.27 v 23.457 c 0,1.253 1.017,2.27 2.271,2.27 h 23.456 c 1.254,0 2.27,-1.017 2.27,-2.27 v -23.457 c 0,-1.253 -1.016,-2.27 -2.27,-2.27 h -9.458 v -11.35 c 0,-0.68 -0.304,-1.322 -0.828,-1.753 l -30.45,-25.047 v -12.926 c 0,-1.253 -1.017,-2.27 -2.27,-2.27 -1.253,0 -2.27,1.017 -2.27,2.27 v 7.515 l -29.794,20.698 c -0.612,0.426 -0.975,1.12 -0.975,1.865 v 8.615 c -6.08,1.081 -10.721,6.377 -10.721,12.761 0,7.162 5.829,12.991 12.991,12.991 z m -44.393,-75.795 h 150.327 c 8.662,0 16.419,-3.897 21.65,-10.016 L 266.486,414.609 H 119.797 L 98.8383,261.135 c 5.2267,6.539 13.2547,10.746 22.2567,10.746"
         style="fill:#ffffff;fill-opacity:1;fill-rule:nonzero;stroke:none;stroke-width:0.1"
         id="path64"
         inkscape:connector-curvature="0" /></g></g></svg>