<?xml version="1.0" encoding="UTF-8" standalone="no"?>
<!-- Created with Inkscape (http://www.inkscape.org/) -->

<svg
   xmlns:dc="http://purl.org/dc/elements/1.1/"
   xmlns:cc="http://creativecommons.org/ns#"
   xmlns:rdf="http://www.w3.org/1999/02/22-rdf-syntax-ns#"
   xmlns:svg="http://www.w3.org/2000/svg"
   xmlns="http://www.w3.org/2000/svg"
   xmlns:sodipodi="http://sodipodi.sourceforge.net/DTD/sodipodi-0.dtd"
   xmlns:inkscape="http://www.inkscape.org/namespaces/inkscape"
   version="1.1"
   id="svg2"
   inkscape:version="0.91+devel r"
   xml:space="preserve"
   width="298.91095"
   height="212.44937"
   viewBox="0 0 298.91094 212.44937"
   sodipodi:docname="simpl4_app.svg"><metadata
     id="metadata8"><rdf:RDF><cc:Work
         rdf:about=""><dc:format>image/svg+xml</dc:format><dc:type
           rdf:resource="http://purl.org/dc/dcmitype/StillImage" /><dc:title></dc:title></cc:Work></rdf:RDF></metadata><defs
     id="defs6" /><sodipodi:namedview
     pagecolor="#ffffff"
     bordercolor="#666666"
     borderopacity="1"
     objecttolerance="10"
     gridtolerance="10"
     guidetolerance="10"
     inkscape:pageopacity="0"
     inkscape:pageshadow="2"
     inkscape:window-width="2946"
     inkscape:window-height="1981"
     inkscape:document-units="px"
     id="namedview4"
     showgrid="false"
     inkscape:snap-global="false"
     fit-margin-top="0"
     fit-margin-left="0"
     fit-margin-right="0"
     fit-margin-bottom="0"
     inkscape:zoom="2.6228459"
     inkscape:cx="149.26031"
     inkscape:cy="116.42507"
     inkscape:window-x="0"
     inkscape:window-y="0"
     inkscape:window-maximized="0"
     inkscape:current-layer="g10" /><g
     id="g10"
     inkscape:groupmode="layer"
     inkscape:label="ink_ext_XXXXXX"
     transform="matrix(1.3333333,0,0,-1.3333333,-74.733027,252.81763)"><path
       inkscape:connector-curvature="0"
       id="path284"
       style="fill:#ffffff;fill-opacity:1;fill-rule:nonzero;stroke:none;stroke-width:0.1"
       d="m 102.09376,137.42884 c -0.006,-0.131 -0.02,-7.26 -0.02,-7.393 V 71.236744 c 0,-4.418 3.582,-7.999998 8,-7.999998 h 125.833 c 4.418,0 8,3.581998 8,7.999998 v 58.799096 c 0,0.133 -0.013,7.262 -0.019,7.393 h -141.794" /><path
       inkscape:connector-curvature="0"
       id="path294"
       style="fill:#ffffff;fill-opacity:1;fill-rule:nonzero;stroke:none;stroke-width:0.1"
       d="m 102.09376,102.22384 h 141.813 v 35.2047 h -141.813 z" /><path
       inkscape:connector-curvature="0"
       id="path298"
       style="fill:#e4e4e3;fill-opacity:1;fill-rule:nonzero;stroke:none;stroke-width:0.1"
       d="m 243.90676,130.03584 c 0,0.133 -0.013,7.262 -0.019,7.393 h -141.794 c 0,-0.003 0,-0.011 0,-0.024 v 0.024 h 141.813 v -7.393" /><path
       inkscape:connector-curvature="0"
       id="path286"
       style="fill:#f56b67;fill-opacity:1;fill-rule:nonzero;stroke:none;stroke-width:0.1"
       d="m 112.90356,142.3863 c 0,-1.822 -1.478,-3.3 -3.301,-3.3 -1.823,0 -3.3,1.478 -3.3,3.3 0,1.823 1.477,3.301 3.3,3.301 1.823,0 3.301,-1.478 3.301,-3.301" /><path
       inkscape:connector-curvature="0"
       id="path288"
       style="fill:#f7de14;fill-opacity:1;fill-rule:nonzero;stroke:none;stroke-width:0.1"
       d="m 122.81556,142.3863 c 0,-1.822 -1.479,-3.3 -3.301,-3.3 -1.823,0 -3.301,1.478 -3.301,3.3 0,1.823 1.478,3.301 3.301,3.301 1.822,0 3.301,-1.478 3.301,-3.301" /><path
       inkscape:connector-curvature="0"
       id="path290"
       style="fill:#9ad8d6;fill-opacity:1;fill-rule:nonzero;stroke:none;stroke-width:0.1"
       d="m 132.72756,142.3863 c 0,-1.822 -1.478,-3.3 -3.301,-3.3 -1.823,0 -3.301,1.478 -3.301,3.3 0,1.823 1.478,3.301 3.301,3.301 1.823,0 3.301,-1.478 3.301,-3.301" /><path
       inkscape:connector-curvature="0"
       id="path292"
       style="fill:#ffffff;fill-opacity:1;fill-rule:nonzero;stroke:none;stroke-width:0.1"
       d="m 240.13456,140.4653 c 0,-0.552 -0.448,-1 -1,-1 h -99.771 c -0.552,0 -1,0.448 -1,1 v 4.222 c 0,0.552 0.448,1 1,1 h 99.771 c 0.552,0 1,-0.448 1,-1 v -4.222" /><path
       inkscape:connector-curvature="0"
       id="path304"
       style="fill:#db625e;fill-opacity:1;fill-rule:nonzero;stroke:none;stroke-width:0.1"
       d="m 109.60256,139.0863 c -1.823,0 -3.3,1.478 -3.3,3.3 0,1.823 1.477,3.301 3.3,3.301 1.823,0 3.301,-1.478 3.301,-3.301 0,-1.822 -1.478,-3.3 -3.301,-3.3" /><path
       inkscape:connector-curvature="0"
       id="path306"
       style="fill:#dcc715;fill-opacity:1;fill-rule:nonzero;stroke:none;stroke-width:0.1"
       d="m 119.51456,139.0863 c -1.823,0 -3.301,1.478 -3.301,3.3 0,1.823 1.478,3.301 3.301,3.301 1.822,0 3.301,-1.478 3.301,-3.301 0,-1.822 -1.479,-3.3 -3.301,-3.3" /><path
       inkscape:connector-curvature="0"
       id="path308"
       style="fill:#8bc1bf;fill-opacity:1;fill-rule:nonzero;stroke:none;stroke-width:0.1"
       d="m 129.42656,139.0863 c -1.823,0 -3.301,1.478 -3.301,3.3 0,1.823 1.478,3.301 3.301,3.301 1.823,0 3.301,-1.478 3.301,-3.301 0,-1.822 -1.478,-3.3 -3.301,-3.3" /><path
       inkscape:connector-curvature="0"
       id="path310"
       style="fill:#e4e4e3;fill-opacity:1;fill-rule:nonzero;stroke:none;stroke-width:0.1"
       d="m 239.13456,139.4653 h -99.771 c -0.552,0 -1,0.448 -1,1 v 4.222 c 0,0.552 0.448,1 1,1 h 99.771 c 0.552,0 1,-0.448 1,-1 v -4.222 c 0,-0.552 -0.448,-1 -1,-1" /><path
       inkscape:connector-curvature="0"
       id="path312"
       style="fill:#93b0be;fill-opacity:1;fill-rule:nonzero;stroke:none;stroke-width:0.1"
       d="m 240.74656,71.888203 c 0,-4.418 -3.582,-8 -8,-8 h -134.001 c -4.4183,0 -8,3.582 -8,8 V 148.7633 c 0,4.418 3.5817,8 8,8 h 134.001 c 4.418,0 8,-3.582 8,-8 V 71.888203" /><path
       inkscape:connector-curvature="0"
       id="path314"
       style="fill:#ffffff;fill-opacity:1;fill-rule:nonzero;stroke:none;stroke-width:0.1"
       d="m 94.84906,141.6383 c -0.006,-0.131 -0.0199,-7.26 -0.0199,-7.393 V 75.447203 c 0,-4.418 3.5814,-8 8.0004,-8 h 125.833 c 4.418,0 8,3.582 8,8 V 134.2453 c 0,0.133 -0.014,7.262 -0.02,7.393 H 94.84906" /><path
       inkscape:connector-curvature="0"
       id="path316"
       style="fill:#f56b67;fill-opacity:1;fill-rule:nonzero;stroke:none;stroke-width:0.1"
       d="m 104.51456,149.1693 c 0,-1.822 -1.478,-3.301 -3.301,-3.301 -1.822,0 -3.3,1.479 -3.3,3.301 0,1.824 1.478,3.301 3.3,3.301 1.823,0 3.301,-1.477 3.301,-3.301" /><path
       inkscape:connector-curvature="0"
       id="path318"
       style="fill:#f7de14;fill-opacity:1;fill-rule:nonzero;stroke:none;stroke-width:0.1"
       d="m 114.42656,149.1693 c 0,-1.822 -1.478,-3.301 -3.301,-3.301 -1.823,0 -3.3,1.479 -3.3,3.301 0,1.824 1.477,3.301 3.3,3.301 1.823,0 3.301,-1.477 3.301,-3.301" /><path
       inkscape:connector-curvature="0"
       id="path320"
       style="fill:#9ad8d6;fill-opacity:1;fill-rule:nonzero;stroke:none;stroke-width:0.1"
       d="m 124.33856,149.1693 c 0,-1.822 -1.478,-3.301 -3.301,-3.301 -1.823,0 -3.3,1.479 -3.3,3.301 0,1.824 1.477,3.301 3.3,3.301 1.823,0 3.301,-1.477 3.301,-3.301" /><path
       inkscape:connector-curvature="0"
       id="path322"
       style="fill:#ffffff;fill-opacity:1;fill-rule:nonzero;stroke:none;stroke-width:0.1"
       d="m 231.74656,147.2483 c 0,-0.551 -0.449,-1 -1,-1 h -99.771 c -0.553,0 -1,0.449 -1,1 v 4.222 c 0,0.553 0.447,1 1,1 h 99.771 c 0.551,0 1,-0.447 1,-1 v -4.222" /><path
       inkscape:connector-curvature="0"
       id="path324"
       style="fill:#ffffff;fill-opacity:1;fill-rule:nonzero;stroke:none;stroke-width:0.1"
       d="m 94.84866,106.4333 h 141.814 v 35.2051 h -141.814 z" /><path
       inkscape:connector-curvature="0"
       id="path326"
       style="fill:#0c546f;fill-opacity:1;fill-rule:nonzero;stroke:none;stroke-width:0.1"
       d="m 149.23856,105.3613 c -5.145,0 -9.315,4.172 -9.315,9.304 0,5.145 4.17,9.315 9.315,9.315 5.138,0 9.306,-4.17 9.306,-9.315 0,-5.132 -4.168,-9.304 -9.306,-9.304 z m 13.216,-6.165997 2.254,2.251997 c 0.458,0.457 0.458,1.199 0,1.65 l -1.962,1.957 c -0.456,0.457 -0.579,1.295 -0.265,1.859 l 1.596,3.87 c 0.181,0.619 0.859,1.127 1.502,1.127 h 2.772 c 0.642,0 1.174,0.523 1.174,1.164 v 3.189 c 0,0.641 -0.532,1.167 -1.174,1.167 h -2.772 c -0.643,0 -1.321,0.503 -1.502,1.118 l -1.596,3.882 c -0.303,0.564 -0.191,1.39 0.265,1.845 l 1.962,1.963 c 0.458,0.457 0.458,1.199 0,1.651 l -2.254,2.254 c -0.455,0.453 -1.193,0.453 -1.649,0 l -1.963,-1.964 c -0.456,-0.455 -1.289,-0.574 -1.85,-0.265 l -3.878,1.603 c -0.614,0.179 -1.118,0.852 -1.118,1.494 v 2.778 c 0,0.639 -0.526,1.168 -1.167,1.168 h -3.189 c -0.64,0 -1.166,-0.529 -1.166,-1.168 v -2.778 c 0,-0.642 -0.504,-1.315 -1.119,-1.494 l -3.883,-1.603 c -0.561,-0.309 -1.394,-0.19 -1.846,0.265 l -1.962,1.964 c -0.456,0.453 -1.199,0.453 -1.649,0 l -2.254,-2.261 c -0.457,-0.445 -0.457,-1.187 0,-1.644 l 1.962,-1.963 c 0.456,-0.455 0.568,-1.281 0.265,-1.845 l -1.602,-3.882 c -0.179,-0.615 -0.853,-1.118 -1.495,-1.118 h -2.779 c -0.642,0 -1.167,-0.526 -1.167,-1.167 v -3.189 c 0,-0.641 0.525,-1.164 1.167,-1.164 h 2.779 c 0.642,0 1.316,-0.508 1.495,-1.127 l 1.602,-3.87 c 0.303,-0.576 0.191,-1.402 -0.265,-1.859 l -1.962,-1.957 c -0.457,-0.451 -0.457,-1.193 0,-1.65 l 2.254,-2.251997 c 0.45,-0.457 1.193,-0.457 1.649,0 l 1.962,1.956997 c 0.457,0.455 1.285,0.572 1.846,0.265 l 3.883,-1.590997 c 0.615,-0.182 1.119,-0.86 1.119,-1.508 v -2.7738 c 0,-0.6403 0.526,-1.1661 1.166,-1.1661 h 3.189 c 0.641,0 1.167,0.5258 1.167,1.1661 v 2.7738 c 0,0.648 0.504,1.326 1.118,1.508 l 3.878,1.590997 c 0.561,0.307 1.394,0.19 1.85,-0.265 l 1.963,-1.956997 c 0.456,-0.457 1.194,-0.457 1.649,0" /><path
       inkscape:connector-curvature="0"
       id="path328"
       style="fill:#0c546f;fill-opacity:1;fill-rule:nonzero;stroke:none;stroke-width:0.1"
       d="m 176.74956,84.986303 c -1.502,-2.811 -5.002,-3.8731 -7.809,-2.3668 -2.805,1.5066 -3.866,5.0089 -2.358,7.8078 1.504,2.8109 5.001,3.873 7.811,2.3648 2.8,-1.5066 3.867,-5.0058 2.356,-7.8058 z m 7.239,5.4058 -0.569,1.8942 c -0.121,0.3832 -0.524,0.6019 -0.906,0.4871 l -1.643,-0.5 c -0.383,-0.1172 -0.876,0.064 -1.088,0.4 l -1.656,2.0078 c -0.281,0.275 -0.355,0.7953 -0.169,1.1472 l 0.812,1.5149 c 0.191,0.35 0.053,0.7969 -0.292,0.975 l -1.745,0.935 c -0.35,0.19 -0.791,0.059 -0.981,-0.299 l -0.812,-1.5052 c -0.185,-0.35 -0.662,-0.5789 -1.045,-0.4976 l -2.593,0.2648 c -0.397,-0.006 -0.817,0.3071 -0.927,0.6879 l -0.499,1.6461 c -0.118,0.375 -0.526,0.591997 -0.902,0.476997 l -1.889,-0.573997 c -0.381,-0.11 -0.598,-0.52 -0.483,-0.901 l 0.493,-1.6442 c 0.118,-0.3808 -0.062,-0.8636 -0.391,-1.0797 l -2.01,-1.657 c -0.276,-0.2851 -0.796,-0.3609 -1.151,-0.1703 l -1.512,0.8051 c -0.35,0.191 -0.79,0.0633 -0.976,-0.291 l -0.939,-1.7321 c -0.186,-0.3617 -0.053,-0.7968 0.298,-0.9867 l 1.515,-0.816 c 0.351,-0.182 0.573,-0.6582 0.494,-1.0449 l -0.259,-2.5864 c 0,-0.4 -0.308,-0.8257 -0.689,-0.9339 l -1.65,-0.4957 c -0.383,-0.1172 -0.595,-0.5211 -0.478,-0.9082 l 0.568,-1.8829 c 0.117,-0.3863 0.519,-0.6031 0.901,-0.4902 l 1.644,0.502 c 0.382,0.1152 0.875,-0.0618 1.087,-0.3981 l 1.656,-2.0098 c 0.281,-0.2781 0.355,-0.7968 0.171,-1.1492 l -0.813,-1.5129 c -0.191,-0.35 -0.054,-0.7871 0.297,-0.9769 l 1.74,-0.932 c 0.35,-0.193 0.789,-0.0559 0.975,0.2949 l 0.817,1.516 c 0.187,0.3519 0.664,0.5762 1.051,0.4902 l 2.583,-0.2652 c 0.403,0.004 0.821,-0.3027 0.934,-0.6899 l 0.498,-1.6351 c 0.116,-0.3859 0.525,-0.6008 0.901,-0.4859 l 1.894,0.5718 c 0.376,0.116 0.593,0.5184 0.482,0.9012 l -0.498,1.6441 c -0.116,0.3809 0.063,0.8707 0.392,1.0899 l 2.009,1.6488 c 0.282,0.2852 0.803,0.3594 1.152,0.1692 l 1.512,-0.8059 c 0.356,-0.1922 0.795,-0.0551 0.981,0.2969 l 0.933,1.7359 c 0.192,0.352 0.054,0.7852 -0.296,0.977 l -1.517,0.8203 c -0.351,0.1886 -0.573,0.6558 -0.488,1.0429 l 0.265,2.5918 c -0.011,0.3942 0.302,0.818 0.685,0.9332 l 1.643,0.4957 c 0.382,0.1122 0.594,0.5204 0.483,0.893" /><path
       inkscape:connector-curvature="0"
       id="path330"
       style="fill:#0c546f;fill-opacity:1;fill-rule:nonzero;stroke:none;stroke-width:0.1"
       d="m 194.34556,111.2633 c -1.243,-3.611 -5.184,-5.531 -8.793,-4.281 -3.605,1.252 -5.525,5.193 -4.275,8.793 1.248,3.612 5.185,5.534 8.798,4.284 3.6,-1.255 5.527,-5.192 4.27,-8.796 z m 7.542,7.776 -1.032,2.134 c -0.217,0.432 -0.735,0.612 -1.165,0.403 l -1.851,-0.903 c -0.43,-0.213 -1.048,-0.091 -1.365,0.269 l -2.337,2.059 c -0.387,0.275 -0.573,0.874 -0.421,1.325 l 0.675,1.949 c 0.16,0.451 -0.089,0.952 -0.532,1.099 l -2.242,0.774 c -0.45,0.16 -0.946,-0.078 -1.104,-0.538 l -0.676,-1.937 c -0.152,-0.449 -0.672,-0.809 -1.142,-0.789 l -3.12,-0.178 c -0.469,-0.081 -1.025,0.21 -1.228,0.639 l -0.903,1.852 c -0.21,0.423 -0.735,0.602 -1.157,0.395 l -2.127,-1.039 c -0.43,-0.202 -0.61,-0.726 -0.401,-1.157 l 0.896,-1.854 c 0.212,-0.427 0.089,-1.033 -0.257,-1.352 l -2.066,-2.341 c -0.272,-0.391 -0.874,-0.579 -1.331,-0.42 l -1.941,0.666 c -0.45,0.161 -0.948,-0.075 -1.1,-0.529 l -0.782,-2.231 c -0.152,-0.461 0.088,-0.951 0.539,-1.109 l 1.95,-0.681 c 0.449,-0.147 0.803,-0.669 0.783,-1.141 l 0.182,-3.108 c 0.077,-0.476 -0.207,-1.041 -0.638,-1.238 l -1.86,-0.9 c -0.428,-0.211 -0.603,-0.729 -0.391,-1.166 l 1.029,-2.122 c 0.212,-0.435 0.729,-0.615 1.159,-0.406 l 1.852,0.905 c 0.43,0.209 1.049,0.091 1.363,-0.268 l 2.342,-2.063 c 0.383,-0.273 0.57,-0.875 0.417,-1.326 l -0.673,-1.945 c -0.159,-0.453 0.086,-0.940997 0.537,-1.099997 l 2.235,-0.775 c 0.453,-0.16 0.947,0.086 1.099,0.533 l 0.68,1.950997 c 0.154,0.452 0.675,0.807 1.15,0.778 l 3.108,0.177 c 0.476,0.082 1.029,-0.201 1.235,-0.636 l 0.899,-1.841997 c 0.212,-0.436 0.737,-0.613 1.16,-0.406 l 2.133,1.040997 c 0.424,0.207 0.605,0.722 0.4,1.156 l -0.902,1.853 c -0.209,0.428 -0.089,1.041 0.258,1.362 l 2.065,2.334 c 0.28,0.39 0.882,0.578 1.332,0.418 l 1.942,-0.666 c 0.458,-0.16 0.951,0.086 1.104,0.537 l 0.776,2.234 c 0.159,0.449 -0.086,0.938 -0.537,1.098 l -1.951,0.681 c -0.45,0.161 -0.802,0.668 -0.775,1.141 l -0.179,3.121 c -0.088,0.466 0.203,1.027 0.633,1.235 l 1.852,0.898 c 0.431,0.204 0.603,0.729 0.401,1.149" /><path
       inkscape:connector-curvature="0"
       id="path332"
       style="fill:#0c546f;fill-opacity:1;fill-rule:nonzero;stroke:none;stroke-width:0.1"
       d="m 154.44556,114.6783 c 0,-2.878 -2.332,-5.21 -5.209,-5.21 -2.877,0 -5.209,2.332 -5.209,5.21 0,2.877 2.332,5.209 5.209,5.209 2.877,0 5.209,-2.332 5.209,-5.209" /><path
       inkscape:connector-curvature="0"
       id="path334"
       style="fill:#0c546f;fill-opacity:1;fill-rule:nonzero;stroke:none;stroke-width:0.1"
       d="m 191.11156,113.5213 c 0,-1.822 -1.477,-3.299 -3.299,-3.299 -1.822,0 -3.299,1.477 -3.299,3.299 0,1.822 1.477,3.299 3.299,3.299 1.822,0 3.299,-1.477 3.299,-3.299" /><path
       inkscape:connector-curvature="0"
       id="path336"
       style="fill:#0c546f;fill-opacity:1;fill-rule:nonzero;stroke:none;stroke-width:0.1"
       d="m 174.61156,87.706203 c 0,-1.627 -1.319,-2.9449 -2.945,-2.9449 -1.626,0 -2.946,1.3179 -2.946,2.9449 0,1.6269 1.32,2.9461 2.946,2.9461 1.626,0 2.945,-1.3192 2.945,-2.9461" /><path
       inkscape:connector-curvature="0"
       id="path16"
       style="fill:#607d8b;fill-opacity:1;fill-rule:nonzero;stroke:none;stroke-width:0.1"
       d="m 278.30083,176.06722 -10.28,8.299 c -1.082,0.873 -2.679,0.701 -3.556,-0.381 l -28.069,-34.753 -10.986,9.982 c -1.036,0.948 -2.639,0.859 -3.575,-0.163 l -8.888,-9.777 c -0.93,-1.032 -0.859,-2.64 0.175,-3.576 l 23.492,-21.368 c 1.035,-0.927 2.586,-0.808 3.464,0.277 l 8.285,10.324 0.029,0.065 30.29,37.503 c 0.878,1.085 0.701,2.688 -0.381,3.568" /><path
       inkscape:connector-curvature="0"
       id="path24"
       style="fill:#607d8b;fill-opacity:1;fill-rule:nonzero;stroke:none;stroke-width:0.1"
       d="m 86.704072,135.97423 h -18.6781 c -1.4215,0 -2.5922,-1.139 -2.5922,-2.529 0,-1.399 1.1707,-2.539 2.5922,-2.539 h 18.6781 c 1.4277,0 2.5973,1.14 2.5973,2.539 0,1.39 -1.1696,2.529 -2.5973,2.529" /><path
       inkscape:connector-curvature="0"
       id="path26"
       style="fill:#607d8b;fill-opacity:1;fill-rule:nonzero;stroke:none;stroke-width:0.1"
       d="m 83.463872,127.42523 h -12.1911 c -1.4261,0 -2.5968,-1.134 -2.5968,-2.529 0,-1.398 1.1707,-2.539 2.5968,-2.539 h 12.1911 c 1.4191,0 2.5832,1.141 2.5832,2.539 0,1.395 -1.1641,2.529 -2.5832,2.529" /><path
       inkscape:connector-curvature="0"
       id="path28"
       style="fill:#607d8b;fill-opacity:1;fill-rule:nonzero;stroke:none;stroke-width:0.1"
       d="m 92.597372,165.37523 h -4.4793 c 0.1336,0.687 0.2153,1.391 0.2153,2.121 0,6.017 -4.6918,10.916 -10.6016,11.346 v 4.473 c 8.3531,-0.442 15.027,-7.355 15.027,-15.819 0,-0.718 -0.068,-1.422 -0.1614,-2.121 z m -15.2347,24.238 c -11.768,0 -21.3129,-9.545 -21.3129,-21.314 0,-6.739 4.7644,-12.614 4.7644,-12.614 1.7907,-2.218 3.2661,-6.367 3.2661,-9.222 v -1.653 c 0,-2.853 2.3328,-5.187 5.1875,-5.187 h 15.7836 c 2.8519,0 5.1917,2.334 5.1917,5.187 v 1.35 c 0,2.851 1.5059,6.972 3.3383,9.156 0,0 5.0917,6.059 5.0917,12.983 0,11.769 -9.5385,21.314 -21.3104,21.314" /><path
       inkscape:connector-curvature="0"
       id="path20"
       style="fill:#607d8b;fill-opacity:1;fill-rule:nonzero;stroke:none;stroke-width:0.1"
       d="m 248.19,54.3738 c -4.388,0 -7.939,3.5582 -7.939,7.9434 0,4.393 3.551,7.9406 7.939,7.9406 4.395,0 7.949,-3.5476 7.949,-7.9406 0,-4.3852 -3.554,-7.9434 -7.949,-7.9434 m 30.2,12.3 h -4.383 c -1.016,0 -2.083,0.8012 -2.368,1.7723 l -2.529,6.1289 c -0.479,0.8828 -0.291,2.2012 0.422,2.9219 l 3.101,3.0929 c 0.713,0.7153 0.713,1.8813 0,2.6 l -3.562,3.5614 c -0.719,0.7199 -1.894,0.7199 -2.608,0 l -3.099,-3.0922 c -0.713,-0.7211 -2.025,-0.9141 -2.916,-0.4219 l -6.13,2.5231 c -0.969,0.2847 -1.762,1.3578 -1.762,2.366 v 4.3898 c 0,1.016 -0.834,1.836 -1.844,1.836 h -5.033 c -1.016,0 -1.842,-0.82 -1.842,-1.836 v -4.3898 c 0,-1.0082 -0.801,-2.0813 -1.77,-2.366 l -6.129,-2.5231 c -0.886,-0.4922 -2.203,-0.2992 -2.917,0.4219 l -3.098,3.0922 c -0.713,0.7199 -1.883,0.7199 -2.602,0 l -3.561,-3.5614 c -0.713,-0.7187 -0.713,-1.8847 0,-2.6 l 3.098,-3.0929 c 0.713,-0.7207 0.897,-2.0391 0.412,-2.9219 l -2.523,-6.1289 c -0.285,-0.9711 -1.352,-1.7723 -2.368,-1.7723 h -4.384 c -1.01,0 -1.836,-0.8297 -1.836,-1.8488 v -5.0262 c 0,-1.0109 0.826,-1.8449 1.836,-1.8449 h 4.384 c 1.016,0 2.083,-0.791 2.368,-1.768 l 2.523,-6.1289 c 0.49,-0.8832 0.301,-2.1992 -0.412,-2.9101 l -3.098,-3.0981 c -0.713,-0.716 -0.713,-1.8918 0,-2.6066 l 3.561,-3.5652 c 0.719,-0.7122 1.889,-0.7122 2.602,0 l 3.098,3.1 c 0.714,0.7128 2.031,0.9101 2.922,0.4179 l 6.124,-2.523 c 0.969,-0.286 1.77,-1.35 1.77,-2.3641 v -4.3859 c 0,-1.0117 0.826,-1.8457 1.842,-1.8457 h 5.033 c 1.01,0 1.844,0.834 1.844,1.8457 v 4.3859 c 0,1.0141 0.793,2.0781 1.762,2.3641 l 6.13,2.523 c 0.885,0.4922 2.203,0.2949 2.916,-0.4179 l 3.099,-3.1 c 0.714,-0.7161 1.889,-0.7161 2.608,0 l 3.562,3.5652 c 0.713,0.7148 0.713,1.8906 0,2.6066 l -3.106,3.0981 c -0.713,0.7109 -0.896,2.0312 -0.417,2.9101 l 2.529,6.1289 c 0.285,0.977 1.352,1.768 2.368,1.768 h 4.383 c 1.009,0 1.843,0.834 1.843,1.8449 v 5.0262 c 0,1.0191 -0.834,1.8488 -1.843,1.8488" /></g></svg>