<?xml version="1.0" encoding="UTF-8" standalone="no"?>
<!-- Generator: Adobe Illustrator 16.0.0, SVG Export Plug-In . SVG Version: 6.00 Build 0)  -->

<svg
   xmlns:dc="http://purl.org/dc/elements/1.1/"
   xmlns:cc="http://creativecommons.org/ns#"
   xmlns:rdf="http://www.w3.org/1999/02/22-rdf-syntax-ns#"
   xmlns:svg="http://www.w3.org/2000/svg"
   xmlns="http://www.w3.org/2000/svg"
   xmlns:sodipodi="http://sodipodi.sourceforge.net/DTD/sodipodi-0.dtd"
   xmlns:inkscape="http://www.inkscape.org/namespaces/inkscape"
   version="1.1"
   id="Layer_1"
   x="0px"
   y="0px"
   width="1400px"
   height="980px"
   viewBox="0 0 1400 980"
   enable-background="new 0 0 1400 980"
   xml:space="preserve"
   inkscape:version="0.91 r13725"
   sodipodi:docname="falsche_darstellung.svg"><metadata
     id="metadata589"><rdf:RDF><cc:Work
         rdf:about=""><dc:format>image/svg+xml</dc:format><dc:type
           rdf:resource="http://purl.org/dc/dcmitype/StillImage" /><dc:title></dc:title></cc:Work></rdf:RDF></metadata><defs
     id="defs587" /><sodipodi:namedview
     pagecolor="#ffffff"
     bordercolor="#666666"
     borderopacity="1"
     objecttolerance="10"
     gridtolerance="10"
     guidetolerance="10"
     inkscape:pageopacity="0"
     inkscape:pageshadow="2"
     inkscape:window-width="1576"
     inkscape:window-height="971"
     id="namedview585"
     showgrid="false"
     inkscape:zoom="0.48163265"
     inkscape:cx="700"
     inkscape:cy="490"
     inkscape:window-x="0"
     inkscape:window-y="0"
     inkscape:window-maximized="0"
     inkscape:current-layer="Layer_1" /><g
     id="g3"><g
       id="g5"><rect
         fill="#FFFFFF"
         width="1399.995"
         height="980"
         id="rect7" /></g></g><g
     id="g9"><g
       id="g11"><g
         id="g13"><path
           d="M1240.773,538.297h-238.875v-68.433c0-10.418,8.474-18.893,18.889-18.893h201.096c10.416,0,18.891,8.474,18.891,18.893     V538.297z M1004.363,535.832h233.943v-65.968c0-9.058-7.366-16.427-16.424-16.427h-201.096c-9.054,0-16.424,7.369-16.424,16.427     V535.832z"
           id="path15" /></g><g
         id="g17"><path
           d="M1221.883,608.447h-201.096c-10.415,0-18.889-8.475-18.889-18.889v-14.44h238.875v14.44     C1240.773,599.973,1232.299,608.447,1221.883,608.447z M1004.363,577.585v11.974c0,9.057,7.37,16.424,16.424,16.424h201.096     c9.058,0,16.424-7.367,16.424-16.424v-11.974H1004.363z"
           id="path19" /></g><g
         id="g21"><path
           d="M1240.773,577.585h-238.875v-41.753h238.875V577.585z M1004.363,575.118h233.943v-36.821h-233.943V575.118z"
           id="path23" /></g><g
         id="g25"><path
           d="M1110.31,489.739h-89.777v-19.634h89.777V489.739z M1022.998,487.273h84.846v-14.702h-84.846V487.273z"
           id="path27" /></g><g
         id="g29"><path
           d="M1155.434,519.169h-134.901v-19.634h134.901V519.169z M1022.998,516.703h129.97v-14.702h-129.97V516.703z"
           id="path31" /></g></g><g
       id="g33"><path
         d="M411.249,114.48c-6.297,0-11.121,2.423-14.473,7.271c-2.902,4.168-4.352,9.582-4.352,16.243    c0,6.659,1.45,12.053,4.352,16.173c3.352,4.85,8.176,7.272,14.473,7.272c5.529,0,9.854-1.676,12.982-5.028    c3.035-3.217,4.552-7.634,4.552-13.252v-2.107h-16.106v-2.04h18.281c0.046,0.453,0.07,0.884,0.07,1.291c0,0.41,0,0.816,0,1.224    c0,10.377-3.56,17.081-10.671,20.118c-2.854,1.178-5.891,1.765-9.108,1.765c-7.065,0-12.46-2.535-16.173-7.609    c-3.352-4.576-5.028-10.512-5.028-17.806c0-7.34,1.652-13.274,4.961-17.806c3.713-5.166,9.129-7.748,16.241-7.748    c4.395,0,8.178,0.93,11.35,2.787c3.444,2.04,5.777,5.052,7,9.038l-2.106,1.021C425.317,118.081,419.904,114.48,411.249,114.48z"
         id="path35" /><path
         d="M440.337,113.529h2.31v46.688h25.893v2.175h-28.202V113.529z"
         id="path37" /><path
         d="M475.47,120.053c3.807-5.074,9.31-7.613,16.515-7.613c7.249,0,12.776,2.515,16.583,7.545    c3.398,4.575,5.096,10.579,5.096,18.008c0,7.475-1.698,13.457-5.096,17.941c-3.807,4.985-9.334,7.475-16.583,7.475    c-7.251,0-12.754-2.49-16.515-7.475c-3.398-4.484-5.096-10.466-5.096-17.941C470.375,130.611,472.072,124.628,475.47,120.053z     M477.17,154.372c3.353,4.713,8.292,7.068,14.815,7.068c6.567,0,11.531-2.355,14.883-7.068c2.945-4.123,4.417-9.582,4.417-16.378    c0-6.75-1.496-12.209-4.484-16.378c-3.398-4.758-8.337-7.135-14.815-7.135c-6.48,0-11.417,2.377-14.815,7.135    c-2.945,4.169-4.418,9.628-4.418,16.378C472.751,144.744,474.225,150.204,477.17,154.372z"
         id="path39" /><path
         d="M522.772,113.529h13.387c6.071,0,10.286,0.701,12.641,2.105c3.489,2.04,5.233,5.37,5.233,9.992    c0,5.481-2.787,9.197-8.359,11.145c7.249,1.404,10.873,5.597,10.873,12.573c0,4.802-1.857,8.358-5.572,10.668    c-2.627,1.587-7.068,2.38-13.32,2.38h-14.882V113.529z M536.431,136.092c10.194,0,15.292-3.536,15.292-10.604    c0-4.121-1.655-6.931-4.961-8.426c-2.175-0.997-5.664-1.496-10.466-1.496h-11.215v20.525H536.431z M537.18,160.352    c5.344,0,9.015-0.407,11.008-1.223c3.988-1.63,5.982-5.028,5.982-10.194c0-4.438-1.835-7.519-5.505-9.243    c-2.584-1.223-6.389-1.835-11.417-1.835h-12.166v22.495H537.18z"
         id="path41" /><path
         d="M577.684,113.529h2.581l18.553,48.863h-2.242l-6.322-16.65h-22.765l-6.389,16.65h-2.242L577.684,113.529z M589.44,143.702    l-10.466-27.523l-10.67,27.523H589.44z"
         id="path43" /><path
         d="M603.846,113.529h2.312v46.688h25.891v2.175h-28.203V113.529z"
         id="path45" /><path
         d="M656.039,113.529h13.387c6.071,0,10.285,0.701,12.641,2.105c3.489,2.04,5.233,5.37,5.233,9.992    c0,5.481-2.787,9.197-8.359,11.145c7.249,1.404,10.873,5.597,10.873,12.573c0,4.802-1.857,8.358-5.573,10.668    c-2.627,1.587-7.068,2.38-13.32,2.38h-14.882V113.529z M669.698,136.092c10.194,0,15.292-3.536,15.292-10.604    c0-4.121-1.654-6.931-4.96-8.426c-2.175-0.997-5.665-1.496-10.466-1.496h-11.215v20.525H669.698z M670.447,160.352    c5.344,0,9.014-0.407,11.008-1.223c3.988-1.63,5.982-5.028,5.982-10.194c0-4.438-1.835-7.519-5.505-9.243    c-2.584-1.223-6.389-1.835-11.417-1.835h-12.166v22.495H670.447z"
         id="path47" /><path
         d="M699.94,113.529v30.717c0,11.463,5.12,17.194,15.359,17.194c5.209,0,9.13-1.584,11.757-4.758    c2.401-2.943,3.603-7.09,3.603-12.436v-30.717h2.242v31.805c0,5.664-1.52,10.081-4.554,13.252    c-3.125,3.217-7.475,4.823-13.048,4.823c-5.618,0-9.967-1.606-13.05-4.823c-3.034-3.083-4.551-7.5-4.551-13.252v-31.805H699.94z"
         id="path49" /><path
         d="M743.364,147.509c0.272,4.258,1.667,7.646,4.181,10.16c2.514,2.515,5.945,3.771,10.295,3.771    c3.807,0,6.977-0.951,9.515-2.854c2.899-2.083,4.349-4.939,4.349-8.563c0-3.759-1.517-6.591-4.551-8.496    c-1.495-0.995-4.759-2.175-9.787-3.533c-0.046-0.046-0.34-0.137-0.884-0.272c-5.618-1.584-9.175-3.058-10.67-4.417    c-2.31-2.083-3.466-4.78-3.466-8.089c0-4.167,1.449-7.362,4.349-9.583c2.673-2.128,6.117-3.193,10.331-3.193    c4.576,0,8.246,1.248,11.009,3.738c2.856,2.493,4.395,6.028,4.621,10.603h-2.175c-0.092-3.942-1.426-7.022-4.01-9.243    c-2.492-2.131-5.686-3.195-9.582-3.195c-3.625,0-6.548,0.908-8.766,2.719c-2.403,1.903-3.604,4.622-3.604,8.154    c0,2.538,0.998,4.737,2.991,6.593c1.495,1.358,4.711,2.673,9.649,3.942c0.092,0.046,0.215,0.08,0.374,0.101    c0.159,0.024,0.351,0.08,0.577,0.171c5.212,1.404,8.791,2.716,10.739,3.939c3.443,2.22,5.165,5.37,5.165,9.447    c0,4.53-1.609,8.065-4.826,10.601c-2.944,2.267-6.75,3.398-11.417,3.398c-4.939,0-8.857-1.425-11.757-4.281    c-2.944-2.763-4.575-6.635-4.893-11.62H743.364z"
         id="path51" /><path
         d="M782.919,113.529h2.242v48.863h-2.242V113.529z"
         id="path53" /><path
         d="M796.646,113.529h2.31l30.651,44.988v-44.988h2.242v48.863h-2.242l-30.719-44.923v44.923h-2.242V113.529z"
         id="path55" /><path
         d="M842.993,113.529h29.835v2.175h-27.525v20.183h21.815v2.107h-21.815v22.223h28.205v2.175h-30.515V113.529z"
         id="path57" /><path
         d="M881.253,147.509c0.271,4.258,1.665,7.646,4.18,10.16c2.515,2.515,5.946,3.771,10.295,3.771    c3.808,0,6.978-0.951,9.516-2.854c2.899-2.083,4.349-4.939,4.349-8.563c0-3.759-1.518-6.591-4.551-8.496    c-1.496-0.995-4.76-2.175-9.787-3.533c-0.046-0.046-0.34-0.137-0.885-0.272c-5.618-1.584-9.175-3.058-10.67-4.417    c-2.31-2.083-3.466-4.78-3.466-8.089c0-4.167,1.45-7.362,4.35-9.583c2.673-2.128,6.116-3.193,10.331-3.193    c4.575,0,8.246,1.248,11.008,3.738c2.856,2.493,4.395,6.028,4.621,10.603h-2.175c-0.091-3.942-1.426-7.022-4.009-9.243    c-2.493-2.131-5.686-3.195-9.582-3.195c-3.625,0-6.549,0.908-8.767,2.719c-2.403,1.903-3.603,4.622-3.603,8.154    c0,2.538,0.997,4.737,2.99,6.593c1.496,1.358,4.711,2.673,9.65,3.942c0.092,0.046,0.214,0.08,0.373,0.101    c0.159,0.024,0.352,0.08,0.578,0.171c5.212,1.404,8.79,2.716,10.738,3.939c3.443,2.22,5.166,5.37,5.166,9.447    c0,4.53-1.609,8.065-4.827,10.601c-2.944,2.267-6.749,3.398-11.417,3.398c-4.938,0-8.857-1.425-11.757-4.281    c-2.944-2.763-4.575-6.635-4.893-11.62H881.253z"
         id="path59" /><path
         d="M921.486,147.509c0.271,4.258,1.663,7.646,4.178,10.16c2.517,2.515,5.948,3.771,10.298,3.771    c3.805,0,6.977-0.951,9.515-2.854c2.897-2.083,4.35-4.939,4.35-8.563c0-3.759-1.52-6.591-4.555-8.496    c-1.496-0.995-4.756-2.175-9.787-3.533c-0.045-0.046-0.339-0.137-0.884-0.272c-5.618-1.584-9.173-3.058-10.668-4.417    c-2.312-2.083-3.466-4.78-3.466-8.089c0-4.167,1.45-7.362,4.35-9.583c2.673-2.128,6.116-3.193,10.329-3.193    c4.574,0,8.245,1.248,11.01,3.738c2.854,2.493,4.396,6.028,4.622,10.603h-2.175c-0.092-3.942-1.429-7.022-4.01-9.243    c-2.492-2.131-5.686-3.195-9.582-3.195c-3.627,0-6.549,0.908-8.769,2.719c-2.401,1.903-3.601,4.622-3.601,8.154    c0,2.538,0.995,4.737,2.989,6.593c1.495,1.358,4.712,2.673,9.651,3.942c0.09,0.046,0.214,0.08,0.373,0.101    c0.159,0.024,0.35,0.08,0.578,0.171c5.21,1.404,8.788,2.716,10.738,3.939c3.44,2.22,5.163,5.37,5.163,9.447    c0,4.53-1.608,8.065-4.824,10.601c-2.947,2.267-6.752,3.398-11.416,3.398c-4.939,0-8.86-1.425-11.758-4.281    c-2.947-2.763-4.578-6.635-4.893-11.62H921.486z"
         id="path61" /></g><g
       id="g63"><g
         id="g65"><path
           fill="#00B3EE"
           d="M769.931,384.567l13.035-3.846c-0.38-4.915-1.139-9.72-2.256-14.386l-13.592,0.364l-2.09-6.377     l11.24-7.704c-1.868-4.508-4.083-8.85-6.617-12.973l-12.821,4.558l-3.959-5.423l8.294-10.77     c-3.16-3.699-6.604-7.143-10.303-10.302l-10.77,8.272l-5.438-3.928l4.566-12.836c-4.118-2.531-8.452-4.741-12.966-6.618     l-7.706,11.229l-6.387-2.054l0.376-13.614c-4.667-1.12-9.475-1.876-14.387-2.256l-3.846,13.04h-6.709l-3.851-13.04     c-4.91,0.38-9.714,1.137-14.381,2.256l0.371,13.614l-6.382,2.071l-7.706-11.247c-4.515,1.876-8.845,4.087-12.968,6.618     l4.563,12.836l-5.431,3.949l-10.772-8.293c-3.703,3.159-7.143,6.603-10.302,10.302l8.286,10.77l-3.938,5.438l-12.84-4.566     c-2.528,4.121-4.744,8.458-6.612,12.971l11.241,7.707l-2.074,6.386l-13.611-0.378c-1.117,4.669-1.879,9.474-2.257,14.384     l13.036,3.846l0.005,6.713l-13.041,3.847c0.381,4.91,1.14,9.719,2.262,14.381l13.606-0.371l2.078,6.389l-11.243,7.704     c1.868,4.508,4.082,8.845,6.615,12.966l12.831-4.562l3.954,5.426l-8.294,10.772c3.16,3.704,6.604,7.143,10.297,10.302     l10.772-8.282l5.44,3.938l-4.566,12.836c4.118,2.528,8.458,4.744,12.968,6.61l7.704-11.229l6.386,2.066l-0.375,13.604     c4.669,1.122,9.476,1.881,14.389,2.256l3.846-13.019l6.709-0.019l3.848,13.038c4.911-0.378,9.717-1.137,14.384-2.256     l-0.368-13.591l6.376-2.088l7.702,11.239c4.518-1.871,8.85-4.086,12.971-6.625l-4.557-12.816l5.423-3.957l10.775,8.292     c3.692-3.155,7.14-6.604,10.297-10.3l-8.277-10.77l3.933-5.436l12.836,4.559c2.533-4.116,4.744-8.451,6.61-12.966l-11.223-7.699     l2.058-6.381l13.608,0.366c1.117-4.669,1.876-9.469,2.256-14.384l-13.016-3.846L769.931,384.567z M690.952,434.047     c-25.476,0-46.131-20.65-46.131-46.126c0-25.479,20.655-46.129,46.131-46.129c25.474,0,46.126,20.65,46.126,46.129     C737.078,413.397,716.426,434.047,690.952,434.047z"
           id="path67" /><path
           d="M691.511,474.988l-3.867-13.107l-4.867,0.015l-3.871,13.093l-0.992-0.074c-4.932-0.378-9.837-1.149-14.584-2.288     l-0.972-0.233l0.377-13.681l-4.63-1.498l-7.75,11.294l-0.922-0.383c-4.539-1.878-8.96-4.132-13.141-6.7l-0.853-0.522l4.59-12.905     l-3.945-2.857l-10.834,8.33l-0.759-0.65c-3.752-3.205-7.263-6.719-10.435-10.439l-0.648-0.761l8.337-10.83l-2.865-3.938     l-12.908,4.588l-0.522-0.85c-2.563-4.173-4.818-8.592-6.702-13.139l-0.383-0.925l11.306-7.747l-1.507-4.636l-13.683,0.373     l-0.233-0.97c-1.139-4.73-1.91-9.633-2.291-14.577l-0.077-0.994l13.11-3.868v-4.87l-13.11-3.867l0.077-0.995     c0.376-4.911,1.146-9.813,2.286-14.577l0.233-0.973l13.688,0.38l1.503-4.633l-11.304-7.75l0.383-0.925     c1.876-4.53,4.13-8.954,6.703-13.144l0.52-0.85l12.913,4.59l2.856-3.945l-8.334-10.832l0.647-0.761     c3.203-3.748,6.714-7.258,10.442-10.437l0.761-0.65l10.832,8.342l3.94-2.866l-4.59-12.908l0.85-0.523     c4.169-2.56,8.59-4.816,13.142-6.707l0.925-0.383l7.749,11.311l4.629-1.502l-0.374-13.691l0.971-0.233     c4.729-1.134,9.633-1.902,14.577-2.285l0.994-0.077l3.873,13.113h4.864l3.868-13.113l0.997,0.077     c4.946,0.383,9.85,1.151,14.579,2.285l0.974,0.233l-0.381,13.688l4.634,1.491l7.749-11.297l0.925,0.383     c4.561,1.896,8.982,4.152,13.139,6.707l0.854,0.523l-4.591,12.905l3.942,2.849l10.835-8.323l0.759,0.65     c3.728,3.184,7.241,6.695,10.437,10.437l0.65,0.761l-8.34,10.83l2.871,3.935l12.896-4.585l0.522,0.851     c2.558,4.161,4.816,8.585,6.709,13.146l0.381,0.922l-11.304,7.747l1.517,4.626l13.671-0.366l0.234,0.973     c1.137,4.735,1.902,9.64,2.288,14.577l0.077,0.997l-13.11,3.865l0.014,4.865l13.097,3.868l-0.077,0.997     c-0.384,4.93-1.151,9.835-2.288,14.574l-0.234,0.973l-13.686-0.368l-1.488,4.628l11.285,7.743l-0.38,0.925     c-1.884,4.556-4.139,8.975-6.7,13.139l-0.521,0.85l-12.907-4.583l-2.853,3.942l8.326,10.832l-0.648,0.761     c-3.2,3.745-6.711,7.256-10.437,10.435l-0.761,0.65l-10.832-8.337l-3.934,2.869l4.579,12.891l-0.849,0.522     c-4.171,2.569-8.592,4.829-13.144,6.714l-0.922,0.383l-7.748-11.301l-4.623,1.515l0.37,13.671l-0.972,0.233     c-4.74,1.137-9.648,1.908-14.577,2.286L691.511,474.988z M664.879,470.457c3.995,0.91,8.101,1.556,12.231,1.917l3.821-12.939     l8.552-0.024l3.824,12.963c4.133-0.364,8.236-1.007,12.229-1.917l-0.365-13.508l8.129-2.661l7.656,11.171     c3.798-1.624,7.497-3.514,11.021-5.63l-4.527-12.737l6.912-5.045l10.712,8.243c3.097-2.704,6.034-5.643,8.751-8.756     l-8.227-10.702l5.014-6.929l12.762,4.533c2.109-3.519,3.995-7.217,5.618-11.02l-11.154-7.651l2.625-8.135l13.523,0.364     c0.911-3.993,1.554-8.096,1.917-12.226l-12.937-3.822l-0.023-8.549l12.96-3.824c-0.366-4.135-1.006-8.241-1.917-12.229     l-13.503,0.361l-2.666-8.128l11.175-7.658c-1.628-3.808-3.516-7.509-5.625-11.027l-12.739,4.53l-5.048-6.911l8.245-10.705     c-2.719-3.111-5.656-6.049-8.756-8.759l-10.702,8.219l-6.931-5.006l4.537-12.761c-3.516-2.104-7.215-3.993-11.021-5.623     l-7.657,11.157l-8.14-2.618l0.373-13.534c-3.981-0.905-8.087-1.548-12.227-1.915l-3.824,12.961h-8.554l-3.824-12.961     c-4.142,0.364-8.246,1.009-12.227,1.915l0.368,13.532l-8.135,2.639l-7.658-11.176c-3.8,1.628-7.499,3.516-11.022,5.625     l4.537,12.756l-6.923,5.033l-10.707-8.244c-3.097,2.705-6.035,5.645-8.756,8.759l8.236,10.702l-5.021,6.931l-12.761-4.539     c-2.12,3.54-4.005,7.239-5.621,11.024l11.169,7.658l-2.64,8.14l-13.529-0.376c-0.91,4.01-1.553,8.111-1.914,12.227l12.954,3.822     l0.01,8.559l-12.963,3.822c0.363,4.14,1.009,8.241,1.919,12.224l13.524-0.369l2.649,8.143l-11.176,7.656     c1.621,3.795,3.509,7.494,5.621,11.02l12.751-4.533l5.04,6.914l-8.241,10.709c2.697,3.092,5.635,6.033,8.751,8.756l10.705-8.231     l6.931,5.019l-4.537,12.761c3.531,2.112,7.229,3.998,11.022,5.616l7.656-11.16l8.14,2.635L664.879,470.457z M685.202,429.031     c-26.117,0-47.364-21.245-47.364-47.359s21.247-47.362,47.364-47.362c26.115,0,47.359,21.247,47.359,47.362     S711.316,429.031,685.202,429.031z M685.202,336.775c-24.756,0-44.898,20.14-44.898,44.896c0,24.754,20.143,44.894,44.898,44.894     c24.751,0,44.893-20.14,44.893-44.894C730.095,356.915,709.953,336.775,685.202,336.775z"
           id="path69" /></g><g
         id="g71"><path
           fill="#231F20"
           d="M563.454,576.557H422.882v-34.091h140.571V576.557z M425.349,574.09h135.639v-29.157H425.349V574.09z"
           id="path73" /></g><g
         id="g75"><path
           fill="#FFEDC3"
           d="M568.856,531.057c0.347-0.388,8.33-9.702,8.33-20.93V380.102c0-11.244-9.144-20.391-20.39-20.391     c-11.232,0-20.378,9.147-20.378,20.391v42.208c-0.691,1.108-2.962,3.93-8.036,3.933c-0.039,0.005-3.86,0.178-6.008-1.83     c-1.089-1.016-1.628-2.483-1.628-4.484l-0.053-100.732c0.021-0.091,1.825-9.175,8.667-13.575l34.078-36.835     c2.457-1.712,17.306-12.952,17.306-34.324c0-3.056-0.318-6.213-0.93-9.382l-0.407-1.006c-0.202-0.318-2.126-3.16-5.753-3.882     c-2.547-0.51-5.163,0.147-7.961,2.076l-88.233,71.846c-0.499,0.385-12.272,9.654-12.272,23.691c0,0.007,0,0.012,0,0.012v170.312     c0.012,0.152,0.551,10.923-3.208,17.96l-17.844,43.86h113.317L568.856,531.057z"
           id="path77" /><path
           fill="#231F20"
           d="M552.397,544.933H436.552l18.536-45.559c3.648-6.849,3.126-17.31,3.119-17.414l-0.002-170.394     c0-14.632,12.229-24.274,12.751-24.679l88.207-71.827c3.164-2.189,6.068-2.91,8.982-2.329c4.157,0.829,6.319,4.063,6.553,4.429     l0.508,1.207c0.7,3.501,1.021,6.736,1.021,9.845c0,21.539-14.507,32.987-17.725,35.258l-34.225,36.939     c-6.078,3.906-7.932,11.877-8.125,12.773l0.077,100.497c0,1.635,0.404,2.806,1.238,3.581c1.531,1.433,4.342,1.505,4.889,1.505     l0.077-0.01l0.2,0.005c4.048-0.003,6.018-1.968,6.803-3.074v-41.834c0-11.923,9.695-21.624,21.611-21.624     c11.923,0,21.623,9.7,21.623,21.624v130.025c0,11.885-8.554,21.652-8.638,21.748L552.397,544.933z M440.217,542.466h110.789     l11.046-18.298c0.214-0.271,8.152-9.333,8.152-20.291V373.852c0-10.563-8.595-19.157-19.157-19.157     c-10.558,0-19.146,8.595-19.146,19.157v42.562l-0.188,0.299c-0.845,1.356-3.424,4.508-9.074,4.513     c-0.053,0.002-0.154,0.005-0.284,0.005c-1.276,0-4.479-0.209-6.572-2.167c-1.342-1.25-2.021-3.061-2.021-5.384l-0.053-100.884     l0.036-0.147c0.207-0.973,2.254-9.751,9.062-14.228l34.175-36.896c2.801-1.953,16.778-12.741,16.778-33.312     c0-2.952-0.306-6.03-0.905-9.149l-0.342-0.778c0,0.002,0,0.002,0,0.002c-0.024,0-1.7-2.509-4.85-3.138     c-2.254-0.448-4.522,0.162-7.022,1.883l-88.154,71.786c-0.506,0.392-11.817,9.31-11.817,22.735v170.324     c0.005,0.009,0.602,11.135-3.354,18.541L440.217,542.466z"
           id="path79" /></g><g
         id="g81"><polygon
           fill="#78568A"
           points="429.866,581.574 413.295,581.574 413.295,728.087 584.529,728.087 584.529,581.574      567.97,581.574    "
           id="polygon83" /><path
           fill="#231F20"
           d="M580.012,723.07H406.312V574.09h173.701V723.07z M408.778,720.604h168.769V576.557H408.778V720.604z"
           id="path85" /></g><g
         id="g87"><path
           fill="#231F20"
           d="M947.519,576.557H806.947v-34.091h140.571V576.557z M809.414,574.09h135.639v-29.157H809.414V574.09z"
           id="path89" /></g><g
         id="g91"><path
           fill="#FFEDC3"
           d="M813.045,531.057c-0.345-0.388-8.328-9.702-8.328-20.93V380.102c0-11.244,9.144-20.391,20.39-20.391     c11.229,0,20.377,9.147,20.377,20.391v42.208c0.693,1.108,2.963,3.93,8.035,3.933c0.038,0.005,3.86,0.178,6.009-1.83     c1.091-1.016,1.631-2.483,1.631-4.484l0.052-100.732c-0.022-0.091-1.824-9.175-8.669-13.575l-34.076-36.835     c-2.455-1.712-17.305-12.952-17.305-34.324c0-3.056,0.317-6.213,0.93-9.382l0.404-1.006c0.202-0.318,2.128-3.16,5.753-3.882     c2.548-0.51,5.166,0.147,7.965,2.076l88.232,71.846c0.496,0.385,12.272,9.654,12.272,23.691c0,0.007,0,0.012,0,0.012v170.312     c-0.012,0.152-0.552,10.923,3.205,17.96l17.845,43.86H824.451L813.045,531.057z"
           id="path93" /><path
           fill="#231F20"
           d="M933.853,544.933H818.006l-11.769-19.487c0.003,0,0.003,0,0.003,0c-0.027,0-8.506-9.734-8.506-21.568     V373.852c0-11.923,9.697-21.624,21.622-21.624c11.916,0,21.609,9.7,21.609,21.624v41.834c0.787,1.105,2.76,3.071,6.803,3.074     l0.276,1.238v-1.233c0.548,0,3.36-0.072,4.893-1.502c0.833-0.778,1.237-1.948,1.237-3.583l0.053-100.6     c-0.356-1.529-2.326-8.957-8.102-12.67l-0.24-0.2l-33.987-36.739c-3.214-2.271-17.722-13.717-17.722-35.258     c0-3.111,0.32-6.348,0.951-9.616l0.475-1.235c0.338-0.566,2.5-3.8,6.654-4.629c2.911-0.581,5.84,0.159,8.903,2.269l88.313,71.906     c0.498,0.388,12.727,10.052,12.727,24.647v170.324c-0.009,0.19-0.551,10.616,3.062,17.38L933.853,544.933z M819.396,542.466     h110.792l-17.156-42.162c-3.902-7.292-3.302-18.425-3.292-18.531l-0.005-170.206c0-13.414-11.314-22.355-11.796-22.73     l-88.258-71.863c-2.398-1.647-4.69-2.273-6.939-1.823c-3.208,0.638-4.884,3.225-4.956,3.335l-0.305,0.807     c-0.534,2.885-0.838,5.965-0.838,8.92c0,20.576,13.978,31.359,16.778,33.312l0.199,0.174l33.973,36.725     c6.645,4.363,8.718,12.619,9.067,14.237l0.034,0.287l-0.054,100.732c0,2.324-0.68,4.135-2.022,5.387     c-2.091,1.956-5.294,2.165-6.573,2.165c-0.433-0.002-0.433-0.017-0.447-0.015c-5.483,0-8.063-3.147-8.91-4.5l-0.188-0.301     v-42.562c0-10.563-8.587-19.157-19.143-19.157c-10.562,0-19.156,8.595-19.156,19.157v130.025c0,10.96,7.935,20.02,8.017,20.111     L819.396,542.466z"
           id="path95" /></g><g
         id="g97"><polygon
           fill="#78568A"
           points="952.035,581.574 968.605,581.574 968.605,728.087 797.372,728.087 797.372,581.574      813.93,581.574    "
           id="polygon99" /><path
           fill="#231F20"
           d="M964.089,723.07h-173.7V574.09h173.7V723.07z M792.854,720.604h168.769V576.557H792.854V720.604z"
           id="path101" /></g><g
         id="g103"><rect
           x="720.997"
           y="574.09"
           fill="#231F20"
           width="70.625"
           height="2.467"
           id="rect105" /></g><g
         id="g107"><rect
           x="720.997"
           y="624.445"
           fill="#231F20"
           width="70.625"
           height="2.467"
           id="rect109" /></g><g
         id="g111"><rect
           x="578.779"
           y="720.604"
           fill="#231F20"
           width="70.625"
           height="2.466"
           id="rect113" /></g><g
         id="g115"><rect
           x="578.779"
           y="692.041"
           fill="#231F20"
           width="46.645"
           height="2.466"
           id="rect117" /></g><g
         id="g119"><rect
           x="685.202"
           y="598.98"
           fill="#231F20"
           width="106.42"
           height="2.467"
           id="rect121" /></g></g><g
       id="g123"><g
         id="g125"><g
           id="g127"><path
             d="M1186.442,270.519h-35.4v-1.233c0-13.517-3.155-26.425-9.383-38.37l-0.67-1.283l1.373-0.458      c7.506-2.507,14.603-6.066,21.089-10.577l0.833-0.581l0.729,0.706c13.818,13.392,21.429,31.35,21.429,50.563V270.519z       M1153.5,268.053h30.467c-0.313-17.738-7.365-34.297-19.95-46.851c-6.056,4.106-12.611,7.413-19.521,9.85      C1150.295,242.627,1153.319,255.061,1153.5,268.053z"
             id="path129" /></g><g
           id="g131"><path
             d="M1164.284,320.552l-0.831-0.581c-6.492-4.511-13.587-8.07-21.093-10.574l-1.371-0.458l0.667-1.283      c6.228-11.947,9.386-24.857,9.386-38.37v-1.233h35.4v1.233c0,19.215-7.61,37.17-21.429,50.56L1164.284,320.552z       M1144.494,307.521c6.906,2.437,13.463,5.743,19.522,9.847c12.585-12.552,19.637-29.108,19.95-46.849H1153.5      C1153.313,283.343,1150.213,296.08,1144.494,307.521z"
             id="path133" /></g><g
           id="g135"><path
             d="M1142.146,231.848l-0.486-0.935c-6.155-11.821-15.196-22.128-26.15-29.806l-3.215-2.254l3.926,0.012      c18.306,0.053,35.636,7.104,48.794,19.858l1.074,1.043l-1.228,0.855c-6.682,4.647-13.987,8.313-21.718,10.895L1142.146,231.848z       M1120.135,201.455c9.556,7.386,17.521,16.773,23.215,27.384c6.664-2.317,12.995-5.469,18.847-9.385      C1150.604,208.696,1135.841,202.394,1120.135,201.455z"
             id="path137" /></g><g
           id="g139"><path
             d="M1067.752,320.552l-0.728-0.706c-13.818-13.396-21.428-31.352-21.428-50.56v-1.233h35.396v1.233      c0,13.51,3.159,26.417,9.385,38.37l0.667,1.283l-1.371,0.458c-7.501,2.504-14.596,6.063-21.088,10.574L1067.752,320.552z       M1048.072,270.519c0.313,17.734,7.364,34.292,19.949,46.849c6.06-4.104,12.615-7.413,19.517-9.847      c-5.795-11.581-8.822-24.017-9.002-37.002H1048.072z"
             id="path141" /></g><g
           id="g143"><path
             d="M1080.992,270.519h-35.396v-1.233c0-19.213,7.609-37.168,21.428-50.563l0.728-0.706l0.833,0.581      c6.49,4.513,13.585,8.072,21.088,10.577l1.371,0.458l-0.667,1.283c-6.226,11.948-9.385,24.855-9.385,38.37V270.519z       M1048.072,268.053h30.464c0.18-12.989,3.205-25.425,9.002-37.001c-6.905-2.437-13.457-5.743-19.517-9.85      C1055.435,233.758,1048.385,250.314,1048.072,268.053z"
             id="path145" /></g><g
           id="g147"><path
             d="M1088.674,309.729l-0.484-0.932c-6.412-12.308-9.664-25.601-9.664-39.511v-1.233h38.727v37.06h-1.232      c-8.959,0-17.823,1.44-26.347,4.284L1088.674,309.729z M1081.002,270.519c0.183,12.713,3.174,24.884,8.898,36.209      c8.074-2.584,16.433-3.952,24.886-4.072v-32.137H1081.002z"
             id="path149" /></g><g
           id="g151"><path
             d="M1117.252,270.519h-38.727v-1.233c0-13.915,3.252-27.208,9.664-39.511l0.484-0.932l0.999,0.333      c8.528,2.841,17.39,4.281,26.347,4.281h1.232V270.519z M1081.002,268.053h33.784v-32.14c-8.45-0.12-16.812-1.488-24.886-4.069      C1084.176,243.165,1081.185,255.335,1081.002,268.053z"
             id="path153" /></g><g
           id="g155"><path
             d="M1153.508,270.519h-38.722v-37.063h1.233c8.958,0,17.82-1.44,26.343-4.281l0.997-0.333l0.486,0.932      c6.411,12.301,9.662,25.594,9.662,39.511V270.519z M1117.252,268.053h33.782c-0.181-12.72-3.171-24.891-8.898-36.209      c-8.071,2.581-16.431,3.949-24.884,4.069V268.053z"
             id="path157" /></g><g
           id="g159"><path
             d="M1143.357,309.729l-0.997-0.332c-8.518-2.844-17.383-4.284-26.341-4.284h-1.233v-37.06h38.722v1.233      c0,13.717-3.343,27.381-9.664,39.511L1143.357,309.729z M1117.252,302.656c8.453,0.12,16.813,1.488,24.882,4.072      c5.726-11.321,8.72-23.492,8.9-36.209h-33.782V302.656z"
             id="path161" /></g><g
           id="g163"><path
             d="M1089.893,231.848l-0.999-0.332c-7.728-2.582-15.034-6.247-21.715-10.895l-1.23-0.855l1.076-1.043      c13.163-12.753,30.492-19.805,48.796-19.858l3.93-0.012l-3.218,2.254c-10.953,7.677-19.998,17.984-26.155,29.806      L1089.893,231.848z M1069.84,219.454c5.857,3.916,12.184,7.068,18.844,9.385c5.698-10.613,13.664-19.998,23.22-27.384      C1096.202,202.396,1081.438,208.696,1069.84,219.454z"
             id="path165" /></g><g
           id="g167"><polygon
             points="1116.217,201.332 1116.094,201.329 1115.974,200.477 1115.877,200.624 1115.824,201.332 1111.877,201.332       1116.033,198.461 1119.916,201.192     "
             id="polygon169" /></g><g
           id="g171"><path
             d="M1117.252,235.923h-1.232c-9.222,0-18.348-1.483-27.126-4.407l-1.37-0.458l0.666-1.282      c6.34-12.175,15.652-22.786,26.927-30.687l0.317-0.224h1.624l0.194,1.231V235.923z M1091.063,229.625      c7.707,2.42,15.673,3.704,23.724,3.822v-31.083C1105.009,209.604,1096.857,218.969,1091.063,229.625z"
             id="path173" /></g><g
           id="g175"><path
             d="M1116.02,235.923h-1.233v-37.06h1.62l0.519,0.227c11.275,7.904,20.585,18.514,26.921,30.687l0.67,1.282l-1.373,0.458      C1134.367,234.439,1125.242,235.923,1116.02,235.923z M1117.252,202.365v31.083c8.054-0.118,16.02-1.401,23.721-3.822      C1135.181,218.969,1127.031,209.604,1117.252,202.365z"
             id="path177" /></g><g
           id="g179"><path
             d="M1112.283,339.718l3.219-2.254c10.952-7.675,19.997-17.982,26.154-29.809l0.484-0.932l1,0.333      c7.728,2.581,15.034,6.247,21.72,10.892l1.228,0.855l-1.074,1.042c-13.158,12.754-30.49,19.807-48.799,19.861L1112.283,339.718z       M1143.35,309.734c-5.7,10.613-13.666,20-23.22,27.384c15.708-0.939,30.474-7.242,42.066-18.001      C1156.339,315.203,1150.011,312.051,1143.35,309.734z"
             id="path181" /></g><g
           id="g183"><path
             d="M1119.747,339.718l-3.927-0.012c-18.313-0.054-35.642-7.107-48.796-19.861l-1.076-1.042l1.23-0.855      c6.685-4.648,13.989-8.311,21.715-10.892l0.997-0.333l0.486,0.932c6.157,11.824,15.202,22.131,26.155,29.809L1119.747,339.718z       M1069.84,319.116c11.59,10.76,26.355,17.062,42.063,18.001c-9.554-7.386-17.52-16.773-23.22-27.384      C1082.028,312.051,1075.699,315.203,1069.84,319.116z"
             id="path185" /></g><g
           id="g187"><polygon
             points="1116.171,339.971 1115.292,339.605 1115.824,338.808 1115.149,339.507 1111.687,337.24 1120.352,337.24     "
             id="polygon189" /></g><g
           id="g191"><path
             d="M1117.252,339.707h-1.818l-0.317-0.224c-11.274-7.901-20.585-18.514-26.927-30.686l-0.666-1.283l1.37-0.458      c8.775-2.926,17.899-4.409,27.126-4.409h1.232V339.707z M1091.063,308.946c5.795,10.654,13.949,20.022,23.724,27.258v-31.082      C1106.733,305.24,1098.765,306.526,1091.063,308.946z"
             id="path193" /></g><g
           id="g195"><path
             d="M1116.6,339.707h-1.813v-37.06h1.233c9.226,0,18.348,1.483,27.121,4.409l1.37,0.458l-0.667,1.281      c-6.341,12.176-15.65,22.789-26.926,30.688L1116.6,339.707z M1117.252,305.123v31.08c9.774-7.236,17.924-16.6,23.719-27.256      C1133.271,306.526,1125.306,305.24,1117.252,305.123z"
             id="path197" /></g></g><g
         id="g199"><rect
           x="1114.983"
           y="150.375"
           width="2.467"
           height="32.378"
           id="rect201" /></g><g
         id="g203"><path
           d="M1115.824,151.607c-7.889,0-14.31-6.42-14.31-14.309c0-7.89,6.421-14.31,14.31-14.31c7.89,0,14.31,6.42,14.31,14.31     C1130.134,145.188,1123.714,151.607,1115.824,151.607z M1115.824,125.455c-6.531,0-11.844,5.313-11.844,11.844     c0,6.531,5.313,11.843,11.844,11.843s11.844-5.313,11.844-11.843C1127.668,130.767,1122.355,125.455,1115.824,125.455z"
           id="path205" /></g><g
         id="g207"><rect
           x="1039.609"
           y="184.834"
           transform="matrix(0.5878 0.809 -0.809 0.5878 585.7735 -777.473)"
           width="32.379"
           height="2.465"
           id="rect209" /></g><g
         id="g211"><path
           d="M1038.29,176.932c-4.57,0-8.903-2.206-11.588-5.9c-4.636-6.384-3.217-15.35,3.164-19.988     c2.464-1.79,5.366-2.733,8.4-2.733c4.57,0,8.904,2.206,11.588,5.9c2.249,3.092,3.154,6.873,2.557,10.649     c-0.597,3.776-2.63,7.092-5.721,9.336C1044.229,175.985,1041.324,176.932,1038.29,176.932z M1038.267,150.777     c-2.511,0-4.913,0.782-6.95,2.261c-5.281,3.838-6.457,11.26-2.62,16.544c2.225,3.059,5.809,4.884,9.594,4.884     c2.509,0,4.913-0.782,6.95-2.264c2.561-1.859,4.244-4.604,4.736-7.728c0.494-3.126-0.257-6.254-2.116-8.814     C1045.638,152.602,1042.052,150.777,1038.267,150.777z"
           id="path213" /></g><g
         id="g215"><rect
           x="1002.194"
           y="236.123"
           transform="matrix(0.9511 0.3089 -0.3089 0.9511 123.1462 -303.0079)"
           width="32.38"
           height="2.466"
           id="rect217" /></g><g
         id="g219"><path
           d="M990.435,242.999c-1.5,0-2.99-0.236-4.426-0.704c-7.504-2.437-11.627-10.526-9.189-18.03     c1.924-5.917,7.393-9.89,13.605-9.89c1.498,0,2.986,0.236,4.427,0.703c7.503,2.439,11.624,10.526,9.185,18.03     C1002.114,239.025,996.647,242.999,990.435,242.999z M990.425,216.84c-5.144,0-9.669,3.29-11.26,8.186     c-2.019,6.21,1.396,12.905,7.604,14.923c1.189,0.388,2.422,0.583,3.665,0.583c5.144,0,9.666-3.29,11.256-8.186     c0.978-3.01,0.728-6.22-0.708-9.038c-1.436-2.817-3.887-4.908-6.895-5.885C992.896,217.036,991.662,216.84,990.425,216.84z"
           id="path221" /></g><g
         id="g223"><rect
           x="1017.027"
           y="284.651"
           transform="matrix(0.3084 0.9512 -0.9512 0.3084 990.3666 -760.5629)"
           width="2.466"
           height="32.384"
           id="rect225" /></g><g
         id="g227"><path
           d="M990.546,324.573c-6.214,0-11.683-3.973-13.607-9.89c-2.435-7.501,1.687-15.591,9.188-18.033     c1.437-0.467,2.925-0.703,4.426-0.703c6.216,0,11.683,3.976,13.604,9.893c2.439,7.501-1.681,15.588-9.185,18.03     C993.531,324.337,992.043,324.573,990.546,324.573z M990.553,298.413c-1.24,0-2.473,0.195-3.663,0.583     c-6.208,2.021-9.621,8.716-7.605,14.926c1.593,4.896,6.118,8.185,11.262,8.185c1.237,0,2.47-0.195,3.663-0.583     c6.21-2.021,9.62-8.715,7.603-14.924C1000.222,301.702,995.697,298.413,990.553,298.413z"
           id="path229" /></g><g
         id="g231"><rect
           x="1054.246"
           y="336.085"
           transform="matrix(0.8088 0.5881 -0.5881 0.8088 409.0473 -553.4061)"
           width="2.466"
           height="32.381"
           id="rect233" /></g><g
         id="g235"><path
           d="M1038.584,390.495c-3.034,0-5.938-0.944-8.401-2.733c-6.385-4.638-7.801-13.606-3.162-19.988     c2.682-3.694,7.012-5.9,11.583-5.9c3.034,0,5.938,0.946,8.404,2.736c6.377,4.636,7.798,13.601,3.164,19.985     C1047.489,388.289,1043.157,390.495,1038.584,390.495z M1038.604,364.339c-3.786,0-7.369,1.826-9.59,4.884     c-3.839,5.284-2.664,12.703,2.617,16.544c2.04,1.479,4.443,2.261,6.953,2.261c3.786,0,7.374-1.826,9.595-4.884     c3.833-5.284,2.657-12.703-2.62-16.542C1043.519,365.122,1041.112,364.339,1038.604,364.339z"
           id="path237" /></g><g
         id="g239"><rect
           x="1114.586"
           y="355.822"
           width="2.467"
           height="32.381"
           id="rect241" /></g><g
         id="g243"><path
           d="M1116.215,415.591h-0.006c-7.889-0.005-14.304-6.425-14.304-14.312c0-7.889,6.417-14.31,14.308-14.31     c7.889,0,14.309,6.418,14.311,14.31C1130.523,409.166,1124.104,415.586,1116.215,415.591z M1116.213,389.435     c-6.529,0-11.842,5.313-11.842,11.844c0,6.526,5.313,11.841,11.842,11.846c6.533-0.004,11.846-5.319,11.846-11.846     C1128.055,394.748,1122.74,389.435,1116.213,389.435z"
           id="path245" /></g><g
         id="g247"><rect
           x="1160.045"
           y="351.278"
           transform="matrix(0.5878 0.809 -0.809 0.5878 770.0063 -806.27)"
           width="32.381"
           height="2.465"
           id="rect249" /></g><g
         id="g251"><path
           d="M1193.768,390.266c-4.571,0-8.905-2.206-11.589-5.9c-2.246-3.092-3.154-6.873-2.557-10.649     c0.597-3.774,2.63-7.092,5.724-9.339c2.462-1.79,5.366-2.736,8.4-2.736c4.57,0,8.903,2.208,11.588,5.902     c4.639,6.382,3.221,15.347-3.164,19.988C1199.707,389.322,1196.803,390.266,1193.768,390.266z M1193.746,364.108     c-2.51,0-4.913,0.783-6.95,2.264c-2.56,1.861-4.243,4.607-4.736,7.73c-0.496,3.126,0.255,6.254,2.114,8.813     c2.222,3.059,5.809,4.884,9.594,4.884c2.51,0,4.912-0.782,6.952-2.261c5.281-3.841,6.457-11.263,2.621-16.544     C1201.117,365.936,1197.529,364.108,1193.746,364.108z"
           id="path253" /></g><g
         id="g255"><rect
           x="1197.46"
           y="299.988"
           transform="matrix(0.9511 0.3089 -0.3089 0.9511 152.3979 -360.1603)"
           width="32.385"
           height="2.466"
           id="rect257" /></g><g
         id="g259"><path
           d="M1241.61,324.202c-1.499,0-2.987-0.236-4.426-0.703c-3.634-1.18-6.591-3.706-8.327-7.111s-2.04-7.285-0.859-10.921     c1.921-5.917,7.393-9.891,13.605-9.891c1.498,0,2.986,0.236,4.427,0.703c7.499,2.437,11.621,10.526,9.189,18.033     C1253.295,320.229,1247.827,324.202,1241.61,324.202z M1241.604,298.042c-5.144,0-9.669,3.289-11.26,8.185     c-0.979,3.01-0.726,6.221,0.713,9.04c1.435,2.818,3.881,4.908,6.889,5.886c1.192,0.388,2.426,0.583,3.665,0.583     c5.145,0,9.669-3.29,11.264-8.186c2.014-6.213-1.397-12.91-7.605-14.926C1244.077,298.237,1242.845,298.042,1241.604,298.042z"
           id="path261" /></g><g
         id="g263"><rect
           x="1212.542"
           y="221.543"
           transform="matrix(0.3089 0.9511 -0.9511 0.3089 1065.0076 -990.1241)"
           width="2.466"
           height="32.382"
           id="rect265" /></g><g
         id="g267"><path
           d="M1241.484,242.629c-6.217,0-11.686-3.976-13.607-9.893c-2.438-7.504,1.684-15.59,9.186-18.03     c1.439-0.467,2.93-0.706,4.431-0.706c6.213,0,11.68,3.974,13.606,9.889c2.433,7.511-1.69,15.6-9.191,18.037     C1244.47,242.394,1242.981,242.629,1241.484,242.629z M1241.493,216.467c-1.24,0-2.476,0.197-3.665,0.585     c-6.214,2.019-9.624,8.713-7.605,14.924c1.589,4.898,6.117,8.188,11.262,8.188c1.239,0,2.47-0.195,3.662-0.583     c6.208-2.016,9.62-8.713,7.607-14.928C1251.16,219.757,1246.633,216.467,1241.493,216.467z"
           id="path269" /></g><g
         id="g271"><rect
           x="1175.325"
           y="170.11"
           transform="matrix(0.8089 0.5879 -0.5879 0.8089 334.3155 -656.0909)"
           width="2.465"
           height="32.382"
           id="rect273" /></g><g
         id="g275"><path
           d="M1193.43,176.703c-3.034,0-5.938-0.944-8.398-2.733c-6.383-4.636-7.804-13.604-3.17-19.988     c2.688-3.696,7.018-5.902,11.588-5.902c3.035,0,5.939,0.944,8.405,2.733c6.382,4.64,7.8,13.611,3.165,19.993     C1202.336,174.5,1198.004,176.703,1193.43,176.703z M1193.449,150.545c-3.783,0-7.368,1.828-9.592,4.886     c-3.836,5.284-2.66,12.706,2.623,16.544c2.037,1.479,4.44,2.261,6.949,2.261c3.786,0,7.375-1.825,9.595-4.881     c3.836-5.284,2.662-12.708-2.619-16.549C1198.365,151.328,1195.959,150.545,1193.449,150.545z"
           id="path277" /></g></g><g
       id="g279"><g
         id="g281"><path
           fill="#231F20"
           d="M1077.043,667.832c-0.255,0-0.506-0.08-0.744-0.2C1076.519,667.747,1076.772,667.832,1077.043,667.832z"
           id="path283" /></g><g
         id="g285"><g
           id="g287"><path
             fill="#231F20"
             d="M1147.729,767.19c-0.241,0-0.478-0.069-0.687-0.207l-31.844-21.264l-31.844,21.259      c-0.453,0.297-1.048,0.272-1.467-0.071c-0.421-0.348-0.565-0.925-0.355-1.426l32.528-78.314c0.382-0.92,1.895-0.92,2.278,0      l32.525,78.319c0.209,0.501,0.065,1.078-0.356,1.425C1148.281,767.098,1148.005,767.19,1147.729,767.19z M1115.198,743.004      c0.24,0,0.479,0.069,0.687,0.206l29.142,19.464l-29.828-71.82l-29.828,71.814l29.144-19.458      C1114.721,743.073,1114.963,743.004,1115.198,743.004z"
             id="path289" /></g><g
           id="g291"><path
             fill="#231F20"
             d="M1115.203,795.063h-0.005c-17.138,0-33.237-6.669-45.349-18.779      c-12.11-12.108-18.776-28.21-18.776-45.337c0-35.358,28.766-64.125,64.123-64.125c35.358,0,64.125,28.764,64.125,64.12      C1179.321,766.297,1150.56,795.061,1115.203,795.063z M1115.196,669.288c-33.997,0-61.658,27.661-61.658,61.659      c0,16.468,6.412,31.949,18.056,43.593c11.643,11.645,27.125,18.057,43.594,18.057l0.016,1.234v-1.234      c33.994-0.002,61.651-27.66,61.651-61.654C1176.854,696.946,1149.194,669.288,1115.196,669.288z"
             id="path293" /></g></g><g
         id="g295"><path
           fill="#231F20"
           d="M1247.836,697.007c-16.088,0-29.177-13.089-29.177-29.175c0-16.09,13.089-29.178,29.177-29.178     s29.178,13.088,29.178,29.178C1277.014,683.918,1263.924,697.007,1247.836,697.007z M1247.836,641.119     c-14.728,0-26.711,11.983-26.711,26.713c0,14.728,11.983,26.709,26.711,26.709c14.729,0,26.712-11.981,26.712-26.709     C1274.548,653.103,1262.564,641.119,1247.836,641.119z"
           id="path297" /></g><g
         id="g299"><path
           fill="#231F20"
           d="M1173.825,709.398c-0.434,0-0.855-0.229-1.078-0.633c-0.33-0.595-0.118-1.347,0.479-1.679l49.258-27.378     c0.592-0.327,1.345-0.113,1.675,0.479c0.333,0.595,0.116,1.347-0.479,1.679l-49.258,27.379     C1174.232,709.349,1174.027,709.398,1173.825,709.398z"
           id="path301" /></g></g><g
       id="g303"><g
         id="g305"><g
           id="g307"><path
             d="M390.21,327.694h-46.102v-1.233c0-17.975-4.197-35.143-12.479-51.025l-0.667-1.281l1.37-0.46      c9.984-3.335,19.419-8.067,28.043-14.066l0.833-0.581l0.732,0.706c18.23,17.667,28.27,41.358,28.27,66.707V327.694z       M346.567,325.228h41.17c-0.318-23.875-9.794-46.165-26.793-62.996c-8.195,5.589-17.089,10.071-26.474,13.339      C342.319,291.087,346.384,307.779,346.567,325.228z"
             id="path309" /></g><g
           id="g311"><path
             d="M361.209,393.871l-0.831-0.581c-8.628-5.996-18.063-10.728-28.048-14.063l-1.373-0.46l0.67-1.281      c8.282-15.887,12.481-33.055,12.481-51.024v-1.233h46.102v1.233c0,25.351-10.04,49.04-28.27,66.704L361.209,393.871z       M334.468,377.351c9.382,3.268,18.278,7.747,26.476,13.336c16.999-16.829,26.475-39.116,26.793-62.993h-41.17      C346.377,344.91,342.208,362.023,334.468,377.351z"
             id="path313" /></g><g
           id="g315"><path
             d="M332.113,276.369l-0.484-0.935c-8.185-15.721-20.207-29.428-34.774-39.637l-3.215-2.253l3.925,0.012      c24.151,0.068,47.013,9.373,64.375,26.199l1.074,1.042l-1.228,0.855c-8.819,6.134-18.466,10.974-28.674,14.384L332.113,276.369z       M301.483,236.116c13.166,9.938,24.108,22.73,31.839,37.245c9.142-3.15,17.811-7.478,25.806-12.877      C343.326,245.659,323.037,237.098,301.483,236.116z"
             id="path317" /></g><g
           id="g319"><path
             d="M233.389,393.871l-0.729-0.706c-18.228-17.676-28.267-41.363-28.267-66.704v-1.233h46.098v1.233      c0,17.965,4.2,35.133,12.479,51.024l0.667,1.281l-1.37,0.46c-9.975,3.333-19.41,8.064-28.043,14.063L233.389,393.871z       M206.868,327.694c0.313,23.867,9.792,46.155,26.789,62.993c8.199-5.59,17.093-10.071,26.471-13.336      c-7.846-15.526-11.914-32.217-12.097-49.657H206.868z"
             id="path321" /></g><g
           id="g323"><path
             d="M250.49,327.694h-46.098v-1.233c0-25.346,10.04-49.038,28.267-66.707l0.732-0.706l0.833,0.581      c8.626,5.999,18.062,10.733,28.041,14.066l1.373,0.46l-0.67,1.281c-8.279,15.884-12.479,33.053-12.479,51.025V327.694z       M206.868,325.228h41.163c0.183-17.447,4.25-34.139,12.097-49.657c-9.378-3.265-18.274-7.747-26.471-13.339      C216.66,279.065,207.181,301.355,206.868,325.228z"
             id="path325" /></g><g
           id="g327"><path
             d="M261.269,379.56l-0.487-0.933c-8.464-16.25-12.758-33.801-12.758-52.166v-1.233h50.509v48.304h-1.232      c-11.914,0-23.702,1.917-35.035,5.695L261.269,379.56z M250.497,327.694c0.186,17.168,4.217,33.597,11.993,48.862      c10.885-3.516,22.17-5.36,33.577-5.483v-43.379H250.497z"
             id="path329" /></g><g
           id="g331"><path
             d="M298.533,327.694h-50.509v-1.233c0-18.375,4.294-35.925,12.758-52.167l0.487-0.932l0.997,0.332      c11.337,3.778,23.124,5.693,35.035,5.693h1.232V327.694z M250.497,325.228h45.57v-43.381      c-11.405-0.123-22.69-1.965-33.577-5.481C254.714,291.625,250.683,308.053,250.497,325.228z"
             id="path333" /></g><g
           id="g335"><path
             d="M346.574,327.694h-50.507v-48.306h1.233c11.916,0,23.701-1.915,35.032-5.693l0.997-0.332l0.487,0.932      c8.465,16.238,12.758,33.789,12.758,52.167V327.694z M298.533,325.228h45.568c-0.183-17.178-4.214-33.606-11.993-48.862      c-10.882,3.516-22.165,5.358-33.575,5.481V325.228z"
             id="path337" /></g><g
           id="g339"><path
             d="M333.327,379.56l-0.997-0.333c-11.328-3.778-23.114-5.695-35.029-5.695h-1.233v-48.304h50.507v1.233      c0,18.112-4.414,36.151-12.761,52.166L333.327,379.56z M298.533,371.073c11.41,0.123,22.693,1.967,33.573,5.483      c7.778-15.261,11.812-31.689,11.995-48.862h-45.568V371.073z"
             id="path341" /></g><g
           id="g343"><path
             d="M262.482,276.369l-0.997-0.333c-10.201-3.41-19.848-8.248-28.671-14.384l-1.229-0.855l1.074-1.042      c17.368-16.826,40.231-26.131,64.381-26.199l3.925-0.012l-3.215,2.253c-14.567,10.207-26.594,23.914-34.782,39.637      L262.482,276.369z M235.473,260.484c8,5.402,16.667,9.727,25.801,12.877c7.735-14.517,18.683-27.309,31.846-37.245      C271.571,237.101,251.28,245.659,235.473,260.484z"
             id="path345" /></g><g
           id="g347"><polygon
             points="301.729,236.021 297.396,236.02 297.257,235.261 297.093,235.511 297.043,236.021 293.11,236.021       297.313,233.107 298.006,233.589 297.563,234.504 298.235,233.753     "
             id="polygon349" /></g><g
           id="g351"><path
             d="M298.533,281.854h-1.232c-12.176,0-24.227-1.958-35.815-5.818l-1.373-0.458l0.669-1.281      c8.372-16.078,20.663-30.088,35.552-40.518l0.321-0.224h1.621l0.257,1.228V281.854z M263.651,274.148      c10.517,3.352,21.411,5.11,32.417,5.233V237C282.651,246.781,271.492,259.566,263.651,274.148z"
             id="path353" /></g><g
           id="g355"><path
             d="M297.301,281.854h-1.233v-48.304h1.623l0.58,0.229c14.89,10.435,27.182,24.446,35.545,40.518l0.667,1.281l-1.37,0.458      C321.529,279.896,309.481,281.854,297.301,281.854z M298.533,237v42.382c11.011-0.123,21.9-1.881,32.415-5.233      C323.109,259.569,311.952,246.784,298.533,237z"
             id="path357" /></g><g
           id="g359"><path
             d="M293.63,419.379l3.215-2.254c14.567-10.206,26.594-23.913,34.782-39.636l0.486-0.934l0.998,0.332      c10.206,3.413,19.855,8.25,28.677,14.381l1.228,0.855l-1.074,1.043c-17.36,16.828-40.227,26.134-64.385,26.201L293.63,419.379z       M333.322,379.562c-7.737,14.517-18.683,27.309-31.846,37.245c21.558-0.982,41.849-9.543,57.652-24.371      C351.133,387.037,342.461,382.712,333.322,379.562z"
             id="path361" /></g><g
           id="g363"><path
             d="M300.966,419.379l-3.925-0.012c-24.159-0.067-47.022-9.373-64.381-26.201l-1.074-1.043l1.23-0.855      c8.823-6.133,18.468-10.972,28.669-14.381l0.997-0.332l0.487,0.932c8.188,15.723,20.217,29.428,34.782,39.639L300.966,419.379z       M235.473,392.436c15.798,14.828,36.089,23.389,57.649,24.371c-13.163-9.938-24.108-22.73-31.846-37.245      C252.142,382.712,243.472,387.037,235.473,392.436z"
             id="path365" /></g><g
           id="g367"><polygon
             points="297.293,419.843 296.359,419.16 292.97,416.901 301.625,416.901     "
             id="polygon369" /></g><g
           id="g371"><path
             d="M298.533,419.367h-1.878l-0.321-0.224c-14.887-10.435-27.181-24.445-35.552-40.516l-0.669-1.283l1.373-0.458      c11.585-3.863,23.637-5.821,35.815-5.821h1.232V419.367z M263.651,378.774c7.844,14.577,19.003,27.362,32.417,37.147v-42.382      C285.058,373.662,274.167,375.419,263.651,378.774z"
             id="path373" /></g><g
           id="g375"><path
             d="M297.941,419.367h-1.874v-48.301h1.233c12.18,0,24.229,1.958,35.81,5.821l1.373,0.458l-0.67,1.281      c-8.371,16.074-20.662,30.085-35.552,40.518L297.941,419.367z M298.533,373.539v42.376c13.414-9.78,24.571-22.564,32.412-37.142      C320.434,375.419,309.544,373.662,298.533,373.539z"
             id="path377" /></g></g><g
         id="g379"><path
           fill="#FFFFFF"
           d="M234.071,124.221h-77.332c-21.654,0-39.21,17.556-39.21,39.21v68.614c0,21.654,17.556,39.21,39.21,39.21     h56.636l59.904,29.406v-68.616v-10.89v-57.724C273.279,141.777,255.726,124.221,234.071,124.221z"
           id="path381" /><path
           d="M274.512,302.642l-61.424-30.153h-56.349c-22.3,0-40.443-18.144-40.443-40.443v-68.614     c0-22.3,18.143-40.443,40.443-40.443h77.332c22.299,0,40.441,18.143,40.441,40.443V302.642z M156.739,125.455     c-20.941,0-37.977,17.035-37.977,37.977v68.614c0,20.941,17.036,37.977,37.977,37.977h56.922l0.257,0.125l58.127,28.535V163.432     c0-20.942-17.036-37.977-37.975-37.977H156.739z"
           id="path383" /></g><g
         id="g385"><g
           id="g387"><path
             fill="#FFFFFF"
             d="M205.469,166.509v-19.685c0-0.376-0.265-0.701-0.635-0.77c-0.024-0.008-2.416-0.48-5.512-0.48      c-8.073,0-12.518,3.242-12.518,9.132v31.795h-26.639c-5.758,0-10.447,4.682-10.447,10.442v36.838      c0,5.762,4.689,10.446,10.447,10.446h67.718v-57.726L205.469,166.509z"
             id="path389" /><path
             d="M229.115,245.462h-68.951c-6.44,0-11.68-5.241-11.68-11.68v-36.838c0-6.438,5.24-11.675,11.68-11.675h25.406v-30.562      c0-6.586,5.012-10.365,13.751-10.365c3.15,0,5.693,0.479,5.866,0.532c0.824,0.147,1.515,0.98,1.515,1.951v19.133l22.413,19.993      V245.462z M160.164,187.735c-5.079,0-9.214,4.13-9.214,9.209v36.838c0,5.081,4.135,9.214,9.214,9.214h66.485v-55.942      l-22.413-19.993v-19.86c-0.762-0.128-2.623-0.393-4.915-0.393c-5.149,0-11.285,1.37-11.285,7.899v33.028H160.164z"
             id="path391" /></g><g
           id="g393"><path
             fill="#FFFFFF"
             d="M240.303,186.502h-12.421v57.726h12.421c0.436,0,0.788-0.354,0.788-0.785v-56.159      C241.091,186.852,240.739,186.502,240.303,186.502z"
             id="path395" /><path
             d="M240.303,245.462h-13.654v-60.193h13.654c1.115,0,2.021,0.903,2.021,2.016v56.159      C242.324,244.556,241.418,245.462,240.303,245.462z M229.115,242.996h10.743v-55.261h-10.743V242.996z"
             id="path397" /></g></g></g><g
       id="g399"><g
         id="g401"><path
           d="M308.691,703.22H203.198c-11.673,0-21.168-11.044-21.168-24.619V500.039h147.829v178.562     C329.859,692.176,320.363,703.22,308.691,703.22z M184.496,502.504v176.097c0,12.215,8.39,22.153,18.702,22.153h105.493     c10.312,0,18.702-9.938,18.702-22.153V502.504H184.496z"
           id="path403" /></g><g
         id="g405"><path
           d="M347.304,502.504H164.585V479.09h182.719V502.504z M167.051,500.039h177.787v-18.483H167.051V500.039z"
           id="path407" /></g><g
         id="g409"><path
           d="M283.261,481.556h-54.632v-5.922c0-8.436,6.864-15.299,15.302-15.299h24.029c8.438,0,15.302,6.864,15.302,15.299V481.556     z M231.094,479.09h49.7v-3.456c0-7.075-5.758-12.833-12.835-12.833H243.93c-7.078,0-12.836,5.758-12.836,12.833V479.09z"
           id="path411" /></g><g
         id="g413"><rect
           x="198.688"
           y="501.271"
           width="2.466"
           height="173.92"
           id="rect415" /></g><g
         id="g417"><rect
           x="221.096"
           y="501.271"
           width="2.466"
           height="173.92"
           id="rect419" /></g><g
         id="g421"><rect
           x="243.506"
           y="501.271"
           width="2.466"
           height="173.92"
           id="rect423" /></g><g
         id="g425"><rect
           x="265.917"
           y="501.271"
           width="2.466"
           height="173.92"
           id="rect427" /></g><g
         id="g429"><rect
           x="288.328"
           y="501.271"
           width="2.466"
           height="173.92"
           id="rect431" /></g><g
         id="g433"><rect
           x="310.736"
           y="501.271"
           width="2.466"
           height="173.92"
           id="rect435" /></g></g><g
       id="g437"><g
         id="g439"><path
           d="M536.448,895.42l-56.929-46.119H215.046V751.81h364.966v97.491h-43.564V895.42z M217.512,846.835h262.88l53.59,43.411     v-43.411h43.564v-92.56H217.512V846.835z"
           id="path441" /></g><g
         id="g443"><path
           d="M292.262,829.072h-56.717v-56.718h56.717V829.072z M238.011,826.605h51.786V774.82h-51.786V826.605z"
           id="path445" /></g><g
         id="g447"><rect
           x="309.784"
           y="777.286"
           width="246.804"
           height="2.466"
           id="rect449" /></g><g
         id="g451"><rect
           x="309.784"
           y="799.48"
           width="246.804"
           height="2.466"
           id="rect453" /></g><g
         id="g455"><rect
           x="309.784"
           y="821.673"
           width="199.128"
           height="2.467"
           id="rect457" /></g></g><g
       id="g459"><g
         id="g461"><path
           d="M828.007,884.864H670.184v-13.15h144.672v-96.997h13.15V884.864z M672.65,882.398h152.892V777.183h-8.22v96.996H672.65     V882.398z"
           id="path463" /></g><g
         id="g465"><path
           d="M817.322,874.179H659.499v-13.15h144.672v-96.997h13.151V874.179z M661.965,871.714h152.891V766.497h-8.219v96.997     H661.965V871.714z"
           id="path467" /></g><g
         id="g469"><rect
           x="716.27"
           y="778.084"
           width="69.048"
           height="2.465"
           id="rect471" /></g><g
         id="g473"><rect
           x="716.27"
           y="821.751"
           width="69.048"
           height="2.465"
           id="rect475" /></g><g
         id="g477"><rect
           x="716.27"
           y="835.314"
           width="69.048"
           height="2.465"
           id="rect479" /></g><g
         id="g481"><rect
           x="716.27"
           y="809.421"
           width="32.363"
           height="2.466"
           id="rect483" /></g><g
         id="g485"><rect
           x="770.519"
           y="809.421"
           width="14.799"
           height="2.466"
           id="rect487" /></g><g
         id="g489"><path
           d="M702.704,811.887h-33.801v-33.803h33.801V811.887z M671.369,809.421h28.869v-28.872h-28.869V809.421z"
           id="path491" /></g><g
         id="g493"><path
           d="M685.907,838.758h-17.004v-17.007h17.004V838.758z M671.369,836.291h12.072v-12.075h-12.072V836.291z"
           id="path495" /></g><g
         id="g497"><path
           d="M806.638,863.494H648.814V753.347h28.995v7.961h23.846v-7.961h52.143v7.961h23.846v-7.961h28.995V863.494z      M651.28,861.028h152.891V755.813h-24.063v7.961h-28.777v-7.961H704.12v7.961h-28.777v-7.961H651.28V861.028z"
           id="path499" /></g><g
         id="g501"><path
           d="M704.12,763.773h-28.777V749.44c0-2.72,2.215-4.933,4.935-4.933h18.911c2.719,0,4.932,2.213,4.932,4.933V763.773z      M677.809,761.308h23.846V749.44c0-1.361-1.107-2.466-2.466-2.466h-18.911c-1.361,0-2.469,1.104-2.469,2.466V761.308z"
           id="path503" /></g><g
         id="g505"><path
           d="M780.108,763.773h-28.777V749.44c0-2.72,2.213-4.933,4.931-4.933h18.912c2.719,0,4.935,2.213,4.935,4.933V763.773z      M753.797,761.308h23.846V749.44c0-1.361-1.107-2.466-2.469-2.466h-18.912c-1.357,0-2.465,1.104-2.465,2.466V761.308z"
           id="path507" /></g><g
         id="g509"><path
           d="M696.246,746.975h-13.028l2.654-11.456c-0.952-0.989-1.484-2.291-1.484-3.676c0-2.947,2.398-5.344,5.344-5.344     s5.344,2.396,5.344,5.344c0,1.385-0.532,2.687-1.483,3.676L696.246,746.975z M686.319,744.508h6.824l-2.297-9.911l0.628-0.484     c0.72-0.555,1.134-1.383,1.134-2.27c0-1.587-1.291-2.877-2.878-2.877c-1.587,0-2.878,1.29-2.878,2.877     c0,0.887,0.414,1.715,1.134,2.27l0.629,0.484L686.319,744.508z"
           id="path511" /></g><g
         id="g513"><path
           d="M772.231,746.975h-13.026l2.654-11.456c-0.954-0.989-1.483-2.291-1.483-3.676c0-2.947,2.396-5.344,5.341-5.344     c2.947,0,5.347,2.396,5.347,5.344c0,1.385-0.534,2.687-1.483,3.676L772.231,746.975z M762.307,744.508h6.822l-2.294-9.911     l0.626-0.484c0.723-0.555,1.137-1.383,1.137-2.27c0-1.587-1.291-2.877-2.881-2.877c-1.584,0-2.875,1.29-2.875,2.877     c0,0.887,0.411,1.715,1.132,2.27l0.629,0.484L762.307,744.508z"
           id="path515" /></g></g><g
       id="g517"><g
         id="g519"><g
           id="g521"><path
             d="M903.812,846.83v-87.451h111.413v87.494L903.812,846.83z M906.016,825.037l-0.012,19.601h107.02l0.01-19.632      l-32.829-43.511l-22.275,35.42l-22.152-23.672L906.016,825.037z M906.004,821.842l29.772-31.807l21.811,23.304l22.458-35.696      l32.988,43.728v-59.8H906.004V821.842z"
             id="path523" /></g></g><g
         id="g525"><g
           id="g527"><path
             d="M892.455,883.632V747.87h134.173v135.762H892.455z M894.646,881.438h129.791V750.061H894.646V881.438z"
             id="path529" /></g></g><g
         id="g531"><g
           id="g533"><rect
             x="905.732"
             y="866.071"
             width="27.301"
             height="2.195"
             id="rect535" /></g></g><g
         id="g537"><g
           id="g539"><rect
             x="905.732"
             y="856.775"
             width="27.301"
             height="2.191"
             id="rect541" /></g></g><g
         id="g543"><g
           id="g545"><path
             d="M1012.496,874.596c-1.766,0-3.202-1.438-3.202-3.205c0-1.771,1.437-3.212,3.202-3.212c1.77,0,3.21,1.441,3.21,3.212      C1015.706,873.158,1014.266,874.596,1012.496,874.596z"
             id="path547" /></g></g><g
         id="g549"><g
           id="g551"><path
             d="M999.879,874.596c-1.767,0-3.207-1.438-3.207-3.205c0-1.771,1.44-3.212,3.207-3.212c1.769,0,3.203,1.441,3.203,3.212      C1003.082,873.158,1001.647,874.596,999.879,874.596z"
             id="path553" /></g></g><g
         id="g555"><g
           id="g557"><path
             d="M987.251,874.596c-1.763,0-3.2-1.438-3.2-3.205c0-1.771,1.438-3.212,3.2-3.212c1.77,0,3.208,1.441,3.208,3.212      C990.459,873.158,989.021,874.596,987.251,874.596z"
             id="path559" /></g></g></g><g
       id="g561"><path
         d="M1021.766,690.476c-8.43,0-15.285-6.856-15.285-15.284c0-8.43,6.855-15.285,15.285-15.285    c8.429,0,15.284,6.855,15.284,15.285C1037.05,683.619,1030.194,690.476,1021.766,690.476z M1021.766,662.372    c-7.069,0-12.819,5.751-12.819,12.819c0,7.067,5.75,12.818,12.819,12.818c7.068,0,12.818-5.751,12.818-12.818    C1034.584,668.123,1028.834,662.372,1021.766,662.372z"
         id="path563" /></g><g
       id="g565"><g
         id="g567"><path
           fill="#FFFFFF"
           d="M237.014,627.104c-4.371-4.373-11.458-4.373-15.826-0.002l4.566-4.565c4.371-4.371,4.371-11.456,0-15.83     c-4.371-4.368-11.458-4.37-15.83,0l4.227-4.226c4.373-4.371,4.373-11.456,0.003-15.826c-4.374-4.374-11.458-4.372-15.83-0.003     l30.483-30.482c4.371-4.368,4.373-11.454,0-15.827c-4.371-4.371-11.457-4.368-15.827,0.003l-47.776,47.775l-9.428,9.426     l5.052-17.298c1.811-6.203-1.749-12.698-7.95-14.512c-6.201-1.809-12.698,1.748-14.509,7.949l-15.961,57.229l-6.251,6.254     l63.311,63.309l22.96-22.96l26.087-26.087l8.499-8.499C241.385,638.561,241.385,631.473,237.014,627.104z"
           id="path569" /><path
           d="M179.468,702.221l-65.055-65.053l6.897-6.896l15.875-56.918c1.604-5.493,6.704-9.322,12.412-9.322     c1.223,0,2.442,0.176,3.626,0.521c6.844,2.001,10.787,9.197,8.79,16.041l-3.704,12.676l53.799-53.796     c2.348-2.348,5.467-3.641,8.788-3.641c3.316,0,6.437,1.293,8.782,3.638c2.348,2.349,3.642,5.47,3.642,8.788     s-1.295,6.437-3.642,8.782l-25.228,25.229c3.819-0.552,7.797,0.739,10.574,3.513c2.349,2.346,3.639,5.468,3.639,8.786     c0,2.86-0.963,5.575-2.731,7.773c3.838-0.598,7.89,0.693,10.692,3.494c4.625,4.624,4.836,12.015,0.634,16.892     c3.829-0.56,7.839,0.718,10.627,3.506c2.348,2.346,3.641,5.465,3.641,8.785c-0.002,3.318-1.295,6.438-3.641,8.785     L179.468,702.221z M117.9,637.168l61.568,61.565l56.674-56.674c1.881-1.881,2.918-4.384,2.918-7.042     c0-2.661-1.036-5.161-2.918-7.042c-1.881-1.883-4.383-2.919-7.042-2.919c-2.661,0-5.16,1.036-7.041,2.917l-1.744-1.744     c0.005-0.004,0.01-0.009,0.015-0.016l4.551-4.55c3.882-3.882,3.882-10.2,0-14.085c-1.883-1.881-4.383-2.917-7.044-2.917     c-2.661,0-5.161,1.036-7.042,2.917l-1.744-1.744l4.227-4.227c1.883-1.881,2.918-4.383,2.918-7.041     c0-2.659-1.035-5.161-2.916-7.042s-4.383-2.918-7.044-2.918c-2.659,0-5.161,1.035-7.042,2.916l-1.744-1.744     c0.005-0.005,0.01-0.01,0.012-0.012l30.471-30.471c1.881-1.881,2.919-4.381,2.919-7.039c0-2.661-1.036-5.163-2.919-7.044     c-1.878-1.881-4.381-2.917-7.039-2.917c-2.661,0-5.161,1.038-7.044,2.919l-60.609,60.606l6.403-21.921     c1.616-5.539-1.575-11.362-7.111-12.982c-0.961-0.28-1.948-0.422-2.938-0.422c-4.619,0-8.747,3.1-10.042,7.535l-16.043,57.524     L117.9,637.168z"
           id="path571" /></g><g
         id="g573"><line
           fill="#FFFFFF"
           x1="198.324"
           y1="586.651"
           x2="190.63"
           y2="594.348"
           id="line575" /><rect
           x="193.244"
           y="585.058"
           transform="matrix(0.7072 0.707 -0.707 0.7072 474.4294 35.3982)"
           width="2.466"
           height="10.884"
           id="rect577" /></g><g
         id="g579"><line
           fill="#FFFFFF"
           x1="209.924"
           y1="606.706"
           x2="206.458"
           y2="610.174"
           id="line581" /><rect
           x="206.958"
           y="605.99"
           transform="matrix(0.707 0.7072 -0.7072 0.707 491.2914 31.0343)"
           width="2.466"
           height="4.902"
           id="rect583" /></g></g></g><text
     xml:space="preserve"
     style="font-style:normal;font-variant:normal;font-weight:bold;font-stretch:normal;font-size:25px;line-height:100%;font-family:'Roboto Slab';-inkscape-font-specification:'Roboto Slab, Bold';text-align:start;letter-spacing:0px;word-spacing:0px;writing-mode:lr-tb;text-anchor:start;fill:#000000;fill-opacity:1;stroke:none;stroke-width:1px;stroke-linecap:butt;stroke-linejoin:miter;stroke-opacity:1"
     x="107.9661"
     y="6.2288132"
     id="text4736"
     sodipodi:linespacing="100%"><tspan
       sodipodi:role="line"
       id="tspan4738"
       x="107.9661"
       y="6.2288132" /></text>
</svg>