<?xml version="1.0" encoding="UTF-8" standalone="no"?>
<!-- Created with Inkscape (http://www.inkscape.org/) -->

<svg
   xmlns:dc="http://purl.org/dc/elements/1.1/"
   xmlns:cc="http://creativecommons.org/ns#"
   xmlns:rdf="http://www.w3.org/1999/02/22-rdf-syntax-ns#"
   xmlns:svg="http://www.w3.org/2000/svg"
   xmlns="http://www.w3.org/2000/svg"
   xmlns:sodipodi="http://sodipodi.sourceforge.net/DTD/sodipodi-0.dtd"
   xmlns:inkscape="http://www.inkscape.org/namespaces/inkscape"
   id="svg2"
   version="1.1"
   inkscape:version="0.91 r13725"
   xml:space="preserve"
   width="1675.1062"
   height="1200.2201"
   viewBox="0 0 1675.1062 1200.2201"
   sodipodi:docname="business_devel.svg"><metadata
     id="metadata8"><rdf:RDF><cc:Work
         rdf:about=""><dc:format>image/svg+xml</dc:format><dc:type
           rdf:resource="http://purl.org/dc/dcmitype/StillImage" /><dc:title></dc:title></cc:Work></rdf:RDF></metadata><defs
     id="defs6" /><sodipodi:namedview
     pagecolor="#ffffff"
     bordercolor="#666666"
     borderopacity="1"
     objecttolerance="10"
     gridtolerance="10"
     guidetolerance="10"
     inkscape:pageopacity="0"
     inkscape:pageshadow="2"
     inkscape:window-width="3568"
     inkscape:window-height="1511"
     id="namedview4"
     showgrid="false"
     inkscape:zoom="0.77061224"
     inkscape:cx="842.67011"
     inkscape:cy="724.68629"
     inkscape:window-x="0"
     inkscape:window-y="0"
     inkscape:window-maximized="0"
     inkscape:current-layer="g10"
     fit-margin-top="2"
     fit-margin-left="2"
     fit-margin-right="2"
     fit-margin-bottom="2" /><g
     id="g10"
     inkscape:groupmode="layer"
     inkscape:label="ink_ext_XXXXXX"
     transform="matrix(1.25,0,0,-1.25,-32.317375,1191.8473)"><path
       inkscape:connector-curvature="0"
       id="path14"
       style="fill:#8fa4ad;fill-opacity:1;fill-rule:nonzero;stroke:none"
       d="m 576.79352,7.6622895 238.20231,0 0,130.4404705 -238.20231,0 0,-130.4404705 z" /><path
       inkscape:connector-curvature="0"
       id="path16"
       style="fill:#303e45;fill-opacity:1;fill-rule:nonzero;stroke:none"
       d="m 429.33801,-5.098218 533.11679,0 0,12.7573887 -533.11679,0 0,-12.7573887 z" /><path
       inkscape:connector-curvature="0"
       id="path18"
       style="fill:#303e45;fill-opacity:1;fill-rule:nonzero;stroke:none"
       d="m 576.79352,89.727207 238.20231,0 0,48.207863 -238.20231,0 0,-48.207863 z" /><path
       inkscape:connector-curvature="0"
       id="path20"
       style="fill:#393536;fill-opacity:1;fill-rule:nonzero;stroke:none"
       d="m 1363.0061,196.74587 c 0,-32.387 -26.2561,-58.64314 -58.6431,-58.64314 l -1216.933161,0 c -32.388073,0 -58.64314,26.25614 -58.64314,58.64314 l 0,695.15606 c 0,32.38967 26.255067,58.64314 58.64314,58.64314 l 1216.933161,0 c 32.387,0 58.6431,-26.25347 58.6431,-58.64314 l 0,-695.15606" /><path
       inkscape:connector-curvature="0"
       id="path22"
       style="fill:#8fa4ad;fill-opacity:1;stroke:#231f20;stroke-width:2.6655972;stroke-linecap:butt;stroke-linejoin:miter;stroke-miterlimit:10;stroke-dasharray:none;stroke-opacity:1"
       d="m 1363.0061,196.74587 c 0,-32.387 -26.2561,-58.64314 -58.6431,-58.64314 l -1216.933161,0 c -32.388073,0 -58.64314,26.25614 -58.64314,58.64314 l 0,695.15606 c 0,32.38967 26.255067,58.64314 58.64314,58.64314 l 1216.933161,0 c 32.387,0 58.6431,-26.25347 58.6431,-58.64314 l 0,-695.15606 z" /><path
       inkscape:connector-curvature="0"
       id="path24"
       style="fill:#607d8b;fill-opacity:1;fill-rule:nonzero;stroke:none"
       d="m 1363.0061,196.74587 c 0,-32.387 -26.2561,-58.64314 -58.6431,-58.64314 l -1216.933161,0 c -32.388073,0 1216.933161,812.44234 1216.933161,812.44234 32.387,0 58.6431,-26.25347 58.6431,-58.64314 l 0,-695.15606" /><path
       inkscape:connector-curvature="0"
       id="path26"
       style="fill:#ffffff;fill-opacity:1;fill-rule:nonzero;stroke:none"
       d="m 85.417047,197.56954 1220.958153,0 0,699.18084 -1220.958153,0 0,-699.18084 z" /><path
       inkscape:connector-curvature="0"
       id="path54-6"
       style="fill:#cfd8dc;fill-opacity:1;fill-rule:nonzero;stroke:none"
       d="m 608.43418,325.02337 23.684,-66.148 61.853,0 24.418,66.11 c 0.969,2.623 -0.972,5.408 -3.768,5.408 l -102.405,0 c -2.779,0 -4.718,-2.754 -3.782,-5.37" /><path
       inkscape:connector-curvature="0"
       id="path28"
       style="fill:#8fa4ad;fill-opacity:1;fill-rule:nonzero;stroke:none"
       d="m 1307.7083,898.08345 -1223.624052,0 0,-701.8467 1223.624052,0 0,701.8467 z m -2.6656,-2.6656 0,-696.51551 -1218.292855,0 0,696.51551 1218.292855,0" /><path
       inkscape:connector-curvature="0"
       id="path30-4"
       style="fill:#2e2a2b;fill-opacity:1;fill-rule:nonzero;stroke:none"
       d="m 708.65529,922.35638 c 0,-7.04784 -5.71238,-12.76022 -12.76022,-12.76022 -7.04517,0 -12.76021,5.71238 -12.76021,12.76022 0,7.04784 5.71504,12.76021 12.76021,12.76021 7.04784,0 12.76022,-5.71237 12.76022,-12.76021" /><path
       inkscape:connector-curvature="0"
       id="path32-7"
       style="fill:#231f20;fill-opacity:1;fill-rule:nonzero;stroke:none"
       d="m 701.56746,922.18578 c 0,-3.13208 -2.54031,-5.67239 -5.67239,-5.67239 -3.13207,0 -5.67239,2.54031 -5.67239,5.67239 0,3.13208 2.54032,5.67239 5.67239,5.67239 3.13208,0 5.67239,-2.54031 5.67239,-5.67239" /><path
       inkscape:connector-curvature="0"
       id="path30-8"
       style="fill:#f2eb5b;fill-opacity:1;fill-rule:nonzero;stroke:none"
       d="m 796.4899,537.97164 c -0.087,75.842 -61.64,137.253 -137.482,137.166 -75.842,-0.088 -137.253,-61.641 -137.165,-137.482 0.111,-96.521 87.994,-113.388 88.1,-205.186 l 102.737,0.119 c -0.106,91.798 83.925,106.053 83.81,205.383" /><path
       inkscape:connector-curvature="0"
       id="path32-4"
       style="fill:#cfd8dc;fill-opacity:1;fill-rule:nonzero;stroke:none"
       d="m 532.8229,534.95164 c 0.102,-88.805 78.72,-104.658 84.297,-188.781 l 40.12,0.047 0,315.202 c -68.955,-1.035 -124.497,-57.285 -124.417,-126.468" /><path
       inkscape:connector-curvature="0"
       id="path34-5"
       style="fill:#7f97a2;fill-opacity:1;fill-rule:nonzero;stroke:none"
       d="m 785.5169,535.24364 c -0.081,69.779 -56.714,126.281 -126.493,126.201 -0.596,-8e-4 -1.189,-0.016 -1.784,-0.025 l 0,-315.202 48.813,0.056 c 4.868,85.071 79.569,97.579 79.464,188.97" /><path
       inkscape:connector-curvature="0"
       id="path36-0"
       style="fill:#303e45;fill-opacity:1;fill-rule:nonzero;stroke:none"
       d="m 632.8729,360.68064 c -1.994,0 -3.826,1.313 -4.396,3.326 l -37.762,133.241 c -0.688,2.43 0.723,4.958 3.153,5.646 2.428,0.69 4.957,-0.723 5.645,-3.152 l 37.761,-133.241 c 0.689,-2.43 -0.722,-4.958 -3.152,-5.647 -0.416,-0.118 -0.836,-0.173 -1.249,-0.173" /><path
       inkscape:connector-curvature="0"
       id="path38-3"
       style="fill:#303e45;fill-opacity:1;fill-rule:nonzero;stroke:none"
       d="m 689.9839,360.68064 c -0.367,0 -0.739,0.044 -1.11,0.136 -2.451,0.612 -3.942,3.094 -3.331,5.543 l 33.246,133.242 c 0.611,2.452 3.098,3.94 5.543,3.33 2.45,-0.612 3.941,-3.094 3.33,-5.543 l -33.245,-133.242 c -0.519,-2.079 -2.384,-3.466 -4.433,-3.466" /><path
       inkscape:connector-curvature="0"
       id="path40-6"
       style="fill:#303e45;fill-opacity:1;fill-rule:nonzero;stroke:none"
       d="m 611.8759,498.49464 c 0,-7.757 -7.504,-14.045 -16.762,-14.045 -9.257,0 -16.762,6.288 -16.762,14.045 0,7.756 7.505,14.044 16.762,14.044 9.258,0 16.762,-6.288 16.762,-14.044" /><path
       inkscape:connector-curvature="0"
       id="path42-1"
       style="fill:#303e45;fill-opacity:1;fill-rule:nonzero;stroke:none"
       d="m 739.9869,498.49464 c 0,-7.757 -7.505,-14.045 -16.762,-14.045 -9.258,0 -16.762,6.288 -16.762,14.045 0,7.756 7.504,14.044 16.762,14.044 9.257,0 16.762,-6.288 16.762,-14.044" /><path
       inkscape:connector-curvature="0"
       id="path44-0"
       style="fill:#303e45;fill-opacity:1;fill-rule:nonzero;stroke:none"
       d="m 602.0819,496.75864 c 9.361,2.016 18.504,5.789 27.05,10.048 5.573,2.777 15.69,7.177 17.729,13.849 2.054,6.723 -7.699,9.236 -12.543,8.79 -8.347,-0.769 -5.107,-9.747 -2.514,-14.528 4.262,-7.856 9.666,-16.73 18.311,-20.117 11.03,-4.321 20.436,0.662 27.426,9.224 3.539,4.334 11.678,13.439 9.378,19.733 -2.378,6.507 -14.413,1.685 -16.411,-2.915 -3.633,-8.363 11.733,-15.519 17.081,-18.218 13.513,-6.819 27.673,-9.01 42.219,-3.747 2.748,0.994 1.562,5.418 -1.217,4.413 -17.119,-6.194 -36.006,-1.159 -49.945,10.13 -1.432,1.159 -4.606,3.484 -3.933,5.66 0.452,1.459 7.12,4.176 7.928,3.02 0.788,-1.129 -1.82,-5.258 -2.32,-6.147 -1.645,-2.925 -3.604,-5.698 -5.705,-8.311 -5.515,-6.861 -12.403,-12.001 -21.688,-9.013 -6.998,2.253 -10.704,8.231 -14.46,14.077 -1.505,2.344 -3.055,4.765 -4.122,7.348 -0.901,2.178 -2.061,4.416 0.772,4.849 1.077,0.165 6.96,-0.591 7.397,-2.237 0.334,-1.259 -1.53,-2.785 -2.352,-3.552 -5.133,-4.789 -12.15,-7.951 -18.488,-10.782 -6.674,-2.979 -13.65,-5.619 -20.809,-7.161 -2.878,-0.62 -1.66,-5.033 1.216,-4.413" /><path
       inkscape:connector-curvature="0"
       id="path46-6"
       style="fill:#607d8b;fill-opacity:1;fill-rule:nonzero;stroke:none"
       d="m 611.6839,302.22664 c -3.446,0 -6.24,2.791 -6.245,6.238 0,3.448 2.789,6.247 6.237,6.251 l 99.379,0.114 0.01,0 c 3.445,0 6.24,-2.791 6.244,-6.237 0,-3.449 -2.788,-6.247 -6.237,-6.251 l -99.3782,-0.115 -0.01,0" /><path
       inkscape:connector-curvature="0"
       id="path48-3"
       style="fill:#607d8b;fill-opacity:1;fill-rule:nonzero;stroke:none"
       d="m 618.4379,280.58864 c -3.445,0 -6.24,2.791 -6.244,6.237 0,3.448 2.788,6.247 6.237,6.251 l 85.92,0.099 0.01,0 c 3.445,0 6.24,-2.791 6.244,-6.238 0,-3.448 -2.788,-6.247 -6.237,-6.251 l -85.92,-0.098 -0.01,0" /><path
       inkscape:connector-curvature="0"
       id="path50-2"
       style="fill:#607d8b;fill-opacity:1;fill-rule:nonzero;stroke:none"
       d="m 624.5839,260.79664 c -3.446,0 -6.24,2.791 -6.245,6.237 0,3.448 2.789,6.247 6.237,6.251 l 73.675,0.085 0.01,0 c 3.446,0 6.241,-2.791 6.244,-6.237 0,-3.448 -2.788,-6.247 -6.237,-6.251 l -73.674,-0.085 -0.01,0" /><path
       inkscape:connector-curvature="0"
       id="path52-0"
       style="fill:#607d8b;fill-opacity:1;fill-rule:nonzero;stroke:none"
       d="m 636.2479,260.89364 c 0.703,-13.311 11.725,-23.88 25.207,-23.864 13.483,0.016 24.481,10.61 25.153,23.922 l -50.36,-0.058" /><path
       inkscape:connector-curvature="0"
       id="path56-1"
       style="fill:#fae537;fill-opacity:1;fill-rule:nonzero;stroke:none"
       d="m 660.9209,694.79064 c -2.755,0 -4.991,2.233 -4.995,4.99 l -0.06,53.196 c 0,2.759 2.231,4.998 4.989,5.001 l 0.01,0 c 2.756,0 4.992,-2.232 4.995,-4.989 l 0.061,-53.197 c 0,-2.758 -2.231,-4.997 -4.99,-5.001 l -0.01,0" /><path
       inkscape:connector-curvature="0"
       id="path58-5"
       style="fill:#fae537;fill-opacity:1;fill-rule:nonzero;stroke:none"
       d="m 809.9349,593.86964 c -1.695,0 -3.349,0.863 -4.286,2.422 -1.421,2.364 -0.657,5.434 1.707,6.855 l 45.591,27.41 c 2.364,1.422 5.432,0.657 6.855,-1.707 1.421,-2.364 0.657,-5.433 -1.707,-6.854 l -45.591,-27.411 c -0.805,-0.484 -1.693,-0.715 -2.569,-0.715" /><path
       inkscape:connector-curvature="0"
       id="path60-5"
       style="fill:#fae537;fill-opacity:1;fill-rule:nonzero;stroke:none"
       d="m 875.9919,508.82464 -0.058,0 -53.193,0.609 c -2.758,0.032 -4.969,2.293 -4.938,5.052 0.032,2.739 2.262,4.938 4.994,4.938 l 0.058,0 53.192,-0.609 c 2.759,-0.032 4.97,-2.294 4.939,-5.052 -0.032,-2.739 -2.262,-4.938 -4.994,-4.938" /><path
       inkscape:connector-curvature="0"
       id="path62-4"
       style="fill:#fae537;fill-opacity:1;fill-rule:nonzero;stroke:none"
       d="m 824.8259,382.95064 c -1.174,0 -2.354,0.412 -3.303,1.25 l -39.887,35.198 c -2.068,1.826 -2.265,4.982 -0.44,7.05 1.827,2.07 4.983,2.265 7.05,0.441 l 39.886,-35.199 c 2.069,-1.825 2.266,-4.981 0.441,-7.049 -0.988,-1.12 -2.364,-1.691 -3.747,-1.691" /><path
       inkscape:connector-curvature="0"
       id="path64-7"
       style="fill:#fae537;fill-opacity:1;fill-rule:nonzero;stroke:none"
       d="m 438.3309,508.31964 c -2.727,0 -4.956,2.192 -4.994,4.927 -0.037,2.758 2.168,5.025 4.926,5.063 l 53.192,0.731 c 2.747,0.071 5.025,-2.167 5.063,-4.926 0.038,-2.758 -2.167,-5.025 -4.926,-5.062 l -53.191,-0.732 -0.07,-8e-4" /><path
       inkscape:connector-curvature="0"
       id="path66-6"
       style="fill:#fae537;fill-opacity:1;fill-rule:nonzero;stroke:none"
       d="m 489.7869,382.56364 c -1.379,0 -2.752,0.569 -3.74,1.682 -1.83,2.064 -1.64,5.221 0.425,7.051 l 39.805,35.29 c 2.063,1.832 5.221,1.64 7.051,-0.424 1.83,-2.064 1.64,-5.221 -0.424,-7.051 l -39.805,-35.29 c -0.951,-0.844 -2.134,-1.258 -3.312,-1.258" /><path
       inkscape:connector-curvature="0"
       id="path68-5"
       style="fill:#fae537;fill-opacity:1;fill-rule:nonzero;stroke:none"
       d="m 754.8689,667.78364 c -0.988,0 -1.984,0.291 -2.854,0.899 -2.263,1.578 -2.817,4.691 -1.239,6.954 l 30.434,43.63 c 1.579,2.264 4.694,2.817 6.955,1.238 2.262,-1.578 2.817,-4.692 1.239,-6.954 l -30.435,-43.63 c -0.97,-1.392 -2.523,-2.137 -4.1,-2.137" /><path
       inkscape:connector-curvature="0"
       id="path70-6"
       style="fill:#fae537;fill-opacity:1;fill-rule:nonzero;stroke:none"
       d="m 505.5389,593.51864 c -0.872,0 -1.756,0.229 -2.559,0.709 l -45.654,27.306 c -2.367,1.415 -3.139,4.483 -1.723,6.85 1.416,2.367 4.483,3.139 6.851,1.723 l 45.654,-27.304 c 2.367,-1.416 3.139,-4.484 1.723,-6.851 -0.936,-1.564 -2.593,-2.433 -4.292,-2.433" /><path
       inkscape:connector-curvature="0"
       id="path72-9"
       style="fill:#fae537;fill-opacity:1;fill-rule:nonzero;stroke:none"
       d="m 560.4359,667.55964 c -1.574,0 -3.123,0.741 -4.095,2.128 l -30.536,43.559 c -1.583,2.259 -1.035,5.374 1.223,6.958 2.259,1.582 5.374,1.036 6.958,-1.224 l 30.536,-43.559 c 1.583,-2.258 1.035,-5.373 -1.224,-6.957 -0.872,-0.612 -1.872,-0.905 -2.862,-0.905" /><path
       inkscape:connector-curvature="0"
       id="path74-3"
       style="fill:#303e45;fill-opacity:1;fill-rule:nonzero;stroke:none"
       d="m 1039.2729,570.35764 c -30.76,-16.038 -68.83,-4.07 -84.882,26.689 -16.039,30.764 -4.06,68.862 26.702,84.905 30.76,16.044 68.84,4.065 84.89,-26.705 16.04,-30.761 4.06,-68.84 -26.71,-84.889 m -4.19,134.982 c -21.16,6.65 -43.64,4.662 -63.3,-5.593 -19.652,-10.249 -34.14,-27.542 -40.786,-48.69 -11.342,-36.065 3.106,-75.245 35.116,-95.276 l 9.89,-5.74 -15.05,-44.834 20.02,-4.774 13.3,43.42 11.79,-0.618 c 14.68,-0.738 29.39,2.492 42.51,9.337 19.66,10.252 34.14,27.531 40.8,48.673 13.71,43.667 -10.64,90.352 -54.29,104.095" /><path
       inkscape:connector-curvature="0"
       id="path76-7"
       style="fill:#607d8b;fill-opacity:1;fill-rule:nonzero;stroke:none"
       d="m 926.2449,420.57864 c -0.039,-0.146 -1.695,-5.139 0.716,-9.884 1.824,-3.578 5.514,-6.266 10.973,-7.98 5.793,-1.813 10.796,-1.668 14.847,0.445 4.872,2.541 6.842,7.162 6.872,7.195 l 32.92,104.61 -33.16,10.929 -33.168,-105.315" /><path
       inkscape:connector-curvature="0"
       id="path78-4"
       style="fill:#afbec5;fill-opacity:1;fill-rule:nonzero;stroke:none"
       d="m 1010.3029,563.23964 c -21.14,8e-4 -41.64,10.681 -53.42,29.494 -0.858,1.372 -1.685,2.773 -2.449,4.23 -0.015,0.028 -0.029,0.055 -0.043,0.083 -4.824,9.253 -7.114,19.17 -7.12,28.95 -0.014,22.737 12.312,44.737 33.822,55.955 9.26,4.831 19.19,7.119 28.97,7.119 9.37,0 18.62,-2.099 27.04,-6.073 11.52,-5.437 21.48,-14.383 28.09,-26.283 0,-0.002 0,-0.005 0,-0.007 0.03,-0.043 0.05,-0.086 0.08,-0.129 0,-0.008 0.01,-0.019 0.01,-0.026 0.02,-0.038 0.04,-0.075 0.06,-0.113 0.01,-0.009 0.01,-0.022 0.02,-0.031 0.02,-0.037 0.04,-0.075 0.06,-0.113 0.01,-0.009 0.01,-0.018 0.02,-0.027 0.02,-0.046 0.05,-0.091 0.07,-0.136 l 0,-0.003 c 0.03,-0.048 0.05,-0.094 0.08,-0.141 0,-0.009 0.01,-0.022 0.01,-0.031 0.02,-0.036 0.04,-0.07 0.06,-0.105 0.01,-0.017 0.02,-0.032 0.03,-0.048 0.01,-0.03 0.03,-0.061 0.04,-0.091 0.01,-0.017 0.02,-0.034 0.03,-0.051 0.02,-0.029 0.03,-0.059 0.05,-0.088 0.01,-0.017 0.02,-0.035 0.03,-0.052 0.01,-0.031 0.03,-0.062 0.05,-0.093 0,-0.017 0.01,-0.028 0.02,-0.045 0.02,-0.046 0.05,-0.092 0.07,-0.138 l 0,0 c 16.04,-30.761 4.06,-68.84 -26.71,-84.889 l 0,0 c -0.3,-0.156 -0.6,-0.31 -0.9,-0.46 -3.59,-1.8 -7.28,-3.223 -11.01,-4.283 -5.63,-1.6 -11.37,-2.375 -17.06,-2.375" /><path
       inkscape:connector-curvature="0"
       id="path80-5"
       style="fill:#303e45;fill-opacity:1;fill-rule:nonzero;stroke:none"
       d="m 1027.3629,565.61464 c 3.73,1.06 7.42,2.483 11.01,4.283 -3.59,-1.801 -7.27,-3.223 -11.01,-4.283 m 11.91,4.743 0,0 c 30.77,16.049 42.75,54.128 26.71,84.889 16.04,-30.761 4.06,-68.84 -26.71,-84.889 l 0,0 m -84.839,26.606 c -0.014,0.028 -0.029,0.055 -0.043,0.083 -4.824,9.253 -7.114,19.17 -7.12,28.95 0.01,-9.78 2.296,-19.697 7.12,-28.95 0.014,-0.028 0.028,-0.055 0.043,-0.083 m 111.479,58.421 c -0.01,0.017 -0.02,0.028 -0.02,0.045 0,-0.014 0.01,-0.031 0.02,-0.045 m -0.07,0.138 c -0.01,0.017 -0.02,0.035 -0.03,0.052 0.01,-0.018 0.02,-0.035 0.03,-0.052 m -0.08,0.14 c -0.01,0.017 -0.02,0.034 -0.03,0.051 0.01,-0.017 0.02,-0.033 0.03,-0.051 m -0.07,0.142 c -0.01,0.016 -0.02,0.031 -0.03,0.048 0.01,-0.016 0.02,-0.032 0.03,-0.048 m -0.09,0.153 c 0,0.009 -0.01,0.022 -0.01,0.031 0,-0.01 0.01,-0.022 0.01,-0.031 m -0.09,0.172 0,0.003 c 0,-8e-4 0,-0.003 0,-0.003 m -0.07,0.139 c -0.01,0.009 -0.01,0.018 -0.02,0.027 0.01,-0.009 0.01,-0.018 0.02,-0.027 m -0.08,0.14 c -0.01,0.009 -0.01,0.022 -0.02,0.031 0.01,-0.011 0.01,-0.021 0.02,-0.031 m -0.08,0.144 c 0,0.007 -0.01,0.018 -0.01,0.026 0,-0.009 0.01,-0.018 0.01,-0.026 m -0.09,0.155 c 0,0.002 0,0.005 0,0.007 0,-0.002 0,-0.005 0,-0.007" /><path
       inkscape:connector-curvature="0"
       id="path82-2"
       style="fill:#ffffff;fill-opacity:1;fill-rule:nonzero;stroke:none"
       d="m 998.5529,655.53764 c 4.37,-8.374 1.12,-18.704 -7.26,-23.072 -8.37,-4.367 -18.7,-1.119 -23.07,7.256 -4.37,8.374 -1.12,18.704 7.26,23.072 8.37,4.367 18.7,1.119 23.07,-7.256" /><path
       inkscape:connector-curvature="0"
       id="path118-5"
       style="fill:#ffffff;fill-opacity:1;fill-rule:nonzero;stroke:none"
       d="m 524.4879,824.14864 c -3.05,0 -5.944,-0.656 -8.558,-1.827 -5.368,11.91 -17.334,20.205 -31.246,20.205 -13.196,0 -24.643,-7.464 -30.367,-18.397 -11.222,-0.404 -20.197,-9.623 -20.197,-20.943 0,-5.363 2.017,-10.253 5.329,-13.96 l 100.672,0 c 3.313,3.707 5.329,8.597 5.329,13.96 0,11.577 -9.385,20.962 -20.962,20.962" /><path
       inkscape:connector-curvature="0"
       id="path120-4"
       style="fill:#cfd8dc;fill-opacity:1;fill-rule:nonzero;stroke:none"
       d="m 947.2709,796.66764 c 0,-47.879 -70.879,-114.522 -70.879,-114.522 0,0 -70.879,66.643 -70.879,114.522 0,39.146 31.734,70.879 70.879,70.879 39.146,0 70.879,-31.733 70.879,-70.879" /><path
       inkscape:connector-curvature="0"
       id="path122-7"
       style="fill:#ffffff;fill-opacity:1;fill-rule:nonzero;stroke:none"
       d="m 932.8159,802.04264 -2.012,8.723 c -0.401,1.748 -2.166,2.849 -3.926,2.449 l -7.569,-1.766 c -0.125,-0.028 -0.255,-0.035 -0.384,-0.05 1.982,-4.707 3.199,-9.811 3.507,-15.156 0.124,0.044 0.247,0.095 0.374,0.125 l 7.578,1.775 c 1.751,0.396 2.85,2.157 2.432,3.9" /><path
       inkscape:connector-curvature="0"
       id="path124-4"
       style="fill:#ffffff;fill-opacity:1;fill-rule:nonzero;stroke:none"
       d="m 925.9789,771.76464 -6.599,4.116 c -0.108,0.067 -0.204,0.153 -0.304,0.231 -1.998,-4.868 -4.803,-9.32 -8.252,-13.191 0.121,-0.058 0.247,-0.11 0.36,-0.18 l 6.599,-4.116 c 1.527,-0.952 3.561,-0.489 4.516,1.043 l 4.728,7.581 c 0.955,1.531 0.478,3.564 -1.048,4.516" /><path
       inkscape:connector-curvature="0"
       id="path126-4"
       style="fill:#ffffff;fill-opacity:1;fill-rule:nonzero;stroke:none"
       d="m 902.1539,777.49864 c -8.872,-14.225 -27.6,-18.556 -41.819,-9.687 -14.211,8.863 -18.562,27.589 -9.69,41.813 8.871,14.222 27.604,18.557 41.815,9.693 14.219,-8.869 18.564,-27.598 9.694,-41.819 z m -25.762,62.165 c -25.419,0 -46.098,-20.68 -46.098,-46.099 0,-25.419 20.679,-46.099 46.098,-46.099 25.42,0 46.099,20.68 46.099,46.099 0,25.419 -20.679,46.099 -46.099,46.099" /><path
       inkscape:connector-curvature="0"
       id="path128-3"
       style="fill:#ffffff;fill-opacity:1;fill-rule:nonzero;stroke:none"
       d="m 898.7139,793.56264 c 0,-12.325 -9.99,-22.315 -22.314,-22.315 -12.325,0 -22.315,9.99 -22.315,22.315 0,12.324 9.99,22.314 22.315,22.314 12.324,0 22.314,-9.99 22.314,-22.314" /><path
       inkscape:connector-curvature="0"
       id="path130-0"
       style="fill:#ffffff;fill-opacity:1;fill-rule:nonzero;stroke:none"
       d="m 907.0389,827.99464 c 0.058,0.121 0.109,0.246 0.18,0.358 l 4.113,6.611 c 0.951,1.524 0.494,3.539 -1.04,4.495 l -7.592,4.735 c -1.515,0.945 -3.543,0.481 -4.494,-1.043 l -4.12,-6.606 c -0.066,-0.107 -0.152,-0.202 -0.23,-0.301 4.865,-1.998 9.314,-4.802 13.183,-8.249" /><path
       inkscape:connector-curvature="0"
       id="path132-7"
       style="fill:#ffffff;fill-opacity:1;fill-rule:nonzero;stroke:none"
       d="m 858.5149,836.48164 c 0.028,-0.125 0.035,-0.254 0.05,-0.382 4.704,1.979 9.803,3.195 15.142,3.503 -0.043,0.122 -0.093,0.241 -0.123,0.365 l -1.743,7.574 c -0.417,1.758 -2.176,2.855 -3.934,2.453 l -8.705,-2.039 c -1.762,-0.383 -2.86,-2.143 -2.432,-3.899 l 1.745,-7.575" /><path
       inkscape:connector-curvature="0"
       id="path134-8"
       style="fill:#ffffff;fill-opacity:1;fill-rule:nonzero;stroke:none"
       d="m 894.2929,750.65164 c -0.03,0.126 -0.037,0.257 -0.053,0.386 -4.708,-1.983 -9.813,-3.202 -15.158,-3.511 0.044,-0.124 0.096,-0.246 0.125,-0.373 l 1.752,-7.56 c 0.403,-1.777 2.168,-2.878 3.927,-2.449 l 8.7,1.989 c 1.762,0.424 2.858,2.18 2.45,3.929 l -1.743,7.589" /><path
       inkscape:connector-curvature="0"
       id="path136-6"
       style="fill:#ffffff;fill-opacity:1;fill-rule:nonzero;stroke:none"
       d="m 845.7559,759.12664 c -0.058,-0.12 -0.109,-0.244 -0.178,-0.355 l -4.118,-6.602 c -0.954,-1.531 -0.481,-3.559 1.035,-4.504 l 7.592,-4.735 c 1.534,-0.957 3.545,-0.479 4.507,1.048 l 4.117,6.601 c 0.066,0.107 0.151,0.202 0.229,0.302 -4.865,1.997 -9.315,4.8 -13.184,8.245" /><path
       inkscape:connector-curvature="0"
       id="path138-8"
       style="fill:#ffffff;fill-opacity:1;fill-rule:nonzero;stroke:none"
       d="m 826.8029,815.36964 6.61,-4.123 c 0.105,-0.065 0.199,-0.15 0.297,-0.226 1.998,4.867 4.804,9.319 8.252,13.189 -0.119,0.058 -0.242,0.108 -0.353,0.177 l -6.611,4.123 c -1.518,0.947 -3.549,0.478 -4.503,-1.053 l -4.729,-7.581 c -0.955,-1.531 -0.481,-3.559 1.037,-4.506" /><path
       inkscape:connector-curvature="0"
       id="path140-8"
       style="fill:#ffffff;fill-opacity:1;fill-rule:nonzero;stroke:none"
       d="m 830.3539,790.87364 c -0.119,-0.041 -0.237,-0.091 -0.359,-0.119 l -7.584,-1.771 c -1.761,-0.397 -2.857,-2.153 -2.444,-3.933 l 2.018,-8.674 c 0.404,-1.778 2.163,-2.875 3.938,-2.456 l 7.56,1.752 c 0.124,0.028 0.253,0.035 0.38,0.05 -1.982,4.706 -3.2,9.809 -3.509,15.151" /><path
       inkscape:connector-curvature="0"
       id="path142-4"
       style="fill:#607d8b;fill-opacity:1;fill-rule:nonzero;stroke:none"
       d="m 379.5639,697.62564 c 0,-48.753 -72.172,-116.612 -72.172,-116.612 0,0 -72.172,67.859 -72.172,116.612 0,39.859 32.313,72.172 72.172,72.172 39.86,0 72.172,-32.313 72.172,-72.172" /><path
       inkscape:connector-curvature="0"
       id="path148-3"
       style="fill:#cfd8dc;fill-opacity:1;fill-rule:nonzero;stroke:none"
       d="m 333.6023,689.19455 c 0,-16.768 -13.594,-30.362 -30.363,-30.362 -16.768,0 -30.362,13.594 -30.362,30.362 0,16.769 13.594,30.363 30.362,30.363 16.769,0 30.363,-13.594 30.363,-30.363" /><path
       inkscape:connector-curvature="0"
       id="path150-1"
       style="fill:#cfd8dc;fill-opacity:1;fill-rule:nonzero;stroke:none"
       d="m 246.8519,346.41364 c -20.334,-0.002 -36.808,16.492 -36.808,36.799 0,20.32 16.474,36.798 36.808,36.798 20.318,0 36.804,-16.478 36.804,-36.798 0,-20.307 -16.482,-36.799 -36.804,-36.799 z m 52.272,-24.361 8.884,8.893 c 1.823,1.802 1.823,4.729 0,6.534 l -7.754,7.738 c -1.784,1.806 -2.253,5.088 -1.025,7.308 l 6.309,15.329 c 0.72,2.462 3.391,4.452 5.93,4.452 l 10.963,0 c 2.547,-0.002 4.614,2.07 4.614,4.59 l 0,12.614 c 0,2.556 -2.067,4.606 -4.614,4.608 l -10.963,0 c -2.539,-0.002 -5.21,1.992 -5.93,4.436 l -6.309,15.315 c -1.228,2.238 -0.759,5.529 1.025,7.333 l 7.754,7.738 c 1.823,1.804 1.823,4.734 0,6.515 l -8.884,8.926 c -1.815,1.796 -4.738,1.796 -6.53,0 l -7.773,-7.751 c -1.788,-1.791 -5.067,-2.267 -7.296,-1.059 l -15.337,6.321 c -2.442,0.722 -4.428,3.376 -4.428,5.928 l 0,10.97 c 0,2.534 -2.071,4.621 -4.606,4.624 l -12.6,0 c -2.544,0 -4.618,-2.09 -4.618,-4.624 l 0,-10.97 c 0,-2.548 -1.986,-5.202 -4.417,-5.928 l -15.352,-6.321 c -2.218,-1.208 -5.512,-0.732 -7.304,1.059 l -7.765,7.738 c -1.788,1.805 -4.707,1.805 -6.499,8e-4 l -8.923,-8.914 c -1.804,-1.781 -1.804,-4.709 0,-6.515 l 7.75,-7.738 c 1.788,-1.807 2.256,-5.095 1.049,-7.333 l -6.325,-15.3188 c -0.709,-2.44 -3.387,-4.434 -5.919,-4.432 l -10.981,-0.002 c -2.528,4e-4 -4.607,-2.0496 -4.607,-4.6036 l 0,-12.616 c 0,-2.52 2.079,-4.59 4.607,-4.592 l 10.981,0.002 c 2.532,-0.002 5.21,-1.99 5.919,-4.452 l 6.325,-15.329 c 1.207,-2.233 0.739,-5.498 -1.049,-7.308 l -7.75,-7.738 c -1.804,-1.805 -1.804,-4.732 0,-6.53 l 8.923,-8.899 c 1.792,-1.819 4.711,-1.819 6.499,0.002 l 7.761,7.7376 c 1.796,1.796 5.09,2.27 7.316,1.037 l 15.344,-6.313 c 2.431,-0.699 4.417,-3.376 4.417,-5.919 l 0,-10.989 c 0,-2.518 2.074,-4.599 4.618,-4.599 l 12.6,0 c 2.535,0 4.606,2.081 4.606,4.599 l 0,10.989 c 0,2.543 1.99,5.22 4.432,5.919 l 15.337,6.313 c 2.229,1.233 5.508,0.759 7.296,-1.037 l 7.773,-7.744 c 1.792,-1.815 4.715,-1.815 6.53,0.006" /><path
       inkscape:connector-curvature="0"
       id="path152-4"
       style="fill:#607d8b;fill-opacity:1;fill-rule:nonzero;stroke:none"
       d="m 246.8499,341.94964 c -22.788,0 -41.262,18.474 -41.262,41.262 0,22.788 18.474,41.261 41.262,41.261 22.788,0 41.262,-18.473 41.262,-41.261 0,-22.788 -18.474,-41.262 -41.262,-41.262 z m 0,92.164 c -28.113,0 -50.902,-22.79 -50.902,-50.902 0,-28.113 22.789,-50.902 50.902,-50.902 28.112,0 50.902,22.789 50.902,50.902 0,28.112 -22.79,50.902 -50.902,50.902" /><path
       inkscape:connector-curvature="0"
       id="path154-9"
       style="fill:#607d8b;fill-opacity:1;fill-rule:nonzero;stroke:none"
       d="m 263.6899,383.21164 c 0,-9.304 -7.542,-16.846 -16.846,-16.846 -9.303,0 -16.845,7.542 -16.845,16.846 0,9.303 7.542,16.845 16.845,16.845 9.304,0 16.846,-7.542 16.846,-16.845" /><path
       inkscape:connector-curvature="0"
       id="path156-2"
       style="fill:#607d8b;fill-opacity:1;fill-rule:nonzero;stroke:none"
       d="m 352.2119,432.15064 c -11.775,-0.002 -21.316,9.55 -21.316,21.31 0,11.767 9.541,21.31 21.316,21.31 11.766,0 21.313,-9.543 21.313,-21.31 0,-11.76 -9.544,-21.31 -21.313,-21.31 z m 30.271,-14.108 5.144,5.15 c 1.056,1.043 1.056,2.738 0,3.784 l -4.489,4.481 c -1.034,1.046 -1.305,2.946 -0.594,4.232 l 3.653,8.877 c 0.417,1.426 1.964,2.578 3.435,2.578 l 6.348,0 c 1.475,-8e-4 2.672,1.199 2.672,2.658 l 0,7.305 c 0,1.48 -1.197,2.667 -2.672,2.668 l -6.348,0 c -1.471,-8e-4 -3.018,1.154 -3.435,2.569 l -3.653,8.869 c -0.711,1.296 -0.44,3.203 0.594,4.247 l 4.489,4.481 c 1.056,1.045 1.056,2.742 0,3.773 l -5.144,5.169 c -1.051,1.04 -2.744,1.04 -3.782,0 l -4.501,-4.489 c -1.036,-1.037 -2.934,-1.312 -4.225,-0.613 l -8.882,3.661 c -1.414,0.418 -2.564,1.954 -2.564,3.433 l 0,6.353 c 0,1.467 -1.199,2.675 -2.668,2.677 l -7.296,0 c -1.473,0 -2.675,-1.21 -2.675,-2.677 l 0,-6.353 c 0,-1.476 -1.15,-3.013 -2.557,-3.433 l -8.891,-3.661 c -1.284,-0.699 -3.192,-0.424 -4.23,0.613 l -4.496,4.481 c -1.036,1.046 -2.726,1.046 -3.764,8e-4 l -5.167,-5.162 c -1.045,-1.031 -1.045,-2.727 0,-3.773 l 4.488,-4.481 c 1.036,-1.047 1.307,-2.951 0.607,-4.247 l -3.663,-8.8708 c -0.41,-1.413 -1.961,-2.568 -3.427,-2.567 l -6.359,-8e-4 c -1.464,0 -2.668,-1.187 -2.668,-2.666 l 0,-7.306 c 0,-1.459 1.204,-2.658 2.668,-2.659 l 6.359,8e-4 c 1.466,-8e-4 3.017,-1.152 3.427,-2.578 l 3.663,-8.877 c 0.7,-1.293 0.429,-3.184 -0.607,-4.232 l -4.488,-4.481 c -1.045,-1.046 -1.045,-2.741 0,-3.782 l 5.167,-5.153 c 1.038,-1.054 2.728,-1.054 3.764,8e-4 l 4.494,4.481 c 1.04,1.04 2.948,1.315 4.237,0.601 l 8.886,-3.656 c 1.407,-0.405 2.557,-1.955 2.557,-3.428 l 0,-6.364 c 0,-1.458 1.202,-2.663 2.675,-2.663 l 7.296,0 c 1.469,0 2.668,1.205 2.668,2.663 l 0,6.364 c 0,1.473 1.152,3.023 2.566,3.428 l 8.882,3.656 c 1.291,0.714 3.189,0.439 4.225,-0.601 l 4.501,-4.485 c 1.038,-1.051 2.731,-1.051 3.782,0.004" /><path
       inkscape:connector-curvature="0"
       id="path158-0"
       style="fill:#ffffff;fill-opacity:1;fill-rule:nonzero;stroke:none"
       d="m 398.6549,374.88964 c -7.659,0 -13.864,6.212 -13.864,13.861 0,7.654 6.205,13.86 13.864,13.86 7.653,0 13.863,-6.206 13.863,-13.86 0,-7.649 -6.209,-13.861 -13.863,-13.861 z m 19.689,-9.176 3.346,3.35 c 0.687,0.679 0.687,1.781 0,2.461 l -2.92,2.915 c -0.673,0.68 -0.849,1.916 -0.387,2.752 l 2.377,5.774 c 0.271,0.927 1.277,1.677 2.233,1.677 l 4.13,0 c 0.959,-8e-4 1.738,0.78 1.738,1.729 l 0,4.751 c 0,0.963 -0.779,1.735 -1.738,1.736 l -4.13,0 c -0.956,-8e-4 -1.962,0.75 -2.233,1.671 l -2.377,5.768 c -0.462,0.843 -0.286,2.083 0.387,2.762 l 2.92,2.915 c 0.687,0.679 0.687,1.783 0,2.454 l -3.346,3.362 c -0.684,0.677 -1.785,0.677 -2.46,0 l -2.928,-2.92 c -0.673,-0.674 -1.908,-0.853 -2.748,-0.398 l -5.776,2.38 c -0.921,0.272 -1.668,1.272 -1.668,2.233 l 0,4.132 c 0,0.955 -0.781,1.741 -1.735,1.742 l -4.746,0 c -0.958,0 -1.74,-0.787 -1.74,-1.742 l 0,-4.132 c 0,-0.96 -0.748,-1.959 -1.663,-2.233 l -5.783,-2.38 c -0.835,-0.455 -2.076,-0.276 -2.751,0.398 l -2.925,2.915 c -0.673,0.68 -1.773,0.68 -2.448,8e-4 l -3.361,-3.358 c -0.679,-0.671 -0.679,-1.774 0,-2.454 l 2.919,-2.915 c 0.674,-0.68 0.85,-1.919 0.396,-2.762 l -2.383,-5.77 c -0.267,-0.919 -1.276,-1.67 -2.229,-1.669 l -4.137,-8e-4 c -0.952,0 -1.735,-0.772 -1.735,-1.734 l 0,-4.752 c 0,-0.949 0.783,-1.729 1.735,-1.73 l 4.137,10e-4 c 0.953,-8e-4 1.962,-0.75 2.229,-1.677 l 2.383,-5.774 c 0.454,-0.841 0.278,-2.071 -0.396,-2.752 l -2.919,-2.915 c -0.679,-0.68 -0.679,-1.782 0,-2.46 l 3.361,-3.351 c 0.675,-0.686 1.775,-0.686 2.448,0 l 2.924,2.915 c 0.676,0.676 1.917,0.855 2.755,0.391 l 5.78,-2.378 c 0.915,-0.264 1.663,-1.272 1.663,-2.23 l 0,-4.139 c 0,-0.948 0.782,-1.732 1.74,-1.732 l 4.746,0 c 0.954,0 1.735,0.784 1.735,1.732 l 0,4.139 c 0,0.958 0.749,1.966 1.67,2.23 l 5.776,2.378 c 0.84,0.464 2.075,0.285 2.748,-0.391 l 2.928,-2.917 c 0.675,-0.684 1.776,-0.684 2.46,0.002" /><path
       inkscape:connector-curvature="0"
       id="path160-6"
       style="fill:#cfd8dc;fill-opacity:1;fill-rule:nonzero;stroke:none"
       d="m 1074.7729,361.79964 c 20.33,-0.715 36.21,-17.78 35.49,-38.073 -0.71,-20.308 -17.76,-36.195 -38.08,-35.478 -20.31,0.716 -36.2,17.766 -35.48,38.073 0.71,20.294 17.77,36.194 38.07,35.478 z m -51.38,26.189 -9.19,-8.574 c -1.88,-1.737 -1.99,-4.661 -0.23,-6.53 l 7.48,-8.007 c 1.72,-1.867 2.07,-5.164 0.76,-7.339 l -6.84,-15.097 c -0.81,-2.435 -3.55,-4.329 -6.08,-4.24 l -10.96,0.387 c -2.55,0.091 -4.68,-1.907 -4.77,-4.426 l -0.45,-12.605 c -0.09,-2.555 1.91,-4.676 4.45,-4.768 l 10.96,-0.387 c 2.53,-0.087 5.13,-2.174 5.77,-4.642 l 5.76,-15.528 c 1.15,-2.279 0.57,-5.553 -1.28,-7.293 l -8.02,-7.46 c -1.89,-1.738 -1.99,-4.666 -0.23,-6.51 l 8.56,-9.234 c 1.75,-1.859 4.67,-1.962 6.53,-0.23 l 8.04,7.472 c 1.85,1.727 5.14,2.087 7.33,0.801 l 15.1,-6.858 c 2.42,-0.808 4.31,-3.529 4.22,-6.08 l -0.39,-10.964 c -0.09,-2.532 1.91,-4.69 4.44,-4.783 l 12.59,-0.444 c 2.55,-0.09 4.69,1.926 4.78,4.458 l 0.39,10.963 c 0.09,2.547 2.17,5.129 4.62,5.769 l 15.57,5.776 c 2.26,1.128 5.53,0.537 7.26,-1.316 l 7.49,-8.007 c 1.72,-1.867 4.64,-1.97 6.49,-0.231 l 9.23,8.595 c 1.87,1.715 1.97,4.642 0.23,6.51 l -7.47,8.007 c -1.72,1.869 -2.08,5.172 -0.79,7.365 l 6.86,15.087 c 0.8,2.414 3.54,4.312 6.07,4.22 l 10.98,-0.385 c 2.52,-0.089 4.67,1.886 4.76,4.439 l 0.45,12.608 c 0.09,2.518 -1.92,4.661 -4.44,4.752 l -10.98,0.385 c -2.53,0.091 -5.13,2.172 -5.76,4.658 l -5.78,15.542 c -1.12,2.274 -0.54,5.521 1.31,7.266 l 8.02,7.46 c 1.86,1.741 1.97,4.666 0.23,6.526 l -8.61,9.209 c -1.72,1.881 -4.64,1.984 -6.49,0.227 l -8.03,-7.46 c -1.86,-1.731 -5.17,-2.089 -7.35,-0.778 l -15.11,6.85 c -2.4,0.784 -4.29,3.529 -4.21,6.071 l 0.39,10.982 c 0.09,2.517 -1.91,4.669 -4.45,4.759 l -12.59,0.444 c -2.54,0.09 -4.68,-1.917 -4.77,-4.433 l -0.38,-10.983 c -0.1,-2.541 -2.17,-5.146 -4.64,-5.759 l -15.55,-5.768 c -2.27,-1.154 -5.53,-0.564 -7.25,1.294 l -7.5,8.013 c -1.73,1.877 -4.65,1.98 -6.53,0.224" /><path
       inkscape:connector-curvature="0"
       id="path162-8"
       style="fill:#607d8b;fill-opacity:1;fill-rule:nonzero;stroke:none"
       d="m 1074.9329,366.26064 c 22.78,-0.803 40.59,-19.917 39.79,-42.691 -0.81,-22.774 -19.92,-40.584 -42.7,-39.781 -22.77,0.804 -40.58,19.917 -39.78,42.691 0.81,22.774 19.92,40.585 42.69,39.781 z m -3.25,-92.106 c 28.1,-0.991 51.68,20.98 52.67,49.075 0.99,28.095 -20.98,51.674 -49.08,52.666 -28.09,0.991 -51.67,-20.981 -52.66,-49.076 -0.99,-28.095 20.98,-51.674 49.07,-52.665" /><path
       inkscape:connector-curvature="0"
       id="path164-9"
       style="fill:#607d8b;fill-opacity:1;fill-rule:nonzero;stroke:none"
       d="m 1056.6529,325.61864 c 0.33,9.298 8.13,16.569 17.43,16.241 9.3,-0.328 16.57,-8.131 16.24,-17.429 -0.33,-9.298 -8.13,-16.569 -17.43,-16.241 -9.3,0.328 -16.57,8.131 -16.24,17.429" /><path
       inkscape:connector-curvature="0"
       id="path166-2"
       style="fill:#607d8b;fill-opacity:1;fill-rule:nonzero;stroke:none"
       d="m 937.5879,309.52164 c 11.768,-0.414 20.965,-10.296 20.555,-22.049 -0.42,-11.76 -10.29,-20.96 -22.058,-20.545 -11.759,0.415 -20.963,10.288 -20.548,22.049 0.414,11.752 10.29,20.96 22.051,20.545 z m -29.755,15.166 -5.322,-4.965 c -1.093,-1.006 -1.152,-2.7 -0.134,-3.782 l 4.329,-4.636 c 0.996,-1.082 1.2,-2.991 0.445,-4.251 l -3.965,-8.742 c -0.467,-1.411 -2.053,-2.508 -3.523,-2.456 l -6.344,0.224 c -1.474,0.053 -2.713,-1.104 -2.764,-2.563 l -0.258,-7.299 c -0.052,-1.48 1.102,-2.708 2.576,-2.762 l 6.345,-0.223 c 1.469,-0.051 2.974,-1.26 3.341,-2.689 l 3.339,-8.992 c 0.665,-1.32 0.326,-3.216 -0.743,-4.223 l -4.646,-4.32 c -1.092,-1.007 -1.151,-2.703 -0.133,-3.771 l 4.96,-5.347 c 1.014,-1.077 2.705,-1.136 3.779,-0.133 l 4.657,4.327 c 1.071,1 2.978,1.208 4.244,0.464 l 8.747,-3.972 c 1.399,-0.468 2.494,-2.044 2.441,-3.521 l -0.224,-6.349 c -0.051,-1.466 1.105,-2.716 2.572,-2.77 l 7.292,-0.257 c 1.472,-0.052 2.715,1.115 2.767,2.581 l 0.224,6.349 c 0.052,1.475 1.256,2.971 2.677,3.341 l 9.014,3.345 c 1.308,0.653 3.205,0.311 4.207,-0.762 l 4.33,-4.637 c 1,-1.081 2.69,-1.141 3.77,-0.134 l 5.34,4.977 c 1.08,0.994 1.14,2.689 0.13,3.771 l -4.32,4.636 c -1,1.083 -1.2,2.995 -0.46,4.266 l 3.97,8.736 c 0.46,1.398 2.05,2.497 3.52,2.445 l 6.36,-0.224 c 1.46,-0.051 2.7,1.093 2.76,2.571 l 0.25,7.301 c 0.05,1.459 -1.11,2.699 -2.57,2.752 l -6.35,0.223 c -1.47,0.053 -2.98,1.258 -3.34,2.698 l -3.35,9 c -0.65,1.317 -0.31,3.197 0.76,4.208 l 4.64,4.32 c 1.08,1.008 1.14,2.702 0.14,3.779 l -4.99,5.333 c -1,1.089 -2.69,1.149 -3.76,0.131 l -4.65,-4.319 c -1.07,-1.003 -2.99,-1.21 -4.253,-0.451 l -8.751,3.967 c -1.393,0.454 -2.487,2.044 -2.435,3.515 l 0.224,6.361 c 0.052,1.457 -1.107,2.703 -2.579,2.755 l -7.292,0.257 c -1.467,0.052 -2.708,-1.11 -2.759,-2.567 l -0.223,-6.36 c -0.054,-1.472 -1.258,-2.98 -2.686,-3.335 l -9.004,-3.34 c -1.316,-0.669 -3.203,-0.327 -4.202,0.749 l -4.34,4.64 c -1,1.087 -2.692,1.147 -3.78,0.13" /><path
       inkscape:connector-curvature="0"
       id="path168-6"
       style="fill:#607d8b;fill-opacity:1;fill-rule:nonzero;stroke:none"
       d="m 948.3049,288.22464 c 0,-6.333 -5.134,-11.467 -11.467,-11.467 -6.333,0 -11.467,5.134 -11.467,11.467 0,6.333 5.134,11.467 11.467,11.467 6.333,0 11.467,-5.134 11.467,-11.467" /><text
       sodipodi:linespacing="100%"
       id="text4136"
       y="-254.38135"
       x="379.07928"
       style="font-style:normal;font-variant:normal;font-weight:normal;font-stretch:normal;font-size:54.75181198px;line-height:100%;font-family:'Roboto Slab';-inkscape-font-specification:'Roboto Slab, Normal';text-align:start;letter-spacing:0px;word-spacing:0px;writing-mode:lr-tb;text-anchor:start;fill:#303e45;fill-opacity:1;stroke:none;stroke-width:1px;stroke-linecap:butt;stroke-linejoin:miter;stroke-opacity:1;"
       xml:space="preserve"
       transform="scale(1,-1)"><tspan
         y="-254.38135"
         x="379.07928"
         id="tspan4138"
         sodipodi:role="line">BPMN</tspan></text>
<circle
       style="color:#000000;display:inline;overflow:visible;visibility:visible;fill:#ff5252;fill-opacity:1;stroke:#ff5252;stroke-width:1.49931622px;stroke-linecap:butt;stroke-linejoin:miter;stroke-miterlimit:4;stroke-dasharray:none;stroke-dashoffset:0;stroke-opacity:1;marker:none;enable-background:accumulate"
       id="path4567-7"
       cx="414.50906"
       cy="-306.35889"
       r="4.9977207"
       transform="scale(1,-1)" /><circle
       style="color:#000000;display:inline;overflow:visible;visibility:visible;fill:#ff5252;fill-opacity:1;stroke:#ff5252;stroke-width:1.49931622px;stroke-linecap:butt;stroke-linejoin:miter;stroke-miterlimit:4;stroke-dasharray:none;stroke-dashoffset:0;stroke-opacity:1;marker:none;enable-background:accumulate"
       id="path4567-7-3"
       cx="389.8392"
       cy="-306.36136"
       r="4.9977207"
       transform="scale(1,-1)" /><circle
       style="color:#000000;display:inline;overflow:visible;visibility:visible;fill:#ff5252;fill-opacity:1;stroke:#ff5252;stroke-width:1.49931622px;stroke-linecap:butt;stroke-linejoin:miter;stroke-miterlimit:4;stroke-dasharray:none;stroke-dashoffset:0;stroke-opacity:1;marker:none;enable-background:accumulate"
       id="path4567-7-7"
       cx="390.09351"
       cy="-329.63165"
       r="4.9977207"
       transform="scale(1,-1)" /><circle
       style="color:#000000;display:inline;overflow:visible;visibility:visible;fill:#ff5252;fill-opacity:1;stroke:#ff5252;stroke-width:1.49931622px;stroke-linecap:butt;stroke-linejoin:miter;stroke-miterlimit:4;stroke-dasharray:none;stroke-dashoffset:0;stroke-opacity:1;marker:none;enable-background:accumulate"
       id="path4567-7-9"
       cx="414.76257"
       cy="-329.12302"
       r="4.9977207"
       transform="scale(1,-1)" /></g></svg>