<?xml version="1.0" encoding="UTF-8" standalone="no"?>
<!-- Created with Inkscape (http://www.inkscape.org/) -->

<svg
   xmlns:dc="http://purl.org/dc/elements/1.1/"
   xmlns:cc="http://creativecommons.org/ns#"
   xmlns:rdf="http://www.w3.org/1999/02/22-rdf-syntax-ns#"
   xmlns:svg="http://www.w3.org/2000/svg"
   xmlns="http://www.w3.org/2000/svg"
   xmlns:sodipodi="http://sodipodi.sourceforge.net/DTD/sodipodi-0.dtd"
   xmlns:inkscape="http://www.inkscape.org/namespaces/inkscape"
   version="1.1"
   id="svg2"
   inkscape:version="0.91+devel r"
   xml:space="preserve"
   width="1461.3333"
   height="1040"
   viewBox="0 0 1461.3333 1040"
   sodipodi:docname="contentmgm.svg"><metadata
     id="metadata8"><rdf:RDF><cc:Work
         rdf:about=""><dc:format>image/svg+xml</dc:format><dc:type
           rdf:resource="http://purl.org/dc/dcmitype/StillImage" /><dc:title></dc:title></cc:Work></rdf:RDF></metadata><defs
     id="defs6" /><sodipodi:namedview
     pagecolor="#ffffff"
     bordercolor="#666666"
     borderopacity="1"
     objecttolerance="10"
     gridtolerance="10"
     guidetolerance="10"
     inkscape:pageopacity="0"
     inkscape:pageshadow="2"
     inkscape:window-width="2907"
     inkscape:window-height="1861"
     inkscape:document-units="px"
     id="namedview4"
     showgrid="false"
     inkscape:zoom="0.77163462"
     inkscape:cx="729.37068"
     inkscape:cy="520"
     inkscape:window-x="0"
     inkscape:window-y="0"
     inkscape:window-maximized="0"
     inkscape:current-layer="g12" /><g
     id="g10"
     inkscape:groupmode="layer"
     inkscape:label="ink_ext_XXXXXX"
     transform="matrix(1.3333333,0,0,-1.3333333,0,1040)"><g
       id="g12"
       transform="scale(0.1)"><path
         d="m 7814.4,4405.9 h 1624.47 c 82.84,0 150,67.16 150,150 v 868.85 h 700.23 c 82.8,0 150,67.16 150,150 v 990.36 c 0,82.84 -67.2,150 -150,150 H 9170.5 c -82.84,0 -150,-67.16 -150,-150 V 6244.87 H 7814.4 c -82.84,0 -150,-67.16 -150,-150 V 4555.9 c 0,-82.84 67.16,-150 150,-150"
         style="fill:#e9e9e9;fill-opacity:1;fill-rule:nonzero;stroke:none"
         id="path14"
         inkscape:connector-curvature="0" /><path
         d="M 4628.4,4434.4 H 5975 c 190.75,0 345.94,155.18 345.94,345.93 V 6233.8 c 0,190.75 -155.19,345.93 -345.94,345.93 H 4628.4 c -190.74,0 -345.93,-155.18 -345.93,-345.93 V 4780.33 c 0,-190.75 155.19,-345.93 345.93,-345.93"
         style="fill:#e9e9e9;fill-opacity:1;fill-rule:nonzero;stroke:none"
         id="path16"
         inkscape:connector-curvature="0" /><path
         d="m 965.039,4614.9 h 245.431 c -15.73,-23.73 -24.94,-52.16 -24.94,-82.75 v -76 c 0,-82.85 67.16,-150 150,-150 H 2599 c 82.85,0 150,67.15 150,150 v 76 c 0,30.59 -9.21,59.02 -24.94,82.75 h 245.44 c 82.84,0 150,67.15 150,150 v 1671.96 c 0,82.84 -67.16,150 -150,150 H 965.039 c -82.844,0 -150,-67.16 -150,-150 V 4764.9 c 0,-82.85 67.156,-150 150,-150"
         style="fill:#e9e9e9;fill-opacity:1;fill-rule:nonzero;stroke:none"
         id="path18"
         inkscape:connector-curvature="0" /><path
         d="M 933.23,810.492 1139.8,714 c 20.07,-9.379 41.75,-14.09 63.49,-14.09 17.3,0 34.63,2.988 51.21,9.012 37.39,13.578 67.85,41.457 84.69,77.508 l 226.52,484.95 c 9.7,1.48 19.31,3.8 28.67,7.21 37.4,13.58 67.86,41.46 84.7,77.51 l 88.2,188.83 c 26.02,-2.11 52.31,-3.23 78.87,-3.23 534.5,0 969.35,434.86 969.35,969.37 0,534.5 -434.85,969.35 -969.35,969.35 -534.51,0 -969.365,-434.85 -969.365,-969.35 0,-269.73 110.774,-514.03 289.165,-689.93 l -86.41,-185 c -22.05,-47.19 -17.38,-99.98 7.75,-141.4 L 860.813,1009.88 C 825.754,934.828 858.176,845.563 933.23,810.492"
         style="fill:#e9e9e9;fill-opacity:1;fill-rule:nonzero;stroke:none"
         id="path20"
         inkscape:connector-curvature="0" /><path
         d="m 9445.61,3056.92 v -18.24 h -213.36 c -82.85,0 -150,-67.15 -150,-150 V 1591.96 c 0,-82.85 67.15,-150 150,-150 h 213.36 v -56.24 h -820.97 v 56.24 h 161.11 c 82.84,0 150,67.15 150,150 v 1296.72 c 0,82.85 -67.16,150 -150,150 h -161.11 v 18.24 z M 8210.64,1121.71 c 0,-82.84 67.16,-149.999 150,-149.999 h 1348.97 c 82.84,0 150,67.159 150,149.999 v 320.25 h 355.89 c 82.8,0 150,67.15 150,150 v 1296.72 c 0,82.85 -67.2,150 -150,150 h -355.89 v 282.24 c 0,82.84 -67.16,150 -150,150 H 8360.64 c -82.84,0 -150,-67.16 -150,-150 v -282.24 h -408.12 c -82.84,0 -150,-67.15 -150,-150 V 1591.96 c 0,-82.85 67.16,-150 150,-150 h 408.12 v -320.25"
         style="fill:#e9e9e9;fill-opacity:1;fill-rule:nonzero;stroke:none"
         id="path22"
         inkscape:connector-curvature="0" /><path
         d="m 5372.95,1030.91 c 641.99,0 1164.29,522.3 1164.29,1164.29 0,641.98 -522.3,1164.28 -1164.29,1164.28 -641.99,0 -1164.28,-522.3 -1164.28,-1164.28 0,-641.99 522.29,-1164.29 1164.28,-1164.29"
         style="fill:#e9e9e9;fill-opacity:1;fill-rule:nonzero;stroke:none"
         id="path24"
         inkscape:connector-curvature="0" /><path
         d="m 7734.4,4462.56 h 1624.47 c 82.84,0 150,67.16 150,150 v 868.86 h 700.23 c 82.8,0 150,67.15 150,150 v 990.35 c 0,82.84 -67.2,150 -150,150 H 9090.5 c -82.84,0 -150,-67.16 -150,-150 V 6301.53 H 7734.4 c -82.84,0 -150,-67.16 -150,-150 V 4612.56 c 0,-82.84 67.16,-150 150,-150"
         style="fill:#ffffff;fill-opacity:1;fill-rule:nonzero;stroke:none"
         id="path26"
         inkscape:connector-curvature="0" /><path
         d="M 4548.4,4491.06 H 5895 c 190.75,0 345.94,155.19 345.94,345.94 v 1453.47 c 0,190.75 -155.19,345.93 -345.94,345.93 H 4548.4 c -190.74,0 -345.93,-155.18 -345.93,-345.93 V 4837 c 0,-190.75 155.19,-345.94 345.93,-345.94"
         style="fill:#ffffff;fill-opacity:1;fill-rule:nonzero;stroke:none"
         id="path28"
         inkscape:connector-curvature="0" /><path
         d="m 885.039,4671.56 h 245.431 c -15.73,-23.72 -24.94,-52.15 -24.94,-82.75 v -76 c 0,-82.84 67.16,-150 150,-150 H 2519 c 82.85,0 150,67.16 150,150 v 76 c 0,30.6 -9.21,59.03 -24.94,82.75 h 245.44 c 82.84,0 150,67.16 150,150 v 1671.97 c 0,82.84 -67.16,150 -150,150 H 885.039 c -82.844,0 -150,-67.16 -150,-150 V 4821.56 c 0,-82.84 67.156,-150 150,-150"
         style="fill:#ffffff;fill-opacity:1;fill-rule:nonzero;stroke:none"
         id="path30"
         inkscape:connector-curvature="0" /><path
         d="m 853.23,867.16 206.57,-96.5 c 20.07,-9.371 41.75,-14.09 63.49,-14.09 17.3,0 34.63,3 51.21,9.02 37.39,13.582 67.85,41.461 84.69,77.512 l 226.52,484.948 c 9.7,1.47 19.31,3.8 28.67,7.2 37.4,13.59 67.86,41.47 84.7,77.51 l 88.2,188.83 c 26.02,-2.1 52.31,-3.22 78.87,-3.22 534.5,0 969.35,434.85 969.35,969.36 0,534.51 -434.85,969.36 -969.35,969.36 -534.51,0 -969.365,-434.85 -969.365,-969.36 0,-269.72 110.774,-514.03 289.165,-689.93 l -86.415,-185 c -22.039,-47.19 -17.375,-99.97 7.755,-141.39 L 780.813,1066.54 C 745.754,991.488 778.176,902.23 853.23,867.16"
         style="fill:#ffffff;fill-opacity:1;fill-rule:nonzero;stroke:none"
         id="path32"
         inkscape:connector-curvature="0" /><path
         d="m 9365.61,3113.58 v -18.23 h -213.36 c -82.85,0 -150,-67.16 -150,-150 V 1648.62 c 0,-82.84 67.15,-150 150,-150 h 213.36 v -56.24 h -820.97 v 56.24 h 161.11 c 82.84,0 150,67.16 150,150 v 1296.73 c 0,82.84 -67.16,150 -150,150 h -161.11 v 18.23 z M 8130.64,1178.38 c 0,-82.84 67.16,-150 150,-150 h 1348.97 c 82.84,0 150,67.16 150,150 v 320.24 h 355.89 c 82.8,0 150,67.16 150,150 v 1296.73 c 0,82.84 -67.2,150 -150,150 h -355.89 v 282.24 c 0,82.84 -67.16,150 -150,150 H 8280.64 c -82.84,0 -150,-67.16 -150,-150 v -282.24 h -408.12 c -82.84,0 -150,-67.16 -150,-150 V 1648.62 c 0,-82.84 67.16,-150 150,-150 h 408.12 v -320.24"
         style="fill:#ffffff;fill-opacity:1;fill-rule:nonzero;stroke:none"
         id="path34"
         inkscape:connector-curvature="0" /><path
         d="m 5292.95,1087.58 c 641.99,0 1164.29,522.29 1164.29,1164.29 0,641.98 -522.3,1164.27 -1164.29,1164.27 -641.99,0 -1164.28,-522.29 -1164.28,-1164.27 0,-642 522.29,-1164.29 1164.28,-1164.29"
         style="fill:#ffffff;fill-opacity:1;fill-rule:nonzero;stroke:none"
         id="path36"
         inkscape:connector-curvature="0" /><path
         d="m 9254.37,6493.52 v 64.13 H 10145 v -64.13 z M 10145,6351.03 h -612.76 v 64.12 H 10145 Z m -45.1,-657.86 h -217.99 v 246.99 h 217.99 z m -646.04,-61.75 h 755.24 v 990.35 H 9090.5 v -384.74 h 363.36 v -605.61"
         style="fill:#93b0be;fill-opacity:1;fill-rule:nonzero;stroke:none"
         id="path38"
         inkscape:connector-curvature="0" /><path
         d="m 9273.37,5857.04 h -142.5 v 161.49 h 142.5 z m -256.5,-123.5 H 7829.4 v 322.99 H 9016.87 Z M 9005,4821.56 H 7815.15 v 78.37 H 9005 Z m -1189.85,220.87 h 990.35 v -78.37 h -990.35 z m 0,142.5 H 8682 v -78.38 h -866.85 z m 0,142.49 h 790.86 v -78.37 h -790.86 z m 1543.72,824.11 H 7734.4 V 4612.56 h 1624.47 v 1538.97"
         style="fill:#cfd8dc;fill-opacity:1;fill-rule:nonzero;stroke:none"
         id="path40"
         inkscape:connector-curvature="0" /><path
         d="m 4454.59,4980.68 h 114 v -114 h -114 z m 0,318.25 h 114 v -114 h -114 z m 0,318.24 h 114 v -114 h -114 z m 0,318.24 h 114 v -114 h -114 z m 0,318.25 h 114 v -114 h -114 z m 168.62,-1441.6 h 1218.35 v -78.37 H 4623.21 Z m 0,220.87 h 1218.35 v -78.37 H 4623.21 Z m 0,220.87 h 1218.35 v -78.37 H 4623.21 Z m 0,220.87 H 5841.56 V 5396.3 H 4623.21 Z m 0,220.87 h 1218.35 v -78.37 H 4623.21 Z m 0,220.87 h 1218.35 v -78.37 H 4623.21 Z m 0,220.87 h 1218.35 v -78.37 H 4623.21 Z m 0,220.87 h 1218.35 v -78.37 H 4623.21 Z M 5898.56,4980.68 h 114 v -114 h -114 z m 0,318.25 h 114 v -114 h -114 z m 0,318.24 h 114 v -114 h -114 z m 0,318.24 h 114 v -114 h -114 z m 0,318.25 h 114 v -114 h -114 z M 4548.4,4641.06 H 5895 c 108.21,0 195.93,87.73 195.93,195.94 v 1453.47 c 0,108.21 -87.72,195.93 -195.93,195.93 H 4548.4 c -108.21,0 -195.93,-87.72 -195.93,-195.93 V 4837 c 0,-108.21 87.72,-195.94 195.93,-195.94"
         style="fill:#cfd8dc;fill-opacity:1;fill-rule:nonzero;stroke:none"
         id="path42"
         inkscape:connector-curvature="0" /><path
         d="m 1179.53,5420.05 c 0,-52.47 42.53,-95 95,-95 52.47,0 95,42.53 95,95 0,52.46 -42.53,94.99 -95,94.99 -52.47,0 -95,-42.53 -95,-94.99"
         style="fill:#93b0be;fill-opacity:1;fill-rule:nonzero;stroke:none"
         id="path44"
         inkscape:connector-curvature="0" /><path
         d="m 1274.53,5610.04 c 26.23,0 47.5,21.27 47.5,47.5 0,26.24 -21.27,47.5 -47.5,47.5 -26.23,0 -47.5,-21.26 -47.5,-47.5 0,-26.23 21.27,-47.5 47.5,-47.5"
         style="fill:#93b0be;fill-opacity:1;fill-rule:nonzero;stroke:none"
         id="path46"
         inkscape:connector-curvature="0" /><path
         d="m 1445.53,5705.04 c 41.97,0 76,34.03 76,76 0,41.97 -34.03,76 -76,76 -41.98,0 -76,-34.03 -76,-76 0,-41.97 34.02,-76 76,-76"
         style="fill:#93b0be;fill-opacity:1;fill-rule:nonzero;stroke:none"
         id="path48"
         inkscape:connector-curvature="0" /><path
         d="m 1645.02,5648.04 c 31.48,0 57,25.52 57,57 0,31.48 -25.52,57 -57,57 -31.48,0 -57,-25.52 -57,-57 0,-31.48 25.52,-57 57,-57"
         style="fill:#93b0be;fill-opacity:1;fill-rule:nonzero;stroke:none"
         id="path50"
         inkscape:connector-curvature="0" /><path
         d="m 1849.27,5553.04 c 20.99,0 38,17.02 38,38 0,20.99 -17.01,38 -38,38 -20.99,0 -38,-17.01 -38,-38 0,-20.98 17.01,-38 38,-38"
         style="fill:#93b0be;fill-opacity:1;fill-rule:nonzero;stroke:none"
         id="path52"
         inkscape:connector-curvature="0" /><path
         d="m 1939.52,5662.29 c 18.36,0 33.25,14.89 33.25,33.25 0,18.36 -14.89,33.25 -33.25,33.25 -18.37,0 -33.25,-14.89 -33.25,-33.25 0,-18.36 14.88,-33.25 33.25,-33.25"
         style="fill:#93b0be;fill-opacity:1;fill-rule:nonzero;stroke:none"
         id="path54"
         inkscape:connector-curvature="0" /><path
         d="m 1991.77,5814.29 c 34.1,0 61.75,27.64 61.75,61.75 0,34.1 -27.65,61.75 -61.75,61.75 -34.11,0 -61.75,-27.65 -61.75,-61.75 0,-34.11 27.64,-61.75 61.75,-61.75"
         style="fill:#93b0be;fill-opacity:1;fill-rule:nonzero;stroke:none"
         id="path56"
         inkscape:connector-curvature="0" /><path
         d="m 2134.26,5719.29 c 0,26.23 -21.26,47.5 -47.5,47.5 -26.23,0 -47.49,-21.27 -47.49,-47.5 0,-26.23 21.26,-47.5 47.49,-47.5 26.24,0 47.5,21.27 47.5,47.5"
         style="fill:#93b0be;fill-opacity:1;fill-rule:nonzero;stroke:none"
         id="path58"
         inkscape:connector-curvature="0" /><path
         d="m 2134.26,5918.79 c 34.11,0 61.75,27.64 61.75,61.75 0,34.1 -27.64,61.74 -61.75,61.74 -34.1,0 -61.75,-27.64 -61.75,-61.74 0,-34.11 27.65,-61.75 61.75,-61.75"
         style="fill:#93b0be;fill-opacity:1;fill-rule:nonzero;stroke:none"
         id="path60"
         inkscape:connector-curvature="0" /><path
         d="m 2295.76,5842.79 c 20.99,0 38,17.01 38,38 0,20.98 -17.01,38 -38,38 -20.99,0 -38,-17.02 -38,-38 0,-20.99 17.01,-38 38,-38"
         style="fill:#93b0be;fill-opacity:1;fill-rule:nonzero;stroke:none"
         id="path62"
         inkscape:connector-curvature="0" /><path
         d="m 2433.51,5681.29 c 41.97,0 76,34.03 76,76 0,41.97 -34.03,76 -76,76 -41.98,0 -76,-34.03 -76,-76 0,-41.97 34.02,-76 76,-76"
         style="fill:#93b0be;fill-opacity:1;fill-rule:nonzero;stroke:none"
         id="path64"
         inkscape:connector-curvature="0" /><path
         d="m 2447.76,5937.79 c 26.23,0 47.5,21.26 47.5,47.5 0,26.23 -21.27,47.49 -47.5,47.49 -26.24,0 -47.5,-21.26 -47.5,-47.49 0,-26.24 21.26,-47.5 47.5,-47.5"
         style="fill:#93b0be;fill-opacity:1;fill-rule:nonzero;stroke:none"
         id="path66"
         inkscape:connector-curvature="0" /><path
         d="m 2561.75,5880.79 c 26.24,0 47.5,21.26 47.5,47.5 0,26.23 -21.26,47.5 -47.5,47.5 -26.23,0 -47.49,-21.27 -47.49,-47.5 0,-26.24 21.26,-47.5 47.49,-47.5"
         style="fill:#93b0be;fill-opacity:1;fill-rule:nonzero;stroke:none"
         id="path68"
         inkscape:connector-curvature="0" /><path
         d="m 2623.5,6132.53 c 39.35,0 71.25,31.9 71.25,71.25 0,39.35 -31.9,71.25 -71.25,71.25 -39.35,0 -71.25,-31.9 -71.25,-71.25 0,-39.35 31.9,-71.25 71.25,-71.25"
         style="fill:#93b0be;fill-opacity:1;fill-rule:nonzero;stroke:none"
         id="path70"
         inkscape:connector-curvature="0" /><path
         d="m 2661.5,6075.53 c -18.36,0 -33.25,-14.88 -33.25,-33.25 0,-18.36 14.89,-33.25 33.25,-33.25 18.37,0 33.25,14.89 33.25,33.25 0,18.37 -14.88,33.25 -33.25,33.25"
         style="fill:#93b0be;fill-opacity:1;fill-rule:nonzero;stroke:none"
         id="path72"
         inkscape:connector-curvature="0" /><path
         d="m 1117.78,5481.8 c 23.61,0 42.75,19.14 42.75,42.74 0,23.61 -19.14,42.75 -42.75,42.75 -23.61,0 -42.75,-19.14 -42.75,-42.75 0,-23.6 19.14,-42.74 42.75,-42.74"
         style="fill:#93b0be;fill-opacity:1;fill-rule:nonzero;stroke:none"
         id="path74"
         inkscape:connector-curvature="0" /><path
         d="M 1835.02,5021.05 H 2690 v 95 h -854.98 z"
         style="fill:#93b0be;fill-opacity:1;fill-rule:nonzero;stroke:none"
         id="path76"
         inkscape:connector-curvature="0" /><path
         d="m 2243.51,5149.3 h 446.488 v 95 H 2243.51 Z"
         style="fill:#93b0be;fill-opacity:1;fill-rule:nonzero;stroke:none"
         id="path78"
         inkscape:connector-curvature="0" /><path
         d="m 2485.76,5277.55 h 204.238 v 95 H 2485.76 Z"
         style="fill:#93b0be;fill-opacity:1;fill-rule:nonzero;stroke:none"
         id="path80"
         inkscape:connector-curvature="0" /><path
         d="m 1249.63,6094.53 h 62.9023 v 237.5 H 1249.63 Z"
         style="fill:#93b0be;fill-opacity:1;fill-rule:nonzero;stroke:none"
         id="path82"
         inkscape:connector-curvature="0" /><path
         d="m 1164.71,6208 h 62.8984 v 124.031 H 1164.71 Z"
         style="fill:#93b0be;fill-opacity:1;fill-rule:nonzero;stroke:none"
         id="path84"
         inkscape:connector-curvature="0" /><path
         d="m 1079.78,6275.29 h 62.9102 v 56.7422 H 1079.78 Z"
         style="fill:#93b0be;fill-opacity:1;fill-rule:nonzero;stroke:none"
         id="path86"
         inkscape:connector-curvature="0" /><path
         d="m 1389.68,2182.75 h 210.23 v 793.711 h -210.23 z"
         style="fill:#93b0be;fill-opacity:1;fill-rule:nonzero;stroke:none"
         id="path88"
         inkscape:connector-curvature="0" /><path
         d="m 1673.49,2182.75 h 210.223 v 414.492 H 1673.49 Z"
         style="fill:#93b0be;fill-opacity:1;fill-rule:nonzero;stroke:none"
         id="path90"
         inkscape:connector-curvature="0" /><path
         d="m 1957.29,2182.75 h 210.223 v 189.609 H 1957.29 Z"
         style="fill:#93b0be;fill-opacity:1;fill-rule:nonzero;stroke:none"
         id="path92"
         inkscape:connector-curvature="0" /><path
         d="m 1474.03,4721.81 h 826.48 v 76 h -826.48 z"
         style="fill:#cfd8dc;fill-opacity:1;fill-rule:nonzero;stroke:none"
         id="path94"
         inkscape:connector-curvature="0" /><path
         d="m 1393.28,4617.31 h 987.98 v 76 h -987.98 z"
         style="fill:#cfd8dc;fill-opacity:1;fill-rule:nonzero;stroke:none"
         id="path96"
         inkscape:connector-curvature="0" /><path
         d="m 1255.53,4512.81 h 1263.48 v 76 H 1255.53 Z"
         style="fill:#cfd8dc;fill-opacity:1;fill-rule:nonzero;stroke:none"
         id="path98"
         inkscape:connector-curvature="0" /><path
         d="M 2730.05,4954.56 H 1044.48 v 1405.97 h 1685.57 z m -864.16,-111.63 c -23.61,0 -42.75,19.14 -42.75,42.75 0,23.61 19.14,42.75 42.75,42.75 23.61,0 42.75,-19.14 42.75,-42.75 0,-23.61 -19.14,-42.75 -42.75,-42.75 z M 2889.5,6493.52 H 885.039 V 4821.56 H 2889.5 v 1671.96"
         style="fill:#cfd8dc;fill-opacity:1;fill-rule:nonzero;stroke:none"
         id="path100"
         inkscape:connector-curvature="0" /><path
         d="m 4623.21,6279.78 h 1218.35 v 78.3672 H 4623.21 Z"
         style="fill:#93b0be;fill-opacity:1;fill-rule:nonzero;stroke:none"
         id="path102"
         inkscape:connector-curvature="0" /><path
         d="m 4623.21,6058.91 h 1218.35 v 78.3711 H 4623.21 Z"
         style="fill:#93b0be;fill-opacity:1;fill-rule:nonzero;stroke:none"
         id="path104"
         inkscape:connector-curvature="0" /><path
         d="m 4623.21,5838.04 h 1218.35 v 78.3711 H 4623.21 Z"
         style="fill:#93b0be;fill-opacity:1;fill-rule:nonzero;stroke:none"
         id="path106"
         inkscape:connector-curvature="0" /><path
         d="m 7815.15,5249.05 h 790.859 v 78.3711 H 7815.15 Z"
         style="fill:#93b0be;fill-opacity:1;fill-rule:nonzero;stroke:none"
         id="path108"
         inkscape:connector-curvature="0" /><path
         d="m 7815.15,5106.55 h 866.848 v 78.3789 H 7815.15 Z"
         style="fill:#93b0be;fill-opacity:1;fill-rule:nonzero;stroke:none"
         id="path110"
         inkscape:connector-curvature="0" /><path
         d="m 7815.15,4964.06 h 990.348 v 78.3711 H 7815.15 Z"
         style="fill:#93b0be;fill-opacity:1;fill-rule:nonzero;stroke:none"
         id="path112"
         inkscape:connector-curvature="0" /><path
         d="M 7815.15,4821.56 H 9005 v 78.3711 H 7815.15 Z"
         style="fill:#93b0be;fill-opacity:1;fill-rule:nonzero;stroke:none"
         id="path114"
         inkscape:connector-curvature="0" /><path
         d="m 4623.21,5617.17 h 1218.35 v 78.3672 H 4623.21 Z"
         style="fill:#93b0be;fill-opacity:1;fill-rule:nonzero;stroke:none"
         id="path116"
         inkscape:connector-curvature="0" /><path
         d="m 4623.21,5396.3 h 1218.35 v 78.3711 H 4623.21 Z"
         style="fill:#93b0be;fill-opacity:1;fill-rule:nonzero;stroke:none"
         id="path118"
         inkscape:connector-curvature="0" /><path
         d="m 4623.21,5175.43 h 1218.35 v 78.3711 H 4623.21 Z"
         style="fill:#93b0be;fill-opacity:1;fill-rule:nonzero;stroke:none"
         id="path120"
         inkscape:connector-curvature="0" /><path
         d="m 4623.21,4954.56 h 1218.35 v 78.3711 H 4623.21 Z"
         style="fill:#93b0be;fill-opacity:1;fill-rule:nonzero;stroke:none"
         id="path122"
         inkscape:connector-curvature="0" /><path
         d="m 4623.21,4733.69 h 1218.35 v 78.3672 H 4623.21 Z"
         style="fill:#93b0be;fill-opacity:1;fill-rule:nonzero;stroke:none"
         id="path124"
         inkscape:connector-curvature="0" /><path
         d="m 9130.87,5857.04 h 142.5 v 161.492 h -142.5 z"
         style="fill:#93b0be;fill-opacity:1;fill-rule:nonzero;stroke:none"
         id="path126"
         inkscape:connector-curvature="0" /><path
         d="m 9254.37,6493.52 h 890.629 v 64.1289 H 9254.37 Z"
         style="fill:#cfd8dc;fill-opacity:1;fill-rule:nonzero;stroke:none"
         id="path128"
         inkscape:connector-curvature="0" /><path
         d="m 9532.24,6351.03 h 612.758 v 64.1172 H 9532.24 Z"
         style="fill:#cfd8dc;fill-opacity:1;fill-rule:nonzero;stroke:none"
         id="path130"
         inkscape:connector-curvature="0" /><path
         d="m 1766.15,3180.47 c 338.4,0 612.73,-274.33 612.73,-612.74 0,-338.41 -274.33,-612.74 -612.73,-612.74 -338.41,0 -612.74,274.33 -612.74,612.74 0,338.41 274.33,612.74 612.74,612.74 z M 946.785,2567.73 c 0,-452.52 366.845,-819.36 819.365,-819.36 452.51,0 819.35,366.84 819.35,819.36 0,452.52 -366.84,819.36 -819.35,819.36 -452.52,0 -819.365,-366.84 -819.365,-819.36"
         style="fill:#cfd8dc;fill-opacity:1;fill-rule:nonzero;stroke:none"
         id="path132"
         inkscape:connector-curvature="0" /><path
         d="m 1123.29,906.582 264.14,565.508 -206.57,96.49 -264.145,-565.52 206.575,-96.478"
         style="fill:#93b0be;fill-opacity:1;fill-rule:nonzero;stroke:none"
         id="path134"
         inkscape:connector-curvature="0" /><path
         d="m 1463.17,1476.24 97.43,208.59 -327.73,153.09 -97.43,-208.6 327.73,-153.08"
         style="fill:#cfd8dc;fill-opacity:1;fill-rule:nonzero;stroke:none"
         id="path136"
         inkscape:connector-curvature="0" /><path
         d="m 8565.63,2584.35 h -693.48 v 76 h 693.48 z m 0,-204.24 h -693.48 v 76 h 693.48 z m 0,-204.25 h -693.48 v 76 h 693.48 z m 0,-204.24 h -693.48 v 76 h 693.48 z m 140.12,973.73 H 7722.52 V 1648.62 h 983.23 v 1296.73"
         style="fill:#93b0be;fill-opacity:1;fill-rule:nonzero;stroke:none"
         id="path138"
         inkscape:connector-curvature="0" /><path
         d="m 7872.15,2584.35 h 693.477 v 76 H 7872.15 Z"
         style="fill:#cfd8dc;fill-opacity:1;fill-rule:nonzero;stroke:none"
         id="path140"
         inkscape:connector-curvature="0" /><path
         d="m 7872.15,2380.11 h 693.477 v 76 H 7872.15 Z"
         style="fill:#cfd8dc;fill-opacity:1;fill-rule:nonzero;stroke:none"
         id="path142"
         inkscape:connector-curvature="0" /><path
         d="m 7872.15,2175.86 h 693.477 v 76 H 7872.15 Z"
         style="fill:#cfd8dc;fill-opacity:1;fill-rule:nonzero;stroke:none"
         id="path144"
         inkscape:connector-curvature="0" /><path
         d="m 7872.15,1971.62 h 693.477 v 76 H 7872.15 Z"
         style="fill:#cfd8dc;fill-opacity:1;fill-rule:nonzero;stroke:none"
         id="path146"
         inkscape:connector-curvature="0" /><path
         d="m 9995.35,2584.35 h -693.48 v 76 h 693.48 z m 0,-204.24 h -693.48 v 76 h 693.48 z m 0,-204.25 h -693.48 v 76 h 693.48 z m 0,-204.24 h -693.48 v 76 h 693.48 z m 140.15,973.73 H 9152.24 V 1648.62 h 983.26 v 1296.73"
         style="fill:#93b0be;fill-opacity:1;fill-rule:nonzero;stroke:none"
         id="path148"
         inkscape:connector-curvature="0" /><path
         d="m 9301.87,2584.35 h 693.48 v 76 h -693.48 z"
         style="fill:#cfd8dc;fill-opacity:1;fill-rule:nonzero;stroke:none"
         id="path150"
         inkscape:connector-curvature="0" /><path
         d="m 9301.87,2380.11 h 693.48 v 76 h -693.48 z"
         style="fill:#cfd8dc;fill-opacity:1;fill-rule:nonzero;stroke:none"
         id="path152"
         inkscape:connector-curvature="0" /><path
         d="m 9301.87,2175.86 h 693.48 v 76 h -693.48 z"
         style="fill:#cfd8dc;fill-opacity:1;fill-rule:nonzero;stroke:none"
         id="path154"
         inkscape:connector-curvature="0" /><path
         d="m 9301.87,1971.62 h 693.48 v 76 h -693.48 z"
         style="fill:#cfd8dc;fill-opacity:1;fill-rule:nonzero;stroke:none"
         id="path156"
         inkscape:connector-curvature="0" /><path
         d="m 9629.61,3026.1 v 351.48 H 8280.64 v -346.73 h 114 v 232.74 H 9515.61 V 3026.1 h 114"
         style="fill:#cfd8dc;fill-opacity:1;fill-rule:nonzero;stroke:none"
         id="path158"
         inkscape:connector-curvature="0" /><path
         d="m 8280.64,1529.88 v -351.5 h 1348.97 v 346.74 h -114 V 1292.38 H 8394.64 v 237.5 h -114"
         style="fill:#cfd8dc;fill-opacity:1;fill-rule:nonzero;stroke:none"
         id="path160"
         inkscape:connector-curvature="0" /><path
         d="m 4630.83,2818.62 c 119.25,43.45 255.68,52.47 358.12,-58.52 228,-246.99 551.43,-4.97 693.49,88.78 62.39,41.18 155.48,35.8 247.78,-2.41 145.39,-155.76 234.51,-364.73 234.51,-594.61 0,-481.47 -390.31,-871.78 -871.78,-871.78 -481.47,0 -871.79,390.31 -871.79,871.78 0,216.46 79.07,414.34 209.67,566.76 z m 662.12,166.81 c 59.6,0 107.91,-48.31 107.91,-107.91 0,-59.6 -48.31,-107.92 -107.91,-107.92 -59.6,0 -107.92,48.32 -107.92,107.92 0,59.6 48.32,107.91 107.92,107.91 z m 227.99,27.75 c 37.47,0 67.83,-30.37 67.83,-67.83 0,-37.46 -30.36,-67.83 -67.83,-67.83 -37.46,0 -67.83,30.37 -67.83,67.83 0,37.46 30.37,67.83 67.83,67.83 z m -227.99,-1775.6 c 560.17,0 1014.28,454.11 1014.28,1014.28 0,560.17 -454.11,1014.29 -1014.28,1014.29 -560.17,0 -1014.28,-454.12 -1014.28,-1014.29 0,-560.17 454.11,-1014.28 1014.28,-1014.28"
         style="fill:#93b0be;fill-opacity:1;fill-rule:nonzero;stroke:none"
         id="path162"
         inkscape:connector-curvature="0" /><path
         d="m 5292.95,1380.08 c 481.47,0 871.78,390.31 871.78,871.78 0,229.88 -89.12,438.85 -234.51,594.61 -92.3,38.21 -185.39,43.59 -247.78,2.41 -142.06,-93.75 -465.49,-335.77 -693.49,-88.78 -102.44,110.99 -238.87,101.97 -358.12,58.52 -130.6,-152.42 -209.67,-350.3 -209.67,-566.76 0,-481.47 390.32,-871.78 871.79,-871.78"
         style="fill:#cfd8dc;fill-opacity:1;fill-rule:nonzero;stroke:none"
         id="path164"
         inkscape:connector-curvature="0" /><path
         d="m 5292.95,2769.6 c 59.6,0 107.91,48.32 107.91,107.92 0,59.6 -48.31,107.91 -107.91,107.91 -59.6,0 -107.92,-48.31 -107.92,-107.91 0,-59.6 48.32,-107.92 107.92,-107.92"
         style="fill:#cfd8dc;fill-opacity:1;fill-rule:nonzero;stroke:none"
         id="path166"
         inkscape:connector-curvature="0" /><path
         d="m 5520.94,2877.52 c 37.47,0 67.83,30.37 67.83,67.83 0,37.46 -30.36,67.83 -67.83,67.83 -37.46,0 -67.83,-30.37 -67.83,-67.83 0,-37.46 30.37,-67.83 67.83,-67.83"
         style="fill:#cfd8dc;fill-opacity:1;fill-rule:nonzero;stroke:none"
         id="path168"
         inkscape:connector-curvature="0" /></g></g></svg>