<?xml version="1.0" encoding="UTF-8" standalone="no"?>
<!-- Created with Inkscape (http://www.inkscape.org/) -->

<svg
   xmlns:dc="http://purl.org/dc/elements/1.1/"
   xmlns:cc="http://creativecommons.org/ns#"
   xmlns:rdf="http://www.w3.org/1999/02/22-rdf-syntax-ns#"
   xmlns:svg="http://www.w3.org/2000/svg"
   xmlns="http://www.w3.org/2000/svg"
   xmlns:sodipodi="http://sodipodi.sourceforge.net/DTD/sodipodi-0.dtd"
   xmlns:inkscape="http://www.inkscape.org/namespaces/inkscape"
   id="svg2"
   version="1.1"
   inkscape:version="0.91 r13725"
   xml:space="preserve"
   width="1118.4957"
   height="841.5556"
   viewBox="0 0 1118.4957 841.55561"
   sodipodi:docname="etc.svg"><metadata
     id="metadata8"><rdf:RDF><cc:Work
         rdf:about=""><dc:format>image/svg+xml</dc:format><dc:type
           rdf:resource="http://purl.org/dc/dcmitype/StillImage" /><dc:title /></cc:Work></rdf:RDF></metadata><defs
     id="defs6"><clipPath
       clipPathUnits="userSpaceOnUse"
       id="clipPath16"><path
         d="m 0,0 1096,0 0,780 L 0,780 0,0 Z"
         id="path18"
         inkscape:connector-curvature="0" /></clipPath><linearGradient
       x1="0"
       y1="0"
       x2="1"
       y2="0"
       gradientUnits="userSpaceOnUse"
       gradientTransform="matrix(0,-780,-780,0,548,780)"
       spreadMethod="pad"
       id="linearGradient24"><stop
         style="stop-opacity:1;stop-color:#e6e6e6"
         offset="0"
         id="stop26" /><stop
         style="stop-opacity:1;stop-color:#ffffff"
         offset="0.76618372"
         id="stop28" /><stop
         style="stop-opacity:1;stop-color:#ffffff"
         offset="1"
         id="stop30" /></linearGradient><clipPath
       clipPathUnits="userSpaceOnUse"
       id="clipPath38"><path
         d="M 0,780 1096,780 1096,0 0,0 0,780 Z"
         id="path40"
         inkscape:connector-curvature="0" /></clipPath><clipPath
       clipPathUnits="userSpaceOnUse"
       id="clipPath46"><path
         d="m -404.561,1002.24 1905.121,0 0,-1197.444 -1905.121,0 0,1197.444 z"
         id="path48"
         inkscape:connector-curvature="0" /></clipPath><clipPath
       clipPathUnits="userSpaceOnUse"
       id="clipPath138"><path
         d="M 0,780 1096,780 1096,0 0,0 0,780 Z"
         id="path140"
         inkscape:connector-curvature="0" /></clipPath><clipPath
       clipPathUnits="userSpaceOnUse"
       id="clipPath388"><path
         d="M 0,780 1096,780 1096,0 0,0 0,780 Z"
         id="path390"
         inkscape:connector-curvature="0" /></clipPath></defs><sodipodi:namedview
     pagecolor="#ffffff"
     bordercolor="#666666"
     borderopacity="1"
     objecttolerance="10"
     gridtolerance="10"
     guidetolerance="10"
     inkscape:pageopacity="0"
     inkscape:pageshadow="2"
     inkscape:window-width="3075"
     inkscape:window-height="1693"
     id="namedview4"
     showgrid="false"
     fit-margin-top="0"
     fit-margin-left="0"
     fit-margin-right="0"
     fit-margin-bottom="0"
     inkscape:zoom="0.96820513"
     inkscape:cx="280.89777"
     inkscape:cy="381.25001"
     inkscape:window-x="0"
     inkscape:window-y="0"
     inkscape:window-maximized="0"
     inkscape:current-layer="g10" /><g
     id="g10"
     inkscape:groupmode="layer"
     inkscape:label="662 - WEBINAR"
     transform="matrix(1.25,0,0,-1.25,-125.75212,947.80562)"><path
       inkscape:connector-curvature="0"
       id="path162"
       style="fill:#000000;fill-opacity:1;fill-rule:nonzero;stroke:none"
       d="m 147,222.1308 c -0.6,0 -1,0.486 -1,1.087 l 0,4.348 c 0,0.6 0.4,1.086 1,1.086 0.6,0 1,-0.486 1,-1.086 l 0,-4.348 c 0,-0.601 -0.4,-1.087 -1,-1.087" /><g
       id="g164"
       transform="translate(147,206.914)"><path
         d="m 0,0 c -0.6,0 -1,0.486 -1,1.087 l 0,7.608 c 0,0.601 0.4,1.087 1,1.087 0.6,0 1,-0.486 1,-1.087 L 1,1.087 C 1,0.486 0.6,0 0,0 m 0,-15.217 c -0.6,0 -1,0.486 -1,1.087 l 0,7.609 c 0,0.6 0.4,1.086 1,1.086 0.6,0 1,-0.486 1,-1.086 l 0,-7.609 c 0,-0.601 -0.4,-1.087 -1,-1.087 m 0,-15.217 c -0.6,0 -1,0.487 -1,1.087 l 0,7.609 c 0,0.601 0.4,1.087 1,1.087 0.6,0 1,-0.486 1,-1.087 l 0,-7.609 c 0,-0.6 -0.4,-1.087 -1,-1.087 M 0,-45.65 c -0.6,0 -1,0.486 -1,1.087 l 0,7.608 c 0,0.601 0.4,1.087 1,1.087 0.6,0 1,-0.486 1,-1.087 l 0,-7.608 C 1,-45.164 0.6,-45.65 0,-45.65 m 0,-15.217 c -0.6,0 -1,0.486 -1,1.087 l 0,7.608 c 0,0.601 0.4,1.087 1,1.087 0.6,0 1,-0.486 1,-1.087 l 0,-7.608 c 0,-0.601 -0.4,-1.087 -1,-1.087 m 0,-15.217 c -0.6,0 -1,0.486 -1,1.087 l 0,7.608 c 0,0.601 0.4,1.087 1,1.087 0.6,0 1,-0.486 1,-1.087 l 0,-7.608 c 0,-0.601 -0.4,-1.087 -1,-1.087 m 0,-15.217 c -0.6,0 -1,0.486 -1,1.087 l 0,7.609 c 0,0.6 0.4,1.087 1,1.087 0.6,0 1,-0.487 1,-1.087 l 0,-7.609 c 0,-0.601 -0.4,-1.087 -1,-1.087 m 0,-15.216 c -0.6,0 -1,0.486 -1,1.086 l 0,7.609 c 0,0.601 0.4,1.087 1,1.087 0.6,0 1,-0.486 1,-1.087 l 0,-7.609 c 0,-0.6 -0.4,-1.086 -1,-1.086"
         style="fill:#000000;fill-opacity:1;fill-rule:nonzero;stroke:none"
         id="path166"
         inkscape:connector-curvature="0" /></g><g
       id="g168"
       transform="translate(151.2768,85)"><path
         d="m 0,0 -5.277,0 0,5.614 c 0,0.601 0.4,1.087 1,1.087 0.6,0 1,-0.486 1,-1.087 L -3.277,2 0,2 C 0.6,2 1.087,1.601 1.087,1 1.087,0.399 0.6,0 0,0"
         style="fill:#000000;fill-opacity:1;fill-rule:nonzero;stroke:none"
         id="path170"
         inkscape:connector-curvature="0" /></g><g
       id="g172"
       transform="translate(166.4936,85)"><path
         d="m 0,0 -7.608,0 c -0.601,0 -1.087,0.399 -1.087,1 0,0.601 0.486,1 1.087,1 L 0,2 C 0.6,2 1.087,1.601 1.087,1 1.087,0.399 0.6,0 0,0 M 15.217,0 7.608,0 c -0.6,0 -1.087,0.399 -1.087,1 0,0.601 0.487,1 1.087,1 l 7.609,0 c 0.6,0 1.087,-0.399 1.087,-1 0,-0.601 -0.487,-1 -1.087,-1 m 15.217,0 -7.609,0 c -0.6,0 -1.087,0.399 -1.087,1 0,0.601 0.487,1 1.087,1 l 7.609,0 c 0.6,0 1.086,-0.399 1.086,-1 0,-0.601 -0.486,-1 -1.086,-1 M 45.65,0 38.042,0 c -0.6,0 -1.087,0.399 -1.087,1 0,0.601 0.487,1 1.087,1 l 7.608,0 c 0.601,0 1.087,-0.399 1.087,-1 0,-0.601 -0.486,-1 -1.087,-1 m 15.217,0 -7.608,0 c -0.601,0 -1.087,0.399 -1.087,1 0,0.601 0.486,1 1.087,1 l 7.608,0 c 0.6,0 1.087,-0.399 1.087,-1 0,-0.601 -0.487,-1 -1.087,-1 m 15.217,0 -7.608,0 c -0.601,0 -1.087,0.399 -1.087,1 0,0.601 0.486,1 1.087,1 l 7.608,0 c 0.6,0 1.087,-0.399 1.087,-1 0,-0.601 -0.487,-1 -1.087,-1 m 15.217,0 -7.609,0 c -0.6,0 -1.087,0.399 -1.087,1 0,0.601 0.487,1 1.087,1 l 7.609,0 c 0.6,0 1.087,-0.399 1.087,-1 0,-0.601 -0.487,-1 -1.087,-1 m 15.216,0 -7.608,0 c -0.6,0 -1.087,0.399 -1.087,1 0,0.601 0.487,1 1.087,1 l 7.608,0 c 0.601,0 1.087,-0.399 1.087,-1 0,-0.601 -0.486,-1 -1.087,-1 m 15.217,0 -7.608,0 c -0.6,0 -1.087,0.399 -1.087,1 0,0.601 0.487,1 1.087,1 l 7.608,0 c 0.6,0 1.087,-0.399 1.087,-1 0,-0.601 -0.487,-1 -1.087,-1 m 15.217,0 -7.608,0 c -0.601,0 -1.087,0.399 -1.087,1 0,0.601 0.486,1 1.087,1 l 7.608,0 c 0.6,0 1.087,-0.399 1.087,-1 0,-0.601 -0.487,-1 -1.087,-1 m 10.869,0 -3.261,0 c -0.6,0 -1.087,0.399 -1.087,1 0,0.601 0.487,1 1.087,1 l 3.261,0 c 0.6,0 1.087,-0.399 1.087,-1 0,-0.601 -0.487,-1 -1.087,-1"
         style="fill:#000000;fill-opacity:1;fill-rule:nonzero;stroke:none"
         id="path174"
         inkscape:connector-curvature="0" /></g><g
       id="g176"
       transform="translate(321.9221,85)"><path
         d="m 0,0 -4.348,0 c -0.6,0 -1.087,0.399 -1.087,1 0,0.601 0.487,1 1.087,1 L 0,2 C 0.6,2 1.087,1.601 1.087,1 1.087,0.399 0.6,0 0,0"
         style="fill:#000000;fill-opacity:1;fill-rule:nonzero;stroke:none"
         id="path178"
         inkscape:connector-curvature="0" /></g><path
       inkscape:connector-curvature="0"
       id="path182"
       style="fill:#000000;fill-opacity:1;fill-rule:nonzero;stroke:none"
       d="m 949,222.1308 c -0.601,0 -1,0.486 -1,1.087 l 0,4.348 c 0,0.6 0.399,1.086 1,1.086 0.601,0 1,-0.486 1,-1.086 l 0,-4.348 c 0,-0.601 -0.399,-1.087 -1,-1.087" /><g
       id="g184"
       transform="translate(949,206.914)"><path
         d="m 0,0 c -0.601,0 -1,0.486 -1,1.087 l 0,7.608 c 0,0.601 0.399,1.087 1,1.087 0.601,0 1,-0.486 1,-1.087 L 1,1.087 C 1,0.486 0.601,0 0,0 m 0,-15.217 c -0.601,0 -1,0.486 -1,1.087 l 0,7.609 c 0,0.6 0.399,1.086 1,1.086 0.601,0 1,-0.486 1,-1.086 l 0,-7.609 c 0,-0.601 -0.399,-1.087 -1,-1.087 m 0,-15.217 c -0.601,0 -1,0.487 -1,1.087 l 0,7.609 c 0,0.601 0.399,1.087 1,1.087 0.601,0 1,-0.486 1,-1.087 l 0,-7.609 c 0,-0.6 -0.399,-1.087 -1,-1.087 M 0,-45.65 c -0.601,0 -1,0.486 -1,1.087 l 0,7.608 c 0,0.601 0.399,1.087 1,1.087 0.601,0 1,-0.486 1,-1.087 l 0,-7.608 C 1,-45.164 0.601,-45.65 0,-45.65 m 0,-15.217 c -0.601,0 -1,0.486 -1,1.087 l 0,7.608 c 0,0.601 0.399,1.087 1,1.087 0.601,0 1,-0.486 1,-1.087 l 0,-7.608 c 0,-0.601 -0.399,-1.087 -1,-1.087 m 0,-15.217 c -0.601,0 -1,0.486 -1,1.087 l 0,7.608 c 0,0.601 0.399,1.087 1,1.087 0.601,0 1,-0.486 1,-1.087 l 0,-7.608 c 0,-0.601 -0.399,-1.087 -1,-1.087 m 0,-15.217 c -0.601,0 -1,0.486 -1,1.087 l 0,7.609 c 0,0.6 0.399,1.087 1,1.087 0.601,0 1,-0.487 1,-1.087 l 0,-7.609 c 0,-0.601 -0.399,-1.087 -1,-1.087 m 0,-15.216 c -0.601,0 -1,0.486 -1,1.086 l 0,7.609 c 0,0.601 0.399,1.087 1,1.087 0.601,0 1,-0.486 1,-1.087 l 0,-7.609 c 0,-0.6 -0.399,-1.086 -1,-1.086"
         style="fill:#000000;fill-opacity:1;fill-rule:nonzero;stroke:none"
         id="path186"
         inkscape:connector-curvature="0" /></g><g
       id="g188"
       transform="translate(950,85)"><path
         d="m 0,0 -5.277,0 c -0.601,0 -1.087,0.399 -1.087,1 0,0.601 0.486,1 1.087,1 L -2,2 -2,5.614 c 0,0.601 0.399,1.087 1,1.087 0.601,0 1,-0.486 1,-1.087 L 0,0 Z"
         style="fill:#000000;fill-opacity:1;fill-rule:nonzero;stroke:none"
         id="path190"
         inkscape:connector-curvature="0" /></g><g
       id="g192"
       transform="translate(784.947,85)"><path
         d="m 0,0 -3.261,0 c -0.601,0 -1.087,0.399 -1.087,1 0,0.601 0.486,1 1.087,1 L 0,2 C 0.601,2 1.087,1.601 1.087,1 1.087,0.399 0.601,0 0,0 M 15.217,0 7.608,0 c -0.6,0 -1.087,0.399 -1.087,1 0,0.601 0.487,1 1.087,1 l 7.609,0 c 0.601,0 1.087,-0.399 1.087,-1 0,-0.601 -0.486,-1 -1.087,-1 m 15.217,0 -7.609,0 c -0.601,0 -1.087,0.399 -1.087,1 0,0.601 0.486,1 1.087,1 l 7.609,0 c 0.6,0 1.087,-0.399 1.087,-1 0,-0.601 -0.487,-1 -1.087,-1 M 45.65,0 38.042,0 c -0.601,0 -1.087,0.399 -1.087,1 0,0.601 0.486,1 1.087,1 l 7.608,0 c 0.601,0 1.087,-0.399 1.087,-1 0,-0.601 -0.486,-1 -1.087,-1 m 15.217,0 -7.608,0 c -0.601,0 -1.087,0.399 -1.087,1 0,0.601 0.486,1 1.087,1 l 7.608,0 c 0.601,0 1.087,-0.399 1.087,-1 0,-0.601 -0.486,-1 -1.087,-1 m 15.217,0 -7.608,0 c -0.601,0 -1.087,0.399 -1.087,1 0,0.601 0.486,1 1.087,1 l 7.608,0 c 0.601,0 1.087,-0.399 1.087,-1 0,-0.601 -0.486,-1 -1.087,-1 m 15.217,0 -7.609,0 c -0.6,0 -1.087,0.399 -1.087,1 0,0.601 0.487,1 1.087,1 l 7.609,0 c 0.6,0 1.087,-0.399 1.087,-1 0,-0.601 -0.487,-1 -1.087,-1 m 15.216,0 -7.608,0 c -0.601,0 -1.087,0.399 -1.087,1 0,0.601 0.486,1 1.087,1 l 7.608,0 c 0.601,0 1.087,-0.399 1.087,-1 0,-0.601 -0.486,-1 -1.087,-1 m 15.217,0 -7.608,0 c -0.601,0 -1.087,0.399 -1.087,1 0,0.601 0.486,1 1.087,1 l 7.608,0 c 0.601,0 1.087,-0.399 1.087,-1 0,-0.601 -0.486,-1 -1.087,-1 m 15.217,0 -7.608,0 c -0.601,0 -1.087,0.399 -1.087,1 0,0.601 0.486,1 1.087,1 l 7.608,0 c 0.601,0 1.087,-0.399 1.087,-1 0,-0.601 -0.486,-1 -1.087,-1 m 15.217,0 -7.609,0 c -0.6,0 -1.086,0.399 -1.086,1 0,0.601 0.486,1 1.086,1 l 7.609,0 c 0.601,0 1.087,-0.399 1.087,-1 0,-0.601 -0.486,-1 -1.087,-1"
         style="fill:#000000;fill-opacity:1;fill-rule:nonzero;stroke:none"
         id="path194"
         inkscape:connector-curvature="0" /></g><g
       id="g196"
       transform="translate(778.4255,85)"><path
         d="m 0,0 -4.348,0 c -0.6,0 -1.087,0.399 -1.087,1 0,0.601 0.487,1 1.087,1 L 0,2 C 0.601,2 1.087,1.601 1.087,1 1.087,0.399 0.601,0 0,0"
         style="fill:#000000;fill-opacity:1;fill-rule:nonzero;stroke:none"
         id="path198"
         inkscape:connector-curvature="0" /></g><path
       inkscape:connector-curvature="0"
       id="path202"
       style="fill:#000000;fill-opacity:1;fill-rule:nonzero;stroke:none"
       d="m 537.0624,712 c -0.574,0 -1.048,0.788 -1.063,1.366 -0.015,0.587 0.448,1.241 1.035,1.257 2.48,0.065 4.966,0.192 7.457,0.213 0.587,-0.008 1.068,-0.426 1.073,-1.013 0.005,-0.588 -0.467,-1.378 -1.055,-1.383 -2.478,-0.021 -4.951,-0.44 -7.418,-0.44 l -0.029,0 z m 22.329,0 -0.031,0 c -2.469,0 -4.944,0.438 -7.425,0.462 -0.587,0.005 -1.058,0.692 -1.053,1.279 0.006,0.584 0.481,1.259 1.064,1.259 l 0.011,0 c 2.493,0 4.981,-0.114 7.463,-0.182 0.587,-0.016 1.049,-0.851 1.033,-1.438 -0.016,-0.578 -0.489,-1.38 -1.062,-1.38 m -37.183,-0.002 c -0.557,0 -1.025,0.433 -1.06,0.996 -0.037,0.587 0.408,1.092 0.994,1.129 2.479,0.156 4.964,0.29 7.455,0.4 0.557,0.042 1.084,-0.427 1.11,-1.015 0.026,-0.586 -0.429,-1.084 -1.016,-1.11 -2.477,-0.11 -4.949,-0.243 -7.415,-0.398 -0.023,-0.002 -0.045,-0.002 -0.068,-0.002 m 52.056,-0.03 c -0.024,0 -0.046,0 -0.069,0.002 -2.467,0.157 -4.938,0.293 -7.415,0.406 -0.587,0.027 -1.041,0.525 -1.014,1.111 0.026,0.587 0.542,1.035 1.111,1.014 2.49,-0.113 4.974,-0.25 7.454,-0.408 0.586,-0.038 1.03,-0.543 0.993,-1.13 -0.036,-0.563 -0.504,-0.995 -1.06,-0.995 m -66.896,-1.175 c -0.54,0 -1.002,0.409 -1.057,0.957 -0.058,0.585 0.368,1.107 0.953,1.165 2.471,0.246 4.95,0.47 7.434,0.672 0.591,0.036 1.099,-0.39 1.146,-0.975 0.048,-0.585 -0.389,-1.098 -0.974,-1.146 -2.472,-0.201 -4.936,-0.424 -7.395,-0.668 -0.036,-0.004 -0.072,-0.005 -0.107,-0.005 m 81.733,-0.048 c -0.036,0 -0.073,0.002 -0.109,0.006 -2.458,0.248 -4.922,0.473 -7.393,0.676 -0.586,0.049 -1.021,0.562 -0.973,1.148 0.048,0.586 0.54,1.032 1.147,0.972 2.484,-0.204 4.963,-0.43 7.434,-0.68 0.584,-0.059 1.01,-0.581 0.951,-1.165 -0.055,-0.548 -0.518,-0.957 -1.057,-0.957 m -96.519,-1.7 c -0.523,0 -0.979,0.387 -1.053,0.92 -0.079,0.582 0.328,1.118 0.91,1.198 2.461,0.336 4.929,0.651 7.405,0.944 0.579,0.075 1.112,-0.348 1.182,-0.932 0.068,-0.583 -0.349,-1.112 -0.932,-1.181 -2.463,-0.291 -4.918,-0.604 -7.366,-0.939 -0.049,-0.006 -0.098,-0.01 -0.146,-0.01 m 111.304,-0.065 c -0.047,0 -0.096,0.004 -0.146,0.01 -2.449,0.338 -4.904,0.654 -7.365,0.948 -0.583,0.07 -1,0.599 -0.93,1.182 0.07,0.583 0.584,1.002 1.182,0.93 2.474,-0.295 4.942,-0.613 7.404,-0.952 0.581,-0.08 0.988,-0.617 0.908,-1.199 -0.073,-0.533 -0.529,-0.919 -1.053,-0.919 m -126.016,-2.224 c -0.507,0 -0.956,0.364 -1.046,0.881 -0.102,0.579 0.286,1.13 0.864,1.231 2.448,0.427 4.903,0.833 7.365,1.215 0.581,0.094 1.125,-0.307 1.215,-0.887 0.09,-0.581 -0.307,-1.125 -0.888,-1.215 -2.449,-0.381 -4.892,-0.784 -7.326,-1.209 -0.062,-0.011 -0.123,-0.016 -0.184,-0.016 m 140.724,-0.082 c -0.061,0 -0.123,0.005 -0.186,0.016 -2.434,0.428 -4.875,0.834 -7.324,1.218 -0.581,0.091 -0.978,0.635 -0.886,1.215 0.09,0.58 0.636,0.977 1.215,0.887 2.462,-0.386 4.916,-0.794 7.364,-1.225 0.579,-0.102 0.965,-0.653 0.863,-1.231 -0.091,-0.517 -0.539,-0.88 -1.046,-0.88 m -155.341,-2.749 c -0.491,0 -0.933,0.343 -1.039,0.843 -0.122,0.575 0.244,1.139 0.819,1.261 2.43,0.518 4.868,1.013 7.315,1.487 0.576,0.11 1.135,-0.266 1.247,-0.842 0.111,-0.576 -0.266,-1.135 -0.843,-1.247 -2.434,-0.471 -4.859,-0.964 -7.276,-1.478 -0.075,-0.016 -0.15,-0.024 -0.223,-0.024 m 169.956,-0.099 c -0.074,0 -0.149,0.008 -0.224,0.024 -2.417,0.517 -4.843,1.013 -7.275,1.488 -0.577,0.112 -0.954,0.671 -0.841,1.248 0.113,0.576 0.677,0.954 1.248,0.84 2.446,-0.477 4.884,-0.976 7.313,-1.496 0.575,-0.123 0.941,-0.688 0.818,-1.263 -0.107,-0.499 -0.549,-0.841 -1.039,-0.841 m -184.458,-3.27 c -0.476,0 -0.909,0.322 -1.031,0.804 -0.143,0.57 0.202,1.148 0.772,1.292 2.41,0.606 4.828,1.192 7.255,1.756 0.577,0.135 1.143,-0.223 1.277,-0.795 0.133,-0.572 -0.223,-1.144 -0.795,-1.277 -2.414,-0.561 -4.82,-1.144 -7.217,-1.748 -0.088,-0.021 -0.175,-0.032 -0.261,-0.032 m 198.956,-0.116 c -0.087,0 -0.174,0.01 -0.262,0.033 -2.396,0.606 -4.801,1.192 -7.215,1.755 -0.572,0.134 -0.928,0.706 -0.794,1.278 0.134,0.573 0.705,0.927 1.278,0.794 2.426,-0.567 4.844,-1.155 7.253,-1.765 0.57,-0.144 0.914,-0.723 0.769,-1.292 -0.121,-0.482 -0.554,-0.803 -1.029,-0.803 m -213.324,-3.787 c -0.46,0 -0.885,0.302 -1.02,0.766 -0.165,0.564 0.159,1.155 0.723,1.319 2.386,0.697 4.781,1.371 7.185,2.024 0.566,0.154 1.152,-0.18 1.305,-0.748 0.154,-0.567 -0.18,-1.151 -0.747,-1.305 -2.392,-0.649 -4.774,-1.321 -7.148,-2.013 -0.099,-0.029 -0.199,-0.043 -0.298,-0.043 m 227.687,-0.134 c -0.1,0 -0.2,0.014 -0.3,0.044 -2.372,0.695 -4.754,1.369 -7.145,2.021 -0.567,0.155 -0.901,0.74 -0.746,1.307 0.155,0.567 0.745,0.903 1.307,0.745 2.403,-0.656 4.797,-1.333 7.182,-2.031 0.564,-0.166 0.887,-0.757 0.722,-1.321 -0.136,-0.464 -0.56,-0.765 -1.02,-0.765 m -241.901,-4.3 c -0.445,0 -0.861,0.283 -1.009,0.729 -0.185,0.557 0.117,1.16 0.674,1.345 2.359,0.784 4.727,1.547 7.105,2.288 0.563,0.176 1.158,-0.138 1.332,-0.698 0.176,-0.561 -0.137,-1.157 -0.698,-1.332 -2.365,-0.738 -4.722,-1.497 -7.068,-2.277 -0.112,-0.037 -0.225,-0.055 -0.336,-0.055 m 256.137,-0.158 c -0.111,0 -0.225,0.018 -0.336,0.055 -2.356,0.786 -4.719,1.551 -7.093,2.294 -0.561,0.175 -0.873,0.772 -0.697,1.333 0.175,0.56 0.773,0.871 1.332,0.697 2.386,-0.747 4.763,-1.516 7.131,-2.306 0.557,-0.186 0.858,-0.788 0.673,-1.346 -0.149,-0.445 -0.564,-0.727 -1.01,-0.727 m -270.177,-4.798 c -0.431,0 -0.836,0.263 -0.996,0.691 -0.206,0.55 0.073,1.163 0.624,1.369 2.328,0.871 4.667,1.721 7.016,2.55 0.557,0.196 1.162,-0.095 1.357,-0.649 0.196,-0.554 -0.095,-1.161 -0.649,-1.357 -2.336,-0.824 -4.663,-1.67 -6.979,-2.536 -0.123,-0.047 -0.249,-0.068 -0.373,-0.068 m 284.261,-0.196 c -0.124,0 -0.25,0.022 -0.373,0.069 -2.325,0.872 -4.658,1.724 -7,2.555 -0.554,0.196 -0.844,0.804 -0.648,1.358 0.197,0.553 0.803,0.846 1.359,0.647 2.355,-0.835 4.701,-1.691 7.036,-2.569 0.551,-0.206 0.829,-0.82 0.622,-1.37 -0.16,-0.426 -0.566,-0.69 -0.996,-0.69 m -298.079,-5.266 c -0.417,0 -0.812,0.247 -0.982,0.655 -0.226,0.543 0.03,1.165 0.572,1.391 2.286,0.953 4.583,1.885 6.89,2.797 0.548,0.216 1.164,-0.052 1.38,-0.598 0.216,-0.546 -0.052,-1.164 -0.598,-1.38 -2.296,-0.907 -4.579,-1.835 -6.853,-2.782 -0.134,-0.056 -0.273,-0.083 -0.409,-0.083 m 311.962,-0.244 c -0.137,0 -0.276,0.026 -0.41,0.083 -2.287,0.958 -4.586,1.895 -6.897,2.812 -0.546,0.216 -0.813,0.835 -0.595,1.381 0.216,0.546 0.833,0.811 1.381,0.596 2.322,-0.922 4.633,-1.864 6.933,-2.827 0.542,-0.227 0.797,-0.85 0.57,-1.392 -0.171,-0.408 -0.566,-0.653 -0.982,-0.653 m -325.548,-5.713 c -0.403,0 -0.787,0.23 -0.967,0.619 -0.246,0.534 -0.013,1.165 0.521,1.411 2.251,1.037 4.512,2.054 6.784,3.05 0.539,0.237 1.166,-0.009 1.402,-0.547 0.236,-0.538 -0.009,-1.165 -0.547,-1.402 -2.261,-0.991 -4.511,-2.002 -6.749,-3.033 -0.144,-0.067 -0.295,-0.098 -0.444,-0.098 m 339.212,-0.306 c -0.15,0 -0.302,0.032 -0.446,0.099 -2.25,1.041 -4.513,2.063 -6.786,3.065 -0.538,0.236 -0.781,0.864 -0.544,1.402 0.235,0.537 0.865,0.782 1.402,0.544 2.285,-1.007 4.559,-2.033 6.822,-3.081 0.533,-0.246 0.765,-0.879 0.519,-1.412 -0.181,-0.388 -0.565,-0.617 -0.967,-0.617 m -352.575,-6.151 c -0.389,0 -0.763,0.213 -0.95,0.584 -0.266,0.524 -0.056,1.164 0.468,1.429 2.212,1.12 4.436,2.219 6.671,3.299 0.528,0.255 1.165,0.035 1.421,-0.495 0.255,-0.529 0.034,-1.165 -0.496,-1.421 -2.223,-1.073 -4.435,-2.168 -6.635,-3.281 -0.154,-0.078 -0.318,-0.115 -0.479,-0.115 m 366,-0.368 c -0.162,0 -0.327,0.037 -0.482,0.116 -2.209,1.124 -4.43,2.228 -6.664,3.313 -0.528,0.256 -0.748,0.893 -0.492,1.421 0.258,0.528 0.894,0.749 1.422,0.492 2.244,-1.089 4.478,-2.2 6.699,-3.33 0.524,-0.266 0.732,-0.906 0.466,-1.43 -0.188,-0.369 -0.562,-0.582 -0.949,-0.582 m -379.122,-6.579 c -0.375,0 -0.738,0.199 -0.932,0.55 -0.285,0.514 -0.099,1.161 0.416,1.445 2.17,1.201 4.353,2.382 6.547,3.543 0.52,0.276 1.164,0.077 1.438,-0.442 0.275,-0.519 0.077,-1.163 -0.442,-1.438 -2.184,-1.155 -4.355,-2.33 -6.514,-3.525 -0.163,-0.09 -0.339,-0.133 -0.513,-0.133 m 392.294,-0.429 c -0.175,0 -0.352,0.043 -0.515,0.134 -2.168,1.205 -4.346,2.39 -6.537,3.556 -0.518,0.276 -0.715,0.92 -0.439,1.439 0.278,0.518 0.92,0.716 1.439,0.439 2.202,-1.172 4.392,-2.363 6.57,-3.574 0.514,-0.286 0.699,-0.933 0.413,-1.447 -0.194,-0.35 -0.557,-0.547 -0.931,-0.547 m -405.158,-6.997 c -0.361,0 -0.713,0.184 -0.912,0.515 -0.303,0.504 -0.141,1.157 0.362,1.46 2.126,1.28 4.265,2.541 6.416,3.783 0.509,0.293 1.159,0.119 1.453,-0.389 0.293,-0.509 0.119,-1.159 -0.39,-1.453 -2.139,-1.236 -4.267,-2.491 -6.381,-3.763 -0.172,-0.104 -0.361,-0.153 -0.548,-0.153 m 418.059,-0.49 c -0.188,0 -0.378,0.049 -0.55,0.153 -2.12,1.284 -4.253,2.549 -6.398,3.794 -0.508,0.295 -0.681,0.946 -0.386,1.454 0.295,0.508 0.946,0.68 1.454,0.385 2.156,-1.251 4.301,-2.522 6.432,-3.812 0.502,-0.305 0.664,-0.959 0.359,-1.461 -0.2,-0.33 -0.551,-0.513 -0.911,-0.513 m -430.646,-7.407 c -0.347,0 -0.688,0.17 -0.892,0.483 -0.321,0.492 -0.183,1.151 0.309,1.472 2.079,1.358 4.17,2.696 6.274,4.017 0.498,0.313 1.155,0.162 1.466,-0.335 0.313,-0.497 0.163,-1.154 -0.335,-1.466 -2.093,-1.315 -4.174,-2.647 -6.241,-3.997 -0.18,-0.117 -0.382,-0.174 -0.581,-0.174 m 443.258,-0.548 c -0.2,0 -0.403,0.057 -0.583,0.175 -2.07,1.36 -4.155,2.702 -6.253,4.025 -0.496,0.313 -0.645,0.97 -0.332,1.467 0.313,0.497 0.971,0.646 1.468,0.332 2.108,-1.33 4.204,-2.678 6.285,-4.046 0.491,-0.322 0.627,-0.982 0.306,-1.473 -0.205,-0.311 -0.545,-0.48 -0.891,-0.48 m -455.551,-7.807 c -0.334,0 -0.662,0.157 -0.87,0.45 -0.339,0.48 -0.225,1.144 0.255,1.483 2.028,1.434 4.069,2.849 6.125,4.246 0.486,0.33 1.147,0.204 1.478,-0.282 0.33,-0.486 0.204,-1.148 -0.282,-1.478 -2.045,-1.389 -4.076,-2.797 -6.093,-4.223 -0.186,-0.132 -0.401,-0.196 -0.613,-0.196 m 467.857,-0.603 c -0.213,0 -0.427,0.064 -0.614,0.197 -2.02,1.435 -4.053,2.852 -6.099,4.25 -0.485,0.332 -0.61,0.994 -0.278,1.479 0.331,0.484 0.992,0.609 1.477,0.278 2.057,-1.406 4.101,-2.83 6.131,-4.273 0.48,-0.34 0.592,-1.004 0.252,-1.483 -0.207,-0.292 -0.535,-0.448 -0.869,-0.448 m -479.841,-8.199 c -0.32,0 -0.637,0.144 -0.846,0.418 -0.356,0.468 -0.267,1.135 0.2,1.491 1.976,1.508 3.965,2.997 5.968,4.468 0.474,0.349 1.139,0.246 1.487,-0.227 0.348,-0.473 0.246,-1.139 -0.227,-1.487 -1.994,-1.464 -3.972,-2.946 -5.937,-4.445 -0.193,-0.147 -0.42,-0.218 -0.645,-0.218 m 491.829,-0.654 c -0.226,0 -0.453,0.072 -0.646,0.22 -1.965,1.507 -3.943,2.998 -5.937,4.47 -0.473,0.349 -0.573,1.015 -0.224,1.487 0.348,0.474 1.015,0.574 1.487,0.224 2.004,-1.48 3.994,-2.977 5.969,-4.493 0.466,-0.358 0.554,-1.026 0.196,-1.491 -0.209,-0.273 -0.525,-0.417 -0.845,-0.417 m -503.486,-8.583 c -0.307,0 -0.612,0.132 -0.822,0.388 -0.373,0.454 -0.308,1.124 0.146,1.497 1.919,1.579 3.853,3.14 5.802,4.685 0.459,0.364 1.129,0.287 1.494,-0.173 0.365,-0.461 0.287,-1.13 -0.173,-1.495 -1.939,-1.536 -3.862,-3.089 -5.772,-4.66 -0.198,-0.163 -0.437,-0.242 -0.675,-0.242 m 515.139,-0.701 c -0.238,0 -0.479,0.08 -0.677,0.244 -1.909,1.579 -3.831,3.139 -5.768,4.683 -0.46,0.366 -0.536,1.035 -0.17,1.495 0.366,0.459 1.036,0.535 1.494,0.169 1.948,-1.552 3.881,-3.121 5.8,-4.707 0.452,-0.375 0.516,-1.045 0.141,-1.498 -0.21,-0.255 -0.513,-0.386 -0.82,-0.386 m -526.454,-8.959 c -0.294,0 -0.586,0.121 -0.797,0.358 -0.389,0.44 -0.349,1.112 0.091,1.502 1.861,1.648 3.737,3.279 5.629,4.894 0.446,0.382 1.118,0.329 1.499,-0.118 0.382,-0.446 0.329,-1.118 -0.118,-1.499 -1.881,-1.607 -3.748,-3.23 -5.599,-4.87 -0.202,-0.179 -0.454,-0.267 -0.705,-0.267 m 537.756,-0.743 c -0.253,0 -0.505,0.089 -0.708,0.27 -1.848,1.646 -3.712,3.276 -5.592,4.889 -0.445,0.383 -0.496,1.054 -0.113,1.5 0.382,0.447 1.055,0.497 1.5,0.115 1.888,-1.622 3.762,-3.26 5.621,-4.915 0.438,-0.392 0.477,-1.064 0.086,-1.502 -0.21,-0.237 -0.501,-0.357 -0.794,-0.357 m -548.714,-9.326 c -0.281,0 -0.561,0.11 -0.77,0.329 -0.405,0.425 -0.389,1.099 0.036,1.504 1.8,1.716 3.616,3.415 5.448,5.099 0.431,0.397 1.104,0.369 1.503,-0.064 0.397,-0.432 0.368,-1.105 -0.064,-1.503 -1.822,-1.674 -3.629,-3.365 -5.419,-5.072 -0.206,-0.196 -0.47,-0.293 -0.734,-0.293 m 559.65,-0.779 c -0.264,0 -0.53,0.098 -0.736,0.296 -1.787,1.712 -3.59,3.408 -5.408,5.089 -0.432,0.399 -0.458,1.072 -0.059,1.503 0.401,0.432 1.073,0.456 1.503,0.059 1.828,-1.689 3.64,-3.394 5.436,-5.115 0.424,-0.407 0.439,-1.08 0.032,-1.504 -0.209,-0.218 -0.489,-0.328 -0.768,-0.328 m -570.235,-9.687 c -0.268,0 -0.536,0.1 -0.743,0.302 -0.421,0.41 -0.429,1.084 -0.019,1.504 1.737,1.781 3.49,3.546 5.259,5.295 0.418,0.413 1.092,0.409 1.504,-0.008 0.413,-0.417 0.409,-1.091 -0.008,-1.504 -1.76,-1.741 -3.504,-3.497 -5.232,-5.268 -0.208,-0.214 -0.485,-0.321 -0.761,-0.321 m 580.792,-0.809 c -0.278,0 -0.555,0.108 -0.764,0.323 -1.722,1.777 -3.462,3.537 -5.216,5.282 -0.417,0.414 -0.419,1.088 -0.005,1.505 0.414,0.415 1.088,0.419 1.504,0.004 1.765,-1.754 3.513,-3.524 5.245,-5.31 0.409,-0.422 0.398,-1.095 -0.023,-1.504 -0.207,-0.201 -0.475,-0.3 -0.741,-0.3 M 247.7974,579.68 c -0.255,0 -0.51,0.091 -0.714,0.275 -0.435,0.395 -0.468,1.068 -0.073,1.503 1.671,1.844 3.359,3.672 5.063,5.485 0.404,0.428 1.077,0.448 1.504,0.047 0.428,-0.403 0.449,-1.076 0.046,-1.504 -1.695,-1.804 -3.374,-3.623 -5.037,-5.457 -0.21,-0.232 -0.499,-0.349 -0.789,-0.349 m 601.157,-0.832 c -0.29,0 -0.579,0.118 -0.789,0.351 -1.658,1.838 -3.331,3.66 -5.021,5.468 -0.401,0.429 -0.379,1.102 0.051,1.503 0.429,0.402 1.103,0.379 1.503,-0.05 1.698,-1.817 3.38,-3.649 5.046,-5.496 0.394,-0.436 0.359,-1.109 -0.077,-1.502 -0.203,-0.184 -0.458,-0.274 -0.713,-0.274 m -610.955,-10.385 c -0.242,0 -0.485,0.082 -0.685,0.25 -0.449,0.379 -0.506,1.049 -0.128,1.499 1.603,1.904 3.223,3.793 4.861,5.669 0.387,0.442 1.059,0.487 1.501,0.1 0.442,-0.386 0.488,-1.058 0.101,-1.501 -1.629,-1.864 -3.241,-3.744 -4.836,-5.638 -0.21,-0.25 -0.511,-0.379 -0.814,-0.379 m 620.712,-0.847 c -0.304,0 -0.606,0.13 -0.816,0.381 -1.589,1.896 -3.194,3.778 -4.816,5.646 -0.385,0.443 -0.337,1.115 0.106,1.5 0.442,0.386 1.115,0.339 1.501,-0.106 1.631,-1.876 3.244,-3.768 4.839,-5.674 0.378,-0.451 0.319,-1.122 -0.132,-1.499 -0.199,-0.167 -0.442,-0.248 -0.682,-0.248 m -630.096,-10.723 c -0.229,0 -0.46,0.073 -0.654,0.225 -0.463,0.362 -0.546,1.031 -0.184,1.493 1.533,1.963 3.084,3.911 4.652,5.844 0.371,0.457 1.04,0.527 1.496,0.157 0.456,-0.371 0.526,-1.04 0.156,-1.496 -1.559,-1.924 -3.102,-3.862 -4.628,-5.814 -0.209,-0.269 -0.522,-0.409 -0.838,-0.409 m 639.436,-0.854 c -0.318,0 -0.632,0.141 -0.841,0.411 -1.518,1.953 -3.053,3.892 -4.604,5.816 -0.37,0.457 -0.298,1.127 0.16,1.496 0.457,0.369 1.127,0.295 1.495,-0.161 1.561,-1.934 3.104,-3.882 4.628,-5.846 0.361,-0.464 0.277,-1.132 -0.186,-1.492 -0.195,-0.151 -0.424,-0.224 -0.652,-0.224 m -648.393,-11.055 c -0.216,0 -0.434,0.065 -0.622,0.202 -0.476,0.344 -0.583,1.009 -0.238,1.485 1.461,2.018 2.939,4.022 4.435,6.012 0.353,0.468 1.019,0.564 1.49,0.21 0.469,-0.352 0.564,-1.02 0.211,-1.489 -1.489,-1.98 -2.959,-3.973 -4.413,-5.98 -0.208,-0.288 -0.533,-0.44 -0.863,-0.44 m 657.298,-0.853 c -0.331,0 -0.656,0.154 -0.864,0.442 -1.445,2.007 -2.907,4 -4.388,5.978 -0.351,0.471 -0.254,1.138 0.216,1.49 0.469,0.35 1.137,0.256 1.489,-0.215 1.487,-1.989 2.957,-3.992 4.409,-6.01 0.344,-0.476 0.236,-1.141 -0.241,-1.484 -0.189,-0.136 -0.405,-0.201 -0.621,-0.201 M 211.1434,532.75 c -0.204,0 -0.409,0.058 -0.591,0.18 -0.488,0.327 -0.619,0.988 -0.293,1.476 1.387,2.071 2.791,4.128 4.214,6.172 0.336,0.483 0.998,0.601 1.481,0.266 0.483,-0.336 0.601,-0.999 0.265,-1.481 -1.416,-2.033 -2.812,-4.08 -4.191,-6.141 -0.206,-0.306 -0.543,-0.472 -0.885,-0.472 m 674.275,-0.841 c -0.344,0 -0.681,0.167 -0.886,0.474 -1.372,2.058 -2.759,4.103 -4.165,6.134 -0.335,0.483 -0.214,1.146 0.269,1.48 0.483,0.334 1.145,0.214 1.48,-0.269 1.413,-2.042 2.808,-4.097 4.186,-6.165 0.326,-0.489 0.193,-1.149 -0.295,-1.475 -0.181,-0.121 -0.386,-0.179 -0.589,-0.179 m -682.339,-11.7 c -0.19,0 -0.383,0.051 -0.557,0.158 -0.5,0.309 -0.655,0.965 -0.347,1.465 1.31,2.121 2.638,4.229 3.985,6.325 0.317,0.494 0.976,0.638 1.47,0.319 0.494,-0.318 0.638,-0.976 0.32,-1.47 -1.34,-2.085 -2.662,-4.181 -3.964,-6.292 -0.201,-0.326 -0.55,-0.505 -0.907,-0.505 m 690.344,-0.819 c -0.357,0 -0.707,0.181 -0.907,0.508 -1.293,2.106 -2.605,4.199 -3.935,6.279 -0.316,0.495 -0.172,1.153 0.323,1.469 0.493,0.316 1.153,0.173 1.469,-0.323 1.338,-2.091 2.657,-4.195 3.956,-6.312 0.308,-0.501 0.151,-1.156 -0.35,-1.463 -0.173,-0.107 -0.366,-0.158 -0.556,-0.158 m -697.942,-12.015 c -0.178,0 -0.359,0.045 -0.524,0.139 -0.511,0.29 -0.69,0.939 -0.4,1.45 1.23,2.169 2.48,4.326 3.75,6.469 0.299,0.505 0.952,0.672 1.457,0.374 0.506,-0.3 0.673,-0.952 0.374,-1.458 -1.263,-2.132 -2.507,-4.278 -3.731,-6.435 -0.196,-0.346 -0.556,-0.539 -0.926,-0.539 m 705.48,-0.786 c -0.372,0 -0.733,0.195 -0.928,0.542 -1.214,2.151 -2.448,4.291 -3.7,6.417 -0.297,0.506 -0.129,1.158 0.378,1.456 0.503,0.299 1.157,0.131 1.456,-0.376 1.259,-2.139 2.499,-4.289 3.719,-6.452 0.289,-0.511 0.108,-1.161 -0.403,-1.449 -0.166,-0.093 -0.345,-0.138 -0.522,-0.138 m -712.603,-12.323 c -0.165,0 -0.332,0.039 -0.489,0.12 -0.521,0.271 -0.724,0.913 -0.453,1.434 1.15,2.214 2.32,4.416 3.51,6.606 0.28,0.516 0.925,0.707 1.442,0.427 0.516,-0.28 0.708,-0.926 0.427,-1.442 -1.183,-2.179 -2.347,-4.369 -3.492,-6.571 -0.189,-0.365 -0.56,-0.574 -0.945,-0.574 m 719.664,-0.739 c -0.385,0 -0.756,0.21 -0.945,0.576 -1.135,2.194 -2.289,4.376 -3.462,6.546 -0.279,0.517 -0.086,1.162 0.431,1.441 0.515,0.279 1.162,0.088 1.442,-0.429 1.179,-2.182 2.339,-4.376 3.478,-6.581 0.27,-0.522 0.066,-1.164 -0.456,-1.434 -0.156,-0.081 -0.323,-0.119 -0.488,-0.119 m -726.299,-12.629 c -0.152,0 -0.307,0.033 -0.454,0.102 -0.531,0.252 -0.757,0.886 -0.506,1.417 1.068,2.256 2.156,4.5 3.265,6.733 0.261,0.526 0.899,0.742 1.426,0.48 0.526,-0.261 0.741,-0.899 0.479,-1.425 -1.102,-2.222 -2.185,-4.455 -3.248,-6.699 -0.181,-0.383 -0.563,-0.608 -0.962,-0.608 m 732.873,-0.679 c -0.399,0 -0.782,0.225 -0.964,0.611 -1.052,2.234 -2.124,4.456 -3.216,6.666 -0.26,0.527 -0.044,1.165 0.483,1.425 0.527,0.262 1.164,0.044 1.425,-0.483 1.097,-2.222 2.175,-4.456 3.234,-6.702 0.249,-0.531 0.022,-1.165 -0.51,-1.415 -0.146,-0.069 -0.3,-0.102 -0.452,-0.102 m -739.01,-12.93 c -0.14,0 -0.282,0.028 -0.419,0.086 -0.539,0.231 -0.789,0.857 -0.558,1.397 0.984,2.295 1.989,4.579 3.014,6.852 0.242,0.537 0.871,0.775 1.407,0.532 0.536,-0.241 0.774,-0.871 0.533,-1.407 -1.02,-2.261 -2.02,-4.533 -2.999,-6.816 -0.173,-0.403 -0.565,-0.644 -0.978,-0.644 m 745.086,-0.606 c -0.414,0 -0.807,0.242 -0.98,0.647 -0.969,2.27 -1.958,4.529 -2.967,6.777 -0.241,0.536 -0.001,1.166 0.535,1.407 0.536,0.24 1.166,0 1.405,-0.535 1.015,-2.26 2.009,-4.531 2.984,-6.814 0.231,-0.54 -0.02,-1.165 -0.56,-1.396 -0.137,-0.058 -0.278,-0.086 -0.417,-0.086 m -750.717,-13.228 c -0.128,0 -0.257,0.023 -0.383,0.072 -0.548,0.211 -0.821,0.827 -0.61,1.375 0.899,2.331 1.818,4.652 2.76,6.962 0.222,0.544 0.844,0.804 1.386,0.584 0.545,-0.222 0.806,-0.842 0.584,-1.386 -0.936,-2.298 -1.851,-4.607 -2.745,-6.925 -0.163,-0.423 -0.566,-0.682 -0.992,-0.682 m 756.298,-0.543 c -0.428,0 -0.83,0.259 -0.994,0.682 -0.887,2.313 -1.796,4.615 -2.726,6.908 -0.22,0.544 0.042,1.164 0.586,1.385 0.546,0.219 1.166,-0.042 1.386,-0.586 0.935,-2.304 1.847,-4.619 2.74,-6.943 0.211,-0.549 -0.063,-1.164 -0.611,-1.375 -0.126,-0.048 -0.254,-0.071 -0.381,-0.071 m -761.414,-13.495 c -0.115,0 -0.231,0.019 -0.346,0.058 -0.555,0.191 -0.851,0.796 -0.66,1.352 0.812,2.364 1.645,4.718 2.5,7.063 0.201,0.552 0.811,0.837 1.364,0.634 0.552,-0.201 0.836,-0.811 0.635,-1.363 -0.851,-2.332 -1.679,-4.674 -2.487,-7.025 -0.152,-0.441 -0.564,-0.719 -1.006,-0.719 m 766.493,-0.501 c -0.443,0 -0.856,0.278 -1.007,0.72 -0.801,2.345 -1.624,4.679 -2.467,7.003 -0.201,0.552 0.084,1.162 0.636,1.363 0.551,0.199 1.163,-0.084 1.363,-0.637 0.848,-2.337 1.675,-4.684 2.481,-7.041 0.19,-0.555 -0.106,-1.16 -0.662,-1.35 -0.114,-0.039 -0.231,-0.058 -0.344,-0.058 m -771.085,-13.724 c -0.102,0 -0.206,0.015 -0.308,0.047 -0.563,0.169 -0.881,0.763 -0.71,1.325 0.724,2.394 1.469,4.779 2.236,7.154 0.181,0.559 0.782,0.865 1.339,0.686 0.559,-0.181 0.866,-0.78 0.685,-1.339 -0.762,-2.363 -1.504,-4.735 -2.224,-7.116 -0.139,-0.46 -0.561,-0.757 -1.018,-0.757 m 775.64,-0.451 c -0.457,0 -0.88,0.297 -1.019,0.758 -0.713,2.372 -1.449,4.735 -2.205,7.089 -0.18,0.559 0.127,1.159 0.686,1.338 0.564,0.183 1.158,-0.129 1.339,-0.686 0.761,-2.367 1.501,-4.743 2.218,-7.128 0.169,-0.563 -0.149,-1.156 -0.712,-1.325 -0.103,-0.031 -0.206,-0.046 -0.307,-0.046 m -779.686,-13.878 c -0.089,0 -0.179,0.012 -0.27,0.035 -0.568,0.149 -0.908,0.731 -0.759,1.299 0.632,2.41 1.286,4.811 1.962,7.203 0.16,0.565 0.747,0.893 1.313,0.735 0.565,-0.16 0.894,-0.748 0.734,-1.313 -0.672,-2.38 -1.323,-4.768 -1.951,-7.165 -0.126,-0.478 -0.557,-0.794 -1.029,-0.794 m 783.716,-0.455 c -0.473,0 -0.904,0.316 -1.029,0.795 -0.626,2.397 -1.274,4.786 -1.943,7.166 -0.16,0.566 0.17,1.153 0.736,1.312 0.566,0.16 1.153,-0.171 1.312,-0.736 0.672,-2.392 1.324,-4.794 1.954,-7.204 0.149,-0.569 -0.192,-1.15 -0.761,-1.298 -0.09,-0.024 -0.18,-0.035 -0.269,-0.035 m -787.227,-14.013 c -0.077,0 -0.155,0.008 -0.233,0.026 -0.573,0.127 -0.934,0.696 -0.806,1.27 0.543,2.431 1.107,4.855 1.694,7.27 0.138,0.571 0.714,0.919 1.285,0.783 0.57,-0.139 0.921,-0.714 0.782,-1.285 -0.583,-2.403 -1.145,-4.813 -1.685,-7.232 -0.11,-0.495 -0.55,-0.832 -1.037,-0.832 m 790.72,-0.461 c -0.489,0 -0.928,0.338 -1.037,0.834 -0.537,2.42 -1.097,4.831 -1.676,7.234 -0.138,0.571 0.213,1.146 0.784,1.283 0.57,0.137 1.145,-0.213 1.283,-0.784 0.584,-2.416 1.146,-4.84 1.685,-7.272 0.127,-0.574 -0.235,-1.142 -0.808,-1.269 -0.077,-0.017 -0.155,-0.026 -0.231,-0.026 m -793.694,-14.128 c -0.064,0 -0.129,0.006 -0.194,0.018 -0.578,0.107 -0.96,0.662 -0.853,1.239 0.453,2.451 0.928,4.893 1.424,7.329 0.117,0.575 0.682,0.95 1.255,0.829 0.575,-0.117 0.947,-0.679 0.83,-1.255 -0.495,-2.422 -0.966,-4.851 -1.417,-7.289 -0.095,-0.513 -0.542,-0.871 -1.045,-0.871 m 796.653,-0.464 c -0.503,0 -0.951,0.359 -1.046,0.872 -0.447,2.438 -0.916,4.869 -1.407,7.291 -0.117,0.576 0.255,1.137 0.831,1.253 0.576,0.119 1.137,-0.254 1.254,-0.831 0.493,-2.435 0.966,-4.878 1.416,-7.329 0.106,-0.578 -0.277,-1.133 -0.855,-1.239 -0.065,-0.011 -0.129,-0.017 -0.193,-0.017 m -799.087,-14.224 c -0.051,0 -0.103,0.003 -0.156,0.012 -0.581,0.085 -0.983,0.625 -0.898,1.205 0.362,2.467 0.746,4.925 1.153,7.376 0.095,0.58 0.643,0.973 1.223,0.876 0.58,-0.097 0.971,-0.644 0.875,-1.224 -0.404,-2.438 -0.786,-4.884 -1.146,-7.335 -0.077,-0.53 -0.532,-0.91 -1.051,-0.91 m 801.503,-0.466 c -0.52,0 -0.975,0.381 -1.052,0.91 -0.358,2.454 -0.737,4.899 -1.138,7.337 -0.095,0.58 0.297,1.128 0.877,1.223 0.578,0.095 1.127,-0.297 1.223,-0.877 0.403,-2.451 0.784,-4.909 1.144,-7.376 0.085,-0.581 -0.319,-1.122 -0.899,-1.206 -0.052,-0.008 -0.104,-0.011 -0.155,-0.011 M 145.3914,352.35 c -0.039,0 -0.078,0.002 -0.118,0.007 -0.584,0.063 -1.005,0.589 -0.941,1.172 0.271,2.478 0.565,4.949 0.88,7.412 0.075,0.583 0.608,1.001 1.191,0.921 0.583,-0.075 0.994,-0.607 0.92,-1.19 -0.314,-2.451 -0.607,-4.909 -0.877,-7.374 -0.059,-0.545 -0.52,-0.948 -1.055,-0.948 m 805.268,-0.467 c -0.536,0 -0.997,0.403 -1.056,0.949 -0.268,2.465 -0.557,4.923 -0.868,7.374 -0.074,0.583 0.339,1.114 0.921,1.189 0.589,0.079 1.116,-0.339 1.189,-0.922 0.313,-2.463 0.604,-4.934 0.873,-7.412 0.063,-0.583 -0.358,-1.109 -0.943,-1.172 -0.039,-0.004 -0.077,-0.006 -0.116,-0.006 m -806.618,-14.361 c -0.025,0 -0.052,0.001 -0.078,0.003 -0.586,0.042 -1.026,0.551 -0.984,1.138 0.181,2.486 0.383,4.965 0.609,7.44 0.053,0.584 0.575,1.011 1.156,0.962 0.585,-0.053 1.016,-0.571 0.963,-1.156 -0.225,-2.461 -0.427,-4.928 -0.606,-7.401 -0.04,-0.559 -0.507,-0.986 -1.06,-0.986 m 807.949,-0.468 c -0.553,0 -1.02,0.428 -1.06,0.988 -0.175,2.474 -0.375,4.94 -0.595,7.4 -0.054,0.585 0.378,1.103 0.963,1.155 0.598,0.055 1.102,-0.38 1.155,-0.964 0.223,-2.473 0.423,-4.953 0.6,-7.44 0.041,-0.586 -0.4,-1.095 -0.986,-1.137 -0.026,-10e-4 -0.051,-0.002 -0.077,-0.002 M 143.2334,322 l -0.039,0 c -0.587,1 -1.046,0.842 -1.025,1.429 0.09,2.492 0.202,5.142 0.338,7.621 0.032,0.588 0.535,1.122 1.12,1.088 0.586,-0.032 1.036,-0.493 1.004,-1.08 -0.135,-2.466 -0.246,-5.247 -0.336,-7.725 -0.02,-0.574 -0.492,-1.333 -1.062,-1.333 m 809.549,0 c -0.57,0 -1.042,0.544 -1.062,1.118 -0.086,2.479 -0.196,4.998 -0.327,7.465 -0.031,0.586 0.419,1.11 1.006,1.142 0.599,0.032 1.087,-0.408 1.119,-0.995 0.131,-2.48 0.241,-5.051 0.329,-7.544 0.02,-0.586 -0.44,-1.186 -1.027,-1.186 l -0.038,0 z m -809.818,-14.23 c -0.588,0 -1.064,0.476 -1.064,1.063 0,2.494 0.022,4.982 0.068,7.463 0.01,0.588 0.494,1.07 1.083,1.045 0.587,-0.011 1.054,-0.496 1.044,-1.083 -0.045,-2.469 -0.068,-4.944 -0.068,-7.425 0,-0.587 -0.476,-1.063 -1.063,-1.063 m 810.071,0 0,0 c -0.588,0 -1.064,0.476 -1.064,1.063 10e-4,2.328 -0.019,4.709 -0.058,7.026 -0.01,0.587 0.458,1.141 1.045,1.141 l 0.018,0 c 0.58,0 1.054,-0.523 1.064,-1.104 0.039,-2.33 0.059,-4.695 0.058,-7.033 0,-0.588 -0.476,-1.093 -1.063,-1.093" /><g
       id="g204"
       transform="translate(596.5416,235.1737)"
       style="fill:#394b53;fill-opacity:1"><path
         d="m 0,0 -89.572,0 -13.394,-54.462 c -0.417,-1.591 0.784,-3.146 2.429,-3.146 l 111.43,0 c 1.643,0 2.844,1.552 2.43,3.143 L 0,0 Z"
         style="fill:#394b53;fill-opacity:1;fill-rule:nonzero;stroke:none"
         id="path206"
         inkscape:connector-curvature="0" /></g><path
       inkscape:connector-curvature="0"
       id="path210"
       style="fill:#babcbe;fill-opacity:1;fill-rule:evenodd;stroke:none"
       d="m 504.9561,227.2632 2.014,7.687 89.569,0 2.015,-7.687 -93.598,0 z" /><path
       inkscape:connector-curvature="0"
       id="path214"
       style="fill:#394b53;fill-opacity:1;fill-rule:evenodd;stroke:none"
       d="m 326.1018,275.14624 0,258.778 c 0,5.523 4.477,10.004 10.003,10.004 l 423.792,0 c 5.528,0 10.001,-4.481 10.001,-10.004 l 0,-258.778 -443.796,0 z" /><path
       inkscape:connector-curvature="0"
       id="path218"
       style="fill:#394b53;fill-opacity:1;fill-rule:evenodd;stroke:none"
       d="m 759.8968,233.4911 -423.792,0 c -5.526,0 -10.003,4.475 -10.003,9.998 l 0,30.005 443.796,0 0,-30.005 c 0,-5.523 -4.473,-9.998 -10.001,-9.998" /><path
       d="m 339.02673,523.94573 416.29302,0 0,-233.774 -416.29302,0 0,233.774 z"
       style="fill:#ffffff;fill-opacity:1;fill-rule:evenodd;stroke:none"
       id="path220"
       inkscape:connector-curvature="0" /><path
       inkscape:connector-curvature="0"
       id="path316"
       style="fill:#607d8b;fill-opacity:1;fill-rule:evenodd;stroke:none"
       d="m 935.4594,534.5427 c 14.052,-24.338 5.713,-55.46 -18.628,-69.513 -24.339,-14.052 -55.46,-5.713 -69.512,18.625 -14.053,24.34 -5.716,55.465 18.624,69.517 24.34,14.053 55.463,5.711 69.516,-18.629" /><path
       inkscape:connector-curvature="0"
       id="path320"
       style="fill:#ffffff;fill-opacity:1;fill-rule:nonzero;stroke:none"
       d="m 891.4474,503.8903 c -2.702,0 -4.891,2.191 -4.891,4.891 0,2.7 2.189,4.891 4.891,4.891 2.702,0 4.891,-2.191 4.891,-4.891 0,-2.7 -2.189,-4.891 -4.891,-4.891 m 0,14.673 c -5.402,0 -9.782,-4.381 -9.782,-9.782 0,-5.404 4.38,-9.782 9.782,-9.782 5.402,0 9.782,4.378 9.782,9.782 0,5.401 -4.38,9.782 -9.782,9.782 m 22.825,-11.412 c 0,-0.902 -0.729,-1.631 -1.63,-1.631 l -5.221,0 c -0.422,-2.082 -1.243,-4.015 -2.375,-5.725 l 2.348,-2.35 1.323,-1.325 c 0.637,-0.637 0.637,-1.668 0,-2.305 l -2.305,-2.306 c -0.637,-0.637 -1.669,-0.637 -2.306,0 l -1.323,1.325 -2.347,2.347 c -1.711,-1.134 -3.646,-1.955 -5.728,-2.379 l 0,-5.216 c 0,-0.901 -0.729,-1.63 -1.631,-1.63 l -3.26,0 c -0.9,0 -1.631,0.729 -1.631,1.63 l 0,5.216 c -2.081,0.424 -4.017,1.245 -5.727,2.379 l -2.539,-2.538 -1.132,-1.134 c -0.637,-0.637 -1.669,-0.637 -2.306,0 l -2.305,2.306 c -0.637,0.637 -0.637,1.668 0,2.305 l 1.325,1.325 2.346,2.35 c -1.132,1.71 -1.951,3.643 -2.375,5.725 l -5.221,0 c -0.899,0 -1.63,0.729 -1.63,1.631 l 0,3.26 c 0,0.898 0.731,1.631 1.63,1.631 l 5.221,0 c 0.424,2.079 1.243,4.015 2.375,5.725 l -2.346,2.35 -1.325,1.322 c -0.637,0.636 -0.637,1.671 0,2.308 l 2.305,2.306 c 0.637,0.637 1.669,0.637 2.306,0 l 1.324,-1.325 2.347,-2.347 c 1.71,1.134 3.646,1.952 5.727,2.379 l 0,5.216 c 0,0.898 0.731,1.63 1.631,1.63 l 3.26,0 c 0.902,0 1.631,-0.732 1.631,-1.63 l 0,-5.223 c 2.081,-0.42 4.017,-1.241 5.728,-2.372 l 2.347,2.347 1.323,1.325 c 0.637,0.637 1.669,0.637 2.306,0 l 2.305,-2.306 c 0.637,-0.637 0.637,-1.668 0,-2.308 l -1.323,-1.322 -2.347,-2.35 c 1.132,-1.71 1.954,-3.643 2.376,-5.725 l 5.219,0 c 0.901,0 1.63,-0.733 1.63,-1.631 l 0,-3.26 z m 0,8.152 -4.375,0 c -0.231,0.656 -0.495,1.292 -0.793,1.91 l 3.073,3.073 c 1.272,1.274 1.272,3.34 0,4.614 l -4.613,4.611 c -1.273,1.274 -3.337,1.274 -4.611,0 l -3.071,-3.073 c -0.621,0.296 -1.259,0.561 -1.914,0.793 l 0,4.375 c 0,1.802 -1.46,3.261 -3.26,3.261 l -6.522,0 c -1.8,0 -3.26,-1.459 -3.26,-3.261 l 0,-4.375 c -0.655,-0.229 -1.293,-0.497 -1.913,-0.793 l -3.072,3.073 c -1.273,1.274 -3.338,1.274 -4.611,0 l -4.611,-4.611 c -1.274,-1.274 -1.274,-3.34 0,-4.614 l 3.072,-3.073 c -0.296,-0.618 -0.561,-1.258 -0.792,-1.91 l -4.377,0 c -1.801,0 -3.261,-1.459 -3.261,-3.261 l 0,-6.522 c 0,-1.802 1.46,-3.26 3.261,-3.26 l 4.377,0 c 0.231,-0.656 0.496,-1.293 0.792,-1.911 l -3.072,-3.076 c -1.274,-1.274 -1.274,-3.337 0,-4.611 l 4.611,-4.611 c 1.273,-1.273 3.338,-1.273 4.611,0 l 3.072,3.07 c 0.62,-0.293 1.258,-0.561 1.913,-0.79 l 0,-4.375 c 0,-1.802 1.46,-3.261 3.26,-3.261 l 6.522,0 c 1.8,0 3.26,1.459 3.26,3.261 l 0,4.375 c 0.655,0.229 1.293,0.497 1.914,0.79 l 3.071,-3.07 c 1.274,-1.273 3.338,-1.273 4.611,0 l 4.613,4.611 c 1.272,1.274 1.272,3.337 0,4.611 l -3.073,3.073 c 0.298,0.621 0.562,1.258 0.793,1.914 l 4.375,0 c 1.801,0 3.261,1.458 3.261,3.26 l 0,6.522 c 0,1.802 -1.46,3.261 -3.261,3.261" /><path
       inkscape:connector-curvature="0"
       id="path324"
       style="fill:#607d8b;fill-opacity:1;fill-rule:evenodd;stroke:none"
       d="m 771.7016,698.3029 c 24.338,-14.052 32.677,-45.173 18.624,-69.514 -14.052,-24.339 -45.174,-32.678 -69.512,-18.626 -24.34,14.052 -32.682,45.176 -18.63,69.515 14.053,24.34 45.177,32.678 69.518,18.625" /><path
       inkscape:connector-curvature="0"
       id="path328"
       style="fill:#ffffff;fill-opacity:1;fill-rule:nonzero;stroke:none"
       d="m 743.2855,678 6.521,0 c 1.803,0 3.193,-1.913 3.193,-3.714 l 0,-3.286 -1.562,0 c -0.901,0 -1.631,-0.599 -1.631,-1.5 0,-0.901 0.73,-1.5 1.631,-1.5 l 1.562,0 0,-3 -1.562,0 c -0.901,0 -1.631,-1.099 -1.631,-2 0,-0.901 0.73,-2 1.631,-2 l 1.562,0 0,-3 -1.562,0 c -0.901,0 -1.631,-0.599 -1.631,-1.5 0,-0.901 0.73,-1.5 1.631,-1.5 l 1.562,0 0,-3.539 c 0,-1.8 -1.39,-3.461 -3.193,-3.461 l -6.521,0 c -1.802,0 -3.286,1.661 -3.286,3.461 l 0,3.539 1.656,0 c 0.901,0 1.63,0.599 1.63,1.5 0,0.901 -0.729,1.5 -1.63,1.5 l -1.656,0 0,3 1.656,0 c 0.901,0 1.63,1.099 1.63,2 0,0.901 -0.729,2 -1.63,2 l -1.656,0 0,3 1.656,0 c 0.901,0 1.63,0.599 1.63,1.5 0,0.901 -0.729,1.5 -1.63,1.5 l -1.656,0 0,3.286 c 0,1.801 1.484,3.714 3.286,3.714 m 13.714,-3.521 c 0,3.601 -2.919,6.521 -6.521,6.521 l -6.957,0 c -3.602,0 -6.522,-2.92 -6.522,-6.521 l 0,-22.958 c 0,-3.601 2.92,-6.521 6.522,-6.521 l 6.957,0 c 3.602,0 6.521,2.92 6.521,6.521 l 0,22.958 z" /><path
       inkscape:connector-curvature="0"
       id="path332"
       style="fill:#ffffff;fill-opacity:1;fill-rule:nonzero;stroke:none"
       d="m 760,655 0,-5.169 C 760,645.328 755.94,642 751.437,642 l -1.63,0 -6.521,0 -1.631,0 c -4.503,0 -7.655,3.328 -7.655,7.831 l 0,5.169 -3,0 0,-5.169 C 731,643.528 735.35,638 741.655,638 l 2.345,0 0,-6 -5.606,0 c -0.901,0 -1.63,-0.599 -1.63,-1.5 0,-0.901 0.729,-1.5 1.63,-1.5 l 16.304,0 c 0.901,0 1.63,0.599 1.63,1.5 0,0.901 -0.729,1.5 -1.63,1.5 l -4.698,0 0,6 1.437,0 c 6.305,0 11.563,5.528 11.563,11.831 l 0,5.169 -3,0 z" /><path
       inkscape:connector-curvature="0"
       id="path336"
       style="fill:#607d8b;fill-opacity:1;fill-rule:evenodd;stroke:none"
       d="m 160.5431,534.5478 c 14.052,24.338 45.174,32.677 69.514,18.624 24.339,-14.052 32.678,-45.174 18.626,-69.512 -14.052,-24.341 -45.176,-32.682 -69.515,-18.63 -24.34,14.053 -32.678,45.177 -18.625,69.518" /><path
       inkscape:connector-curvature="0"
       id="path340"
       style="fill:#ffffff;fill-opacity:1;fill-rule:nonzero;stroke:none"
       d="m 204.4849,521.4108 c -7.732,0 -14.762,-3 -19.997,-7.894 0,0 -0.548,-1.43 0.203,-2.181 0.752,-0.755 2.076,-0.15 2.076,-0.15 4.65,4.321 10.878,6.964 17.718,6.964 6.783,0 12.96,-2.595 17.597,-6.843 0,0 1.28,-0.672 2.171,0.22 0.892,0.892 0.128,2.086 0.128,2.086 -5.223,4.84 -12.215,7.798 -19.896,7.798 m 25.844,-1.003 c -6.349,6.117 -16.1,10.948 -25.646,10.948 -9.662,0 -19.501,-4.924 -25.87,-11.171 0,0 -0.777,-1.153 0.236,-2.137 1.006,-0.98 2.337,-0.433 2.337,-0.433 5.707,5.601 14.642,10.295 23.297,10.295 8.534,0 17.354,-4.582 23.047,-10.05 0,0 1.37,-0.694 2.446,0.354 1.076,1.051 0.153,2.194 0.153,2.194 m -25.844,-8.779 c -5.069,0 -9.687,-1.933 -13.157,-5.102 0,0 -0.682,-1.292 0.133,-2.111 0.816,-0.815 2.146,-0.219 2.146,-0.219 2.886,2.592 6.7,4.171 10.878,4.171 4.082,0 7.814,-1.506 10.674,-3.99 0,0 1.242,-0.713 2.191,0.239 0.955,0.952 0.114,2.07 0.114,2.07 -3.451,3.073 -7.992,4.942 -12.979,4.942 m 0,-9.62 c -3.598,0 -6.515,-2.92 -6.515,-6.522 0,-3.601 2.917,-6.521 6.515,-6.521 3.599,0 6.515,2.92 6.515,6.521 0,3.602 -2.916,6.522 -6.515,6.522" /><path
       inkscape:connector-curvature="0"
       id="path344"
       style="fill:#607d8b;fill-opacity:1;fill-rule:evenodd;stroke:none"
       d="m 100.6017,311.7792 c 0,28.103 22.783,50.886 50.889,50.886 28.104,0 50.887,-22.783 50.887,-50.886 0,-28.106 -22.783,-50.891 -50.887,-50.891 -28.106,0 -50.889,22.785 -50.889,50.891" /><path
       inkscape:connector-curvature="0"
       id="path348"
       style="fill:#ffffff;fill-opacity:1;fill-rule:nonzero;stroke:none"
       d="m 150.4019,290.039 c -5.277,0 -10.055,2.099 -13.573,5.496 0.193,0.077 0.374,0.194 0.53,0.351 l 2.305,2.305 c 0.637,0.637 0.637,1.668 0,2.305 -0.636,0.637 -1.668,0.637 -2.305,0 l -2.305,-2.305 c -0.109,-0.108 -0.174,-0.242 -0.246,-0.37 -2.48,3.28 -3.97,7.353 -3.97,11.782 0,5.277 2.098,10.055 5.494,13.574 0.08,-0.193 0.196,-0.374 0.352,-0.531 l 2.305,-2.305 c 0.637,-0.637 1.669,-0.637 2.306,0 0.637,0.637 0.637,1.669 0,2.305 l -2.306,2.306 c -0.108,0.108 -0.24,0.174 -0.367,0.245 3.278,2.481 7.351,3.971 11.78,3.971 5.277,0 10.054,-2.099 13.573,-5.495 -0.193,-0.079 -0.374,-0.195 -0.53,-0.352 l -2.305,-2.305 c -0.637,-0.637 -0.637,-1.668 0,-2.305 0.636,-0.637 1.668,-0.637 2.305,0 l 2.305,2.305 c 0.109,0.108 0.174,0.24 0.245,0.368 2.481,-3.279 3.971,-7.351 3.971,-11.781 0,-10.804 -8.76,-19.564 -19.564,-19.564 m 4.598,42.13 0,2.831 0.293,0 c 0.901,0 1.63,0.599 1.63,1.5 0,0.901 -0.729,1.5 -1.63,1.5 l -9.782,0 c -0.901,0 -1.63,-0.599 -1.63,-1.5 0,-0.901 0.729,-1.5 1.63,-1.5 l 2.489,0 0,-2.831 c -12,-1.586 -19.994,-11.069 -19.994,-22.566 0,-12.606 10.004,-22.825 22.611,-22.825 12.606,0 23.386,10.219 23.386,22.825 0,11.497 -9.003,20.98 -19.003,22.566" /><path
       inkscape:connector-curvature="0"
       id="path352"
       style="fill:#ffffff;fill-opacity:1;fill-rule:nonzero;stroke:none"
       d="m 153.5018,308.8075 c -0.294,-1.143 -1.161,-2.01 -2.305,-2.306 -0.262,-0.063 -0.513,-0.159 -0.795,-0.159 -1.801,0 -3.261,1.459 -3.261,3.261 0,1.801 1.46,3.261 3.261,3.261 1.801,0 3.261,-1.46 3.261,-3.261 0,-0.28 -0.094,-0.535 -0.161,-0.796 m 2.5,-2.497 c 0.571,0.968 0.922,2.086 0.922,3.293 0,3.601 -2.921,6.521 -6.522,6.521 -3.601,0 -6.521,-2.92 -6.521,-6.521 0,-3.602 2.92,-6.522 6.521,-6.522 1.207,0 2.325,0.351 3.294,0.924 l 5.055,-5.057 c 0.637,-0.637 1.669,-0.637 2.306,0 0.638,0.637 0.638,1.669 0,2.306 l -5.055,5.056 z" /><path
       inkscape:connector-curvature="0"
       id="path356"
       style="fill:#607d8b;fill-opacity:1;fill-rule:evenodd;stroke:none"
       d="m 995.3983,310.8433 c 0,-28.103 -22.783,-50.886 -50.889,-50.886 -28.104,0 -50.887,22.783 -50.887,50.886 0,28.106 22.783,50.892 50.887,50.892 28.106,0 50.889,-22.786 50.889,-50.892" /><path
       d="m 930,291 -7,0 0,9 7,0 0,-9 z m 3,9.739 c 0,1.801 -1.46,3.261 -3.261,3.261 l -6.478,0 C 921.46,304 920,302.54 920,300.739 l 0,-9.478 c 0,-1.801 1.46,-3.261 3.261,-3.261 l 6.478,0 c 1.801,0 3.261,1.46 3.261,3.261 l 0,9.478 z"
       style="fill:#ffffff;fill-opacity:1;fill-rule:nonzero;stroke:none"
       id="path358"
       inkscape:connector-curvature="0" /><path
       d="m 946,291 -7,0 0,16 7,0 0,-16 z m 3,15.739 c 0,1.801 -1.46,3.261 -3.261,3.261 l -6.478,0 C 937.46,310 936,308.54 936,306.739 l 0,-16.478 c 0,-1.801 1.46,-3.261 3.261,-3.261 l 6.478,0 c 1.801,0 3.261,1.46 3.261,3.261 l 0,16.478 z"
       style="fill:#ffffff;fill-opacity:1;fill-rule:nonzero;stroke:none"
       id="path360"
       inkscape:connector-curvature="0" /><path
       d="m 962,291 -6,0 0,29 6,0 0,-29 z m 3,28.739 c 0,1.801 -1.46,3.261 -3.261,3.261 l -6.478,0 C 953.46,323 952,321.54 952,319.739 l 0,-29.478 c 0,-1.801 1.46,-3.261 3.261,-3.261 l 6.478,0 c 1.801,0 3.261,1.46 3.261,3.261 l 0,29.478 z"
       style="fill:#ffffff;fill-opacity:1;fill-rule:nonzero;stroke:none"
       id="path362"
       inkscape:connector-curvature="0" /><path
       inkscape:connector-curvature="0"
       id="path366"
       style="fill:#ffffff;fill-opacity:1;fill-rule:nonzero;stroke:none"
       d="m 930.1858,308.9033 23.193,22.94 5.621,-5.369 0,13.526 -13.548,0 5.368,-5.61 -22.94,-23.061 c -0.64,-0.637 -0.64,-1.729 0,-2.366 0.637,-0.637 1.669,-0.697 2.306,-0.06" /><path
       inkscape:connector-curvature="0"
       id="path370"
       style="fill:#607d8b;fill-opacity:1;fill-rule:evenodd;stroke:none"
       d="m 548.0027,758.2445 c 28.104,0 50.886,-22.783 50.886,-50.889 0,-28.104 -22.782,-50.887 -50.886,-50.887 -28.106,0 -50.891,22.783 -50.891,50.887 0,28.106 22.785,50.889 50.891,50.889" /><path
       inkscape:connector-curvature="0"
       id="path374"
       style="fill:#ffffff;fill-opacity:1;fill-rule:nonzero;stroke:none"
       d="m 559.9907,697.7258 -2.28,-9.903 -9.247,4.499 -9.247,-4.423 -2.28,10.012 -9.248,4.458 6.401,7.327 -2.286,9.304 10.259,0 6.401,8.022 6.4,-8.022 10.26,0 -2.286,-9.301 6.4,-7.679 -9.247,-4.294 z m 6.579,12.556 2.879,11.718 -12.926,0 -8.059,10.104 -8.06,-10.104 -12.925,0 2.879,-11.721 -8.057,-9.257 11.642,-5.6 2.876,-12.604 11.645,5.579 11.645,-5.655 2.875,12.496 11.642,5.373 -8.056,9.671 z" /><path
       inkscape:connector-curvature="0"
       id="path378"
       style="fill:#607d8b;fill-opacity:1;fill-rule:evenodd;stroke:none"
       d="m 324.3033,698.3056 c 24.338,14.052 55.46,5.713 69.513,-18.628 14.052,-24.339 5.713,-55.46 -18.625,-69.512 -24.34,-14.053 -55.465,-5.716 -69.517,18.624 -14.053,24.34 -5.711,55.463 18.629,69.516" /><path
       inkscape:connector-curvature="0"
       id="path382"
       style="fill:#ffffff;fill-opacity:1;fill-rule:nonzero;stroke:none"
       d="m 359.7442,635.9744 c 0.812,2.719 1.497,5.496 1.987,8.343 2.88,0.497 5.69,1.188 8.443,2.016 -2.238,-4.503 -5.912,-8.149 -10.43,-10.359 m -13.622,-2.016 c -1.046,0.166 -2.07,0.395 -3.065,0.698 0.054,0.016 0.113,0.022 0.167,0.038 -0.995,2.964 -1.761,6.028 -2.357,9.155 2.86,-0.353 5.756,-0.589 8.711,-0.589 2.955,0 5.851,0.236 8.711,0.586 -0.596,-3.124 -1.362,-6.188 -2.356,-9.152 0.119,-0.038 0.248,-0.048 0.369,-0.083 -2.078,-0.624 -4.277,-0.968 -6.557,-0.968 -1.235,0 -2.44,0.124 -3.623,0.315 m -16.745,12.26 c 2.629,-0.771 5.305,-1.43 8.048,-1.901 0.48,-2.78 1.146,-5.496 1.933,-8.158 -4.305,2.206 -7.801,5.738 -9.981,10.059 m -1.494,16.629 c 2.94,0.982 5.976,1.741 9.072,2.332 -0.35,-2.861 -0.587,-5.756 -0.587,-8.711 0,-2.955 0.237,-5.849 0.587,-8.709 -3.096,0.589 -6.134,1.347 -9.072,2.331 -0.592,2.029 -0.963,4.156 -0.963,6.378 0,2.222 0.371,4.347 0.963,6.379 m 11.475,13.931 c -0.787,-2.664 -1.453,-5.377 -1.933,-8.158 -2.741,-0.472 -5.419,-1.127 -8.047,-1.901 2.18,4.321 5.676,7.852 9.98,10.059 m 6.764,2.2 c 1.183,0.19 2.388,0.316 3.623,0.316 2.28,0 4.479,-0.344 6.557,-0.967 -0.121,-0.035 -0.25,-0.046 -0.369,-0.084 0.994,-2.965 1.76,-6.028 2.356,-9.152 -2.861,0.35 -5.756,0.588 -8.711,0.588 -2.955,0 -5.849,-0.238 -8.711,-0.588 0.596,3.124 1.362,6.189 2.357,9.152 -0.054,0.017 -0.113,0.022 -0.167,0.038 0.995,0.301 2.019,0.532 3.065,0.697 m 24.052,-12.372 c -2.754,0.826 -5.563,1.519 -8.443,2.014 -0.49,2.846 -1.175,5.622 -1.987,8.343 4.518,-2.209 8.192,-5.856 10.43,-10.357 m -30.545,-10.138 c 0,3.148 0.272,6.226 0.694,9.257 3.028,0.421 6.107,0.693 9.255,0.693 3.148,0 6.225,-0.272 9.255,-0.693 0.422,-3.031 0.695,-6.109 0.695,-9.257 0,-3.147 -0.273,-6.225 -0.695,-9.253 -3.03,-0.424 -6.107,-0.694 -9.255,-0.694 -3.148,0 -6.225,0.27 -9.257,0.694 -0.42,3.028 -0.692,6.106 -0.692,9.253 m 22.572,-8.709 c 0.35,2.86 0.587,5.754 0.587,8.709 0,2.955 -0.237,5.85 -0.587,8.711 3.123,-0.595 9.18,-2.154 9.233,-1.96 0.699,-2.191 1.136,-4.327 1.136,-6.751 0,-2.423 -0.281,-4.42 -0.982,-6.61 -0.052,0.194 -6.264,-1.503 -9.387,-2.099 m -12.456,34.795 c -1.619,0 -3.197,-0.169 -4.735,-0.45 -1.105,-0.203 -2.189,-0.465 -3.24,-0.803 -10.503,-3.37 -18.111,-13.208 -18.111,-24.833 0,-11.623 7.608,-21.462 18.111,-24.834 1.051,-0.338 2.135,-0.599 3.24,-0.803 1.538,-0.28 3.116,-0.449 4.735,-0.449 14.408,0 26.086,11.68 26.086,26.086 0,14.408 -11.678,26.086 -26.086,26.086" /><text
       sodipodi:linespacing="100%"
       id="text4136"
       y="-362.1662"
       x="398.15573"
       style="font-style:normal;font-variant:normal;font-weight:normal;font-stretch:normal;font-size:108.45509338px;line-height:100%;font-family:'Roboto Slab';-inkscape-font-specification:'Roboto Slab, Normal';text-align:start;letter-spacing:0px;word-spacing:0px;writing-mode:lr-tb;text-anchor:start;fill:#607d8b;fill-opacity:1;stroke:none;stroke-width:1px;stroke-linecap:butt;stroke-linejoin:miter;stroke-opacity:1"
       xml:space="preserve"
       transform="scale(1,-1)"><tspan
         y="-362.1662"
         x="398.15573"
         id="tspan4138"
         sodipodi:role="line">simpl</tspan></text>
<circle
       style="color:#000000;display:inline;overflow:visible;visibility:visible;fill:#ff5252;fill-opacity:1;stroke:#ff5252;stroke-width:2.96991968px;stroke-linecap:butt;stroke-linejoin:miter;stroke-miterlimit:4;stroke-dasharray:none;stroke-dashoffset:0;stroke-opacity:1;marker:none;enable-background:accumulate"
       id="path4567-7"
       cx="466.72665"
       cy="-439.98273"
       r="9.8997316"
       transform="scale(1,-1)" /><circle
       style="color:#000000;display:inline;overflow:visible;visibility:visible;fill:#ff5252;fill-opacity:1;stroke:#ff5252;stroke-width:2.96991968px;stroke-linecap:butt;stroke-linejoin:miter;stroke-miterlimit:4;stroke-dasharray:none;stroke-dashoffset:0;stroke-opacity:1;marker:none;enable-background:accumulate"
       id="path4567-7-3"
       cx="417.85928"
       cy="-439.98755"
       r="9.8997316"
       transform="scale(1,-1)" /><circle
       style="color:#000000;display:inline;overflow:visible;visibility:visible;fill:#ff5252;fill-opacity:1;stroke:#ff5252;stroke-width:2.96991968px;stroke-linecap:butt;stroke-linejoin:miter;stroke-miterlimit:4;stroke-dasharray:none;stroke-dashoffset:0;stroke-opacity:1;marker:none;enable-background:accumulate"
       id="path4567-7-7"
       cx="418.3631"
       cy="-486.08258"
       r="9.8997316"
       transform="scale(1,-1)" /><circle
       style="color:#000000;display:inline;overflow:visible;visibility:visible;fill:#ff5252;fill-opacity:1;stroke:#ff5252;stroke-width:2.96991968px;stroke-linecap:butt;stroke-linejoin:miter;stroke-miterlimit:4;stroke-dasharray:none;stroke-dashoffset:0;stroke-opacity:1;marker:none;enable-background:accumulate"
       id="path4567-7-9"
       cx="467.22882"
       cy="-485.07495"
       r="9.8997316"
       transform="scale(1,-1)" /></g></svg>