<?xml version="1.0" encoding="UTF-8" standalone="no"?>
<!-- Created with Inkscape (http://www.inkscape.org/) -->

<svg
   xmlns:dc="http://purl.org/dc/elements/1.1/"
   xmlns:cc="http://creativecommons.org/ns#"
   xmlns:rdf="http://www.w3.org/1999/02/22-rdf-syntax-ns#"
   xmlns:svg="http://www.w3.org/2000/svg"
   xmlns="http://www.w3.org/2000/svg"
   xmlns:sodipodi="http://sodipodi.sourceforge.net/DTD/sodipodi-0.dtd"
   xmlns:inkscape="http://www.inkscape.org/namespaces/inkscape"
   version="1.1"
   id="svg4734"
   inkscape:version="0.91+devel r"
   xml:space="preserve"
   width="1028.9069"
   height="969.97437"
   viewBox="0 0 1028.9068 969.97433"
   sodipodi:docname="integration.svg"><metadata
     id="metadata4740"><rdf:RDF><cc:Work
         rdf:about=""><dc:format>image/svg+xml</dc:format><dc:type
           rdf:resource="http://purl.org/dc/dcmitype/StillImage" /><dc:title></dc:title></cc:Work></rdf:RDF></metadata><defs
     id="defs4738"><clipPath
       clipPathUnits="userSpaceOnUse"
       id="clipPath4824"><path
         d="M 0,980 H 1400 V 0 H 0 Z"
         id="path4822"
         inkscape:connector-curvature="0" /></clipPath></defs><sodipodi:namedview
     pagecolor="#ffffff"
     bordercolor="#666666"
     borderopacity="1"
     objecttolerance="10"
     gridtolerance="10"
     guidetolerance="10"
     inkscape:pageopacity="0"
     inkscape:pageshadow="2"
     inkscape:window-width="1334"
     inkscape:window-height="796"
     inkscape:document-units="px"
     id="namedview4736"
     showgrid="false"
     inkscape:zoom="0.34392856"
     inkscape:cx="435.35165"
     inkscape:cy="400.65801"
     inkscape:window-x="1752"
     inkscape:window-y="583"
     inkscape:window-maximized="0"
     inkscape:current-layer="g4742"
     fit-margin-top="0"
     fit-margin-left="0"
     fit-margin-right="0"
     fit-margin-bottom="0" /><g
     id="g4742"
     inkscape:groupmode="layer"
     inkscape:label="Vector_Internet_Of_Things_2"
     transform="matrix(1.3333333,0,0,-1.3333333,-497.98172,1222.6497)"><path
       d="M -265.76274,2578.729 H 1134.2373 v 980 H -265.76274 Z"
       style="fill:#323132;fill-opacity:1;fill-rule:nonzero;stroke:none"
       id="path4744"
       inkscape:connector-curvature="0" /><path
       inkscape:connector-curvature="0"
       id="path4748"
       style="fill:#455a64;fill-opacity:1;fill-rule:nonzero;stroke:none"
       d="m 613.9434,796.2329 -69.188,-73.441 -44.905,-62.504 -9.62,-112.838 39.505,-105.689 82.585,-73.019 112.205,-31.781 112.164,22.52 43.617,33.489 73.234,85.766 26.86,103.17 -24.798,108.53 -74.542,89.038 -63.824,30.611 -105.913,19.5 z m -115.232,-135.524 0.091,0.133 45.05,62.692 69.44,73.708 0.134,0.049 97.808,33.5 0.147,-0.027 106.222,-19.557 0.069,-0.036 64.121,-30.75 0.082,-0.099 74.805,-89.352 0.033,-0.136 24.893,-108.946 -0.039,-0.136 -26.964,-103.574 -0.09,-0.1 -73.398,-85.963 -43.926,-33.731 -0.136,-0.027 -112.578,-22.602 -0.135,0.038 -112.597,31.902 -0.099,0.085 -82.908,73.297 -0.048,0.137 -39.647,106.07 z" /><path
       inkscape:connector-curvature="0"
       id="path4752"
       style="fill:#455a64;fill-opacity:1;fill-rule:nonzero;stroke:none"
       d="m 816.9687,810.0024 -90.133,-10.186 -104.563,-7.992 21.944,-53.667 51.087,-81.574 72.046,-93.995 105.625,7.109 77.056,0.811 -44.833,101.242 -75.575,84.413 z m -196.387,-17.137 106.143,8.114 91.148,10.305 12.82,-54.565 75.497,-84.325 0.04,-0.085 45.588,-102.95 -78.797,-0.831 -106.216,-7.152 -0.192,0.248 -72.266,94.294 -51.176,81.702 -0.018,0.049 z" /><path
       inkscape:connector-curvature="0"
       id="path4756"
       style="fill:#455a64;fill-opacity:1;fill-rule:nonzero;stroke:none"
       d="m 550.1675,708.1099 70.812,84.611 0.898,-0.75 -68.259,-81.561 89.806,28.01 82.994,62.443 0.703,-0.935 -83.158,-62.566 -0.096,-0.033 z" /><path
       inkscape:connector-curvature="0"
       id="path4760"
       style="fill:#455a64;fill-opacity:1;fill-rule:nonzero;stroke:none"
       d="m 498.6255,660.6914 54.499,50.509 -35.601,-111.638 14.919,-115.188 -43.285,62.66 0.958,0.666 40.548,-58.688 -14.334,110.658 0.037,0.125 34.293,107.528 -50.73,-47.018 15.596,-60.306 -0.102,-0.199 -26.813,-53.684 -1.046,0.523 26.714,53.492 z" /><path
       inkscape:connector-curvature="0"
       id="path4764"
       style="fill:#455a64;fill-opacity:1;fill-rule:nonzero;stroke:none"
       d="m 693.8779,655.5132 -105.162,-18.826 63.28,-86.355 z m -141.269,51.887 1.051,0.512 34.003,-69.792 0.844,-1.15 0.852,3.723 53.825,97.481 1.022,-0.569 -53.784,-97.405 -0.467,-2.104 105.788,18.938 -43.442,-109.097 -65.664,89.626 z" /><path
       inkscape:connector-curvature="0"
       id="path4768"
       style="fill:#455a64;fill-opacity:1;fill-rule:nonzero;stroke:none"
       d="m 516.6504,600.1338 67.7,36.366 0.553,-1.035 -67.697,-36.363 z" /><path
       inkscape:connector-curvature="0"
       id="path4772"
       style="fill:#455a64;fill-opacity:1;fill-rule:nonzero;stroke:none"
       d="m 652.3101,547.9893 -37.609,-91.816 107.019,4.334 z m -122.283,-60.09 83.404,-31.74 38.556,94.12 72.082,-90.846 -109.856,-4.445 -0.556,-1.362 80.67,-73.003 79.225,-33.926 -0.462,-1.076 -79.403,34.003 -0.069,0.066 -81.354,73.617 0.723,1.769 -79.91,30.41 79.437,-116.938 -0.965,-0.659 z" /><path
       inkscape:connector-curvature="0"
       id="path4776"
       style="fill:#455a64;fill-opacity:1;fill-rule:nonzero;stroke:none"
       d="m 691.9873,379.1797 30.359,80.997 44.191,102.037 1.078,-0.464 -44.185,-102.01 -29.603,-78.987 111.146,22.957 -80.346,54.253 0.652,0.971 82.65,-55.81 z" /><path
       inkscape:connector-curvature="0"
       id="path4780"
       style="fill:#455a64;fill-opacity:1;fill-rule:nonzero;stroke:none"
       d="m 775.3105,346.1992 103.32,46.055 -73.649,10.791 94.411,71.056 -17.672,-79.699 -1.142,0.253 16.988,76.609 -89.641,-67.473 74.868,-10.962 -107.01,-47.697 z" /><path
       inkscape:connector-curvature="0"
       id="path4784"
       style="fill:#455a64;fill-opacity:1;fill-rule:nonzero;stroke:none"
       d="m 775.7959,349.3799 30.144,54.321 1.027,-0.566 -30.149,-54.324 z" /><path
       inkscape:connector-curvature="0"
       id="path4788"
       style="fill:#455a64;fill-opacity:1;fill-rule:nonzero;stroke:none"
       d="m 950.416,567.7627 -51.083,-94.403 54.133,5.624 z m -120.172,189.253 79.094,-11.908 -2.893,-72.374 -0.025,-0.076 -32.799,-103.561 24.989,-94.615 52.825,97.625 3.239,-94.176 -56.016,-5.819 -1.107,-2.05 -1.035,0.556 1.28,2.36 -25.391,96.148 0.048,0.165 32.828,103.644 2.846,71.17 -78.054,11.758 z" /><path
       inkscape:connector-curvature="0"
       id="path4792"
       style="fill:#455a64;fill-opacity:1;fill-rule:nonzero;stroke:none"
       d="m 817.5859,810.0576 0.691,0.948 90.8,-65.925 -0.686,-0.946 z" /><path
       inkscape:connector-curvature="0"
       id="path4796"
       style="fill:#455a64;fill-opacity:1;fill-rule:nonzero;stroke:none"
       d="m 613.3276,796.2285 0.575,1.019 7.565,-4.253 90.079,37.939 15.644,-30.083 103.644,-44.064 -19.688,-88.787 94.451,4.67 0.058,-1.164 -95.983,-4.75 19.81,89.337 -103.135,43.847 -15.339,29.5 -89.617,-37.741 z" /><path
       inkscape:connector-curvature="0"
       id="path4800"
       style="fill:#455a64;fill-opacity:1;fill-rule:nonzero;stroke:none"
       d="m 652.083,549.7168 114.585,12.808 43.631,106.118 63.209,-99.217 -0.989,-0.63 -61.998,97.317 -43.034,-104.671 -0.344,-0.039 -114.928,-12.851 z" /><path
       inkscape:connector-curvature="0"
       id="path4804"
       style="fill:#455a64;fill-opacity:1;fill-rule:nonzero;stroke:none"
       d="m 694.7568,656.8545 115.599,11.109 0.111,-1.169 -115.6,-11.105 z" /><path
       inkscape:connector-curvature="0"
       id="path4808"
       style="fill:#455a64;fill-opacity:1;fill-rule:nonzero;stroke:none"
       d="m 613.2402,452.4219 -18.211,-57.567 97.171,-13.881 z m -82.274,34.3 1.17,-0.06 -2.301,-44.959 64.117,-46.384 18.725,59.19 83.139,-75.236 -101.778,14.54 -0.116,0.087 -65.287,47.234 z" /><path
       inkscape:connector-curvature="0"
       id="path4812"
       style="fill:#455a64;fill-opacity:1;fill-rule:nonzero;stroke:none"
       d="m 904.7148,672.334 51.224,18.916 0.407,-1.096 -49.673,-18.343 75.296,-90.159 -30.827,-12.262 -0.432,1.084 29.328,11.668 z" /><path
       inkscape:connector-curvature="0"
       id="path4816"
       style="fill:#455a64;fill-opacity:1;fill-rule:nonzero;stroke:none"
       d="m 693.8252,379.3232 0.958,0.671 30.197,-43.299 -0.962,-0.672 z" /><g
       id="g4826"
       transform="translate(725.1934,793.2944)"><path
         d="m 0,0 c -3.924,0.867 -6.397,4.752 -5.527,8.677 0.867,3.923 4.754,6.399 8.679,5.529 3.926,-0.871 6.4,-4.755 5.53,-8.68 C 7.811,1.601 3.923,-0.875 0,0"
         style="fill:#455a64;fill-opacity:1;fill-rule:nonzero;stroke:none"
         id="path4828"
         inkscape:connector-curvature="0" /></g><g
       id="g4830"
       transform="translate(693.2344,649.1704)"><path
         d="m 0,0 c -3.923,0.868 -6.399,4.756 -5.528,8.68 0.871,3.922 4.759,6.399 8.679,5.528 C 7.075,13.338 9.552,9.451 8.682,5.526 7.812,1.607 3.925,-0.87 0,0"
         style="fill:#455a64;fill-opacity:1;fill-rule:nonzero;stroke:none"
         id="path4832"
         inkscape:connector-curvature="0" /></g><g
       id="g4834"
       transform="translate(642.1157,730.7847)"><path
         d="m 0,0 c -3.92,0.869 -6.396,4.756 -5.529,8.68 0.875,3.923 4.76,6.398 8.682,5.53 C 7.078,13.34 9.554,9.452 8.684,5.528 7.812,1.606 3.927,-0.869 0,0"
         style="fill:#455a64;fill-opacity:1;fill-rule:nonzero;stroke:none"
         id="path4836"
         inkscape:connector-curvature="0" /></g><g
       id="g4838"
       transform="translate(585.3042,629.4419)"><path
         d="m 0,0 c -4.624,1.026 -7.541,5.609 -6.518,10.232 1.026,4.625 5.608,7.543 10.231,6.517 C 8.339,15.725 11.258,11.143 10.231,6.518 9.206,1.893 4.625,-1.025 0,0"
         style="fill:#455a64;fill-opacity:1;fill-rule:nonzero;stroke:none"
         id="path4840"
         inkscape:connector-curvature="0" /></g><g
       id="g4842"
       transform="translate(488.063,540.2612)"><path
         d="m 0,0 c -3.925,0.871 -6.401,4.758 -5.531,8.683 0.868,3.919 4.757,6.396 8.68,5.529 C 7.074,13.342 9.55,9.455 8.68,5.53 7.807,1.608 3.919,-0.869 0,0"
         style="fill:#455a64;fill-opacity:1;fill-rule:nonzero;stroke:none"
         id="path4844"
         inkscape:connector-curvature="0" /></g><g
       id="g4846"
       transform="translate(765.1641,553.354)"><path
         d="m 0,0 c -4.766,1.057 -7.772,5.777 -6.715,10.541 1.057,4.765 5.776,7.771 10.541,6.715 C 8.59,16.2 11.598,11.479 10.541,6.715 9.484,1.95 4.764,-1.056 0,0"
         style="fill:#455a64;fill-opacity:1;fill-rule:nonzero;stroke:none"
         id="path4848"
         inkscape:connector-curvature="0" /></g><g
       id="g4850"
       transform="translate(904.1182,664.9678)"><path
         d="m 0,0 c -3.923,0.868 -6.399,4.755 -5.529,8.68 0.871,3.925 4.756,6.399 8.68,5.529 C 7.075,13.339 9.552,9.451 8.68,5.529 7.81,1.605 3.925,-0.87 0,0"
         style="fill:#455a64;fill-opacity:1;fill-rule:nonzero;stroke:none"
         id="path4852"
         inkscape:connector-curvature="0" /></g><g
       id="g4854"
       transform="translate(979.4277,574.7905)"><path
         d="m 0,0 c -3.926,0.871 -6.398,4.76 -5.531,8.683 0.873,3.922 4.758,6.401 8.683,5.531 C 7.073,13.341 9.549,9.454 8.683,5.532 7.811,1.609 3.923,-0.867 0,0"
         style="fill:#455a64;fill-opacity:1;fill-rule:nonzero;stroke:none"
         id="path4856"
         inkscape:connector-curvature="0" /></g><g
       id="g4858"
       transform="translate(952.4941,471.3506)"><path
         d="m 0,0 c -3.922,0.872 -6.398,4.76 -5.526,8.681 0.871,3.925 4.758,6.401 8.68,5.528 C 7.076,13.343 9.553,9.455 8.682,5.53 7.815,1.607 3.929,-0.868 0,0"
         style="fill:#455a64;fill-opacity:1;fill-rule:nonzero;stroke:none"
         id="path4860"
         inkscape:connector-curvature="0" /></g><g
       id="g4862"
       transform="translate(721.3164,452.8672)"><path
         d="m 0,0 c -3.923,0.867 -6.398,4.755 -5.529,8.68 0.871,3.925 4.758,6.401 8.679,5.529 C 7.075,13.338 9.552,9.451 8.68,5.529 7.812,1.607 3.926,-0.87 0,0"
         style="fill:#455a64;fill-opacity:1;fill-rule:nonzero;stroke:none"
         id="path4864"
         inkscape:connector-curvature="0" /></g><g
       id="g4866"
       transform="translate(828.9766,751.1094)"><path
         d="m 0,0 c -2.941,0.656 -4.797,3.57 -4.148,6.512 0.656,2.942 3.57,4.798 6.512,4.149 C 5.306,10.005 7.162,7.092 6.512,4.148 5.857,1.207 2.943,-0.649 0,0"
         style="fill:#455a64;fill-opacity:1;fill-rule:nonzero;stroke:none"
         id="path4868"
         inkscape:connector-curvature="0" /></g><g
       id="g4870"
       transform="translate(907.5536,739.2783)"><path
         d="m 0,0 c -2.945,0.652 -4.802,3.567 -4.146,6.509 0.649,2.942 3.567,4.801 6.508,4.146 C 5.306,10.005 7.161,7.091 6.509,4.146 5.857,1.207 2.94,-0.652 0,0"
         style="fill:#455a64;fill-opacity:1;fill-rule:nonzero;stroke:none"
         id="path4872"
         inkscape:connector-curvature="0" /></g><g
       id="g4874"
       transform="translate(816.2383,805.3149)"><path
         d="M 0,0 C -2.942,0.655 -4.799,3.57 -4.146,6.509 -3.492,9.454 -0.58,11.31 2.366,10.657 5.305,10.005 7.161,7.091 6.512,4.148 5.859,1.203 2.945,-0.653 0,0"
         style="fill:#455a64;fill-opacity:1;fill-rule:nonzero;stroke:none"
         id="path4876"
         inkscape:connector-curvature="0" /></g><g
       id="g4878"
       transform="translate(949.7422,564.605)"><path
         d="M 0,0 C -2.94,0.652 -4.797,3.566 -4.146,6.509 -3.494,9.454 -0.58,11.31 2.365,10.657 5.308,10.002 7.164,7.088 6.512,4.148 5.857,1.203 2.945,-0.653 0,0"
         style="fill:#455a64;fill-opacity:1;fill-rule:nonzero;stroke:none"
         id="path4880"
         inkscape:connector-curvature="0" /></g><g
       id="g4882"
       transform="translate(897.2979,467.3525)"><path
         d="m 0,0 c -2.942,0.654 -4.8,3.568 -4.148,6.512 0.655,2.941 3.57,4.799 6.512,4.148 C 5.306,10.005 7.162,7.091 6.513,4.148 5.857,1.207 2.942,-0.65 0,0"
         style="fill:#455a64;fill-opacity:1;fill-rule:nonzero;stroke:none"
         id="path4884"
         inkscape:connector-curvature="0" /></g><g
       id="g4886"
       transform="translate(723.3184,331.0332)"><path
         d="m 0,0 c -2.943,0.649 -4.8,3.563 -4.146,6.509 0.65,2.943 3.564,4.799 6.508,4.145 C 5.308,10.001 7.164,7.087 6.508,4.146 5.855,1.2 2.942,-0.655 0,0"
         style="fill:#455a64;fill-opacity:1;fill-rule:nonzero;stroke:none"
         id="path4888"
         inkscape:connector-curvature="0" /></g><g
       id="g4890"
       transform="translate(588.25126,456.75396)"><path
         d="m 0,0 c -2.943,0.65 -4.802,3.568 -4.146,6.509 0.65,2.943 3.564,4.799 6.508,4.146 C 5.305,10.006 7.164,7.088 6.509,4.145 5.853,1.204 2.94,-0.651 0,0"
         style="fill:#455a64;fill-opacity:1;fill-rule:nonzero;stroke:none"
         id="path4892"
         inkscape:connector-curvature="0" /></g><g
       id="g4902"
       transform="translate(498.0996,655.168)"><path
         d="m 0,0 c -2.942,0.655 -4.798,3.569 -4.149,6.512 0.65,2.943 3.568,4.801 6.512,4.148 C 5.305,10.005 7.161,7.091 6.512,4.147 5.857,1.206 2.939,-0.652 0,0"
         style="fill:#455a64;fill-opacity:1;fill-rule:nonzero;stroke:none"
         id="path4904"
         inkscape:connector-curvature="0" /></g><g
       id="g4906"
       transform="translate(515.7461,594.2876)"><path
         d="m 0,0 c -2.945,0.653 -4.798,3.569 -4.147,6.509 0.654,2.944 3.564,4.799 6.509,4.146 2.944,-0.65 4.8,-3.564 4.147,-6.509 C 5.858,1.206 2.945,-0.653 0,0"
         style="fill:#455a64;fill-opacity:1;fill-rule:nonzero;stroke:none"
         id="path4908"
         inkscape:connector-curvature="0" /></g><g
       id="g4910"
       transform="translate(612.4351,791.4072)"><path
         d="m 0,0 c -2.945,0.653 -4.801,3.567 -4.148,6.512 0.655,2.942 3.569,4.799 6.509,4.146 C 5.306,10.005 7.162,7.091 6.509,4.146 5.857,1.207 2.943,-0.65 0,0"
         style="fill:#455a64;fill-opacity:1;fill-rule:nonzero;stroke:none"
         id="path4912"
         inkscape:connector-curvature="0" /></g><g
       id="g4914"
       transform="translate(954.96,685.3755)"><path
         d="m 0,0 c -2.942,0.649 -4.799,3.564 -4.146,6.509 0.653,2.945 3.567,4.801 6.508,4.146 C 5.308,10.002 7.165,7.087 6.509,4.146 5.86,1.203 2.944,-0.653 0,0"
         style="fill:#455a64;fill-opacity:1;fill-rule:nonzero;stroke:none"
         id="path4916"
         inkscape:connector-curvature="0" /></g><g
       id="g4918"
       transform="translate(880.6406,776.396)"><path
         d="M 0,0 C -1.963,0.432 -3.201,2.376 -2.766,4.341 -2.331,6.3 -0.387,7.539 1.572,7.104 3.538,6.669 4.773,4.723 4.338,2.763 3.904,0.803 1.96,-0.435 0,0"
         style="fill:#455a64;fill-opacity:1;fill-rule:nonzero;stroke:none"
         id="path4920"
         inkscape:connector-curvature="0" /></g><g
       id="g4922"
       transform="translate(809.6191,663.8281)"><path
         d="M 0,0 C -1.959,0.434 -3.197,2.378 -2.763,4.338 -2.327,6.303 -0.384,7.542 1.579,7.103 3.538,6.669 4.776,4.725 4.342,2.766 3.909,0.802 1.966,-0.436 0,0"
         style="fill:#455a64;fill-opacity:1;fill-rule:nonzero;stroke:none"
         id="path4924"
         inkscape:connector-curvature="0" /></g><g
       id="g4926"
       transform="translate(710.4883,826.6353)"><path
         d="M 0,0 C -1.963,0.437 -3.198,2.378 -2.764,4.338 -2.328,6.303 -0.388,7.539 1.577,7.103 3.537,6.669 4.773,4.729 4.341,2.765 3.905,0.8 1.965,-0.436 0,0"
         style="fill:#455a64;fill-opacity:1;fill-rule:nonzero;stroke:none"
         id="path4928"
         inkscape:connector-curvature="0" /></g><g
       id="g4930"
       transform="translate(651.29,545.2495)"><path
         d="m 0,0 c -2.148,0.476 -3.502,2.6 -3.024,4.749 0.473,2.142 2.598,3.496 4.747,3.02 C 3.865,7.293 5.219,5.169 4.744,3.026 4.267,0.878 2.143,-0.476 0,0"
         style="fill:#455a64;fill-opacity:1;fill-rule:nonzero;stroke:none"
         id="path4932"
         inkscape:connector-curvature="0" /></g><g
       id="g4934"
       transform="translate(587.25956,371.20806)"><path
         d="m 0,0 c -1.966,0.434 -3.205,2.378 -2.768,4.345 0.437,1.956 2.38,3.193 4.339,2.758 C 3.535,6.671 4.773,4.728 4.337,2.763 3.9,0.806 1.957,-0.432 0,0"
         style="fill:#455a64;fill-opacity:1;fill-rule:nonzero;stroke:none"
         id="path4936"
         inkscape:connector-curvature="0" /></g><g
       id="g4938"
       transform="translate(805.6631,399.8682)"><path
         d="M 0,0 C -1.964,0.432 -3.2,2.373 -2.764,4.338 -2.33,6.301 -0.388,7.538 1.574,7.1 3.54,6.666 4.776,4.725 4.337,2.763 3.905,0.8 1.963,-0.437 0,0"
         style="fill:#455a64;fill-opacity:1;fill-rule:nonzero;stroke:none"
         id="path4940"
         inkscape:connector-curvature="0" /></g><g
       id="g4942"
       transform="translate(836.0264,354.8076)"><path
         d="m 0,0 c -2.277,0.506 -3.714,2.763 -3.21,5.039 0.504,2.273 2.76,3.71 5.035,3.208 C 4.101,7.74 5.538,5.484 5.032,3.212 4.527,0.934 2.271,-0.503 0,0"
         style="fill:#455a64;fill-opacity:1;fill-rule:nonzero;stroke:none"
         id="path4944"
         inkscape:connector-curvature="0" /></g><g
       id="g4946"
       transform="translate(879.9238,388.9902)"><path
         d="M 0,0 C -1.965,0.437 -3.203,2.379 -2.766,4.342 -2.331,6.302 -0.387,7.54 1.573,7.105 3.536,6.672 4.774,4.729 4.338,2.764 3.904,0.804 1.96,-0.435 0,0"
         style="fill:#455a64;fill-opacity:1;fill-rule:nonzero;stroke:none"
         id="path4948"
         inkscape:connector-curvature="0" /></g><g
       id="g4950"
       transform="translate(550.3164,702.1582)"><path
         d="m 0,0 c -3.923,0.866 -6.4,4.754 -5.528,8.679 0.87,3.925 4.754,6.399 8.678,5.529 C 7.076,13.338 9.553,9.45 8.679,5.528 7.809,1.603 3.925,-0.871 0,0"
         style="fill:#455a64;fill-opacity:1;fill-rule:nonzero;stroke:none"
         id="path4952"
         inkscape:connector-curvature="0" /></g><g
       id="g4954"
       transform="translate(872.0215,564.6328)"><path
         d="M 0,0 C -2.477,0.549 -4.041,2.997 -3.486,5.473 -2.94,7.947 -0.49,9.508 1.987,8.959 4.461,8.413 6.022,5.963 5.473,3.486 4.924,1.01 2.473,-0.551 0,0"
         style="fill:#455a64;fill-opacity:1;fill-rule:nonzero;stroke:none"
         id="path4956"
         inkscape:connector-curvature="0" /></g><g
       id="g4958"
       transform="translate(773.9727,338.5596)"><path
         d="m 0,0 c -3.925,0.87 -6.4,4.758 -5.53,8.683 0.872,3.921 4.757,6.396 8.682,5.531 C 7.073,13.342 9.55,9.453 8.684,5.531 7.809,1.607 3.923,-0.867 0,0"
         style="fill:#455a64;fill-opacity:1;fill-rule:nonzero;stroke:none"
         id="path4960"
         inkscape:connector-curvature="0" /></g><g
       id="g4962"
       transform="translate(693.2065,374.7119)"><path
         d="m 0,0 c -2.734,0.603 -4.457,3.311 -3.851,6.046 0.608,2.73 3.312,4.453 6.045,3.849 C 4.929,9.289 6.653,6.582 6.046,3.848 5.438,1.115 2.734,-0.606 0,0"
         style="fill:#455a64;fill-opacity:1;fill-rule:nonzero;stroke:none"
         id="path4964"
         inkscape:connector-curvature="0" /></g><path
       d="m 725.878,248.009 h -2 v 85.221 h 2 z"
       style="fill:#455a64;fill-opacity:1;fill-rule:nonzero;stroke:none"
       id="path5002"
       inkscape:connector-curvature="0" /><g
       id="g5082"
       transform="translate(718.3857,545.9414)"><path
         d="m 0,0 c 0,21.108 17.114,38.223 38.224,38.223 21.107,0 38.22,-17.115 38.22,-38.223 0,-21.108 -17.113,-38.217 -38.22,-38.217 C 17.114,-38.217 0,-21.108 0,0"
         style="fill:#cc3e48;fill-opacity:1;fill-rule:nonzero;stroke:none"
         id="path5084"
         inkscape:connector-curvature="0" /></g><g
       id="g5090"
       transform="translate(664.6728,450.082)"><path
         d="M 0,0 C 0,26.388 21.39,47.785 47.786,47.785 74.173,47.785 95.562,26.388 95.562,0 95.562,-26.387 74.173,-47.786 47.786,-47.786 21.39,-47.786 0,-26.387 0,0"
         style="fill:#adbbc8;fill-opacity:1;fill-rule:nonzero;stroke:none"
         id="path5092"
         inkscape:connector-curvature="0" /></g><g
       id="g5094"
       transform="translate(373.4863,597.7896)"><path
         d="M 0,0 C 0,18.199 14.752,32.951 32.951,32.951 51.152,32.951 65.903,18.199 65.903,0 65.903,-18.201 51.152,-32.955 32.951,-32.955 14.752,-32.955 0,-18.201 0,0"
         style="fill:#cc3e48;fill-opacity:1;fill-rule:nonzero;stroke:none"
         id="path5096"
         inkscape:connector-curvature="0" /></g><path
       d="m 408.485,595.724 h -3.765 v 3.955 h 3.765 z m -5.676,0 v -1.802 h 5.676 1.203 0.715 v 7.538 h -1.918 v -0.066 h -5.266 v -0.181 h -0.357 v -5.489 z"
       style="fill:#455a64;fill-opacity:1;fill-rule:evenodd;stroke:none"
       id="path5098"
       inkscape:connector-curvature="0" /><g
       id="g5100"
       transform="translate(397.0449,597.5869)"><path
         d="m 0,0 9.369,9.369 9.68,-9.685 0.063,-12.989 h -5.754 v 7.662 H 5.755 v -7.662 H 0 Z m -2.832,-2.833 0.937,0.936 v -13.216 h 22.904 v 12.84 l 0.561,-0.56 3.098,3.096 -12.2,12.203 -3.054,3.048 -7.495,-7.497 v 5.334 H -1.857 V 4.241 L -5.881,0.217 Z"
         style="fill:#455a64;fill-opacity:1;fill-rule:evenodd;stroke:none"
         id="path5102"
         inkscape:connector-curvature="0" /></g><g
       id="g5104"
       transform="translate(842.999,570.4487)"><path
         d="m 0,0 c 0,45.201 36.642,81.843 81.831,81.843 45.199,0 81.843,-36.642 81.843,-81.843 0,-45.193 -36.644,-81.835 -81.843,-81.835 C 36.642,-81.835 0,-45.193 0,0"
         style="fill:#4b7699;fill-opacity:1;fill-rule:nonzero;stroke:none"
         id="path5106"
         inkscape:connector-curvature="0" /></g><g
       id="g5112"
       transform="translate(1001.4707,770.9194)"><path
         d="m 0,0 c 0,34.223 27.738,61.964 61.961,61.964 34.223,0 61.967,-27.741 61.967,-61.964 0,-34.219 -27.744,-61.96 -61.967,-61.96 C 27.738,-61.96 0,-34.219 0,0"
         style="fill:#cc3e48;fill-opacity:1;fill-rule:nonzero;stroke:none"
         id="path5114"
         inkscape:connector-curvature="0" /></g><g
       id="g5116"
       transform="translate(687.3516,883.2933)"><path
         d="M 0,0 C 0,-18.61 15.087,-33.695 33.696,-33.695 52.306,-33.695 67.39,-18.61 67.39,0 67.39,18.609 52.306,33.694 33.696,33.694 15.087,33.694 0,18.609 0,0"
         style="fill:#cc3e48;fill-opacity:1;fill-rule:nonzero;stroke:none"
         id="path5118"
         inkscape:connector-curvature="0" /></g><g
       id="g5120"
       transform="translate(843.6895,375.4111)"><path
         d="m 0,0 c 0,-29.739 24.107,-53.847 53.846,-53.847 29.738,0 53.845,24.108 53.845,53.847 0,29.736 -24.107,53.845 -53.845,53.845 C 24.107,53.845 0,29.736 0,0"
         style="fill:#cc3e48;fill-opacity:1;fill-rule:nonzero;stroke:none"
         id="path5122"
         inkscape:connector-curvature="0" /></g><g
       id="g5124"
       transform="translate(917.9365,732.3301)"><path
         d="m 0,0 c 0,-16.503 13.378,-29.881 29.881,-29.881 16.503,0 29.88,13.378 29.88,29.881 0,16.501 -13.377,29.88 -29.88,29.88 C 13.378,29.88 0,16.501 0,0"
         style="fill:#ffa20d;fill-opacity:1;fill-rule:nonzero;stroke:none"
         id="path5126"
         inkscape:connector-curvature="0" /></g><path
       d="m 942.458,738.795 h -2.146 v -17.218 h 2.146 z m 10.717,8.506 h -10.717 v -2.209 h 10.717 z m -6.431,-8.572 h -2.145 v -17.152 h 2.145 z m 4.286,0 h -2.144 v -17.152 h 2.144 z m 4.288,0.066 h -2.144 v -17.218 h 2.144 z m -21.434,6.23 h 6.428 v 4.421 h 15.006 v -4.421 h 6.433 v -4.287 h -2.144 v -22.576 c 0,-2.102 -0.783,-2.95 -2.816,-2.95 h -17.552 c -2.366,0 -3.214,0.848 -3.214,3.217 v 22.309 h -2.141 z"
       style="fill:#323132;fill-opacity:1;fill-rule:evenodd;stroke:none"
       id="path5128"
       inkscape:connector-curvature="0" /><g
       id="g5130"
       transform="matrix(0.71471932,0,0,0.71471932,1030.434,479.90071)"><path
         d="m 0,0 c 0,-44.328 35.936,-80.263 80.265,-80.263 44.327,0 80.263,35.935 80.263,80.263 0,44.327 -35.936,80.261 -80.263,80.261 C 35.936,80.261 0,44.327 0,0"
         style="fill:#ffa20d;fill-opacity:1;fill-rule:nonzero;stroke:none"
         id="path5132"
         inkscape:connector-curvature="0" /></g><g
       id="g5134"
       transform="translate(475.4551,646.3994)"><path
         d="M 0,0 C 0,22.753 18.442,41.195 41.195,41.195 63.948,41.195 82.391,22.753 82.391,0 82.391,-22.754 63.948,-41.201 41.195,-41.201 18.442,-41.201 0,-22.754 0,0"
         style="fill:#ffa20d;fill-opacity:1;fill-rule:nonzero;stroke:none"
         id="path5136"
         inkscape:connector-curvature="0" /></g><path
       d="m 941.087,534.8 h -30.403 v 5.333 h 30.403 z"
       style="fill:#455a64;fill-opacity:1;fill-rule:nonzero;stroke:none"
       id="path5138"
       inkscape:connector-curvature="0" /><g
       id="g5140"
       transform="translate(910.7607,534.1055)"><path
         d="m 0,0 -1.322,-2.834 c 0,0 0.135,-0.833 0.682,-0.833 h 31.806 c 0.552,0 0.552,0.833 0.552,0.833 L 30.392,0 Z"
         style="fill:#455a64;fill-opacity:1;fill-rule:nonzero;stroke:none"
         id="path5142"
         inkscape:connector-curvature="0" /></g><g
       id="g5144"
       transform="translate(974.6094,607.7021)"><path
         d="m 0,0 v -55.379 -1.303 -6.475 c 0,-1.709 -1.246,-3.106 -2.764,-3.106 h -94.013 c -1.518,0 -2.77,1.397 -2.77,3.106 v 6.475 1.303 V 0 c 0,1.525 1.252,2.765 2.77,2.765 H -2.764 C -1.246,2.765 0,1.525 0,0"
         style="fill:#455a64;fill-opacity:1;fill-rule:nonzero;stroke:none"
         id="path5146"
         inkscape:connector-curvature="0" /></g><path
       d="m 968.826,603.585 h -88.197 v -49.797 h 88.197 z"
       style="fill:#323132;fill-opacity:1;fill-rule:nonzero;stroke:none"
       id="path5148"
       inkscape:connector-curvature="0" /><path
       d="m 919.502,564.515 h -30.227 v 27.45 h 30.227 z"
       style="fill:#f1a93b;fill-opacity:1;fill-rule:nonzero;stroke:none"
       id="path5150"
       inkscape:connector-curvature="0" /><path
       d="m 894.455,586.344 h 19.564 v 1.863 h -19.564 z"
       style="fill:#323132;fill-opacity:1;fill-rule:nonzero;stroke:none"
       id="path5152"
       inkscape:connector-curvature="0" /><path
       d="m 894.455,578.175 h 19.564 v 1.863 h -19.564 z"
       style="fill:#323132;fill-opacity:1;fill-rule:nonzero;stroke:none"
       id="path5154"
       inkscape:connector-curvature="0" /><path
       d="m 894.455,582.256 h 19.564 v 1.863 h -19.564 z"
       style="fill:#323132;fill-opacity:1;fill-rule:nonzero;stroke:none"
       id="path5156"
       inkscape:connector-curvature="0" /><path
       d="m 894.455,574.092 h 11.082 v 1.865 h -11.082 z"
       style="fill:#323132;fill-opacity:1;fill-rule:nonzero;stroke:none"
       id="path5158"
       inkscape:connector-curvature="0" /><g
       id="g5160"
       transform="translate(612.6157,599.6152)"><path
         d="m 0,0 c 0,-14.376 11.653,-26.028 26.029,-26.028 14.375,0 26.028,11.652 26.028,26.028 0,14.375 -11.653,26.028 -26.028,26.028 C 11.653,26.028 0,14.375 0,0"
         style="fill:#4b7699;fill-opacity:1;fill-rule:nonzero;stroke:none"
         id="path5162"
         inkscape:connector-curvature="0" /></g><g
       id="g5168"
       transform="matrix(1.3708455,0,0,1.3708455,701.6982,723.67627)"><path
         d="M 0,0 C 0,21.108 17.114,38.222 38.222,38.222 59.33,38.222 76.444,21.108 76.444,0 76.444,-21.107 59.33,-38.217 38.222,-38.217 17.114,-38.217 0,-21.107 0,0"
         style="fill:#adbbc8;fill-opacity:1;fill-rule:nonzero;stroke:none"
         id="path5170"
         inkscape:connector-curvature="0" /></g><g
       id="g5180"
       transform="translate(505.895,676.9473)"><path
         d="m 0,0 h 21.507 c 3.498,0 6.357,-2.859 6.357,-6.353 v -48.392 c 0,-3.496 -2.859,-6.357 -6.357,-6.357 H 0 c -3.497,0 -6.354,2.861 -6.354,6.357 V -6.353 C -6.354,-2.859 -3.497,0 0,0"
         style="fill:#455a64;fill-opacity:1;fill-rule:nonzero;stroke:none"
         id="path5182"
         inkscape:connector-curvature="0" /></g><g
       id="g5184"
       transform="translate(520.5596,675.0898)"><path
         d="M 0,0 C 0,0.219 -0.353,0.393 -0.778,0.393 H -7.034 C -7.468,0.393 -7.818,0.219 -7.818,0 v -0.197 c 0,-0.212 0.35,-0.386 0.784,-0.386 h 6.256 c 0.425,0 0.778,0.174 0.778,0.386 z"
         style="fill:#e6e6e6;fill-opacity:1;fill-rule:nonzero;stroke:none"
         id="path5186"
         inkscape:connector-curvature="0" /></g><g
       id="g5188"
       transform="translate(515.9165,672.7939)"><path
         d="m 0,0 c 0,-0.407 0.33,-0.734 0.731,-0.734 0.404,0 0.731,0.327 0.731,0.734 0,0.4 -0.327,0.733 -0.731,0.733 C 0.33,0.733 0,0.4 0,0"
         style="fill:#e6e6e6;fill-opacity:1;fill-rule:nonzero;stroke:none"
         id="path5190"
         inkscape:connector-curvature="0" /></g><g
       id="g5192"
       transform="translate(512.7417,619.0713)"><path
         d="M 0,0 C 0,-0.428 0.35,-0.784 0.784,-0.784 H 7.04 c 0.424,0 0.778,0.356 0.778,0.784 V 0.393 C 7.818,0.819 7.464,1.17 7.04,1.17 H 0.784 C 0.35,1.17 0,0.819 0,0.393 Z"
         style="fill:#e6e6e6;fill-opacity:1;fill-rule:nonzero;stroke:none"
         id="path5194"
         inkscape:connector-curvature="0" /></g><path
       d="m 502.171,622.202 h 29.633 v 48.393 h -29.633 z"
       style="fill:#455a64;fill-opacity:1;fill-rule:nonzero;stroke:none"
       id="path5196"
       inkscape:connector-curvature="0" /><path
       d="m 531.462,622.202 h -29.624 v 48.393 h 29.624 z"
       style="fill:#323132;fill-opacity:1;fill-rule:nonzero;stroke:none"
       id="path5198"
       inkscape:connector-curvature="0" /><g
       id="g5200"
       transform="translate(516.6533,642.9687)"><path
         d="M 0,0 2.377,2.08 9.171,-3.744 C 8.925,-3.972 8.594,-4.116 8.222,-4.116 h -16.45 c -0.373,0 -0.7,0.144 -0.94,0.372 l 6.789,5.824 z"
         style="fill:#cc3e48;fill-opacity:1;fill-rule:nonzero;stroke:none"
         id="path5202"
         inkscape:connector-curvature="0" /></g><g
       id="g5204"
       transform="translate(507.4761,652.2109)"><path
         d="m 0,0 c 0.247,0.23 0.577,0.371 0.949,0.371 h 16.45 c 0.369,0 0.703,-0.146 0.95,-0.381 L 9.177,-7.868 Z"
         style="fill:#cc3e48;fill-opacity:1;fill-rule:nonzero;stroke:none"
         id="path5206"
         inkscape:connector-curvature="0" /></g><g
       id="g5208"
       transform="translate(526.2617,651.377)"><path
         d="M 0,0 V -11.404 L -6.636,-5.77 Z"
         style="fill:#cc3e48;fill-opacity:1;fill-rule:nonzero;stroke:none"
         id="path5210"
         inkscape:connector-curvature="0" /></g><g
       id="g5212"
       transform="translate(513.6758,645.6074)"><path
         d="M 0,0 -6.637,-5.635 V 5.771 Z"
         style="fill:#cc3e48;fill-opacity:1;fill-rule:nonzero;stroke:none"
         id="path5214"
         inkscape:connector-curvature="0" /></g><g
       id="g7737"
       transform="matrix(0.64470724,0,0,0.64470724,161.91693,174.85834)"><g
         transform="translate(490.98455,462.25803)"
         id="g4894"><path
           inkscape:connector-curvature="0"
           id="path4896"
           style="fill:#455a64;fill-opacity:1;fill-rule:nonzero;stroke:none"
           d="m 0,0 c -2.945,0.653 -4.801,3.567 -4.15,6.511 0.655,2.942 3.569,4.799 6.512,4.148 C 5.307,10.007 7.16,7.09 6.51,4.147 5.855,1.206 2.941,-0.651 0,0" /></g><g
         transform="translate(530.3696,481.3662)"
         id="g4898"><path
           inkscape:connector-curvature="0"
           id="path4900"
           style="fill:#455a64;fill-opacity:1;fill-rule:nonzero;stroke:none"
           d="m 0,0 c -2.94,0.652 -4.795,3.566 -4.146,6.509 0.649,2.942 3.567,4.802 6.508,4.146 C 5.307,10.002 7.164,7.088 6.508,4.146 5.858,1.203 2.941,-0.654 0,0" /></g><g
         transform="matrix(0.84735293,0,0,0.84735293,395.62587,380.39451)"
         id="g5108"><path
           inkscape:connector-curvature="0"
           id="path5110"
           style="fill:#cc3e48;fill-opacity:1;fill-rule:nonzero;stroke:none"
           d="m 0,0 c 0,59.177 47.965,107.146 107.141,107.146 59.176,0 107.152,-47.969 107.152,-107.146 0,-59.17 -47.976,-107.141 -107.152,-107.141 C 47.965,-107.141 0,-59.17 0,0" /></g><g
         transform="translate(531.07875,330.82273)"
         id="g5244"><path
           inkscape:connector-curvature="0"
           id="path5246"
           style="fill:#adbbc8;fill-opacity:1;fill-rule:nonzero;stroke:none"
           d="m 0,0 h -108.952 c -1.104,0 -2.001,-0.897 -2.001,-1.994 0,-1.105 0.897,-1.998 2.001,-1.998 H 0 c 1.102,0 2.003,0.893 2.003,1.998 C 2.003,-0.897 1.102,0 0,0" /></g><g
         transform="translate(522.28185,347.06693)"
         id="g5248"><path
           inkscape:connector-curvature="0"
           id="path5250"
           style="fill:#adbbc8;fill-opacity:1;fill-rule:nonzero;stroke:none"
           d="m 0,0 c -2.669,0 -4.829,2.166 -4.829,4.834 0,2.674 2.16,4.845 4.829,4.845 2.672,0 4.837,-2.171 4.837,-4.845 C 4.837,2.166 2.672,0 0,0 m -12.986,0 c -2.677,0 -4.832,2.166 -4.832,4.834 0,2.674 2.155,4.845 4.832,4.845 2.672,0 4.827,-2.171 4.827,-4.845 C -8.159,2.166 -10.314,0 -12.986,0 m -10.306,4.361 c 0,-1.272 -1.024,-2.292 -2.29,-2.292 h -4.312 c -1.269,0 -2.3,1.02 -2.3,2.292 v 0.953 c 0,1.269 1.031,2.298 2.3,2.298 h 4.312 c 1.266,0 2.29,-1.029 2.29,-2.298 z m -11.64,0 c 0,-1.272 -1.03,-2.292 -2.298,-2.292 h -4.317 c -1.273,0 -2.3,1.02 -2.3,2.292 v 0.953 c 0,1.269 1.027,2.298 2.3,2.298 h 4.317 c 1.268,0 2.298,-1.029 2.298,-2.298 z M -47.167,3.987 c 0,-2.26 -1.83,-4.091 -4.086,-4.091 H -90.75 c -2.252,0 -4.08,1.831 -4.08,4.091 v 1.704 c 0,2.256 1.828,4.086 4.08,4.086 h 39.497 c 2.256,0 4.086,-1.83 4.086,-4.086 z M 0.83,20.701 h -93.013 c -5.505,0 -9.973,-4.47 -9.973,-9.973 V -1.589 c 0,-5.504 4.468,-9.975 9.973,-9.975 H 0.83 c 5.5,0 9.97,4.471 9.97,9.975 v 12.317 c 0,5.503 -4.47,9.973 -9.97,9.973" /></g><g
         transform="translate(513.72815,416.82083)"
         id="g5252"><path
           inkscape:connector-curvature="0"
           id="path5254"
           style="fill:#455a64;fill-opacity:1;fill-rule:nonzero;stroke:none"
           d="m 0,0 v -35.505 c 0,-2.225 -1.806,-4.031 -4.02,-4.031 h -8.999 c -1.097,0 -1.996,-0.9 -1.996,-1.994 0,-1.11 0.899,-2.002 1.996,-2.002 h 8.999 c 4.414,0 8.021,3.594 8.021,8.027 V -0.18 c 4.154,0.781 7.3,4.406 7.3,8.788 0,4.946 -4.014,8.952 -8.96,8.952 -4.939,0 -8.95,-4.006 -8.95,-8.952 C -6.609,4.475 -3.792,1.04 0,0" /></g><g
         transform="translate(499.99185,413.92823)"
         id="g5256"><path
           inkscape:connector-curvature="0"
           id="path5258"
           style="fill:#323132;fill-opacity:1;fill-rule:nonzero;stroke:none"
           d="M 0,0 C 0.697,-0.664 1.753,-0.732 2.52,-0.2 2.631,-0.123 2.733,-0.036 2.824,0.066 3.588,0.86 3.566,2.126 2.763,2.887 -2.172,7.607 -2.353,15.471 2.366,20.407 3.13,21.204 3.1,22.472 2.304,23.229 1.506,23.988 0.245,23.968 -0.519,23.167 -6.763,16.631 -6.53,6.243 0,0" /></g><g
         transform="translate(494.06755,407.72123)"
         id="g5260"><path
           inkscape:connector-curvature="0"
           id="path5262"
           style="fill:#323132;fill-opacity:1;fill-rule:nonzero;stroke:none"
           d="m 0,0 c 0.696,-0.668 1.749,-0.73 2.512,-0.197 0.12,0.066 0.208,0.161 0.305,0.258 0.771,0.799 0.738,2.065 -0.056,2.829 -4.051,3.873 -6.35,9.084 -6.486,14.687 -0.123,5.602 1.936,10.917 5.807,14.967 0.758,0.795 0.735,2.065 -0.064,2.829 C 1.216,36.131 -0.04,36.101 -0.803,35.309 -5.409,30.484 -7.866,24.154 -7.713,17.489 -7.561,10.82 -4.822,4.609 0,0" /></g><g
         transform="translate(490.99475,401.67723)"
         id="g5264"><path
           inkscape:connector-curvature="0"
           id="path5266"
           style="fill:#323132;fill-opacity:1;fill-rule:nonzero;stroke:none"
           d="m 0,0 c 0.111,0.073 0.215,0.158 0.31,0.259 0.764,0.802 0.735,2.067 -0.056,2.822 -5.618,5.368 -8.8,12.6 -8.982,20.355 -0.174,7.764 2.684,15.127 8.049,20.74 0.757,0.802 0.729,2.057 -0.074,2.821 -0.794,0.761 -2.053,0.737 -2.819,-0.065 C -9.673,40.551 -12.919,32.17 -12.722,23.344 -12.524,14.516 -8.897,6.299 -2.513,0.195 -1.811,-0.47 -0.759,-0.529 0,0" /></g></g><g
       id="g5268"
       transform="translate(1063.4315,765.0676)"><path
         d="m 0,0 c -8.482,0 -15.364,6.878 -15.364,15.365 0,8.483 6.882,15.361 15.364,15.361 8.483,0 15.365,-6.878 15.365,-15.361 C 15.365,6.878 8.483,0 0,0 m 0,49.117 c -18.643,0 -33.752,-15.113 -33.752,-33.752 C -33.752,-13.422 0,-37.41 0,-37.41 c 0,0 33.758,23.988 33.758,52.775 0,18.639 -15.113,33.752 -33.758,33.752"
         style="fill:#455a64;fill-opacity:1;fill-rule:nonzero;stroke:none"
         id="path5270"
         inkscape:connector-curvature="0" /></g><g
       id="g5272"
       transform="translate(776.9269,736.09132)"><path
         d="m 0,0 c -2.831,9.289 -11.461,16.053 -21.679,16.053 -9.69,0 -17.935,-6.093 -21.176,-14.652 -0.681,0.207 -1.388,0.353 -2.135,0.353 -4.066,0 -7.36,-3.294 -7.36,-7.36 0,-0.604 0.092,-1.182 0.228,-1.742 -4.402,-1.641 -7.542,-5.872 -7.542,-10.845 0,-6.399 5.187,-11.584 11.582,-11.584 h 44.147 c 8.37,0 15.157,6.787 15.157,15.154 C 11.222,-7.613 6.459,-1.735 0,0"
         style="fill:#455a64;fill-opacity:1;fill-rule:nonzero;stroke:none"
         id="path5274"
         inkscape:connector-curvature="0" /></g><g
       id="g5276"
       transform="translate(897.8633,346.6642)"><path
         d="M 0,0 C -16,0 -28.967,12.966 -28.967,28.96 -28.967,44.955 -16,57.914 0,57.914 15.992,57.914 28.952,44.955 28.952,28.96 28.952,12.966 15.992,0 0,0 m -0.323,67.377 c -21.334,0 -38.634,-17.301 -38.634,-38.635 0,-21.326 17.3,-38.627 38.634,-38.627 21.331,0 38.624,17.301 38.624,38.627 0,21.334 -17.293,38.635 -38.624,38.635"
         style="fill:#455a64;fill-opacity:1;fill-rule:evenodd;stroke:none"
         id="path5278"
         inkscape:connector-curvature="0" /></g><g
       id="g5280"
       transform="translate(889.5059,379.213)"><path
         d="m 0,0 -8.666,-20.937 21.55,9.175 z"
         style="fill:#323132;fill-opacity:1;fill-rule:evenodd;stroke:none"
         id="path5282"
         inkscape:connector-curvature="0" /></g><g
       id="g5284"
       transform="translate(892.5352,382.959)"><path
         d="M 0,0 13.111,-11.965 21.893,9.167 Z"
         style="fill:#eeac34;fill-opacity:1;fill-rule:evenodd;stroke:none"
         id="path5286"
         inkscape:connector-curvature="0" /></g><path
       d="m 733.706,877.886 h -25.037 v 18.145 h 25.037 z m -9.142,-3.512 h -6.33 v 0.984 h 6.33 z m -19.129,24.473 -10e-4,-26.724 h 31.225 v 26.724 z"
       style="fill:#adbbc8;fill-opacity:1;fill-rule:nonzero;stroke:none"
       id="path5288"
       inkscape:connector-curvature="0" /><path
       d="m 707.826,867.738 h 26.446 v 3.656 h -26.446 z"
       style="fill:#adbbc8;fill-opacity:1;fill-rule:nonzero;stroke:none"
       id="path5290"
       inkscape:connector-curvature="0" /><path
       d="m 747.675,555.021 h -8.932 v -27.222 h 8.932 z"
       style="fill:#455a64;fill-opacity:1;fill-rule:nonzero;stroke:none"
       id="path5292"
       inkscape:connector-curvature="0" /><path
       d="m 774.473,564.09 h -8.931 v -36.291 h 8.931 z"
       style="fill:#455a64;fill-opacity:1;fill-rule:nonzero;stroke:none"
       id="path5294"
       inkscape:connector-curvature="0" /><path
       d="m 761.074,542.918 h -8.935 v -15.119 h 8.935 z"
       style="fill:#455a64;fill-opacity:1;fill-rule:nonzero;stroke:none"
       id="path5296"
       inkscape:connector-curvature="0" /><g
       id="g7717"
       transform="translate(82.866049,-8.722742)"><g
         transform="matrix(0.76762181,0,0,0.76762181,336.475,800.20441)"
         id="g5086"><path
           inkscape:connector-curvature="0"
           id="path5088"
           style="fill:#93b0be;fill-opacity:1;fill-rule:nonzero;stroke:none"
           d="m 0,0 c 0,47.47 38.486,85.955 85.947,85.955 47.469,0 85.946,-38.485 85.946,-85.955 0,-47.461 -38.477,-85.942 -85.946,-85.942 C 38.486,-85.942 0,-47.461 0,0" /></g><g
         transform="matrix(0.73054991,0,0,0.73054991,489.37581,796.45715)"
         id="g5216"><path
           inkscape:connector-curvature="0"
           id="path5218"
           style="fill:#3a2f28;fill-opacity:1;fill-rule:nonzero;stroke:none"
           d="M 0,0 C 0.382,0 0.757,0.038 1.125,0.091 0.754,0.053 0.386,0 0,0" /></g><g
         transform="matrix(0.73054991,0,0,0.73054991,-535.42492,491.22272)"
         id="g6945"><path
           d="m 1227.2776,474.75858 h 109.93 v -28.582 h -109.93 z"
           style="fill:#243443;fill-opacity:1;fill-rule:nonzero;stroke:none;stroke-width:0.99999994"
           id="path464"
           inkscape:connector-curvature="0" /><path
           d="m 1230.3796,449.27858 h 103.727 v 22.379 h -103.727 z m 106.829,-6.203 h -109.931 c -1.712,0 -3.101,1.389 -3.101,3.102 v 28.581 c 0,1.713 1.389,3.102 3.101,3.102 h 109.931 c 1.712,0 3.101,-1.389 3.101,-3.102 v -28.581 c 0,-1.713 -1.389,-3.102 -3.101,-3.102"
           style="fill:#243443;fill-opacity:1;fill-rule:nonzero;stroke:none;stroke-width:0.99999994"
           id="path466"
           inkscape:connector-curvature="0" /><g
           id="g468"
           transform="translate(1249.5369,460.46368)"><path
             d="m 0,0 c 0,-3.596 -2.914,-6.516 -6.516,-6.516 -3.595,0 -6.516,2.92 -6.516,6.516 0,3.6 2.921,6.516 6.516,6.516 C -2.914,6.516 0,3.6 0,0"
             style="fill:#ffffff;fill-opacity:1;fill-rule:nonzero;stroke:none"
             id="path470"
             inkscape:connector-curvature="0" /></g><path
           d="m 1227.2776,432.98158 h 109.93 v -28.581 h -109.93 z"
           style="fill:#243443;fill-opacity:1;fill-rule:nonzero;stroke:none;stroke-width:0.99999994"
           id="path472"
           inkscape:connector-curvature="0" /><path
           d="m 1230.3796,407.50258 h 103.727 v 22.378 h -103.727 z m 106.829,-6.203 h -109.931 c -1.712,0 -3.101,1.388 -3.101,3.101 v 28.581 c 0,1.713 1.389,3.102 3.101,3.102 h 109.931 c 1.712,0 3.101,-1.389 3.101,-3.102 v -28.581 c 0,-1.713 -1.389,-3.101 -3.101,-3.101"
           style="fill:#243443;fill-opacity:1;fill-rule:nonzero;stroke:none;stroke-width:0.99999994"
           id="path474"
           inkscape:connector-curvature="0" /><g
           id="g476"
           transform="translate(1268.947,418.69138)"><path
             d="m 0,0 c 0,-3.596 -2.92,-6.516 -6.516,-6.516 -3.6,0 -6.516,2.92 -6.516,6.516 0,3.596 2.916,6.516 6.516,6.516 C -2.92,6.516 0,3.596 0,0"
             style="fill:#ffffff;fill-opacity:1;fill-rule:nonzero;stroke:none"
             id="path478"
             inkscape:connector-curvature="0" /></g><g
           id="g480"
           transform="translate(1249.5369,418.69138)"><path
             d="m 0,0 c 0,-3.596 -2.914,-6.516 -6.516,-6.516 -3.595,0 -6.516,2.92 -6.516,6.516 0,3.596 2.921,6.516 6.516,6.516 C -2.914,6.516 0,3.596 0,0"
             style="fill:#ffffff;fill-opacity:1;fill-rule:nonzero;stroke:none"
             id="path482"
             inkscape:connector-curvature="0" /></g><path
           d="m 1227.2776,391.20958 h 109.93 v -28.586 h -109.93 z"
           style="fill:#243443;fill-opacity:1;fill-rule:nonzero;stroke:none;stroke-width:0.99999994"
           id="path484"
           inkscape:connector-curvature="0" /><path
           d="m 1230.3796,365.72558 h 103.727 v 22.383 h -103.727 z m 106.829,-6.203 h -109.931 c -1.712,0 -3.101,1.388 -3.101,3.101 v 28.586 c 0,1.713 1.389,3.101 3.101,3.101 h 109.931 c 1.712,0 3.101,-1.388 3.101,-3.101 v -28.586 c 0,-1.713 -1.389,-3.101 -3.101,-3.101"
           style="fill:#243443;fill-opacity:1;fill-rule:nonzero;stroke:none;stroke-width:0.99999994"
           id="path486"
           inkscape:connector-curvature="0" /><g
           id="g488"
           transform="translate(1268.947,376.91427)"><path
             d="m 0,0 c 0,-3.596 -2.92,-6.511 -6.516,-6.511 -3.6,0 -6.516,2.915 -6.516,6.511 0,3.6 2.916,6.516 6.516,6.516 C -2.92,6.516 0,3.6 0,0"
             style="fill:#ffffff;fill-opacity:1;fill-rule:nonzero;stroke:none"
             id="path490"
             inkscape:connector-curvature="0" /></g><g
           id="g492"
           transform="translate(1288.3519,376.91427)"><path
             d="m 0,0 c 0,-3.596 -2.916,-6.511 -6.516,-6.511 -3.597,0 -6.511,2.915 -6.511,6.511 0,3.6 2.914,6.516 6.511,6.516 C -2.916,6.516 0,3.6 0,0"
             style="fill:#ffffff;fill-opacity:1;fill-rule:nonzero;stroke:none"
             id="path494"
             inkscape:connector-curvature="0" /></g><g
           id="g496"
           transform="translate(1249.5369,376.91427)"><path
             d="m 0,0 c 0,-3.596 -2.914,-6.511 -6.516,-6.511 -3.595,0 -6.516,2.915 -6.516,6.511 0,3.6 2.921,6.516 6.516,6.516 C -2.914,6.516 0,3.6 0,0"
             style="fill:#ffffff;fill-opacity:1;fill-rule:nonzero;stroke:none"
             id="path498"
             inkscape:connector-curvature="0" /></g></g></g><g
       id="g7041"
       transform="matrix(0.70193945,0,0,0.70193945,118.88247,541.29936)"><g
         transform="translate(654.92216,221.1323)"
         id="g5164"><path
           inkscape:connector-curvature="0"
           id="path5166"
           style="fill:#93b0be;fill-opacity:1;fill-rule:nonzero;stroke:none"
           d="m 0,0 c 0,-32.328 26.204,-58.533 58.532,-58.533 32.323,0 58.531,26.205 58.531,58.533 0,32.322 -26.208,58.527 -58.531,58.527 C 26.204,58.527 0,32.322 0,0" /></g><g
         transform="translate(-6.5420565,-8.722742)"
         id="g7032"><g
           id="g5220"
           transform="matrix(1.7177321,0,0,1.7177321,587.61147,863.11305)"><path
             d="m 73.34421,-361.95111 c 0,1.574 2.101,2.848 3.675,2.848 1.57,0 3.847,-1.274 3.847,-2.848 v -4.866 h -7.522 z m 13.224,-4.866 h -1.858 c 0.011,1.668 0.021,3.48 0.021,4.926 0,3.658 -3.967,6.622 -7.626,6.622 -3.659,0 -7.566,-2.964 -7.566,-6.622 v -4.926 h -1.833 c -1.042,0 -1.889,-0.846 -1.889,-1.887 v -15.06 c 0,-1.043 0.847,-1.888 1.889,-1.888 h 18.862 c 1.042,0 1.89,0.845 1.89,1.888 v 15.06 c 0,1.041 -0.848,1.887 -1.89,1.887"
             style="fill:#455a64;fill-opacity:1;fill-rule:evenodd;stroke:none"
             id="path5222"
             inkscape:connector-curvature="0" /></g><g
           id="g366"
           transform="matrix(1.7177321,0,0,1.7177321,733.12092,233.01952)"><path
             d="m 0,0 c -0.067,0.038 -0.132,0.078 -0.201,0.107 -1.133,0.465 -2.427,-0.078 -2.893,-1.208 -0.463,-1.133 0.077,-2.427 1.21,-2.89 0.286,-0.12 0.59,-0.171 0.883,-0.166 0.856,0.016 1.661,0.532 2.008,1.373 C 1.442,-1.721 0.988,-0.529 0,0"
             style="fill:#bd5b54;fill-opacity:1;fill-rule:nonzero;stroke:none"
             id="path368"
             inkscape:connector-curvature="0" /></g></g></g><g
       id="g370"
       transform="translate(1101.4376,490.45151)"><path
         d="m 0,0 -1.746,-0.086 c -0.258,-0.048 -0.479,-0.225 -0.575,-0.454 -0.069,-0.293 -0.158,-0.585 -0.254,-0.875 -0.052,-0.245 0.038,-0.524 0.23,-0.703 l 1.426,-1.018 c 0.462,-0.247 0.634,-0.822 0.386,-1.281 -0.142,-0.268 -0.399,-0.424 -0.677,-0.47 -0.197,-0.035 -0.412,-0.021 -0.605,0.086 l -0.919,0.355 -0.714,0.277 C -3.705,-4.108 -3.979,-4.186 -4.16,-4.355 -4.348,-4.599 -4.547,-4.836 -4.756,-5.062 -4.893,-5.263 -4.919,-5.544 -4.82,-5.786 l 0.888,-1.509 c 0.32,-0.411 0.245,-1.007 -0.172,-1.327 -0.07,-0.054 -0.147,-0.081 -0.227,-0.112 -0.385,-0.156 -0.83,-0.06 -1.098,0.281 l -1.015,1.026 -0.218,0.217 c -0.21,0.159 -0.491,0.205 -0.728,0.122 -0.263,-0.146 -0.536,-0.271 -0.811,-0.393 -0.221,-0.126 -0.364,-0.378 -0.371,-0.647 l 0.199,-1.74 c 0.113,-0.459 -0.145,-0.91 -0.569,-1.082 -0.045,-0.019 -0.08,-0.048 -0.128,-0.059 -0.508,-0.126 -1.018,0.188 -1.142,0.695 l -0.624,1.636 c -0.028,0.048 -0.071,0.077 -0.108,0.118 -0.134,0.158 -0.314,0.273 -0.508,0.285 -0.302,-0.022 -0.605,-0.03 -0.908,-0.025 -0.247,-0.029 -0.48,-0.201 -0.594,-0.44 l -0.525,-1.67 c -0.064,-0.327 -0.291,-0.572 -0.575,-0.687 -0.161,-0.07 -0.339,-0.108 -0.526,-0.073 -0.516,0.091 -0.855,0.585 -0.763,1.101 l 0.101,1.748 c -0.023,0.269 -0.182,0.51 -0.41,0.623 -0.057,0.019 -0.111,0.043 -0.163,0.062 -0.086,0.032 -0.167,0.064 -0.253,0.096 -0.137,0.059 -0.273,0.119 -0.41,0.183 -0.237,0.075 -0.523,0.016 -0.726,-0.158 l -1.157,-1.314 c -0.11,-0.155 -0.261,-0.254 -0.428,-0.322 -0.284,-0.12 -0.616,-0.113 -0.891,0.076 -0.431,0.292 -0.542,0.883 -0.247,1.315 l 0.801,1.557 c 0.087,0.25 0.04,0.532 -0.116,0.728 -0.15,0.148 -0.291,0.304 -0.435,0.457 -0.061,0.07 -0.131,0.131 -0.194,0.202 -0.187,0.163 -0.463,0.222 -0.721,0.147 l -1.594,-0.728 c -0.042,-0.027 -0.09,-0.032 -0.136,-0.051 -0.422,-0.177 -0.915,-0.043 -1.166,0.36 -0.276,0.445 -0.134,1.026 0.311,1.302 l 1.362,1.098 c 0.186,0.196 0.258,0.478 0.191,0.723 -0.11,0.276 -0.214,0.558 -0.299,0.845 -0.031,0.059 -0.087,0.099 -0.133,0.15 -0.12,0.141 -0.279,0.253 -0.472,0.277 l -1.448,-0.013 -0.303,-0.003 c -0.518,-0.072 -0.993,0.292 -1.063,0.811 -0.072,0.518 0.292,0.994 0.811,1.066 l 1.691,0.446 c 0.242,0.102 0.419,0.322 0.465,0.563 0.014,0.304 0.034,0.611 0.071,0.913 -0.004,0.25 -0.146,0.5 -0.375,0.637 l -1.606,0.698 c -0.502,0.148 -0.789,0.672 -0.642,1.174 0.147,0.501 0.674,0.789 1.175,0.644 l 1.729,-0.28 c 0.27,-0.005 0.526,0.132 0.663,0.345 0.134,0.271 0.276,0.536 0.426,0.791 0.097,0.231 0.065,0.514 -0.083,0.731 l -1.187,1.289 c -0.396,0.338 -0.445,0.934 -0.107,1.334 0.339,0.4 0.934,0.446 1.334,0.11 l 0.167,-0.112 1.294,-0.846 c 0.216,-0.1 0.456,-0.084 0.659,0.01 0.029,0.013 0.064,0.008 0.087,0.027 0.226,0.19 0.462,0.374 0.707,0.545 0.185,0.169 0.275,0.446 0.231,0.712 l -0.558,1.66 c -0.227,0.472 -0.03,1.039 0.443,1.264 0.396,0.191 0.853,0.064 1.124,-0.261 0.049,-0.059 0.105,-0.11 0.137,-0.183 l 0.951,-1.47 c 0.176,-0.207 0.454,-0.309 0.706,-0.267 0.104,0.033 0.217,0.054 0.319,0.082 0.183,0.044 0.356,0.093 0.537,0.131 0.242,0.08 0.437,0.295 0.496,0.556 l 0.167,1.742 c -0.016,0.521 0.396,0.959 0.919,0.972 0.3,0.011 0.565,-0.131 0.74,-0.349 0.135,-0.156 0.226,-0.349 0.233,-0.566 l 0.27,-1.733 c 0.073,-0.249 0.272,-0.448 0.507,-0.52 0.299,-0.04 0.599,-0.097 0.9,-0.167 0.006,0 0.007,0.005 0.011,0.005 0.245,-0.024 0.508,0.092 0.668,0.304 l 0.862,1.522 c 0.199,0.486 0.747,0.714 1.232,0.516 0.149,-0.059 0.261,-0.158 0.356,-0.274 0.219,-0.261 0.298,-0.623 0.165,-0.958 L -7.11,11.213 c -0.033,-0.266 0.075,-0.535 0.267,-0.696 0.264,-0.161 0.52,-0.335 0.76,-0.518 0.208,-0.105 0.466,-0.1 0.68,0.006 0.015,0.008 0.032,0.002 0.043,0.011 l 1.41,1.041 c 0.378,0.363 0.976,0.346 1.336,-0.029 0.016,-0.017 0.022,-0.04 0.039,-0.059 0.309,-0.377 0.293,-0.935 -0.068,-1.281 L -3.749,8.332 C -3.886,8.106 -3.902,7.819 -3.793,7.593 c 0.17,-0.244 0.326,-0.499 0.47,-0.762 0.15,-0.205 0.417,-0.325 0.686,-0.304 l 0.367,0.084 1.341,0.298 C -0.55,7.046 -0.144,6.917 0.104,6.626 0.176,6.541 0.241,6.447 0.281,6.334 0.456,5.843 0.204,5.3 -0.29,5.126 L -1.854,4.336 C -2.074,4.184 -2.204,3.923 -2.191,3.673 -2.139,3.378 -2.097,3.08 -2.067,2.779 -2.014,2.535 -1.821,2.323 -1.57,2.234 L -0.597,2.036 0.143,1.888 C 0.292,1.874 0.424,1.823 0.544,1.753 0.849,1.579 1.047,1.246 1.021,0.872 0.977,0.349 0.524,-0.04 0,0 m 10.171,3.313 c -0.669,4.831 -2.393,9.546 -6.536,12.591 -4.619,3.662 -10.354,4.954 -16.283,5.434 -6.138,0.094 -12.365,-1.517 -16.955,-5.628 -3.026,-3.49 -5.655,-7.33 -6.611,-11.774 -0.178,-1.466 1.418,-2.311 0.843,-3.794 l -0.222,-0.539 c -2.311,-2.519 -4.749,-5.067 -7.045,-7.521 -0.286,-0.497 -0.157,-1.198 0.192,-1.611 0.988,-1.066 2.9,-0.782 3.252,-2.487 0.125,-1.256 -0.576,-2.167 -1.228,-3.106 -0.032,-0.892 1.483,-1.338 0.845,-2.293 -0.302,-0.398 -1.133,-0.559 -0.926,-1.182 2.456,-2.196 -1.065,-4.253 -0.19,-6.772 0.461,-1.243 1.851,-1.337 2.946,-1.56 2.647,-0.575 5.515,-0.287 7.808,-1.721 2.185,-1.624 1.96,-4.43 2.25,-6.853 v -0.007 h 26.056 c 0.063,0.669 0.124,7.432 0.298,10.064 1.275,7.314 8.829,11.919 10.708,18.978 1.13,3.042 1.227,6.516 0.798,9.781"
         style="fill:#243443;fill-opacity:1;fill-rule:nonzero;stroke:none"
         id="path372"
         inkscape:connector-curvature="0" /></g><path
       d="m 705.0974,443.3602 0.248,-0.246 c 0.873,-0.875 2.289,-0.872 3.162,9.8e-4 l 12.986,12.98502 c 0.875,0.875 0.875,2.289 0,3.163 l -0.246,0.246 c -0.873,0.874 -2.289,0.875 -3.164,0.002 l -12.986,-12.986 c -0.873,-0.874 -0.873,-2.291 0,-3.165 m 6.609,-0.103 0.049,-0.048 c 0.899,-0.898 0.901,-2.354 0,-3.255 l -6.60699,-6.607 c -0.899,-0.899 -2.358,-0.899 -3.256,-9.7e-4 l -6.455,6.45497 c -0.899,0.899 -0.899,2.358 0.002,3.257 l 6.605,6.607 c 0.901,0.901 2.358,0.898 3.256,0 l 3.193,3.192 -0.59701,0.599 c -2.367,2.365 -6.199,2.363 -8.565,-0.002 l -7.746,-7.745 c -2.363,-2.366 -2.365,-6.197 0,-8.563 l 7.688,-7.687 c 2.363,-2.363 6.197,-2.363 8.562,0.002 l 7.744,7.746 c 2.366,2.364 2.366,6.198 0.004,8.561 l -0.683,0.682 z m 14.637,30.706 9.813,-9.812 c 1.796,-1.798 1.798,-4.709 0,-6.507 l -9.709,-9.71 c -1.795,-1.794 -4.709,-1.796 -6.508,0.002 l -1.776,1.777 3.153,3.154 0.101,-0.102 c 0.897,-0.896 2.354,-0.898 3.25,-0.003 l 6.612,6.612 c 0.896,0.897 0.894,2.354 -0.002,3.251 l -6.405,6.406 c -0.9,0.899 -2.355,0.899 -3.254,10e-4 l -6.611,-6.611 c -0.861,-0.862 -0.873,-2.226 -0.08,-3.129 l -3.172,-3.171 -1.627,1.627 c -1.795,1.795 -1.793,4.709 0.002,6.505 l 9.709,9.709 c 1.797,1.797 4.709,1.795 6.504,10e-4"
       style="fill:#607d8b;fill-opacity:1;fill-rule:nonzero;stroke:none;stroke-width:0.99999994"
       id="path462"
       inkscape:connector-curvature="0" /><g
       transform="matrix(0.75742681,0,0,-0.75742681,573.14303,486.01588)"
       id="g7659"><text
         xml:space="preserve"
         style="font-style:normal;font-variant:normal;font-weight:normal;font-stretch:normal;font-size:80px;line-height:100%;font-family:'Roboto Slab';-inkscape-font-specification:'Roboto Slab, Normal';text-align:start;letter-spacing:0px;word-spacing:0px;writing-mode:lr-tb;text-anchor:start;fill:#607d8b;fill-opacity:1;stroke:none;stroke-width:1px;stroke-linecap:butt;stroke-linejoin:miter;stroke-opacity:1"
         x="85.714287"
         y="375.21936"
         id="text4136"
         sodipodi:linespacing="100%"><tspan
           sodipodi:role="line"
           id="tspan4138"
           x="85.714287"
           y="375.21936">simpl</tspan></text>
<circle
         r="7.3023639"
         cy="317.81943"
         cx="136.29439"
         id="path4567-7"
         style="color:#000000;display:inline;overflow:visible;visibility:visible;fill:#ff5252;fill-opacity:1;stroke:#ff5252;stroke-width:2.19070911px;stroke-linecap:butt;stroke-linejoin:miter;stroke-miterlimit:4;stroke-dasharray:none;stroke-dashoffset:0;stroke-opacity:1;marker:none;enable-background:accumulate" /><circle
         r="7.3023634"
         cy="317.8158"
         cx="100.24829"
         id="path4567-7-3"
         style="color:#000000;display:inline;overflow:visible;visibility:visible;fill:#ff5252;fill-opacity:1;stroke:#ff5252;stroke-width:2.19070911px;stroke-linecap:butt;stroke-linejoin:miter;stroke-miterlimit:4;stroke-dasharray:none;stroke-dashoffset:0;stroke-opacity:1;marker:none;enable-background:accumulate" /><circle
         r="7.3023634"
         cy="283.81467"
         cx="100.61989"
         id="path4567-7-7"
         style="color:#000000;display:inline;overflow:visible;visibility:visible;fill:#ff5252;fill-opacity:1;stroke:#ff5252;stroke-width:2.19070911px;stroke-linecap:butt;stroke-linejoin:miter;stroke-miterlimit:4;stroke-dasharray:none;stroke-dashoffset:0;stroke-opacity:1;marker:none;enable-background:accumulate" /><circle
         r="7.3023634"
         cy="284.55786"
         cx="136.66483"
         id="path4567-7-9"
         style="color:#000000;display:inline;overflow:visible;visibility:visible;fill:#ff5252;fill-opacity:1;stroke:#ff5252;stroke-width:2.19070911px;stroke-linecap:butt;stroke-linejoin:miter;stroke-miterlimit:4;stroke-dasharray:none;stroke-dashoffset:0;stroke-opacity:1;marker:none;enable-background:accumulate" /></g></g></svg>