<?xml version="1.0" encoding="UTF-8" standalone="no"?>
<!-- Created with Inkscape (http://www.inkscape.org/) -->

<svg
   xmlns:dc="http://purl.org/dc/elements/1.1/"
   xmlns:cc="http://creativecommons.org/ns#"
   xmlns:rdf="http://www.w3.org/1999/02/22-rdf-syntax-ns#"
   xmlns:svg="http://www.w3.org/2000/svg"
   xmlns="http://www.w3.org/2000/svg"
   xmlns:sodipodi="http://sodipodi.sourceforge.net/DTD/sodipodi-0.dtd"
   xmlns:inkscape="http://www.inkscape.org/namespaces/inkscape"
   version="1.1"
   id="svg2"
   inkscape:version="0.91 r13725"
   xml:space="preserve"
   width="1461.3333"
   height="1040"
   viewBox="0 0 1461.3333 1040"
   sodipodi:docname="opensource.svg"><metadata
     id="metadata8"><rdf:RDF><cc:Work
         rdf:about=""><dc:format>image/svg+xml</dc:format><dc:type
           rdf:resource="http://purl.org/dc/dcmitype/StillImage" /><dc:title /></cc:Work></rdf:RDF></metadata><defs
     id="defs6" /><sodipodi:namedview
     pagecolor="#ffffff"
     bordercolor="#666666"
     borderopacity="1"
     objecttolerance="10"
     gridtolerance="10"
     guidetolerance="10"
     inkscape:pageopacity="0"
     inkscape:pageshadow="2"
     inkscape:window-width="1960"
     inkscape:window-height="1570"
     inkscape:document-units="px"
     id="namedview4"
     showgrid="false"
     inkscape:zoom="0.85606756"
     inkscape:cx="730.66663"
     inkscape:cy="520"
     inkscape:window-x="640"
     inkscape:window-y="189"
     inkscape:window-maximized="0"
     inkscape:current-layer="g10" /><g
     id="g10"
     inkscape:groupmode="layer"
     inkscape:label="ink_ext_XXXXXX"
     transform="matrix(1.3333333,0,0,-1.3333333,0,1040)"><path
       inkscape:connector-curvature="0"
       id="path18"
       style="fill:#CFD8DC;fill-opacity:1;fill-rule:nonzero;stroke:none;stroke-width:0.1"
       d="m 345.644,565.275 c 0,-80.586 -65.328,-145.912 -145.913,-145.912 -80.585,0 -145.9122,65.326 -145.9122,145.912 0,80.585 65.3272,145.913 145.9122,145.913 80.585,0 145.913,-65.328 145.913,-145.913" /><path
       inkscape:connector-curvature="0"
       id="path20"
       style="fill:#CFD8DC;fill-opacity:1;fill-rule:nonzero;stroke:none;stroke-width:0.1"
       d="m 694.064,214.726 c 0,-80.586 -65.326,-145.9139 -145.912,-145.9139 -80.585,0 -145.912,65.3279 -145.912,145.9139 0,80.585 65.327,145.911 145.912,145.911 80.586,0 145.912,-65.326 145.912,-145.911" /><path
       inkscape:connector-curvature="0"
       id="path22"
       style="fill:#CFD8DC;fill-opacity:1;fill-rule:nonzero;stroke:none;stroke-width:0.1"
       d="m 1042.18,214.726 c 0,-80.586 -65.326,-145.9139 -145.91,-145.9139 -80.586,0 -145.915,65.3279 -145.915,145.9139 0,80.585 65.329,145.911 145.915,145.911 80.584,0 145.91,-65.326 145.91,-145.911" /><path
       inkscape:connector-curvature="0"
       id="path24"
       style="fill:#CFD8DC;fill-opacity:1;fill-rule:nonzero;stroke:none;stroke-width:0.1"
       d="m 342.1396,212.9738 c 0,-80.586 -65.328,-145.913895 -145.913,-145.913895 -80.585,0 -145.912198,65.327895 -145.912198,145.913895 0,80.585 65.327198,145.911 145.912198,145.911 80.585,0 145.913,-65.326 145.913,-145.911" /><path
       inkscape:connector-curvature="0"
       id="path26"
       style="fill:#CFD8DC;fill-opacity:1;fill-rule:nonzero;stroke:none;stroke-width:0.1"
       d="m 1042.18,565.275 c 0,-80.586 -65.326,-145.912 -145.91,-145.912 -80.586,0 -145.915,65.326 -145.915,145.912 0,80.585 65.329,145.913 145.915,145.913 80.584,0 145.91,-65.328 145.91,-145.913" /><g
       id="g9846"
       transform="translate(701.75537,-7.8848951)"><path
         d="m 113.81092,550.89744 c -12.8804,0 -23.32434,-10.44119 -23.32434,-23.32092 0,-12.87972 10.44394,-23.32093 23.32434,-23.32093 12.87357,0 23.31751,10.44121 23.31751,23.32093 0,12.87973 -10.44394,23.32092 -23.31751,23.32092"
         style="fill:#ffffff;fill-opacity:1;fill-rule:nonzero;stroke:none"
         id="path150"
         inkscape:connector-curvature="0" /><path
         d="m 113.81092,507.56741 c -11.03252,0 -20.01185,8.97659 -20.01185,20.00911 0,11.03321 8.97933,20.00911 20.01185,20.00911 11.03253,0 20.00501,-8.9759 20.00501,-20.00911 0,-11.03252 -8.97248,-20.00911 -20.00501,-20.00911"
         style="fill:#ffffff;fill-opacity:1;fill-rule:nonzero;stroke:none"
         id="path152"
         inkscape:connector-curvature="0" /><path
         d="m 318.78869,589.91919 -29.33338,0 c 0,0 -55.32004,22.61394 -93.05785,22.61394 -37.74465,0 -57.96867,-36.67152 -57.96867,-36.67152 0,0 -72.06457,5.50053 -72.06457,-45.22856 l 20.99465,0 c 1.51937,13.25067 12.79828,23.57621 26.45205,23.57621 13.64694,0 24.92585,-10.32554 26.45206,-23.57621 l 94.22818,0 c 1.51937,13.25067 12.79827,23.57621 26.45205,23.57621 13.64693,0 24.92584,-10.32554 26.45206,-23.57621 l 37.50511,0 c 0,0 6.11169,41.56156 -6.11169,59.28614"
         style="fill:#607d8b;fill-opacity:1;fill-rule:nonzero;stroke:none"
         id="path154"
         inkscape:connector-curvature="0" /><path
         d="m 260.94321,550.89744 c -12.88041,0 -23.32435,-10.44119 -23.32435,-23.32092 0,-12.87972 10.44394,-23.32093 23.32435,-23.32093 12.87356,0 23.31751,10.44121 23.31751,23.32093 0,12.87973 -10.44395,23.32092 -23.31751,23.32092"
         style="fill:#ffffff;fill-opacity:1;fill-rule:nonzero;stroke:none"
         id="path156"
         inkscape:connector-curvature="0" /><path
         d="m 260.94321,507.56741 c -11.03253,0 -20.01186,8.97659 -20.01186,20.00911 0,11.03321 8.97933,20.00911 20.01186,20.00911 11.03252,0 20.00501,-8.9759 20.00501,-20.00911 0,-11.03252 -8.97249,-20.00911 -20.00501,-20.00911"
         style="fill:#ffffff;fill-opacity:1;fill-rule:nonzero;stroke:none"
         id="path158"
         inkscape:connector-curvature="0" /><path
         d="m 137.12843,527.57652 c 0,12.87973 -10.44394,23.32092 -23.31751,23.32092 -12.8804,0 -23.32434,-10.44119 -23.32434,-23.32092 0,-12.87972 10.44394,-23.32093 23.32434,-23.32093 12.87357,0 23.31751,10.44121 23.31751,23.32093"
         style="fill:#394b53;fill-opacity:1;fill-rule:nonzero;stroke:none"
         id="path160"
         inkscape:connector-curvature="0" /><path
         d="m 125.91796,527.57652 c 0,6.68796 -5.42045,12.10909 -12.10704,12.10909 -6.69342,0 -12.11387,-5.42113 -12.11387,-12.10909 0,-6.68727 5.42045,-12.10908 12.11387,-12.10908 6.68659,0 12.10704,5.42181 12.10704,12.10908"
         style="fill:#ffffff;fill-opacity:1;fill-rule:nonzero;stroke:none"
         id="path162"
         inkscape:connector-curvature="0" /><path
         d="m 284.26072,527.57652 c 0,12.87973 -10.44395,23.32092 -23.31751,23.32092 -12.88041,0 -23.32435,-10.44119 -23.32435,-23.32092 0,-12.87972 10.44394,-23.32093 23.32435,-23.32093 12.87356,0 23.31751,10.44121 23.31751,23.32093"
         style="fill:#394b53;fill-opacity:1;fill-rule:nonzero;stroke:none"
         id="path164"
         inkscape:connector-curvature="0" /><path
         d="m 273.05024,527.57652 c 0,6.68796 -5.42044,12.10909 -12.10703,12.10909 -6.69343,0 -12.11388,-5.42113 -12.11388,-12.10909 0,-6.68727 5.42045,-12.10908 12.11388,-12.10908 6.68659,0 12.10703,5.42181 12.10703,12.10908"
         style="fill:#ffffff;fill-opacity:1;fill-rule:nonzero;stroke:none"
         id="path166"
         inkscape:connector-curvature="0" /><path
         d="m 201.60574,609.08239 c -1.77259,0.091 -3.51097,0.13893 -5.20828,0.13893 -35.28082,0 -54.88203,-34.61284 -55.07366,-34.95915 l 60.28194,0 0,34.82022"
         style="fill:#ffffff;fill-opacity:1;fill-rule:nonzero;stroke:none"
         id="path168"
         inkscape:connector-curvature="0" /><path
         d="m 137.52538,575.43182 c -0.0205,0.37367 -2.28589,37.54275 -21.8871,55.02027 l 2.75812,3.09007 c 20.88789,-18.63211 23.17378,-56.28984 23.26276,-57.8838 l -4.13378,-0.22654"
         style="fill:#394b53;fill-opacity:1;fill-rule:nonzero;stroke:none"
         id="path170"
         inkscape:connector-curvature="0" /></g><path
       inkscape:connector-curvature="0"
       id="path930"
       style="fill:#607d8b;fill-opacity:1;fill-rule:evenodd;stroke:none"
       d="m 171.60099,500.69998 -21.57299,0 20.21636,36.24235 c -6.74512,0.72902 -12.01,6.74826 -12.01,14.06393 0,7.80699 5.98757,14.14321 13.36663,14.14321 7.38856,0 13.37613,-6.33622 13.37613,-14.14321 0,-7.06209 -4.89719,-12.91334 -11.29363,-13.97203 l 19.50317,-36.33425 -21.58567,0 z m 111.28814,148.52577 c -8.16514,8.64694 -19.45563,14.00689 -31.86817,14.00689 l -5.94635,0 c -12.42204,0 -23.70299,-5.35995 -31.87449,-14.00689 -8.17147,-8.64061 -13.24299,-20.56818 -13.24299,-33.69709 l 0,-30.04876 -28.35614,0 -49.89424,0 c -5.29655,0 -9.62638,-4.57704 -9.62638,-10.18107 l 0,-79.7813 c 0,-5.60088 4.32983,-10.18425 9.62638,-10.18425 l 49.89424,0 50.16681,0 c 5.2966,0 9.63274,4.58337 9.63274,10.18425 l 0,79.7813 c 0,5.60403 -4.33614,10.18107 -9.63274,10.18107 l -5.35995,0 0,30.04876 c 0,8.32682 3.22992,15.89607 8.42822,21.39548 5.19831,5.49624 12.35868,8.90684 20.23854,8.90684 l 5.94635,0 c 7.87989,0 15.03705,-3.4106 20.23218,-8.90684 5.20466,-5.49941 8.42508,-13.06866 8.42508,-21.39548 l 0,-38.54669 c 0,-4.80845 3.68953,-8.70401 8.23171,-8.70401 4.54216,0 8.22854,3.89556 8.22854,8.70401 l 0,38.54669 c 0,13.12891 -5.07469,25.05648 -13.24934,33.69709" /><path
       inkscape:connector-curvature="0"
       id="path400"
       style="fill:#d7d7d8;fill-opacity:1;fill-rule:nonzero;stroke:none;stroke-width:0.1"
       d="m 651.55316,-133.28438 0,127.329 c 0,4.562 3.71,8.273 8.27,8.273 l 111.93,0 c 0.63,0 1.24,-0.077 1.83,-0.211 l -1.13,-1.249 c -0.49,0.095 -1,0.144 -1.53,0.144 l -110.27,0 c -4.5,0 -8.15,-3.656 -8.15,-8.15 l 0,-125.085 -0.95,-1.051" /><g
       id="g9899"
       transform="translate(-706.13587,-344.30694)"><path
         d="m 919.55563,507.17733 -38.50075,0 c -2.92775,0 -5.3478,-2.57405 -5.3478,-5.70488 0,-3.11561 2.40312,-5.67103 5.3478,-5.67103 l 38.50075,0 c 2.9616,0 5.3478,2.55542 5.36471,5.67103 -0.0169,3.13083 -2.42004,5.70488 -5.36471,5.70488"
         style="fill:#607d8b;fill-opacity:1;fill-rule:nonzero;stroke:none;stroke-width:0.1"
         id="path392"
         inkscape:connector-curvature="0" /><path
         d="m 912.85396,489.05575 -25.11433,0 c -2.94467,0 -5.3478,-2.5622 -5.3478,-5.68627 0,-3.1359 2.40313,-5.70488 5.3478,-5.70488 l 25.11433,0 c 2.96159,0 5.3478,2.56898 5.3478,5.70488 0.0169,3.12407 -2.38621,5.68627 -5.3478,5.68627"
         style="fill:#607d8b;fill-opacity:1;fill-rule:nonzero;stroke:none;stroke-width:0.1"
         id="path394"
         inkscape:connector-curvature="0" /><path
         d="m 900.31371,651.26659 c -29.75134,0 -52.19178,-22.87707 -52.19178,-53.21396 0,-17.75096 11.57561,-33.57941 11.69408,-33.7385 l 1.0831,-1.44357 c 5.16163,-6.87089 12.9464,-17.25511 12.9464,-25.20572 l 0,-4.56763 c 0,-9.66325 1.32002,-12.45563 5.90627,-12.45563 l 40.09154,0 c 4.56932,0 5.88935,2.79238 5.88935,12.45563 l 0,3.72146 c 0,8.12663 8.44478,19.03207 13.48795,25.54927 l 0.76155,0.97986 c 0.11851,0.16247 12.50641,16.46648 12.50641,34.70483 0,30.33689 -22.42351,53.21396 -52.17487,53.21396 m 20.73117,-138.68054 -42.56236,0 c -10.30635,0 -10.30635,10.3842 -10.30635,17.2568 l 0,4.84855 c 0,7.09598 -8.08938,17.88973 -12.92948,24.33756 l -1.1508,1.54849 c -0.54154,0.7277 -13.21717,18.01327 -13.21717,38.21982 0,34.50512 25.55433,60.52317 59.43499,60.52317 33.88066,0 59.41808,-26.01805 59.41808,-60.52317 0,-20.76163 -13.53872,-38.55829 -14.11412,-39.30461 l -0.81233,-1.04586 c -4.7047,-6.08229 -13.47103,-17.40573 -13.47103,-24.65404 l 0,-3.94991 c 0,-6.8726 0,-17.2568 -10.28943,-17.2568"
         style="fill:#607d8b;fill-opacity:1;fill-rule:nonzero;stroke:none;stroke-width:0.1"
         id="path396"
         inkscape:connector-curvature="0" /><path
         d="m 914.73246,583.60005 c -0.0169,0.75309 -0.0508,1.51464 -0.0677,2.26096 -0.0847,2.9176 -1.52311,19.90362 8.07247,17.74588 8.05553,-1.8091 -1.55696,-15.75907 -8.00478,-20.00684 m -37.90843,7.32276 c -3.40159,5.32071 -2.77543,13.83149 5.22933,10.26742 4.89087,-2.17804 5.06011,-6.34289 5.41549,-10.65159 0.23694,-3.0479 0.33847,-6.08904 0.38925,-9.14372 -4.5524,1.99358 -8.37709,5.31565 -11.03407,9.52789 m 40.97157,17.06047 c -6.73551,-4.17838 -6.44782,-15.20398 -6.32935,-22.12227 0.0339,-1.3708 0.0677,-2.74666 0.13538,-4.109 -6.61704,-3.49298 -12.81101,-3.63684 -20.30809,-1.61111 l -0.18616,0.0558 c 0.0169,1.82942 0.0508,3.62331 0.10158,5.43071 0.13538,5.29535 -0.0339,11.07638 -3.04622,15.61016 -1.72619,2.60959 -8.19092,5.88935 -11.47407,4.78086 -9.2571,-3.16467 -3.6893,-15.47984 0.47386,-20.61609 2.70774,-3.32206 6.49859,-5.82165 10.69559,-7.43783 -0.0508,-9.13018 -0.66002,-34.0076 -0.44,-43.11577 l 3.26621,0 c 0.47385,8.75278 0.35539,33.30696 0.42308,42.08852 6.02474,-1.6162 12.54025,-1.51465 17.92189,0.46539 0.88002,0.32154 1.79388,0.69047 2.67389,1.09494 0.27078,-6.10935 0.67695,-12.19839 1.01542,-18.30097 0.16923,-3.14944 0.18615,-22.10197 0.27076,-25.34788 l 3.48623,0 c -0.16924,2.24574 -0.3554,20.19132 -0.47386,22.38291 -0.38924,7.60875 -0.84617,15.20567 -1.13387,22.83475 6.2109,3.38975 11.00022,8.89493 13.86027,15.14305 4.84009,10.54498 -4.78932,16.54771 -10.93251,12.77379"
         style="fill:#f6f443;fill-opacity:1;fill-rule:nonzero;stroke:none;stroke-width:0.1"
         id="path398"
         inkscape:connector-curvature="0" /><path
         d="m 854.18051,560.45221 -0.0846,0.12528 c -0.54155,0.7277 -13.21718,18.01327 -13.21718,38.21981 0,34.50513 25.55434,60.52318 59.435,60.52318 12.77716,0 24.35278,-3.69438 33.82989,-10.14728 l -5.39858,-5.99088 c -8.07245,5.15487 -17.78649,8.0843 -28.43131,8.0843 -29.75135,0 -52.19179,-22.87706 -52.19179,-53.21395 0,-14.74874 7.98786,-28.1707 10.76329,-32.37955 l -4.7047,-5.22087"
         style="fill:#607d8b;fill-opacity:1;fill-rule:nonzero;stroke:none;stroke-width:0.1"
         id="path408"
         inkscape:connector-curvature="0" /><path
         d="m 876.92556,585.69178 c -4.1293,5.29533 -9.32478,17.21956 -0.23692,20.3267 0.44001,0.15232 0.94771,0.2217 1.50619,0.2217 3.45237,0 8.47862,-2.75174 9.96788,-5.00256 0.40616,-0.61263 0.76156,-1.24725 1.06617,-1.89881 l -2.65698,-2.9582 c -0.67692,1.97326 -1.94619,3.66391 -4.51854,4.80962 -1.32002,0.58725 -2.43697,0.84617 -3.36775,0.84617 -4.73856,0 -4.70472,-6.66951 -1.86158,-11.11359 0.64309,-1.0391 1.3708,-2.02235 2.16619,-2.94637 l -2.06466,-2.28466"
         style="fill:#f1f24f;fill-opacity:1;fill-rule:nonzero;stroke:none;stroke-width:0.1"
         id="path410-0"
         inkscape:connector-curvature="0" /></g><path
       style="font-style:normal;font-variant:normal;font-weight:normal;font-stretch:normal;font-size:medium;line-height:100%;font-family:'Roboto Slab';-inkscape-font-specification:'Roboto Slab, Normal';text-align:start;letter-spacing:0px;word-spacing:0px;writing-mode:lr-tb;text-anchor:start;fill:#607d8b;fill-opacity:1;stroke:none;stroke-width:1px;stroke-linecap:butt;stroke-linejoin:miter;stroke-opacity:1"
       d="m 475.02423,202.48658 -5.96291,0 -1.28928,5.2377 q -1.45044,1.36985 -3.66639,2.17565 -2.17565,0.84609 -4.95566,0.84609 -4.23044,0 -6.28523,-1.85334 -2.05478,-1.85333 -2.05478,-4.47218 0,-2.57856 1.81304,-4.06928 1.81305,-1.49073 7.37306,-2.65913 8.25944,-1.77276 12.28843,-4.8348 4.02899,-3.02174 4.02899,-8.13857 0,-5.80175 -4.71392,-9.38755 -4.67363,-3.5858 -12.24813,-3.5858 -4.95567,0 -8.90408,1.12812 -3.94842,1.1684 -7.05074,3.34405 l -0.0403,9.95162 5.96291,0 1.49073,-5.84204 q 1.36986,-1.24899 3.70667,-1.81304 2.3771,-0.56407 4.8348,-0.56407 4.23044,0 6.60754,1.69219 2.4174,1.73246 2.4174,4.51247 0,2.61884 -2.0145,4.31101 -1.97421,1.69219 -7.53422,2.94118 -7.93711,1.73246 -11.9661,4.71392 -4.029,2.98145 -4.029,8.05798 0,5.31827 4.51247,9.06524 4.55277,3.74696 11.80495,3.74696 4.95566,0 8.90408,-1.28928 3.94841,-1.28928 6.56725,-3.5858 l 0.40291,-9.6293 z"
       id="path4352"
       inkscape:connector-curvature="0" /><path
       style="font-style:normal;font-variant:normal;font-weight:normal;font-stretch:normal;font-size:medium;line-height:100%;font-family:'Roboto Slab';-inkscape-font-specification:'Roboto Slab, Normal';text-align:start;letter-spacing:0px;word-spacing:0px;writing-mode:lr-tb;text-anchor:start;fill:#607d8b;fill-opacity:1;stroke:none;stroke-width:1px;stroke-linecap:butt;stroke-linejoin:miter;stroke-opacity:1"
       d="m 483.72685,177.66798 6.56726,1.12812 0,31.14413 -6.56726,1.12811 0,5.11682 14.50438,0 0,-37.38906 6.56726,-1.12812 0,-5.07653 -21.07164,0 0,5.07653 z m 14.50438,49.6775 -7.93712,0 0,8.09827 7.93712,0 0,-8.09827 z"
       id="path4354"
       inkscape:connector-curvature="0" /><path
       style="font-style:normal;font-variant:normal;font-weight:normal;font-stretch:normal;font-size:medium;line-height:100%;font-family:'Roboto Slab';-inkscape-font-specification:'Roboto Slab, Normal';text-align:start;letter-spacing:0px;word-spacing:0px;writing-mode:lr-tb;text-anchor:start;fill:#607d8b;fill-opacity:1;stroke:none;stroke-width:1px;stroke-linecap:butt;stroke-linejoin:miter;stroke-opacity:1"
       d="m 509.23038,177.66798 6.56726,1.12812 0,31.14413 -6.56726,1.12811 0,5.11682 13.69858,0 0.52376,-5.68088 q 2.09508,3.10232 5.39886,4.7945 3.30377,1.69218 7.65508,1.69218 4.35131,0 7.45365,-2.0145 3.14261,-2.0145 4.71392,-6.04349 2.05478,3.70667 5.43914,5.88234 3.38435,2.17565 7.89683,2.17565 6.68812,0 10.55595,-4.59305 3.86784,-4.55276 3.86784,-13.73887 l 0,-19.86294 6.56726,-1.12812 0,-5.07653 -21.11193,0 0,5.07653 6.56727,1.12812 0,19.94352 q 0,6.44639 -2.21595,9.10553 -2.21595,2.69942 -6.56727,2.69942 -4.14986,0 -6.68812,-2.94117 -2.49798,-2.90087 -2.90087,-7.33276 l 0,-21.47454 6.56725,-1.12812 0,-5.07653 -21.07163,0 0,5.07653 6.56725,1.12812 0,19.94352 q 0,6.12407 -2.29652,8.94437 -2.25624,2.86058 -6.56726,2.86058 -3.62609,0 -5.96291,-1.49073 -2.33682,-1.49072 -3.58581,-4.19015 l 0,-26.06759 6.56727,-1.12812 0,-5.07653 -21.07164,0 0,5.07653 z"
       id="path4356"
       inkscape:connector-curvature="0" /><path
       style="font-style:normal;font-variant:normal;font-weight:normal;font-stretch:normal;font-size:medium;line-height:100%;font-family:'Roboto Slab';-inkscape-font-specification:'Roboto Slab, Normal';text-align:start;letter-spacing:0px;word-spacing:0px;writing-mode:lr-tb;text-anchor:start;fill:#607d8b;fill-opacity:1;stroke:none;stroke-width:1px;stroke-linecap:butt;stroke-linejoin:miter;stroke-opacity:1"
       d="m 587.83604,160.94767 6.56726,1.12811 0,47.86445 -6.56726,1.12811 0,5.11682 13.37626,0 0.72521,-5.31827 q 2.17566,2.98146 5.27799,4.55277 3.14262,1.5713 7.25218,1.5713 8.09828,0 12.57046,-6.44639 4.51248,-6.40609 4.51248,-16.96206 l 0,-0.84609 q 0,-9.42785 -4.51248,-15.2296 -4.51247,-5.76145 -12.44958,-5.76145 -4.029,0 -7.09103,1.32956 -3.02175,1.36986 -5.15711,4.029 l 0,-15.02815 6.56726,-1.12811 0,-5.11683 -21.07164,0 0,5.11683 z m 35.73717,32.63484 q 0,7.45363 -2.90087,12.20785 -2.90088,4.75421 -8.62205,4.75421 -3.38436,0 -5.80175,-1.53102 -2.4174,-1.53102 -3.90812,-4.19015 l 0,-21.2328 q 1.49072,-2.69942 3.86783,-4.19015 2.4174,-1.45044 5.92262,-1.45044 5.64059,0 8.54147,4.10958 2.90087,4.10957 2.90087,10.67683 l 0,0.84609 z"
       id="path4358"
       inkscape:connector-curvature="0" /><path
       style="font-style:normal;font-variant:normal;font-weight:normal;font-stretch:normal;font-size:medium;line-height:100%;font-family:'Roboto Slab';-inkscape-font-specification:'Roboto Slab, Normal';text-align:start;letter-spacing:0px;word-spacing:0px;writing-mode:lr-tb;text-anchor:start;fill:#607d8b;fill-opacity:1;stroke:none;stroke-width:1px;stroke-linecap:butt;stroke-linejoin:miter;stroke-opacity:1"
       d="m 637.35237,230.32693 0,5.11682 14.50437,0 0,-56.64765 6.56726,-1.12812 0,-5.07653 -21.07163,0 0,5.07653 6.56726,1.12812 0,50.40271 -6.56726,1.12812 z"
       id="path4360"
       inkscape:connector-curvature="0" /><path
       inkscape:connector-curvature="0"
       id="path4567-7"
       d="m 497.77962,231.79502 a 7.531821,7.531821 0 0 0 -7.53182,-7.53181 7.531821,7.531821 0 0 0 -7.53182,7.53181 7.531821,7.531821 0 0 0 7.53182,7.53183 7.531821,7.531821 0 0 0 7.53182,-7.53183 z"
       style="color:#000000;display:inline;overflow:visible;visibility:visible;fill:#ff5252;fill-opacity:1;stroke:#ff5252;stroke-width:2.25954628px;stroke-linecap:butt;stroke-linejoin:miter;stroke-miterlimit:4;stroke-dasharray:none;stroke-dashoffset:0;stroke-opacity:1;marker:none;enable-background:accumulate" /><path
       inkscape:connector-curvature="0"
       id="path4567-7-3"
       d="m 460.60087,231.79877 a 7.5318205,7.5318205 0 0 0 -7.53182,-7.53182 7.5318205,7.5318205 0 0 0 -7.53182,7.53182 7.5318205,7.5318205 0 0 0 7.53182,7.53182 7.5318205,7.5318205 0 0 0 7.53182,-7.53182 z"
       style="color:#000000;display:inline;overflow:visible;visibility:visible;fill:#ff5252;fill-opacity:1;stroke:#ff5252;stroke-width:2.25954628px;stroke-linecap:butt;stroke-linejoin:miter;stroke-miterlimit:4;stroke-dasharray:none;stroke-dashoffset:0;stroke-opacity:1;marker:none;enable-background:accumulate" /><path
       inkscape:connector-curvature="0"
       id="path4567-7-7"
       d="m 460.98415,266.86829 a 7.5318205,7.5318205 0 0 0 -7.53182,-7.53182 7.5318205,7.5318205 0 0 0 -7.53182,7.53182 7.5318205,7.5318205 0 0 0 7.53182,7.53183 7.5318205,7.5318205 0 0 0 7.53182,-7.53183 z"
       style="color:#000000;display:inline;overflow:visible;visibility:visible;fill:#ff5252;fill-opacity:1;stroke:#ff5252;stroke-width:2.25954628px;stroke-linecap:butt;stroke-linejoin:miter;stroke-miterlimit:4;stroke-dasharray:none;stroke-dashoffset:0;stroke-opacity:1;marker:none;enable-background:accumulate" /><path
       inkscape:connector-curvature="0"
       id="path4567-7-9"
       d="m 498.1617,266.10175 a 7.5318205,7.5318205 0 0 0 -7.53182,-7.53182 7.5318205,7.5318205 0 0 0 -7.53182,7.53182 7.5318205,7.5318205 0 0 0 7.53182,7.53181 7.5318205,7.5318205 0 0 0 7.53182,-7.53181 z"
       style="color:#000000;display:inline;overflow:visible;visibility:visible;fill:#ff5252;fill-opacity:1;stroke:#ff5252;stroke-width:2.25954628px;stroke-linecap:butt;stroke-linejoin:miter;stroke-miterlimit:4;stroke-dasharray:none;stroke-dashoffset:0;stroke-opacity:1;marker:none;enable-background:accumulate" /><g
       id="g4536"
       transform="matrix(0.49690367,0,0,0.49690367,758.58447,131.3671)"><path
         d="m 292.364,99.5211 c -0.909,-2.2762 -2.21,-4.559 -4.073,-6.5152 -3.652,-3.8317 -8.927,-5.777 -15.676,-5.777 l -0.313,0.0012 c -7.136,0.0629 -12.626,2.1258 -16.317,6.1308 -1.724,1.8723 -2.924,4.02 -3.766,6.1602 l -141.707,0 0,-3.5781 138.995,0 c 3.091,-6.5891 9.508,-12.934 22.763,-13.05 13.172,-0.116 19.636,6.3402 22.799,13.05 l 142.296,0 0,3.5781 -145.001,0"
         style="fill:#607d8b;fill-opacity:1;fill-rule:nonzero;stroke:none"
         id="path18-1"
         inkscape:connector-curvature="0" /><path
         d="m 287.492,339.369 0,-17.096 -27.109,0 0,17.096 -149.871,0 0,-239.8479 141.707,0 c 0.842,-2.1402 2.042,-4.2879 3.766,-6.1602 3.691,-4.005 9.181,-6.0679 16.317,-6.1308 l 0.313,-0.0012 c 6.749,0 12.024,1.9453 15.676,5.777 1.863,1.9562 3.164,4.239 4.073,6.5152 l 145.001,0 0,239.8479 -149.873,0"
         style="fill:#5e6776;fill-opacity:1;fill-rule:nonzero;stroke:none"
         id="path20-3"
         inkscape:connector-curvature="0" /><path
         d="m 249.455,131.595 -131.449,0 0,-24.375 155.823,0 c 0,13.462 -10.913,24.375 -24.374,24.375"
         style="fill:#d8dbe3;fill-opacity:1;fill-rule:nonzero;stroke:none"
         id="path22-8"
         inkscape:connector-curvature="0" /><path
         d="m 273.829,107.22 c 0,9.817 -10.913,17.777 -24.374,17.777 l -131.449,0 0,-1.789 131.449,0 c 13.461,0 24.374,-7.158 24.374,-15.988"
         style="fill:#e9ecef;fill-opacity:1;fill-rule:nonzero;stroke:none"
         id="path24-4"
         inkscape:connector-curvature="0" /><path
         d="m 273.829,107.22 c 0,6.731 -10.913,12.186 -24.374,12.186 l -131.449,0 0,-1.715 131.449,0 c 13.461,0 24.374,-4.689 24.374,-10.471"
         style="fill:#e9ecef;fill-opacity:1;fill-rule:nonzero;stroke:none"
         id="path26-2"
         inkscape:connector-curvature="0" /><path
         d="m 273.829,107.22 c 0,4.136 -10.913,7.49 -24.374,7.49 l -131.449,0 0,-1.64 131.449,0 c 13.461,0 24.374,-2.619 24.374,-5.85"
         style="fill:#e9ecef;fill-opacity:1;fill-rule:nonzero;stroke:none"
         id="path28"
         inkscape:connector-curvature="0" /><path
         d="m 249.455,344 -131.449,0 0,-212.405 131.449,0 c 13.461,0 24.374,-10.913 24.374,-24.375 l 0,212.405 c 0,13.462 -10.913,24.375 -24.374,24.375"
         style="fill:#ffffff;fill-opacity:1;fill-rule:nonzero;stroke:none"
         id="path30"
         inkscape:connector-curvature="0" /><path
         d="m 298.203,344 131.448,0 0,-212.405 -131.448,0 c -13.462,0 -24.374,-10.913 -24.374,-24.375 l 0,212.405 c 0,13.462 10.912,24.375 24.374,24.375"
         style="fill:#f8fafc;fill-opacity:1;fill-rule:nonzero;stroke:none"
         id="path32"
         inkscape:connector-curvature="0" /><path
         d="m 298.203,131.595 131.448,0 0,-24.375 -155.822,0 c 0,13.462 10.912,24.375 24.374,24.375"
         style="fill:#d8dbe3;fill-opacity:1;fill-rule:nonzero;stroke:none"
         id="path34"
         inkscape:connector-curvature="0" /><path
         d="m 273.83,107.22 c 0,9.817 10.912,17.777 24.373,17.777 l 131.448,0 0,-1.789 -131.448,0 c -13.461,0 -24.373,-7.158 -24.373,-15.988"
         style="fill:#e9ecef;fill-opacity:1;fill-rule:nonzero;stroke:none"
         id="path36"
         inkscape:connector-curvature="0" /><path
         d="m 273.83,107.22 c 0,6.731 10.912,12.186 24.373,12.186 l 131.448,0 0,-1.715 -131.448,0 c -13.461,0 -24.373,-4.689 -24.373,-10.471"
         style="fill:#e9ecef;fill-opacity:1;fill-rule:nonzero;stroke:none"
         id="path38"
         inkscape:connector-curvature="0" /><path
         d="m 273.83,107.22 c 0,4.136 10.912,7.49 24.373,7.49 l 131.448,0 0,-1.64 -131.448,0 c -13.461,0 -24.373,-2.619 -24.373,-5.85"
         style="fill:#e9ecef;fill-opacity:1;fill-rule:nonzero;stroke:none"
         id="path40"
         inkscape:connector-curvature="0" /><path
         d="m 170.859,315.248 81.75,0 0,1.36914 -81.75,0 0,-1.36914 z"
         style="fill:#d7dadf;fill-opacity:1;fill-rule:evenodd;stroke:none"
         id="path42"
         inkscape:connector-curvature="0" /><path
         d="m 170.859,320.904 42.7449,0 0,1.37305 -42.7449,0 0,-1.37305 z"
         style="fill:#d7dadf;fill-opacity:1;fill-rule:evenodd;stroke:none"
         id="path44"
         inkscape:connector-curvature="0" /><path
         d="m 217.257,320.981 35.352,0 0,1.36836 -35.352,0 0,-1.36836 z"
         style="fill:#d7dadf;fill-opacity:1;fill-rule:evenodd;stroke:none"
         id="path46"
         inkscape:connector-curvature="0" /><path
         d="m 170.859,326.637 19.9602,0 0,1.37109 -19.9602,0 0,-1.37109 z"
         style="fill:#d7dadf;fill-opacity:1;fill-rule:evenodd;stroke:none"
         id="path48"
         inkscape:connector-curvature="0" /><path
         d="m 194.366,326.713 58.243,0 0,1.37305 -58.243,0 0,-1.37305 z"
         style="fill:#d7dadf;fill-opacity:1;fill-rule:evenodd;stroke:none"
         id="path50"
         inkscape:connector-curvature="0" /><path
         d="m 170.859,286.801 81.75,0 0,1.36875 -81.75,0 0,-1.36875 z"
         style="fill:#d7dadf;fill-opacity:1;fill-rule:evenodd;stroke:none"
         id="path52"
         inkscape:connector-curvature="0" /><path
         d="m 209.864,292.455 42.7449,0 0,1.375 -42.7449,0 0,-1.375 z"
         style="fill:#d7dadf;fill-opacity:1;fill-rule:evenodd;stroke:none"
         id="path54"
         inkscape:connector-curvature="0" /><path
         d="m 170.859,292.514 35.352,0 0,1.35469 -35.352,0 0,-1.35469 z"
         style="fill:#d7dadf;fill-opacity:1;fill-rule:evenodd;stroke:none"
         id="path56"
         inkscape:connector-curvature="0" /><path
         d="m 232.657,298.156 19.952,0 0,1.36719 -19.952,0 0,-1.36719 z"
         style="fill:#d7dadf;fill-opacity:1;fill-rule:evenodd;stroke:none"
         id="path58"
         inkscape:connector-curvature="0" /><path
         d="m 170.859,298.231 58.25,0 0,1.37422 -58.25,0 0,-1.37422 z"
         style="fill:#d7dadf;fill-opacity:1;fill-rule:evenodd;stroke:none"
         id="path60"
         inkscape:connector-curvature="0" /><path
         d="m 170.859,303.893 81.75,0 0,1.37109 -81.75,0 0,-1.37109 z"
         style="fill:#d7dadf;fill-opacity:1;fill-rule:evenodd;stroke:none"
         id="path62"
         inkscape:connector-curvature="0" /><path
         d="m 198.326,309.551 54.2828,0 0,1.37109 -54.2828,0 0,-1.37109 z"
         style="fill:#d7dadf;fill-opacity:1;fill-rule:evenodd;stroke:none"
         id="path64"
         inkscape:connector-curvature="0" /><path
         d="m 170.859,309.59 24.475,0 0,1.37109 -24.475,0 0,-1.37109 z"
         style="fill:#d7dadf;fill-opacity:1;fill-rule:evenodd;stroke:none"
         id="path66"
         inkscape:connector-curvature="0" /><path
         d="m 136.925,269.675 115.684,0 0,1.36992 -115.684,0 0,-1.36992 z"
         style="fill:#d7dadf;fill-opacity:1;fill-rule:evenodd;stroke:none"
         id="path68"
         inkscape:connector-curvature="0" /><path
         d="m 170.859,275.332 42.7449,0 0,1.37305 -42.7449,0 0,-1.37305 z"
         style="fill:#d7dadf;fill-opacity:1;fill-rule:evenodd;stroke:none"
         id="path70"
         inkscape:connector-curvature="0" /><path
         d="m 217.257,275.408 35.352,0 0,1.36875 -35.352,0 0,-1.36875 z"
         style="fill:#d7dadf;fill-opacity:1;fill-rule:evenodd;stroke:none"
         id="path72"
         inkscape:connector-curvature="0" /><path
         d="m 170.859,281.064 19.9602,0 0,1.37188 -19.9602,0 0,-1.37188 z"
         style="fill:#d7dadf;fill-opacity:1;fill-rule:evenodd;stroke:none"
         id="path74"
         inkscape:connector-curvature="0" /><path
         d="m 194.366,281.141 58.243,0 0,1.37305 -58.243,0 0,-1.37305 z"
         style="fill:#d7dadf;fill-opacity:1;fill-rule:evenodd;stroke:none"
         id="path76"
         inkscape:connector-curvature="0" /><path
         d="m 136.925,241.229 115.684,0 0,1.36797 -115.684,0 0,-1.36797 z"
         style="fill:#d7dadf;fill-opacity:1;fill-rule:evenodd;stroke:none"
         id="path78"
         inkscape:connector-curvature="0" /><path
         d="m 192.121,246.883 60.4879,0 0,1.375 -60.4879,0 0,-1.375 z"
         style="fill:#d7dadf;fill-opacity:1;fill-rule:evenodd;stroke:none"
         id="path80"
         inkscape:connector-curvature="0" /><path
         d="m 136.925,246.942 50.0262,0 0,1.35586 -50.0262,0 0,-1.35586 z"
         style="fill:#d7dadf;fill-opacity:1;fill-rule:evenodd;stroke:none"
         id="path82"
         inkscape:connector-curvature="0" /><path
         d="m 224.375,252.584 28.234,0 0,1.36719 -28.234,0 0,-1.36719 z"
         style="fill:#d7dadf;fill-opacity:1;fill-rule:evenodd;stroke:none"
         id="path84"
         inkscape:connector-curvature="0" /><path
         d="m 136.925,252.659 82.4289,0 0,1.37422 -82.4289,0 0,-1.37422 z"
         style="fill:#d7dadf;fill-opacity:1;fill-rule:evenodd;stroke:none"
         id="path86"
         inkscape:connector-curvature="0" /><path
         d="m 136.925,258.32 115.684,0 0,1.37109 -115.684,0 0,-1.37109 z"
         style="fill:#d7dadf;fill-opacity:1;fill-rule:evenodd;stroke:none"
         id="path88"
         inkscape:connector-curvature="0" /><path
         d="m 175.793,263.979 76.816,0 0,1.37109 -76.816,0 0,-1.37109 z"
         style="fill:#d7dadf;fill-opacity:1;fill-rule:evenodd;stroke:none"
         id="path90"
         inkscape:connector-curvature="0" /><path
         d="m 136.925,264.018 34.634,0 0,1.37109 -34.634,0 0,-1.37109 z"
         style="fill:#d7dadf;fill-opacity:1;fill-rule:evenodd;stroke:none"
         id="path92"
         inkscape:connector-curvature="0" /><path
         d="m 136.925,224.104 115.684,0 0,1.36914 -115.684,0 0,-1.36914 z"
         style="fill:#d7dadf;fill-opacity:1;fill-rule:evenodd;stroke:none"
         id="path94"
         inkscape:connector-curvature="0" /><path
         d="m 136.925,229.76 60.4871,0 0,1.37305 -60.4871,0 0,-1.37305 z"
         style="fill:#d7dadf;fill-opacity:1;fill-rule:evenodd;stroke:none"
         id="path96"
         inkscape:connector-curvature="0" /><path
         d="m 202.582,229.836 50.027,0 0,1.36914 -50.027,0 0,-1.36914 z"
         style="fill:#d7dadf;fill-opacity:1;fill-rule:evenodd;stroke:none"
         id="path98"
         inkscape:connector-curvature="0" /><path
         d="m 136.925,235.492 28.2461,0 0,1.3707 -28.2461,0 0,-1.3707 z"
         style="fill:#d7dadf;fill-opacity:1;fill-rule:evenodd;stroke:none"
         id="path100"
         inkscape:connector-curvature="0" /><path
         d="m 170.189,235.568 82.4199,0 0,1.37305 -82.4199,0 0,-1.37305 z"
         style="fill:#d7dadf;fill-opacity:1;fill-rule:evenodd;stroke:none"
         id="path102-8"
         inkscape:connector-curvature="0" /><path
         d="m 136.925,195.656 115.684,0 0,1.36914 -115.684,0 0,-1.36914 z"
         style="fill:#d7dadf;fill-opacity:1;fill-rule:evenodd;stroke:none"
         id="path104"
         inkscape:connector-curvature="0" /><path
         d="m 192.121,201.311 60.4879,0 0,1.375 -60.4879,0 0,-1.375 z"
         style="fill:#d7dadf;fill-opacity:1;fill-rule:evenodd;stroke:none"
         id="path106"
         inkscape:connector-curvature="0" /><path
         d="m 136.925,201.37 50.0262,0 0,1.35508 -50.0262,0 0,-1.35508 z"
         style="fill:#d7dadf;fill-opacity:1;fill-rule:evenodd;stroke:none"
         id="path108"
         inkscape:connector-curvature="0" /><path
         d="m 224.375,207.012 28.234,0 0,1.3668 -28.234,0 0,-1.3668 z"
         style="fill:#d7dadf;fill-opacity:1;fill-rule:evenodd;stroke:none"
         id="path110"
         inkscape:connector-curvature="0" /><path
         d="m 136.925,207.088 82.4289,0 0,1.37305 -82.4289,0 0,-1.37305 z"
         style="fill:#d7dadf;fill-opacity:1;fill-rule:evenodd;stroke:none"
         id="path112"
         inkscape:connector-curvature="0" /><path
         d="m 136.925,212.748 115.684,0 0,1.37109 -115.684,0 0,-1.37109 z"
         style="fill:#d7dadf;fill-opacity:1;fill-rule:evenodd;stroke:none"
         id="path114"
         inkscape:connector-curvature="0" /><path
         d="m 175.793,218.406 76.816,0 0,1.37031 -76.816,0 0,-1.37031 z"
         style="fill:#d7dadf;fill-opacity:1;fill-rule:evenodd;stroke:none"
         id="path116"
         inkscape:connector-curvature="0" /><path
         d="m 136.925,218.445 34.634,0 0,1.37109 -34.634,0 0,-1.37109 z"
         style="fill:#d7dadf;fill-opacity:1;fill-rule:evenodd;stroke:none"
         id="path118"
         inkscape:connector-curvature="0" /><path
         d="m 136.925,178.531 115.684,0 0,1.37031 -115.684,0 0,-1.37031 z"
         style="fill:#d7dadf;fill-opacity:1;fill-rule:evenodd;stroke:none"
         id="path120"
         inkscape:connector-curvature="0" /><path
         d="m 136.925,184.187 60.4871,0 0,1.375 -60.4871,0 0,-1.375 z"
         style="fill:#d7dadf;fill-opacity:1;fill-rule:evenodd;stroke:none"
         id="path122"
         inkscape:connector-curvature="0" /><path
         d="m 202.582,184.266 50.027,0 0,1.36914 -50.027,0 0,-1.36914 z"
         style="fill:#d7dadf;fill-opacity:1;fill-rule:evenodd;stroke:none"
         id="path124"
         inkscape:connector-curvature="0" /><path
         d="m 136.925,189.922 28.2461,0 0,1.37031 -28.2461,0 0,-1.37031 z"
         style="fill:#d7dadf;fill-opacity:1;fill-rule:evenodd;stroke:none"
         id="path126"
         inkscape:connector-curvature="0" /><path
         d="m 170.189,189.998 82.4199,0 0,1.37188 -82.4199,0 0,-1.37188 z"
         style="fill:#d7dadf;fill-opacity:1;fill-rule:evenodd;stroke:none"
         id="path128"
         inkscape:connector-curvature="0" /><path
         d="m 136.925,150.085 115.684,0 0,1.36797 -115.684,0 0,-1.36797 z"
         style="fill:#d7dadf;fill-opacity:1;fill-rule:evenodd;stroke:none"
         id="path130"
         inkscape:connector-curvature="0" /><path
         d="m 192.121,155.74 60.4879,0 0,1.37422 -60.4879,0 0,-1.37422 z"
         style="fill:#d7dadf;fill-opacity:1;fill-rule:evenodd;stroke:none"
         id="path132"
         inkscape:connector-curvature="0" /><path
         d="m 136.925,155.799 50.0262,0 0,1.3543 -50.0262,0 0,-1.3543 z"
         style="fill:#d7dadf;fill-opacity:1;fill-rule:evenodd;stroke:none"
         id="path134"
         inkscape:connector-curvature="0" /><path
         d="m 224.375,161.44 28.234,0 0,1.36836 -28.234,0 0,-1.36836 z"
         style="fill:#d7dadf;fill-opacity:1;fill-rule:evenodd;stroke:none"
         id="path136"
         inkscape:connector-curvature="0" /><path
         d="m 136.925,161.516 82.4289,0 0,1.37383 -82.4289,0 0,-1.37383 z"
         style="fill:#d7dadf;fill-opacity:1;fill-rule:evenodd;stroke:none"
         id="path138"
         inkscape:connector-curvature="0" /><path
         d="m 136.925,167.176 115.684,0 0,1.37188 -115.684,0 0,-1.37188 z"
         style="fill:#d7dadf;fill-opacity:1;fill-rule:evenodd;stroke:none"
         id="path140"
         inkscape:connector-curvature="0" /><path
         d="m 175.793,172.834 76.816,0 0,1.37188 -76.816,0 0,-1.37188 z"
         style="fill:#d7dadf;fill-opacity:1;fill-rule:evenodd;stroke:none"
         id="path142"
         inkscape:connector-curvature="0" /><path
         d="m 136.925,172.875 34.634,0 0,1.36992 -34.634,0 0,-1.36992 z"
         style="fill:#d7dadf;fill-opacity:1;fill-rule:evenodd;stroke:none"
         id="path144"
         inkscape:connector-curvature="0" /><path
         d="m 295.268,161.553 115.684,0 0,1.36992 -115.684,0 0,-1.36992 z"
         style="fill:#d7dadf;fill-opacity:1;fill-rule:evenodd;stroke:none"
         id="path148-4"
         inkscape:connector-curvature="0" /><path
         d="m 350.464,155.894 60.4879,0 0,1.37305 -60.4879,0 0,-1.37305 z"
         style="fill:#d7dadf;fill-opacity:1;fill-rule:evenodd;stroke:none"
         id="path150-5"
         inkscape:connector-curvature="0" /><path
         d="m 295.268,155.82 50.027,0 0,1.36914 -50.027,0 0,-1.36914 z"
         style="fill:#d7dadf;fill-opacity:1;fill-rule:evenodd;stroke:none"
         id="path152-2"
         inkscape:connector-curvature="0" /><path
         d="m 382.705,150.162 28.2469,0 0,1.37109 -28.2469,0 0,-1.37109 z"
         style="fill:#d7dadf;fill-opacity:1;fill-rule:evenodd;stroke:none"
         id="path154-5"
         inkscape:connector-curvature="0" /><path
         d="m 295.268,150.085 82.4199,0 0,1.37188 -82.4199,0 0,-1.37188 z"
         style="fill:#d7dadf;fill-opacity:1;fill-rule:evenodd;stroke:none"
         id="path156-1"
         inkscape:connector-curvature="0" /><path
         d="m 295.268,190.001 115.684,0 0,1.36992 -115.684,0 0,-1.36992 z"
         style="fill:#d7dadf;fill-opacity:1;fill-rule:evenodd;stroke:none"
         id="path158-0"
         inkscape:connector-curvature="0" /><path
         d="m 295.268,184.34 60.4879,0 0,1.375 -60.4879,0 0,-1.375 z"
         style="fill:#d7dadf;fill-opacity:1;fill-rule:evenodd;stroke:none"
         id="path160-2"
         inkscape:connector-curvature="0" /><path
         d="m 360.926,184.301 50.0258,0 0,1.35469 -50.0258,0 0,-1.35469 z"
         style="fill:#d7dadf;fill-opacity:1;fill-rule:evenodd;stroke:none"
         id="path162-2"
         inkscape:connector-curvature="0" /><path
         d="m 295.268,178.647 28.2332,0 0,1.36719 -28.2332,0 0,-1.36719 z"
         style="fill:#d7dadf;fill-opacity:1;fill-rule:evenodd;stroke:none"
         id="path164-0"
         inkscape:connector-curvature="0" /><path
         d="m 328.522,178.564 82.4301,0 0,1.375 -82.4301,0 0,-1.375 z"
         style="fill:#d7dadf;fill-opacity:1;fill-rule:evenodd;stroke:none"
         id="path166-3"
         inkscape:connector-curvature="0" /><path
         d="m 295.268,172.907 115.684,0 0,1.36992 -115.684,0 0,-1.36992 z"
         style="fill:#d7dadf;fill-opacity:1;fill-rule:evenodd;stroke:none"
         id="path168-3"
         inkscape:connector-curvature="0" /><path
         d="m 295.268,167.25 76.8152,0 0,1.36914 -76.8152,0 0,-1.36914 z"
         style="fill:#d7dadf;fill-opacity:1;fill-rule:evenodd;stroke:none"
         id="path170-6"
         inkscape:connector-curvature="0" /><path
         d="m 376.317,167.21 34.6348,0 0,1.3707 -34.6348,0 0,-1.3707 z"
         style="fill:#d7dadf;fill-opacity:1;fill-rule:evenodd;stroke:none"
         id="path172"
         inkscape:connector-curvature="0" /><path
         d="m 295.268,207.125 115.684,0 0,1.37109 -115.684,0 0,-1.37109 z"
         style="fill:#d7dadf;fill-opacity:1;fill-rule:evenodd;stroke:none"
         id="path174"
         inkscape:connector-curvature="0" /><path
         d="m 350.464,201.467 60.4879,0 0,1.37188 -60.4879,0 0,-1.37188 z"
         style="fill:#d7dadf;fill-opacity:1;fill-rule:evenodd;stroke:none"
         id="path176"
         inkscape:connector-curvature="0" /><path
         d="m 295.268,201.393 50.027,0 0,1.36914 -50.027,0 0,-1.36914 z"
         style="fill:#d7dadf;fill-opacity:1;fill-rule:evenodd;stroke:none"
         id="path178"
         inkscape:connector-curvature="0" /><path
         d="m 382.705,195.734 28.2469,0 0,1.37188 -28.2469,0 0,-1.37188 z"
         style="fill:#d7dadf;fill-opacity:1;fill-rule:evenodd;stroke:none"
         id="path180"
         inkscape:connector-curvature="0" /><path
         d="m 295.268,195.656 82.4199,0 0,1.37305 -82.4199,0 0,-1.37305 z"
         style="fill:#d7dadf;fill-opacity:1;fill-rule:evenodd;stroke:none"
         id="path182"
         inkscape:connector-curvature="0" /><path
         d="m 295.268,235.574 115.684,0 0,1.36914 -115.684,0 0,-1.36914 z"
         style="fill:#d7dadf;fill-opacity:1;fill-rule:evenodd;stroke:none"
         id="path184"
         inkscape:connector-curvature="0" /><path
         d="m 295.268,229.912 60.4879,0 0,1.375 -60.4879,0 0,-1.375 z"
         style="fill:#d7dadf;fill-opacity:1;fill-rule:evenodd;stroke:none"
         id="path186"
         inkscape:connector-curvature="0" /><path
         d="m 360.926,229.873 50.0258,0 0,1.35586 -50.0258,0 0,-1.35586 z"
         style="fill:#d7dadf;fill-opacity:1;fill-rule:evenodd;stroke:none"
         id="path188"
         inkscape:connector-curvature="0" /><path
         d="m 295.268,224.219 28.2332,0 0,1.3668 -28.2332,0 0,-1.3668 z"
         style="fill:#d7dadf;fill-opacity:1;fill-rule:evenodd;stroke:none"
         id="path190"
         inkscape:connector-curvature="0" /><path
         d="m 328.522,224.137 82.4301,0 0,1.375 -82.4301,0 0,-1.375 z"
         style="fill:#d7dadf;fill-opacity:1;fill-rule:evenodd;stroke:none"
         id="path192"
         inkscape:connector-curvature="0" /><path
         d="m 295.268,218.479 115.684,0 0,1.37227 -115.684,0 0,-1.37227 z"
         style="fill:#d7dadf;fill-opacity:1;fill-rule:evenodd;stroke:none"
         id="path194"
         inkscape:connector-curvature="0" /><path
         d="m 295.268,212.822 76.8152,0 0,1.37031 -76.8152,0 0,-1.37031 z"
         style="fill:#d7dadf;fill-opacity:1;fill-rule:evenodd;stroke:none"
         id="path196"
         inkscape:connector-curvature="0" /><path
         d="m 376.317,212.782 34.6348,0 0,1.37109 -34.6348,0 0,-1.37109 z"
         style="fill:#d7dadf;fill-opacity:1;fill-rule:evenodd;stroke:none"
         id="path198"
         inkscape:connector-curvature="0" /><path
         d="m 295.268,252.697 115.684,0 0,1.37109 -115.684,0 0,-1.37109 z"
         style="fill:#d7dadf;fill-opacity:1;fill-rule:evenodd;stroke:none"
         id="path200"
         inkscape:connector-curvature="0" /><path
         d="m 350.464,247.039 60.4879,0 0,1.37188 -60.4879,0 0,-1.37188 z"
         style="fill:#d7dadf;fill-opacity:1;fill-rule:evenodd;stroke:none"
         id="path202"
         inkscape:connector-curvature="0" /><path
         d="m 295.268,246.965 50.027,0 0,1.36914 -50.027,0 0,-1.36914 z"
         style="fill:#d7dadf;fill-opacity:1;fill-rule:evenodd;stroke:none"
         id="path204"
         inkscape:connector-curvature="0" /><path
         d="m 382.705,241.307 28.2469,0 0,1.37188 -28.2469,0 0,-1.37188 z"
         style="fill:#d7dadf;fill-opacity:1;fill-rule:evenodd;stroke:none"
         id="path206"
         inkscape:connector-curvature="0" /><path
         d="m 295.268,241.229 82.4199,0 0,1.37422 -82.4199,0 0,-1.37422 z"
         style="fill:#d7dadf;fill-opacity:1;fill-rule:evenodd;stroke:none"
         id="path208"
         inkscape:connector-curvature="0" /><path
         d="m 295.268,281.146 115.684,0 0,1.36797 -115.684,0 0,-1.36797 z"
         style="fill:#d7dadf;fill-opacity:1;fill-rule:evenodd;stroke:none"
         id="path210"
         inkscape:connector-curvature="0" /><path
         d="m 295.268,275.484 60.4879,0 0,1.375 -60.4879,0 0,-1.375 z"
         style="fill:#d7dadf;fill-opacity:1;fill-rule:evenodd;stroke:none"
         id="path212"
         inkscape:connector-curvature="0" /><path
         d="m 360.926,275.445 50.0258,0 0,1.35625 -50.0258,0 0,-1.35625 z"
         style="fill:#d7dadf;fill-opacity:1;fill-rule:evenodd;stroke:none"
         id="path214"
         inkscape:connector-curvature="0" /><path
         d="m 295.268,269.793 28.2332,0 0,1.36602 -28.2332,0 0,-1.36602 z"
         style="fill:#d7dadf;fill-opacity:1;fill-rule:evenodd;stroke:none"
         id="path216"
         inkscape:connector-curvature="0" /><path
         d="m 328.522,269.709 82.4301,0 0,1.375 -82.4301,0 0,-1.375 z"
         style="fill:#d7dadf;fill-opacity:1;fill-rule:evenodd;stroke:none"
         id="path218"
         inkscape:connector-curvature="0" /><path
         d="m 295.268,264.051 115.684,0 0,1.37188 -115.684,0 0,-1.37188 z"
         style="fill:#d7dadf;fill-opacity:1;fill-rule:evenodd;stroke:none"
         id="path220"
         inkscape:connector-curvature="0" /><path
         d="m 295.268,258.395 76.8152,0 0,1.36992 -76.8152,0 0,-1.36992 z"
         style="fill:#d7dadf;fill-opacity:1;fill-rule:evenodd;stroke:none"
         id="path222"
         inkscape:connector-curvature="0" /><path
         d="m 376.317,258.354 34.6348,0 0,1.37227 -34.6348,0 0,-1.37227 z"
         style="fill:#d7dadf;fill-opacity:1;fill-rule:evenodd;stroke:none"
         id="path224"
         inkscape:connector-curvature="0" /><path
         d="m 295.268,298.27 115.684,0 0,1.36914 -115.684,0 0,-1.36914 z"
         style="fill:#d7dadf;fill-opacity:1;fill-rule:evenodd;stroke:none"
         id="path226"
         inkscape:connector-curvature="0" /><path
         d="m 350.464,292.609 60.4879,0 0,1.37305 -60.4879,0 0,-1.37305 z"
         style="fill:#d7dadf;fill-opacity:1;fill-rule:evenodd;stroke:none"
         id="path228"
         inkscape:connector-curvature="0" /><path
         d="m 295.268,292.536 50.027,0 0,1.36953 -50.027,0 0,-1.36953 z"
         style="fill:#d7dadf;fill-opacity:1;fill-rule:evenodd;stroke:none"
         id="path230"
         inkscape:connector-curvature="0" /><path
         d="m 382.705,286.879 28.2469,0 0,1.37109 -28.2469,0 0,-1.37109 z"
         style="fill:#d7dadf;fill-opacity:1;fill-rule:evenodd;stroke:none"
         id="path232"
         inkscape:connector-curvature="0" /><path
         d="m 295.268,286.801 82.4199,0 0,1.37266 -82.4199,0 0,-1.37266 z"
         style="fill:#d7dadf;fill-opacity:1;fill-rule:evenodd;stroke:none"
         id="path234"
         inkscape:connector-curvature="0" /><path
         d="m 295.268,326.717 115.684,0 0,1.36914 -115.684,0 0,-1.36914 z"
         style="fill:#d7dadf;fill-opacity:1;fill-rule:evenodd;stroke:none"
         id="path236"
         inkscape:connector-curvature="0" /><path
         d="m 295.268,321.057 60.4879,0 0,1.37422 -60.4879,0 0,-1.37422 z"
         style="fill:#d7dadf;fill-opacity:1;fill-rule:evenodd;stroke:none"
         id="path238"
         inkscape:connector-curvature="0" /><path
         d="m 360.926,321.018 50.0258,0 0,1.35469 -50.0258,0 0,-1.35469 z"
         style="fill:#d7dadf;fill-opacity:1;fill-rule:evenodd;stroke:none"
         id="path240"
         inkscape:connector-curvature="0" /><path
         d="m 295.268,315.363 28.2332,0 0,1.36719 -28.2332,0 0,-1.36719 z"
         style="fill:#d7dadf;fill-opacity:1;fill-rule:evenodd;stroke:none"
         id="path242"
         inkscape:connector-curvature="0" /><path
         d="m 328.522,315.281 82.4301,0 0,1.37305 -82.4301,0 0,-1.37305 z"
         style="fill:#d7dadf;fill-opacity:1;fill-rule:evenodd;stroke:none"
         id="path244"
         inkscape:connector-curvature="0" /><path
         d="m 295.268,309.623 115.684,0 0,1.37109 -115.684,0 0,-1.37109 z"
         style="fill:#d7dadf;fill-opacity:1;fill-rule:evenodd;stroke:none"
         id="path246"
         inkscape:connector-curvature="0" /><path
         d="m 295.268,303.965 76.8152,0 0,1.37109 -76.8152,0 0,-1.37109 z"
         style="fill:#d7dadf;fill-opacity:1;fill-rule:evenodd;stroke:none"
         id="path248"
         inkscape:connector-curvature="0" /><path
         d="m 376.317,303.926 34.6348,0 0,1.37109 -34.6348,0 0,-1.37109 z"
         style="fill:#d7dadf;fill-opacity:1;fill-rule:evenodd;stroke:none"
         id="path250"
         inkscape:connector-curvature="0" /><path
         d="m 279.936,83.7012 0,0.2957 -0.208,-0.209 0,0.4152 -0.206,-0.2082 0,0.4153 -0.207,-0.209 0,0.4148 -0.206,-0.2082 0,0.416 -0.207,-0.209 0,0.4141 -0.206,-0.2078 0,0.416 -0.207,-0.209 0,0.4141 -0.206,-0.2082 0,0.416 -0.207,-0.209 0,0.4141 -0.206,-0.2082 0,0.416 -0.207,-0.209 0,0.4152 -0.206,-0.2082 0,0.4161 -0.207,-0.209 0,0.416 -0.207,-0.209 0,0.4148 -0.206,-0.2078 0,0.4149 -0.207,-0.209 0,0.4152 -0.206,-0.2082 0,0.3602 c 1.308,0.1609 2.547,0.4097 3.719,0.7449 l 0,-4.409 -0.053,-0.0539 -0.154,-0.0359 m -3.719,3.6 0,0.1289 c 0.048,0.0051 0.096,0.0109 0.144,0.0168 l -0.144,-0.1457"
         style="fill:#343942;fill-opacity:1;fill-rule:nonzero;stroke:none"
         id="path252"
         inkscape:connector-curvature="0" /><path
         d="m 276.217,87.4301 0,0.2871 -0.207,-0.209 0,0.4137 -0.206,-0.2078 0,0.416 -0.207,-0.209 0,0.4141 -0.206,-0.2082 0,0.416 -0.207,-0.209 0,0.416 -0.207,-0.209 0,0.4149 -0.206,-0.209 0,0.4152 -0.207,-0.209 0,0.416 -0.207,-0.2089 0,0.416 -0.207,-0.209 0,0.4137 -0.206,-0.2079 0,0.4161 -0.207,-0.209 0,0.4148 -0.206,-0.209 0,0.4161 -0.207,-0.209 0,0.4152 -0.207,-0.2094 0,0.416 -0.206,-0.2089 0,0.4152 -0.207,-0.2082 0,0.4152 -0.206,-0.2082 0,0.4153 -0.207,-0.2082 0,0.416 -0.207,-0.209 0,0.4148 -0.206,-0.209 0,0.4161 -0.207,-0.209 0,0.414 -0.206,-0.2078 0,0.416 -0.207,-0.2089 0,0.4148 -0.207,-0.209 0,0.416 -0.206,-0.209 0,0.4149 -0.206,-0.209 0,0.416 -0.207,-0.209 0,14.1341 9.711,0 0,-19.02 c -1.172,-0.3352 -2.411,-0.584 -3.719,-0.7449 l 0,0.0551 -0.063,-0.0633 c -0.048,-0.0059 -0.096,-0.0117 -0.144,-0.0168"
         style="fill:#4f5663;fill-opacity:1;fill-rule:nonzero;stroke:none"
         id="path254"
         inkscape:connector-curvature="0" /><path
         d="m 270.432,332.035 0,-238.9491 3.947,3.9879 3.053,-3.9879 0,238.9491 c -2.893,-4.008 -4.844,-3.635 -7,0"
         style="fill:#f25547;fill-opacity:1;fill-rule:nonzero;stroke:none"
         id="path256"
         inkscape:connector-curvature="0" /><path
         d="m 142.258,128.453 0,-29.9921 c 0,-0.9871 -0.807,-1.7839 -1.789,-1.7839 -3.843,0 -21.459,0 -25.303,0 -2.825,0 -5.13,2.3 -5.13,5.125 l 0,54.368 -13.777,-36.712 c -4.7981,-6.381 -3.436,-14.342 -0.2871,-21.6689 6.5121,-15.2129 22.8271,-34.2192 22.8271,-50.784 0,-8.3422 0,-17.3653 0,-17.3653 l 47.397,0 0,9.8301 c 0,3.1133 0.579,5.7801 1.863,8.6012 5.233,11.5519 4.671,25.5359 -0.454,37.0258 -1.233,2.7711 -1.803,5.407 -1.803,8.4652 l 0,34.8909 c 0,15.536 -23.544,15.527 -23.544,0"
         style="fill:#f0ccab;fill-opacity:1;fill-rule:evenodd;stroke:none"
         id="path258"
         inkscape:connector-curvature="0" /><path
         d="m 147.607,123.284 c -0.585,0 -1.06,0.477 -1.06,1.063 l 0,4.116 c 0,5.109 3.756,7.396 7.478,7.396 3.724,0 7.48,-2.287 7.48,-7.396 l 0,-4.116 c 0,-0.586 -0.476,-1.063 -1.062,-1.063 l -12.836,0"
         style="fill:#ffffff;fill-opacity:1;fill-rule:evenodd;stroke:none"
         id="path260"
         inkscape:connector-curvature="0" /><path
         d="m 111.592,19.091 60.7297,0 0,22.7738 -60.7297,0 0,-22.7738 z"
         style="fill:#ffffff;fill-opacity:1;fill-rule:nonzero;stroke:none"
         id="path262"
         inkscape:connector-curvature="0" /><path
         d="m 107.613,0 68.6883,0 0,29.7879 -68.6883,0 0,-29.7879 z"
         style="fill:#607d8b;fill-opacity:1;fill-rule:nonzero;stroke:none"
         id="path264"
         inkscape:connector-curvature="0" /><path
         d="m 123.521,18.007 c 0,-2.3961 -1.941,-4.339 -4.337,-4.339 -2.396,0 -4.338,1.9429 -4.338,4.339 0,2.395 1.942,4.3379 4.338,4.3379 2.396,0 4.337,-1.9429 4.337,-4.3379"
         style="fill:#fbc944;fill-opacity:1;fill-rule:evenodd;stroke:none"
         id="path266"
         inkscape:connector-curvature="0" /><path
         d="m 405.298,128.453 0,-29.9921 c 0,-0.9871 0.807,-1.7839 1.79,-1.7839 3.843,0 21.459,0 25.302,0 2.825,0 5.13,2.3 5.13,5.125 l 0,54.368 13.777,-36.712 c 4.799,-6.381 3.435,-14.342 0.287,-21.6689 -6.512,-15.2129 -22.827,-34.2192 -22.827,-50.784 0,-8.3422 0,-17.3653 0,-17.3653 l -47.398,0 0,9.8301 c 0,3.1133 -0.578,5.7801 -1.861,8.6012 -5.233,11.5519 -4.673,25.5359 0.453,37.0258 1.233,2.7711 1.803,5.407 1.803,8.4652 l 0,34.8909 c 0,15.536 23.544,15.527 23.544,0"
         style="fill:#f0ccab;fill-opacity:1;fill-rule:evenodd;stroke:none"
         id="path268"
         inkscape:connector-curvature="0" /><path
         d="m 387.112,123.284 c -0.586,0 -1.061,0.477 -1.061,1.063 l 0,4.116 c 0,5.082 3.877,7.396 7.479,7.396 3.602,0 7.479,-2.314 7.479,-7.396 l 0,-4.116 c 0,-0.586 -0.476,-1.063 -1.062,-1.063 l -12.835,0"
         style="fill:#ffffff;fill-opacity:1;fill-rule:evenodd;stroke:none"
         id="path270"
         inkscape:connector-curvature="0" /><path
         d="m 375.233,19.091 60.7316,0 0,22.7738 -60.7316,0 0,-22.7738 z"
         style="fill:#ffffff;fill-opacity:1;fill-rule:nonzero;stroke:none"
         id="path272-6"
         inkscape:connector-curvature="0" /><path
         d="m 371.255,0 68.6871,0 0,29.7879 -68.6871,0 0,-29.7879 z"
         style="fill:#607d8b;fill-opacity:1;fill-rule:nonzero;stroke:none"
         id="path274"
         inkscape:connector-curvature="0" /><path
         d="m 424.035,18.007 c 0,-2.3961 1.941,-4.339 4.338,-4.339 2.396,0 4.338,1.9429 4.338,4.339 0,2.395 -1.942,4.3379 -4.338,4.3379 -2.397,0 -4.338,-1.9429 -4.338,-4.3379"
         style="fill:#fbc944;fill-opacity:1;fill-rule:evenodd;stroke:none"
         id="path276"
         inkscape:connector-curvature="0" /></g><path
       inkscape:connector-curvature="0"
       id="path20-7"
       style="fill:#cfd8dc;fill-opacity:1;fill-rule:nonzero;stroke:none;stroke-width:0.1"
       d="m 725.0135,565.96146 c 0,-80.586 -65.326,-145.9139 -145.912,-145.9139 -80.585,0 -145.912,65.3279 -145.912,145.9139 0,80.585 65.327,145.911 145.912,145.911 80.586,0 145.912,-65.326 145.912,-145.911" /><g
       id="g37"
       transform="matrix(1.6880872,0,0,-1.6880872,-296.57493,883.9953)"><polygon
         class="st1"
         points="467.4,177.7 466.7,176.9 519.3,124.3 571.6,176.6 570.9,177.3 519.3,125.8 "
         id="polygon39"
         style="fill:#594a42" /></g><path
       class="st24"
       d="m 683.3597,496.07285 -207.1283,0 c -7.93401,0 -14.34874,6.41474 -14.34874,14.34875 l 0,92.33837 c 0,7.934 6.41473,14.34874 14.34874,14.34874 l 207.1283,0 c 7.93401,0 14.34874,-6.41474 14.34874,-14.34874 l 0,-92.33837 c 0,-7.93401 -6.41473,-14.34875 -14.34874,-14.34875 z"
       id="path41"
       inkscape:connector-curvature="0"
       style="fill:#607d8b" /><path
       class="st12"
       d="m 477.41306,506.37019 c -2.86975,0 -5.23307,2.36332 -5.23307,5.23307 l 0,89.97504 c 0,2.86975 2.36332,5.23307 5.23307,5.23307 l 204.76498,0 c 2.86975,0 5.23307,-2.36332 5.23307,-5.23307 l 0,-89.97504 c 0,-2.86975 -2.36332,-5.23307 -5.23307,-5.23307 l -204.76498,0 z"
       id="path43"
       inkscape:connector-curvature="0"
       style="fill:#ffffff" /><circle
       class="st24"
       cx="579.88007"
       cy="-668.93298"
       r="7.0899658"
       id="circle55"
       style="fill:#607d8b"
       transform="scale(1,-1)" /><g
       style="font-style:normal;font-variant:normal;font-weight:bold;font-stretch:normal;font-size:20px;line-height:89.99999762%;font-family:'Roboto Slab';-inkscape-font-specification:'Roboto Slab, Bold';text-align:start;letter-spacing:0px;word-spacing:0px;writing-mode:lr-tb;text-anchor:start;fill:#607d8b;fill-opacity:1;stroke:none;stroke-width:1px;stroke-linecap:butt;stroke-linejoin:miter;stroke-opacity:1"
       id="text4473"
       transform="matrix(1.7791582,0,0,-2.9100236,-191.31014,1354.2313)"><path
         d="m 393.48724,267.93057 -1.17187,0.14649 -2.88086,12.35351 -2.64649,0 -2.60742,-9.38476 -0.0586,0 -2.60742,9.38476 -2.64649,0 -2.90039,-12.35351 -1.16211,-0.14649 0,-1.71875 5.23438,0 0,1.71875 -1.29883,0.22461 1.63086,7.79297 0.0586,0.01 2.66602,-9.7461 2.09961,0 2.68554,9.7461 0.0586,-0.01 1.62109,-7.79297 -1.29883,-0.22461 0,-1.71875 5.22461,0 0,1.71875 z"
         id="path4478"
         inkscape:connector-curvature="0"
         style="fill:#607d8b;fill-opacity:1" /><path
         d="m 399.14154,280.63565 q -2.28516,0 -3.65234,-1.46484 -1.36719,-1.46485 -1.36719,-3.72071 l 0,-0.39062 q 0,-2.35352 1.28906,-3.87695 1.29883,-1.52344 3.47656,-1.51368 2.13868,0 3.32032,1.28907 1.18164,1.28906 1.18164,3.48632 l 0,1.55274 -6.3086,0 -0.0195,0.0586 q 0.0781,1.04492 0.69336,1.71875 0.625,0.67383 1.68945,0.67383 0.94727,0 1.57227,-0.18555 0.625,-0.19531 1.36719,-0.60546 l 0.77148,1.75781 q -0.65429,0.51758 -1.69922,0.86914 -1.03515,0.35156 -2.31445,0.35156 z m -0.25391,-8.76953 q -0.79101,0 -1.25,0.60547 -0.45898,0.60547 -0.5664,1.5918 l 0.0293,0.0488 3.4961,0 0,-0.2539 q 0,-0.90821 -0.42969,-1.44532 -0.41992,-0.54687 -1.2793,-0.54687 z"
         id="path4480"
         inkscape:connector-curvature="0"
         style="fill:#607d8b;fill-opacity:1" /><path
         d="m 416.3974,280.43057 q -0.11719,-0.26367 -0.20508,-0.53711 -0.0879,-0.2832 -0.13672,-0.5664 -0.50781,0.58593 -1.24023,0.94726 -0.72266,0.36133 -1.66016,0.36133 -1.55273,0 -2.4707,-0.83984 -0.9082,-0.84961 -0.9082,-2.30469 0,-1.48438 1.1914,-2.29492 1.19141,-0.81055 3.4961,-0.81055 l 1.45507,0 0,-1.03516 q 0,-0.76171 -0.43945,-1.18164 -0.43945,-0.41992 -1.29883,-0.41992 -0.48828,0 -0.86914,0.11719 -0.38086,0.10742 -0.61523,0.26367 l -0.18555,1.13281 -2.14844,0 0.01,-2.34375 q 0.78125,-0.52734 1.78711,-0.88867 1.01562,-0.36133 2.20703,-0.36133 1.96289,0 3.18359,0.9668 1.23047,0.95703 1.23047,2.73438 l 0,4.36523 q 0,0.24414 0,0.45898 0.01,0.21485 0.0391,0.41016 l 0.86915,0.11719 0,1.70898 -3.29102,0 z m -2.4707,-1.90429 q 0.64453,0 1.17187,-0.27344 0.52735,-0.2832 0.82031,-0.70313 l 0,-1.61132 -1.45507,0 q -0.90821,0 -1.37696,0.42968 -0.46875,0.41992 -0.46875,1.01563 0,0.53711 0.3418,0.83984 0.35156,0.30274 0.9668,0.30274 z"
         id="path4482"
         inkscape:connector-curvature="0"
         style="fill:#607d8b;fill-opacity:1" /><path
         d="m 420.86029,278.72159 1.36719,-0.29297 0,-6.55273 -1.51367,-0.29297 0,-1.71875 4.16992,0 0.12695,1.54297 q 0.37109,-0.82032 0.95703,-1.2793 0.58594,-0.45899 1.35742,-0.45899 0.22461,0 0.46875,0.0391 0.25391,0.0293 0.41993,0.0781 l -0.30274,2.59766 -1.17187,-0.0293 q -0.625,0 -1.03516,0.24414 -0.41016,0.24414 -0.625,0.69336 l 0,5.13672 1.36719,0.29297 0,1.70898 -5.58594,0 0,-1.70898 z"
         id="path4484"
         inkscape:connector-curvature="0"
         style="fill:#607d8b;fill-opacity:1" /><path
         d="m 433.94623,280.63565 q -2.28516,0 -3.65235,-1.46484 -1.36718,-1.46485 -1.36718,-3.72071 l 0,-0.39062 q 0,-2.35352 1.28906,-3.87695 1.29883,-1.52344 3.47656,-1.51368 2.13867,0 3.32031,1.28907 1.18164,1.28906 1.18164,3.48632 l 0,1.55274 -6.30859,0 -0.0195,0.0586 q 0.0781,1.04492 0.69336,1.71875 0.625,0.67383 1.68945,0.67383 0.94727,0 1.57227,-0.18555 0.625,-0.19531 1.36719,-0.60546 l 0.77148,1.75781 q -0.6543,0.51758 -1.69922,0.86914 -1.03516,0.35156 -2.31445,0.35156 z m -0.25391,-8.76953 q -0.79101,0 -1.25,0.60547 -0.45898,0.60547 -0.5664,1.5918 l 0.0293,0.0488 3.4961,0 0,-0.2539 q 0,-0.90821 -0.42969,-1.44532 -0.41992,-0.54687 -1.2793,-0.54687 z"
         id="path4486"
         inkscape:connector-curvature="0"
         style="fill:#607d8b;fill-opacity:1" /><path
         d="m 444.47357,275.04971 q 0,-2.36328 1.31836,-3.86718 1.32813,-1.51368 3.66211,-1.51368 2.34375,0 3.66211,1.50391 1.32812,1.50391 1.32812,3.87695 l 0,0.20508 q 0,2.38281 -1.32812,3.88672 -1.31836,1.49414 -3.64258,1.49414 -2.35351,0 -3.68164,-1.49414 -1.31836,-1.50391 -1.31836,-3.88672 l 0,-0.20508 z m 2.85156,0.20508 q 0,1.44531 0.50782,2.32422 0.50781,0.86914 1.64062,0.86914 1.10352,0 1.61133,-0.87891 0.51758,-0.8789 0.51758,-2.31445 l 0,-0.20508 q 0,-1.40625 -0.51758,-2.29492 -0.51758,-0.88867 -1.63086,-0.88867 -1.11328,0 -1.62109,0.88867 -0.50782,0.88867 -0.50782,2.29492 l 0,0.20508 z"
         id="path4488"
         inkscape:connector-curvature="0"
         style="fill:#607d8b;fill-opacity:1" /><path
         d="m 455.46967,271.58292 0,-1.71875 4.14062,0 0.13672,1.23047 q 0.46875,-0.6836 1.12305,-1.05469 0.65429,-0.3711 1.52343,-0.3711 1.96289,0 3.04688,1.53321 1.08398,1.5332 1.08398,4.0332 l 0,0.20508 q 0,2.34375 -1.08398,3.76953 -1.08399,1.42578 -3.02735,1.42578 -0.83007,0 -1.4746,-0.30273 -0.64454,-0.3125 -1.10352,-0.90821 l 0,3.05664 1.37695,0.29297 0,1.71875 -5.5957,0 0,-1.71875 1.37695,-0.29297 0,-10.60546 -1.52343,-0.29297 z m 8.20312,3.65234 q 0,-1.49414 -0.49805,-2.42187 -0.49804,-0.92774 -1.52343,-0.92774 -0.64454,0 -1.10352,0.26367 -0.44922,0.26367 -0.71289,0.75196 l 0,4.6289 q 0.26367,0.44922 0.71289,0.6836 0.45898,0.23437 1.12305,0.23437 1.03515,0 1.51367,-0.81055 0.48828,-0.81054 0.48828,-2.19726 l 0,-0.20508 z"
         id="path4490"
         inkscape:connector-curvature="0"
         style="fill:#607d8b;fill-opacity:1" /><path
         d="m 472.85248,280.63565 q -2.28516,0 -3.65235,-1.46484 -1.36718,-1.46485 -1.36718,-3.72071 l 0,-0.39062 q 0,-2.35352 1.28906,-3.87695 1.29883,-1.52344 3.47656,-1.51368 2.13867,0 3.32031,1.28907 1.18164,1.28906 1.18164,3.48632 l 0,1.55274 -6.30859,0 -0.0195,0.0586 q 0.0781,1.04492 0.69336,1.71875 0.625,0.67383 1.68945,0.67383 0.94727,0 1.57227,-0.18555 0.625,-0.19531 1.36719,-0.60546 l 0.77148,1.75781 q -0.6543,0.51758 -1.69922,0.86914 -1.03516,0.35156 -2.31445,0.35156 z m -0.25391,-8.76953 q -0.79101,0 -1.25,0.60547 -0.45898,0.60547 -0.5664,1.5918 l 0.0293,0.0488 3.4961,0 0,-0.2539 q 0,-0.90821 -0.42969,-1.44532 -0.41992,-0.54687 -1.2793,-0.54687 z"
         id="path4492"
         inkscape:connector-curvature="0"
         style="fill:#607d8b;fill-opacity:1" /><path
         d="m 478.3017,278.72159 1.36718,-0.29297 0,-6.55273 -1.51367,-0.29297 0,-1.71875 4.16992,0 0.12696,1.51367 q 0.52734,-0.81055 1.29883,-1.25977 0.77148,-0.44922 1.72851,-0.44922 1.60156,0 2.5,1.00586 0.89844,1.00586 0.89844,3.1543 l 0,4.59961 1.36719,0.29297 0,1.70898 -5.44922,0 0,-1.70898 1.2207,-0.29297 0,-4.58984 q 0,-1.06446 -0.42969,-1.50391 -0.42968,-0.44922 -1.29883,-0.44922 -0.5664,0 -1.01562,0.23438 -0.44922,0.22461 -0.75195,0.64453 l 0,5.66406 1.15234,0.29297 0,1.70898 -5.37109,0 0,-1.70898 z"
         id="path4494"
         inkscape:connector-curvature="0"
         style="fill:#607d8b;fill-opacity:1" /></g></g></svg>