<?xml version="1.0" encoding="UTF-8" standalone="no"?>
<!-- Created with Inkscape (http://www.inkscape.org/) -->

<svg
   xmlns:dc="http://purl.org/dc/elements/1.1/"
   xmlns:cc="http://creativecommons.org/ns#"
   xmlns:rdf="http://www.w3.org/1999/02/22-rdf-syntax-ns#"
   xmlns:svg="http://www.w3.org/2000/svg"
   xmlns="http://www.w3.org/2000/svg"
   xmlns:sodipodi="http://sodipodi.sourceforge.net/DTD/sodipodi-0.dtd"
   xmlns:inkscape="http://www.inkscape.org/namespaces/inkscape"
   version="1.1"
   id="svg2"
   inkscape:version="0.91+devel r"
   xml:space="preserve"
   width="1461.3333"
   height="1040"
   viewBox="0 0 1461.3333 1040"
   sodipodi:docname="printing.svg"><metadata
     id="metadata8"><rdf:RDF><cc:Work
         rdf:about=""><dc:format>image/svg+xml</dc:format><dc:type
           rdf:resource="http://purl.org/dc/dcmitype/StillImage" /><dc:title></dc:title></cc:Work></rdf:RDF></metadata><defs
     id="defs6" /><sodipodi:namedview
     pagecolor="#ffffff"
     bordercolor="#666666"
     borderopacity="1"
     objecttolerance="10"
     gridtolerance="10"
     guidetolerance="10"
     inkscape:pageopacity="0"
     inkscape:pageshadow="2"
     inkscape:window-width="1266"
     inkscape:window-height="1174"
     inkscape:document-units="px"
     id="namedview4"
     showgrid="false"
     inkscape:zoom="0.22692308"
     inkscape:cx="730.66663"
     inkscape:cy="520"
     inkscape:window-x="640"
     inkscape:window-y="189"
     inkscape:window-maximized="0"
     inkscape:current-layer="g10" /><g
     id="g10"
     inkscape:groupmode="layer"
     inkscape:label="ink_ext_XXXXXX"
     transform="matrix(1.3333333,0,0,-1.3333333,0,1040)"><path
       inkscape:connector-curvature="0"
       id="path14"
       style="fill:#ffffff;fill-opacity:1;fill-rule:nonzero;stroke:none;stroke-width:0.1"
       d="M 0,0 H 1096 V 780 H 0 Z" /><path
       inkscape:connector-curvature="0"
       id="path16"
       style="fill:#93b0be;fill-opacity:1;fill-rule:nonzero;stroke:none;stroke-width:0.1"
       d="m 694.064,565.275 c 0,-80.586 -65.326,-145.912 -145.912,-145.912 -80.585,0 -145.912,65.326 -145.912,145.912 0,80.585 65.327,145.913 145.912,145.913 80.586,0 145.912,-65.328 145.912,-145.913" /><path
       inkscape:connector-curvature="0"
       id="path18"
       style="fill:#93b0be;fill-opacity:1;fill-rule:nonzero;stroke:none;stroke-width:0.1"
       d="m 345.644,565.275 c 0,-80.586 -65.328,-145.912 -145.913,-145.912 -80.585,0 -145.9122,65.326 -145.9122,145.912 0,80.585 65.3272,145.913 145.9122,145.913 80.585,0 145.913,-65.328 145.913,-145.913" /><path
       inkscape:connector-curvature="0"
       id="path20"
       style="fill:#93b0be;fill-opacity:1;fill-rule:nonzero;stroke:none;stroke-width:0.1"
       d="m 694.064,214.726 c 0,-80.586 -65.326,-145.9139 -145.912,-145.9139 -80.585,0 -145.912,65.3279 -145.912,145.9139 0,80.585 65.327,145.911 145.912,145.911 80.586,0 145.912,-65.326 145.912,-145.911" /><path
       inkscape:connector-curvature="0"
       id="path22"
       style="fill:#93b0be;fill-opacity:1;fill-rule:nonzero;stroke:none;stroke-width:0.1"
       d="m 1042.18,214.726 c 0,-80.586 -65.326,-145.9139 -145.91,-145.9139 -80.586,0 -145.915,65.3279 -145.915,145.9139 0,80.585 65.329,145.911 145.915,145.911 80.584,0 145.91,-65.326 145.91,-145.911" /><path
       inkscape:connector-curvature="0"
       id="path24"
       style="fill:#93b0be;fill-opacity:1;fill-rule:nonzero;stroke:none;stroke-width:0.1"
       d="m 345.644,214.726 c 0,-80.586 -65.328,-145.9139 -145.913,-145.9139 -80.585,0 -145.9122,65.3279 -145.9122,145.9139 0,80.585 65.3272,145.911 145.9122,145.911 80.585,0 145.913,-65.326 145.913,-145.911" /><path
       inkscape:connector-curvature="0"
       id="path26"
       style="fill:#93b0be;fill-opacity:1;fill-rule:nonzero;stroke:none;stroke-width:0.1"
       d="m 1042.18,565.275 c 0,-80.586 -65.326,-145.912 -145.91,-145.912 -80.586,0 -145.915,65.326 -145.915,145.912 0,80.585 65.329,145.913 145.915,145.913 80.584,0 145.91,-65.328 145.91,-145.913" /><path
       inkscape:connector-curvature="0"
       id="path28"
       style="fill:#507a83;fill-opacity:1;fill-rule:nonzero;stroke:none;stroke-width:0.1"
       d="M 248.688,654.456 H 127.641 c 6.439,0 11.659,-5.223 11.659,-11.66 V 482.56 c 0,-7.194 5.83,-13.022 13.023,-13.022 h 96.365 c 7.192,0 13.022,5.828 13.022,13.022 v 158.873 c 0,7.193 -5.83,13.023 -13.022,13.023" /><path
       inkscape:connector-curvature="0"
       id="path30"
       style="fill:#ffffff;fill-opacity:1;fill-rule:nonzero;stroke:none;stroke-width:0.1"
       d="m 139.3,642.796 c 0,6.437 -5.22,11.66 -11.659,11.66 -6.439,0 -11.659,-5.223 -11.659,-11.66 v -7.287 H 139.3 v 7.287" /><path
       inkscape:connector-curvature="0"
       id="path32"
       style="fill:#ffffff;fill-opacity:1;fill-rule:nonzero;stroke:none;stroke-width:0.1"
       d="m 261.71,488.485 h -99.093 v -7.289 c 0,-6.436 -5.219,-11.658 -11.658,-11.658 H 273.37 c 6.439,0 11.658,5.222 11.658,11.658 v 7.289 H 261.71" /><path
       inkscape:connector-curvature="0"
       id="path34"
       style="fill:#ffffff;fill-opacity:1;fill-rule:nonzero;stroke:none;stroke-width:0.1"
       d="m 165.751,644.323 c -9.153,0 -16.602,-7.447 -16.602,-16.599 0,-9.156 7.449,-16.604 16.602,-16.604 9.154,0 16.603,7.448 16.603,16.604 0,9.152 -7.449,16.599 -16.603,16.599 z m 0,-35.402 c -10.367,0 -18.801,8.433 -18.801,18.803 0,10.365 8.434,18.799 18.801,18.799 10.368,0 18.801,-8.434 18.801,-18.799 0,-10.37 -8.433,-18.803 -18.801,-18.803" /><path
       inkscape:connector-curvature="0"
       id="path36"
       style="fill:#ffffff;fill-opacity:1;fill-rule:nonzero;stroke:none;stroke-width:0.1"
       d="m 165.751,642.216 4.261,-8.631 9.524,-1.385 -6.892,-6.719 1.627,-9.486 -8.52,4.479 -8.52,-4.479 1.628,9.486 -6.893,6.719 9.525,1.385 4.26,8.631" /><path
       inkscape:connector-curvature="0"
       id="path38"
       style="fill:#ff5331;fill-opacity:1;fill-rule:nonzero;stroke:none;stroke-width:0.1"
       d="m 154.442,589.084 5.183,4.712 5.185,-4.712 v 19.86 c -3.88,0.194 -7.453,1.569 -10.368,3.77 v -23.63" /><path
       inkscape:connector-curvature="0"
       id="path40"
       style="fill:#ff5331;fill-opacity:1;fill-rule:nonzero;stroke:none;stroke-width:0.1"
       d="m 166.693,594.321 5.184,4.711 5.183,-4.711 v 18.393 c -2.916,-2.201 -6.487,-3.576 -10.367,-3.77 v -14.623" /><path
       inkscape:connector-curvature="0"
       id="path42"
       style="fill:#ffffff;fill-opacity:1;fill-rule:nonzero;stroke:none;stroke-width:0.1"
       d="m 194.287,624.948 h 53.8301 v 10.5609 H 194.287 Z" /><path
       inkscape:connector-curvature="0"
       id="path44"
       style="fill:#ffffff;fill-opacity:1;fill-rule:nonzero;stroke:none;stroke-width:0.1"
       d="m 190.271,607.243 h 57.8461 v 10.5609 H 190.271 Z" /><path
       inkscape:connector-curvature="0"
       id="path46"
       style="fill:#ffffff;fill-opacity:1;fill-rule:nonzero;stroke:none;stroke-width:0.1"
       d="m 184.26,589.782 h 63.857 v 10.5621 H 184.26 Z" /><path
       inkscape:connector-curvature="0"
       id="path48"
       style="fill:#ffffff;fill-opacity:1;fill-rule:nonzero;stroke:none;stroke-width:0.1"
       d="m 154.442,572.077 h 93.675 v 10.5621 h -93.675 z" /><path
       inkscape:connector-curvature="0"
       id="path50"
       style="fill:#ffffff;fill-opacity:1;fill-rule:nonzero;stroke:none;stroke-width:0.1"
       d="m 154.442,554.618 h 93.675 v 10.5609 h -93.675 z" /><path
       inkscape:connector-curvature="0"
       id="path52"
       style="fill:#ffffff;fill-opacity:1;fill-rule:nonzero;stroke:none;stroke-width:0.1"
       d="m 154.442,537.157 h 93.675 v 10.5621 h -93.675 z" /><path
       inkscape:connector-curvature="0"
       id="path54"
       style="fill:#ffffff;fill-opacity:1;fill-rule:nonzero;stroke:none;stroke-width:0.1"
       d="m 154.442,519.454 h 93.675 v 10.5609 h -93.675 z" /><path
       inkscape:connector-curvature="0"
       id="path56"
       style="fill:#ffffff;fill-opacity:1;fill-rule:nonzero;stroke:none;stroke-width:0.1"
       d="m 154.442,501.994 h 93.675 v 10.5617 h -93.675 z" /><path
       inkscape:connector-curvature="0"
       id="path58"
       style="fill:#ff7a21;fill-opacity:1;fill-rule:nonzero;stroke:none;stroke-width:0.1"
       d="m 510.464,485.415 c 0,-3.538 -2.869,-6.407 -6.406,-6.407 h -45.811 c -3.538,0 -6.407,2.869 -6.407,6.407 v 148.966 c 0,3.537 2.869,6.407 6.407,6.407 h 45.811 c 3.537,0 6.406,-2.87 6.406,-6.407 V 485.415" /><path
       inkscape:connector-curvature="0"
       id="path60"
       style="fill:#ffffff;fill-opacity:1;fill-rule:nonzero;stroke:none;stroke-width:0.1"
       d="m 463.607,610.876 h 35.0941 v 7.17969 H 463.607 Z" /><path
       inkscape:connector-curvature="0"
       id="path62"
       style="fill:#ffffff;fill-opacity:1;fill-rule:nonzero;stroke:none;stroke-width:0.1"
       d="m 463.607,594.726 h 35.0941 v 7.17773 H 463.607 Z" /><path
       inkscape:connector-curvature="0"
       id="path64"
       style="fill:#ffffff;fill-opacity:1;fill-rule:nonzero;stroke:none;stroke-width:0.1"
       d="m 463.607,578.574 h 35.0941 v 7.17773 H 463.607 Z" /><path
       inkscape:connector-curvature="0"
       id="path66"
       style="fill:#ffffff;fill-opacity:1;fill-rule:nonzero;stroke:none;stroke-width:0.1"
       d="m 451.84,507.385 h 58.6242 v 7.17695 H 451.84 Z" /><path
       inkscape:connector-curvature="0"
       id="path68"
       style="fill:#ffffff;fill-opacity:1;fill-rule:nonzero;stroke:none;stroke-width:0.1"
       d="m 451.84,494.225 h 58.6242 v 7.17695 H 451.84 Z" /><path
       inkscape:connector-curvature="0"
       id="path70"
       style="fill:#ec352f;fill-opacity:1;fill-rule:nonzero;stroke:none;stroke-width:0.1"
       d="m 577.465,485.415 c 0,-3.538 -2.869,-6.407 -6.406,-6.407 h -45.811 c -3.54,0 -6.409,2.869 -6.409,6.407 v 148.966 c 0,3.537 2.869,6.407 6.409,6.407 h 45.811 c 3.537,0 6.406,-2.87 6.406,-6.407 V 485.415" /><path
       inkscape:connector-curvature="0"
       id="path72"
       style="fill:#ffffff;fill-opacity:1;fill-rule:nonzero;stroke:none;stroke-width:0.1"
       d="m 530.607,610.876 h 35.0941 v 7.17969 H 530.607 Z" /><path
       inkscape:connector-curvature="0"
       id="path74"
       style="fill:#ffffff;fill-opacity:1;fill-rule:nonzero;stroke:none;stroke-width:0.1"
       d="m 530.607,594.726 h 35.0941 v 7.17773 H 530.607 Z" /><path
       inkscape:connector-curvature="0"
       id="path76"
       style="fill:#ffffff;fill-opacity:1;fill-rule:nonzero;stroke:none;stroke-width:0.1"
       d="m 530.607,578.574 h 35.0941 v 7.17773 H 530.607 Z" /><path
       inkscape:connector-curvature="0"
       id="path78"
       style="fill:#ffffff;fill-opacity:1;fill-rule:nonzero;stroke:none;stroke-width:0.1"
       d="m 518.839,507.385 h 58.6262 v 7.17695 H 518.839 Z" /><path
       inkscape:connector-curvature="0"
       id="path80"
       style="fill:#ffffff;fill-opacity:1;fill-rule:nonzero;stroke:none;stroke-width:0.1"
       d="m 518.839,494.225 h 58.6262 v 7.17695 H 518.839 Z" /><path
       inkscape:connector-curvature="0"
       id="path82"
       style="fill:#507a83;fill-opacity:1;fill-rule:nonzero;stroke:none;stroke-width:0.1"
       d="m 644.465,485.415 c 0,-3.538 -2.869,-6.407 -6.406,-6.407 h -45.811 c -3.539,0 -6.408,2.869 -6.408,6.407 v 148.966 c 0,3.537 2.869,6.407 6.408,6.407 h 45.811 c 3.537,0 6.406,-2.87 6.406,-6.407 V 485.415" /><path
       inkscape:connector-curvature="0"
       id="path84"
       style="fill:#ffffff;fill-opacity:1;fill-rule:nonzero;stroke:none;stroke-width:0.1"
       d="m 597.607,610.876 h 35.0941 v 7.17969 H 597.607 Z" /><path
       inkscape:connector-curvature="0"
       id="path86"
       style="fill:#ffffff;fill-opacity:1;fill-rule:nonzero;stroke:none;stroke-width:0.1"
       d="m 597.607,594.726 h 35.0941 v 7.17773 H 597.607 Z" /><path
       inkscape:connector-curvature="0"
       id="path88"
       style="fill:#ffffff;fill-opacity:1;fill-rule:nonzero;stroke:none;stroke-width:0.1"
       d="m 597.607,578.574 h 35.0941 v 7.17773 H 597.607 Z" /><path
       inkscape:connector-curvature="0"
       id="path90"
       style="fill:#ffffff;fill-opacity:1;fill-rule:nonzero;stroke:none;stroke-width:0.1"
       d="m 585.84,507.385 h 58.625 v 7.17695 H 585.84 Z" /><path
       inkscape:connector-curvature="0"
       id="path92"
       style="fill:#ffffff;fill-opacity:1;fill-rule:nonzero;stroke:none;stroke-width:0.1"
       d="m 585.84,494.225 h 58.625 v 7.17695 H 585.84 Z" /><path
       inkscape:connector-curvature="0"
       id="path94"
       style="fill:#ffffff;fill-opacity:1;fill-rule:nonzero;stroke:none;stroke-width:0.1"
       d="m 860.836,641.876 c 3.982,0 7.211,-3.229 7.211,-7.211 0,-3.983 -3.229,-7.211 -7.211,-7.211 -3.982,0 -7.211,3.228 -7.211,7.211 0,3.982 3.229,7.211 7.211,7.211 z m 35.34,0 c 3.982,0 7.211,-3.229 7.211,-7.211 0,-3.983 -3.229,-7.211 -7.211,-7.211 -3.983,0 -7.211,3.228 -7.211,7.211 0,3.982 3.228,7.211 7.211,7.211 z m 35.338,0 c 3.982,0 7.211,-3.229 7.211,-7.211 0,-3.983 -3.229,-7.211 -7.211,-7.211 -3.983,0 -7.211,3.228 -7.211,7.211 0,3.982 3.228,7.211 7.211,7.211 z m 16.57,10.353 H 844.453 c -7.531,0 -13.637,-6.106 -13.637,-13.637 V 483.175 c 0,-7.53 6.106,-13.637 13.637,-13.637 h 103.631 c 7.531,0 13.637,6.107 13.637,13.637 v 155.417 c 0,7.531 -6.106,13.637 -13.637,13.637" /><path
       inkscape:connector-curvature="0"
       id="path96"
       style="fill:#603232;fill-opacity:1;fill-rule:nonzero;stroke:none;stroke-width:0.1"
       d="m 860.836,627.525 c -3.941,0 -7.139,3.196 -7.139,7.14 0,3.942 3.198,7.138 7.139,7.138 3.943,0 7.139,-3.196 7.139,-7.138 0,-3.944 -3.196,-7.14 -7.139,-7.14 z m 0,17.492 c -5.717,0 -10.352,-4.634 -10.352,-10.352 0,-5.718 4.635,-10.353 10.352,-10.353 5.719,0 10.353,4.635 10.353,10.353 0,5.718 -4.634,10.352 -10.353,10.352" /><path
       inkscape:connector-curvature="0"
       id="path98"
       style="fill:#ff7a21;fill-opacity:1;fill-rule:nonzero;stroke:none;stroke-width:0.1"
       d="m 865.426,640.726 c 0,-2.436 -1.975,-4.411 -4.41,-4.411 v 0 c -2.436,0 -4.411,1.975 -4.411,4.411 v 15.877 c 0,2.434 1.975,4.41 4.411,4.41 v 0 c 2.435,0 4.41,-1.976 4.41,-4.41 v -15.877" /><path
       inkscape:connector-curvature="0"
       id="path100"
       style="fill:#603232;fill-opacity:1;fill-rule:nonzero;stroke:none;stroke-width:0.1"
       d="m 896.176,627.525 c -3.944,0 -7.141,3.196 -7.141,7.14 0,3.942 3.197,7.138 7.141,7.138 3.941,0 7.138,-3.196 7.138,-7.138 0,-3.944 -3.197,-7.14 -7.138,-7.14 z m 0,17.492 c -5.719,0 -10.352,-4.634 -10.352,-10.352 0,-5.718 4.633,-10.353 10.352,-10.353 5.717,0 10.351,4.635 10.351,10.353 0,5.718 -4.634,10.352 -10.351,10.352" /><path
       inkscape:connector-curvature="0"
       id="path102"
       style="fill:#ff7a21;fill-opacity:1;fill-rule:nonzero;stroke:none;stroke-width:0.1"
       d="m 900.764,640.726 c 0,-2.436 -1.975,-4.411 -4.41,-4.411 v 0 c -2.436,0 -4.411,1.975 -4.411,4.411 v 15.877 c 0,2.434 1.975,4.41 4.411,4.41 v 0 c 2.435,0 4.41,-1.976 4.41,-4.41 v -15.877" /><path
       inkscape:connector-curvature="0"
       id="path104"
       style="fill:#603232;fill-opacity:1;fill-rule:nonzero;stroke:none;stroke-width:0.1"
       d="m 931.514,627.525 c -3.944,0 -7.139,3.196 -7.139,7.14 0,3.942 3.195,7.138 7.139,7.138 3.943,0 7.138,-3.196 7.138,-7.138 0,-3.944 -3.195,-7.14 -7.138,-7.14 z m 0,17.492 c -5.717,0 -10.352,-4.634 -10.352,-10.352 0,-5.718 4.635,-10.353 10.352,-10.353 5.716,0 10.351,4.635 10.351,10.353 0,5.718 -4.635,10.352 -10.351,10.352" /><path
       inkscape:connector-curvature="0"
       id="path106"
       style="fill:#ff7a21;fill-opacity:1;fill-rule:nonzero;stroke:none;stroke-width:0.1"
       d="m 936.102,640.726 c 0,-2.436 -1.973,-4.411 -4.411,-4.411 v 0 c -2.435,0 -4.41,1.975 -4.41,4.411 v 15.877 c 0,2.434 1.975,4.41 4.41,4.41 v 0 c 2.438,0 4.411,-1.976 4.411,-4.41 v -15.877" /><path
       inkscape:connector-curvature="0"
       id="path108"
       style="fill:#dddfe0;fill-opacity:1;fill-rule:nonzero;stroke:none;stroke-width:0.1"
       d="m 852.264,586.915 h 87.8219 v 15.5402 H 852.264 Z" /><path
       inkscape:connector-curvature="0"
       id="path110"
       style="fill:#dddfe0;fill-opacity:1;fill-rule:nonzero;stroke:none;stroke-width:0.1"
       d="m 852.264,563.654 h 87.8219 v 15.5402 H 852.264 Z" /><path
       inkscape:connector-curvature="0"
       id="path112"
       style="fill:#dddfe0;fill-opacity:1;fill-rule:nonzero;stroke:none;stroke-width:0.1"
       d="m 852.264,540.392 h 87.8219 v 15.5398 H 852.264 Z" /><path
       inkscape:connector-curvature="0"
       id="path114"
       style="fill:#dddfe0;fill-opacity:1;fill-rule:nonzero;stroke:none;stroke-width:0.1"
       d="m 852.264,517.131 h 87.8219 v 15.5402 H 852.264 Z" /><path
       inkscape:connector-curvature="0"
       id="path116"
       style="fill:#dddfe0;fill-opacity:1;fill-rule:nonzero;stroke:none;stroke-width:0.1"
       d="m 852.264,493.871 h 87.8219 v 15.5391 H 852.264 Z" /><path
       inkscape:connector-curvature="0"
       id="path118"
       style="fill:#ffffff;fill-opacity:1;fill-rule:nonzero;stroke:none;stroke-width:0.1"
       d="m 137.572,188.363 c -0.083,-0.009 -9.151,-1.144 -12.865,-7.16 -2.059,-3.342 -2.139,-7.766 -0.237,-13.158 1.118,-1.872 7.805,-11.718 21.134,-4.309 0.503,0.334 16.122,10.765 6.472,29.049 -0.267,0.352 -0.982,1.257 -2.136,2.41 l -11.744,-6.76 -0.624,-0.072" /><path
       inkscape:connector-curvature="0"
       id="path120"
       style="fill:#ffffff;fill-opacity:1;fill-rule:nonzero;stroke:none;stroke-width:0.1"
       d="m 153.081,161.843 -0.157,0.287 c -2.283,-2.313 -4.155,-3.552 -4.217,-3.59 -4.315,-2.404 -8.429,-3.594 -12.336,-3.594 -1.771,0 -3.498,0.242 -5.182,0.728 -8.029,2.312 -11.968,9.337 -12.131,9.636 l -0.195,0.425 c -2.659,7.35 -2.42,13.634 0.712,18.683 4.626,7.453 14.04,9.449 16.648,9.872 l 8.69,5.001 c -5.274,3.47 -13.371,6.56 -24.166,4.304 -28.5728,-14.542 -20.487,-39.099 -20.487,-39.099 4.037,-25.993 38.9,-26.398 38.9,-26.398 l 42.55,39.219 -28.629,-15.474" /><path
       inkscape:connector-curvature="0"
       id="path122"
       style="fill:#ffffff;fill-opacity:1;fill-rule:nonzero;stroke:none;stroke-width:0.1"
       d="m 283.066,233.985 -26.283,-14.186 43.475,13.932 c 0,0 -3.274,4.002 -7.159,10.325 -1.929,-3.262 -5.043,-6.707 -10.033,-10.071" /><path
       inkscape:connector-curvature="0"
       id="path124"
       style="fill:#ffffff;fill-opacity:1;fill-rule:nonzero;stroke:none;stroke-width:0.1"
       d="m 292.066,264.687 c -10.6,24.229 -33.819,15.143 -33.819,15.143 l -51.393,-28.909 c 2.449,-1.175 6.199,-1.553 8.225,-0.731 3.381,1.352 8.036,-0.654 10.032,-4.289 1.377,-2.507 4.812,-5.228 7.502,-5.941 1.945,-0.515 3.701,-1.725 4.95,-3.407 1.246,-1.683 1.829,-3.629 1.639,-5.475 -0.262,-2.555 1.238,-6.476 3.27,-8.564 1.181,-1.213 1.958,-2.671 2.292,-4.191 l 9.748,5.261 26.283,14.187 c 4.99,3.363 8.104,6.808 10.032,10.071 5.409,9.165 1.239,16.845 1.239,16.845" /><path
       inkscape:connector-curvature="0"
       id="path126"
       style="fill:#507a83;fill-opacity:1;fill-rule:nonzero;stroke:none;stroke-width:0.1"
       d="m 240.48,220.63 c -2.776,2.85 -4.677,7.813 -4.326,11.301 0.109,1.061 -0.227,2.182 -0.947,3.152 -0.718,0.967 -1.728,1.665 -2.846,1.961 -3.665,0.97 -8.014,4.412 -9.9,7.84 -1.15,2.095 -3.822,3.257 -5.768,2.467 -3.066,-1.231 -8.412,-0.58 -11.687,1.393 -0.389,0.234 -0.801,0.343 -1.213,0.455 -1.775,0.486 -3.6,-0.089 -4.29,-1.579 -0.201,-0.437 -0.467,-0.854 -0.764,-1.263 -1.66,-2.274 -4.671,-3.993 -7.586,-4.267 -0.185,-0.019 -0.37,-0.054 -0.553,-0.06 -1.096,-0.029 -2.021,-0.491 -2.605,-1.301 -0.116,-0.16 -0.14,-0.364 -0.223,-0.542 -0.339,-0.724 -0.481,-1.546 -0.261,-2.433 0.905,-3.635 -0.269,-8.219 -2.665,-10.438 -0.729,-0.673 -1.076,-1.653 -0.982,-2.753 0.096,-1.1 0.626,-2.185 1.488,-3.055 2.824,-2.842 4.809,-7.805 4.523,-11.295 -0.088,-1.062 0.267,-2.183 0.997,-3.15 0.731,-0.966 1.742,-1.662 2.853,-1.96 3.643,-0.973 7.985,-4.418 9.886,-7.846 0.165,-0.299 0.366,-0.571 0.585,-0.825 1.316,-1.55 3.484,-2.311 5.112,-1.639 1.051,0.432 2.37,0.656 3.818,0.656 2.703,0 5.567,-0.765 7.661,-2.046 2.041,-1.252 4.565,-0.718 5.404,1.118 1.375,3.025 5.236,5.483 8.787,5.592 1.084,0.03 2,0.494 2.586,1.305 0.587,0.811 0.77,1.866 0.511,2.972 -0.847,3.631 0.383,8.215 2.802,10.437 0.532,0.485 0.792,1.159 0.912,1.893 0.047,0.284 0.139,0.552 0.118,0.86 -0.075,1.101 -0.581,2.183 -1.427,3.05" /><path
       inkscape:connector-curvature="0"
       id="path128"
       style="fill:#ffffff;fill-opacity:1;fill-rule:nonzero;stroke:none;stroke-width:0.1"
       d="m 193.528,202.187 c -1.927,0.514 -3.687,1.724 -4.957,3.407 -1.269,1.679 -1.887,3.623 -1.739,5.471 0.209,2.555 -1.363,6.477 -3.434,8.562 -1.501,1.512 -2.42,3.395 -2.587,5.306 -0.169,1.908 0.436,3.608 1.702,4.782 1.755,1.627 2.679,5.247 2.014,7.908 -0.058,0.231 -0.069,0.456 -0.104,0.681 l -50.492,-28.402 c 14.977,-2.519 23.072,-13.586 23.181,-13.743 l 0.204,-0.325 c 5.081,-9.484 4.661,-17.382 2.354,-23.433 l 42.106,22.723 c -0.275,0.355 -0.535,0.722 -0.754,1.115 -1.396,2.511 -4.826,5.235 -7.494,5.948" /><path
       inkscape:connector-curvature="0"
       id="path130"
       style="fill:#ec352f;fill-opacity:1;fill-rule:nonzero;stroke:none;stroke-width:0.1"
       d="m 240.877,214.827 c -2.419,-2.222 -3.649,-6.806 -2.802,-10.437 0.259,-1.106 0.076,-2.161 -0.511,-2.972 -0.586,-0.811 -1.502,-1.275 -2.586,-1.305 -3.551,-0.109 -7.412,-2.567 -8.787,-5.592 -0.839,-1.836 -3.363,-2.37 -5.404,-1.118 -2.094,1.281 -4.958,2.046 -7.661,2.046 -1.448,0 -2.767,-0.224 -3.818,-0.656 -1.628,-0.672 -3.796,0.089 -5.112,1.639 -0.219,0.254 -0.42,0.526 -0.585,0.825 -1.901,3.428 -6.243,6.873 -9.886,7.846 -1.111,0.298 -2.122,0.994 -2.853,1.96 -0.73,0.967 -1.085,2.088 -0.997,3.15 0.286,3.49 -1.699,8.453 -4.523,11.295 -0.862,0.87 -1.392,1.955 -1.488,3.055 -0.094,1.1 0.253,2.08 0.982,2.753 2.396,2.219 3.57,6.803 2.665,10.438 -0.22,0.887 -0.078,1.709 0.261,2.433 0.083,0.178 0.107,0.382 0.223,0.542 0.584,0.81 1.509,1.272 2.605,1.301 0.183,0.006 0.368,0.041 0.553,0.06 2.915,0.274 5.926,1.993 7.586,4.267 0.297,0.409 0.563,0.826 0.764,1.263 0.69,1.49 2.515,2.065 4.29,1.579 0.412,-0.112 0.824,-0.221 1.213,-0.455 3.275,-1.973 8.621,-2.624 11.687,-1.393 1.946,0.79 4.618,-0.372 5.768,-2.467 1.886,-3.428 6.235,-6.87 9.9,-7.84 1.118,-0.296 2.128,-0.994 2.846,-1.961 0.72,-0.97 1.056,-2.091 0.947,-3.152 -0.351,-3.488 1.55,-8.451 4.326,-11.301 0.846,-0.867 1.352,-1.949 1.427,-3.05 0.021,-0.308 -0.071,-0.576 -0.118,-0.86 -0.12,-0.734 -0.38,-1.408 -0.912,-1.893 z m -1.675,16.251 c 0.19,1.846 -0.393,3.792 -1.639,5.475 -1.249,1.682 -3.005,2.892 -4.95,3.407 -2.69,0.713 -6.125,3.434 -7.502,5.941 -1.996,3.635 -6.651,5.641 -10.032,4.289 -2.026,-0.822 -5.776,-0.444 -8.225,0.731 -0.218,0.106 -0.445,0.207 -0.64,0.325 -3.612,2.165 -8.096,1.245 -9.569,-1.952 -1.023,-2.218 -4.114,-4.158 -6.75,-4.235 -1.905,-0.053 -3.515,-0.858 -4.534,-2.263 -0.896,-1.242 -1.196,-2.818 -0.938,-4.492 0.035,-0.225 0.046,-0.45 0.104,-0.681 0.665,-2.661 -0.259,-6.281 -2.014,-7.908 -1.266,-1.174 -1.871,-2.874 -1.702,-4.782 0.167,-1.911 1.086,-3.794 2.587,-5.306 2.071,-2.085 3.643,-6.007 3.434,-8.562 -0.148,-1.848 0.47,-3.792 1.739,-5.471 1.27,-1.683 3.03,-2.893 4.957,-3.407 2.668,-0.713 6.098,-3.437 7.494,-5.948 0.219,-0.393 0.479,-0.76 0.754,-1.115 2.256,-2.907 6.224,-4.371 9.139,-3.167 2.165,0.881 6.36,0.372 8.692,-1.057 1.328,-0.812 2.774,-1.245 4.184,-1.245 2.348,0 4.291,1.196 5.197,3.192 1.011,2.218 4.061,4.158 6.659,4.238 1.875,0.057 3.468,0.86 4.488,2.269 1.021,1.407 1.337,3.241 0.892,5.167 -0.606,2.614 0.388,6.31 2.128,7.908 1.283,1.176 1.919,2.874 1.791,4.785 -0.026,0.372 -0.102,0.742 -0.182,1.109 -0.334,1.52 -1.111,2.978 -2.292,4.191 -2.032,2.088 -3.532,6.009 -3.27,8.564" /><path
       inkscape:connector-curvature="0"
       id="path132"
       style="fill:#ec352f;fill-opacity:1;fill-rule:nonzero;stroke:none;stroke-width:0.1"
       d="m 220.669,201.208 c -2.844,1.171 -6.005,1.813 -9.057,1.813 -1.213,0 -2.363,-0.098 -3.445,-0.299 -2.769,3.59 -6.697,6.708 -10.74,8.523 -0.423,4.126 -2.204,8.612 -4.883,12.275 2.114,3.084 3.183,7.23 2.918,11.341 3.861,0.869 7.388,3.094 9.658,6.075 2.878,-1.168 6.081,-1.813 9.171,-1.813 1.226,0 2.391,0.101 3.485,0.299 2.773,-3.594 6.704,-6.708 10.756,-8.524 0.368,-4.123 2.101,-8.612 4.729,-12.274 -2.146,-3.087 -3.249,-7.233 -3.023,-11.342 -3.83,-0.872 -7.327,-3.094 -9.569,-6.074" /><path
       inkscape:connector-curvature="0"
       id="path134"
       style="fill:#ec352f;fill-opacity:1;fill-rule:nonzero;stroke:none;stroke-width:0.1"
       d="m 497.439,246.872 c -4.239,9.479 -13.731,16.093 -24.784,16.093 -11.053,0 -20.545,-6.614 -24.785,-16.093 h 49.569" /><path
       inkscape:connector-curvature="0"
       id="path136"
       style="fill:#ec352f;fill-opacity:1;fill-rule:nonzero;stroke:none;stroke-width:0.1"
       d="m 486.807,212.654 v 31.505 h -28.306 v -31.505 c -6.412,-3.253 -11.565,-8.629 -14.511,-15.22 h 57.33 c -2.946,6.591 -8.102,11.967 -14.513,15.22" /><path
       inkscape:connector-curvature="0"
       id="path138"
       style="fill:#231f20;fill-opacity:1;fill-rule:nonzero;stroke:none;stroke-width:0.1"
       d="m 477.342,194.523 -4.685,-39.91 -4.686,39.91 h 9.371" /><path
       inkscape:connector-curvature="0"
       id="path140"
       style="fill:#ffffff;fill-opacity:1;fill-rule:nonzero;stroke:none;stroke-width:0.1"
       d="m 570.236,246.872 c -4.24,9.479 -13.732,16.093 -24.785,16.093 -11.053,0 -20.545,-6.614 -24.785,-16.093 h 49.57" /><path
       inkscape:connector-curvature="0"
       id="path142"
       style="fill:#ffffff;fill-opacity:1;fill-rule:nonzero;stroke:none;stroke-width:0.1"
       d="m 559.604,212.654 v 31.505 h -28.308 v -31.505 c -6.411,-3.253 -11.564,-8.629 -14.509,-15.22 h 57.33 c -2.947,6.591 -8.101,11.967 -14.513,15.22" /><path
       inkscape:connector-curvature="0"
       id="path144"
       style="fill:#231f20;fill-opacity:1;fill-rule:nonzero;stroke:none;stroke-width:0.1"
       d="m 550.139,194.523 -4.686,-39.91 -4.686,39.91 h 9.372" /><path
       inkscape:connector-curvature="0"
       id="path146"
       style="fill:#507a83;fill-opacity:1;fill-rule:nonzero;stroke:none;stroke-width:0.1"
       d="m 643.033,246.872 c -4.24,9.479 -13.732,16.093 -24.785,16.093 -11.053,0 -20.545,-6.614 -24.785,-16.093 h 49.57" /><path
       inkscape:connector-curvature="0"
       id="path148"
       style="fill:#507a83;fill-opacity:1;fill-rule:nonzero;stroke:none;stroke-width:0.1"
       d="m 632.4,212.654 v 31.505 h -28.306 v -31.505 c -6.412,-3.253 -11.565,-8.629 -14.512,-15.22 h 57.33 c -2.945,6.591 -8.101,11.967 -14.512,15.22" /><path
       inkscape:connector-curvature="0"
       id="path150"
       style="fill:#231f20;fill-opacity:1;fill-rule:nonzero;stroke:none;stroke-width:0.1"
       d="m 622.936,194.523 -4.686,-39.91 -4.687,39.91 h 9.373" /><path
       inkscape:connector-curvature="0"
       id="path152"
       style="fill:#507a83;fill-opacity:1;fill-rule:nonzero;stroke:none;stroke-width:0.1"
       d="m 982.822,130.662 -133.158,-26.898 -37.779,187.023 133.158,26.9 37.779,-187.025" /><path
       inkscape:connector-curvature="0"
       id="path154"
       style="fill:#fdfeff;fill-opacity:1;fill-rule:nonzero;stroke:none;stroke-width:0.1"
       d="M 972.775,138.554 858.18,115.407 824.596,281.661 939.193,304.811 972.775,138.554" /><path
       inkscape:connector-curvature="0"
       id="path156"
       style="fill:#dddfe0;fill-opacity:1;fill-rule:nonzero;stroke:none;stroke-width:0.1"
       d="m 932.982,276.037 -93.058,-18.799 -1.377,6.809 93.058,18.798 1.377,-6.808" /><path
       inkscape:connector-curvature="0"
       id="path158"
       style="fill:#dddfe0;fill-opacity:1;fill-rule:nonzero;stroke:none;stroke-width:0.1"
       d="m 936.191,260.147 -93.058,-18.796 -1.375,6.808 93.058,18.797 1.375,-6.809" /><path
       inkscape:connector-curvature="0"
       id="path160"
       style="fill:#dddfe0;fill-opacity:1;fill-rule:nonzero;stroke:none;stroke-width:0.1"
       d="m 947.963,199.925 -93.059,-18.799 -1.373,6.811 93.057,18.796 1.375,-6.808" /><path
       inkscape:connector-curvature="0"
       id="path162"
       style="fill:#dddfe0;fill-opacity:1;fill-rule:nonzero;stroke:none;stroke-width:0.1"
       d="m 957.912,150.67 -46.529,-9.398 -1.375,6.811 46.529,9.398 1.375,-6.811" /><path
       inkscape:connector-curvature="0"
       id="path164"
       style="fill:#dddfe0;fill-opacity:1;fill-rule:nonzero;stroke:none;stroke-width:0.1"
       d="m 939.4,244.259 -93.058,-18.796 -1.375,6.808 93.058,18.798 1.375,-6.81" /><path
       inkscape:connector-curvature="0"
       id="path166"
       style="fill:#dddfe0;fill-opacity:1;fill-rule:nonzero;stroke:none;stroke-width:0.1"
       d="m 884.447,200.56 -31.779,-6.419 -5.088,25.193 31.777,6.42 5.09,-25.194" /><path
       inkscape:connector-curvature="0"
       id="path168"
       style="fill:#ffcf61;fill-opacity:1;fill-rule:nonzero;stroke:none;stroke-width:0.1"
       d="m 917.273,297.667 c 0.405,-2.004 -0.892,-3.959 -2.896,-4.364 l -62.418,-12.61 c -2.006,-0.403 -3.961,0.893 -4.365,2.899 l -1.055,5.219 c -0.406,2.007 0.893,3.96 2.897,4.366 l 62.418,12.609 c 2.005,0.404 3.959,-0.891 4.365,-2.899 l 1.054,-5.22" /></g></svg>