<?xml version="1.0" encoding="UTF-8" standalone="no"?>
<!-- Created with Inkscape (http://www.inkscape.org/) -->

<svg
   xmlns:dc="http://purl.org/dc/elements/1.1/"
   xmlns:cc="http://creativecommons.org/ns#"
   xmlns:rdf="http://www.w3.org/1999/02/22-rdf-syntax-ns#"
   xmlns:svg="http://www.w3.org/2000/svg"
   xmlns="http://www.w3.org/2000/svg"
   xmlns:sodipodi="http://sodipodi.sourceforge.net/DTD/sodipodi-0.dtd"
   xmlns:inkscape="http://www.inkscape.org/namespaces/inkscape"
   version="1.1"
   id="svg2"
   inkscape:version="0.91+devel r"
   xml:space="preserve"
   width="1632.9987"
   height="935.79462"
   viewBox="0 0 1632.9986 935.79458"
   sodipodi:docname="serviceprovider.svg"><metadata
     id="metadata8"><rdf:RDF><cc:Work
         rdf:about=""><dc:format>image/svg+xml</dc:format><dc:type
           rdf:resource="http://purl.org/dc/dcmitype/StillImage" /><dc:title></dc:title></cc:Work></rdf:RDF></metadata><defs
     id="defs6"><clipPath
       clipPathUnits="userSpaceOnUse"
       id="clipPath22"><path
         d="m 7801.67,5513.48 c -113.75,0 -205.97,92.22 -205.97,205.98 0,113.75 92.22,205.97 205.97,205.97 113.76,0 205.97,-92.22 205.97,-205.97 0,-113.76 -92.21,-205.98 -205.97,-205.98 z M 9979.1,7579.76 c -58.85,80.11 -161.84,-168.38 -294.25,-256.66 -132.41,-88.27 -294.25,29.43 -367.81,132.41 -73.56,102.99 161.84,411.95 161.84,411.95 -132.41,80.92 -463.44,-132.41 -551.71,-264.82 -88.28,-132.41 -22.07,-360.46 -29.43,-441.37 -7.35,-80.92 -1205.4,-1082.58 -1356.25,-1206.42 -313.6,-257.46 90.99,-845.96 458.8,-507.57 130.38,119.94 1162.27,1331.47 1243.19,1390.32 80.92,58.84 286.89,-51.5 514.93,51.49 228.05,102.98 279.49,610.56 220.69,690.67 z"
         id="path20"
         inkscape:connector-curvature="0" /></clipPath><clipPath
       clipPathUnits="userSpaceOnUse"
       id="clipPath38"><path
         d="m 6725.65,7517.98 c -28.8,37.27 -150.82,-122.35 -239.66,-176.48 -88.84,-54.13 -200.57,109.25 -215.28,173.38 -14.71,64.13 164.29,240.2 164.29,240.2 -34.62,106.82 -349.66,-5.95 -427.67,-77.84 -63.99,-58.98 -108.3,-183.86 -69.23,-335.79 11.54,-44.85 -1.81,-92.53 -34.08,-125.74 l -856.21,-880.83 c -31.62,-32.53 -77.59,-47.3 -122.03,-38.19 -95.68,19.6 -194.33,12.24 -269.08,-25.38 -172.47,-86.82 -209.41,-426.06 -180.61,-463.33 28.8,-37.28 150.82,122.35 239.66,176.48 88.84,54.13 200.57,-109.26 215.28,-173.39 14.71,-64.13 -164.29,-240.2 -164.29,-240.2 34.62,-106.81 349.65,5.95 427.67,77.85 63.99,58.98 108.3,183.86 69.23,335.78 -11.54,44.85 1.81,92.53 34.09,125.74 l 856.2,880.84 c 31.62,32.53 77.59,47.29 122.03,38.18 95.68,-19.6 194.33,-12.24 269.08,25.39 172.47,86.81 209.41,426.06 180.61,463.33 z"
         id="path36"
         inkscape:connector-curvature="0" /></clipPath><clipPath
       clipPathUnits="userSpaceOnUse"
       id="clipPath54"><path
         d="m 5815.59,6558.59 -287.11,-295.37 631.54,-622.53 c 29.61,-29.19 77.27,-28.84 106.45,0.76 l 183.48,186.13 c 29.18,29.61 28.84,77.27 -0.77,106.46 z"
         id="path52"
         inkscape:connector-curvature="0" /></clipPath><clipPath
       clipPathUnits="userSpaceOnUse"
       id="clipPath70"><path
         d="m 4830.51,6951.24 375.02,-369.68 287.11,295.38 -372.97,367.64 z"
         id="path68"
         inkscape:connector-curvature="0" /></clipPath><clipPath
       clipPathUnits="userSpaceOnUse"
       id="clipPath86"><path
         d="m 4501.27,6779.04 834.07,846.13 c 18.35,18.61 18.13,48.57 -0.48,66.92 l -18.78,18.51 c -12.13,11.96 -29.74,16.47 -46.12,11.83 l -553.15,-156.7 c -7.88,-2.24 -15.05,-6.48 -20.8,-12.31 l -483.12,-490.11 c -18.34,-18.61 -18.13,-48.57 0.48,-66.91 l 220.99,-217.84 c 18.61,-18.35 48.57,-18.13 66.91,0.48 z"
         id="path84"
         inkscape:connector-curvature="0" /></clipPath><clipPath
       clipPathUnits="userSpaceOnUse"
       id="clipPath102"><path
         d="m 5560.16,1290.14 c -89.03,0 -161.2,72.17 -161.2,161.21 0,89.03 72.17,161.2 161.2,161.2 89.04,0 161.21,-72.17 161.21,-161.2 0,-89.04 -72.17,-161.21 -161.21,-161.21 z m 1704.2,1617.2 c -46.06,62.7 -126.67,-131.79 -230.3,-200.88 -103.63,-69.09 -230.29,23.03 -287.87,103.64 -57.57,80.6 126.66,322.41 126.66,322.41 -103.63,63.33 -362.71,-103.63 -431.8,-207.27 -69.09,-103.63 -17.27,-282.11 -23.03,-345.44 -5.76,-63.33 -943.43,-847.29 -1061.49,-944.22 -245.44,-201.5 71.21,-662.1 359.09,-397.26 102.04,93.88 909.66,1042.09 973,1088.15 63.33,46.06 224.53,-40.3 403.02,40.3 178.47,80.61 218.78,477.87 172.72,540.57 z"
         id="path100"
         inkscape:connector-curvature="0" /></clipPath><clipPath
       clipPathUnits="userSpaceOnUse"
       id="clipPath118"><path
         d="m 4799.11,2966.42 h 1387.87 c 44.69,0 80.92,36.23 80.92,80.92 v 299.15 c 0,44.69 -36.23,80.92 -80.92,80.92 H 4799.11 c -44.68,0 -80.91,-36.23 -80.91,-80.92 v -299.15 c 0,-44.69 36.23,-80.92 80.91,-80.92 z"
         id="path116"
         inkscape:connector-curvature="0" /></clipPath><clipPath
       clipPathUnits="userSpaceOnUse"
       id="clipPath134"><path
         d="m 4799.11,2368.12 h 1323.63 c 55.96,49.97 105.46,95.09 145.16,132.65 v 247.42 c 0,44.68 -36.23,80.91 -80.92,80.91 H 4799.11 c -44.68,0 -80.91,-36.23 -80.91,-80.91 v -299.16 c 0,-44.69 36.23,-80.91 80.91,-80.91 z"
         id="path132"
         inkscape:connector-curvature="0" /></clipPath><clipPath
       clipPathUnits="userSpaceOnUse"
       id="clipPath150"><path
         d="M 5966.88,2230.8 H 4799.11 c -44.68,0 -80.91,-36.23 -80.91,-80.92 v -299.15 c 0,-44.69 36.23,-80.92 80.91,-80.92 h 627.07 c 143.4,119.8 354.66,298.83 540.7,460.99 z"
         id="path148"
         inkscape:connector-curvature="0" /></clipPath><clipPath
       clipPathUnits="userSpaceOnUse"
       id="clipPath166"><path
         d="m 2314.49,6121.3 c -343.54,0 -622.03,278.49 -622.03,622.02 0,343.54 278.49,622.03 622.03,622.03 343.53,0 622.02,-278.49 622.02,-622.03 0,-343.53 -278.49,-622.02 -622.02,-622.02 z m 1002.04,772.03 h -136.9 c -32.68,0 -60.8,22.39 -68.84,54.07 -1.79,7.03 -3.66,14.03 -5.63,20.99 -8.86,31.36 4.15,64.71 32.31,81.13 l 118.22,68.93 c 28.63,16.69 38.31,53.43 21.62,82.06 l -90.67,155.51 c -16.7,28.62 -53.43,38.3 -82.06,21.61 l -118.44,-69.06 c -28.24,-16.46 -63.78,-11.25 -86.73,12.03 -4.08,4.14 -8.21,8.23 -12.38,12.29 -23.42,22.77 -28.9,58.23 -12.67,86.58 l 68.1,118.98 c 16.46,28.76 6.49,65.42 -22.26,81.89 l -156.23,89.42 c -28.76,16.46 -65.42,6.49 -81.88,-22.27 l -68,-118.79 c -16.24,-28.38 -49.62,-41.58 -81.15,-32.92 -4.73,1.3 -9.48,2.56 -14.24,3.77 -31.72,8.1 -54.21,36.17 -54.21,68.91 v 136.9 c 0,33.14 -26.86,60 -60,60 h -180 c -33.14,0 -60.01,-26.86 -60.01,-60 v -136.9 c 0,-32.68 -22.4,-60.8 -54.07,-68.84 -7.03,-1.79 -14.03,-3.66 -20.99,-5.63 -31.37,-8.86 -64.71,4.15 -81.13,32.31 l -68.93,118.22 c -16.69,28.63 -53.43,38.31 -82.06,21.62 l -155.51,-90.67 c -28.62,-16.69 -38.3,-53.43 -21.61,-82.06 l 69.06,-118.44 c 16.46,-28.24 11.25,-63.78 -12.03,-86.73 -4.14,-4.08 -8.23,-8.21 -12.29,-12.38 -22.77,-23.42 -58.23,-28.9 -86.58,-12.67 l -118.98,68.1 c -28.77,16.47 -65.43,6.5 -81.89,-22.27 l -89.42,-156.22 c -16.46,-28.76 -6.49,-65.42 22.27,-81.88 l 118.79,-68 c 28.38,-16.24 41.57,-49.62 32.92,-81.15 -1.3,-4.73 -2.56,-9.48 -3.77,-14.24 -8.1,-31.72 -36.18,-54.2 -68.91,-54.2 h -136.9 c -33.14,0 -60,-26.87 -60,-60.01 v -180 c 0,-33.14 26.86,-60.01 60,-60.01 h 136.9 c 32.68,0 60.8,-22.39 68.84,-54.07 1.79,-7.03 3.66,-14.03 5.63,-20.99 8.86,-31.36 -4.15,-64.71 -32.31,-81.13 l -118.23,-68.93 c -28.62,-16.69 -38.3,-53.43 -21.61,-82.06 l 90.67,-155.5 c 16.69,-28.63 53.43,-38.31 82.06,-21.62 l 118.44,69.06 c 28.24,16.47 63.77,11.25 86.73,-12.03 4.08,-4.14 8.21,-8.23 12.38,-12.29 23.42,-22.77 28.9,-58.23 12.67,-86.58 l -68.1,-118.98 c -16.47,-28.76 -6.5,-65.42 22.26,-81.89 l 156.23,-89.42 c 28.76,-16.46 65.42,-6.49 81.88,22.27 l 68,118.79 c 16.24,28.38 49.62,41.58 81.15,32.92 4.73,-1.3 9.47,-2.56 14.24,-3.77 31.72,-8.1 54.2,-36.18 54.2,-68.91 v -136.9 c 0,-33.14 26.87,-60 60.01,-60 h 180 c 33.14,0 60,26.86 60,60 v 136.9 c 0,32.68 22.4,60.8 54.08,68.84 7.03,1.79 14.03,3.66 20.99,5.63 31.36,8.86 64.71,-4.15 81.13,-32.31 l 68.93,-118.22 c 16.69,-28.63 53.43,-38.31 82.06,-21.62 l 155.5,90.67 c 28.63,16.69 38.31,53.43 21.62,82.06 l -69.06,118.44 c -16.47,28.24 -11.25,63.78 12.02,86.73 4.14,4.08 8.24,8.21 12.3,12.38 22.76,23.42 58.23,28.9 86.58,12.67 l 118.98,-68.1 c 28.76,-16.46 65.42,-6.5 81.88,22.26 l 89.43,156.23 c 16.46,28.76 6.49,65.42 -22.27,81.88 l -118.79,68 c -28.38,16.24 -41.58,49.62 -32.92,81.15 1.3,4.73 2.56,9.48 3.77,14.24 8.09,31.72 36.17,54.2 68.91,54.2 h 136.9 c 33.14,0 60,26.87 60,60.01 v 180 c 0,33.14 -26.86,60.01 -60,60.01 z"
         id="path164"
         inkscape:connector-curvature="0" /></clipPath><clipPath
       clipPathUnits="userSpaceOnUse"
       id="clipPath182"><path
         d="m 11819.1,6499.01 c -229.5,0 -415.6,186.08 -415.6,415.63 0,229.54 186.1,415.62 415.6,415.62 229.5,0 415.6,-186.08 415.6,-415.62 0,-229.55 -186.1,-415.63 -415.6,-415.63 z m 743,548.04 h -98.5 c -36.9,0 -68.7,24.07 -80.6,58.95 -8.4,24.69 -18.4,48.64 -29.8,71.75 -16.4,33.12 -10.9,72.78 15.2,98.91 l 69.7,69.71 c 20.1,20.11 20.1,52.71 0,72.82 l -114.4,114.44 c -20.1,20.11 -52.8,20.11 -72.9,0 l -69.7,-69.71 c -26.1,-26.13 -65.8,-31.56 -98.9,-15.18 -23.1,11.43 -47,21.41 -71.7,29.8 -34.9,11.86 -59,43.71 -59,80.55 v 98.52 c 0,28.44 -23,51.49 -51.5,51.49 h -161.8 c -28.4,0 -51.5,-23.05 -51.5,-51.49 v -98.52 c 0,-36.84 -24.1,-68.69 -59,-80.55 -24.6,-8.39 -48.6,-18.37 -71.7,-29.8 -33.1,-16.38 -72.8,-10.95 -98.9,15.18 l -69.7,69.71 c -20.1,20.11 -52.7,20.11 -72.8,0 l -114.5,-114.44 c -20.1,-20.11 -20.1,-52.71 0,-72.82 l 69.7,-69.71 c 26.2,-26.13 31.6,-65.79 15.2,-98.91 -11.4,-23.11 -21.4,-47.06 -29.8,-71.75 -11.9,-34.88 -43.7,-58.95 -80.5,-58.95 h -98.6 c -28.4,0 -51.5,-23.06 -51.5,-51.5 v -161.83 c 0,-28.44 23.1,-51.49 51.5,-51.49 h 98.6 c 36.8,0 68.6,-24.08 80.5,-58.96 8.4,-24.69 18.4,-48.64 29.8,-71.75 16.4,-33.12 11,-72.78 -15.2,-98.9 l -69.7,-69.72 c -20.1,-20.1 -20.1,-52.71 0,-72.82 l 114.5,-114.43 c 20.1,-20.11 52.7,-20.11 72.8,0 l 69.7,69.71 c 26.1,26.13 65.8,31.55 98.9,15.17 23.1,-11.43 47.1,-21.4 71.7,-29.8 34.9,-11.85 59,-43.71 59,-80.55 v -98.52 c 0,-28.44 23.1,-51.49 51.5,-51.49 h 161.8 c 28.5,0 51.5,23.05 51.5,51.49 v 98.52 c 0,36.84 24.1,68.7 59,80.55 24.7,8.4 48.6,18.37 71.7,29.8 33.1,16.38 72.8,10.96 98.9,-15.17 l 69.7,-69.71 c 20.1,-20.11 52.8,-20.11 72.9,0 l 114.4,114.43 c 20.1,20.11 20.1,52.72 0,72.82 l -69.7,69.72 c -26.1,26.12 -31.6,65.78 -15.2,98.9 11.4,23.11 21.4,47.06 29.8,71.75 11.9,34.88 43.7,58.96 80.6,58.96 h 98.5 c 28.4,0 51.5,23.05 51.5,51.49 v 161.83 c 0,28.44 -23.1,51.5 -51.5,51.5 z"
         id="path180"
         inkscape:connector-curvature="0" /></clipPath><clipPath
       clipPathUnits="userSpaceOnUse"
       id="clipPath198"><path
         d="m 11903.7,7895.32 c 504.1,-42.94 899.9,-465.46 899.9,-980.68 0,-56.99 -5.1,-112.76 -14.4,-167.1 l 271.3,-77.47 c 15.5,79.15 23.9,160.87 23.9,244.57 0,670.32 -521.4,1218.56 -1180.7,1262.13 z"
         id="path196"
         inkscape:connector-curvature="0" /></clipPath><clipPath
       clipPathUnits="userSpaceOnUse"
       id="clipPath214"><path
         d="m 10837.5,6986.91 c 35,481.96 416.7,867.5 897,908.41 v 281.45 c -636.2,-42.05 -1143.9,-554.09 -1178.6,-1192.31 z"
         id="path212"
         inkscape:connector-curvature="0" /></clipPath><clipPath
       clipPathUnits="userSpaceOnUse"
       id="clipPath230"><path
         d="m 12230.9,6020.37 c -125.3,-57.8 -264.7,-90.28 -411.8,-90.28 -511,0 -931,389.39 -979.7,887.64 l -281.3,-2.45 c 50.7,-652.29 595.7,-1165.91 1261,-1165.91 195.1,0 379.9,44.25 544.9,123.12 z"
         id="path228"
         inkscape:connector-curvature="0" /></clipPath><clipPath
       clipPathUnits="userSpaceOnUse"
       id="clipPath246"><path
         d="m 12746.5,6583.79 c -69.9,-196.05 -200.2,-363.33 -368.6,-479.62 l 133.4,-248.44 c 233.9,153.16 413.7,381.56 505.4,650.89 z"
         id="path244"
         inkscape:connector-curvature="0" /></clipPath><clipPath
       clipPathUnits="userSpaceOnUse"
       id="clipPath262"><path
         d="m 8543.67,1875.26 c -268.36,0 -485.9,217.54 -485.9,485.9 0,268.35 217.54,485.9 485.9,485.9 268.35,0 485.9,-217.55 485.9,-485.9 0,-268.36 -217.55,-485.9 -485.9,-485.9 z m 868.6,640.7 h -115.18 c -43.07,0 -80.31,28.15 -94.17,68.92 -9.81,28.86 -21.47,56.86 -34.84,83.88 -19.15,38.72 -12.8,85.09 17.74,115.63 l 81.5,81.5 c 23.51,23.51 23.51,61.63 0,85.14 l -133.78,133.78 c -23.51,23.51 -61.63,23.51 -85.14,0 l -81.5,-81.5 c -30.54,-30.54 -76.91,-36.89 -115.63,-17.74 -27.02,13.36 -55.02,25.03 -83.88,34.84 -40.78,13.86 -68.92,51.1 -68.92,94.17 v 115.18 c 0,33.24 -26.95,60.2 -60.2,60.2 h -189.2 c -33.25,0 -60.2,-26.96 -60.2,-60.2 v -115.18 c 0,-43.07 -28.15,-80.31 -68.92,-94.17 -28.86,-9.81 -56.86,-21.48 -83.88,-34.84 -38.72,-19.15 -85.09,-12.8 -115.64,17.74 l -81.49,81.5 c -23.51,23.51 -61.63,23.51 -85.14,0 l -133.78,-133.78 c -23.51,-23.51 -23.51,-61.63 0,-85.14 l 81.5,-81.5 c 30.54,-30.54 36.89,-76.91 17.73,-115.63 -13.36,-27.02 -25.02,-55.02 -34.83,-83.88 -13.86,-40.77 -51.1,-68.92 -94.17,-68.92 h -115.18 c -33.25,0 -60.2,-26.95 -60.2,-60.2 v -189.2 c 0,-33.25 26.95,-60.2 60.2,-60.2 h 115.18 c 43.07,0 80.31,-28.15 94.17,-68.92 9.81,-28.86 21.47,-56.87 34.83,-83.88 19.15,-38.73 12.81,-85.09 -17.73,-115.63 l -81.5,-81.5 c -23.51,-23.51 -23.51,-61.63 0,-85.14 l 133.78,-133.78 c 23.51,-23.51 61.63,-23.51 85.14,0 l 81.49,81.49 c 30.55,30.55 76.92,36.89 115.64,17.74 27.02,-13.36 55.02,-25.02 83.88,-34.83 40.77,-13.86 68.92,-51.11 68.92,-94.17 v -115.18 c 0,-33.25 26.95,-60.2 60.2,-60.2 h 189.2 c 33.25,0 60.2,26.95 60.2,60.2 v 115.18 c 0,43.06 28.14,80.31 68.92,94.17 28.86,9.81 56.86,21.47 83.88,34.83 38.72,19.15 85.09,12.81 115.63,-17.74 l 81.5,-81.49 c 23.51,-23.51 61.63,-23.51 85.14,0 l 133.78,133.78 c 23.51,23.51 23.51,61.63 0,85.14 l -81.5,81.5 c -30.54,30.54 -36.89,76.9 -17.74,115.63 13.37,27.01 25.03,55.02 34.84,83.88 13.86,40.77 51.1,68.92 94.17,68.92 h 115.18 c 33.24,0 60.2,26.95 60.2,60.2 v 189.2 c 0,33.25 -26.96,60.2 -60.2,60.2 z"
         id="path260"
         inkscape:connector-curvature="0" /></clipPath><clipPath
       clipPathUnits="userSpaceOnUse"
       id="clipPath278"><path
         d="m 10118.8,3198.66 h -115.2 c -43.06,0 -80.3,28.15 -94.16,68.93 -9.81,28.86 -21.47,56.86 -34.84,83.88 -19.15,38.72 -12.8,85.08 17.74,115.63 l 81.5,81.5 c 23.51,23.51 23.51,61.62 0,85.13 l -133.78,133.79 c -23.51,23.51 -61.63,23.51 -85.14,0 l -81.5,-81.5 c -30.54,-30.55 -76.91,-36.89 -115.63,-17.74 -27.02,13.36 -55.02,25.02 -83.88,34.84 -40.77,13.86 -68.92,51.1 -68.92,94.17 v 115.17 c 0,33.25 -26.95,60.2 -60.2,60.2 h -189.2 c -33.25,0 -60.2,-26.95 -60.2,-60.2 v -115.17 c 0,-43.07 -28.14,-80.31 -68.92,-94.17 -28.86,-9.82 -56.86,-21.48 -83.88,-34.84 -38.72,-19.15 -85.08,-12.81 -115.63,17.74 l -81.5,81.5 c -23.51,23.51 -61.63,23.51 -85.14,0 l -133.78,-133.79 c -23.51,-23.51 -23.51,-61.62 0,-85.13 l 81.5,-81.5 c 14.06,-14.06 22.37,-31.63 26.05,-50.1 h 4.19 c 89.12,0 163.6,-62.71 182.37,-146.27 81.51,154 243.17,259.04 429.54,259.04 268.35,0 485.9,-217.55 485.9,-485.91 0,-179.6 -97.71,-336.05 -242.61,-420.16 62.48,-30.36 106,-93.9 106,-167.94 v -26.64 c 27.03,1.15 53.91,-7.37 73.94,-27.41 l 81.5,-81.5 c 23.51,-23.51 61.63,-23.51 85.14,0 L 9973.84,2454 c 23.51,23.51 23.51,61.62 0,85.13 l -81.5,81.5 c -30.54,30.55 -36.89,76.91 -17.74,115.64 13.37,27.01 25.03,55.01 34.84,83.87 13.86,40.78 51.1,68.92 94.16,68.92 h 115.2 c 33.2,0 60.2,26.96 60.2,60.21 v 189.19 c 0,33.25 -27,60.2 -60.2,60.2 z"
         id="path276"
         inkscape:connector-curvature="0" /></clipPath><clipPath
       clipPathUnits="userSpaceOnUse"
       id="clipPath294"><path
         d="m 2719.31,2387.88 c -84.31,33.19 -179.56,-8.25 -212.75,-92.56 -33.19,-84.31 8.25,-179.56 92.56,-212.75 84.3,-33.18 179.55,8.25 212.74,92.56 33.19,84.31 -8.25,179.56 -92.55,212.75 z"
         id="path292"
         inkscape:connector-curvature="0" /></clipPath><clipPath
       clipPathUnits="userSpaceOnUse"
       id="clipPath310"><path
         d="m 2005.25,2737.98 c -115.23,0 -208.64,-93.41 -208.64,-208.64 0,-115.23 93.41,-208.64 208.64,-208.64 115.23,0 208.64,93.41 208.64,208.64 0,115.23 -93.41,208.64 -208.64,208.64 z"
         id="path308"
         inkscape:connector-curvature="0" /></clipPath><clipPath
       clipPathUnits="userSpaceOnUse"
       id="clipPath326"><path
         d="m 1606.43,2569.96 c 0,14.27 11.57,25.85 25.85,25.85 h 49.45 c 18.5,0 34.49,12.08 40.44,29.59 4.21,12.39 9.22,24.42 14.96,36.02 8.22,16.62 5.5,36.53 -7.62,49.65 l -34.99,34.99 c -10.1,10.1 -10.1,26.47 0,36.56 l 57.44,57.45 c 10.1,10.09 26.46,10.09 36.56,0 l 34.99,-35 c 13.12,-13.12 33.03,-15.84 49.65,-7.62 11.61,5.74 23.63,10.75 36.02,14.96 17.51,5.95 29.6,21.94 29.6,40.44 v 49.45 c 0,14.28 11.57,25.85 25.85,25.85 h 81.23 c 14.28,0 25.85,-11.57 25.85,-25.85 v -49.45 c 0,-18.5 12.09,-34.49 29.6,-40.44 12.39,-4.21 24.41,-9.22 36.02,-14.96 16.62,-8.22 36.53,-5.5 49.65,7.62 l 34.99,35 c 10.1,10.09 26.46,10.09 36.56,0 l 57.45,-57.45 c 10.09,-10.09 10.09,-26.46 0,-36.56 l -35,-34.99 c -13.12,-13.12 -15.84,-33.03 -7.62,-49.65 5.74,-11.6 10.75,-23.63 14.96,-36.02 5.95,-17.51 21.95,-29.59 40.44,-29.59 h 49.45 c 14.28,0 25.85,-11.58 25.85,-25.85 v -81.24 c 0,-14.28 -11.57,-25.85 -25.85,-25.85 h -49.45 c -18.49,0 -34.49,-12.09 -40.44,-29.6 -4.21,-12.39 -9.22,-24.41 -14.96,-36.01 -8.22,-16.63 -5.49,-36.54 7.62,-49.66 l 35,-34.99 c 10.09,-10.09 10.09,-26.46 0,-36.56 l -57.45,-57.44 c -10.1,-10.1 -26.46,-10.1 -36.56,0 l -34.99,34.99 c -13.12,13.12 -33.03,15.84 -49.65,7.62 -11.61,-5.74 -23.63,-10.74 -36.02,-14.96 -17.51,-5.95 -29.6,-21.94 -29.6,-40.43 v -49.46 c 0,-14.28 -11.57,-25.85 -25.85,-25.85 h -81.23 c -14.28,0 -25.85,11.57 -25.85,25.85 v 49.46 c 0,18.49 -12.09,34.48 -29.6,40.43 -12.39,4.22 -24.41,9.22 -36.02,14.96 -16.62,8.22 -36.53,5.5 -49.65,-7.62 l -34.99,-34.99 c -10.1,-10.1 -26.46,-10.1 -36.56,0 l -57.44,57.44 c -10.1,10.1 -10.1,26.47 0,36.56 l 34.99,34.99 c 13.12,13.12 15.84,33.03 7.62,49.66 -5.74,11.6 -10.75,23.62 -14.96,36.01 -5.95,17.51 -21.94,29.6 -40.44,29.6 h -49.45 c -14.28,0 -25.85,11.57 -25.85,25.85 z m 835.23,-192.92 c 13.53,-5.32 28.71,-1.09 38.11,10 6.65,7.86 13.78,15.21 21.32,22.05 10.8,9.8 14.55,25.15 8.72,38.52 l -15.52,35.68 c -4.48,10.3 0.24,22.27 10.53,26.75 l 58.58,25.48 c 10.29,4.48 22.27,-0.23 26.74,-10.53 l 15.53,-35.68 c 5.82,-13.37 19.6,-21.1 34.13,-19.87 10.14,0.85 20.38,1.05 30.66,0.57 14.53,-0.69 27.98,7.53 33.31,21.06 l 14.24,36.18 c 4.11,10.45 15.91,15.58 26.35,11.47 l 59.44,-23.4 c 10.45,-4.11 15.58,-15.91 11.47,-26.36 l -14.24,-36.18 c -5.33,-13.53 -1.09,-28.71 10,-38.11 7.86,-6.65 15.21,-13.78 22.05,-21.32 9.79,-10.81 25.14,-14.55 38.52,-8.73 l 35.68,15.53 c 10.3,4.48 22.27,-0.24 26.74,-10.53 l 25.49,-58.58 c 4.48,-10.29 -0.24,-22.27 -10.53,-26.75 l -35.68,-15.52 c -13.37,-5.82 -21.1,-19.6 -19.87,-34.13 0.85,-10.14 1.05,-20.38 0.56,-30.66 -0.68,-14.53 7.54,-27.98 21.06,-33.3 l 36.19,-14.25 c 10.44,-4.11 15.58,-15.91 11.46,-26.36 l -23.4,-59.44 c -4.1,-10.44 -15.91,-15.57 -26.35,-11.46 l -36.18,14.24 c -13.53,5.33 -28.72,1.09 -38.11,-10 -6.66,-7.86 -13.78,-15.21 -21.32,-22.05 -10.81,-9.8 -14.55,-25.14 -8.73,-38.52 l 15.52,-35.68 c 4.48,-10.3 -0.24,-22.27 -10.53,-26.75 l -58.58,-25.48 c -10.29,-4.48 -22.26,0.23 -26.74,10.53 l -15.52,35.68 c -5.82,13.38 -19.6,21.1 -34.14,19.88 -10.14,-0.86 -20.38,-1.06 -30.66,-0.57 -14.52,0.68 -27.97,-7.54 -33.3,-21.07 l -14.24,-36.18 c -4.11,-10.45 -15.92,-15.58 -26.36,-11.47 l -59.44,23.4 c -10.45,4.11 -15.58,15.91 -11.47,26.36 l 14.25,36.19 c 5.32,13.52 1.09,28.71 -10.01,38.1 -7.85,6.66 -15.21,13.78 -22.04,21.32 -9.8,10.81 -25.15,14.55 -38.52,8.73 l -35.69,-15.52 c -10.29,-4.48 -22.26,0.23 -26.74,10.53 l -25.48,58.57 c -4.48,10.3 0.23,22.27 10.53,26.75 l 35.68,15.52 c 13.37,5.82 21.1,19.6 19.87,34.14 -0.85,10.14 -1.05,20.38 -0.57,30.66 0.69,14.52 -7.53,27.97 -21.06,33.3 l -36.18,14.24 c -10.45,4.11 -15.58,15.91 -11.47,26.36 l 23.4,59.44 c 4.11,10.44 15.91,15.58 26.36,11.47 z m -127.17,-619.62 h 971.57 v 977.19 l -46.31,52.8 -925.25,905.84 -931.05,-911.19 c -13.49,-11.11 -27.01,-22.29 -40.54,-33.51 v -991.13 z"
         id="path324"
         inkscape:connector-curvature="0" /></clipPath><clipPath
       clipPathUnits="userSpaceOnUse"
       id="clipPath342"><path
         d="m 1300.25,2878.71 1014.25,992.98 1019.51,-998.38 36.87,-42.04 h 346.19 L 2314.49,4175.41 911.91,2831.27 h 331.26 c 30.44,25.42 50.72,42.19 57.08,47.44 z"
         id="path340"
         inkscape:connector-curvature="0" /></clipPath><clipPath
       clipPathUnits="userSpaceOnUse"
       id="clipPath358"><path
         d="m 11904.3,2387.47 c 0,-256.28 -207.8,-464.03 -464,-464.03 -256.3,0 -464.1,207.75 -464.1,464.03 0,256.27 207.8,464.02 464.1,464.02 45.9,0 90.3,-6.92 132.2,-19.38 l 91.3,171.08 c -12.2,-21.16 -37.1,-31.01 -60.6,-24.55 -3.5,0.97 -7.1,1.91 -10.6,2.81 -23.7,6.04 -40.4,26.99 -40.4,51.41 v 102.12 c 0,24.73 -20.1,44.77 -44.8,44.77 h -134.3 c -24.7,0 -44.8,-20.04 -44.8,-44.77 v -102.13 c 0,-24.37 -16.7,-45.35 -40.3,-51.35 -5.2,-1.33 -10.5,-2.73 -15.6,-4.2 -23.4,-6.61 -48.3,3.1 -60.6,24.11 l -51.4,88.19 c -12.4,21.36 -39.9,28.58 -61.2,16.12 l -116,-67.63 c -21.4,-12.46 -28.6,-39.86 -16.1,-61.22 l 51.5,-88.36 c 12.3,-21.06 8.4,-47.57 -9,-64.69 -3.1,-3.05 -6.1,-6.13 -9.2,-9.24 -17,-17.47 -43.4,-21.56 -64.6,-9.45 l -88.7,50.8 c -21.5,12.28 -48.8,4.84 -61.1,-16.61 l -66.7,-116.54 c -12.3,-21.46 -4.9,-48.81 16.6,-61.09 l 88.6,-50.72 c 21.2,-12.12 31,-37.02 24.6,-60.54 -1,-3.53 -1.9,-7.07 -2.8,-10.62 -6.1,-23.67 -27,-40.44 -51.4,-40.44 h -102.2 c -24.7,0 -44.7,-20.04 -44.7,-44.76 v -134.29 c 0,-24.72 20,-44.76 44.7,-44.76 h 102.2 c 24.3,0 45.3,-16.71 51.3,-40.34 1.3,-5.24 2.7,-10.46 4.2,-15.65 6.6,-23.4 -3.1,-48.28 -24.1,-60.53 l -88.2,-51.42 c -21.3,-12.45 -28.6,-39.86 -16.1,-61.22 l 67.6,-116 c 12.5,-21.36 39.9,-28.58 61.2,-16.13 l 88.4,51.52 c 21.1,12.28 47.6,8.39 64.7,-8.97 3,-3.09 6.1,-6.15 9.2,-9.17 17.5,-16.99 21.6,-43.44 9.5,-64.59 l -50.8,-88.76 c -12.3,-21.46 -4.9,-48.81 16.6,-61.09 l 116.5,-66.7 c 21.5,-12.29 48.8,-4.85 61.1,16.61 l 50.8,88.62 c 12.1,21.16 37,31.01 60.5,24.55 3.5,-0.97 7.1,-1.9 10.6,-2.81 23.7,-6.04 40.4,-26.99 40.4,-51.41 v -102.12 c 0,-24.73 20.1,-44.77 44.8,-44.77 h 134.3 c 24.7,0 44.8,20.04 44.8,44.77 v 102.13 c 0,24.37 16.7,45.35 40.3,51.35 5.2,1.33 10.5,2.73 15.7,4.2 23.4,6.61 48.2,-3.1 60.5,-24.1 l 51.4,-88.2 c 12.5,-21.36 39.9,-28.57 61.2,-16.12 l 116,67.64 c 21.4,12.45 28.6,39.85 16.1,61.21 l -51.5,88.36 c -12.3,21.06 -8.4,47.57 9,64.7 3.1,3.04 6.1,6.12 9.2,9.23 17,17.47 43.4,21.56 64.6,9.46 l 88.7,-50.81 c 21.5,-12.28 48.8,-4.84 61.1,16.61 l 66.7,116.54 c 12.3,21.46 4.9,48.81 -16.6,61.09 l -88.6,50.72 c -21.2,12.12 -31,37.02 -24.6,60.54 1,3.53 1.9,7.07 2.8,10.63 6.1,23.66 27,40.43 51.4,40.43 h 102.2 c 24.7,0 44.7,20.04 44.7,44.76 v 134.29 c 0,24.72 -20,44.76 -44.7,44.76 h -102.2 c -24.3,0 -45.3,16.71 -51.3,40.34 -1.3,5.24 -2.7,10.46 -4.2,15.66 -6.6,23.4 3.1,48.27 24.1,60.52 l 88.2,51.42 c 21.3,12.46 28.6,39.86 16.1,61.22 l -67.6,116 c -12.5,21.36 -39.9,28.58 -61.2,16.13 l -88.4,-51.52 c -21.1,-12.28 -47.6,-8.39 -64.7,8.97 -3,3.09 -6.1,6.15 -9.2,9.17 -1.9,1.77 -2.9,4 -4.4,5.96 l -75.2,-139.07 c 72.3,-81.81 116.5,-188.97 116.5,-306.7 z"
         id="path356"
         inkscape:connector-curvature="0" /></clipPath><clipPath
       clipPathUnits="userSpaceOnUse"
       id="clipPath374"><path
         d="m 12865.2,2681.71 c -24.7,0 -48.5,-3.37 -71.4,-9.09 l -435.5,693.39 c 61.1,53.92 99.8,132.6 99.8,220.51 0,162.51 -131.7,294.25 -294.2,294.25 -162.5,0 -294.2,-131.74 -294.2,-294.25 0,-74.13 27.6,-141.67 72.8,-193.41 l -395.3,-731.73 c -33.2,12.96 -69.2,20.33 -106.9,20.33 -162.6,0 -294.3,-131.74 -294.3,-294.24 0,-162.51 131.7,-294.25 294.3,-294.25 162.5,0 294.2,131.74 294.2,294.25 0,74.77 -28.1,142.81 -74.1,194.72 l 395,730.99 c 33.6,-13.35 70.1,-20.91 108.5,-20.91 25.1,0 49.4,3.49 72.6,9.41 l 435.2,-692.89 c -61.6,-53.93 -100.8,-132.98 -100.8,-221.32 0,-162.51 131.8,-294.25 294.3,-294.25 162.5,0 294.2,131.74 294.2,294.25 0,162.5 -131.7,294.24 -294.2,294.24 z"
         id="path372"
         inkscape:connector-curvature="0" /></clipPath></defs><sodipodi:namedview
     pagecolor="#ffffff"
     bordercolor="#666666"
     borderopacity="1"
     objecttolerance="10"
     gridtolerance="10"
     guidetolerance="10"
     inkscape:pageopacity="0"
     inkscape:pageshadow="2"
     inkscape:window-width="1394"
     inkscape:window-height="934"
     inkscape:document-units="px"
     id="namedview4"
     showgrid="false"
     inkscape:zoom="0.18061223"
     inkscape:cx="822.81883"
     inkscape:cy="487.81853"
     inkscape:window-x="799"
     inkscape:window-y="464"
     inkscape:window-maximized="0"
     inkscape:current-layer="g10"
     fit-margin-top="0"
     fit-margin-left="0"
     fit-margin-right="0"
     fit-margin-bottom="0" /><g
     id="g10"
     inkscape:groupmode="layer"
     inkscape:label="ink_ext_XXXXXX"
     transform="matrix(1.3333333,0,0,-1.3333333,-116.05127,1101.3094)"><g
       id="g4860"
       transform="translate(-4.1525477,8.3050854)"><g
         style="fill:#93b0be;fill-opacity:1"
         transform="scale(0.1)"
         id="g16"><g
           style="fill:#93b0be;fill-opacity:1"
           id="g18"
           clip-path="url(#clipPath22)"><path
             d="m 7801.67,5513.48 c -113.75,0 -205.97,92.22 -205.97,205.98 0,113.75 92.22,205.97 205.97,205.97 113.76,0 205.97,-92.22 205.97,-205.97 0,-113.76 -92.21,-205.98 -205.97,-205.98 z M 9979.1,7579.76 c -58.85,80.11 -161.84,-168.38 -294.25,-256.66 -132.41,-88.27 -294.25,29.43 -367.81,132.41 -73.56,102.99 161.84,411.95 161.84,411.95 -132.41,80.92 -463.44,-132.41 -551.71,-264.82 -88.28,-132.41 -22.07,-360.46 -29.43,-441.37 -7.35,-80.92 -1205.4,-1082.58 -1356.25,-1206.42 -313.6,-257.46 90.99,-845.96 458.8,-507.57 130.38,119.94 1162.27,1331.47 1243.19,1390.32 80.92,58.84 286.89,-51.5 514.93,51.49 228.05,102.98 279.49,610.56 220.69,690.67"
             style="fill:#93b0be;fill-opacity:1;fill-rule:nonzero;stroke:none"
             id="path30"
             inkscape:connector-curvature="0" /></g></g><g
         style="fill:#93b0be;fill-opacity:1"
         transform="scale(0.1)"
         id="g32"><g
           style="fill:#93b0be;fill-opacity:1"
           id="g34"
           clip-path="url(#clipPath38)"><path
             d="m 6725.65,7517.98 c -28.8,37.27 -150.82,-122.35 -239.66,-176.48 -88.84,-54.13 -200.57,109.25 -215.28,173.38 -14.71,64.13 164.29,240.2 164.29,240.2 -34.62,106.82 -349.66,-5.95 -427.67,-77.84 -63.99,-58.98 -108.3,-183.86 -69.23,-335.79 11.54,-44.85 -1.81,-92.53 -34.08,-125.74 l -856.21,-880.83 c -31.62,-32.53 -77.59,-47.3 -122.03,-38.19 -95.68,19.6 -194.33,12.24 -269.08,-25.38 -172.47,-86.82 -209.41,-426.06 -180.61,-463.33 28.8,-37.28 150.82,122.35 239.66,176.48 88.84,54.13 200.57,-109.26 215.28,-173.39 14.71,-64.13 -164.29,-240.2 -164.29,-240.2 34.62,-106.81 349.65,5.95 427.67,77.85 63.99,58.98 108.3,183.86 69.23,335.78 -11.54,44.85 1.81,92.53 34.09,125.74 l 856.2,880.84 c 31.62,32.53 77.59,47.29 122.03,38.18 95.68,-19.6 194.33,-12.24 269.08,25.39 172.47,86.81 209.41,426.06 180.61,463.33"
             style="fill:#93b0be;fill-opacity:1;fill-rule:nonzero;stroke:none"
             id="path46"
             inkscape:connector-curvature="0" /></g></g><g
         style="fill:#93b0be;fill-opacity:1"
         transform="scale(0.1)"
         id="g48"><g
           style="fill:#93b0be;fill-opacity:1"
           id="g50"
           clip-path="url(#clipPath54)"><path
             d="m 5815.59,6558.59 -287.11,-295.37 631.54,-622.53 c 29.61,-29.19 77.27,-28.84 106.45,0.76 l 183.48,186.13 c 29.18,29.61 28.84,77.27 -0.77,106.46 l -633.59,624.55"
             style="fill:#93b0be;fill-opacity:1;fill-rule:nonzero;stroke:none"
             id="path62"
             inkscape:connector-curvature="0" /></g></g><g
         style="fill:#93b0be;fill-opacity:1"
         transform="scale(0.1)"
         id="g64"><g
           style="fill:#93b0be;fill-opacity:1"
           id="g66"
           clip-path="url(#clipPath70)"><path
             d="m 4830.51,6951.24 375.02,-369.68 287.11,295.38 -372.97,367.64 -289.16,-293.34"
             style="fill:#93b0be;fill-opacity:1;fill-rule:nonzero;stroke:none"
             id="path78"
             inkscape:connector-curvature="0" /></g></g><g
         style="fill:#93b0be;fill-opacity:1"
         transform="scale(0.1)"
         id="g80"><g
           style="fill:#93b0be;fill-opacity:1"
           id="g82"
           clip-path="url(#clipPath86)"><path
             d="m 4501.27,6779.04 834.07,846.13 c 18.35,18.61 18.13,48.57 -0.48,66.92 l -18.78,18.51 c -12.13,11.96 -29.74,16.47 -46.12,11.83 l -553.15,-156.7 c -7.88,-2.24 -15.05,-6.48 -20.8,-12.31 l -483.12,-490.11 c -18.34,-18.61 -18.13,-48.57 0.48,-66.91 l 220.99,-217.84 c 18.61,-18.35 48.57,-18.13 66.91,0.48"
             style="fill:#93b0be;fill-opacity:1;fill-rule:nonzero;stroke:none"
             id="path94"
             inkscape:connector-curvature="0" /></g></g><g
         style="fill:#93b0be;fill-opacity:1"
         transform="scale(0.1)"
         id="g96"><g
           style="fill:#93b0be;fill-opacity:1"
           id="g98"
           clip-path="url(#clipPath102)"><path
             d="m 5560.16,1290.14 c -89.03,0 -161.2,72.17 -161.2,161.21 0,89.03 72.17,161.2 161.2,161.2 89.04,0 161.21,-72.17 161.21,-161.2 0,-89.04 -72.17,-161.21 -161.21,-161.21 z m 1704.2,1617.2 c -46.06,62.7 -126.67,-131.79 -230.3,-200.88 -103.63,-69.09 -230.29,23.03 -287.87,103.64 -57.57,80.6 126.66,322.41 126.66,322.41 -103.63,63.33 -362.71,-103.63 -431.8,-207.27 -69.09,-103.63 -17.27,-282.11 -23.03,-345.44 -5.76,-63.33 -943.43,-847.29 -1061.49,-944.22 -245.44,-201.5 71.21,-662.1 359.09,-397.26 102.04,93.88 909.66,1042.09 973,1088.15 63.33,46.06 224.53,-40.3 403.02,40.3 178.47,80.61 218.78,477.87 172.72,540.57"
             style="fill:#93b0be;fill-opacity:1;fill-rule:nonzero;stroke:none"
             id="path110"
             inkscape:connector-curvature="0" /></g></g><g
         style="fill:#93b0be;fill-opacity:1"
         transform="scale(0.1)"
         id="g112"><g
           style="fill:#93b0be;fill-opacity:1"
           id="g114"
           clip-path="url(#clipPath118)"><path
             d="m 4799.11,2966.42 h 1387.87 c 44.69,0 80.92,36.23 80.92,80.92 v 299.15 c 0,44.69 -36.23,80.92 -80.92,80.92 H 4799.11 c -44.68,0 -80.91,-36.23 -80.91,-80.92 v -299.15 c 0,-44.69 36.23,-80.92 80.91,-80.92"
             style="fill:#93b0be;fill-opacity:1;fill-rule:nonzero;stroke:none"
             id="path126"
             inkscape:connector-curvature="0" /></g></g><g
         style="fill:#93b0be;fill-opacity:1"
         transform="scale(0.1)"
         id="g128"><g
           style="fill:#93b0be;fill-opacity:1"
           id="g130"
           clip-path="url(#clipPath134)"><path
             d="m 4799.11,2368.12 h 1323.63 c 55.96,49.97 105.46,95.09 145.16,132.65 v 247.42 c 0,44.68 -36.23,80.91 -80.92,80.91 H 4799.11 c -44.68,0 -80.91,-36.23 -80.91,-80.91 v -299.16 c 0,-44.69 36.23,-80.91 80.91,-80.91"
             style="fill:#93b0be;fill-opacity:1;fill-rule:nonzero;stroke:none"
             id="path142"
             inkscape:connector-curvature="0" /></g></g><g
         style="fill:#93b0be;fill-opacity:1"
         transform="scale(0.1)"
         id="g144"><g
           style="fill:#93b0be;fill-opacity:1"
           id="g146"
           clip-path="url(#clipPath150)"><path
             d="M 5966.88,2230.8 H 4799.11 c -44.68,0 -80.91,-36.23 -80.91,-80.92 v -299.15 c 0,-44.69 36.23,-80.92 80.91,-80.92 h 627.07 c 143.4,119.8 354.66,298.83 540.7,460.99"
             style="fill:#93b0be;fill-opacity:1;fill-rule:nonzero;stroke:none"
             id="path158"
             inkscape:connector-curvature="0" /></g></g><g
         style="fill:#93b0be;fill-opacity:1"
         transform="scale(0.1)"
         id="g160"><g
           style="fill:#93b0be;fill-opacity:1"
           id="g162"
           clip-path="url(#clipPath166)"><path
             d="m 2314.49,6121.3 c -343.54,0 -622.03,278.49 -622.03,622.02 0,343.54 278.49,622.03 622.03,622.03 343.53,0 622.02,-278.49 622.02,-622.03 0,-343.53 -278.49,-622.02 -622.02,-622.02 z m 1002.04,772.03 h -136.9 c -32.68,0 -60.8,22.39 -68.84,54.07 -1.79,7.03 -3.66,14.03 -5.63,20.99 -8.86,31.36 4.15,64.71 32.31,81.13 l 118.22,68.93 c 28.63,16.69 38.31,53.43 21.62,82.06 l -90.67,155.51 c -16.7,28.62 -53.43,38.3 -82.06,21.61 l -118.44,-69.06 c -28.24,-16.46 -63.78,-11.25 -86.73,12.03 -4.08,4.14 -8.21,8.23 -12.38,12.29 -23.42,22.77 -28.9,58.23 -12.67,86.58 l 68.1,118.98 c 16.46,28.76 6.49,65.42 -22.26,81.89 l -156.23,89.42 c -28.76,16.46 -65.42,6.49 -81.88,-22.27 l -68,-118.79 c -16.24,-28.38 -49.62,-41.58 -81.15,-32.92 -4.73,1.3 -9.48,2.56 -14.24,3.77 -31.72,8.1 -54.21,36.17 -54.21,68.91 v 136.9 c 0,33.14 -26.86,60 -60,60 h -180 c -33.14,0 -60.01,-26.86 -60.01,-60 v -136.9 c 0,-32.68 -22.4,-60.8 -54.07,-68.84 -7.03,-1.79 -14.03,-3.66 -20.99,-5.63 -31.37,-8.86 -64.71,4.15 -81.13,32.31 l -68.93,118.22 c -16.69,28.63 -53.43,38.31 -82.06,21.62 l -155.51,-90.67 c -28.62,-16.69 -38.3,-53.43 -21.61,-82.06 l 69.06,-118.44 c 16.46,-28.24 11.25,-63.78 -12.03,-86.73 -4.14,-4.08 -8.23,-8.21 -12.29,-12.38 -22.77,-23.42 -58.23,-28.9 -86.58,-12.67 l -118.98,68.1 c -28.77,16.47 -65.43,6.5 -81.89,-22.27 l -89.42,-156.22 c -16.46,-28.76 -6.49,-65.42 22.27,-81.88 l 118.79,-68 c 28.38,-16.24 41.57,-49.62 32.92,-81.15 -1.3,-4.73 -2.56,-9.48 -3.77,-14.24 -8.1,-31.72 -36.18,-54.2 -68.91,-54.2 h -136.9 c -33.14,0 -60,-26.87 -60,-60.01 v -180 c 0,-33.14 26.86,-60.01 60,-60.01 h 136.9 c 32.68,0 60.8,-22.39 68.84,-54.07 1.79,-7.03 3.66,-14.03 5.63,-20.99 8.86,-31.36 -4.15,-64.71 -32.31,-81.13 l -118.23,-68.93 c -28.62,-16.69 -38.3,-53.43 -21.61,-82.06 l 90.67,-155.5 c 16.69,-28.63 53.43,-38.31 82.06,-21.62 l 118.44,69.06 c 28.24,16.47 63.77,11.25 86.73,-12.03 4.08,-4.14 8.21,-8.23 12.38,-12.29 23.42,-22.77 28.9,-58.23 12.67,-86.58 l -68.1,-118.98 c -16.47,-28.76 -6.5,-65.42 22.26,-81.89 l 156.23,-89.42 c 28.76,-16.46 65.42,-6.49 81.88,22.27 l 68,118.79 c 16.24,28.38 49.62,41.58 81.15,32.92 4.73,-1.3 9.47,-2.56 14.24,-3.77 31.72,-8.1 54.2,-36.18 54.2,-68.91 v -136.9 c 0,-33.14 26.87,-60 60.01,-60 h 180 c 33.14,0 60,26.86 60,60 v 136.9 c 0,32.68 22.4,60.8 54.08,68.84 7.03,1.79 14.03,3.66 20.99,5.63 31.36,8.86 64.71,-4.15 81.13,-32.31 l 68.93,-118.22 c 16.69,-28.63 53.43,-38.31 82.06,-21.62 l 155.5,90.67 c 28.63,16.69 38.31,53.43 21.62,82.06 l -69.06,118.44 c -16.47,28.24 -11.25,63.78 12.02,86.73 4.14,4.08 8.24,8.21 12.3,12.38 22.76,23.42 58.23,28.9 86.58,12.67 l 118.98,-68.1 c 28.76,-16.46 65.42,-6.5 81.88,22.26 l 89.43,156.23 c 16.46,28.76 6.49,65.42 -22.27,81.88 l -118.79,68 c -28.38,16.24 -41.58,49.62 -32.92,81.15 1.3,4.73 2.56,9.48 3.77,14.24 8.09,31.72 36.17,54.2 68.91,54.2 h 136.9 c 33.14,0 60,26.87 60,60.01 v 180 c 0,33.14 -26.86,60.01 -60,60.01"
             style="fill:#93b0be;fill-opacity:1;fill-rule:nonzero;stroke:none"
             id="path174"
             inkscape:connector-curvature="0" /></g></g><g
         style="fill:#93b0be;fill-opacity:1"
         transform="scale(0.1)"
         id="g176"><g
           style="fill:#93b0be;fill-opacity:1"
           id="g178"
           clip-path="url(#clipPath182)"><path
             d="m 11819.1,6499.01 c -229.5,0 -415.6,186.08 -415.6,415.63 0,229.54 186.1,415.62 415.6,415.62 229.5,0 415.6,-186.08 415.6,-415.62 0,-229.55 -186.1,-415.63 -415.6,-415.63 z m 743,548.04 h -98.5 c -36.9,0 -68.7,24.07 -80.6,58.95 -8.4,24.69 -18.4,48.64 -29.8,71.75 -16.4,33.12 -10.9,72.78 15.2,98.91 l 69.7,69.71 c 20.1,20.11 20.1,52.71 0,72.82 l -114.4,114.44 c -20.1,20.11 -52.8,20.11 -72.9,0 l -69.7,-69.71 c -26.1,-26.13 -65.8,-31.56 -98.9,-15.18 -23.1,11.43 -47,21.41 -71.7,29.8 -34.9,11.86 -59,43.71 -59,80.55 v 98.52 c 0,28.44 -23,51.49 -51.5,51.49 h -161.8 c -28.4,0 -51.5,-23.05 -51.5,-51.49 v -98.52 c 0,-36.84 -24.1,-68.69 -59,-80.55 -24.6,-8.39 -48.6,-18.37 -71.7,-29.8 -33.1,-16.38 -72.8,-10.95 -98.9,15.18 l -69.7,69.71 c -20.1,20.11 -52.7,20.11 -72.8,0 l -114.5,-114.44 c -20.1,-20.11 -20.1,-52.71 0,-72.82 l 69.7,-69.71 c 26.2,-26.13 31.6,-65.79 15.2,-98.91 -11.4,-23.11 -21.4,-47.06 -29.8,-71.75 -11.9,-34.88 -43.7,-58.95 -80.5,-58.95 h -98.6 c -28.4,0 -51.5,-23.06 -51.5,-51.5 v -161.83 c 0,-28.44 23.1,-51.49 51.5,-51.49 h 98.6 c 36.8,0 68.6,-24.08 80.5,-58.96 8.4,-24.69 18.4,-48.64 29.8,-71.75 16.4,-33.12 11,-72.78 -15.2,-98.9 l -69.7,-69.72 c -20.1,-20.1 -20.1,-52.71 0,-72.82 l 114.5,-114.43 c 20.1,-20.11 52.7,-20.11 72.8,0 l 69.7,69.71 c 26.1,26.13 65.8,31.55 98.9,15.17 23.1,-11.43 47.1,-21.4 71.7,-29.8 34.9,-11.85 59,-43.71 59,-80.55 v -98.52 c 0,-28.44 23.1,-51.49 51.5,-51.49 h 161.8 c 28.5,0 51.5,23.05 51.5,51.49 v 98.52 c 0,36.84 24.1,68.7 59,80.55 24.7,8.4 48.6,18.37 71.7,29.8 33.1,16.38 72.8,10.96 98.9,-15.17 l 69.7,-69.71 c 20.1,-20.11 52.8,-20.11 72.9,0 l 114.4,114.43 c 20.1,20.11 20.1,52.72 0,72.82 l -69.7,69.72 c -26.1,26.12 -31.6,65.78 -15.2,98.9 11.4,23.11 21.4,47.06 29.8,71.75 11.9,34.88 43.7,58.96 80.6,58.96 h 98.5 c 28.4,0 51.5,23.05 51.5,51.49 v 161.83 c 0,28.44 -23.1,51.5 -51.5,51.5"
             style="fill:#93b0be;fill-opacity:1;fill-rule:nonzero;stroke:none"
             id="path190"
             inkscape:connector-curvature="0" /></g></g><g
         style="fill:#93b0be;fill-opacity:1"
         transform="scale(0.1)"
         id="g192"><g
           style="fill:#93b0be;fill-opacity:1"
           id="g194"
           clip-path="url(#clipPath198)"><path
             d="m 11903.7,7895.32 c 504.1,-42.94 899.9,-465.46 899.9,-980.68 0,-56.99 -5.1,-112.76 -14.4,-167.1 l 271.3,-77.47 c 15.5,79.15 23.9,160.87 23.9,244.57 0,670.32 -521.4,1218.56 -1180.7,1262.13 v -281.45"
             style="fill:#93b0be;fill-opacity:1;fill-rule:nonzero;stroke:none"
             id="path206"
             inkscape:connector-curvature="0" /></g></g><g
         style="fill:#93b0be;fill-opacity:1"
         transform="scale(0.1)"
         id="g208"><g
           style="fill:#93b0be;fill-opacity:1"
           id="g210"
           clip-path="url(#clipPath214)"><path
             d="m 10837.5,6986.91 c 35,481.96 416.7,867.5 897,908.41 v 281.45 c -636.2,-42.05 -1143.9,-554.09 -1178.6,-1192.31 l 281.6,2.45"
             style="fill:#93b0be;fill-opacity:1;fill-rule:nonzero;stroke:none"
             id="path222"
             inkscape:connector-curvature="0" /></g></g><g
         style="fill:#93b0be;fill-opacity:1"
         transform="scale(0.1)"
         id="g224"><g
           style="fill:#93b0be;fill-opacity:1"
           id="g226"
           clip-path="url(#clipPath230)"><path
             d="m 12230.9,6020.37 c -125.3,-57.8 -264.7,-90.28 -411.8,-90.28 -511,0 -931,389.39 -979.7,887.64 l -281.3,-2.45 c 50.7,-652.29 595.7,-1165.91 1261,-1165.91 195.1,0 379.9,44.25 544.9,123.12 l -133.1,247.88"
             style="fill:#93b0be;fill-opacity:1;fill-rule:nonzero;stroke:none"
             id="path238"
             inkscape:connector-curvature="0" /></g></g><g
         style="fill:#93b0be;fill-opacity:1"
         transform="scale(0.1)"
         id="g240"><g
           style="fill:#93b0be;fill-opacity:1"
           id="g242"
           clip-path="url(#clipPath246)"><path
             d="m 12746.5,6583.79 c -69.9,-196.05 -200.2,-363.33 -368.6,-479.62 l 133.4,-248.44 c 233.9,153.16 413.7,381.56 505.4,650.89 l -270.2,77.17"
             style="fill:#93b0be;fill-opacity:1;fill-rule:nonzero;stroke:none"
             id="path254"
             inkscape:connector-curvature="0" /></g></g><g
         style="fill:#93b0be;fill-opacity:1"
         transform="scale(0.1)"
         id="g256"><g
           style="fill:#93b0be;fill-opacity:1"
           id="g258"
           clip-path="url(#clipPath262)"><path
             d="m 8543.67,1875.26 c -268.36,0 -485.9,217.54 -485.9,485.9 0,268.35 217.54,485.9 485.9,485.9 268.35,0 485.9,-217.55 485.9,-485.9 0,-268.36 -217.55,-485.9 -485.9,-485.9 z m 868.6,640.7 h -115.18 c -43.07,0 -80.31,28.15 -94.17,68.92 -9.81,28.86 -21.47,56.86 -34.84,83.88 -19.15,38.72 -12.8,85.09 17.74,115.63 l 81.5,81.5 c 23.51,23.51 23.51,61.63 0,85.14 l -133.78,133.78 c -23.51,23.51 -61.63,23.51 -85.14,0 l -81.5,-81.5 c -30.54,-30.54 -76.91,-36.89 -115.63,-17.74 -27.02,13.36 -55.02,25.03 -83.88,34.84 -40.78,13.86 -68.92,51.1 -68.92,94.17 v 115.18 c 0,33.24 -26.95,60.2 -60.2,60.2 h -189.2 c -33.25,0 -60.2,-26.96 -60.2,-60.2 v -115.18 c 0,-43.07 -28.15,-80.31 -68.92,-94.17 -28.86,-9.81 -56.86,-21.48 -83.88,-34.84 -38.72,-19.15 -85.09,-12.8 -115.64,17.74 l -81.49,81.5 c -23.51,23.51 -61.63,23.51 -85.14,0 l -133.78,-133.78 c -23.51,-23.51 -23.51,-61.63 0,-85.14 l 81.5,-81.5 c 30.54,-30.54 36.89,-76.91 17.73,-115.63 -13.36,-27.02 -25.02,-55.02 -34.83,-83.88 -13.86,-40.77 -51.1,-68.92 -94.17,-68.92 h -115.18 c -33.25,0 -60.2,-26.95 -60.2,-60.2 v -189.2 c 0,-33.25 26.95,-60.2 60.2,-60.2 h 115.18 c 43.07,0 80.31,-28.15 94.17,-68.92 9.81,-28.86 21.47,-56.87 34.83,-83.88 19.15,-38.73 12.81,-85.09 -17.73,-115.63 l -81.5,-81.5 c -23.51,-23.51 -23.51,-61.63 0,-85.14 l 133.78,-133.78 c 23.51,-23.51 61.63,-23.51 85.14,0 l 81.49,81.49 c 30.55,30.55 76.92,36.89 115.64,17.74 27.02,-13.36 55.02,-25.02 83.88,-34.83 40.77,-13.86 68.92,-51.11 68.92,-94.17 v -115.18 c 0,-33.25 26.95,-60.2 60.2,-60.2 h 189.2 c 33.25,0 60.2,26.95 60.2,60.2 v 115.18 c 0,43.06 28.14,80.31 68.92,94.17 28.86,9.81 56.86,21.47 83.88,34.83 38.72,19.15 85.09,12.81 115.63,-17.74 l 81.5,-81.49 c 23.51,-23.51 61.63,-23.51 85.14,0 l 133.78,133.78 c 23.51,23.51 23.51,61.63 0,85.14 l -81.5,81.5 c -30.54,30.54 -36.89,76.9 -17.74,115.63 13.37,27.01 25.03,55.02 34.84,83.88 13.86,40.77 51.1,68.92 94.17,68.92 h 115.18 c 33.24,0 60.2,26.95 60.2,60.2 v 189.2 c 0,33.25 -26.96,60.2 -60.2,60.2"
             style="fill:#93b0be;fill-opacity:1;fill-rule:nonzero;stroke:none"
             id="path270"
             inkscape:connector-curvature="0" /></g></g><g
         style="fill:#93b0be;fill-opacity:1"
         transform="scale(0.1)"
         id="g272"><g
           style="fill:#93b0be;fill-opacity:1"
           id="g274"
           clip-path="url(#clipPath278)"><path
             d="m 10118.8,3198.66 h -115.2 c -43.06,0 -80.3,28.15 -94.16,68.93 -9.81,28.86 -21.47,56.86 -34.84,83.88 -19.15,38.72 -12.8,85.08 17.74,115.63 l 81.5,81.5 c 23.51,23.51 23.51,61.62 0,85.13 l -133.78,133.79 c -23.51,23.51 -61.63,23.51 -85.14,0 l -81.5,-81.5 c -30.54,-30.55 -76.91,-36.89 -115.63,-17.74 -27.02,13.36 -55.02,25.02 -83.88,34.84 -40.77,13.86 -68.92,51.1 -68.92,94.17 v 115.17 c 0,33.25 -26.95,60.2 -60.2,60.2 h -189.2 c -33.25,0 -60.2,-26.95 -60.2,-60.2 v -115.17 c 0,-43.07 -28.14,-80.31 -68.92,-94.17 -28.86,-9.82 -56.86,-21.48 -83.88,-34.84 -38.72,-19.15 -85.08,-12.81 -115.63,17.74 l -81.5,81.5 c -23.51,23.51 -61.63,23.51 -85.14,0 l -133.78,-133.79 c -23.51,-23.51 -23.51,-61.62 0,-85.13 l 81.5,-81.5 c 14.06,-14.06 22.37,-31.63 26.05,-50.1 h 4.19 c 89.12,0 163.6,-62.71 182.37,-146.27 81.51,154 243.17,259.04 429.54,259.04 268.35,0 485.9,-217.55 485.9,-485.91 0,-179.6 -97.71,-336.05 -242.61,-420.16 62.48,-30.36 106,-93.9 106,-167.94 v -26.64 c 27.03,1.15 53.91,-7.37 73.94,-27.41 l 81.5,-81.5 c 23.51,-23.51 61.63,-23.51 85.14,0 L 9973.84,2454 c 23.51,23.51 23.51,61.62 0,85.13 l -81.5,81.5 c -30.54,30.55 -36.89,76.91 -17.74,115.64 13.37,27.01 25.03,55.01 34.84,83.87 13.86,40.78 51.1,68.92 94.16,68.92 h 115.2 c 33.2,0 60.2,26.96 60.2,60.21 v 189.19 c 0,33.25 -27,60.2 -60.2,60.2"
             style="fill:#93b0be;fill-opacity:1;fill-rule:nonzero;stroke:none"
             id="path286"
             inkscape:connector-curvature="0" /></g></g><g
         style="fill:#93b0be;fill-opacity:1"
         transform="scale(0.1)"
         id="g288"><g
           style="fill:#93b0be;fill-opacity:1"
           id="g290"
           clip-path="url(#clipPath294)"><path
             d="m 2719.31,2387.88 c -84.31,33.19 -179.56,-8.25 -212.75,-92.56 -33.19,-84.31 8.25,-179.56 92.56,-212.75 84.3,-33.18 179.55,8.25 212.74,92.56 33.19,84.31 -8.25,179.56 -92.55,212.75"
             style="fill:#93b0be;fill-opacity:1;fill-rule:nonzero;stroke:none"
             id="path302"
             inkscape:connector-curvature="0" /></g></g><g
         style="fill:#93b0be;fill-opacity:1"
         transform="scale(0.1)"
         id="g304"><g
           style="fill:#93b0be;fill-opacity:1"
           id="g306"
           clip-path="url(#clipPath310)"><path
             d="m 2005.25,2737.98 c -115.23,0 -208.64,-93.41 -208.64,-208.64 0,-115.23 93.41,-208.64 208.64,-208.64 115.23,0 208.64,93.41 208.64,208.64 0,115.23 -93.41,208.64 -208.64,208.64"
             style="fill:#93b0be;fill-opacity:1;fill-rule:nonzero;stroke:none"
             id="path318"
             inkscape:connector-curvature="0" /></g></g><g
         style="fill:#93b0be;fill-opacity:1"
         transform="scale(0.1)"
         id="g320"><g
           style="fill:#93b0be;fill-opacity:1"
           id="g322"
           clip-path="url(#clipPath326)"><path
             d="m 1606.43,2569.96 c 0,14.27 11.57,25.85 25.85,25.85 h 49.45 c 18.5,0 34.49,12.08 40.44,29.59 4.21,12.39 9.22,24.42 14.96,36.02 8.22,16.62 5.5,36.53 -7.62,49.65 l -34.99,34.99 c -10.1,10.1 -10.1,26.47 0,36.56 l 57.44,57.45 c 10.1,10.09 26.46,10.09 36.56,0 l 34.99,-35 c 13.12,-13.12 33.03,-15.84 49.65,-7.62 11.61,5.74 23.63,10.75 36.02,14.96 17.51,5.95 29.6,21.94 29.6,40.44 v 49.45 c 0,14.28 11.57,25.85 25.85,25.85 h 81.23 c 14.28,0 25.85,-11.57 25.85,-25.85 v -49.45 c 0,-18.5 12.09,-34.49 29.6,-40.44 12.39,-4.21 24.41,-9.22 36.02,-14.96 16.62,-8.22 36.53,-5.5 49.65,7.62 l 34.99,35 c 10.1,10.09 26.46,10.09 36.56,0 l 57.45,-57.45 c 10.09,-10.09 10.09,-26.46 0,-36.56 l -35,-34.99 c -13.12,-13.12 -15.84,-33.03 -7.62,-49.65 5.74,-11.6 10.75,-23.63 14.96,-36.02 5.95,-17.51 21.95,-29.59 40.44,-29.59 h 49.45 c 14.28,0 25.85,-11.58 25.85,-25.85 v -81.24 c 0,-14.28 -11.57,-25.85 -25.85,-25.85 h -49.45 c -18.49,0 -34.49,-12.09 -40.44,-29.6 -4.21,-12.39 -9.22,-24.41 -14.96,-36.01 -8.22,-16.63 -5.49,-36.54 7.62,-49.66 l 35,-34.99 c 10.09,-10.09 10.09,-26.46 0,-36.56 l -57.45,-57.44 c -10.1,-10.1 -26.46,-10.1 -36.56,0 l -34.99,34.99 c -13.12,13.12 -33.03,15.84 -49.65,7.62 -11.61,-5.74 -23.63,-10.74 -36.02,-14.96 -17.51,-5.95 -29.6,-21.94 -29.6,-40.43 v -49.46 c 0,-14.28 -11.57,-25.85 -25.85,-25.85 h -81.23 c -14.28,0 -25.85,11.57 -25.85,25.85 v 49.46 c 0,18.49 -12.09,34.48 -29.6,40.43 -12.39,4.22 -24.41,9.22 -36.02,14.96 -16.62,8.22 -36.53,5.5 -49.65,-7.62 l -34.99,-34.99 c -10.1,-10.1 -26.46,-10.1 -36.56,0 l -57.44,57.44 c -10.1,10.1 -10.1,26.47 0,36.56 l 34.99,34.99 c 13.12,13.12 15.84,33.03 7.62,49.66 -5.74,11.6 -10.75,23.62 -14.96,36.01 -5.95,17.51 -21.94,29.6 -40.44,29.6 h -49.45 c -14.28,0 -25.85,11.57 -25.85,25.85 z m 835.23,-192.92 c 13.53,-5.32 28.71,-1.09 38.11,10 6.65,7.86 13.78,15.21 21.32,22.05 10.8,9.8 14.55,25.15 8.72,38.52 l -15.52,35.68 c -4.48,10.3 0.24,22.27 10.53,26.75 l 58.58,25.48 c 10.29,4.48 22.27,-0.23 26.74,-10.53 l 15.53,-35.68 c 5.82,-13.37 19.6,-21.1 34.13,-19.87 10.14,0.85 20.38,1.05 30.66,0.57 14.53,-0.69 27.98,7.53 33.31,21.06 l 14.24,36.18 c 4.11,10.45 15.91,15.58 26.35,11.47 l 59.44,-23.4 c 10.45,-4.11 15.58,-15.91 11.47,-26.36 l -14.24,-36.18 c -5.33,-13.53 -1.09,-28.71 10,-38.11 7.86,-6.65 15.21,-13.78 22.05,-21.32 9.79,-10.81 25.14,-14.55 38.52,-8.73 l 35.68,15.53 c 10.3,4.48 22.27,-0.24 26.74,-10.53 l 25.49,-58.58 c 4.48,-10.29 -0.24,-22.27 -10.53,-26.75 l -35.68,-15.52 c -13.37,-5.82 -21.1,-19.6 -19.87,-34.13 0.85,-10.14 1.05,-20.38 0.56,-30.66 -0.68,-14.53 7.54,-27.98 21.06,-33.3 l 36.19,-14.25 c 10.44,-4.11 15.58,-15.91 11.46,-26.36 l -23.4,-59.44 c -4.1,-10.44 -15.91,-15.57 -26.35,-11.46 l -36.18,14.24 c -13.53,5.33 -28.72,1.09 -38.11,-10 -6.66,-7.86 -13.78,-15.21 -21.32,-22.05 -10.81,-9.8 -14.55,-25.14 -8.73,-38.52 l 15.52,-35.68 c 4.48,-10.3 -0.24,-22.27 -10.53,-26.75 l -58.58,-25.48 c -10.29,-4.48 -22.26,0.23 -26.74,10.53 l -15.52,35.68 c -5.82,13.38 -19.6,21.1 -34.14,19.88 -10.14,-0.86 -20.38,-1.06 -30.66,-0.57 -14.52,0.68 -27.97,-7.54 -33.3,-21.07 l -14.24,-36.18 c -4.11,-10.45 -15.92,-15.58 -26.36,-11.47 l -59.44,23.4 c -10.45,4.11 -15.58,15.91 -11.47,26.36 l 14.25,36.19 c 5.32,13.52 1.09,28.71 -10.01,38.1 -7.85,6.66 -15.21,13.78 -22.04,21.32 -9.8,10.81 -25.15,14.55 -38.52,8.73 l -35.69,-15.52 c -10.29,-4.48 -22.26,0.23 -26.74,10.53 l -25.48,58.57 c -4.48,10.3 0.23,22.27 10.53,26.75 l 35.68,15.52 c 13.37,5.82 21.1,19.6 19.87,34.14 -0.85,10.14 -1.05,20.38 -0.57,30.66 0.69,14.52 -7.53,27.97 -21.06,33.3 l -36.18,14.24 c -10.45,4.11 -15.58,15.91 -11.47,26.36 l 23.4,59.44 c 4.11,10.44 15.91,15.58 26.36,11.47 z m -127.17,-619.62 h 971.57 v 977.19 l -46.31,52.8 -925.25,905.84 -931.05,-911.19 c -13.49,-11.11 -27.01,-22.29 -40.54,-33.51 v -991.13 h 971.58"
             style="fill:#93b0be;fill-opacity:1;fill-rule:nonzero;stroke:none"
             id="path334"
             inkscape:connector-curvature="0" /></g></g><g
         style="fill:#93b0be;fill-opacity:1"
         transform="scale(0.1)"
         id="g336"><g
           style="fill:#93b0be;fill-opacity:1"
           id="g338"
           clip-path="url(#clipPath342)"><path
             d="m 1300.25,2878.71 1014.25,992.98 1019.51,-998.38 36.87,-42.04 h 346.19 L 2314.49,4175.41 911.91,2831.27 h 331.26 c 30.44,25.42 50.72,42.19 57.08,47.44"
             style="fill:#93b0be;fill-opacity:1;fill-rule:nonzero;stroke:none"
             id="path350"
             inkscape:connector-curvature="0" /></g></g><g
         style="fill:#93b0be;fill-opacity:1"
         transform="scale(0.1)"
         id="g352"><g
           style="fill:#93b0be;fill-opacity:1"
           id="g354"
           clip-path="url(#clipPath358)"><path
             d="m 11904.3,2387.47 c 0,-256.28 -207.8,-464.03 -464,-464.03 -256.3,0 -464.1,207.75 -464.1,464.03 0,256.27 207.8,464.02 464.1,464.02 45.9,0 90.3,-6.92 132.2,-19.38 l 91.3,171.08 c -12.2,-21.16 -37.1,-31.01 -60.6,-24.55 -3.5,0.97 -7.1,1.91 -10.6,2.81 -23.7,6.04 -40.4,26.99 -40.4,51.41 v 102.12 c 0,24.73 -20.1,44.77 -44.8,44.77 h -134.3 c -24.7,0 -44.8,-20.04 -44.8,-44.77 v -102.13 c 0,-24.37 -16.7,-45.35 -40.3,-51.35 -5.2,-1.33 -10.5,-2.73 -15.6,-4.2 -23.4,-6.61 -48.3,3.1 -60.6,24.11 l -51.4,88.19 c -12.4,21.36 -39.9,28.58 -61.2,16.12 l -116,-67.63 c -21.4,-12.46 -28.6,-39.86 -16.1,-61.22 l 51.5,-88.36 c 12.3,-21.06 8.4,-47.57 -9,-64.69 -3.1,-3.05 -6.1,-6.13 -9.2,-9.24 -17,-17.47 -43.4,-21.56 -64.6,-9.45 l -88.7,50.8 c -21.5,12.28 -48.8,4.84 -61.1,-16.61 l -66.7,-116.54 c -12.3,-21.46 -4.9,-48.81 16.6,-61.09 l 88.6,-50.72 c 21.2,-12.12 31,-37.02 24.6,-60.54 -1,-3.53 -1.9,-7.07 -2.8,-10.62 -6.1,-23.67 -27,-40.44 -51.4,-40.44 h -102.2 c -24.7,0 -44.7,-20.04 -44.7,-44.76 v -134.29 c 0,-24.72 20,-44.76 44.7,-44.76 h 102.2 c 24.3,0 45.3,-16.71 51.3,-40.34 1.3,-5.24 2.7,-10.46 4.2,-15.65 6.6,-23.4 -3.1,-48.28 -24.1,-60.53 l -88.2,-51.42 c -21.3,-12.45 -28.6,-39.86 -16.1,-61.22 l 67.6,-116 c 12.5,-21.36 39.9,-28.58 61.2,-16.13 l 88.4,51.52 c 21.1,12.28 47.6,8.39 64.7,-8.97 3,-3.09 6.1,-6.15 9.2,-9.17 17.5,-16.99 21.6,-43.44 9.5,-64.59 l -50.8,-88.76 c -12.3,-21.46 -4.9,-48.81 16.6,-61.09 l 116.5,-66.7 c 21.5,-12.29 48.8,-4.85 61.1,16.61 l 50.8,88.62 c 12.1,21.16 37,31.01 60.5,24.55 3.5,-0.97 7.1,-1.9 10.6,-2.81 23.7,-6.04 40.4,-26.99 40.4,-51.41 v -102.12 c 0,-24.73 20.1,-44.77 44.8,-44.77 h 134.3 c 24.7,0 44.8,20.04 44.8,44.77 v 102.13 c 0,24.37 16.7,45.35 40.3,51.35 5.2,1.33 10.5,2.73 15.7,4.2 23.4,6.61 48.2,-3.1 60.5,-24.1 l 51.4,-88.2 c 12.5,-21.36 39.9,-28.57 61.2,-16.12 l 116,67.64 c 21.4,12.45 28.6,39.85 16.1,61.21 l -51.5,88.36 c -12.3,21.06 -8.4,47.57 9,64.7 3.1,3.04 6.1,6.12 9.2,9.23 17,17.47 43.4,21.56 64.6,9.46 l 88.7,-50.81 c 21.5,-12.28 48.8,-4.84 61.1,16.61 l 66.7,116.54 c 12.3,21.46 4.9,48.81 -16.6,61.09 l -88.6,50.72 c -21.2,12.12 -31,37.02 -24.6,60.54 1,3.53 1.9,7.07 2.8,10.63 6.1,23.66 27,40.43 51.4,40.43 h 102.2 c 24.7,0 44.7,20.04 44.7,44.76 v 134.29 c 0,24.72 -20,44.76 -44.7,44.76 h -102.2 c -24.3,0 -45.3,16.71 -51.3,40.34 -1.3,5.24 -2.7,10.46 -4.2,15.66 -6.6,23.4 3.1,48.27 24.1,60.52 l 88.2,51.42 c 21.3,12.46 28.6,39.86 16.1,61.22 l -67.6,116 c -12.5,21.36 -39.9,28.58 -61.2,16.13 l -88.4,-51.52 c -21.1,-12.28 -47.6,-8.39 -64.7,8.97 -3,3.09 -6.1,6.15 -9.2,9.17 -1.9,1.77 -2.9,4 -4.4,5.96 l -75.2,-139.07 c 72.3,-81.81 116.5,-188.97 116.5,-306.7"
             style="fill:#93b0be;fill-opacity:1;fill-rule:nonzero;stroke:none"
             id="path366"
             inkscape:connector-curvature="0" /></g></g><g
         style="fill:#93b0be;fill-opacity:1"
         transform="scale(0.1)"
         id="g368"><g
           style="fill:#93b0be;fill-opacity:1"
           id="g370"
           clip-path="url(#clipPath374)"><path
             d="m 12865.2,2681.71 c -24.7,0 -48.5,-3.37 -71.4,-9.09 l -435.5,693.39 c 61.1,53.92 99.8,132.6 99.8,220.51 0,162.51 -131.7,294.25 -294.2,294.25 -162.5,0 -294.2,-131.74 -294.2,-294.25 0,-74.13 27.6,-141.67 72.8,-193.41 l -395.3,-731.73 c -33.2,12.96 -69.2,20.33 -106.9,20.33 -162.6,0 -294.3,-131.74 -294.3,-294.24 0,-162.51 131.7,-294.25 294.3,-294.25 162.5,0 294.2,131.74 294.2,294.25 0,74.77 -28.1,142.81 -74.1,194.72 l 395,730.99 c 33.6,-13.35 70.1,-20.91 108.5,-20.91 25.1,0 49.4,3.49 72.6,9.41 l 435.2,-692.89 c -61.6,-53.93 -100.8,-132.98 -100.8,-221.32 0,-162.51 131.8,-294.25 294.3,-294.25 162.5,0 294.2,131.74 294.2,294.25 0,162.5 -131.7,294.24 -294.2,294.24"
             style="fill:#93b0be;fill-opacity:1;fill-rule:nonzero;stroke:none"
             id="path382"
             inkscape:connector-curvature="0" /></g></g></g></g></svg>