<?xml version="1.0" encoding="UTF-8" standalone="no"?>
<!-- Created with Inkscape (http://www.inkscape.org/) -->

<svg
   xmlns:dc="http://purl.org/dc/elements/1.1/"
   xmlns:cc="http://creativecommons.org/ns#"
   xmlns:rdf="http://www.w3.org/1999/02/22-rdf-syntax-ns#"
   xmlns:svg="http://www.w3.org/2000/svg"
   xmlns="http://www.w3.org/2000/svg"
   xmlns:sodipodi="http://sodipodi.sourceforge.net/DTD/sodipodi-0.dtd"
   xmlns:inkscape="http://www.inkscape.org/namespaces/inkscape"
   version="1.1"
   id="svg2"
   inkscape:version="0.91+devel r"
   xml:space="preserve"
   width="1602.8348"
   height="1178.9186"
   viewBox="0 0 1602.8348 1178.9185"
   sodipodi:docname="simpl4-cloud.svg"><metadata
     id="metadata8"><rdf:RDF><cc:Work
         rdf:about=""><dc:format>image/svg+xml</dc:format><dc:type
           rdf:resource="http://purl.org/dc/dcmitype/StillImage" /><dc:title></dc:title></cc:Work></rdf:RDF></metadata><defs
     id="defs6"><clipPath
       clipPathUnits="userSpaceOnUse"
       id="clipPath184"><path
         d="m 7834.96,1951.53 h -186.83 c -2.37,0 -4.6,0.87 -6.57,2.37 1.9,-8.18 6.82,-14.01 12.69,-14.01 h 174.61 c 5.85,0 10.79,5.83 12.69,14.01 -1.97,-1.5 -4.23,-2.37 -6.59,-2.37"
         id="path182"
         inkscape:connector-curvature="0" /></clipPath><radialGradient
       fx="0"
       fy="0"
       cx="0"
       cy="0"
       r="1"
       gradientUnits="userSpaceOnUse"
       gradientTransform="matrix(226.7455,0,0,-226.7455,1720.1087,747.46826)"
       spreadMethod="pad"
       id="radialGradient3152"><stop
         style="stop-opacity:1;stop-color:#ffffff"
         offset="0"
         id="stop3148" /><stop
         style="stop-opacity:1;stop-color:#d3d4d3"
         offset="1"
         id="stop3150" /></radialGradient></defs><sodipodi:namedview
     pagecolor="#ffffff"
     bordercolor="#666666"
     borderopacity="1"
     objecttolerance="10"
     gridtolerance="10"
     guidetolerance="10"
     inkscape:pageopacity="0"
     inkscape:pageshadow="2"
     inkscape:window-width="2859"
     inkscape:window-height="1659"
     inkscape:document-units="px"
     id="namedview4"
     showgrid="false"
     fit-margin-top="0"
     fit-margin-left="0"
     fit-margin-right="0"
     fit-margin-bottom="0"
     inkscape:zoom="0.84150919"
     inkscape:cx="801.41742"
     inkscape:cy="623.07065"
     inkscape:window-x="0"
     inkscape:window-y="0"
     inkscape:window-maximized="0"
     inkscape:current-layer="g10" /><g
     id="g10"
     inkscape:groupmode="layer"
     inkscape:label="ink_ext_XXXXXX"
     transform="matrix(1.3333333,0,0,-1.3333333,-124.12506,1228.1066)"><path
       inkscape:connector-curvature="0"
       id="path42"
       style="fill:#3c2016;fill-opacity:1;fill-rule:nonzero;stroke:none;stroke-width:0.1"
       d="m 1198.55,831.954 c 3.48,6.002 3.46,18.594 3.46,22.082 0,22.507 -18.64,40.752 -41.63,40.752 -22.99,0 -43.43,-18.125 -43.43,-40.631 0,-4.065 0,-19.541 3.43,-22.203 h 78.17" /><path
       inkscape:connector-curvature="0"
       id="path44"
       style="fill:#cfd8dc;fill-opacity:1;fill-rule:nonzero;stroke:none;stroke-width:0.1"
       d="m 1104.84,743.45 c 0,0 8.56,69.737 55.04,69.737 46.48,0 51.32,-65.745 51.32,-65.745 0,0 -13.97,-22.527 -53.18,-22.527 -39.21,0 -53.18,18.535 -53.18,18.535" /><path
       inkscape:connector-curvature="0"
       id="path46"
       style="fill:#f9c08f;fill-opacity:1;fill-rule:nonzero;stroke:none;stroke-width:0.1"
       d="m 1200.8,846.816 c -1.69,21.287 -19.48,38.039 -41.2,38.039 -21.83,0 -39.69,-16.916 -41.23,-38.351 -0.33,-6.095 0.4,-10.629 1.54,-14.59 5.02,-17.187 20.88,-29.747 39.69,-29.747 18.63,0 34.39,12.333 39.55,29.283 1.47,7.321 1.65,11.712 1.65,15.366" /><path
       inkscape:connector-curvature="0"
       id="path48"
       style="fill:#f6a663;fill-opacity:1;fill-rule:nonzero;stroke:none;stroke-width:0.1"
       d="m 1199.15,838.823 c -5.16,-16.949 -20.92,-29.283 -39.55,-29.283 -18.81,0 -34.67,12.561 -39.69,29.748 -0.68,2.383 -1.22,4.981 -1.46,7.995 -0.03,-0.26 -0.06,-0.518 -0.08,-0.779 -0.33,-6.095 0.4,-10.629 1.54,-14.59 5.02,-17.187 20.88,-29.747 39.69,-29.747 18.63,0 34.39,12.333 39.55,29.283 1.47,7.321 1.65,11.712 1.65,15.366 -0.05,0.644 -0.12,1.284 -0.2,1.919 -0.21,-2.644 -0.63,-5.82 -1.45,-9.912" /><path
       inkscape:connector-curvature="0"
       id="path50"
       style="fill:#607d8b;fill-opacity:1;fill-rule:nonzero;stroke:none;stroke-width:0.1"
       d="m 1128.52,874.576 c 0,0 26.71,-30.094 73.6,-28.885 l -7.68,30.898 -31.54,15.64 -34.38,-17.653" /><path
       inkscape:connector-curvature="0"
       id="path54"
       style="fill:#607d8b;fill-opacity:1;fill-rule:nonzero;stroke:none;stroke-width:0.1"
       d="m 896.457,759.535 v 142.60701 c 0,6.692 -5.375,12.139 -11.984,12.139 H 626.744 c -6.604,0 -11.982,-5.447 -11.982,-12.139 V 759.535 h 281.695" /><path
       inkscape:connector-curvature="0"
       id="path56"
       style="fill:#ffffff;fill-opacity:1;fill-rule:nonzero;stroke:none;stroke-width:0.1"
       d="m 621.853,902.886 c -0.014,-0.237 -0.035,-0.471 -0.035,-0.711 V 765.886 h 267.583 v 136.289 c 0,0.24 -0.021,0.474 -0.035,0.711 H 621.853" /><path
       inkscape:connector-curvature="0"
       id="path58"
       style="fill:#de3731;fill-opacity:1;fill-rule:nonzero;stroke:none;stroke-width:0.1"
       d="m 632.638,875.157 h 98.8871 v 17.6203 H 632.638 Z" /><path
       inkscape:connector-curvature="0"
       id="path60"
       style="fill:#cfd8dc;fill-opacity:1;fill-rule:nonzero;stroke:none;stroke-width:0.1"
       d="m 737.034,842.828 h 74.2422 v 16.8059 H 737.034 Z" /><path
       inkscape:connector-curvature="0"
       id="path62"
       style="fill:#cfd8dc;fill-opacity:1;fill-rule:nonzero;stroke:none;stroke-width:0.1"
       d="m 737.034,801.448 h 74.2422 v 16.807 H 737.034 Z" /><path
       inkscape:connector-curvature="0"
       id="path64"
       style="fill:#cfd8dc;fill-opacity:1;fill-rule:nonzero;stroke:none;stroke-width:0.1"
       d="m 737.034,822.661 h 19.2211 v 16.8063 H 737.034 Z" /><path
       inkscape:connector-curvature="0"
       id="path66"
       style="fill:#cfd8dc;fill-opacity:1;fill-rule:nonzero;stroke:none;stroke-width:0.1"
       d="m 764.545,822.661 h 19.2211 v 16.8063 H 764.545 Z" /><path
       inkscape:connector-curvature="0"
       id="path68"
       style="fill:#cfd8dc;fill-opacity:1;fill-rule:nonzero;stroke:none;stroke-width:0.1"
       d="m 792.055,822.661 h 19.2211 v 16.8063 H 792.055 Z" /><path
       inkscape:connector-curvature="0"
       id="path70"
       style="fill:#607d8b;fill-opacity:1;fill-rule:nonzero;stroke:none;stroke-width:0.1"
       d="m 737.034,781.039 h 74.2422 v 16.807 H 737.034 Z" /><path
       inkscape:connector-curvature="0"
       id="path72"
       style="fill:#cfd8dc;fill-opacity:1;fill-rule:nonzero;stroke:none;stroke-width:0.1"
       d="m 727.767,877.752 h -90.821 c -0.423,0 -0.767,0.343 -0.767,0.767 v 10.897 c 0,0.423 0.344,0.767 0.767,0.767 h 90.821 c 0.424,0 0.767,-0.344 0.767,-0.767 v -10.897 c 0,-0.424 -0.343,-0.767 -0.767,-0.767" /><path
       inkscape:connector-curvature="0"
       id="path74"
       style="fill:#92d7f6;fill-opacity:1;fill-rule:nonzero;stroke:none;stroke-width:0.1"
       d="m 636.946,890.037 c -0.342,0 -0.62,-0.279 -0.62,-0.621 v -10.897 c 0,-0.343 0.278,-0.621 0.62,-0.621 h 90.821 c 0.343,0 0.621,0.278 0.621,0.621 v 10.897 c 0,0.342 -0.278,0.621 -0.621,0.621 h -90.821 m 90.821,-12.431 h -90.821 c -0.503,0 -0.912,0.41 -0.912,0.913 v 10.897 c 0,0.503 0.409,0.913 0.912,0.913 h 90.821 c 0.503,0 0.912,-0.41 0.912,-0.913 v -10.897 c 0,-0.503 -0.409,-0.913 -0.912,-0.913" /><path
       inkscape:connector-curvature="0"
       id="path76"
       style="fill:#4182cc;fill-opacity:1;fill-rule:nonzero;stroke:none;stroke-width:0.1"
       d="m 647.34,811.179 c -0.981,0 -1.78,-0.799 -1.78,-1.78 v -7.201 c 0,-0.981 0.799,-1.779 1.78,-1.779 h 68.232 c 0.981,0 1.779,0.798 1.779,1.779 v 7.201 c 0,0.981 -0.798,1.78 -1.779,1.78 H 647.34 m 68.232,-11.271 H 647.34 c -1.263,0 -2.29,1.028 -2.29,2.29 v 7.201 c 0,1.263 1.027,2.29 2.29,2.29 h 68.232 c 1.262,0 2.291,-1.027 2.291,-2.29 v -7.201 c 0,-1.262 -1.029,-2.29 -2.291,-2.29" /><path
       inkscape:connector-curvature="0"
       id="path78"
       style="fill:#4182cc;fill-opacity:1;fill-rule:nonzero;stroke:none;stroke-width:0.1"
       d="m 647.34,792.055 c -0.981,0 -1.78,-0.799 -1.78,-1.78 v -7.201 c 0,-0.981 0.799,-1.779 1.78,-1.779 h 68.232 c 0.981,0 1.779,0.798 1.779,1.779 v 7.201 c 0,0.981 -0.798,1.78 -1.779,1.78 H 647.34 m 68.232,-11.271 H 647.34 c -1.263,0 -2.29,1.028 -2.29,2.29 v 7.201 c 0,1.263 1.027,2.29 2.29,2.29 h 68.232 c 1.262,0 2.291,-1.027 2.291,-2.29 v -7.201 c 0,-1.262 -1.029,-2.29 -2.291,-2.29" /><path
       inkscape:connector-curvature="0"
       id="path80"
       style="fill:#4182cc;fill-opacity:1;fill-rule:nonzero;stroke:none;stroke-width:0.1"
       d="m 676.118,856.568 h 23.8461 v 3.06602 H 676.118 Z" /><path
       inkscape:connector-curvature="0"
       id="path82"
       style="fill:#4182cc;fill-opacity:1;fill-rule:nonzero;stroke:none;stroke-width:0.1"
       d="m 680.546,842.233 h 19.418 v 3.06602 h -19.418 z" /><path
       inkscape:connector-curvature="0"
       id="path84"
       style="fill:#4182cc;fill-opacity:1;fill-rule:nonzero;stroke:none;stroke-width:0.1"
       d="m 676.118,828.243 h 23.8461 v 3.06602 H 676.118 Z" /><path
       inkscape:connector-curvature="0"
       id="path86"
       style="fill:#4182cc;fill-opacity:1;fill-rule:nonzero;stroke:none;stroke-width:0.1"
       d="m 705.421,856.568 h 10.0488 v 3.06602 H 705.421 Z" /><path
       inkscape:connector-curvature="0"
       id="path88"
       style="fill:#4182cc;fill-opacity:1;fill-rule:nonzero;stroke:none;stroke-width:0.1"
       d="m 707.287,842.233 h 8.18281 v 3.06602 H 707.287 Z" /><path
       inkscape:connector-curvature="0"
       id="path90"
       style="fill:#4182cc;fill-opacity:1;fill-rule:nonzero;stroke:none;stroke-width:0.1"
       d="m 705.421,828.243 h 10.0488 v 3.06602 H 705.421 Z" /><path
       inkscape:connector-curvature="0"
       id="path92"
       style="fill:#4182cc;fill-opacity:1;fill-rule:nonzero;stroke:none;stroke-width:0.1"
       d="m 645.287,856.568 h 23.8469 v 3.06602 H 645.287 Z" /><path
       inkscape:connector-curvature="0"
       id="path94"
       style="fill:#4182cc;fill-opacity:1;fill-rule:nonzero;stroke:none;stroke-width:0.1"
       d="m 649.716,842.233 h 26.402 v 3.06602 h -26.402 z" /><path
       inkscape:connector-curvature="0"
       id="path96"
       style="fill:#4182cc;fill-opacity:1;fill-rule:nonzero;stroke:none;stroke-width:0.1"
       d="m 645.287,828.243 h 23.8469 v 3.06602 H 645.287 Z" /><path
       inkscape:connector-curvature="0"
       id="path98"
       style="fill:#4182cc;fill-opacity:1;fill-rule:nonzero;stroke:none;stroke-width:0.1"
       d="m 827.423,856.568 h 23.8461 v 3.06602 H 827.423 Z" /><path
       inkscape:connector-curvature="0"
       id="path100"
       style="fill:#4182cc;fill-opacity:1;fill-rule:nonzero;stroke:none;stroke-width:0.1"
       d="m 827.423,842.233 h 19.418 v 3.06602 h -19.418 z" /><path
       inkscape:connector-curvature="0"
       id="path102"
       style="fill:#4182cc;fill-opacity:1;fill-rule:nonzero;stroke:none;stroke-width:0.1"
       d="m 827.423,828.243 h 23.8461 v 3.06602 H 827.423 Z" /><path
       inkscape:connector-curvature="0"
       id="path104"
       style="fill:#4182cc;fill-opacity:1;fill-rule:nonzero;stroke:none;stroke-width:0.1"
       d="m 858.253,856.568 h 23.8469 v 3.06602 H 858.253 Z" /><path
       inkscape:connector-curvature="0"
       id="path106"
       style="fill:#4182cc;fill-opacity:1;fill-rule:nonzero;stroke:none;stroke-width:0.1"
       d="m 851.269,842.233 h 26.402 v 3.06602 h -26.402 z" /><path
       inkscape:connector-curvature="0"
       id="path108"
       style="fill:#4182cc;fill-opacity:1;fill-rule:nonzero;stroke:none;stroke-width:0.1"
       d="m 858.253,828.243 h 23.8469 v 3.06602 H 858.253 Z" /><path
       inkscape:connector-curvature="0"
       id="path110"
       style="fill:#607d8b;fill-opacity:1;fill-rule:nonzero;stroke:none;stroke-width:0.1"
       d="m 666.698,759.535 h -51.936 v 142.607 c 0,6.692 5.378,12.139 11.982,12.139 h 179.425 l -10.27,-11.395 H 621.853 c -0.014,-0.237 -0.035,-0.471 -0.035,-0.711 V 765.886 h 50.603 l -5.723,-6.351" /><path
       inkscape:connector-curvature="0"
       id="path112"
       style="fill:#ffffff;fill-opacity:1;fill-rule:nonzero;stroke:none;stroke-width:0.1"
       d="m 672.421,765.886 h -50.603 v 136.289 c 0,0.24 0.021,0.474 0.035,0.711 h 174.046 l -38.983,-43.252 h -19.882 v -16.806 h 4.734 l -3.028,-3.361 h -1.706 v -1.892 l -23.33,-25.886 H 647.34 c -1.263,0 -2.29,-1.027 -2.29,-2.29 v -7.201 c 0,-1.262 1.027,-2.29 2.29,-2.29 h 55.745 l -6.618,-7.343 H 647.34 c -1.263,0 -2.29,-1.027 -2.29,-2.29 v -7.201 c 0,-1.262 1.027,-2.29 2.29,-2.29 h 38.509 l -13.428,-14.898 m 33,65.423 v -3.066 h 10.049 v 3.066 h -10.049 m -29.303,0 v -3.066 h 23.846 v 3.066 h -23.846 m -30.831,0 v -3.066 h 23.847 v 3.066 h -23.847 m 62,13.99 v -3.066 h 8.183 v 3.066 h -8.183 m -26.741,0 v -3.066 h 19.418 v 3.066 h -19.418 m -30.83,0 v -3.066 h 26.402 v 3.066 h -26.402 m 55.705,14.335 v -3.066 h 10.049 v 3.066 h -10.049 m -29.303,0 v -3.066 h 23.846 v 3.066 h -23.846 m -30.831,0 v -3.066 h 23.847 v 3.066 h -23.847 m -12.649,33.143 v -17.62 h 98.887 v 17.62 H 632.638 M 686.309,781.295 H 647.34 c -0.981,0 -1.78,0.798 -1.78,1.779 v 7.201 c 0,0.981 0.799,1.78 1.78,1.78 h 48.667 l -9.698,-10.76 m 17.237,19.124 H 647.34 c -0.981,0 -1.78,0.798 -1.78,1.779 v 7.201 c 0,0.981 0.799,1.78 1.78,1.78 h 65.904 l -9.698,-10.76" /><path
       inkscape:connector-curvature="0"
       id="path114"
       style="fill:#e45554;fill-opacity:1;fill-rule:nonzero;stroke:none;stroke-width:0.1"
       d="m 731.525,875.157 h -98.887 v 17.62 h 98.887 v -17.62 m -94.579,15.172 c -0.503,0 -0.912,-0.41 -0.912,-0.913 v -10.897 c 0,-0.503 0.409,-0.913 0.912,-0.913 h 90.821 c 0.503,0 0.912,0.41 0.912,0.913 v 10.897 c 0,0.503 -0.409,0.913 -0.912,0.913 h -90.821" /><path
       inkscape:connector-curvature="0"
       id="path116"
       style="fill:#cfd8dc;fill-opacity:1;fill-rule:nonzero;stroke:none;stroke-width:0.1"
       d="m 741.768,842.828 h -4.734 v 16.806 h 19.882 l -15.148,-16.806" /><path
       inkscape:connector-curvature="0"
       id="path118"
       style="fill:#cfd8dc;fill-opacity:1;fill-rule:nonzero;stroke:none;stroke-width:0.1"
       d="m 737.034,837.575 v 1.892 h 1.706 l -1.706,-1.892" /><path
       inkscape:connector-curvature="0"
       id="path120"
       style="fill:#cfd8dc;fill-opacity:1;fill-rule:nonzero;stroke:none;stroke-width:0.1"
       d="m 727.767,877.898 h -90.821 c -0.342,0 -0.62,0.278 -0.62,0.621 v 10.897 c 0,0.342 0.278,0.621 0.62,0.621 h 90.821 c 0.343,0 0.621,-0.279 0.621,-0.621 v -10.897 c 0,-0.343 -0.278,-0.621 -0.621,-0.621" /><path
       inkscape:connector-curvature="0"
       id="path122"
       style="fill:#607d8b;fill-opacity:1;fill-rule:nonzero;stroke:none;stroke-width:0.1"
       d="m 727.767,877.606 h -90.821 c -0.503,0 -0.912,0.41 -0.912,0.913 v 10.897 c 0,0.503 0.409,0.913 0.912,0.913 h 90.821 c 0.503,0 0.912,-0.41 0.912,-0.913 v -10.897 c 0,-0.503 -0.409,-0.913 -0.912,-0.913 m -90.821,12.431 c -0.342,0 -0.62,-0.279 -0.62,-0.621 v -10.897 c 0,-0.343 0.278,-0.621 0.62,-0.621 h 90.821 c 0.343,0 0.621,0.278 0.621,0.621 v 10.897 c 0,0.342 -0.278,0.621 -0.621,0.621 h -90.821" /><path
       inkscape:connector-curvature="0"
       id="path124"
       style="fill:#579edb;fill-opacity:1;fill-rule:nonzero;stroke:none;stroke-width:0.1"
       d="M 703.085,799.908 H 647.34 c -1.263,0 -2.29,1.028 -2.29,2.29 v 7.201 c 0,1.263 1.027,2.29 2.29,2.29 h 66.364 l -0.46,-0.51 H 647.34 c -0.981,0 -1.78,-0.799 -1.78,-1.78 v -7.201 c 0,-0.981 0.799,-1.779 1.78,-1.779 h 56.206 l -0.461,-0.511" /><path
       inkscape:connector-curvature="0"
       id="path126"
       style="fill:#579edb;fill-opacity:1;fill-rule:nonzero;stroke:none;stroke-width:0.1"
       d="M 685.849,780.784 H 647.34 c -1.263,0 -2.29,1.028 -2.29,2.29 v 7.201 c 0,1.263 1.027,2.29 2.29,2.29 h 49.127 l -0.46,-0.51 H 647.34 c -0.981,0 -1.78,-0.799 -1.78,-1.78 v -7.201 c 0,-0.981 0.799,-1.779 1.78,-1.779 h 38.969 l -0.46,-0.511" /><path
       inkscape:connector-curvature="0"
       id="path128"
       style="fill:#579edb;fill-opacity:1;fill-rule:nonzero;stroke:none;stroke-width:0.1"
       d="m 676.118,856.568 h 23.8461 v 3.06602 H 676.118 Z" /><path
       inkscape:connector-curvature="0"
       id="path130"
       style="fill:#579edb;fill-opacity:1;fill-rule:nonzero;stroke:none;stroke-width:0.1"
       d="m 680.546,842.233 h 19.418 v 3.06602 h -19.418 z" /><path
       inkscape:connector-curvature="0"
       id="path132"
       style="fill:#579edb;fill-opacity:1;fill-rule:nonzero;stroke:none;stroke-width:0.1"
       d="m 676.118,828.243 h 23.8461 v 3.06602 H 676.118 Z" /><path
       inkscape:connector-curvature="0"
       id="path134"
       style="fill:#579edb;fill-opacity:1;fill-rule:nonzero;stroke:none;stroke-width:0.1"
       d="m 705.421,856.568 h 10.0488 v 3.06602 H 705.421 Z" /><path
       inkscape:connector-curvature="0"
       id="path136"
       style="fill:#579edb;fill-opacity:1;fill-rule:nonzero;stroke:none;stroke-width:0.1"
       d="m 707.287,842.233 h 8.18281 v 3.06602 H 707.287 Z" /><path
       inkscape:connector-curvature="0"
       id="path138"
       style="fill:#579edb;fill-opacity:1;fill-rule:nonzero;stroke:none;stroke-width:0.1"
       d="m 705.421,828.243 h 10.0488 v 3.06602 H 705.421 Z" /><path
       inkscape:connector-curvature="0"
       id="path140"
       style="fill:#579edb;fill-opacity:1;fill-rule:nonzero;stroke:none;stroke-width:0.1"
       d="m 645.287,856.568 h 23.8469 v 3.06602 H 645.287 Z" /><path
       inkscape:connector-curvature="0"
       id="path142"
       style="fill:#579edb;fill-opacity:1;fill-rule:nonzero;stroke:none;stroke-width:0.1"
       d="m 649.716,842.233 h 26.402 v 3.06602 h -26.402 z" /><path
       inkscape:connector-curvature="0"
       id="path144"
       style="fill:#579edb;fill-opacity:1;fill-rule:nonzero;stroke:none;stroke-width:0.1"
       d="m 645.287,828.243 h 23.8469 v 3.06602 H 645.287 Z" /><path
       inkscape:connector-curvature="0"
       id="path146"
       style="fill:#cfd8dc;fill-opacity:1;fill-rule:nonzero;stroke:none;stroke-width:0.1"
       d="m 786.58,752.166 c 0,-1.664 -1.349,-3.012 -3.012,-3.012 h -55.915 c -1.664,0 -3.013,1.348 -3.013,3.012 H 574.429 c 2.174,-6.356 9.189,-11.016 17.526,-11.016 h 327.31 c 8.336,0 15.352,4.66 17.526,11.016 H 786.58" /><path
       inkscape:connector-curvature="0"
       id="path148"
       style="fill:#e7e7e7;fill-opacity:1;fill-rule:nonzero;stroke:none;stroke-width:0.1"
       d="m 933.052,752.166 c -3.344,-3.217 -8.274,-5.26 -13.787,-5.26 h -327.31 c -5.513,0 -10.443,2.043 -13.786,5.26 h -3.74 c 2.174,-6.356 9.189,-11.016 17.526,-11.016 h 327.31 c 8.336,0 15.352,4.66 17.526,11.016 h -3.739" /><path
       inkscape:connector-curvature="0"
       id="path150"
       style="fill:#3c3739;fill-opacity:1;fill-rule:nonzero;stroke:none;stroke-width:0.1"
       d="m 758.219,917.66 c 0,-1.156 -0.937,-2.093 -2.092,-2.093 -1.156,0 -2.093,0.937 -2.093,2.093 0,1.156 0.937,2.093 2.093,2.093 1.155,0 2.092,-0.937 2.092,-2.093" /><path
       inkscape:connector-curvature="0"
       id="path152"
       style="fill:#201c1d;fill-opacity:1;fill-rule:nonzero;stroke:none;stroke-width:0.1"
       d="m 757.979,917.66 c 0,-1.023 -0.829,-1.852 -1.852,-1.852 -1.024,0 -1.852,0.829 -1.852,1.852 0,1.022 0.828,1.852 1.852,1.852 1.023,0 1.852,-0.83 1.852,-1.852" /><path
       inkscape:connector-curvature="0"
       id="path154"
       style="fill:#b5b6b7;fill-opacity:1;fill-rule:nonzero;stroke:none;stroke-width:0.1"
       d="m 756.023,918.387 c 0,-0.282 -0.228,-0.511 -0.51,-0.511 -0.282,0 -0.51,0.229 -0.51,0.511 0,0.281 0.228,0.51 0.51,0.51 0.282,0 0.51,-0.229 0.51,-0.51" /><path
       inkscape:connector-curvature="0"
       id="path156"
       style="fill:#b5b6b7;fill-opacity:1;fill-rule:nonzero;stroke:none;stroke-width:0.1"
       d="m 756.283,917.616 c 0,-0.144 -0.116,-0.261 -0.26,-0.261 -0.143,0 -0.26,0.117 -0.26,0.261 0,0.144 0.117,0.26 0.26,0.26 0.144,0 0.26,-0.116 0.26,-0.26" /><path
       inkscape:connector-curvature="0"
       id="path158"
       style="fill:#455a64;fill-opacity:1;fill-rule:nonzero;stroke:none;stroke-width:0.1"
       d="m 381.09,227.684 v 4.945 c 0,2.732 -2.215,4.947 -4.947,4.947 h -30.478 l -8.302,-9.661 h -58.464 c -8.735,0 -13.155,0.817 -15.816,-15.816 l -12.621,-76.658 c -0.322,-3.544 2.469,-6.6 6.028,-6.6 h 119.072 c 3.131,0 5.744,2.387 6.028,5.505 l 12.72,77.753 c 2.896,15.4 -5.723,14.344 -13.22,15.585" /><path
       inkscape:connector-curvature="0"
       id="path160"
       style="fill:#cfd8dc;fill-opacity:1;fill-rule:nonzero;stroke:none;stroke-width:0.1"
       d="m 267.508,209.896 -16.611,-69.23 c -0.545,-3.657 2.288,-6.944 5.986,-6.944 h 118.361 c 3.261,0 5.936,2.584 6.049,5.842 l 7.441,69.186 c 0.124,3.56 -2.728,6.513 -6.29,6.513 H 273.733 c -3.118,0 -5.766,-2.283 -6.225,-5.367" /><path
       inkscape:connector-curvature="0"
       id="path162"
       style="fill:#cfd8dc;fill-opacity:1;fill-rule:nonzero;stroke:none;stroke-width:0.1"
       d="m 255.387,206.62 h 120.178 c 3.051,0 5.525,-2.474 5.525,-5.525 v -66.202 c 0,-3.342 -2.71,-6.052 -6.052,-6.052 H 255.915 c -3.342,0 -6.052,2.71 -6.052,6.052 v 66.203 c 0,3.051 2.473,5.524 5.524,5.524" /><path
       inkscape:connector-curvature="0"
       id="path164"
       style="fill:#607d8b;fill-opacity:1;fill-rule:nonzero;stroke:none;stroke-width:0.1"
       d="m 307.145,128.841 h 16.6633 v 29.4922 H 307.145 Z" /><path
       inkscape:connector-curvature="0"
       id="path166"
       style="fill:#607d8b;fill-opacity:1;fill-rule:nonzero;stroke:none;stroke-width:0.1"
       d="m 293.874,152.012 21.602,37.411 21.603,-37.411 h -43.205" /><path
       inkscape:connector-curvature="0"
       id="path168"
       style="fill:#cccbcc;fill-opacity:1;fill-rule:nonzero;stroke:none;stroke-width:0.1"
       d="m 820.02,45.6109 c 0,-3.55 -2.469,-6.4207 -5.513,-6.4207 h -80.705 c -3.044,0 -5.511,2.8707 -5.511,6.4207 V 197.129 c 0,3.547 2.467,6.422 5.511,6.422 h 80.705 c 3.044,0 5.513,-2.875 5.513,-6.422 V 45.6109 m -5.513,160.2381 h -80.705 c -4.307,0 -7.808,-3.912 -7.808,-8.72 V 45.6109 c 0,-4.8078 3.501,-8.7199 7.808,-8.7199 h 80.705 c 4.31,0 7.81,3.9121 7.81,8.7199 V 197.129 c 0,4.808 -3.5,8.72 -7.81,8.72" /><path
       inkscape:connector-curvature="0"
       id="path170"
       style="fill:#cfd8dc;fill-opacity:1;fill-rule:nonzero;stroke:none;stroke-width:0.1"
       d="M 814.006,60.4051 H 734.305 V 187.987 h 79.701 V 60.4051 m 0.501,143.1459 h -5.826 l -75.295,-0.01 c -3.044,0 -5.508,-2.472 -5.508,-6.012 V 46.0082 c 0,-1.7672 0.609,-3.3633 1.594,-4.5211 -0.139,0.2508 -0.263,0.5129 -0.372,0.782 0.967,-1.8461 2.709,-3.0789 4.702,-3.0789 h 80.705 c 3.044,0 5.513,2.8707 5.513,6.4207 V 197.129 c 0,3.547 -2.469,6.422 -5.513,6.422" /><path
       inkscape:connector-curvature="0"
       id="path172"
       style="fill:#cccbcc;fill-opacity:1;fill-rule:nonzero;stroke:none;stroke-width:0.1"
       d="m 774.154,54.6563 c -3.323,0 -6.02,-2.6954 -6.02,-6.0223 l 0.024,-0.2301 c 0,3.5793 2.751,6.1262 5.999,6.1262 3.249,0 5.995,-2.4129 5.995,-6.1262 l 0.024,0.2301 c 0,3.3269 -2.696,6.0223 -6.022,6.0223" /><path
       inkscape:connector-curvature="0"
       id="path174"
       style="fill:#cccbcc;fill-opacity:1;fill-rule:nonzero;stroke:none;stroke-width:0.1"
       d="m 774.154,53.6699 c -2.908,0 -5.26,-2.3597 -5.26,-5.266 0,-0.3039 0.04,-0.5969 0.086,-0.891 1.17,-0.918 2.074,-1.7777 5.177,-1.7777 2.408,0 3.837,0.7609 5.173,1.7808 0.05,0.2922 0.093,0.584 0.093,0.8879 0,2.9063 -2.361,5.266 -5.269,5.266" /><path
       inkscape:connector-curvature="0"
       id="path176"
       style="fill:#a0a1a4;fill-opacity:1;fill-rule:nonzero;stroke:none;stroke-width:0.1"
       d="m 779.33,47.516 c -1.336,-1.0199 -2.765,-1.7808 -5.173,-1.7808 -3.103,0 -4.007,0.8597 -5.177,1.7777 l -0.015,0.0172 0.025,-0.0961 c 0.023,-0.1301 0.064,-0.2527 0.1,-0.3801 0.05,-0.193 0.103,-0.3867 0.174,-0.5719 0.049,-0.1218 0.109,-0.239 0.166,-0.3558 0.087,-0.1813 0.177,-0.3563 0.281,-0.5199 0.066,-0.1063 0.139,-0.2032 0.212,-0.3051 0.122,-0.1672 0.255,-0.3262 0.393,-0.4742 l 0.236,-0.2438 c 0.158,-0.1512 0.331,-0.2902 0.508,-0.4191 l 0.245,-0.1782 c 0.2,-0.1257 0.41,-0.2339 0.631,-0.3398 l 0.23,-0.1141 c 0.249,-0.1007 0.508,-0.1718 0.773,-0.2379 l 0.184,-0.0511 c 0.327,-0.066 0.667,-0.1051 1.017,-0.1051 l 0.007,0.0031 0.007,-0.0031 0.066,0.0082 c 2.594,0.0352 4.696,1.6781 5.078,4.1551 l 0.019,0.0847 0.033,0.1442 -0.02,-0.0141" /><g
       id="g180"
       clip-path="url(#clipPath184)"
       transform="scale(0.1)"><path
         d="m 7641.56,1953.69 h 199.992 v 0.2109 H 7641.56 Z"
         style="fill:#b4b4b3;fill-opacity:1;fill-rule:nonzero;stroke:none"
         id="path186"
         inkscape:connector-curvature="0" /><path
         d="m 7641.56,1953.46 h 199.992 v 0.2305 H 7641.56 Z"
         style="fill:#b4b4b3;fill-opacity:1;fill-rule:nonzero;stroke:none"
         id="path188"
         inkscape:connector-curvature="0" /><path
         d="m 7641.56,1953.22 h 199.992 v 0.2422 H 7641.56 Z"
         style="fill:#b4b4b3;fill-opacity:1;fill-rule:nonzero;stroke:none"
         id="path190"
         inkscape:connector-curvature="0" /><path
         d="m 7641.56,1952.99 h 199.992 v 0.2266 H 7641.56 Z"
         style="fill:#b4b4b3;fill-opacity:1;fill-rule:nonzero;stroke:none"
         id="path192"
         inkscape:connector-curvature="0" /><path
         d="m 7641.56,1952.76 h 199.992 v 0.2305 H 7641.56 Z"
         style="fill:#b4b4b3;fill-opacity:1;fill-rule:nonzero;stroke:none"
         id="path194"
         inkscape:connector-curvature="0" /><path
         d="m 7641.56,1952.53 h 199.992 v 0.2305 H 7641.56 Z"
         style="fill:#b4b4b3;fill-opacity:1;fill-rule:nonzero;stroke:none"
         id="path196"
         inkscape:connector-curvature="0" /><path
         d="m 7641.56,1952.3 h 199.992 v 0.2305 H 7641.56 Z"
         style="fill:#b4b4b3;fill-opacity:1;fill-rule:nonzero;stroke:none"
         id="path198"
         inkscape:connector-curvature="0" /><path
         d="m 7641.56,1952.07 h 199.992 v 0.2305 H 7641.56 Z"
         style="fill:#b4b4b3;fill-opacity:1;fill-rule:nonzero;stroke:none"
         id="path200"
         inkscape:connector-curvature="0" /><path
         d="m 7641.56,1951.84 h 199.992 v 0.2305 H 7641.56 Z"
         style="fill:#b4b4b3;fill-opacity:1;fill-rule:nonzero;stroke:none"
         id="path202"
         inkscape:connector-curvature="0" /><path
         d="m 7641.56,1951.61 h 199.992 v 0.2305 H 7641.56 Z"
         style="fill:#b4b4b3;fill-opacity:1;fill-rule:nonzero;stroke:none"
         id="path204"
         inkscape:connector-curvature="0" /><path
         d="m 7641.56,1951.37 h 199.992 v 0.2383 H 7641.56 Z"
         style="fill:#b4b4b3;fill-opacity:1;fill-rule:nonzero;stroke:none"
         id="path206"
         inkscape:connector-curvature="0" /><path
         d="m 7641.56,1951.14 h 199.992 v 0.2305 H 7641.56 Z"
         style="fill:#b4b4b3;fill-opacity:1;fill-rule:nonzero;stroke:none"
         id="path208"
         inkscape:connector-curvature="0" /><path
         d="m 7641.56,1950.91 h 199.992 v 0.2305 H 7641.56 Z"
         style="fill:#b4b4b3;fill-opacity:1;fill-rule:nonzero;stroke:none"
         id="path210"
         inkscape:connector-curvature="0" /><path
         d="m 7641.56,1950.68 h 199.992 v 0.2305 H 7641.56 Z"
         style="fill:#b4b4b3;fill-opacity:1;fill-rule:nonzero;stroke:none"
         id="path212"
         inkscape:connector-curvature="0" /><path
         d="m 7641.56,1950.45 h 199.992 v 0.2305 H 7641.56 Z"
         style="fill:#b4b4b3;fill-opacity:1;fill-rule:nonzero;stroke:none"
         id="path214"
         inkscape:connector-curvature="0" /><path
         d="m 7641.56,1950.22 h 199.992 v 0.2305 H 7641.56 Z"
         style="fill:#b4b4b3;fill-opacity:1;fill-rule:nonzero;stroke:none"
         id="path216"
         inkscape:connector-curvature="0" /><path
         d="m 7641.56,1949.99 h 199.992 v 0.2266 H 7641.56 Z"
         style="fill:#b4b4b3;fill-opacity:1;fill-rule:nonzero;stroke:none"
         id="path218"
         inkscape:connector-curvature="0" /><path
         d="m 7641.56,1949.75 h 199.992 v 0.2422 H 7641.56 Z"
         style="fill:#b3b3b2;fill-opacity:1;fill-rule:nonzero;stroke:none"
         id="path220"
         inkscape:connector-curvature="0" /><path
         d="m 7641.56,1949.52 h 199.992 v 0.2305 H 7641.56 Z"
         style="fill:#b3b3b2;fill-opacity:1;fill-rule:nonzero;stroke:none"
         id="path222"
         inkscape:connector-curvature="0" /><path
         d="m 7641.56,1949.29 h 199.992 v 0.2305 H 7641.56 Z"
         style="fill:#b3b3b2;fill-opacity:1;fill-rule:nonzero;stroke:none"
         id="path224"
         inkscape:connector-curvature="0" /><path
         d="m 7641.56,1949.06 h 199.992 v 0.2305 H 7641.56 Z"
         style="fill:#b3b3b2;fill-opacity:1;fill-rule:nonzero;stroke:none"
         id="path226"
         inkscape:connector-curvature="0" /><path
         d="m 7641.56,1948.83 h 199.992 v 0.2266 H 7641.56 Z"
         style="fill:#b3b3b2;fill-opacity:1;fill-rule:nonzero;stroke:none"
         id="path228"
         inkscape:connector-curvature="0" /><path
         d="m 7641.56,1948.6 h 199.992 v 0.2305 H 7641.56 Z"
         style="fill:#b3b3b2;fill-opacity:1;fill-rule:nonzero;stroke:none"
         id="path230"
         inkscape:connector-curvature="0" /><path
         d="m 7641.56,1948.37 h 199.992 v 0.2305 H 7641.56 Z"
         style="fill:#b2b2b1;fill-opacity:1;fill-rule:nonzero;stroke:none"
         id="path232"
         inkscape:connector-curvature="0" /><path
         d="m 7641.56,1948.14 h 199.992 v 0.2305 H 7641.56 Z"
         style="fill:#b2b2b1;fill-opacity:1;fill-rule:nonzero;stroke:none"
         id="path234"
         inkscape:connector-curvature="0" /><path
         d="m 7641.56,1947.9 h 199.992 v 0.2422 H 7641.56 Z"
         style="fill:#b2b2b1;fill-opacity:1;fill-rule:nonzero;stroke:none"
         id="path236"
         inkscape:connector-curvature="0" /><path
         d="m 7641.56,1947.67 h 199.992 v 0.2266 H 7641.56 Z"
         style="fill:#b1b1b0;fill-opacity:1;fill-rule:nonzero;stroke:none"
         id="path238"
         inkscape:connector-curvature="0" /><path
         d="m 7641.56,1947.44 h 199.992 v 0.2305 H 7641.56 Z"
         style="fill:#b1b1b0;fill-opacity:1;fill-rule:nonzero;stroke:none"
         id="path240"
         inkscape:connector-curvature="0" /><path
         d="m 7641.56,1947.21 h 199.992 v 0.2305 H 7641.56 Z"
         style="fill:#b0b1af;fill-opacity:1;fill-rule:nonzero;stroke:none"
         id="path242"
         inkscape:connector-curvature="0" /><path
         d="m 7641.56,1946.98 h 199.992 v 0.2305 H 7641.56 Z"
         style="fill:#b0b0ae;fill-opacity:1;fill-rule:nonzero;stroke:none"
         id="path244"
         inkscape:connector-curvature="0" /><path
         d="m 7641.56,1946.75 h 199.992 v 0.2305 H 7641.56 Z"
         style="fill:#afb0ae;fill-opacity:1;fill-rule:nonzero;stroke:none"
         id="path246"
         inkscape:connector-curvature="0" /><path
         d="m 7641.56,1946.52 h 199.992 v 0.2305 H 7641.56 Z"
         style="fill:#afafad;fill-opacity:1;fill-rule:nonzero;stroke:none"
         id="path248"
         inkscape:connector-curvature="0" /><path
         d="m 7641.56,1946.28 h 199.992 v 0.2383 H 7641.56 Z"
         style="fill:#aeaeae;fill-opacity:1;fill-rule:nonzero;stroke:none"
         id="path250"
         inkscape:connector-curvature="0" /><path
         d="m 7641.56,1946.05 h 199.992 v 0.2305 H 7641.56 Z"
         style="fill:#adaeac;fill-opacity:1;fill-rule:nonzero;stroke:none"
         id="path252"
         inkscape:connector-curvature="0" /><path
         d="m 7641.56,1945.82 h 199.992 v 0.2305 H 7641.56 Z"
         style="fill:#adadab;fill-opacity:1;fill-rule:nonzero;stroke:none"
         id="path254"
         inkscape:connector-curvature="0" /><path
         d="m 7641.56,1945.59 h 199.992 v 0.2305 H 7641.56 Z"
         style="fill:#acacaa;fill-opacity:1;fill-rule:nonzero;stroke:none"
         id="path256"
         inkscape:connector-curvature="0" /><path
         d="m 7641.56,1945.36 h 199.992 v 0.2305 H 7641.56 Z"
         style="fill:#abaaaa;fill-opacity:1;fill-rule:nonzero;stroke:none"
         id="path258"
         inkscape:connector-curvature="0" /><path
         d="m 7641.56,1945.13 h 199.992 v 0.2305 H 7641.56 Z"
         style="fill:#aaa9a9;fill-opacity:1;fill-rule:nonzero;stroke:none"
         id="path260"
         inkscape:connector-curvature="0" /><path
         d="m 7641.56,1944.9 h 199.992 v 0.2305 H 7641.56 Z"
         style="fill:#a9a8a8;fill-opacity:1;fill-rule:nonzero;stroke:none"
         id="path262"
         inkscape:connector-curvature="0" /><path
         d="m 7641.56,1944.67 h 199.992 v 0.2266 H 7641.56 Z"
         style="fill:#a8a7a7;fill-opacity:1;fill-rule:nonzero;stroke:none"
         id="path264"
         inkscape:connector-curvature="0" /><path
         d="m 7641.56,1944.43 h 199.992 v 0.2422 H 7641.56 Z"
         style="fill:#a6a6a5;fill-opacity:1;fill-rule:nonzero;stroke:none"
         id="path266"
         inkscape:connector-curvature="0" /><path
         d="m 7641.56,1944.2 h 199.992 v 0.2305 H 7641.56 Z"
         style="fill:#a4a5a4;fill-opacity:1;fill-rule:nonzero;stroke:none"
         id="path268"
         inkscape:connector-curvature="0" /><path
         d="m 7641.56,1943.97 h 199.992 v 0.2305 H 7641.56 Z"
         style="fill:#a2a2a2;fill-opacity:1;fill-rule:nonzero;stroke:none"
         id="path270"
         inkscape:connector-curvature="0" /><path
         d="m 7641.56,1943.74 h 199.992 v 0.2266 H 7641.56 Z"
         style="fill:#a0a1a1;fill-opacity:1;fill-rule:nonzero;stroke:none"
         id="path272"
         inkscape:connector-curvature="0" /><path
         d="m 7641.56,1943.51 h 199.992 v 0.2305 H 7641.56 Z"
         style="fill:#9f9f9f;fill-opacity:1;fill-rule:nonzero;stroke:none"
         id="path274"
         inkscape:connector-curvature="0" /><path
         d="m 7641.56,1943.28 h 199.992 v 0.2305 H 7641.56 Z"
         style="fill:#9d9e9d;fill-opacity:1;fill-rule:nonzero;stroke:none"
         id="path276"
         inkscape:connector-curvature="0" /><path
         d="m 7641.56,1943.05 h 199.992 v 0.2305 H 7641.56 Z"
         style="fill:#9b9c9c;fill-opacity:1;fill-rule:nonzero;stroke:none"
         id="path278"
         inkscape:connector-curvature="0" /><path
         d="m 7641.56,1942.81 h 199.992 v 0.2422 H 7641.56 Z"
         style="fill:#989a9b;fill-opacity:1;fill-rule:nonzero;stroke:none"
         id="path280"
         inkscape:connector-curvature="0" /><path
         d="m 7641.56,1942.58 h 199.992 v 0.2266 H 7641.56 Z"
         style="fill:#979899;fill-opacity:1;fill-rule:nonzero;stroke:none"
         id="path282"
         inkscape:connector-curvature="0" /><path
         d="m 7641.56,1942.35 h 199.992 v 0.2305 H 7641.56 Z"
         style="fill:#959697;fill-opacity:1;fill-rule:nonzero;stroke:none"
         id="path284"
         inkscape:connector-curvature="0" /><path
         d="m 7641.56,1942.12 h 199.992 v 0.2305 H 7641.56 Z"
         style="fill:#939495;fill-opacity:1;fill-rule:nonzero;stroke:none"
         id="path286"
         inkscape:connector-curvature="0" /><path
         d="m 7641.56,1941.89 h 199.992 v 0.2305 H 7641.56 Z"
         style="fill:#919293;fill-opacity:1;fill-rule:nonzero;stroke:none"
         id="path288"
         inkscape:connector-curvature="0" /><path
         d="m 7641.56,1941.66 h 199.992 v 0.2305 H 7641.56 Z"
         style="fill:#8e9092;fill-opacity:1;fill-rule:nonzero;stroke:none"
         id="path290"
         inkscape:connector-curvature="0" /><path
         d="m 7641.56,1941.43 h 199.992 v 0.2305 H 7641.56 Z"
         style="fill:#8c8e8f;fill-opacity:1;fill-rule:nonzero;stroke:none"
         id="path292"
         inkscape:connector-curvature="0" /><path
         d="m 7641.56,1941.2 h 199.992 v 0.2305 H 7641.56 Z"
         style="fill:#898b8d;fill-opacity:1;fill-rule:nonzero;stroke:none"
         id="path294"
         inkscape:connector-curvature="0" /><path
         d="m 7641.56,1940.96 h 199.992 v 0.2383 H 7641.56 Z"
         style="fill:#85878a;fill-opacity:1;fill-rule:nonzero;stroke:none"
         id="path296"
         inkscape:connector-curvature="0" /><path
         d="m 7641.56,1940.73 h 199.992 v 0.2305 H 7641.56 Z"
         style="fill:#828487;fill-opacity:1;fill-rule:nonzero;stroke:none"
         id="path298"
         inkscape:connector-curvature="0" /><path
         d="m 7641.56,1940.5 h 199.992 v 0.2305 H 7641.56 Z"
         style="fill:#7e8084;fill-opacity:1;fill-rule:nonzero;stroke:none"
         id="path300"
         inkscape:connector-curvature="0" /><path
         d="m 7641.56,1940.27 h 199.992 v 0.2305 H 7641.56 Z"
         style="fill:#7a7e81;fill-opacity:1;fill-rule:nonzero;stroke:none"
         id="path302"
         inkscape:connector-curvature="0" /><path
         d="m 7641.56,1940.04 h 199.992 v 0.2305 H 7641.56 Z"
         style="fill:#777b7d;fill-opacity:1;fill-rule:nonzero;stroke:none"
         id="path304"
         inkscape:connector-curvature="0" /><path
         d="m 7641.56,1939.89 h 199.992 v 0.1484 H 7641.56 Z"
         style="fill:#72767a;fill-opacity:1;fill-rule:nonzero;stroke:none"
         id="path306"
         inkscape:connector-curvature="0" /></g><path
       inkscape:connector-curvature="0"
       id="path308"
       style="fill:#607d8b;fill-opacity:1;fill-rule:nonzero;stroke:none;stroke-width:0.1"
       d="m 732.49,57.4922 h 83.3402 v 133.407 H 732.49 Z" /><path
       inkscape:connector-curvature="0"
       id="path310"
       style="fill:#cfd8dc;fill-opacity:1;fill-rule:nonzero;stroke:none;stroke-width:0.1"
       d="m 744.114,97.016 h 26.3172 v 2.09414 H 744.114 Z" /><path
       inkscape:connector-curvature="0"
       id="path312"
       style="fill:#cfd8dc;fill-opacity:1;fill-rule:nonzero;stroke:none;stroke-width:0.1"
       d="m 744.114,87.2199 h 21.4301 v 2.09531 H 744.114 Z" /><path
       inkscape:connector-curvature="0"
       id="path314"
       style="fill:#cfd8dc;fill-opacity:1;fill-rule:nonzero;stroke:none;stroke-width:0.1"
       d="m 744.114,77.6609 h 26.3172 v 2.09492 H 744.114 Z" /><path
       inkscape:connector-curvature="0"
       id="path316"
       style="fill:#cfd8dc;fill-opacity:1;fill-rule:nonzero;stroke:none;stroke-width:0.1"
       d="m 778.138,97.016 h 26.318 v 2.09414 h -26.318 z" /><path
       inkscape:connector-curvature="0"
       id="path318"
       style="fill:#cfd8dc;fill-opacity:1;fill-rule:nonzero;stroke:none;stroke-width:0.1"
       d="m 770.431,87.2199 h 29.1367 v 2.09531 H 770.431 Z" /><path
       inkscape:connector-curvature="0"
       id="path320"
       style="fill:#cfd8dc;fill-opacity:1;fill-rule:nonzero;stroke:none;stroke-width:0.1"
       d="m 778.138,77.6609 h 26.318 v 2.09492 h -26.318 z" /><path
       inkscape:connector-curvature="0"
       id="path322"
       style="fill:#c82f2a;fill-opacity:1;fill-rule:nonzero;stroke:none;stroke-width:0.1"
       d="m 798.902,155.056 c -1.904,6.364 -6.13,11.713 -11.903,15.063 l 3.975,6.848 c 7.522,-4.364 13.031,-11.341 15.514,-19.642 l -7.586,-2.269" /><path
       inkscape:connector-curvature="0"
       id="path324"
       style="fill:#f4b40c;fill-opacity:1;fill-rule:nonzero;stroke:none;stroke-width:0.1"
       d="m 749.262,155.919 -7.502,2.535 c 4.587,13.574 17.3,22.85 31.635,23.082 6.176,0.096 12.259,-1.479 17.58,-4.569 l -3.977,-6.848 c -4.076,2.366 -8.769,3.597 -13.474,3.499 -10.995,-0.178 -20.745,-7.29 -24.262,-17.699" /><path
       inkscape:connector-curvature="0"
       id="path326"
       style="fill:#79d3f6;fill-opacity:1;fill-rule:nonzero;stroke:none;stroke-width:0.1"
       d="m 773.938,113.612 c -18.476,0 -33.653,14.875 -33.954,33.414 -0.063,3.91 0.535,7.755 1.776,11.428 l 7.502,-2.535 c -0.951,-2.813 -1.409,-5.763 -1.36,-8.765 0.23,-14.216 11.87,-25.624 26.037,-25.624 0.142,0 0.284,0.001 0.427,0.004 6.299,0.102 12.342,2.479 17.016,6.693 l 5.303,-5.878 c -6.095,-5.498 -13.976,-8.6 -22.191,-8.733 -0.185,-0.003 -0.373,-0.004 -0.556,-0.004" /><path
       inkscape:connector-curvature="0"
       id="path328"
       style="fill:#cfd8dc;fill-opacity:1;fill-rule:nonzero;stroke:none;stroke-width:0.1"
       d="m 796.685,122.349 -5.303,5.879 c 5.59,5.043 8.727,12.249 8.605,19.77 -0.039,2.406 -0.405,4.78 -1.085,7.058 l 7.586,2.269 c 0.888,-2.972 1.366,-6.067 1.417,-9.199 0.158,-9.809 -3.932,-19.204 -11.22,-25.777" /><path
       inkscape:connector-curvature="0"
       id="path330"
       style="fill:#c5ecfb;fill-opacity:1;fill-rule:nonzero;stroke:none;stroke-width:0.1"
       d="m 774.285,147.796 c -0.016,0.952 -0.016,0.952 0,0 6.526,0.105 13.052,0.211 19.579,0.317 -0.241,10.955 -9.278,19.675 -20.25,19.497 -11.01,-0.178 -19.791,-9.247 -19.613,-20.258 0.178,-11.01 9.247,-19.79 20.257,-19.612 0.119,0.001 0.233,0.019 0.351,0.023 -0.107,6.561 -0.219,13.502 -0.324,20.033 -1.26,-0.02 -1.26,-0.02 0,0" /><path
       inkscape:connector-curvature="0"
       id="path332"
       style="fill:#2da442;fill-opacity:1;fill-rule:nonzero;stroke:none;stroke-width:0.1"
       d="m 793.871,147.997 -0.007,0.116 c -6.527,-0.106 -13.053,-0.212 -19.579,-0.317 0.105,-6.531 0.217,-13.472 0.324,-20.033 10.843,0.364 19.438,9.343 19.262,20.234" /><path
       inkscape:connector-curvature="0"
       id="path334"
       style="fill:#cfd8dc;fill-opacity:1;fill-rule:nonzero;stroke:none;stroke-width:0.1"
       d="m 732.274,97.2352 v 93.6638 h 0.216 V 97.475 l -0.216,-0.2398" /><path
       inkscape:connector-curvature="0"
       id="path336"
       style="fill:#607d8b;fill-opacity:1;fill-rule:nonzero;stroke:none;stroke-width:0.1"
       d="m 732.49,97.475 v 93.424 h 83.125 v -1.196 l -16.956,-18.812 c -2.23,2.358 -4.811,4.408 -7.685,6.076 h 10e-4 c -5.169,3.001 -11.056,4.573 -17.049,4.573 -0.177,0 -0.354,-0.001 -0.531,-0.004 -14.335,-0.232 -27.048,-9.508 -31.635,-23.082 l 7.502,-2.535 c 3.517,10.409 13.267,17.521 24.262,17.699 0.174,0.004 0.347,0.006 0.521,0.006 4.529,0 9.028,-1.226 12.953,-3.505 l 2.386,4.109 -2.385,-4.109 c 2.397,-1.391 4.527,-3.127 6.335,-5.136 l -4.089,-4.538 c -3.661,4.386 -9.166,7.168 -15.303,7.168 -0.109,0 -0.219,-0.001 -0.328,-0.003 -11.01,-0.178 -19.791,-9.247 -19.613,-20.258 0.11,-6.778 3.589,-12.71 8.816,-16.229 l -4.163,-4.619 c -6.398,4.654 -10.615,12.15 -10.752,20.65 -0.049,3.002 0.409,5.952 1.36,8.765 l -7.502,2.535 c -1.241,-3.673 -1.839,-7.518 -1.776,-11.428 0.175,-10.784 5.383,-20.328 13.348,-26.426 L 732.49,97.475" /><path
       inkscape:connector-curvature="0"
       id="path338"
       style="fill:#d34e4f;fill-opacity:1;fill-rule:nonzero;stroke:none;stroke-width:0.1"
       d="m 793.334,164.983 c -1.808,2.009 -3.938,3.745 -6.335,5.136 l 2.385,4.109 1.591,2.739 c 2.873,-1.668 5.454,-3.718 7.684,-6.076 l -5.325,-5.908" /><path
       inkscape:connector-curvature="0"
       id="path340"
       style="fill:#f6c52a;fill-opacity:1;fill-rule:nonzero;stroke:none;stroke-width:0.1"
       d="m 749.262,155.919 -7.502,2.535 c 4.587,13.574 17.3,22.85 31.635,23.082 0.177,0.003 0.354,0.004 0.531,0.004 5.993,0 11.88,-1.572 17.049,-4.573 v 0 l -1.591,-2.739 -2.386,-4.109 c -3.925,2.279 -8.424,3.505 -12.953,3.505 -0.174,0 -0.347,-0.002 -0.521,-0.006 -10.995,-0.178 -20.745,-7.29 -24.262,-17.699" /><path
       inkscape:connector-curvature="0"
       id="path342"
       style="fill:#91dcf7;fill-opacity:1;fill-rule:nonzero;stroke:none;stroke-width:0.1"
       d="m 753.332,120.6 c -7.965,6.098 -13.173,15.642 -13.348,26.426 -0.063,3.91 0.535,7.755 1.776,11.428 l 7.502,-2.535 c -0.951,-2.813 -1.409,-5.763 -1.36,-8.765 0.137,-8.5 4.354,-15.996 10.752,-20.65 l -5.322,-5.904" /><path
       inkscape:connector-curvature="0"
       id="path344"
       style="fill:#d1f0fc;fill-opacity:1;fill-rule:nonzero;stroke:none;stroke-width:0.1"
       d="m 762.817,131.123 c -5.227,3.519 -8.706,9.451 -8.816,16.229 -0.178,11.011 8.603,20.08 19.613,20.258 0.109,0.002 0.219,0.003 0.328,0.003 6.137,0 11.642,-2.782 15.303,-7.168 l -11.348,-12.591 c -1.205,-0.019 -2.408,-0.039 -3.612,-0.058 v 0 c -0.63,-0.01 -0.945,-0.015 -0.945,-0.015 0,0 0.315,0.005 0.945,0.015 v 0 c 0.02,-1.28 0.041,-2.574 0.062,-3.879 l -11.53,-12.794" /><path
       inkscape:connector-curvature="0"
       id="path346"
       style="fill:#41b966;fill-opacity:1;fill-rule:nonzero;stroke:none;stroke-width:0.1"
       d="m 774.347,143.917 c -0.021,1.305 -0.042,2.599 -0.062,3.879 v 0 c 1.204,0.019 2.407,0.039 3.612,0.058 l -3.55,-3.937" /><path
       inkscape:connector-curvature="0"
       id="path348"
       style="fill:#cfd8dc;fill-opacity:1;fill-rule:nonzero;stroke:none;stroke-width:0.1"
       d="m 949.33,182.804 c -1.527,-1.614 -2.312,-3.932 -1.778,-6.378 l 15.966,-73.054 c 1.198,-5.4849 7.994,-7.465 11.951,-3.4829 l 19.627,19.7509 33.534,-33.6087 c 5.77,-5.7864 15.14,-5.7973 20.93,-0.0231 l 0.05,0.0527 -100.28,96.7431" /><path
       inkscape:connector-curvature="0"
       id="path350"
       style="fill:#e9eae9;fill-opacity:1;fill-rule:nonzero;stroke:none;stroke-width:0.1"
       d="m 1049.58,106.937 -33.62,33.699 17.77,17.883 c 4,4.02 1.89,10.871 -3.68,11.953 l -74.222,14.425 c -2.544,0.494 -4.918,-0.422 -6.498,-2.093 l 100.28,-96.7431 c 5.73,5.777 5.73,15.1071 -0.03,20.8761" /><path
       inkscape:connector-curvature="0"
       id="path352"
       style="fill:#3a8fbc;fill-opacity:1;fill-rule:nonzero;stroke:none;stroke-width:0.1"
       d="M 1197.56,241.345 1166.6,210.386 V 82.4531 h 121.56 V 241.345 h -90.6" /><path
       inkscape:connector-curvature="0"
       id="path354"
       style="fill:#cfd8dc;fill-opacity:1;fill-rule:nonzero;stroke:none;stroke-width:0.1"
       d="m 1192.3,246.868 -30.96,-30.959 V 87.9762 H 1282.9 V 246.868 h -90.6" /><path
       inkscape:connector-curvature="0"
       id="path356"
       style="fill:#f2f2f3;fill-opacity:1;fill-rule:nonzero;stroke:none;stroke-width:0.1"
       d="m 1192.3,215.909 v 30.959 l -30.96,-30.959 h 30.96" /><path
       inkscape:connector-curvature="0"
       id="path358"
       style="fill:#c8c9c9;fill-opacity:1;fill-rule:nonzero;stroke:none;stroke-width:0.1"
       d="m 1161.34,215.909 h 30.96 l -30.96,-19.08 v 19.08" /><path
       inkscape:connector-curvature="0"
       id="path360"
       style="fill:#58c9f4;fill-opacity:1;fill-rule:nonzero;stroke:none;stroke-width:0.1"
       d="m 1215.07,191.305 h 57.5801 v 3.40898 H 1215.07 Z" /><path
       inkscape:connector-curvature="0"
       id="path362"
       style="fill:#58c9f4;fill-opacity:1;fill-rule:nonzero;stroke:none;stroke-width:0.1"
       d="m 1215.07,178.804 h 57.5801 v 3.40898 H 1215.07 Z" /><path
       inkscape:connector-curvature="0"
       id="path364"
       style="fill:#58c9f4;fill-opacity:1;fill-rule:nonzero;stroke:none;stroke-width:0.1"
       d="m 1215.07,166.303 h 57.5801 v 3.40898 H 1215.07 Z" /><path
       inkscape:connector-curvature="0"
       id="path366"
       style="fill:#58c9f4;fill-opacity:1;fill-rule:nonzero;stroke:none;stroke-width:0.1"
       d="m 1215.07,135.932 h 57.5801 v 3.41016 H 1215.07 Z" /><path
       inkscape:connector-curvature="0"
       id="path368"
       style="fill:#58c9f4;fill-opacity:1;fill-rule:nonzero;stroke:none;stroke-width:0.1"
       d="m 1215.07,123.431 h 57.5801 v 3.40977 H 1215.07 Z" /><path
       inkscape:connector-curvature="0"
       id="path370"
       style="fill:#58c9f4;fill-opacity:1;fill-rule:nonzero;stroke:none;stroke-width:0.1"
       d="m 1215.07,110.93 h 35.2102 v 3.41016 H 1215.07 Z" /><path
       inkscape:connector-curvature="0"
       id="path372"
       style="fill:#57c9f4;fill-opacity:1;fill-rule:nonzero;stroke:none;stroke-width:0.1"
       d="m 1185.67,180.183 v 16.761 c -8.72,-0.347 -15.7,-7.512 -15.7,-16.325 0,-9.034 7.32,-16.358 16.36,-16.358 8.88,0 16.1,7.091 16.33,15.922 h -16.99" /><path
       inkscape:connector-curvature="0"
       id="path374"
       style="fill:#cfd8dc;fill-opacity:1;fill-rule:nonzero;stroke:none;stroke-width:0.1"
       d="m 1189.92,183.611 h 15.91 l 0.01,0.218 c 0,8.887 -7.09,16.103 -15.92,16.336 v -16.554" /><path
       inkscape:connector-curvature="0"
       id="path376"
       style="fill:#cfd8dc;fill-opacity:1;fill-rule:nonzero;stroke:none;stroke-width:0.1"
       d="m 1173.54,139.01 c -3.76,-4.137 -5.41,-8.964 -4.68,-14.515 0.59,-4.441 2.61,-8.148 6.06,-11.041 1.44,1.369 2.6,2.996 3.94,4.456 0.31,0.34 0.59,0.706 0.89,1.061 -2.55,2.309 -3.81,5.144 -3.64,8.616 0.19,4.027 3.22,7.791 7.04,8.998 l -2.52,6.973 c -2.69,-0.855 -5.07,-2.328 -7.09,-4.548" /><path
       inkscape:connector-curvature="0"
       id="path378"
       style="fill:#f14635;fill-opacity:1;fill-rule:nonzero;stroke:none;stroke-width:0.1"
       d="m 1195.99,123.814 c -0.18,-0.623 -0.41,-1.231 -0.75,-1.813 -1.74,-3.011 -4.29,-4.775 -7.76,-5.212 -2.05,-0.258 -3.92,0.096 -5.65,0.955 l -2.79,-6.977 c 2.01,-0.926 4.19,-1.43 6.51,-1.509 5.88,-0.201 10.76,2.018 14.49,6.57 1.6,1.95 2.7,4.105 3.31,6.438 l -7.36,1.548" /><path
       inkscape:connector-curvature="0"
       id="path380"
       style="fill:#57c9f4;fill-opacity:1;fill-rule:nonzero;stroke:none;stroke-width:0.1"
       d="m 1203.91,126.513 c -2.46,0.003 -4.92,0.005 -7.38,0.007 -0.11,4.445 -2.07,7.723 -6.13,9.666 -1.18,0.562 -2.46,0.701 -3.72,0.918 0,2.444 0,4.888 0,7.332 3.09,-0.009 5.94,-0.885 8.6,-2.429 1.31,-0.76 2.62,-1.588 3.61,-2.698 2.57,-2.882 4.4,-6.178 4.89,-10.095 0.11,-0.898 0.21,-1.795 0.13,-2.701" /><path
       inkscape:connector-curvature="0"
       id="path384"
       style="fill:none;fill-opacity:1;fill-rule:nonzero;stroke:#607d8b;stroke-width:1.89975005;stroke-opacity:1;stroke-miterlimit:4;stroke-dasharray:none"
       d="m 1174.3787,374.923 c -4.5,0 -8.15,3.658 -8.15,8.152 V 542.61 c 0,4.494 3.65,8.15 8.15,8.15 h 110.27 c 4.5,0 8.15,-3.656 8.15,-8.15 V 383.075 c 0,-4.494 -3.65,-8.152 -8.15,-8.152 h -110.27" /><path
       inkscape:connector-curvature="0"
       id="path386"
       style="fill:#f03d2d;fill-opacity:1;fill-rule:nonzero;stroke:none;stroke-width:0.1"
       d="m 1237.18,541.805 h -15.22 c -0.85,0 -1.54,0.694 -1.54,1.542 0,0.848 0.69,1.543 1.54,1.543 h 15.22 c 0.85,0 1.55,-0.695 1.55,-1.543 0,-0.848 -0.7,-1.542 -1.55,-1.542" /><path
       inkscape:connector-curvature="0"
       id="path388"
       style="fill:#607d8b;fill-opacity:1;fill-rule:nonzero;stroke:none;stroke-width:0.1"
       d="m 1230.41,386.229 c -2.28,0 -4.13,-1.85 -4.13,-4.125 0,-2.275 1.85,-4.125 4.13,-4.125 2.27,0 4.12,1.85 4.12,4.125 0,2.275 -1.85,4.125 -4.12,4.125 z m 0,-10.25 c -3.38,0 -6.13,2.748 -6.13,6.125 0,3.377 2.75,6.125 6.13,6.125 3.38,0 6.12,-2.748 6.12,-6.125 0,-3.377 -2.74,-6.125 -6.12,-6.125" /><path
       inkscape:connector-curvature="0"
       id="path390"
       style="fill:#e7d50a;fill-opacity:1;fill-rule:nonzero;stroke:none;stroke-width:0.1"
       d="m 1178.09,390.155 h 104.63 v 145.373 h -104.63 z" /><path
       inkscape:connector-curvature="0"
       id="path392"
       style="fill:#607d8b;fill-opacity:1;fill-rule:nonzero;stroke:none;stroke-width:0.1"
       d="m 1241.78,426.026 h -22.75 c -1.73,0 -3.16,-1.521 -3.16,-3.371 0,-1.841 1.42,-3.351 3.16,-3.351 h 22.75 c 1.75,0 3.16,1.51 3.17,3.351 -0.01,1.85 -1.43,3.371 -3.17,3.371" /><path
       inkscape:connector-curvature="0"
       id="path394"
       style="fill:#607d8b;fill-opacity:1;fill-rule:nonzero;stroke:none;stroke-width:0.1"
       d="m 1237.82,415.318 h -14.84 c -1.74,0 -3.16,-1.514 -3.16,-3.36 0,-1.853 1.42,-3.371 3.16,-3.371 h 14.84 c 1.75,0 3.16,1.518 3.16,3.371 0.01,1.846 -1.41,3.36 -3.16,3.36" /><path
       inkscape:connector-curvature="0"
       id="path396"
       style="fill:#607d8b;fill-opacity:1;fill-rule:nonzero;stroke:none;stroke-width:0.1"
       d="m 1230.41,511.168 c -17.58,0 -30.84,-13.518 -30.84,-31.444 0,-10.489 6.84,-19.842 6.91,-19.936 l 0.64,-0.853 c 3.05,-4.06 7.65,-10.196 7.65,-14.894 v -2.699 c 0,-5.71 0.78,-7.36 3.49,-7.36 h 23.69 c 2.7,0 3.48,1.65 3.48,7.36 v 2.199 c 0,4.802 4.99,11.246 7.97,15.097 l 0.45,0.579 c 0.07,0.096 7.39,9.73 7.39,20.507 0,17.926 -13.25,31.444 -30.83,31.444 m 12.25,-81.946 h -25.15 c -6.09,0 -6.09,6.136 -6.09,10.197 v 2.865 c 0,4.193 -4.78,10.571 -7.64,14.381 l -0.68,0.915 c -0.32,0.43 -7.81,10.644 -7.81,22.584 0,20.389 15.1,35.763 35.12,35.763 20.02,0 35.11,-15.374 35.11,-35.763 0,-12.268 -8,-22.784 -8.34,-23.225 l -0.48,-0.618 c -2.78,-3.594 -7.96,-10.285 -7.96,-14.568 v -2.334 c 0,-4.061 0,-10.197 -6.08,-10.197" /><path
       inkscape:connector-curvature="0"
       id="path398"
       style="fill:#f03d2d;fill-opacity:1;fill-rule:nonzero;stroke:none;stroke-width:0.1"
       d="m 1238.93,471.184 c -0.01,0.445 -0.03,0.895 -0.04,1.336 -0.05,1.724 -0.9,11.761 4.77,10.486 4.76,-1.069 -0.92,-9.312 -4.73,-11.822 m -22.4,4.327 c -2.01,3.144 -1.64,8.173 3.09,6.067 2.89,-1.287 2.99,-3.748 3.2,-6.294 0.14,-1.801 0.2,-3.598 0.23,-5.403 -2.69,1.178 -4.95,3.141 -6.52,5.63 m 24.21,10.081 c -3.98,-2.469 -3.81,-8.984 -3.74,-13.072 0.02,-0.81 0.04,-1.623 0.08,-2.428 -3.91,-2.064 -7.57,-2.149 -12,-0.952 l -0.11,0.033 c 0.01,1.081 0.03,2.141 0.06,3.209 0.08,3.129 -0.02,6.545 -1.8,9.224 -1.02,1.542 -4.84,3.48 -6.78,2.825 -5.47,-1.87 -2.18,-9.147 0.28,-12.182 1.6,-1.963 3.84,-3.44 6.32,-4.395 -0.03,-5.395 -0.39,-20.095 -0.26,-25.477 h 1.93 c 0.28,5.172 0.21,19.681 0.25,24.87 3.56,-0.955 7.41,-0.895 10.59,0.275 0.52,0.19 1.06,0.408 1.58,0.647 0.16,-3.61 0.4,-7.208 0.6,-10.814 0.1,-1.861 0.11,-13.06 0.16,-14.978 h 2.06 c -0.1,1.327 -0.21,11.931 -0.28,13.226 -0.23,4.496 -0.5,8.985 -0.67,13.493 3.67,2.003 6.5,5.256 8.19,8.948 2.86,6.231 -2.83,9.778 -6.46,7.548" /><path
       inkscape:connector-curvature="0"
       id="path400"
       style="fill:#d7d7d8;fill-opacity:1;fill-rule:nonzero;stroke:none;stroke-width:0.1"
       d="m 1166.17,416.474 v 127.329 c 0,4.562 3.71,8.273 8.27,8.273 h 111.93 c 0.63,0 1.24,-0.077 1.83,-0.211 l -1.13,-1.249 c -0.49,0.095 -1,0.144 -1.53,0.144 h -110.27 c -4.5,0 -8.15,-3.656 -8.15,-8.15 V 417.525 l -0.95,-1.051" /><path
       inkscape:connector-curvature="0"
       id="path404"
       style="fill:#607d8b;fill-opacity:1;fill-rule:nonzero;stroke:none;stroke-width:0.1"
       d="m 1237.18,541.805 h -15.22 c -0.85,0 -1.54,0.694 -1.54,1.542 0,0.848 0.69,1.543 1.54,1.543 h 15.22 c 0.85,0 1.55,-0.695 1.55,-1.543 0,-0.848 -0.7,-1.542 -1.55,-1.542" /><path
       inkscape:connector-curvature="0"
       id="path408"
       style="fill:#607d8b;fill-opacity:1;fill-rule:nonzero;stroke:none;stroke-width:0.1"
       d="m 1203.15,457.506 -0.05,0.074 c -0.32,0.43 -7.81,10.644 -7.81,22.584 0,20.389 15.1,35.763 35.12,35.763 7.55,0 14.39,-2.183 19.99,-5.996 l -3.19,-3.54 c -4.77,3.046 -10.51,4.777 -16.8,4.777 -17.58,0 -30.84,-13.518 -30.84,-31.444 0,-8.715 4.72,-16.646 6.36,-19.133 l -2.78,-3.085" /><path
       inkscape:connector-curvature="0"
       id="path410"
       style="fill:#f25a4f;fill-opacity:1;fill-rule:nonzero;stroke:none;stroke-width:0.1"
       d="m 1216.59,472.42 c -2.44,3.129 -5.51,10.175 -0.14,12.011 0.26,0.09 0.56,0.131 0.89,0.131 2.04,0 5.01,-1.626 5.89,-2.956 0.24,-0.362 0.45,-0.737 0.63,-1.122 l -1.57,-1.748 c -0.4,1.166 -1.15,2.165 -2.67,2.842 -0.78,0.347 -1.44,0.5 -1.99,0.5 -2.8,0 -2.78,-3.941 -1.1,-6.567 0.38,-0.614 0.81,-1.195 1.28,-1.741 l -1.22,-1.35" /><path
       inkscape:connector-curvature="0"
       id="path412"
       style="fill:#607d8b;fill-opacity:0;fill-rule:nonzero;stroke:#607d8b;stroke-width:1.59975004;stroke-opacity:1;stroke-miterlimit:4;stroke-dasharray:none"
       d="m 482.75,567.884 c 0,11.662 -5.061,15.231 -15.449,15.231 H 108.543 c -10.3895,0 -15.4492,-4.41 -15.4492,-16.071 V 360.396 H 482.75 v 207.488" /><path
       inkscape:connector-curvature="0"
       id="path414"
       style="fill:#cfd8dc;fill-opacity:1;fill-rule:nonzero;stroke:none;stroke-width:0.1"
       d="m 93.0938,360.396 v -5.595 c 0,-11.66 5.0597,-16.073 15.4492,-16.073 h 358.758 c 10.388,0 15.449,5.253 15.449,16.913 v 4.755 H 93.0938" /><path
       inkscape:connector-curvature="0"
       id="path416"
       style="fill:#e7e7e7;fill-opacity:1;fill-rule:nonzero;stroke:none;stroke-width:0.1"
       d="M 467.301,346.924 H 108.543 c -10.3895,0 -15.4492,-0.635 -15.4492,8.806 v -0.929 c 0,-11.66 5.0597,-16.073 15.4492,-16.073 h 358.758 c 10.388,0 15.449,5.253 15.449,16.913 v 0.929 c 0,-8.274 -5.061,-9.646 -15.449,-9.646" /><path
       inkscape:connector-curvature="0"
       id="path422"
       style="fill:#607d8b;fill-opacity:1;fill-rule:nonzero;stroke:none;stroke-width:0.1"
       d="M 459.678,534.119 H 116.164 v 25.698 c 0,3.5 2.837,6.338 6.337,6.338 H 453.34 c 3.501,0 6.338,-2.838 6.338,-6.338 v -25.698" /><path
       inkscape:connector-curvature="0"
       id="path424"
       style="fill:#cfd8dc;fill-opacity:1;fill-rule:nonzero;stroke:none;stroke-width:0.1"
       d="m 324.15,313.623 h -72.456 l 2.076,25.1 h 67.625 l 2.755,-25.1" /><path
       inkscape:connector-curvature="0"
       id="path426"
       style="fill:#cacacb;fill-opacity:1;fill-rule:nonzero;stroke:none;stroke-width:0.1"
       d="m 322.374,329.664 -0.995,9.059 h -67.624 l -0.75,-9.059 h 69.369" /><path
       inkscape:connector-curvature="0"
       id="path428"
       style="fill:#e7e7e7;fill-opacity:1;fill-rule:nonzero;stroke:none;stroke-width:0.1"
       d="m 336.828,302.746 c 2.078,-2.889 0.507,-5.253 -3.48,-5.253 h -90.853 c -3.989,0 -5.556,2.364 -3.48,5.253 l 12.679,10.877 h 72.456 l 12.678,-10.877" /><path
       inkscape:connector-curvature="0"
       id="path430"
       style="fill:#6bcff1;fill-opacity:1;fill-rule:nonzero;stroke:none;stroke-width:0.1"
       d="m 93.0961,567.451 c 0.1172,11.357 5.1781,15.664 15.4469,15.664 -10.2676,0 -15.3297,-4.307 -15.4469,-15.664" /><path
       inkscape:connector-curvature="0"
       id="path436"
       style="fill:#ffffff;fill-opacity:1;fill-rule:nonzero;stroke:none;stroke-width:0.1"
       d="m 199.63828,645.20271 h -41.25 v 179.29 -25.054 h 179.445 l -138.195,-154.236" /><path
       inkscape:connector-curvature="0"
       id="path438"
       style="fill:#607d8b;fill-opacity:1;fill-rule:nonzero;stroke:none;stroke-width:0.1"
       d="M 295.609,534.119 H 116.164 v 25.698 c 0,3.5 2.837,6.338 6.337,6.338 h 201.812 l -28.704,-32.036" /><path
       inkscape:connector-curvature="0"
       id="path440"
       style="fill:#cfd8dc;fill-opacity:1;fill-rule:nonzero;stroke:none;stroke-width:0.1"
       d="m 371.544,504.639 c -9.048,9.048 -21.547,14.644 -35.352,14.644 v -49.996 l 35.352,35.352" /><path
       inkscape:connector-curvature="0"
       id="path442"
       style="fill:#607d8b;fill-opacity:1;fill-rule:nonzero;stroke:none;stroke-width:0.1"
       d="m 325.925,443.173 v 49.996 c -27.612,0 -49.996,-22.384 -49.996,-49.996 0,-27.612 22.384,-49.995 49.996,-49.995 6.438,0 12.586,1.23 18.238,3.447 l -18.238,46.548" /><path
       inkscape:connector-curvature="0"
       id="path444"
       style="fill:#ff5252;fill-opacity:1;fill-rule:nonzero;stroke:none;stroke-width:0.1"
       d="m 381.577,445.85 c 0,13.806 -5.596,26.305 -14.644,35.352 l -35.176,-35.176 18.063,-46.724 c 18.588,7.289 31.757,25.375 31.757,46.548" /><path
       inkscape:connector-curvature="0"
       id="path446"
       style="fill:#cfd8dc;fill-opacity:1;fill-rule:nonzero;stroke:none;stroke-width:0.1"
       d="m 142.372,512.363 h 19.302 v 3.98516 h -19.302 z" /><path
       inkscape:connector-curvature="0"
       id="path448"
       style="fill:#cfd8dc;fill-opacity:1;fill-rule:nonzero;stroke:none;stroke-width:0.1"
       d="m 142.372,503.387 h 36.8563 v 3.98594 H 142.372 Z" /><path
       inkscape:connector-curvature="0"
       id="path450"
       style="fill:#cfd8dc;fill-opacity:1;fill-rule:nonzero;stroke:none;stroke-width:0.1"
       d="m 142.372,494.719 h 63.9191 v 3.98594 H 142.372 Z" /><path
       inkscape:connector-curvature="0"
       id="path452"
       style="fill:#cfd8dc;fill-opacity:1;fill-rule:nonzero;stroke:none;stroke-width:0.1"
       d="m 142.372,486.357 h 31.2 v 3.98594 h -31.2 z" /><path
       inkscape:connector-curvature="0"
       id="path454"
       style="fill:#cfd8dc;fill-opacity:1;fill-rule:nonzero;stroke:none;stroke-width:0.1"
       d="m 142.372,477.842 h 19.1961 v 3.98594 H 142.372 Z" /><path
       inkscape:connector-curvature="0"
       id="path456"
       style="fill:#cfd8dc;fill-opacity:1;fill-rule:nonzero;stroke:none;stroke-width:0.1"
       d="m 169.63,477.842 h 36.643 v 3.98594 H 169.63 Z" /><path
       inkscape:connector-curvature="0"
       id="path458"
       style="fill:#cfd8dc;fill-opacity:1;fill-rule:nonzero;stroke:none;stroke-width:0.1"
       d="m 213.096,477.842 h 23.7348 v 3.98594 H 213.096 Z" /><path
       inkscape:connector-curvature="0"
       id="path460"
       style="fill:#cfd8dc;fill-opacity:1;fill-rule:nonzero;stroke:none;stroke-width:0.1"
       d="m 179.228,486.357 h 26.423 v 3.98594 h -26.423 z" /><path
       inkscape:connector-curvature="0"
       id="path462"
       style="fill:#cfd8dc;fill-opacity:1;fill-rule:nonzero;stroke:none;stroke-width:0.1"
       d="m 210.543,486.357 h 26.2922 v 3.98594 H 210.543 Z" /><path
       inkscape:connector-curvature="0"
       id="path464"
       style="fill:#cfd8dc;fill-opacity:1;fill-rule:nonzero;stroke:none;stroke-width:0.1"
       d="m 188.107,503.387 h 18.366 v 3.98594 h -18.366 z" /><path
       inkscape:connector-curvature="0"
       id="path466"
       style="fill:#cfd8dc;fill-opacity:1;fill-rule:nonzero;stroke:none;stroke-width:0.1"
       d="m 213.096,503.387 h 23.859 v 3.98594 h -23.859 z" /><path
       inkscape:connector-curvature="0"
       id="path468"
       style="fill:#cfd8dc;fill-opacity:1;fill-rule:nonzero;stroke:none;stroke-width:0.1"
       d="m 213.096,494.719 h 23.859 v 3.98594 h -23.859 z" /><path
       inkscape:connector-curvature="0"
       id="path470"
       style="fill:#cfd8dc;fill-opacity:1;fill-rule:nonzero;stroke:none;stroke-width:0.1"
       d="m 169.14,512.363 h 32.2422 v 3.98516 H 169.14 Z" /><path
       inkscape:connector-curvature="0"
       id="path472"
       style="fill:#cfd8dc;fill-opacity:1;fill-rule:nonzero;stroke:none;stroke-width:0.1"
       d="m 207.591,512.363 h 29.3762 v 3.98516 H 207.591 Z" /><path
       inkscape:connector-curvature="0"
       id="path474"
       style="fill:#607d8b;fill-opacity:1;fill-rule:nonzero;stroke:none;stroke-width:0.1"
       d="m 252.248,454.426 h -36.039 c -1.14,0 -2.065,0.924 -2.065,2.064 0,1.141 0.925,2.065 2.065,2.065 h 36.039 c 1.141,0 2.065,-0.924 2.065,-2.065 0,-1.14 -0.924,-2.064 -2.065,-2.064" /><path
       inkscape:connector-curvature="0"
       id="path476"
       style="fill:#607d8b;fill-opacity:1;fill-rule:nonzero;stroke:none;stroke-width:0.1"
       d="m 252.248,445.548 h -36.039 c -1.14,0 -2.065,0.924 -2.065,2.064 0,1.141 0.925,2.065 2.065,2.065 h 36.039 c 1.141,0 2.065,-0.924 2.065,-2.065 0,-1.14 -0.924,-2.064 -2.065,-2.064" /><path
       inkscape:connector-curvature="0"
       id="path478"
       style="fill:#607d8b;fill-opacity:1;fill-rule:nonzero;stroke:none;stroke-width:0.1"
       d="m 252.248,436.67 h -36.039 c -1.14,0 -2.065,0.924 -2.065,2.064 0,1.141 0.925,2.065 2.065,2.065 h 36.039 c 1.141,0 2.065,-0.924 2.065,-2.065 0,-1.14 -0.924,-2.064 -2.065,-2.064" /><path
       inkscape:connector-curvature="0"
       id="path480"
       style="fill:#607d8b;fill-opacity:1;fill-rule:nonzero;stroke:none;stroke-width:0.1"
       d="m 234.963,427.792 h -18.754 c -1.14,0 -2.065,0.924 -2.065,2.064 0,1.141 0.925,2.065 2.065,2.065 h 18.754 c 1.14,0 2.064,-0.924 2.064,-2.065 0,-1.14 -0.924,-2.064 -2.064,-2.064" /><path
       inkscape:connector-curvature="0"
       id="path482"
       style="fill:#f14635;fill-opacity:1;fill-rule:nonzero;stroke:none;stroke-width:0.1"
       d="m 311.322,519.288 h -41.245 c -0.829,0 -1.5,0.671 -1.5,1.5 0,0.828 0.671,1.5 1.5,1.5 h 41.245 c 0.829,0 1.5,-0.672 1.5,-1.5 0,-0.829 -0.671,-1.5 -1.5,-1.5" /><path
       inkscape:connector-curvature="0"
       id="path484"
       style="fill:#f14635;fill-opacity:1;fill-rule:nonzero;stroke:none;stroke-width:0.1"
       d="m 311.322,510.409 h -41.245 c -0.829,0 -1.5,0.672 -1.5,1.5 0,0.829 0.671,1.5 1.5,1.5 h 41.245 c 0.829,0 1.5,-0.671 1.5,-1.5 0,-0.828 -0.671,-1.5 -1.5,-1.5" /><path
       inkscape:connector-curvature="0"
       id="path486"
       style="fill:#607d8b;fill-opacity:1;fill-rule:nonzero;stroke:none;stroke-width:0.1"
       d="m 155.819,461.605 c 0,-3.586 -2.907,-6.493 -6.493,-6.493 -3.586,0 -6.493,2.907 -6.493,6.493 0,3.586 2.907,6.494 6.493,6.494 3.586,0 6.493,-2.908 6.493,-6.494" /><path
       inkscape:connector-curvature="0"
       id="path488"
       style="fill:#607d8b;fill-opacity:1;fill-rule:nonzero;stroke:none;stroke-width:0.1"
       d="m 176.123,461.605 c 0,-3.586 -2.907,-6.493 -6.493,-6.493 -3.586,0 -6.493,2.907 -6.493,6.493 0,3.586 2.907,6.494 6.493,6.494 3.586,0 6.493,-2.908 6.493,-6.494" /><path
       inkscape:connector-curvature="0"
       id="path490"
       style="fill:#607d8b;fill-opacity:1;fill-rule:nonzero;stroke:none;stroke-width:0.1"
       d="m 196.427,461.605 c 0,-3.586 -2.907,-6.493 -6.493,-6.493 -3.586,0 -6.493,2.907 -6.493,6.493 0,3.586 2.907,6.494 6.493,6.494 3.586,0 6.493,-2.908 6.493,-6.494" /><path
       inkscape:connector-curvature="0"
       id="path492"
       style="fill:#607d8b;fill-opacity:1;fill-rule:nonzero;stroke:none;stroke-width:0.1"
       d="m 155.819,443.173 c 0,-3.586 -2.907,-6.493 -6.493,-6.493 -3.586,0 -6.493,2.907 -6.493,6.493 0,3.586 2.907,6.494 6.493,6.494 3.586,0 6.493,-2.908 6.493,-6.494" /><path
       inkscape:connector-curvature="0"
       id="path494"
       style="fill:#607d8b;fill-opacity:1;fill-rule:nonzero;stroke:none;stroke-width:0.1"
       d="m 176.123,443.173 c 0,-3.586 -2.907,-6.493 -6.493,-6.493 -3.586,0 -6.493,2.907 -6.493,6.493 0,3.586 2.907,6.494 6.493,6.494 3.586,0 6.493,-2.908 6.493,-6.494" /><path
       inkscape:connector-curvature="0"
       id="path496"
       style="fill:#607d8b;fill-opacity:1;fill-rule:nonzero;stroke:none;stroke-width:0.1"
       d="m 196.427,443.173 c 0,-3.586 -2.907,-6.493 -6.493,-6.493 -3.586,0 -6.493,2.907 -6.493,6.493 0,3.586 2.907,6.494 6.493,6.494 3.586,0 6.493,-2.908 6.493,-6.494" /><path
       inkscape:connector-curvature="0"
       id="path498"
       style="fill:#607d8b;fill-opacity:1;fill-rule:nonzero;stroke:none;stroke-width:0.1"
       d="m 155.819,424.741 c 0,-3.586 -2.907,-6.493 -6.493,-6.493 -3.586,0 -6.493,2.907 -6.493,6.493 0,3.586 2.907,6.493 6.493,6.493 3.586,0 6.493,-2.907 6.493,-6.493" /><path
       inkscape:connector-curvature="0"
       id="path500"
       style="fill:#607d8b;fill-opacity:1;fill-rule:nonzero;stroke:none;stroke-width:0.1"
       d="m 176.123,424.741 c 0,-3.586 -2.907,-6.493 -6.493,-6.493 -3.586,0 -6.493,2.907 -6.493,6.493 0,3.586 2.907,6.493 6.493,6.493 3.586,0 6.493,-2.907 6.493,-6.493" /><path
       inkscape:connector-curvature="0"
       id="path502"
       style="fill:#607d8b;fill-opacity:1;fill-rule:nonzero;stroke:none;stroke-width:0.1"
       d="m 196.427,424.741 c 0,-3.586 -2.907,-6.493 -6.493,-6.493 -3.586,0 -6.493,2.907 -6.493,6.493 0,3.586 2.907,6.493 6.493,6.493 3.586,0 6.493,-2.907 6.493,-6.493" /><path
       inkscape:connector-curvature="0"
       id="path504"
       style="fill:#57c9f4;fill-opacity:1;fill-rule:nonzero;stroke:none;stroke-width:0.1"
       d="m 411.012,491.304 h 25.42 v 25.421 h -25.42 z m 26.42,-2 h -27.42 c -0.553,0 -1,0.448 -1,1 v 27.421 c 0,0.552 0.447,1 1,1 h 27.42 c 0.553,0 1,-0.448 1,-1 v -27.421 c 0,-0.552 -0.447,-1 -1,-1" /><path
       inkscape:connector-curvature="0"
       id="path506"
       style="fill:#57c9f4;fill-opacity:1;fill-rule:nonzero;stroke:none;stroke-width:0.1"
       d="m 413.439,493.732 h 20.566 v 20.566 h -20.566 z" /><path
       inkscape:connector-curvature="0"
       id="path508"
       style="fill:#57c9f4;fill-opacity:1;fill-rule:nonzero;stroke:none;stroke-width:0.1"
       d="m 411.012,452.132 h 25.42 v 25.421 h -25.42 z m 26.42,-2 h -27.42 c -0.553,0 -1,0.447 -1,1 v 27.421 c 0,0.552 0.447,1 1,1 h 27.42 c 0.553,0 1,-0.448 1,-1 v -27.421 c 0,-0.553 -0.447,-1 -1,-1" /><path
       inkscape:connector-curvature="0"
       id="path510"
       style="fill:#57c9f4;fill-opacity:1;fill-rule:nonzero;stroke:none;stroke-width:0.1"
       d="m 411.012,412.959 h 25.42 v 25.422 h -25.42 z m 26.42,-2 h -27.42 c -0.553,0 -1,0.447 -1,1 v 27.422 c 0,0.553 0.447,1 1,1 h 27.42 c 0.553,0 1,-0.447 1,-1 v -27.422 c 0,-0.553 -0.447,-1 -1,-1" /><path
       inkscape:connector-curvature="0"
       id="path518"
       style="fill:#455a64;fill-opacity:1;fill-rule:nonzero;stroke:none;stroke-width:0.1"
       d="m 642.334,416.845 -1.4,3.748 c 1.646,0.614 3.38,0.926 5.153,0.926 h 8.704 v -4 h -8.704 c -1.294,0 -2.556,-0.227 -3.753,-0.674 z m -6.996,-21.098 h -4 v 11.022 c 0,0.862 0.075,1.725 0.223,2.565 l 3.939,-0.691 c -0.107,-0.614 -0.162,-1.245 -0.162,-1.875 z m 0,-26.506 h -4 v 13.253 h 4 z m 0,-26.506 h -4 v 13.253 h 4 z m 0,-26.506 h -4 v 13.253 h 4 z m 0,-26.505 h -4 v 13.253 h 4 z m -13.775,-22.035 -0.261,3.993 c 3.779,0.246 7.188,2.507 8.896,5.901 l 3.573,-1.799 c -2.342,-4.654 -7.02,-7.756 -12.208,-8.095 z m -92.902,-0.032 h -13.252 v 4 h 13.252 z m 26.507,0 h -13.253 v 4 h 13.253 z m 26.506,0 h -13.253 v 4 h 13.253 z m 26.506,0 h -13.253 v 4 h 13.253 z m -112.331,-8.612 -3.921,0.789 c 1.027,5.103 4.727,9.325 9.654,11.021 l 1.302,-3.781 c -3.591,-1.236 -6.286,-4.313 -7.035,-8.029 z m -0.212,-26.094 h -4 v 13.253 h 4 z m 0,-26.506 h -4 v 13.253 h 4 z M 439.353,187 H 426.1 v 4 h 13.253 z m 26.506,0 h -13.253 v 4 h 13.253 z m 15.029,0 h -1.776 v 4 h 1.776 c 3.297,0 6.366,1.482 8.42,4.067 l 3.132,-2.488 C 489.622,189.033 485.411,187 480.888,187" /><path
       inkscape:connector-curvature="0"
       id="path520"
       style="fill:#455a64;fill-opacity:1;fill-rule:nonzero;stroke:none;stroke-width:0.1"
       d="m 725.958,392.929 h -4 v 13.254 h 4 z m 0,-26.506 h -4 v 13.253 h 4 z m 0,-26.506 h -4 v 13.253 h 4 z m 0,-26.506 h -4 v 13.253 h 4 z m -2.522,-27.185 c -0.982,2.018 -1.479,4.186 -1.478,6.444 v 7.488 h 4 v -7.489 c -10e-4,-1.647 0.362,-3.226 1.076,-4.693 z m 25.507,-8.306 h -12.235 c -0.393,0 -0.783,0.016 -1.168,0.045 l 0.303,3.988 c 0.285,-0.021 0.573,-0.033 0.865,-0.033 h 12.235 z m 26.506,0 h -13.253 v 4 h 13.253 z m 26.505,0 h -13.252 v 4 h 13.252 z m 26.506,0 h -13.253 v 4 h 13.253 z m 25.07,-1.646 c -1.71,1.077 -3.688,1.646 -5.72,1.646 h -6.097 v 4 h 6.097 c 2.787,0 5.502,-0.782 7.851,-2.261 z m 1.382,-22.033 -1.927,3.504 c 3.326,1.831 5.461,5.321 5.57,9.108 l 3.998,-0.116 c -0.15,-5.197 -3.078,-9.985 -7.641,-12.496 z m -40.455,-1.82 h -13.253 v 4 h 13.253 z m 26.506,0 H 827.71 v 4 h 13.253 z m -61.296,-6.495 -3.672,1.584 c 2.065,4.786 6.553,8.157 11.714,8.797 l 0.493,-3.969 c -3.759,-0.467 -7.029,-2.924 -8.535,-6.412 z m -0.873,-25.572 h -4 v 13.253 h 4 v -13.253" /><path
       inkscape:connector-curvature="0"
       id="path522"
       style="fill:#455a64;fill-opacity:1;fill-rule:nonzero;stroke:none;stroke-width:0.1"
       d="m 1088.92,471 h -13.25 v 4 h 13.25 z m 26.51,0 h -13.26 v 4 h 13.26 z m 26.5,0 h -13.25 v 4 h 13.25 z m -87.98,-6.28 -3.64,1.666 c 2.17,4.738 6.73,8.01 11.9,8.537 l 0.41,-3.979 c -3.77,-0.384 -7.09,-2.769 -8.67,-6.224 z m -8.83,-24.712 -1.87,3.535 c 3.35,1.776 5.54,5.23 5.72,9.015 l 3.99,-0.182 c -0.23,-5.192 -3.24,-9.932 -7.84,-12.368 z m -146.479,-1.704 h -4.938 v 4 h 4.938 z m 26.506,0 h -13.253 v 4 h 13.253 z m 26.506,0 H 938.4 v 4 h 13.253 z m 26.506,0 h -13.253 v 4 h 13.253 z m 26.501,0 h -13.249 v 4 h 13.249 z m 26.51,0 h -13.25 v 4 h 13.25 v -4" /><path
       inkscape:connector-curvature="0"
       id="path524"
       style="fill:#455a64;fill-opacity:1;fill-rule:nonzero;stroke:none;stroke-width:0.1"
       d="m 741.804,717.977 h -4 V 721 h 4 z m -8.316,-25.502 -1.746,3.598 c 3.418,1.659 5.727,5.036 6.027,8.811 l 3.988,-0.317 c -0.412,-5.183 -3.581,-9.816 -8.269,-12.092 z M 693.051,691 h -13.253 v 4 h 13.253 z m 26.506,0 h -13.254 v 4 h 13.254 z m -61.682,-6.04 -3.595,1.755 c 2.287,4.683 6.927,7.84 12.112,8.241 l 0.308,-3.989 c -3.777,-0.291 -7.159,-2.593 -8.825,-6.007 z m -3.366,-26.124 c -1.123,2.114 -1.718,4.505 -1.718,6.914 v 7.032 h 4 v -7.032 c 0,-1.757 0.433,-3.499 1.25,-5.037 z M 680.232,651 h -12.691 c -0.218,0 -0.435,0.004 -0.65,0.014 l 0.177,3.996 c 0.157,-0.007 0.315,-0.01 0.473,-0.01 h 12.691 z m 26.506,0 h -13.253 v 4 h 13.253 z m 26.506,0 h -13.253 v 4 h 13.253 z m 26.505,0 h -13.253 v 4 h 13.253 z m 19.285,-12.686 h -4 v 1.936 c 0,3.245 -1.444,6.283 -3.961,8.336 l 2.527,3.1 c 3.453,-2.816 5.434,-6.984 5.434,-11.436 z m 0,-26.506 h -4 v 13.253 h 4 z m 0,-26.506 h -4 v 13.253 h 4 v -13.253" /><path
       inkscape:connector-curvature="0"
       id="path526"
       style="fill:#455a64;fill-opacity:1;fill-rule:nonzero;stroke:none;stroke-width:0.1"
       d="m 1082.28,767.051 h -13.25 v 4 h 13.25 z m -25.3,-15.797 h -4 v 5.332 c 0,3.115 0.97,6.083 2.82,8.584 l 3.22,-2.375 c -1.34,-1.808 -2.04,-3.955 -2.04,-6.209 z m 0,-26.506 h -4 v 13.253 h 4 z m 0,-26.506 h -4 v 13.253 h 4 z m 0,-26.506 h -4 v 13.253 h 4 z m -0.01,-26.585 -4,0.159 c 0,0.142 0.01,0.285 0.01,0.428 v 12.745 h 4 V 645.75 c 0,-0.193 -0.01,-0.396 -0.01,-0.599 z M 915.959,631 h -13.253 v 4 h 13.253 z m 26.506,0 h -13.253 v 4 h 13.253 z m 26.507,0 h -13.254 v 4 h 13.254 z m 26.506,0 h -13.253 v 4 h 13.253 z m 26.502,0 h -13.25 v 4 h 13.25 z m 20.25,0 h -6.99 v 4 h 6.99 c 1.77,0 3.52,0.438 5.07,1.267 l 1.88,-3.527 c -2.12,-1.138 -4.53,-1.74 -6.95,-1.74 z m -157.245,-10.319 -3.996,0.157 c 0.204,5.195 3.181,9.953 7.771,12.415 l 1.891,-3.524 c -3.346,-1.796 -5.517,-5.263 -5.666,-9.048 z m -0.008,-26.427 h -4 v 13.253 h 4 z m 0,-26.505 h -4 v 13.252 h 4 z m 0,-26.507 h -4 v 13.253 h 4 z m 0,-26.506 h -4 v 13.253 h 4 v -13.253" /><path
       inkscape:connector-curvature="0"
       id="path528"
       style="fill:#455a64;fill-opacity:1;fill-rule:nonzero;stroke:none;stroke-width:0.1"
       d="m 862.559,406.266 h -4 v 13.253 h 4 z m 0,-26.506 h -4 v 13.253 h 4 z m 0,-26.506 h -4 v 13.253 h 4 z m 13.69,-18.28 h -2.94 c -4.068,0 -7.857,1.621 -10.668,4.564 l 2.893,2.762 c 2.048,-2.145 4.81,-3.326 7.775,-3.326 h 2.94 z m 26.506,0 h -13.253 v 4 h 13.253 z m 26.506,0 h -13.253 v 4 h 13.253 z m 26.506,0 h -13.253 v 4 h 13.253 z m 26.507,0 H 969.02 v 4 h 13.254 z m 26.506,0 h -13.253 v 4 h 13.253 z m 26.51,0 h -13.26 v 4 h 13.26 z m 26.5,0 h -13.25 v 4 h 13.25 z m 22.04,-5.905 c -1.72,3.39 -5.13,5.644 -8.91,5.882 l 0.25,3.992 c 5.19,-0.328 9.87,-3.419 12.22,-8.067 z m 5.15,-25.385 h -4 v 13.253 h 4 z m 0,-26.506 h -4 v 13.253 h 4 z m 0,-26.506 h -4 v 13.253 h 4 z m 0,-26.506 h -4 v 13.253 h 4 z m 15.81,-16.647 h -3.92 c -3.58,0.001 -7.09,1.226 -9.89,3.451 l 2.49,3.13 c 2.12,-1.688 4.68,-2.58 7.4,-2.581 h 3.92 z m 26.51,0 h -13.26 v 4 h 13.26 v -4" /><path
       inkscape:connector-curvature="0"
       id="path530"
       style="fill:#455a64;fill-opacity:1;fill-rule:nonzero;stroke:none;stroke-width:0.1"
       d="m 615.087,460.842 h -13.253 v 4 h 13.253 z m 26.506,0 H 628.34 v 4 h 13.253 z m -59.474,-8.457 -3.909,0.847 c 1.103,5.087 4.865,9.255 9.815,10.878 l 1.246,-3.8 c -3.608,-1.183 -6.348,-4.22 -7.152,-7.925 z m -0.245,-26.061 h -4 v 13.253 h 4 z m -7.907,-25.69 -1.857,3.543 c 3.363,1.763 5.567,5.209 5.751,8.993 l 3.995,-0.195 c -0.253,-5.193 -3.276,-9.922 -7.889,-12.341 z m -40.45,-1.681 h -12.196 v 4 h 12.196 z m 26.506,0 H 546.77 v 4 h 13.253 v -4" /><path
       inkscape:connector-curvature="0"
       id="path532"
       style="fill:#cfd8dc;fill-opacity:1;fill-rule:nonzero;stroke:none;stroke-width:0.1"
       d="m 424.15,189 c 0,-4.433 -3.593,-8.026 -8.026,-8.026 -4.433,0 -8.026,3.593 -8.026,8.026 0,4.433 3.593,8.026 8.026,8.026 4.433,0 8.026,-3.593 8.026,-8.026" /><path
       inkscape:connector-curvature="0"
       id="path534"
       style="fill:#cfd8dc;fill-opacity:1;fill-rule:nonzero;stroke:none;stroke-width:0.1"
       d="m 537.373,400.953 c 0,-4.432 -3.593,-8.026 -8.026,-8.026 -4.433,0 -8.026,3.594 -8.026,8.026 0,4.433 3.593,8.027 8.026,8.027 4.433,0 8.026,-3.594 8.026,-8.027" /><path
       inkscape:connector-curvature="0"
       id="path536"
       style="fill:#cfd8dc;fill-opacity:1;fill-rule:nonzero;stroke:none;stroke-width:0.1"
       d="m 747.83,712.974 c 0,-4.433 -3.593,-8.026 -8.026,-8.026 -4.433,0 -8.026,3.593 -8.026,8.026 0,4.433 3.593,8.026 8.026,8.026 4.433,0 8.026,-3.593 8.026,-8.026" /><path
       inkscape:connector-curvature="0"
       id="path538"
       style="fill:#cfd8dc;fill-opacity:1;fill-rule:nonzero;stroke:none;stroke-width:0.1"
       d="m 1097.19,770.692 c 0,-4.432 -3.59,-8.026 -8.02,-8.026 -4.44,0 -8.03,3.594 -8.03,8.026 0,4.433 3.59,8.027 8.03,8.027 4.43,0 8.02,-3.594 8.02,-8.027" /><path
       inkscape:connector-curvature="0"
       id="path540"
       style="fill:#cfd8dc;fill-opacity:1;fill-rule:nonzero;stroke:none;stroke-width:0.1"
       d="m 1149.96,473 c 0,-4.433 -3.6,-8.026 -8.03,-8.026 -4.43,0 -8.02,3.593 -8.02,8.026 0,4.433 3.59,8.026 8.02,8.026 4.43,0 8.03,-3.593 8.03,-8.026" /><path
       inkscape:connector-curvature="0"
       id="path542"
       style="fill:#cfd8dc;fill-opacity:1;fill-rule:nonzero;stroke:none;stroke-width:0.1"
       d="m 1149.96,209.518 c 0,-4.432 -3.6,-8.026 -8.03,-8.026 -4.43,0 -8.02,3.594 -8.02,8.026 0,4.433 3.59,8.027 8.02,8.027 4.43,0 8.03,-3.594 8.03,-8.027" /><path
       inkscape:connector-curvature="0"
       id="path544"
       style="fill:#cfd8dc;fill-opacity:1;fill-rule:nonzero;stroke:none;stroke-width:0.1"
       d="m 784.821,221.694 c 0,-4.433 -3.594,-8.026 -8.026,-8.026 -4.433,0 -8.027,3.593 -8.027,8.026 0,4.433 3.594,8.026 8.027,8.026 4.432,0 8.026,-3.593 8.026,-8.026" /><path
       inkscape:connector-curvature="0"
       id="path3154"
       style="fill:#cfd8dc;fill-opacity:1;fill-rule:nonzero;stroke:none;stroke-width:0.08393536"
       d="m 781.9223,390.36636 c -3.8149,0 -7.8002,0.30133 -11.84,0.89811 -36.1249,5.3299 -46.8006,20.16044 -49.9524,28.64546 -6.0417,-6.91208 -19.5141,-18.99877 -39.7921,-19.00212 -2.9772,0 -6.0291,0.27111 -9.0759,0.80577 -27.1363,4.74739 -33.3417,24.97833 -34.7392,32.99583 -3.8761,-0.89643 -11.0761,-2.22764 -19.7122,-2.22764 -16.4975,-8.4e-4 -38.8805,4.92365 -51.8066,28.38526 -9.4629,17.17737 -8.9601,37.85401 1.3497,55.30837 8.7276,14.77766 23.0251,23.95851 37.3109,23.95851 1.4278,0 2.858,-0.0906 4.2816,-0.26859 2.189,7.04049 10.4466,26.23315 35.2478,26.23315 3.4825,0 7.1933,-0.38526 11.0635,-1.14823 2.1001,11.20453 12.8975,50.0666 61.5372,51.63367 1.1844,0.0378 2.3527,0.0562 3.4976,0.0562 40.247,0 55.6659,-23.38019 59.7418,-31.33811 4.6845,1.90366 15.3535,5.5859 27.8397,5.5859 13.5338,0 25.121,-4.28322 34.4446,-12.73131 20.6926,-18.75032 21.0384,-37.51491 20.0085,-45.45016 1.8021,0.15696 4.1699,0.29545 6.9389,0.29545 12.0506,0 34.3229,-2.73545 48.0631,-21.0577 9.7751,-13.03265 10.5221,-31.77457 1.9607,-48.90746 -7.6373,-15.27456 -20.8487,-24.87508 -34.6317,-25.23769 -2.6599,-4.45612 -11.8164,-16.86009 -31.2785,-16.86093 -5.0882,0 -10.5381,0.87628 -16.2323,2.60871 -3.9265,-7.91175 -19.2027,-33.18049 -54.2247,-33.18049" /><text
       sodipodi:linespacing="100%"
       id="text4136"
       y="-447.90973"
       x="638.50549"
       style="font-style:normal;font-variant:normal;font-weight:normal;font-stretch:normal;font-size:82.55513763px;line-height:100%;font-family:'Roboto Slab';-inkscape-font-specification:'Roboto Slab, Normal';text-align:start;letter-spacing:0px;word-spacing:0px;writing-mode:lr-tb;text-anchor:start;fill:#455a64;fill-opacity:1;stroke:none;stroke-width:1.03193927px;stroke-linecap:butt;stroke-linejoin:miter;stroke-opacity:1"
       xml:space="preserve"
       transform="scale(1,-1)"><tspan
         y="-447.90973"
         x="638.50549"
         id="tspan4138"
         sodipodi:role="line"
         style="stroke-width:1.03193927px">simpl</tspan></text>
<circle
       style="color:#000000;display:inline;overflow:visible;visibility:visible;fill:#ff5252;fill-opacity:1;stroke:#ff5252;stroke-width:2.26067901px;stroke-linecap:butt;stroke-linejoin:miter;stroke-miterlimit:4;stroke-dasharray:none;stroke-dashoffset:0;stroke-opacity:1;marker:none;enable-background:accumulate"
       id="path4567-7"
       cx="690.70093"
       cy="-507.14301"
       r="7.5355964"
       transform="scale(1,-1)" /><circle
       style="color:#000000;display:inline;overflow:visible;visibility:visible;fill:#ff5252;fill-opacity:1;stroke:#ff5252;stroke-width:2.26067901px;stroke-linecap:butt;stroke-linejoin:miter;stroke-miterlimit:4;stroke-dasharray:none;stroke-dashoffset:0;stroke-opacity:1;marker:none;enable-background:accumulate"
       id="path4567-7-3"
       cx="653.50354"
       cy="-507.14673"
       r="7.5355959"
       transform="scale(1,-1)" /><circle
       style="color:#000000;display:inline;overflow:visible;visibility:visible;fill:#ff5252;fill-opacity:1;stroke:#ff5252;stroke-width:2.26067901px;stroke-linecap:butt;stroke-linejoin:miter;stroke-miterlimit:4;stroke-dasharray:none;stroke-dashoffset:0;stroke-opacity:1;marker:none;enable-background:accumulate"
       id="path4567-7-7"
       cx="653.88708"
       cy="-542.23376"
       r="7.5355959"
       transform="scale(1,-1)" /><circle
       style="color:#000000;display:inline;overflow:visible;visibility:visible;fill:#ff5252;fill-opacity:1;stroke:#ff5252;stroke-width:2.26067901px;stroke-linecap:butt;stroke-linejoin:miter;stroke-miterlimit:4;stroke-dasharray:none;stroke-dashoffset:0;stroke-opacity:1;marker:none;enable-background:accumulate"
       id="path4567-7-9"
       cx="691.08325"
       cy="-541.46698"
       r="7.5355959"
       transform="scale(1,-1)" /></g></svg>